<?xml version="1.0" encoding="UTF-8"?>
<svg width="137px" height="28px" viewBox="0 0 137 28" version="1.1" xmlns="http://www.w3.org/2000/svg" xmlns:xlink="http://www.w3.org/1999/xlink">
    <title>Group 2</title>
    <g id="Page-1" stroke="none" stroke-width="1" fill="none" fill-rule="evenodd">
        <g id="Contactout---LI-Widget---1600x900---1" transform="translate(-1300.000000, -122.000000)" fill-rule="nonzero">
            <g id="widget" transform="translate(1277.000000, 110.000000)">
                <g id="menu" transform="translate(3.000000, 0.000000)">
                    <g id="Group-2" transform="translate(20.000000, 12.000000)">
                        <path d="M6.28578462,5.86673231 C7.28930462,5.86673231 8.19633231,6.04317538 9.00686769,6.39606154 C9.81740308,6.74894769 10.4983631,7.25622154 11.0497477,7.91788308 L11.0497477,7.91788308 L9.32942769,9.50587077 L9.17033485,9.33104509 C8.41623675,8.54332477 7.49883077,8.14946462 6.41811692,8.14946462 C5.70131692,8.14946462 5.06171077,8.30660923 4.49929846,8.62089846 C3.93688615,8.93518769 3.49853538,9.37353846 3.18424615,9.93595077 C2.86995692,10.4983631 2.71281231,11.1379692 2.71281231,11.8547692 C2.71281231,12.5715692 2.86995692,13.2111754 3.18424615,13.7735877 C3.49853538,14.336 3.93688615,14.7743508 4.49929846,15.08864 C5.06171077,15.4029292 5.70131692,15.5600738 6.41811692,15.5600738 C7.57602462,15.5600738 8.54646154,15.1024246 9.32942769,14.1871262 L9.32942769,14.1871262 L11.0497477,15.7751138 L10.8610516,15.9934213 C10.3447923,16.5597818 9.72397402,16.9998003 8.99859692,17.3134769 C8.18254769,17.6663631 7.27276308,17.8428062 6.26924308,17.8428062 C5.08928,17.8428062 4.02235077,17.5864123 3.06845538,17.0736246 C2.11456,16.5608369 1.36467692,15.8495508 0.818806154,14.9397662 C0.272935385,14.0299815 0,13.0016492 0,11.8547692 C0,10.7078892 0.272935385,9.67955692 0.818806154,8.76977231 C1.36467692,7.85998769 2.11456,7.14870154 3.06845538,6.63591385 C4.02235077,6.12312615 5.09479385,5.86673231 6.28578462,5.86673231 Z M79.1181785,5.86673231 C80.3201969,5.86673231 81.4009108,6.12588308 82.36032,6.64418462 C83.3197292,7.16248615 84.0751262,7.87652923 84.6265108,8.78631385 C85.1778954,9.69609846 85.4535877,10.7189169 85.4535877,11.8547692 C85.4535877,12.9906215 85.1778954,14.01344 84.6265108,14.9232246 C84.0751262,15.8330092 83.3197292,16.5470523 82.36032,17.0653538 C81.4009108,17.5836554 80.3201969,17.8428062 79.1181785,17.8428062 C77.91616,17.8428062 76.8326892,17.5836554 75.8677662,17.0653538 C74.9028431,16.5470523 74.1474462,15.8330092 73.6015754,14.9232246 C73.0557046,14.01344 72.7827692,12.9906215 72.7827692,11.8547692 C72.7827692,10.7189169 73.0557046,9.69609846 73.6015754,8.78631385 C74.1474462,7.87652923 74.9028431,7.16248615 75.8677662,6.64418462 C76.8326892,6.12588308 77.91616,5.86673231 79.1181785,5.86673231 Z M16.9219939,8.61262769 C17.8593477,8.61262769 18.6974523,8.80836923 19.4363077,9.19985231 C20.1751631,9.59133538 20.7541169,10.1344492 21.1731692,10.8291938 C21.5922216,11.5239385 21.8017477,12.3124185 21.8017477,13.1946338 C21.8017477,14.0768492 21.5922216,14.8653292 21.1731692,15.5600738 C20.7541169,16.2548185 20.1751631,16.7979323 19.4363077,17.1894154 C18.6974523,17.5808985 17.8593477,17.77664 16.9219939,17.77664 C15.98464,17.77664 15.1437785,17.5808985 14.3994092,17.1894154 C13.65504,16.7979323 13.0733292,16.2548185 12.6542769,15.5600738 C12.2352246,14.8653292 12.0256985,14.0768492 12.0256985,13.1946338 C12.0256985,12.3124185 12.2352246,11.5239385 12.6542769,10.8291938 C13.0733292,10.1344492 13.65504,9.59133538 14.3994092,9.19985231 C15.1437785,8.80836923 15.98464,8.61262769 16.9219939,8.61262769 Z M38.1447877,6.77651692 L38.1447877,8.94345846 L40.3448123,8.94345846 L40.3448123,10.9284431 L38.1447877,10.9284431 L38.1447877,14.55104 L38.1505266,14.7064967 C38.1734822,15.0069451 38.2653047,15.2446031 38.4259939,15.4194708 C38.6134647,15.6234831 38.8836431,15.7254892 39.2365293,15.7254892 C39.6335262,15.7254892 39.9864123,15.6152123 40.2951877,15.3946585 L40.2951877,15.3946585 L40.9733908,17.2142277 L40.8142612,17.321086 C40.5928251,17.456065 40.334336,17.5610486 40.0387939,17.6360369 C39.6693662,17.7297723 39.2861539,17.77664 38.889157,17.77664 C37.8194708,17.77664 36.9979077,17.5064615 36.4244677,16.9661046 C35.8510277,16.4257477 35.5643077,15.6317538 35.5643077,14.5841231 L35.5643077,14.5841231 L35.5643077,6.77651692 L38.1447877,6.77651692 Z M46.2666831,8.61262769 C47.4025354,8.61262769 48.2902647,8.97102769 48.9298708,9.68782769 L48.9298708,9.68782769 L48.9298708,8.74496 L51.5103508,8.74496 L51.5103508,17.6443077 L49.0456616,17.6443077 L49.0456616,16.6187323 L48.9139174,16.7679737 C48.281271,17.4404179 47.3988595,17.77664 46.2666831,17.77664 C45.4285785,17.77664 44.6704247,17.5891692 43.9922216,17.2142277 C43.3140185,16.8392862 42.7819324,16.3044431 42.3959631,15.6096985 C42.0099939,14.9149538 41.8170093,14.1099323 41.8170093,13.1946338 C41.8170093,12.2793354 42.0099939,11.4743138 42.3959631,10.7795692 C42.7819324,10.0848246 43.3140185,9.54998154 43.9922216,9.17504 C44.6704247,8.80009846 45.4285785,8.61262769 46.2666831,8.61262769 Z M58.5239631,8.61262769 C59.461317,8.61262769 60.2801231,8.80836923 60.9803816,9.19985231 C61.6806401,9.59133538 62.1906708,10.1509908 62.5104739,10.8788185 L62.5104739,10.8788185 L60.5089478,11.9540185 L60.4065759,11.785396 C59.949433,11.0817618 59.3163816,10.7299446 58.5074216,10.7299446 C57.8347324,10.7299446 57.2778339,10.9504985 56.8367262,11.3916062 C56.3956185,11.8327138 56.1750647,12.4337231 56.1750647,13.1946338 C56.1750647,13.9555446 56.3956185,14.5565538 56.8367262,14.9976615 C57.2778339,15.4387692 57.8347324,15.6593231 58.5074216,15.6593231 C59.389637,15.6593231 60.0568124,15.2512985 60.5089478,14.4352492 L60.5089478,14.4352492 L62.5104739,15.5269908 L62.3968274,15.7565301 C62.0749822,16.353387 61.6028336,16.8282585 60.9803816,17.1811446 C60.2801231,17.5781415 59.461317,17.77664 58.5239631,17.77664 C57.5755816,17.77664 56.7236924,17.5808985 55.9682955,17.1894154 C55.2128985,16.7979323 54.622917,16.2548185 54.1983508,15.5600738 C53.7737847,14.8653292 53.5615016,14.0768492 53.5615016,13.1946338 C53.5615016,12.3124185 53.7737847,11.5239385 54.1983508,10.8291938 C54.622917,10.1344492 55.2128985,9.59133538 55.9682955,9.19985231 C56.7236924,8.80836923 57.5755816,8.61262769 58.5239631,8.61262769 Z M66.7947324,6.77651692 L66.7947324,8.94345846 L68.994757,8.94345846 L68.994757,10.9284431 L66.7947324,10.9284431 L66.7947324,14.55104 L66.8004713,14.7064967 C66.8234269,15.0069451 66.9152493,15.2446031 67.0759385,15.4194708 C67.2634093,15.6234831 67.5335878,15.7254892 67.8864739,15.7254892 C68.2834708,15.7254892 68.636357,15.6152123 68.9451324,15.3946585 L68.9451324,15.3946585 L69.6233355,17.2142277 L69.4642059,17.321086 C69.2427698,17.456065 68.9842807,17.5610486 68.6887385,17.6360369 C68.3193108,17.7297723 67.9360985,17.77664 67.5391016,17.77664 C66.4694155,17.77664 65.6478524,17.5064615 65.0744124,16.9661046 C64.5009724,16.4257477 64.2142524,15.6317538 64.2142524,14.5841231 L64.2142524,14.5841231 L64.2142524,6.77651692 L66.7947324,6.77651692 Z M90.1513846,8.74496 L90.1513846,13.3931323 L90.1551099,13.5841802 C90.2072636,14.890415 90.8070311,15.5435323 91.9544123,15.5435323 C92.5719631,15.5435323 93.0682092,15.3422769 93.4431508,14.9397662 C93.8180923,14.5372554 94.0055631,13.9390031 94.0055631,13.1450092 L94.0055631,13.1450092 L94.0055631,8.74496 L96.5860431,8.74496 L96.5860431,17.6443077 L94.1378954,17.6443077 L94.1378954,16.5856492 L93.9614523,16.7710523 C93.6581908,17.0674215 93.3089805,17.3006113 92.9138216,17.4706215 C92.4396308,17.6746338 91.9268431,17.77664 91.3754585,17.77664 C90.2065231,17.77664 89.2801969,17.4402954 88.59648,16.7676062 C87.9127631,16.0949169 87.5709046,15.0969108 87.5709046,13.7735877 L87.5709046,13.7735877 L87.5709046,8.74496 L90.1513846,8.74496 Z M101.846252,6.77651692 L101.846252,8.94345846 L104.046277,8.94345846 L104.046277,10.9284431 L101.846252,10.9284431 L101.846252,14.55104 L101.851991,14.7064967 C101.874947,15.0069451 101.966769,15.2446031 102.127458,15.4194708 C102.314929,15.6234831 102.585108,15.7254892 102.937994,15.7254892 C103.334991,15.7254892 103.687877,15.6152123 103.996652,15.3946585 L103.996652,15.3946585 L104.674855,17.2142277 L104.515726,17.321086 C104.29429,17.456065 104.035801,17.5610486 103.740258,17.6360369 C103.370831,17.7297723 102.987618,17.77664 102.590622,17.77664 C101.520935,17.77664 100.699372,17.5064615 100.125932,16.9661046 C99.5524923,16.4257477 99.2657723,15.6317538 99.2657723,14.5841231 L99.2657723,14.5841231 L99.2657723,6.77651692 L101.846252,6.77651692 Z M29.2619816,8.61262769 C30.3647508,8.61262769 31.2552369,8.94345846 31.93344,9.60512 C32.6116431,10.2667815 32.9507446,11.2482462 32.9507446,12.5495138 L32.9507446,12.5495138 L32.9507446,17.6443077 L30.3702646,17.6443077 L30.3702646,12.9465108 L30.3645466,12.7178904 C30.3340502,12.1259347 30.1815686,11.6755692 29.9071016,11.3667938 C29.5983262,11.0194215 29.1517046,10.8457354 28.5672369,10.8457354 C27.9166031,10.8457354 27.3983016,11.0469908 27.0123323,11.4495015 C26.6263631,11.8520123 26.4333785,12.4502646 26.4333785,13.2442585 L26.4333785,13.2442585 L26.4333785,17.6443077 L23.8528985,17.6443077 L23.8528985,8.74496 L26.3175877,8.74496 L26.3175877,9.78707692 L26.4691622,9.63162022 C26.7824387,9.33117187 27.15648,9.09351385 27.5912862,8.91864615 C28.09856,8.71463385 28.6554585,8.61262769 29.2619816,8.61262769 Z M16.9219939,10.7299446 C16.2603323,10.7299446 15.7144616,10.9532554 15.2843816,11.3998769 C14.8543016,11.8464985 14.6392616,12.4447508 14.6392616,13.1946338 C14.6392616,13.9445169 14.8543016,14.5427692 15.2843816,14.9893908 C15.7144616,15.4360123 16.2603323,15.6593231 16.9219939,15.6593231 C17.5836554,15.6593231 18.1267692,15.4360123 18.5513354,14.9893908 C18.9759016,14.5427692 19.1881846,13.9445169 19.1881846,13.1946338 C19.1881846,12.4447508 18.9759016,11.8464985 18.5513354,11.3998769 C18.1267692,10.9532554 17.5836554,10.7299446 16.9219939,10.7299446 Z M46.7133047,10.7299446 C46.0516431,10.7299446 45.5057724,10.9532554 45.0756924,11.3998769 C44.6456124,11.8464985 44.4305724,12.4447508 44.4305724,13.1946338 C44.4305724,13.9445169 44.6456124,14.5427692 45.0756924,14.9893908 C45.5057724,15.4360123 46.0516431,15.6593231 46.7133047,15.6593231 C47.3639385,15.6593231 47.9042954,15.4360123 48.3343754,14.9893908 C48.7644554,14.5427692 48.9794954,13.9445169 48.9794954,13.1946338 C48.9794954,12.4447508 48.7644554,11.8464985 48.3343754,11.3998769 C47.9042954,10.9532554 47.3639385,10.7299446 46.7133047,10.7299446 Z M79.1181785,8.14946462 C78.4344615,8.14946462 77.8169108,8.30660923 77.2655262,8.62089846 C76.7141415,8.93518769 76.2813046,9.37353846 75.9670154,9.93595077 C75.6527262,10.4983631 75.4955815,11.1379692 75.4955815,11.8547692 C75.4955815,12.5715692 75.6527262,13.2111754 75.9670154,13.7735877 C76.2813046,14.336 76.7141415,14.7743508 77.2655262,15.08864 C77.8169108,15.4029292 78.4344615,15.5600738 79.1181785,15.5600738 C79.8018954,15.5600738 80.4194462,15.4029292 80.9708308,15.08864 C81.5222154,14.7743508 81.9550523,14.336 82.2693415,13.7735877 C82.5836308,13.2111754 82.7407754,12.5715692 82.7407754,11.8547692 C82.7407754,11.1379692 82.5836308,10.4983631 82.2693415,9.93595077 C81.9550523,9.37353846 81.5222154,8.93518769 80.9708308,8.62089846 C80.4194462,8.30660923 79.8018954,8.14946462 79.1181785,8.14946462 Z" id="Combined-Shape" fill="#373737"></path>
                        <g id="logo" transform="translate(108.954059, 0.000000)">
                            <path d="M15.7114971,0 C22.2603426,-1.2030034e-15 27.5692308,5.30888819 27.5692308,11.8577337 C27.5692308,18.4065791 22.2603426,23.7154673 15.7114971,23.7154673 C13.3054154,23.7154673 11.0667116,22.9988376 9.19718373,21.7673763 L4.09049237,26.8737203 C3.16434576,27.7998669 1.66276542,27.7998669 0.736618813,26.8737203 C-0.189527796,25.9475737 -0.189527796,24.4459934 0.736618813,23.5198468 L5.83426903,18.420993 C4.58297763,16.5416483 3.85376344,14.2848495 3.85376344,11.8577337 C3.85376344,5.30888819 9.16265163,1.2030034e-15 15.7114971,0 Z" id="Combined-Shape" fill="#28E06E"></path>
                            <path d="M22.1126065,9.32242051 L22.1128205,14.9151956 C22.1128205,15.8768419 21.3155479,16.6564103 20.3320623,16.6564103 L10.9707158,16.6564103 C9.98723023,16.6564103 9.18995761,15.8768419 9.18995761,14.9151956 L9.18974359,9.32242051 L15.4006914,12.2921747 L15.448778,12.3125303 C15.5952155,12.3668118 15.7597439,12.3600266 15.9016587,12.2921747 L15.9016587,12.2921747 L22.1126065,9.32242051 Z M20.3320623,6.89230769 C21.1465715,6.89230769 21.8333586,7.42700764 22.0453133,8.1570052 L15.651132,11.2141677 L9.25738133,8.15729275 C9.46923918,7.42714807 10.1560997,6.89230769 10.9707158,6.89230769 L20.3320623,6.89230769 Z" id="Combined-Shape" fill="#FFFFFF"></path>
                        </g>
                    </g>
                </g>
            </g>
        </g>
    </g>
</svg>