<svg width="63" height="24" viewBox="0 0 63 24" fill="none" xmlns="http://www.w3.org/2000/svg">
<rect width="63" height="24" rx="4" fill="#2C4BFF"/>
<path fill-rule="evenodd" clip-rule="evenodd" d="M8 8.85102L13.1028 6.20776L18.2605 8.85102L13.1028 11.5035L8 8.85102ZM38.634 10.1361V10.0732C38.634 9.20128 39.1469 8.92262 40.0106 8.98554V7.39446C37.9412 7.26861 36.9605 8.30237 36.9605 10.0732V10.1361H36.0248V11.7272H36.9605V16.5454H38.634V11.7272H39.6236H40.0106H40.5593V16.5454H42.2328V11.7272H43.6094V10.1361H42.2328V10.0732C42.2328 9.20128 42.7367 8.92262 43.6094 8.98554V7.39446C41.54 7.26861 40.5593 8.30237 40.5593 10.0732V10.1361H40.0106H39.6236H38.634ZM26.9375 11.8799C27.4684 11.4574 27.7922 10.8551 27.7922 10.0821C27.7922 8.58087 26.5686 7.55611 25.0301 7.55611H21.4582V16.5273H25.318C26.8925 16.5273 28.1521 15.4666 28.1521 13.9294C28.1341 13.0035 27.6663 12.2934 26.9375 11.8799ZM25.0391 9.2191C25.6149 9.2191 26.0108 9.64159 26.0108 10.2079C26.0108 10.7742 25.5969 11.1967 25.0391 11.1967H23.2487V9.2191H25.0391ZM25.309 14.8823H23.2487V12.7698H25.309C25.9208 12.7698 26.3617 13.2193 26.3617 13.8215C26.3617 14.4328 25.9208 14.8823 25.309 14.8823ZM33.3705 10.1269V13.5877C33.3705 14.7024 32.7587 15.1788 31.94 15.1788C31.1842 15.1788 30.6533 14.7293 30.6533 13.8574V10.1269H28.9799V14.0641C28.9799 15.7721 30.0506 16.7159 31.4361 16.7159C32.3089 16.7159 32.9836 16.3923 33.3615 15.817V16.5362H35.035V10.1269H33.3705ZM50.5463 14.0104H45.6518C45.8947 14.8554 46.5965 15.2149 47.4692 15.2149C48.126 15.2149 48.6479 14.9452 48.9268 14.5767L50.2764 15.3408C49.6736 16.2127 48.7018 16.7161 47.4512 16.7161C45.2739 16.7161 43.8973 15.2419 43.8973 13.3272C43.8973 11.4125 45.2829 9.93829 47.3253 9.93829C49.2417 9.93829 50.6093 11.4395 50.6093 13.3272C50.6093 13.5789 50.5823 13.7946 50.5463 14.0104ZM47.3253 11.4395C46.4256 11.4395 45.8137 11.9159 45.6248 12.7339H48.9358C48.7288 11.808 48.0271 11.4395 47.3253 11.4395ZM53.0296 11.2328V10.1272H51.3561V16.5364H53.0296V13.4711C53.0296 12.1228 54.1273 11.7362 55 11.8441V10.0013C54.1813 10.0013 53.3625 10.3609 53.0296 11.2328ZM13.1028 16.0392L9.62152 14.1514L8 15.0279L13.1028 17.7922L18.2605 15.0279L16.6207 14.1514L13.1028 16.0392ZM9.62152 11.1725L13.1028 12.8845L16.6207 11.1725L18.2605 11.9715L13.1028 14.4824L8 11.9715L9.62152 11.1725Z" fill="white"/>
</svg>
