<svg width="50" height="12" viewBox="0 0 50 12" fill="none" xmlns="http://www.w3.org/2000/svg">
<path fill-rule="evenodd" clip-rule="evenodd" d="M0.154297 2.73807L5.56608 0L11.0362 2.73807L5.56608 5.48571L0.154297 2.73807ZM32.6434 4.0693V4.00412C32.6434 3.10089 33.1873 2.81223 34.1033 2.87741V1.22926C31.9087 1.0989 30.8685 2.16973 30.8685 4.00412V4.0693H29.8762V5.71745H30.8685V10.7085H32.6434V5.71745H33.6929H34.1033H34.6853V10.7085H36.4601V5.71745H37.9201V4.0693H36.4601V4.00412C36.4601 3.10089 36.9945 2.81223 37.9201 2.87741V1.22926C35.7254 1.0989 34.6853 2.16973 34.6853 4.00412V4.0693H34.1033H33.6929H32.6434ZM20.2386 5.87558C20.8016 5.43793 21.1451 4.81406 21.1451 4.01326C21.1451 2.45823 19.8474 1.39671 18.2157 1.39671H14.4275V10.6897H18.521C20.1909 10.6897 21.5268 9.5909 21.5268 7.99862C21.5077 7.03953 21.0115 6.30391 20.2386 5.87558ZM18.2252 3.11935C18.8359 3.11935 19.2558 3.55699 19.2558 4.14362C19.2558 4.73025 18.8168 5.1679 18.2252 5.1679H16.3264V3.11935H18.2252ZM18.5115 8.98565H16.3264V6.79742H18.5115C19.1604 6.79742 19.6279 7.263 19.6279 7.88688C19.6279 8.52007 19.1604 8.98565 18.5115 8.98565ZM27.0612 4.05971V7.64467C27.0612 8.7993 26.4123 9.29282 25.544 9.29282C24.7425 9.29282 24.1795 8.82724 24.1795 7.92402V4.05971H22.4046V8.13818C22.4046 9.90738 23.5402 10.8851 25.0096 10.8851C25.9352 10.8851 26.6509 10.5499 27.0516 9.95394V10.6989H28.8265V4.05971H27.0612ZM45.277 8.08249H40.0861C40.3438 8.95778 41.088 9.33024 42.0136 9.33024C42.7102 9.33024 43.2637 9.05089 43.5595 8.66912L44.9908 9.4606C44.3515 10.3638 43.3209 10.8853 41.9945 10.8853C39.6854 10.8853 38.2254 9.35818 38.2254 7.37481C38.2254 5.39144 39.6949 3.86434 41.861 3.86434C43.8934 3.86434 45.3438 5.41938 45.3438 7.37481C45.3438 7.63553 45.3152 7.85901 45.277 8.08249ZM41.861 5.41938C40.9068 5.41938 40.2579 5.91289 40.0575 6.76024H43.569C43.3495 5.80115 42.6053 5.41938 41.861 5.41938ZM47.9107 5.20532V4.05999H46.1359V10.6991H47.9107V7.5239C47.9107 6.12716 49.0749 5.72677 50.0005 5.83851V3.92963C49.1321 3.92963 48.2638 4.30209 47.9107 5.20532ZM5.56608 10.1841L1.87401 8.22857L0.154297 9.13651L5.56608 12L11.0362 9.13651L9.297 8.22857L5.56608 10.1841ZM1.87401 5.14286L5.56608 6.91626L9.297 5.14286L11.0362 5.97044L5.56608 8.57143L0.154297 5.97044L1.87401 5.14286Z" fill="#636363"/>
</svg>
