<svg xmlns="http://www.w3.org/2000/svg" width="60" height="40" fill="none"><g clip-path="url(#a)"><path fill="#B5D9F1" stroke="#264887" stroke-linecap="round" stroke-linejoin="round" d="M16.163 18.195H43.05v31.63H16.163z"/><path fill="#fff" stroke="#264887" stroke-linecap="round" stroke-linejoin="round" d="M29.606 26.103A16.606 16.606 0 0 0 13 42.709v8.7h6.326V70.6a5.507 5.507 0 0 1 7.99 1.843l.588-13.487a1.277 1.277 0 0 1 2.552 0l.642 13.504a5.52 5.52 0 0 1 8.788-1.188V51.41h6.326v-8.701a16.606 16.606 0 0 0-16.606-16.607"/><path stroke="#264887" stroke-linecap="round" stroke-linejoin="round" d="m32.77 33.22 7.117-6.327M19.326 51.407V38.755m20.561 12.652V38.755M26.443 33.22l-7.117-6.327m6.327 12.653-6.327 6.326m14.234-6.326 6.327 6.326"/><path fill="#B5D9F1" stroke="#264887" stroke-linecap="round" stroke-linejoin="round" d="M24.071 30.85h11.071v10.49h-11.07z"/><path fill="#fff" d="M17.745 15.822a11.862 11.862 0 0 0 23.723 0v-1.584a11.862 11.862 0 0 0-23.723 0z"/><path stroke="#264887" stroke-linecap="round" stroke-linejoin="round" d="M17.745 15.822a11.862 11.862 0 0 0 23.723 0v-1.584a11.862 11.862 0 0 0-23.723 0z"/><path fill="#B5D9F1" d="M27.725 5.723a9.483 9.483 0 0 0-6.587 13.59 2.6 2.6 0 0 0 1.782 1.371c2.2.452 4.442.678 6.688.674 2.248.004 4.49-.222 6.692-.675a2.58 2.58 0 0 0 1.767-1.355A9.49 9.49 0 0 0 27.725 5.723"/><path fill="#DAECF8" d="M27.725 5.722a9.483 9.483 0 0 0-6.587 13.59 2.6 2.6 0 0 0 1.782 1.372l.204.04L35.91 7.939a9.5 9.5 0 0 0-8.185-2.216"/><path stroke="#264887" stroke-linecap="round" stroke-linejoin="round" d="M27.725 5.723a9.483 9.483 0 0 0-6.587 13.59 2.6 2.6 0 0 0 1.782 1.371c2.2.452 4.442.678 6.688.674 2.248.004 4.49-.222 6.692-.675a2.58 2.58 0 0 0 1.767-1.355A9.49 9.49 0 0 0 27.725 5.723"/><path fill="#D32D27" stroke="#264887" stroke-linecap="round" stroke-linejoin="round" d="M28.188 36.08a1.582 1.582 0 1 0 3.164 0 1.582 1.582 0 0 0-3.165 0"/><path stroke="#B5D9F1" stroke-linecap="round" stroke-linejoin="round" d="M7.578 5 6 6.94l1.973 1.595 1.578-1.94z"/><path fill="#B5D9F1" d="m8.111 25.842 3.372-.327z"/><path stroke="#B5D9F1" stroke-linecap="round" d="m8.111 25.842 3.372-.327"/><path fill="#B5D9F1" d="m9.556 24.066.376 3.356z"/><path stroke="#B5D9F1" stroke-linecap="round" d="m9.556 24.066.376 3.356"/><path stroke="#B5D9F1" stroke-linecap="round" stroke-linejoin="round" d="M50.524 14.675 48.667 13 47 14.849l1.856 1.675z"/><path stroke="#B5D9F1" d="M54.25 24.5a1.25 1.25 0 1 0 0-2.5 1.25 1.25 0 0 0 0 2.5Z" clip-rule="evenodd"/></g><defs><clipPath id="a"><path fill="#fff" d="M0 0h60v40H0z"/></clipPath></defs></svg>