<svg xmlns="http://www.w3.org/2000/svg" width="36" height="36" fill="none"><g clip-path="url(#a)"><rect width="36" height="36" y=".2" fill="#E7F7F2" rx="4"/><g clip-path="url(#b)"><path fill="#008A63" d="M26.15 10.04a.5.5 0 0 1-.4-.489V8a2 2 0 0 0-2-2h-12.5a3 3 0 0 0-3 3v18a3 3 0 0 0 3 3h14.5a2 2 0 0 0 2-2V12a2 2 0 0 0-1.6-1.96M10.25 9a1 1 0 0 1 1-1H23.5a.25.25 0 0 1 .25.25v1.5a.25.25 0 0 1-.25.25H11.25a1 1 0 0 1-1-1m13.574 16.984a.5.5 0 0 1-.384.18H12.56a.5.5 0 0 1-.493-.588c.09-.52.253-1.026.486-1.5.447-.896 1.572-1.446 3.628-2.208a1.08 1.08 0 0 0-.008-.749 5.18 5.18 0 0 1-1.115-3.575 2.945 2.945 0 1 1 5.884 0 5.2 5.2 0 0 1-1.132 3.6c-.081.24-.072.503.026.737 2.039.751 3.164 1.3 3.611 2.2.233.474.396.98.486 1.5a.5.5 0 0 1-.109.403"/></g></g><defs><clipPath id="a"><path fill="#fff" d="M0 0h36v36H0z"/></clipPath><clipPath id="b"><path fill="#fff" d="M6 6h24v24H6z"/></clipPath></defs></svg>