<svg xmlns="http://www.w3.org/2000/svg" width="40" height="38" fill="none"><g clip-path="url(#a)"><mask id="c" fill="#fff"><path fill-rule="evenodd" d="M39.598 32.908 23.123 1.864A3.5 3.5 0 0 0 21.826.502a3.56 3.56 0 0 0-3.65 0 3.5 3.5 0 0 0-1.297 1.362L.402 32.908a3.44 3.44 0 0 0 .107 3.415c.314.512.757.935 1.285 1.229A3.56 3.56 0 0 0 3.526 38h32.948c.607 0 1.203-.154 1.732-.448a3.5 3.5 0 0 0 1.285-1.23 3.44 3.44 0 0 0 .107-3.414" clip-rule="evenodd"/></mask><g filter="url(#b)"><path fill="#fff" fill-rule="evenodd" d="M39.598 32.908 23.123 1.864A3.5 3.5 0 0 0 21.826.502a3.56 3.56 0 0 0-3.65 0 3.5 3.5 0 0 0-1.297 1.362L.402 32.908a3.44 3.44 0 0 0 .107 3.415c.314.512.757.935 1.285 1.229A3.56 3.56 0 0 0 3.526 38h32.948c.607 0 1.203-.154 1.732-.448a3.5 3.5 0 0 0 1.285-1.23 3.44 3.44 0 0 0 .107-3.414" clip-rule="evenodd"/></g><path fill="#264887" d="M23.123 1.864 24.89.926zm16.475 31.044-1.767.937zM21.826.502l1.025-1.717zm-3.65 0 1.025 1.718zM16.88 1.864 15.112.926zM.402 32.908l1.767.938zm-.4 1.721-2 .063zm.507 1.694 1.705-1.046zm1.285 1.229.972-1.748zM3.526 38v-2zm32.948 0v-2zm1.732-.448-.972-1.748zm1.285-1.23-1.705-1.045zm.507-1.693L38 34.567zM21.357 2.801 37.83 33.845l3.533-1.875L24.89.926zM20.8 2.22c.24.142.43.345.557.582L24.89.926a5.5 5.5 0 0 0-2.04-2.141zM20 2c.285 0 .561.077.8.22l2.05-3.435A5.56 5.56 0 0 0 20-2zm-.799.22c.24-.143.516-.22.8-.22v-4a5.56 5.56 0 0 0-2.85.785zm-.556.582c.126-.237.317-.44.556-.582l-2.05-3.435a5.5 5.5 0 0 0-2.039 2.14zM2.169 33.845 18.645 2.801 15.112.926-1.364 31.97zm-.168.721a1.44 1.44 0 0 1 .168-.72l-3.533-1.876a5.44 5.44 0 0 0-.633 2.722zm.213.711a1.45 1.45 0 0 1-.213-.71l-3.998.125c.03.947.306 1.869.801 2.676zm.552.527a1.5 1.5 0 0 1-.552-.527l-3.41 2.091A5.5 5.5 0 0 0 .822 39.3zm.76.196c-.268 0-.53-.068-.76-.196L.822 39.3c.827.46 1.758.7 2.704.7zm32.948 0H3.526v4h32.948zm.76-.196c-.23.128-.492.196-.76.196v4c.946 0 1.877-.24 2.704-.7zm.552-.527c-.133.217-.322.4-.552.527l1.944 3.496a5.5 5.5 0 0 0 2.018-1.932zm.213-.71c-.008.249-.08.493-.213.71l3.41 2.091a5.44 5.44 0 0 0 .801-2.676zm-.168-.721c.119.223.176.471.168.72l3.998.126a5.44 5.44 0 0 0-.633-2.722z" mask="url(#c)"/><rect width="4" height="13.814" x="18" y="11.841" fill="#D32D27" rx="2"/><ellipse cx="20" cy="29.602" fill="#D32D27" rx="2" ry="1.973"/></g><defs><clipPath id="a"><path fill="#fff" d="M0 0h40v38H0z"/></clipPath><filter id="b" width="40" height="38" x="0" y="0" color-interpolation-filters="sRGB" filterUnits="userSpaceOnUse"><feFlood flood-opacity="0" result="BackgroundImageFix"/><feBlend in="SourceGraphic" in2="BackgroundImageFix" result="shape"/><feColorMatrix in="SourceAlpha" result="hardAlpha" values="0 0 0 0 0 0 0 0 0 0 0 0 0 0 0 0 0 0 127 0"/><feOffset dx="2" dy="-3"/><feComposite in2="hardAlpha" k2="-1" k3="1" operator="arithmetic"/><feColorMatrix values="0 0 0 0 0.709804 0 0 0 0 0.85098 0 0 0 0 0.945098 0 0 0 1 0"/><feBlend in2="shape" result="effect1_innerShadow"/></filter></defs></svg>