<svg xmlns="http://www.w3.org/2000/svg" width="16" height="16" fill="none"><g clip-path="url(#a)"><path fill="#40526D" d="M7.989 0a8.14 8.14 0 0 0-5.674 2.435A7.87 7.87 0 0 0 0 8.138 7.85 7.85 0 0 0 7.867 16h.142A8.074 8.074 0 0 0 16 7.86 7.844 7.844 0 0 0 7.99 0M7 11.028a.984.984 0 0 1 .966-1.02h.018a1.02 1.02 0 0 1 1.015.98.983.983 0 0 1-.966 1.02h-.018A1.02 1.02 0 0 1 7 11.028m.333-2.695v-4a.667.667 0 1 1 1.334 0v4a.667.667 0 0 1-1.334 0"/></g><defs><clipPath id="a"><path fill="#fff" d="M0 0h16v16H0z"/></clipPath></defs></svg>