<svg xmlns="http://www.w3.org/2000/svg" width="36" height="36" fill="none"><g clip-path="url(#a)"><path fill="#016FD0" d="M0 0h35.924v19.434l-1.778 2.784 1.778 2.478V36H0V17.68l1.111-1.28L0 15.173z"/><path fill="#fff" d="M6.975 25.082V19.43h5.971l.641.837.662-.837h21.676v5.262s-.567.384-1.222.39H22.7l-.722-.891v.89H19.61v-1.52s-.324.212-1.023.212h-.806v1.309h-3.584l-.64-.855-.65.855zM0 15.17l1.347-3.146h2.329l.764 1.763v-1.763h2.895l.455 1.274.44-1.274h12.997v.64s.683-.64 1.806-.64l4.216.015.751 1.74v-1.755h2.423l.667 1v-1h2.445v5.652H31.09l-.64-1.002v1.002h-3.559l-.358-.89h-.957l-.352.89H22.81a2.38 2.38 0 0 1-1.583-.627v.627h-3.64l-.722-.89v.89H3.33l-.358-.89h-.954l-.355.89H0z"/><path fill="#016FD0" d="M1.816 12.716 0 16.948h1.183l.335-.848h1.948l.333.848h1.209l-1.815-4.232zm.672.985.594 1.48h-1.19zm2.668 3.247v-4.232l1.68.006.978 2.729.954-2.735h1.667v4.232H9.38v-3.119l-1.12 3.12h-.926L6.212 13.83v3.119zm5.997 0v-4.232h3.445v.947H12.22v.723h2.323v.891H12.22v.752h2.378v.919zm4.071-4.232v4.232h1.055v-1.504h.445l1.266 1.504h1.29l-1.39-1.56a1.29 1.29 0 0 0 1.16-1.3c0-.89-.698-1.372-1.477-1.372zm1.055.947h1.207c.29 0 .5.226.5.445 0 .281-.273.445-.484.445h-1.223zm4.257 3.285h-1.078v-4.232h1.078zm2.564 0h-.232c-1.126 0-1.81-.889-1.81-2.099 0-1.24.677-2.133 2.098-2.133h1.167v1.002h-1.21c-.576 0-.985.451-.985 1.142 0 .82.467 1.163 1.14 1.163h.277zm2.271-4.232-1.816 4.232h1.182l.335-.848h1.949l.333.848h1.209l-1.815-4.232zm.672.985.594 1.48h-1.19zm2.667 3.247v-4.232h1.343l1.714 2.659v-2.66h1.056v4.233h-1.299l-1.757-2.729v2.729zM7.68 24.354v-4.232h3.445v.946H8.747v.724h2.322v.89H8.747v.753h2.378v.919zm16.879 0v-4.232h3.445v.946h-2.379v.724h2.312v.89h-2.312v.753h2.379v.919zm-13.285 0 1.678-2.09-1.718-2.142h1.33l1.023 1.324 1.027-1.325h1.278l-1.695 2.117 1.68 2.116h-1.33l-.993-1.304-.969 1.303zm4.736-4.226v4.232h1.084v-1.336h1.112c.94 0 1.653-.5 1.653-1.472 0-.806-.56-1.424-1.516-1.424zm1.084.957h1.17c.305 0 .522.187.522.488 0 .282-.216.487-.525.487h-1.167zm3.232-.963v4.232h1.056V22.85h.444l1.266 1.503h1.29l-1.389-1.559a1.29 1.29 0 0 0 1.159-1.3c0-.89-.698-1.372-1.476-1.372zm1.056.946h1.207c.29 0 .5.227.5.446 0 .28-.273.445-.485.445h-1.222zm7.111 3.286v-.92h2.112c.313 0 .448-.169.448-.354 0-.178-.135-.358-.448-.358h-.954c-.83 0-1.293-.507-1.293-1.268 0-.678.424-1.332 1.657-1.332h2.056l-.445.952h-1.778c-.34 0-.444.178-.444.35 0 .175.129.368.389.368h1c.925 0 1.327.526 1.327 1.215 0 .74-.448 1.346-1.377 1.346zm3.879 0v-.92h2.113c.313 0 .448-.169.448-.354 0-.178-.135-.358-.448-.358h-.954c-.83 0-1.293-.507-1.293-1.268 0-.678.424-1.332 1.657-1.332h2.056l-.445.952h-1.778c-.34 0-.444.178-.444.35 0 .175.129.368.389.368h1c.925 0 1.326.526 1.326 1.215 0 .74-.447 1.346-1.376 1.346z"/></g><defs><clipPath id="a"><path fill="#fff" d="M0 3a3 3 0 0 1 3-3h30a3 3 0 0 1 3 3v30a3 3 0 0 1-3 3H3a3 3 0 0 1-3-3z"/></clipPath></defs></svg>