<svg xmlns="http://www.w3.org/2000/svg" width="100" height="100" fill="none"><path fill="#EBF5FB" fill-rule="evenodd" d="M50 100c27.614 0 50-22.386 50-50S77.614 0 50 0 0 22.386 0 50s22.386 50 50 50" clip-rule="evenodd"/><path fill="#fff" stroke="#264887" stroke-width="2" d="M20.556 55.474a2.304 2.304 0 0 1 2.304-2.304h54.7a2.304 2.304 0 0 1 2.303 2.304v12.401a2.304 2.304 0 0 1-2.304 2.304h-54.7a2.304 2.304 0 0 1-2.303-2.304z"/><path fill="#fff" stroke="#264887" stroke-dasharray="100 4 1 3" stroke-linecap="round" stroke-linejoin="round" stroke-width="2" d="M20.556 33.97a2.304 2.304 0 0 1 2.304-2.303h54.7a2.304 2.304 0 0 1 2.303 2.304v12.4a2.304 2.304 0 0 1-2.304 2.305h-54.7a2.304 2.304 0 0 1-2.303-2.304z"/><path fill="#D32D27" d="M28.87 40.108q0-.777.372-1.182.371-.405 1.057-.405.68 0 1.052.41.377.406.377 1.177 0 .76-.377 1.175t-1.052.416-1.052-.405q-.376-.41-.377-1.186m5.867 0q0-.777.372-1.182.371-.405 1.057-.405.681 0 1.052.41.377.406.377 1.177 0 .76-.377 1.175t-1.052.416-1.051-.405q-.378-.41-.378-1.186m5.868 0q0-.777.37-1.182.371-.405 1.058-.405.68 0 1.052.41.378.406.377 1.177 0 .76-.377 1.175-.376.416-1.052.416-.675 0-1.052-.405-.376-.41-.376-1.186m5.866 0q0-.777.372-1.182.371-.405 1.057-.405.681 0 1.052.41.378.406.377 1.177 0 .76-.377 1.175-.376.416-1.051.416-.676 0-1.053-.405-.376-.41-.377-1.186m5.868 0q0-.777.37-1.182.373-.405 1.058-.405.681 0 1.052.41.377.406.377 1.177 0 .76-.377 1.175-.376.416-1.052.416-.675 0-1.051-.405-.377-.41-.377-1.186m5.867 0q0-.777.37-1.182.372-.405 1.058-.405.68 0 1.053.41.375.406.376 1.177 0 .76-.376 1.175-.377.416-1.053.416t-1.052-.405q-.376-.41-.376-1.186m5.867 0q0-.777.371-1.182t1.058-.405q.68 0 1.051.41.377.406.377 1.177 0 .76-.377 1.175-.376.416-1.051.416t-1.052-.405q-.377-.41-.377-1.186m5.867 0q0-.777.37-1.182.373-.405 1.058-.405.681 0 1.053.41.376.406.376 1.177 0 .76-.376 1.175-.378.416-1.053.416t-1.051-.405q-.377-.41-.377-1.186"/><mask id="a" fill="#fff"><path d="M33.486 64.485h-1.08V61.52h-3.033v2.965h-1.075v-6.579h1.075v2.691h3.033v-2.69h1.08zm2.754 0h-1.057v-4.977h1.057zm-1.12-6.295q0-.285.153-.437.157-.153.445-.153.28 0 .432.153.158.153.158.437 0 .27-.158.427-.152.153-.432.153-.288 0-.445-.153a.6.6 0 0 1-.153-.427m5.238 6.385q-.945 0-1.467-.68h-.063q.063.63.063.766v2.038h-1.057v-7.19h.855q.035.138.148.665h.054q.495-.756 1.485-.756.931 0 1.449.675.522.675.522 1.894 0 1.22-.531 1.904-.526.684-1.458.684m-.256-4.293q-.63 0-.923.37-.288.368-.288 1.178v.157q0 .91.288 1.319.288.405.94.405.55 0 .847-.45t.296-1.283q0-.837-.296-1.264-.293-.432-.864-.432m6.074 4.293q-.945 0-1.467-.68h-.062q.063.63.063.766v2.038h-1.058v-7.19h.855q.036.138.149.665h.053q.495-.756 1.486-.756.93 0 1.448.675.523.675.522 1.894 0 1.22-.53 1.904-.526.684-1.459.684m-.256-4.293q-.63 0-.922.37-.288.368-.288 1.178v.157q0 .91.288 1.319.288.405.94.405.549 0 .846-.45t.297-1.283q0-.837-.297-1.264-.293-.432-.864-.432m7.965 1.705q0 1.22-.626 1.904-.625.684-1.74.684a2.4 2.4 0 0 1-1.234-.315 2.1 2.1 0 0 1-.823-.905q-.288-.588-.288-1.368 0-1.21.621-1.89.62-.68 1.75-.68 1.08 0 1.71.699.63.693.63 1.871m-3.622 0q0 1.724 1.273 1.724 1.26 0 1.26-1.724 0-1.704-1.268-1.705-.668 0-.968.441-.297.44-.297 1.264m7.186-4.504-.184 1.719 1.732-.486.127.977-1.62.13 1.061 1.4-.895.481-.747-1.521-.67 1.521-.923-.482 1.04-1.399-1.612-.13.158-.977 1.692.486-.185-1.719zm4.739 2.893q.995 0 1.575.527.58.526.58 1.435 0 1.053-.662 1.648-.655.589-1.871.589-1.102 0-1.733-.356v-.958q.366.207.837.32.473.111.878.112.716 0 1.088-.32.375-.32.375-.936 0-1.178-1.503-1.178a4 4 0 0 0-.523.044q-.31.042-.544.095l-.472-.28.252-3.212h3.42v.94h-2.489l-.148 1.63q.156-.028.382-.064.23-.036.558-.036m10.471.784q0 .643-.202 1.178-.202.531-.571.828a1.3 1.3 0 0 1-.846.297q-.356 0-.617-.188a.92.92 0 0 1-.351-.514h-.054a1.47 1.47 0 0 1-.544.526 1.5 1.5 0 0 1-.73.176q-.732 0-1.156-.472-.418-.472-.418-1.278 0-.927.557-1.503.559-.58 1.5-.58.342 0 .755.063.419.058.743.166l-.1 2.092v.108q0 .72.468.72.356 0 .563-.458.21-.46.211-1.17 0-.771-.315-1.35-.315-.585-.895-.9a2.74 2.74 0 0 0-1.332-.316q-.959 0-1.67.396-.705.397-1.08 1.135-.373.733-.373 1.705 0 1.305.697 2.007.698.702 2.003.702.994 0 2.075-.405v.738a5.4 5.4 0 0 1-2.057.387q-1.665 0-2.597-.896-.93-.9-.931-2.506 0-1.175.504-2.088a3.45 3.45 0 0 1 1.395-1.404q.895-.486 2.025-.486.976 0 1.737.405.764.405 1.184 1.157.422.746.422 1.727m-4.625.57q0 1.05.823 1.05.868 0 .95-1.32l.054-1.075a2.3 2.3 0 0 0-.608-.076q-.576 0-.9.383-.32.382-.32 1.039"/></mask><path fill="#264887" stroke="#264887" stroke-width="4" d="M33.486 64.485h-1.08V61.52h-3.033v2.965h-1.075v-6.579h1.075v2.691h3.033v-2.69h1.08zm2.754 0h-1.057v-4.977h1.057zm-1.12-6.295q0-.285.153-.437.157-.153.445-.153.28 0 .432.153.158.153.158.437 0 .27-.158.427-.152.153-.432.153-.288 0-.445-.153a.6.6 0 0 1-.153-.427Zm5.238 6.385q-.945 0-1.467-.68h-.063q.063.63.063.766v2.038h-1.057v-7.19h.855q.035.138.148.665h.054q.495-.756 1.485-.756.931 0 1.449.675.522.675.522 1.894 0 1.22-.531 1.904-.526.684-1.458.684Zm-.256-4.293q-.63 0-.923.37-.288.368-.288 1.178v.157q0 .91.288 1.319.288.405.94.405.55 0 .847-.45t.296-1.283q0-.837-.296-1.264-.293-.432-.864-.432Zm6.074 4.293q-.945 0-1.467-.68h-.062q.063.63.063.766v2.038h-1.058v-7.19h.855q.036.138.149.665h.053q.495-.756 1.486-.756.93 0 1.448.675.523.675.522 1.894 0 1.22-.53 1.904-.526.684-1.459.684Zm-.256-4.293q-.63 0-.922.37-.288.368-.288 1.178v.157q0 .91.288 1.319.288.405.94.405.549 0 .846-.45t.297-1.283q0-.837-.297-1.264-.293-.432-.864-.432Zm7.965 1.705q0 1.22-.626 1.904-.625.684-1.74.684a2.4 2.4 0 0 1-1.234-.315 2.1 2.1 0 0 1-.823-.905q-.288-.588-.288-1.368 0-1.21.621-1.89.62-.68 1.75-.68 1.08 0 1.71.699.63.693.63 1.871Zm-3.622 0q0 1.724 1.273 1.724 1.26 0 1.26-1.724 0-1.704-1.268-1.705-.668 0-.968.441-.297.44-.297 1.264Zm7.186-4.504-.184 1.719 1.732-.486.127.977-1.62.13 1.061 1.4-.895.481-.747-1.521-.67 1.521-.923-.482 1.04-1.399-1.612-.13.158-.977 1.692.486-.185-1.719zm4.739 2.893q.995 0 1.575.527.58.526.58 1.435 0 1.053-.662 1.648-.655.589-1.871.589-1.102 0-1.733-.356v-.958q.366.207.837.32.473.111.878.112.716 0 1.088-.32.375-.32.375-.936 0-1.178-1.503-1.178a4 4 0 0 0-.523.044q-.31.042-.544.095l-.472-.28.252-3.212h3.42v.94h-2.489l-.148 1.63q.156-.028.382-.064.23-.036.558-.036Zm10.471.784q0 .643-.202 1.178-.202.531-.571.828a1.3 1.3 0 0 1-.846.297q-.356 0-.617-.188a.92.92 0 0 1-.351-.514h-.054a1.47 1.47 0 0 1-.544.526 1.5 1.5 0 0 1-.73.176q-.732 0-1.156-.472-.418-.472-.418-1.278 0-.927.557-1.503.559-.58 1.5-.58.342 0 .755.063.419.058.743.166l-.1 2.092v.108q0 .72.468.72.356 0 .563-.458.21-.46.211-1.17 0-.771-.315-1.35-.315-.585-.895-.9a2.74 2.74 0 0 0-1.332-.316q-.959 0-1.67.396-.705.397-1.08 1.135-.373.733-.373 1.705 0 1.305.697 2.007.698.702 2.003.702.994 0 2.075-.405v.738a5.4 5.4 0 0 1-2.057.387q-1.665 0-2.597-.896-.93-.9-.931-2.506 0-1.175.504-2.088a3.45 3.45 0 0 1 1.395-1.404q.895-.486 2.025-.486.976 0 1.737.405.764.405 1.184 1.157.422.746.422 1.727Zm-4.625.57q0 1.05.823 1.05.868 0 .95-1.32l.054-1.075a2.3 2.3 0 0 0-.608-.076q-.576 0-.9.383-.32.382-.32 1.039Z" mask="url(#a)"/><path fill="#B5D9F1" d="M90.914 24.182h.797a.53.53 0 0 1 .532.532v.797a.797.797 0 1 0 1.595 0v-.797a.53.53 0 0 1 .532-.532h.797a.798.798 0 1 0 0-1.595h-.797a.53.53 0 0 1-.532-.532v-.797a.798.798 0 1 0-1.595 0v.797a.53.53 0 0 1-.532.532h-.797a.797.797 0 1 0 0 1.595"/><path stroke="#B5D9F1" stroke-linecap="round" stroke-linejoin="round" stroke-width="2" d="m13.872 41.559-2.465 1.597 1.597 2.465 2.465-1.597zm10.348.898-.614 2.873 2.873.613.613-2.872z"/><path fill="#EDBF0E" d="m9.385 55.112 3.86.824z"/><path stroke="#B5D9F1" stroke-linecap="round" stroke-width="2" d="m9.385 55.112 3.86.824"/><path fill="#EDBF0E" d="m11.645 53.648-.825 3.859z"/><path stroke="#B5D9F1" stroke-linecap="round" stroke-width="2" d="m11.645 53.648-.825 3.859"/><path stroke="#B5D9F1" stroke-linecap="round" stroke-linejoin="round" stroke-width="2" d="m93.633 64.548-2.18-1.967-1.968 2.18 2.18 1.968z"/><path fill="#EDBF0E" d="m84.774 49.627-2.643 2.93z"/><path stroke="#B5D9F1" stroke-linecap="round" stroke-width="2" d="m84.774 49.627-2.643 2.93"/><path fill="#EDBF0E" d="m84.912 52.315-2.93-2.644z"/><path stroke="#B5D9F1" stroke-linecap="round" stroke-width="2" d="m84.912 52.315-2.93-2.644"/><path fill="#B5D9F1" d="M44.85 76.875h-.708a.354.354 0 0 1-.354-.356v-.712a1.07 1.07 0 0 0-.312-.755 1.06 1.06 0 0 0-1.815.755v.712a.357.357 0 0 1-.355.356h-.709a1.06 1.06 0 0 0-.751.313 1.07 1.07 0 0 0 .752 1.823h.708a.354.354 0 0 1 .355.356v.712a1.06 1.06 0 1 0 2.127 0v-.712a.357.357 0 0 1 .354-.356h.709a1.07 1.07 0 0 0 0-2.136"/><path stroke="#B5D9F1" stroke-linecap="round" stroke-linejoin="round" stroke-width="2" d="m42.619 25.568-.151-2.934-2.933.151.15 2.933z"/><g filter="url(#b)"><path fill="#90C6EB" d="M89.658 37.5a2 2 0 0 0-1.278-1.997l-3.876-1.534a.89.89 0 0 1-.562-.808l-.095-4.367a2.025 2.025 0 0 0-1.216-1.898 1.96 1.96 0 0 0-2.177.462l-2.33 2.35a.88.88 0 0 1-.916.211l-3.869-1.346h-.016a2.05 2.05 0 0 0-2.098.51 2.07 2.07 0 0 0-.493 2.11l1.338 3.89a.89.89 0 0 1-.21.92l-2.344 2.347a1.98 1.98 0 0 0-.457 2.186 2.07 2.07 0 0 0 1.866 1.218l4.372.098a.88.88 0 0 1 .807.562l1.522 3.886a1.99 1.99 0 0 0 1.88 1.287h.11a2.03 2.03 0 0 0 1.881-1.513l1.318-4.74a.89.89 0 0 1 .615-.618l4.721-1.326a2.03 2.03 0 0 0 1.507-1.891"/><path stroke="#264887" stroke-width="2" d="M81.679 27.767a.96.96 0 0 1 .557.049 1.01 1.01 0 0 1 .61.957v.043l.096 4.367a1.9 1.9 0 0 0 1.068 1.66l.127.056 3.876 1.533.007.003a1.01 1.01 0 0 1 .64 1.002v.012l-.002.01a1.05 1.05 0 0 1-.226.61 1.03 1.03 0 0 1-.54.354l-.011.004-4.72 1.326a1.89 1.89 0 0 0-1.273 1.197l-.036.116-1.319 4.74-.003.01a1.03 1.03 0 0 1-.947.77h-.084a.99.99 0 0 1-.94-.643l-.001-.008-1.523-3.886v-.002l-.056-.127a1.9 1.9 0 0 0-.51-.646l-.112-.084-.117-.075a1.9 1.9 0 0 0-.922-.263h.001l-4.372-.098h-.015a1.06 1.06 0 0 1-.955-.618.98.98 0 0 1 .231-1.064l.008-.008.008-.007 2.342-2.347h.001a1.89 1.89 0 0 0 .488-1.826l-.04-.126-1.333-3.879a1.08 1.08 0 0 1 .254-1.094 1.06 1.06 0 0 1 1.077-.261l.151.05h.007l3.708 1.29a1.88 1.88 0 0 0 1.954-.451l.001-.002 2.331-2.35.007-.007.007-.007a.97.97 0 0 1 .5-.28Z"/></g><path fill="#B5D9F1" stroke="#EBF5FB" stroke-width=".75" d="M64.754 21.616a.95.95 0 0 1 .6.207l.07.063 2.65 2.66a.963.963 0 0 1-.013 1.347.95.95 0 0 1-1.336.011l-2.65-2.661h.001a.963.963 0 0 1 .012-1.347.95.95 0 0 1 .666-.28ZM77.15 19.82c.252 0 .494.1.673.28s.28.424.28.68v3.56c0 .255-.1.5-.28.68a.951.951 0 0 1-1.628-.68v-3.56c0-.256.102-.5.28-.68a.95.95 0 0 1 .674-.28Z"/><path fill="#B5D9F1" stroke="#fff" stroke-width=".75" d="M62.44 33.356h3.545c.253 0 .495.1.674.28a.964.964 0 0 1 0 1.36.95.95 0 0 1-.674.28H62.44a.95.95 0 0 1-.673-.28.964.964 0 0 1 0-1.36.95.95 0 0 1 .673-.28Z"/><g filter="url(#c)"><path fill="#264887" d="M99.055 53.167 86.506 42.395a.723.723 0 0 0-.971.027l-1.44 1.39a.67.67 0 0 0-.028.936L95.23 56.862a2.7 2.7 0 0 0 .878.654 2.79 2.79 0 0 0 3.099-.505 2.6 2.6 0 0 0 .607-.896 2.54 2.54 0 0 0-.084-2.095 2.6 2.6 0 0 0-.678-.847z"/><path stroke="#264887" stroke-width="2" d="m97.68 53.305-.015.02.75.619c.177.147.32.327.42.525a1.54 1.54 0 0 1 .052 1.27 1.6 1.6 0 0 1-.375.553c-.165.16-.366.287-.588.37a1.8 1.8 0 0 1-1.394-.052c-.214-.1-.401-.24-.552-.411l-.007-.008-.007-.007-10.942-11.877 1.024-.989z"/></g><defs><filter id="b" width="23.754" height="21.841" x="65.908" y="25.747" color-interpolation-filters="sRGB" filterUnits="userSpaceOnUse"><feFlood flood-opacity="0" result="BackgroundImageFix"/><feColorMatrix in="SourceAlpha" result="hardAlpha" values="0 0 0 0 0 0 0 0 0 0 0 0 0 0 0 0 0 0 127 0"/><feOffset dx="-3" dy="-1"/><feColorMatrix values="0 0 0 0 0 0 0 0 0 0 0 0 0 0 0 0 0 0 0.1 0"/><feBlend in2="BackgroundImageFix" result="effect1_dropShadow_457_20808"/><feBlend in="SourceGraphic" in2="effect1_dropShadow_457_20808" result="shape"/><feColorMatrix in="SourceAlpha" result="hardAlpha" values="0 0 0 0 0 0 0 0 0 0 0 0 0 0 0 0 0 0 127 0"/><feOffset dx="-4" dy="-1"/><feComposite in2="hardAlpha" k2="-1" k3="1" operator="arithmetic"/><feColorMatrix values="0 0 0 0 0.709804 0 0 0 0 0.85098 0 0 0 0 0.945098 0 0 0 1 0"/><feBlend in2="shape" result="effect2_innerShadow_457_20808"/></filter><filter id="c" width="19.111" height="15.556" x="80.889" y="42.222" color-interpolation-filters="sRGB" filterUnits="userSpaceOnUse"><feFlood flood-opacity="0" result="BackgroundImageFix"/><feColorMatrix in="SourceAlpha" result="hardAlpha" values="0 0 0 0 0 0 0 0 0 0 0 0 0 0 0 0 0 0 127 0"/><feOffset dx="-3"/><feColorMatrix values="0 0 0 0 0 0 0 0 0 0 0 0 0 0 0 0 0 0 0.1 0"/><feBlend in2="BackgroundImageFix" result="effect1_dropShadow_457_20808"/><feBlend in="SourceGraphic" in2="effect1_dropShadow_457_20808" result="shape"/></filter></defs></svg>