<svg xmlns="http://www.w3.org/2000/svg" width="81" height="80" fill="none"><path fill="#EBF5FB" fill-rule="evenodd" d="M40.148 80c22.091 0 40-17.909 40-40s-17.908-40-40-40-40 17.909-40 40 17.909 40 40 40" clip-rule="evenodd"/><path fill="#fff" stroke="#264887" stroke-width="2" d="M16.593 44.38c0-1.019.825-1.844 1.843-1.844h43.76c1.017 0 1.843.825 1.843 1.843V54.3a1.843 1.843 0 0 1-1.843 1.843h-43.76a1.843 1.843 0 0 1-1.843-1.843z"/><path fill="#fff" stroke="#264887" stroke-dasharray="100 4 1 3" stroke-linecap="round" stroke-linejoin="round" stroke-width="2" d="M16.593 27.177c0-1.018.825-1.844 1.843-1.844h43.76c1.017 0 1.843.826 1.843 1.844v9.92a1.843 1.843 0 0 1-1.843 1.844h-43.76a1.843 1.843 0 0 1-1.843-1.844z"/><path fill="#D32D27" d="M23.244 32.086q0-.621.297-.945t.846-.324q.545 0 .841.328.303.324.302.941 0 .607-.302.94-.3.333-.84.333t-.842-.324q-.302-.328-.302-.949m4.694 0q0-.621.297-.945t.846-.324q.545 0 .841.328.302.324.302.941 0 .607-.302.94-.3.333-.841.333t-.841-.324q-.302-.328-.302-.949m4.694 0q0-.621.297-.945.296-.324.846-.324.544 0 .841.328.301.324.301.941 0 .607-.3.94-.302.333-.842.333t-.842-.324q-.301-.328-.301-.949m4.693 0q0-.621.297-.945t.846-.324q.545 0 .841.328.302.324.302.941 0 .607-.301.94-.302.333-.842.333t-.841-.324q-.302-.328-.302-.949m4.694 0q0-.621.297-.945t.846-.324q.545 0 .841.328.302.324.302.941 0 .607-.302.94-.3.333-.841.333t-.841-.324q-.302-.328-.302-.949m4.694 0q0-.621.297-.945.296-.324.846-.324.544 0 .841.328.301.324.301.941 0 .607-.3.94-.302.333-.843.333t-.841-.324q-.301-.328-.301-.949m4.693 0q0-.621.297-.945t.846-.324q.545 0 .842.328.3.324.301.941 0 .607-.301.94-.302.333-.842.333t-.841-.324q-.302-.328-.302-.949m4.694 0q0-.621.297-.945t.846-.324q.544 0 .841.328.302.324.302.941 0 .607-.302.94-.3.333-.841.333t-.841-.324q-.302-.328-.302-.949"/><mask id="a" fill="#fff"><path d="M26.937 51.588h-.865v-2.372h-2.426v2.372h-.86v-5.263h.86v2.153h2.426v-2.153h.865zm2.203 0h-.846v-3.981h.846zm-.896-5.036q0-.227.122-.35a.5.5 0 0 1 .356-.122.47.47 0 0 1 .346.122q.126.123.126.35a.46.46 0 0 1-.126.341.47.47 0 0 1-.346.123.5.5 0 0 1-.356-.123.47.47 0 0 1-.122-.341m4.19 5.108q-.756 0-1.173-.544h-.05q.05.504.05.612v1.631h-.846v-5.752h.684q.028.112.118.532h.044q.396-.605 1.187-.605.746 0 1.16.54.417.54.417 1.516 0 .975-.425 1.523-.421.547-1.166.547m-.205-3.435q-.504.001-.738.296-.23.294-.23.943v.126q0 .727.23 1.055.23.323.752.323.44 0 .677-.36t.237-1.025q0-.67-.237-1.012-.234-.346-.691-.346m4.86 3.435q-.756 0-1.174-.544h-.05q.05.504.05.612v1.631h-.846v-5.752h.684q.03.112.12.532h.042q.396-.605 1.188-.605.745 0 1.16.54.417.54.417 1.516 0 .975-.425 1.523-.421.547-1.166.547m-.206-3.435q-.504.001-.737.296-.23.294-.23.943v.126q0 .727.23 1.055.23.323.752.323.44 0 .677-.36t.237-1.025q0-.67-.237-1.012-.234-.346-.692-.346m6.373 1.365q0 .975-.5 1.523t-1.394.547q-.557 0-.986-.252a1.66 1.66 0 0 1-.659-.724 2.46 2.46 0 0 1-.23-1.094q0-.969.497-1.512.495-.544 1.4-.544.863 0 1.368.559.503.553.504 1.497m-2.898 0q0 1.378 1.019 1.378 1.008 0 1.008-1.378 0-1.365-1.015-1.365-.534 0-.774.354-.238.352-.238 1.01m5.75-3.604-.148 1.376 1.385-.39.102.782-1.297.105.85 1.119-.717.385-.597-1.217-.537 1.217-.738-.385.832-1.12-1.289-.104.126-.781 1.354.389-.148-1.376zm3.79 2.315q.795 0 1.26.421.465.422.465 1.149 0 .842-.53 1.317-.526.471-1.497.472-.882 0-1.386-.285v-.767q.29.167.67.256.377.09.701.09.573 0 .871-.255.3-.256.3-.75 0-.942-1.203-.942-.17 0-.418.035-.248.034-.435.076l-.378-.223.201-2.57h2.736v.752h-1.99l-.12 1.303.307-.05q.183-.03.446-.03m8.377.627q0 .514-.162.943-.162.424-.457.662a1.04 1.04 0 0 1-.677.238.82.82 0 0 1-.493-.151.74.74 0 0 1-.28-.41h-.044a1.2 1.2 0 0 1-.435.42 1.2 1.2 0 0 1-.583.14q-.588 0-.926-.377-.335-.378-.335-1.023.001-.741.446-1.202.447-.465 1.2-.464.273 0 .604.05.335.047.594.133l-.079 1.674v.087q0 .576.374.575.285 0 .45-.367.17-.368.17-.936 0-.615-.252-1.08a1.74 1.74 0 0 0-.717-.72 2.2 2.2 0 0 0-1.065-.252q-.768 0-1.336.317a2.1 2.1 0 0 0-.864.908q-.3.586-.299 1.363 0 1.045.558 1.606t1.602.562q.796 0 1.66-.324v.59a4.3 4.3 0 0 1-1.645.31q-1.331 0-2.078-.717-.744-.72-.745-2.005 0-.94.404-1.67.402-.735 1.115-1.123a3.34 3.34 0 0 1 1.62-.389q.781 0 1.39.324.611.325.947.925.338.598.338 1.383m-3.7.457q0 .838.658.838.695 0 .76-1.055l.043-.86a2 2 0 0 0-.486-.061q-.46 0-.72.306-.255.306-.255.832"/></mask><path fill="#264887" stroke="#264887" stroke-width="4" d="M26.937 51.588h-.865v-2.372h-2.426v2.372h-.86v-5.263h.86v2.153h2.426v-2.153h.865zm2.203 0h-.846v-3.981h.846zm-.896-5.036q0-.227.122-.35a.5.5 0 0 1 .356-.122.47.47 0 0 1 .346.122q.126.123.126.35a.46.46 0 0 1-.126.341.47.47 0 0 1-.346.123.5.5 0 0 1-.356-.123.47.47 0 0 1-.122-.341Zm4.19 5.108q-.756 0-1.173-.544h-.05q.05.504.05.612v1.631h-.846v-5.752h.684q.028.112.118.532h.044q.396-.605 1.187-.605.746 0 1.16.54.417.54.417 1.516 0 .975-.425 1.523-.421.547-1.166.547Zm-.205-3.435q-.504.001-.738.296-.23.294-.23.943v.126q0 .727.23 1.055.23.323.752.323.44 0 .677-.36t.237-1.025q0-.67-.237-1.012-.234-.346-.691-.346Zm4.86 3.435q-.756 0-1.174-.544h-.05q.05.504.05.612v1.631h-.846v-5.752h.684q.03.112.12.532h.042q.396-.605 1.188-.605.745 0 1.16.54.417.54.417 1.516 0 .975-.425 1.523-.421.547-1.166.547Zm-.206-3.435q-.504.001-.737.296-.23.294-.23.943v.126q0 .727.23 1.055.23.323.752.323.44 0 .677-.36t.237-1.025q0-.67-.237-1.012-.234-.346-.692-.346Zm6.373 1.365q0 .975-.5 1.523t-1.394.547q-.557 0-.986-.252a1.66 1.66 0 0 1-.659-.724 2.46 2.46 0 0 1-.23-1.094q0-.969.497-1.512.495-.544 1.4-.544.863 0 1.368.559.503.553.504 1.497Zm-2.898 0q0 1.378 1.019 1.378 1.008 0 1.008-1.378 0-1.365-1.015-1.365-.534 0-.774.354-.238.352-.238 1.01Zm5.75-3.604-.148 1.376 1.385-.39.102.782-1.297.105.85 1.119-.717.385-.597-1.217-.537 1.217-.738-.385.832-1.12-1.289-.104.126-.781 1.354.389-.148-1.376zm3.79 2.315q.795 0 1.26.421.465.422.465 1.149 0 .842-.53 1.317-.526.471-1.497.472-.882 0-1.386-.285v-.767q.29.167.67.256.377.09.701.09.573 0 .871-.255.3-.256.3-.75 0-.942-1.203-.942-.17 0-.418.035-.248.034-.435.076l-.378-.223.201-2.57h2.736v.752h-1.99l-.12 1.303.307-.05q.183-.03.446-.03Zm8.377.627q0 .514-.162.943-.162.424-.457.662a1.04 1.04 0 0 1-.677.238.82.82 0 0 1-.493-.151.74.74 0 0 1-.28-.41h-.044a1.2 1.2 0 0 1-.435.42 1.2 1.2 0 0 1-.583.14q-.588 0-.926-.377-.335-.378-.335-1.023.001-.741.446-1.202.447-.465 1.2-.464.273 0 .604.05.335.047.594.133l-.079 1.674v.087q0 .576.374.575.285 0 .45-.367.17-.368.17-.936 0-.615-.252-1.08a1.74 1.74 0 0 0-.717-.72 2.2 2.2 0 0 0-1.065-.252q-.768 0-1.336.317a2.1 2.1 0 0 0-.864.908q-.3.586-.299 1.363 0 1.045.558 1.606t1.602.562q.796 0 1.66-.324v.59a4.3 4.3 0 0 1-1.645.31q-1.331 0-2.078-.717-.744-.72-.745-2.005 0-.94.404-1.67.402-.735 1.115-1.123a3.34 3.34 0 0 1 1.62-.389q.781 0 1.39.324.611.325.947.925.338.598.338 1.383Zm-3.7.457q0 .838.658.838.695 0 .76-1.055l.043-.86a2 2 0 0 0-.486-.061q-.46 0-.72.306-.255.306-.255.832Z" mask="url(#a)"/><path fill="#B5D9F1" d="M72.879 19.345h.638a.425.425 0 0 1 .425.426v.638a.638.638 0 1 0 1.276 0v-.638a.426.426 0 0 1 .425-.426h.638a.638.638 0 1 0 0-1.276h-.638a.425.425 0 0 1-.425-.425v-.638a.638.638 0 1 0-1.276 0v.638a.425.425 0 0 1-.425.425h-.638a.638.638 0 1 0 0 1.276"/><path stroke="#B5D9F1" stroke-linecap="round" stroke-linejoin="round" stroke-width="2" d="m11.246 33.247-1.972 1.278 1.278 1.972 1.972-1.278zm8.278.719-.49 2.298 2.297.49.49-2.297z"/><path fill="#EDBF0E" d="m7.656 44.09 3.088.659z"/><path stroke="#B5D9F1" stroke-linecap="round" stroke-width="2" d="m7.656 44.09 3.088.659"/><path fill="#EDBF0E" d="m9.464 42.918-.66 3.087z"/><path stroke="#B5D9F1" stroke-linecap="round" stroke-width="2" d="m9.464 42.918-.66 3.087"/><path stroke="#B5D9F1" stroke-linecap="round" stroke-linejoin="round" stroke-width="2" d="m75.054 51.638-1.744-1.574-1.574 1.745 1.744 1.574z"/><path fill="#EDBF0E" d="m67.968 39.701-2.115 2.344z"/><path stroke="#B5D9F1" stroke-linecap="round" stroke-width="2" d="m67.968 39.701-2.115 2.344"/><path fill="#EDBF0E" d="m68.078 41.852-2.344-2.115z"/><path stroke="#B5D9F1" stroke-linecap="round" stroke-width="2" d="m68.078 41.852-2.344-2.115"/><path fill="#B5D9F1" d="M36.03 61.5h-.568a.283.283 0 0 1-.283-.285v-.57a.856.856 0 0 0-.851-.854.85.85 0 0 0-.85.854v.57a.285.285 0 0 1-.284.285h-.567a.85.85 0 0 0-.851.854.856.856 0 0 0 .85.855h.568a.283.283 0 0 1 .283.285v.57a.857.857 0 0 0 .851.854.85.85 0 0 0 .85-.855v-.57a.285.285 0 0 1 .284-.284h.567a.85.85 0 0 0 .851-.855.856.856 0 0 0-.85-.854"/><path stroke="#B5D9F1" stroke-linecap="round" stroke-linejoin="round" stroke-width="2" d="m34.243 20.454-.12-2.346-2.347.12.12 2.347z"/><g filter="url(#b)"><path fill="#90C6EB" d="M71.875 30a1.61 1.61 0 0 0-1.022-1.599l-3.1-1.226a.71.71 0 0 1-.45-.646l-.077-3.494a1.62 1.62 0 0 0-.973-1.518 1.57 1.57 0 0 0-1.74.369l-1.865 1.88a.71.71 0 0 1-.733.17l-3.095-1.077h-.013a1.64 1.64 0 0 0-1.678.407 1.66 1.66 0 0 0-.395 1.689l1.07 3.112a.72.72 0 0 1-.168.736l-1.874 1.877a1.58 1.58 0 0 0-.366 1.749 1.66 1.66 0 0 0 1.493.974l3.498.078a.71.71 0 0 1 .645.45l1.218 3.11a1.605 1.605 0 0 0 1.504 1.029h.088a1.62 1.62 0 0 0 1.504-1.21l1.055-3.793a.71.71 0 0 1 .492-.494l3.777-1.061a1.63 1.63 0 0 0 1.205-1.513"/><path stroke="#264887" stroke-width="2" d="M70.876 29.948v-.01a.61.61 0 0 0-.383-.604l-.008-.003-3.1-1.226a1.7 1.7 0 0 1-.776-.614l.821-.571-.821.57a1.7 1.7 0 0 1-.306-.939l-.077-3.494v-.043a.62.62 0 0 0-.362-.576.57.57 0 0 0-.628.138l-.007.007-.007.007-1.864 1.88-.001.001a1.71 1.71 0 0 1-1.77.409l-2.936-1.021h-.003l-.152-.05a.64.64 0 0 0-.656.16.66.66 0 0 0-.158.667l1.068 3.105a1.72 1.72 0 0 1-.405 1.768h-.001l-1.875 1.878-.007.007-.008.008a.58.58 0 0 0-.14.63.66.66 0 0 0 .581.37h.008l.008.001 3.496.078h.002l-.022 1a.71.71 0 0 1 .645.45zm0 0v.011a.64.64 0 0 1-.465.587l-.011.003-3.777 1.06c-.284.08-.542.232-.75.44l.71.706-.71-.706a1.7 1.7 0 0 0-.436.75l-1.054 3.792-.003.011a.63.63 0 0 1-.564.468z"/></g><path fill="#B5D9F1" stroke="#EBF5FB" stroke-width=".75" d="M54.064 20.864a.7.7 0 0 1-.482-.192l-2.121-2.131a.695.695 0 0 1 .49-1.173.7.7 0 0 1 .482.192l2.122 2.131a.696.696 0 0 1-.011.97.68.68 0 0 1-.48.203Zm8.29-.901a.686.686 0 0 1-1.174-.491v-2.848c0-.185.073-.361.202-.491a.686.686 0 0 1 1.175.49v2.849c0 .184-.073.36-.203.49Z"/><path fill="#B5D9F1" stroke="#fff" stroke-width=".75" d="M53.422 26.962a.695.695 0 0 1-.486 1.184H50.1a.7.7 0 0 1-.486-.203.696.696 0 0 1 .486-1.183h2.836c.182 0 .357.072.486.202Z"/><g filter="url(#c)"><path fill="#264887" d="m79.392 42.534-10.039-8.618a.58.58 0 0 0-.777.022l-1.151 1.111a.535.535 0 0 0-.023.749l8.93 9.691c.194.22.433.398.702.524a2.23 2.23 0 0 0 2.479-.404c.211-.204.377-.448.486-.717a2.03 2.03 0 0 0-.068-1.676c-.13-.26-.315-.49-.542-.678z"/><path stroke="#264887" stroke-width="2" d="m77.08 44.826-.007-.007-.006-.007-8.622-9.357.548-.53 9.025 7.747-.014.02.748.617c.122.1.218.222.285.356a1.035 1.035 0 0 1-.219 1.225 1.2 1.2 0 0 1-.401.253 1.24 1.24 0 0 1-.96-.036l-.423.906.424-.906a1.2 1.2 0 0 1-.378-.28Z"/></g><defs><filter id="b" width="19.603" height="17.673" x="52.275" y="20.397" color-interpolation-filters="sRGB" filterUnits="userSpaceOnUse"><feFlood flood-opacity="0" result="BackgroundImageFix"/><feColorMatrix in="SourceAlpha" result="hardAlpha" values="0 0 0 0 0 0 0 0 0 0 0 0 0 0 0 0 0 0 127 0"/><feOffset dx="-3" dy="-1"/><feColorMatrix values="0 0 0 0 0 0 0 0 0 0 0 0 0 0 0 0 0 0 0.1 0"/><feBlend in2="BackgroundImageFix" result="effect1_dropShadow_331_2546"/><feBlend in="SourceGraphic" in2="effect1_dropShadow_331_2546" result="shape"/><feColorMatrix in="SourceAlpha" result="hardAlpha" values="0 0 0 0 0 0 0 0 0 0 0 0 0 0 0 0 0 0 127 0"/><feOffset dx="-4" dy="-1"/><feComposite in2="hardAlpha" k2="-1" k3="1" operator="arithmetic"/><feColorMatrix values="0 0 0 0 0.709804 0 0 0 0 0.85098 0 0 0 0 0.945098 0 0 0 1 0"/><feBlend in2="shape" result="effect2_innerShadow_331_2546"/></filter><filter id="c" width="15.889" height="12.444" x="64.259" y="33.778" color-interpolation-filters="sRGB" filterUnits="userSpaceOnUse"><feFlood flood-opacity="0" result="BackgroundImageFix"/><feColorMatrix in="SourceAlpha" result="hardAlpha" values="0 0 0 0 0 0 0 0 0 0 0 0 0 0 0 0 0 0 127 0"/><feOffset dx="-3"/><feColorMatrix values="0 0 0 0 0 0 0 0 0 0 0 0 0 0 0 0 0 0 0.1 0"/><feBlend in2="BackgroundImageFix" result="effect1_dropShadow_331_2546"/><feBlend in="SourceGraphic" in2="effect1_dropShadow_331_2546" result="shape"/></filter></defs></svg>