<svg xmlns="http://www.w3.org/2000/svg" width="120" height="121" fill="none"><path fill="#ECF5FB" d="M60 120.5c33.137 0 60-26.863 60-60S93.137.5 60 .5 0 27.363 0 60.5s26.863 60 60 60"/><path stroke="#B5D9F1" d="M23.333 95.167a2 2 0 1 0 0-4 2 2 0 0 0 0 4Z" clip-rule="evenodd"/><path stroke="#B5D9F1" stroke-linecap="round" d="m92.167 93.333 3.8 3.8m-.134-3.8-3.8 3.8"/><path stroke="#B5D9F1" stroke-linecap="round" stroke-linejoin="round" d="m109.518 58.635-3.383-2.135L104 59.883l3.383 2.134zM39.333 14.5h-4v4h4z"/><path fill="#B5D9F1" d="M59.306 104.743a3.24 3.24 0 0 0 3.318-.07c7.012-4.36 34.1-22.708 33.614-45.666l-.457-21.62a3.25 3.25 0 0 0-2.21-2.997c-12.945-4.356-24.138-8.001-33.433-15.548a1.53 1.53 0 0 0-1.98.043c-8.972 7.932-20 12.052-32.744 16.948a3.24 3.24 0 0 0-2.08 3.088l.457 21.619c.486 22.958 28.327 40.144 35.515 44.203"/><path fill="#B5D9F1" d="M60.138 18.842a1.53 1.53 0 0 0-1.98.043c-8.972 7.932-20 12.052-32.744 16.948a3.24 3.24 0 0 0-2.08 3.088l.457 21.619c.185 8.716 4.316 16.597 9.757 23.247l50.48-52.662c-8.975-3.2-16.96-6.66-23.89-12.283"/><path fill="#3598DB" d="M59.484 94.582a2.48 2.48 0 0 0 2.537-.054c5.36-3.333 26.07-17.362 25.698-34.915l-.349-16.53a2.48 2.48 0 0 0-1.688-2.292c-9.79-3.295-18.27-6.058-25.335-11.704a1.53 1.53 0 0 0-1.962.043c-6.818 5.933-15.175 9.058-24.814 12.764a2.48 2.48 0 0 0-1.598 2.363l.35 16.528c.377 17.553 21.663 30.693 27.161 33.797"/><path stroke="#004590" stroke-dasharray="92 7 1 7" stroke-linecap="round" stroke-linejoin="round" stroke-width="1.33" d="M59.306 104.743a3.24 3.24 0 0 0 3.318-.07c7.012-4.36 34.1-22.708 33.614-45.666l-.457-21.62a3.25 3.25 0 0 0-2.21-2.997c-12.945-4.356-24.138-8.001-33.433-15.548a1.53 1.53 0 0 0-1.98.043c-8.972 7.932-20 12.052-32.744 16.948a3.24 3.24 0 0 0-2.08 3.088l.457 21.619c.486 22.958 28.327 40.144 35.515 44.203"/><path fill="#6CB4E4" d="M77.47 37.968a58.6 58.6 0 0 1-17.127-8.88 1.53 1.53 0 0 0-1.962.044c-6.818 5.933-15.175 9.058-24.814 12.764a2.48 2.48 0 0 0-1.594 2.361l.35 16.529c.136 6.36 3.016 12.143 6.898 17.078z"/><path stroke="#004590" stroke-linecap="round" stroke-linejoin="round" stroke-width="1.33" d="M59.512 94.582a2.48 2.48 0 0 0 2.536-.054c5.36-3.333 26.07-17.362 25.699-34.915l-.35-16.53a2.48 2.48 0 0 0-1.688-2.292c-9.79-3.295-18.27-6.058-25.334-11.704a1.53 1.53 0 0 0-1.963.043c-6.818 5.933-15.175 9.058-24.813 12.764A2.48 2.48 0 0 0 32 44.257l.35 16.528c.377 17.553 21.662 30.693 27.16 33.797"/><path fill="#F1F7FB" d="M54.286 56.473v-4a5.714 5.714 0 0 1 11.428 0v4h4v-4a9.718 9.718 0 1 0-19.428 0v4z"/><path fill="#B5D9F1" d="M60 42.76a9.72 9.72 0 0 0-9.718 9.717v2.286a9.718 9.718 0 1 1 19.429 0v-2.29A9.72 9.72 0 0 0 60 42.76"/><path fill="#F1F7FB" d="M70.048 56.473H49.952A1.95 1.95 0 0 0 48 58.425V72.04c0 1.078.874 1.952 1.952 1.952h20.096A1.95 1.95 0 0 0 72 72.04V58.425a1.95 1.95 0 0 0-1.952-1.952"/><path fill="#B5D9F1" d="M70.048 56.473H49.952A1.95 1.95 0 0 0 48 58.425v3.419a1.95 1.95 0 0 1 1.952-1.952h20.096A1.95 1.95 0 0 1 72 61.844v-3.419a1.953 1.953 0 0 0-1.952-1.952"/><path fill="#B5D9F1" stroke="#004590" stroke-dasharray="100 7 1 5" stroke-linecap="round" stroke-linejoin="round" stroke-width="1.33" d="M62.287 63.33a2.285 2.285 0 1 0-3.43 1.97v2.602a1.143 1.143 0 0 0 2.282 0V65.3a2.28 2.28 0 0 0 1.148-1.97"/><path stroke="#004590" stroke-dasharray="100 7 1 5" stroke-linecap="round" stroke-linejoin="round" stroke-width="1.33" d="M70.048 56.473H49.952A1.95 1.95 0 0 0 48 58.425V72.04c0 1.078.874 1.952 1.952 1.952h20.096A1.95 1.95 0 0 0 72 72.04V58.425a1.95 1.95 0 0 0-1.952-1.952"/><path stroke="#004590" stroke-dasharray="100 7 1 5" stroke-linecap="round" stroke-linejoin="round" stroke-width="1.33" d="M54.286 56.473v-4a5.714 5.714 0 0 1 11.428 0v4h4v-4a9.718 9.718 0 1 0-19.428 0v4z"/><path stroke="#004590" stroke-dasharray="92 7 1 7" stroke-linecap="round" stroke-width="1.33" d="M82.002 29.835v-9.337"/><path stroke="#004590" stroke-width="1.33" d="M82 19.834a2 2 0 1 0 0-4 2 2 0 0 0 0 4Z" clip-rule="evenodd"/><path stroke="#004590" stroke-dasharray="92 7 1 7" stroke-linecap="round" stroke-width="1.33" d="M40.665 91.832v9.337"/><path stroke="#004590" stroke-width="1.33" d="M40.667 101.833a2 2 0 1 0 0 4 2 2 0 0 0 0-4Z" clip-rule="evenodd"/><path stroke="#004590" stroke-dasharray="92 7 1 7" stroke-linecap="round" stroke-width="1.33" d="M22.669 45.166h-9.337"/><path stroke="#004590" stroke-width="1.33" d="M12.667 45.167a2 2 0 1 0-4 0 2 2 0 0 0 4 0Z" clip-rule="evenodd"/><path stroke="#004590" stroke-width="1.33" d="M24 53.166h-7.333"/><path stroke="#004590" stroke-width="1.33" d="M16.667 53.167a2 2 0 1 0-4 0 2 2 0 0 0 4 0Z" clip-rule="evenodd"/><path stroke="#004590" stroke-dasharray="92 7 1 7" stroke-linecap="round" stroke-width="1.33" d="M89.999 79.835h14.669"/><path stroke="#004590" stroke-width="1.33" d="M105.333 79.834a2 2 0 1 0 4-.001 2 2 0 0 0-4 0Z" clip-rule="evenodd"/><path stroke="#004590" stroke-width="1.33" d="M94 71.835h7.334"/><path stroke="#004590" stroke-width="1.33" d="M101.333 71.834a2 2 0 1 0 4-.001 2 2 0 0 0-4 0Z" clip-rule="evenodd"/></svg>