<svg xmlns="http://www.w3.org/2000/svg" width="40" height="40" fill="none"><path fill="#47A1DE" d="M33.333 10.833H17.5a.83.83 0 0 1-.598-.255l-2.235-2.313a2.5 2.5 0 0 0-1.804-.765h-5.72a2.98 2.98 0 0 0-2.976 2.975v19.05A2.98 2.98 0 0 0 7.143 32.5h25.714a2.98 2.98 0 0 0 2.976-2.975V13.333a2.5 2.5 0 0 0-2.5-2.5"/><path fill="#fff" d="M25.556 22.494a2.4 2.4 0 0 0-.218-.983 2.5 2.5 0 0 0-.61-.826A2.74 2.74 0 0 0 23.135 20a.13.13 0 0 1-.09-.053 3.5 3.5 0 0 0-1.553-1.304 3.8 3.8 0 0 0-2.067-.266 3.66 3.66 0 0 0-1.871.864 3.3 3.3 0 0 0-1.033 1.696.1.1 0 0 1-.038.06.12.12 0 0 1-.07.024 2.2 2.2 0 0 0-1.394.628 1.93 1.93 0 0 0-.573 1.344 1.8 1.8 0 0 0 .132.752c.098.24.248.458.44.641.457.392 1.054.61 1.674.615h6.462a2.75 2.75 0 0 0 1.716-.822 2.42 2.42 0 0 0 .685-1.685"/></svg>