<svg xmlns="http://www.w3.org/2000/svg" width="40" height="40" fill="none"><rect width="40" height="40" fill="#E8F3FF" rx="8"/><path fill="#007AFF" d="M26.767 17.121h-.677v-2.578a6.46 6.46 0 0 0-1.784-4.475A5.98 5.98 0 0 0 20 8.215a5.98 5.98 0 0 0-4.306 1.853 6.46 6.46 0 0 0-1.784 4.475v2.578h-.677a1.77 1.77 0 0 0-1.276.55 1.9 1.9 0 0 0-.529 1.325v9.844c0 .497.19.974.529 1.326.338.351.797.549 1.276.549h13.534a1.77 1.77 0 0 0 1.276-.55c.338-.351.528-.828.528-1.325v-9.844c0-.497-.19-.974-.528-1.326a1.77 1.77 0 0 0-1.276-.549M20 25.56c-.357 0-.706-.11-1.003-.316a1.86 1.86 0 0 1-.664-.842 1.94 1.94 0 0 1-.103-1.083c.07-.364.241-.698.494-.96.252-.262.574-.441.924-.513s.713-.036 1.043.106.611.383.81.69a1.94 1.94 0 0 1-.225 2.368 1.77 1.77 0 0 1-1.276.55m3.834-8.907a.48.48 0 0 1-.132.332.44.44 0 0 1-.319.137h-6.767a.44.44 0 0 1-.319-.137.48.48 0 0 1-.132-.332v-2.109c0-1.057.404-2.07 1.123-2.817A3.76 3.76 0 0 1 20 10.559c1.017 0 1.992.42 2.711 1.167a4.07 4.07 0 0 1 1.124 2.817z"/></svg>