<svg xmlns="http://www.w3.org/2000/svg" width="126" height="125" fill="none"><path fill="#DBE5F7" fill-rule="evenodd" d="M63 125c34.518 0 62.5-27.982 62.5-62.5S97.518 0 63 0 .5 27.982.5 62.5 28.482 125 63 125" clip-rule="evenodd"/><g fill="#fff" fill-rule="evenodd" clip-rule="evenodd" filter="url(#a)"><path d="M67.188 35.063c0-.863.7-1.563 1.562-1.563h29.688c.862 0 1.562.7 1.562 1.563v53.125c0 .862-.7 1.562-1.562 1.562h-12.5V76.469a.78.78 0 0 0-.782-.781h-7.812a.78.78 0 0 0-.781.78V89.75H68.75c-.863 0-1.562-.7-1.562-1.562zM25 53.813c0-.863.7-1.563 1.563-1.563H56.25c.863 0 1.563.7 1.563 1.563v34.375c0 .862-.7 1.562-1.563 1.562h-7.812V76.469a.78.78 0 0 0-.782-.781h-7.812a.78.78 0 0 0-.782.78V89.75h-12.5c-.862 0-1.562-.7-1.562-1.562z"/></g><path stroke="#264887" stroke-dasharray="100 7 1 5" stroke-linecap="round" stroke-linejoin="round" stroke-width="2" d="M67.188 35.063c0-.863.7-1.563 1.562-1.563h29.688c.862 0 1.562.7 1.562 1.563v53.125c0 .862-.7 1.562-1.562 1.562h-12.5V76.469a.78.78 0 0 0-.782-.781h-7.812a.78.78 0 0 0-.781.78V89.75H68.75c-.863 0-1.562-.7-1.562-1.562zM25 53.813c0-.863.7-1.563 1.563-1.563H56.25c.863 0 1.563.7 1.563 1.563v34.375c0 .862-.7 1.562-1.563 1.562h-7.812V76.469a.78.78 0 0 0-.782-.781h-7.812a.78.78 0 0 0-.782.78V89.75h-12.5c-.862 0-1.562-.7-1.562-1.562z" clip-rule="evenodd"/><path fill="#3B70D4" d="M90.625 62.406c0-.431.35-.781.781-.781h3.125a.78.78 0 0 1 .781.781v3.125a.78.78 0 0 1-.78.781h-3.126a.78.78 0 0 1-.781-.78zm-8.594-.781a.78.78 0 0 0-.781.781v3.125c0 .432.35.781.781.781h3.125a.78.78 0 0 0 .781-.78v-3.126a.78.78 0 0 0-.78-.781zm-.781-8.594c0-.431.35-.781.781-.781h3.125a.78.78 0 0 1 .781.781v3.125c0 .432-.35.782-.78.782H82.03a.78.78 0 0 1-.781-.782zm10.156-.781a.78.78 0 0 0-.781.781v3.125c0 .432.35.782.781.782h3.125c.432 0 .781-.35.781-.782v-3.125a.78.78 0 0 0-.78-.781zM81.25 43.656c0-.431.35-.781.781-.781h3.125a.78.78 0 0 1 .781.781v3.125c0 .432-.35.782-.78.782H82.03a.78.78 0 0 1-.781-.782zm-8.594 17.969a.78.78 0 0 0-.781.781v3.125c0 .432.35.781.781.781h3.125a.78.78 0 0 0 .781-.78v-3.126a.78.78 0 0 0-.78-.781zm-.781-8.594c0-.431.35-.781.781-.781h3.125a.78.78 0 0 1 .781.781v3.125c0 .432-.35.782-.78.782h-3.126a.78.78 0 0 1-.781-.782zm.781-10.156a.78.78 0 0 0-.781.781v3.125c0 .432.35.782.781.782h3.125c.432 0 .781-.35.781-.782v-3.125a.78.78 0 0 0-.78-.781zm17.969.781c0-.431.35-.781.781-.781h3.125a.78.78 0 0 1 .781.781v3.125c0 .432-.35.782-.78.782h-3.126a.78.78 0 0 1-.781-.782zm-51.56 18.755c0-.431.35-.781.781-.781h3.125a.78.78 0 0 1 .781.781v3.125a.78.78 0 0 1-.78.781h-3.126a.78.78 0 0 1-.781-.78zm-8.594-.781a.78.78 0 0 0-.781.781v3.125c0 .432.35.781.781.781h3.125a.78.78 0 0 0 .781-.78V62.41a.78.78 0 0 0-.78-.781zm17.969.781c0-.431.35-.781.781-.781h3.125a.78.78 0 0 1 .781.781v3.125a.78.78 0 0 1-.78.781H49.22a.78.78 0 0 1-.781-.78z"/><path stroke="#94B1E7" stroke-dasharray="1 6 164 5" stroke-linecap="round" stroke-width="2" d="M32.5 100h60"/><path stroke="#94B1E7" stroke-width="2" d="M50.389 46.139a2.083 2.083 0 1 0 0-4.167 2.083 2.083 0 0 0 0 4.167Z" clip-rule="evenodd"/><path stroke="#94B1E7" stroke-linecap="round" stroke-linejoin="round" stroke-width="2" d="m26.415 27.917 2.947-2.947 2.946 2.947-2.946 2.946z"/><path stroke="#94B1E7" stroke-linecap="round" stroke-width="1.6" d="m105.504 37.642 3.245 3.245m-.115-3.245-3.245 3.245"/><defs><filter id="a" width="75" height="56.25" x="25" y="33.5" color-interpolation-filters="sRGB" filterUnits="userSpaceOnUse"><feFlood flood-opacity="0" result="BackgroundImageFix"/><feBlend in="SourceGraphic" in2="BackgroundImageFix" result="shape"/><feColorMatrix in="SourceAlpha" result="hardAlpha" values="0 0 0 0 0 0 0 0 0 0 0 0 0 0 0 0 0 0 127 0"/><feOffset dx="3" dy="6"/><feComposite in2="hardAlpha" k2="-1" k3="1" operator="arithmetic"/><feColorMatrix values="0 0 0 0 0.580392 0 0 0 0 0.694118 0 0 0 0 0.905882 0 0 0 1 0"/><feBlend in2="shape" result="effect1_innerShadow_55_16955"/></filter></defs></svg>