<svg xmlns="http://www.w3.org/2000/svg" width="182" height="180" fill="none"><path fill="#EBF5FB" fill-rule="evenodd" d="M91 180c49.706 0 90-40.294 90-90S140.706 0 91 0 1 40.294 1 90s40.294 90 90 90" clip-rule="evenodd"/><path fill="#DAECF8" d="M179.825 106.948A89.947 89.947 0 0 0 34.035 54.38C17.897 67.757 6.477 86.35 2.59 106.948a90 90 0 0 1 1.218-39.26c3.287-12.841 9.523-24.986 17.967-35.203 8.445-10.218 19.228-18.43 31.22-24.077C64.988 2.761 78.182 0 91.438 0a90 90 0 0 1 87.187 67.68 90 90 0 0 1 1.2 39.268" style="mix-blend-mode:multiply"/><path fill="#FEFEFE" fill-rule="evenodd" d="M85.43 60.33c0 7.164-5.685 12.979-12.69 12.979-.291 0-.56-.023-.829-.023-.738 6.455-6.088 11.468-12.601 11.468-6.11 0-11.192-4.35-12.423-10.21-.022-.068-.022-.137-.044-.205a12.4 12.4 0 0 1-5.44 1.259c-7.028 0-12.713-5.815-12.713-12.98 0-5.242 3.044-9.751 7.409-11.812a13.2 13.2 0 0 1-.694-4.212c0-7.188 5.685-13.002 12.713-13.002 2.35 0 4.544.664 6.424 1.808 2.306-2.518 5.596-4.097 9.244-4.097 7.006 0 12.691 5.814 12.691 13.002 0 1.213-.179 2.358-.47 3.48 5.417 1.488 9.423 6.524 9.423 12.544" clip-rule="evenodd"/><path fill="#264887" fill-rule="evenodd" d="M63.785 27.871c-3.561 0-7.021 1.23-9.81 3.432a15.6 15.6 0 0 0-5.858-1.143c-8.861 0-16.07 7.374-16.07 16.436q0 1.275.194 2.532c-4.268 3.042-6.91 8.078-6.91 13.492 0 9.052 7.21 16.414 16.071 16.414q1.681 0 3.304-.353c2.56 5.739 8.159 9.51 14.603 9.51 7.14 0 13.29-4.801 15.33-11.561 7.957-.964 14.148-7.907 14.148-16.299 0-6.338-3.582-12.027-9.005-14.747q.052-.638.052-1.277c0-9.063-7.199-16.436-16.049-16.436m.001 3.433c7.006 0 12.691 5.814 12.691 13.002 0 1.213-.179 2.358-.47 3.48 5.417 1.487 9.423 6.524 9.423 12.544 0 7.165-5.685 12.98-12.69 12.98-.292 0-.56-.023-.829-.023-.738 6.455-6.088 11.468-12.601 11.468-6.11 0-11.192-4.35-12.423-10.21-.022-.068-.022-.137-.044-.205a12.4 12.4 0 0 1-5.44 1.259c-7.028 0-12.713-5.815-12.713-12.98 0-5.242 3.044-9.752 7.409-11.812a13.2 13.2 0 0 1-.694-4.212c0-7.188 5.685-13.002 12.713-13.002 2.35 0 4.544.664 6.424 1.808 2.306-2.518 5.596-4.097 9.244-4.097" clip-rule="evenodd"/><path fill="#F25022" d="M56.5 45.5h-9v9h9z"/><path fill="#00A4EF" d="M56.5 55.5h-9v9h9z"/><path fill="#7FBA00" d="M66.5 45.5h-9v9h9z"/><path fill="#FFB900" d="M66.5 55.5h-9v9h9z"/><path fill="#B5D9F1" fill-rule="evenodd" d="M85.429 60.336c0 7.165-5.686 12.979-12.691 12.979-.291 0-.56-.023-.829-.023-.738 6.456-6.088 11.469-12.601 11.469-6.11 0-11.191-4.35-12.422-10.21 4.344 4.89 11.005 6.407 16.28 3.908 5.867-2.782 7.29-9.235 7.445-9.997.618.227 4.466 1.566 7.928-.57 4.504-2.774 4.168-8.843 4.123-9.674-.363-6.558-6.106-10.1-6.657-10.427 5.417 1.488 9.424 6.524 9.424 12.545" clip-rule="evenodd"/><path fill="#fff" fill-rule="evenodd" d="M148.844 71.247c0-1.33-1.376-2.407-3.074-2.407H70.474c-1.698 0-3.074 1.077-3.074 2.406v52.947c0 1.329 1.376 2.407 3.074 2.407h75.296c1.698 0 3.074-1.078 3.074-2.407z" clip-rule="evenodd"/><path fill="#DAECF8" d="M145.4 69.994c1.988 0 3.6 1.453 3.6 3.245v55.511c0 1.792-1.612 3.244-3.6 3.244H71.6c-1.988 0-3.6-1.452-3.6-3.244v-1.623h72.9c1.988 0 3.6-1.452 3.6-3.244V69.994z"/><path fill="#264887" fill-rule="evenodd" d="M70.473 69.609a2.3 2.3 0 0 0-1.617.662l-.007.006-.023.023-.023.024a2.3 2.3 0 0 0-.635 1.59v32.758q-.002.19-.084.35a.8.8 0 0 1 .084.349v.175a.77.77 0 0 1-.303.611.77.77 0 0 1 .303.612v21.758a2.3 2.3 0 0 0 .648 1.604q.008.006.013.013l.007.007.023.023.024.022c.414.395.973.636 1.59.636h36.48c.142 0 .275.039.39.106a.77.77 0 0 1 .389-.106h.194c.296 0 .553.167.681.412a.77.77 0 0 1 .681-.412h36.481a2.3 2.3 0 0 0 1.604-.648l.013-.014.006-.006.024-.023.022-.024c.395-.414.636-.973.636-1.59v-21.758q.001-.19.084-.35a.76.76 0 0 1-.084-.349v-.175c0-.249.119-.471.303-.611a.77.77 0 0 1-.303-.612V71.914c0-.617-.241-1.175-.636-1.59l-.012-.013-.014-.014-.006-.006-.023-.024-.024-.022a2.3 2.3 0 0 0-1.59-.636h-36.481a.76.76 0 0 1-.389-.106.76.76 0 0 1-.389.106h-.195a.77.77 0 0 1-.681-.412.77.77 0 0 1-.681.412zm37.161-1.125a.77.77 0 0 0-.681-.412h-36.48a3.83 3.83 0 0 0-2.695 1.103l-.01.011-.038.04-.04.038a3.83 3.83 0 0 0-1.06 2.65v32.758c0 .126.031.245.085.35a.8.8 0 0 0-.084.349v.175c0 .249.119.471.303.611a.77.77 0 0 0-.303.612v21.758c0 1.027.404 1.961 1.06 2.65l.022.022.021.023.011.011.04.037.038.039a3.83 3.83 0 0 0 2.65 1.06h36.48a.8.8 0 0 0 .39-.106.77.77 0 0 0 .389.106h.194a.77.77 0 0 0 .681-.412.77.77 0 0 0 .681.412h36.481a3.83 3.83 0 0 0 2.65-1.06l.022-.022.023-.021.011-.011.037-.04.039-.038a3.83 3.83 0 0 0 1.06-2.65v-21.758a.76.76 0 0 0-.084-.35.76.76 0 0 0 .084-.349v-.175a.77.77 0 0 0-.303-.611.77.77 0 0 0 .303-.612V71.914a3.83 3.83 0 0 0-1.06-2.65l-.022-.022-.021-.022-.011-.011-.04-.038-.038-.039a3.83 3.83 0 0 0-2.65-1.06h-36.481a.76.76 0 0 0-.389.106.76.76 0 0 0-.389-.106h-.195a.77.77 0 0 0-.681.412" clip-rule="evenodd"/><path fill="#fff" d="M75.852 80.366a2.305 2.305 0 0 1 2.305-2.305h59.93a2.305 2.305 0 0 1 2.305 2.304v6.916a2.305 2.305 0 0 1-2.305 2.304h-59.93a2.305 2.305 0 0 1-2.305-2.304z"/><path fill="#264887" fill-rule="evenodd" d="M138.087 80.597h-59.93a.77.77 0 0 0-.769.769v6.915c0 .424.344.768.769.768h59.93a.77.77 0 0 0 .768-.769v-6.915a.77.77 0 0 0-.768-.768m-59.93-1.536a2.305 2.305 0 0 0-2.305 2.304v6.916a2.305 2.305 0 0 0 2.305 2.304h59.93a2.305 2.305 0 0 0 2.305-2.304v-6.916a2.305 2.305 0 0 0-2.305-2.304z" clip-rule="evenodd"/><path fill="#fff" d="M75.852 94.194a2.305 2.305 0 0 1 2.305-2.305h59.93a2.305 2.305 0 0 1 2.305 2.305v6.915a2.305 2.305 0 0 1-2.305 2.305h-59.93a2.305 2.305 0 0 1-2.305-2.305z"/><path fill="#264887" fill-rule="evenodd" d="M138.087 94.726h-59.93a.77.77 0 0 0-.769.769v6.914c0 .425.344.769.769.769h59.93a.77.77 0 0 0 .768-.769v-6.915a.77.77 0 0 0-.768-.768m-59.93-1.537a2.305 2.305 0 0 0-2.305 2.306v6.914a2.305 2.305 0 0 0 2.305 2.305h59.93a2.305 2.305 0 0 0 2.305-2.305v-6.915a2.305 2.305 0 0 0-2.305-2.305z" clip-rule="evenodd"/><path fill="#86C1E9" d="M80.273 82.178h.403v5.004h-.403z"/><rect width="63.772" height="12.293" x="75.852" y="107.318" fill="#86C1E9" rx="2.305"/><path fill="#C2E0F4" fill-rule="evenodd" d="M55 155a1 1 0 0 1 1-1h.202a1 1 0 0 1 0 2H56a1 1 0 0 1-1-1m2.622 0a1 1 0 0 1 1-1h66.159a1 1 0 1 1 0 2H58.622a1 1 0 0 1-1-1m68.176 0a1 1 0 0 1 1-1H127a1 1 0 0 1 0 2h-.202a1 1 0 0 1-1-1M17.05 99.707a1 1 0 0 1 0-1.414l4.244-4.243a1 1 0 0 1 1.414 0l4.242 4.243a1 1 0 0 1 0 1.414l-4.242 4.243a1 1 0 0 1-1.414 0zM19.173 99l2.829 2.828L24.829 99l-2.828-2.828zM57 22a4 4 0 1 1 8 0 4 4 0 0 1-8 0m4-2a2 2 0 1 0 0 4 2 2 0 0 0 0-4m93.639 52.64a.8.8 0 0 1 1.131 0l4.673 4.673a.8.8 0 0 1-1.132 1.132l-4.672-4.673a.8.8 0 0 1 0-1.131" clip-rule="evenodd"/><path fill="#C2E0F4" fill-rule="evenodd" d="M160.279 72.64a.8.8 0 0 0-1.131 0l-4.673 4.673a.8.8 0 0 0 1.132 1.132l4.672-4.673a.8.8 0 0 0 0-1.131" clip-rule="evenodd"/><path fill="#00B8F0" d="M50.766 114.059a45.475 45.475 0 0 0 76.962 17.6H94.28a30.8 30.8 0 0 1-27.832-17.6h10.234L59.084 94.992 41.49 114.06z"/><path fill="#009FD9" d="M94.28 138.993a78.1 78.1 0 0 1-33.652-7.565 45.45 45.45 0 0 0 33.497 14.895 45.45 45.45 0 0 0 33.599-14.663h-.28a78.2 78.2 0 0 1-33.164 7.333"/><path fill="#004590" fill-rule="evenodd" d="M59.084 94.19c.224 0 .438.093.59.258l17.598 19.067a.801.801 0 0 1-.59 1.347H67.75a29.99 29.99 0 0 0 26.53 15.994h33.449a.804.804 0 0 1 .591 1.347 46.27 46.27 0 0 1-44.355 13.76 46.28 46.28 0 0 1-33.79-31.101H41.49a.802.802 0 0 1-.59-1.347l17.595-19.067a.8.8 0 0 1 .59-.258m0 1.987-15.762 17.079h7.444c.353 0 .666.232.768.57a44.67 44.67 0 0 0 32.788 30.572 44.67 44.67 0 0 0 41.522-11.936H94.28a31.6 31.6 0 0 1-28.557-18.059.802.802 0 0 1 .725-1.147h8.4z" clip-rule="evenodd"/></svg>