<svg xmlns="http://www.w3.org/2000/svg" width="16" height="16" fill="none"><g clip-path="url(#a)"><path fill="#40526D" d="M13.433 2.693a.33.33 0 0 1-.266-.326V1.333A1.333 1.333 0 0 0 11.833 0H3.5a2 2 0 0 0-2 2v12a2 2 0 0 0 2 2h9.667a1.334 1.334 0 0 0 1.333-1.333V4a1.33 1.33 0 0 0-1.067-1.307M2.833 2a.667.667 0 0 1 .667-.667h8.167a.166.166 0 0 1 .166.167v1a.166.166 0 0 1-.166.167H3.5A.667.667 0 0 1 2.833 2m9.05 11.323a.34.34 0 0 1-.256.12H4.373a.334.334 0 0 1-.328-.392 3.7 3.7 0 0 1 .324-1c.298-.598 1.048-.964 2.418-1.472a.72.72 0 0 0-.005-.5 3.45 3.45 0 0 1-.743-2.383 1.964 1.964 0 1 1 3.922 0 3.47 3.47 0 0 1-.754 2.4.7.7 0 0 0 .017.491c1.36.501 2.11.867 2.407 1.467.155.316.264.653.324 1a.33.33 0 0 1-.072.269"/></g><defs><clipPath id="a"><path fill="#fff" d="M0 0h16v16H0z"/></clipPath></defs></svg>