<svg xmlns="http://www.w3.org/2000/svg" width="24" height="24" fill="none"><path fill="#40526D" d="M9.135 21.654a.25.25 0 0 0 .204-.074.28.28 0 0 0 0-.221 5.5 5.5 0 0 1-.14-2.666.2.2 0 0 0 0-.175.23.23 0 0 0-.157-.102 11.75 11.75 0 0 1-5.672-2.038.232.232 0 0 0-.37.185v1.577c.01 1.65 2.582 3.043 6.135 3.514M3.009 13.99c0 1.724 2.711 3.117 6.413 3.569a.22.22 0 0 0 .231-.13 5.5 5.5 0 0 1 1.101-1.586 5.5 5.5 0 0 1 1.268-.922.22.22 0 0 0 .11-.258.24.24 0 0 0-.221-.175H11.8c-3.248 0-6.626-.766-8.42-2.223a.231.231 0 0 0-.371.184z"/><path fill="#40526D" fill-rule="evenodd" d="m17.987 17.445-.28.278a3.68 3.68 0 0 1-1.201 4.6 3.71 3.71 0 0 1-4.754-.404 3.68 3.68 0 0 1-.406-4.738 3.71 3.71 0 0 1 4.616-1.198l3.206-3.193a.3.3 0 0 1 .218-.087h1.308a.3.3 0 0 1 .285.186.3.3 0 0 1 .02.118v1.304a.3.3 0 0 1-.086.217l-.563.561-.004.743a.294.294 0 0 1-.305.305l-.746.004-.253.252-.004.743a.29.29 0 0 1-.187.284.3.3 0 0 1-.118.02zm-3.405 1.654a.927.927 0 0 0-1.309 0 .92.92 0 0 0 0 1.305c.362.36.948.36 1.309 0a.92.92 0 0 0 0-1.305" clip-rule="evenodd"/><path fill="#40526D" d="M11.8 10.3c-3.248 0-6.626-.765-8.42-2.222a.232.232 0 0 0-.371.184V9.84c0 2.038 3.933 3.69 8.79 3.69a17.8 17.8 0 0 0 5.423-.784.2.2 0 0 0 .093-.056l1.767-1.67a1.85 1.85 0 0 1 1.203-.497.22.22 0 0 0 .204-.148 6.6 6.6 0 0 0 .101-2.112.23.23 0 0 0-.138-.212.23.23 0 0 0-.24 0c-1.824 1.485-5.173 2.25-8.412 2.25"/><path fill="#40526D" d="M11.8 9.378c4.855 0 8.79-1.651 8.79-3.689C20.59 3.652 16.656 2 11.8 2S3.009 3.652 3.009 5.69c0 2.037 3.936 3.688 8.79 3.688"/></svg>