<svg xmlns="http://www.w3.org/2000/svg" width="24" height="24" fill="none"><path fill="#40526D" d="M21.09 10.556a.93.93 0 0 0 .644-.257.86.86 0 0 0 .266-.62V8.8a.86.86 0 0 0-.266-.62.93.93 0 0 0-.643-.258h-1.91a.23.23 0 0 1-.133-.04.22.22 0 0 1-.084-.109l-1-2.896a1.32 1.32 0 0 0-.5-.638 1.4 1.4 0 0 0-.791-.24H7.327a1.4 1.4 0 0 0-.79.24 1.32 1.32 0 0 0-.5.638l-1 2.896a.22.22 0 0 1-.085.109.23.23 0 0 1-.134.04H2.91a.93.93 0 0 0-.643.257A.86.86 0 0 0 2 8.8v.879c0 .232.096.456.266.62.17.165.402.257.643.257h.627a.24.24 0 0 1 .126.04.23.23 0 0 1 .083.1.21.21 0 0 1 0 .238l-1.481 1.378a.9.9 0 0 0-.264.623v2.887a.86.86 0 0 0 .153.473c.096.14.233.25.392.317q.063.027.1.081a.2.2 0 0 1 .037.121v2.089c.002.29.123.568.335.773s.5.322.801.324h1.818c.301-.002.589-.119.801-.324s.333-.483.336-.773v-1.984c0-.058.024-.114.066-.155A.23.23 0 0 1 7 16.7h10a.23.23 0 0 1 .16.064.22.22 0 0 1 .067.155v1.984c.003.29.123.568.336.773.212.205.5.322.8.324h1.819c.3-.002.588-.119.8-.324s.334-.483.336-.773v-2.089q0-.066.037-.12a.23.23 0 0 1 .1-.082.9.9 0 0 0 .392-.317.86.86 0 0 0 .153-.473v-2.887a.9.9 0 0 0-.264-.623L20.3 10.934a.216.216 0 0 1 .038-.337.24.24 0 0 1 .126-.04zM16.183 5.73a.24.24 0 0 1 .135.046q.06.043.083.112l1.055 3.072a.19.19 0 0 1 0 .193.22.22 0 0 1-.182.088H6.755a.22.22 0 0 1-.182-.088.19.19 0 0 1 0-.193l1.054-3.072a.23.23 0 0 1 .083-.112.24.24 0 0 1 .135-.046zm-9.637 8.777H3.818a.46.46 0 0 1-.321-.129.43.43 0 0 1-.133-.31v-.878c0-.116.048-.228.133-.31a.46.46 0 0 1 .321-.129h2.727c.121 0 .237.047.322.129a.43.43 0 0 1 .133.31v.878a.43.43 0 0 1-.133.31.46.46 0 0 1-.322.129M17 13.189c0-.116.048-.228.133-.31a.46.46 0 0 1 .322-.129h2.727c.12 0 .236.047.321.129a.43.43 0 0 1 .133.31v.878a.43.43 0 0 1-.133.31.46.46 0 0 1-.321.129h-2.727a.46.46 0 0 1-.322-.129.43.43 0 0 1-.133-.31z"/></svg>