<svg xmlns="http://www.w3.org/2000/svg" width="16" height="16" fill="none"><g fill="#40526D" clip-path="url(#a)"><path d="M1.766 10.933a.334.334 0 0 0-.56.164L.263 15.34a.333.333 0 0 0 .397.398l4.243-.943a.333.333 0 0 0 .163-.561zm10.135-6.127-7.307 7.307a.17.17 0 0 0 0 .236l1.179 1.179a.34.34 0 0 0 .471 0l7.072-7.072a.333.333 0 0 0 0-.471l-1.179-1.179a.17.17 0 0 0-.236 0m-.706-.943-1.179-1.178a.333.333 0 0 0-.471 0L2.474 9.756a.333.333 0 0 0 0 .471l1.178 1.18a.17.17 0 0 0 .236 0l7.307-7.308a.17.17 0 0 0 0-.236m3.771-2.829a2.67 2.67 0 0 0-3.772 0l-.471.471a.333.333 0 0 0 0 .472l3.3 3.299a.34.34 0 0 0 .47 0l.473-.471a2.666 2.666 0 0 0 0-3.771"/></g><defs><clipPath id="a"><path fill="#fff" d="M0 0h16v16H0z"/></clipPath></defs></svg>