<svg xmlns="http://www.w3.org/2000/svg" width="24" height="24" fill="none"><g fill="#40526D" clip-path="url(#a)"><path d="M23.89 6.83a.18.18 0 0 0-.2 0l-9.75 9.75a2.72 2.72 0 0 1-1.94.8 2.8 2.8 0 0 1-1.95-.8L.31 6.87a.18.18 0 0 0-.2 0A.18.18 0 0 0 0 7v11a2 2 0 0 0 2 2h20a2 2 0 0 0 2-2V7a.18.18 0 0 0-.11-.17"/><path d="M11.11 14.56a1.27 1.27 0 0 0 1.77 0l9.69-9.69a.5.5 0 0 0 .12-.51C22.58 4 22.27 4 22 4H2c-.28 0-.58 0-.69.36a.5.5 0 0 0 .12.51z"/></g><defs><clipPath id="a"><path fill="#fff" d="M0 0h24v24H0z"/></clipPath></defs></svg>