<svg xmlns="http://www.w3.org/2000/svg" width="60" height="40" fill="none"><g clip-path="url(#a)"><path stroke="#B5D9F1" stroke-linecap="round" stroke-linejoin="round" d="M14.578 4 13 5.94l1.973 1.595 1.578-1.94z"/><path fill="#B5D9F1" d="m6.111 11.842 3.372-.327z"/><path stroke="#B5D9F1" stroke-linecap="round" d="m6.111 11.842 3.372-.327"/><path fill="#B5D9F1" d="m7.556 10.066.376 3.356z"/><path stroke="#B5D9F1" stroke-linecap="round" d="m7.556 10.066.376 3.356"/><path stroke="#B5D9F1" stroke-linecap="round" stroke-linejoin="round" d="M53.524 4.675 51.667 3 50 4.849l1.856 1.675z"/><path stroke="#B5D9F1" d="M56.25 15.5a1.25 1.25 0 1 0 0-2.5 1.25 1.25 0 0 0 0 2.5Z" clip-rule="evenodd"/><path fill="#D32D27" d="M31.808 4h-.467a2.28 2.28 0 0 0-2.28 2.281v2.75h5.028V6.279A2.28 2.28 0 0 0 31.81 4"/><path stroke="#264887" stroke-linecap="round" stroke-linejoin="round" stroke-width="1.25" d="M31.808 4h-.467a2.28 2.28 0 0 0-2.28 2.281v2.75h5.028V6.279A2.28 2.28 0 0 0 31.81 4"/><path fill="#fff" stroke="#264887" stroke-dasharray="800 7 3 5" stroke-linecap="round" stroke-linejoin="round" stroke-width="1.25" d="m8.815 32.058 40.931-.01-.004-13.058a27.6 27.6 0 0 0-.378-4.552l-.367-2.2a3.844 3.844 0 0 0-3.793-3.21l-25.636.007a3.845 3.845 0 0 0-3.753 3.013l-1.885 8.496-3.18.797a2.56 2.56 0 0 0-1.937 2.482z"/><path fill="#B5D9F1" d="M15.788 12.165h9.119a.72.72 0 0 1 .72.72v4.952a.72.72 0 0 1-.72.72h-10.54z"/><path fill="#fff" d="M24.906 12.163a.72.72 0 0 1 .72.72v4.952a.72.72 0 0 1-.72.72h-.337l-6.396-6.391z"/><path stroke="#264887" stroke-linecap="round" stroke-linejoin="round" stroke-width="1.25" d="M15.788 12.165h9.119a.72.72 0 0 1 .72.72v4.952a.72.72 0 0 1-.72.72h-10.54z"/><path fill="#B5D9F1" stroke="#264887" stroke-linecap="round" stroke-linejoin="round" stroke-width="1.25" d="M11.423 29.715H8.815v-3.26h1.304a1.304 1.304 0 0 1 1.304 1.303z"/><path fill="#B5D9F1" d="M52.218 30.745a1.04 1.04 0 0 0-1.041-1.04H44.07l-36.031.01A1.04 1.04 0 0 0 7 30.754v.524a1.56 1.56 0 0 0 1.56 1.56l35.51-.01h6.585a1.56 1.56 0 0 0 1.562-1.561z"/><path fill="#D32D27" d="M41.592 17.811a.93.93 0 0 0-.928-.928h-1.857v-1.856a.93.93 0 0 0-.929-.928h-1.485a.93.93 0 0 0-.928.928v1.86h-1.857a.93.93 0 0 0-.928.929V19.3a.93.93 0 0 0 .929.926h1.857v1.857a.93.93 0 0 0 .927.927h1.485a.93.93 0 0 0 .928-.929v-1.855h1.857a.93.93 0 0 0 .929-.929z"/><path stroke="#264887" stroke-linecap="round" stroke-linejoin="round" stroke-width="1.25" d="M41.592 17.811a.93.93 0 0 0-.928-.928h-1.857v-1.856a.93.93 0 0 0-.929-.928h-1.485a.93.93 0 0 0-.928.928v1.86h-1.857a.93.93 0 0 0-.928.929V19.3a.93.93 0 0 0 .929.926h1.857v1.857a.93.93 0 0 0 .927.927h1.485a.93.93 0 0 0 .928-.929v-1.855h1.857a.93.93 0 0 0 .929-.929zm-19.688 3.944 2.398-.001m27.916 8.991a1.04 1.04 0 0 0-1.041-1.04H44.07l-36.031.01A1.04 1.04 0 0 0 7 30.754v.524a1.56 1.56 0 0 0 1.56 1.56l35.51-.01h6.585a1.56 1.56 0 0 0 1.562-1.561z"/><path fill="#fff" d="M23.469 32.834H12.073a6 6 0 0 1-.026-.52 5.725 5.725 0 1 1 11.422.52"/><path stroke="#264887" stroke-linecap="round" stroke-linejoin="round" stroke-width="1.25" d="M23.469 32.834H12.073a6 6 0 0 1-.026-.52 5.725 5.725 0 1 1 11.422.52"/><path fill="#B5D9F1" d="M17.77 36a3.643 3.643 0 1 0 0-7.286 3.643 3.643 0 0 0 0 7.286"/><path stroke="#264887" stroke-linecap="round" stroke-linejoin="round" stroke-width="1.25" d="M17.77 36a3.643 3.643 0 1 0 0-7.286 3.643 3.643 0 0 0 0 7.286"/><path fill="#fff" d="M17.77 33.918a1.561 1.561 0 1 0 0-3.122 1.561 1.561 0 0 0 0 3.122"/><path stroke="#264887" stroke-linecap="round" stroke-linejoin="round" stroke-width="1.25" d="M17.77 33.918a1.561 1.561 0 1 0 0-3.122 1.561 1.561 0 0 0 0 3.122"/><path fill="#fff" d="M45.902 32.828H34.507a6 6 0 0 1-.026-.52 5.725 5.725 0 0 1 11.449 0 7 7 0 0 1-.028.52"/><path stroke="#264887" stroke-linecap="round" stroke-linejoin="round" stroke-width="1.25" d="M45.902 32.828H34.507a6 6 0 0 1-.026-.52 5.725 5.725 0 0 1 11.449 0 7 7 0 0 1-.028.52"/><path fill="#B5D9F1" d="M40.203 35.994a3.643 3.643 0 1 0 0-7.286 3.643 3.643 0 0 0 0 7.286"/><path stroke="#264887" stroke-linecap="round" stroke-linejoin="round" stroke-width="1.25" d="M40.203 35.994a3.643 3.643 0 1 0 0-7.286 3.643 3.643 0 0 0 0 7.286"/><path fill="#fff" stroke="#264887" stroke-linecap="round" stroke-linejoin="round" stroke-width="1.25" d="M40.202 33.912a1.561 1.561 0 1 0 0-3.122 1.561 1.561 0 0 0 0 3.122"/><path fill="#B5D9F1" stroke="#264887" stroke-linecap="round" stroke-linejoin="round" stroke-width="1.25" d="M42.746 13.67a1.165 1.165 0 0 0 1.164 1.164h1.167a1.164 1.164 0 1 0 0-2.329h-1.166a1.165 1.165 0 0 0-1.165 1.164"/></g><defs><clipPath id="a"><path fill="#fff" d="M0 0h60v40H0z"/></clipPath></defs></svg>