<svg xmlns="http://www.w3.org/2000/svg" width="295" height="125" fill="none"><g filter="url(#a)"><rect width="231" height="55" x="32" y="22.5" fill="#fff" rx="3.5"/><rect width="31" height="31" x="44" y="34.5" fill="#E8F3FF" stroke="#D4E9FF" rx="3.5"/><path fill="#004590" d="M65.395 47.493h-.59v-2.246a5.62 5.62 0 0 0-1.554-3.898 5.2 5.2 0 0 0-3.751-1.615 5.2 5.2 0 0 0-3.751 1.615 5.62 5.62 0 0 0-1.554 3.898v2.246h-.59c-.417 0-.816.172-1.111.478s-.46.722-.46 1.155v8.575c0 .433.165.849.46 1.155a1.54 1.54 0 0 0 1.111.478h11.79c.417 0 .817-.172 1.111-.478s.46-.722.46-1.155v-8.575c0-.433-.165-.849-.46-1.155a1.54 1.54 0 0 0-1.111-.478m-5.895 7.35a1.53 1.53 0 0 1-.873-.276 1.6 1.6 0 0 1-.58-.733 1.7 1.7 0 0 1-.089-.943c.06-.317.21-.608.43-.837s.5-.384.805-.447.621-.03.909.093c.287.124.532.333.705.602a1.68 1.68 0 0 1-.196 2.062 1.54 1.54 0 0 1-1.111.479m3.34-7.759a.42.42 0 0 1-.115.29.4.4 0 0 1-.278.119h-5.894a.4.4 0 0 1-.278-.12.42.42 0 0 1-.115-.289v-1.837c0-.92.352-1.803.978-2.454a3.28 3.28 0 0 1 2.362-1.017c.886 0 1.736.366 2.362 1.017s.978 1.533.978 2.454z"/><path fill="#40526D" fill-opacity=".7" d="M88.988 50.215c-.135 0-.31-.012-.45-.035v-.838c.122.023.28.03.421.03.58 0 .932-.265 1.16-.991l.117-.375-2.338-6.322h1.09l1.735 5.197h.093l1.729-5.197h1.072l-2.467 6.703c-.521 1.418-1.043 1.828-2.162 1.828m8.338-2.104c-1.799 0-2.912-1.242-2.912-3.263v-.012c0-2.027 1.113-3.264 2.912-3.264s2.912 1.237 2.912 3.264v.012c0 2.021-1.113 3.263-2.912 3.263m0-.902c1.196 0 1.87-.873 1.87-2.361v-.012c0-1.494-.674-2.361-1.87-2.361-1.195 0-1.869.867-1.869 2.36v.013c0 1.488.674 2.361 1.87 2.361m6.61.902c-1.436 0-2.174-.843-2.174-2.338v-4.09h1.019v3.844c0 1.137.41 1.682 1.418 1.682 1.113 0 1.705-.68 1.705-1.787v-3.738h1.02V48h-1.02v-.943h-.093c-.311.673-.95 1.054-1.875 1.054m4.892-.111v-6.316h1.02v.937h.093c.241-.662.832-1.049 1.688-1.049.193 0 .41.024.51.041v.99a3.7 3.7 0 0 0-.627-.058c-.973 0-1.664.615-1.664 1.54V48zm6.621.111c-1.406 0-2.373-.68-2.49-1.722h1.043c.17.527.674.873 1.482.873.85 0 1.454-.405 1.454-.979v-.011c0-.428-.323-.727-1.102-.915l-.979-.234c-1.183-.281-1.716-.797-1.716-1.705v-.006c0-1.049 1.007-1.84 2.349-1.84 1.324 0 2.244.662 2.385 1.694h-1.002c-.135-.498-.627-.844-1.389-.844-.75 0-1.3.387-1.3.943v.012c0 .428.316.697 1.06.879l.973.234c1.189.287 1.763.803 1.763 1.705v.012c0 1.125-1.095 1.904-2.531 1.904m4.653-7.646a.706.706 0 0 1-.704-.703.705.705 0 0 1 1.407 0 .706.706 0 0 1-.703.703M119.586 48v-6.316h1.019V48zm5.185.047c-1.3 0-1.845-.48-1.845-1.688v-3.832h-.996v-.843h.996v-1.635h1.054v1.635h1.383v.843h-1.383v3.575c0 .744.258 1.043.915 1.043.181 0 .281-.006.468-.024v.867a3.4 3.4 0 0 1-.592.059m4.6.064c-1.805 0-2.894-1.265-2.894-3.246v-.006c0-1.95 1.113-3.287 2.83-3.287 1.716 0 2.759 1.278 2.759 3.164v.399h-4.546c.029 1.306.75 2.068 1.875 2.068.855 0 1.382-.404 1.552-.785l.024-.053h1.019l-.011.047c-.217.856-1.12 1.7-2.608 1.7m-.07-5.63c-.938 0-1.653.638-1.764 1.84h3.492c-.105-1.249-.797-1.84-1.728-1.84m5.179 5.578a.767.767 0 0 1-.761-.762.76.76 0 1 1 1.523 0c0 .416-.34.762-.762.762m5.081.052c-1.77 0-2.901-1.283-2.901-3.287v-.011c0-1.963 1.125-3.24 2.895-3.24 1.535 0 2.455.884 2.642 2.009l.006.035h-1.014l-.005-.017c-.159-.622-.721-1.125-1.629-1.125-1.137 0-1.852.914-1.852 2.337v.012c0 1.453.727 2.385 1.852 2.385.849 0 1.388-.375 1.623-1.078l.011-.035 1.008-.006-.011.064c-.258 1.143-1.108 1.957-2.625 1.957m6.726 0c-1.799 0-2.912-1.242-2.912-3.263v-.012c0-2.027 1.113-3.264 2.912-3.264s2.912 1.237 2.912 3.264v.012c0 2.021-1.113 3.263-2.912 3.263m0-.902c1.195 0 1.869-.873 1.869-2.361v-.012c0-1.494-.674-2.361-1.869-2.361s-1.869.867-1.869 2.36v.013c0 1.488.674 2.361 1.869 2.361m4.494.791v-6.316h1.02v.96h.094c.281-.68.878-1.072 1.705-1.072.855 0 1.453.451 1.746 1.108h.093c.34-.668 1.061-1.108 1.934-1.108 1.289 0 2.01.738 2.01 2.063V48h-1.02v-4.13c0-.932-.427-1.395-1.318-1.395-.879 0-1.459.662-1.459 1.465V48h-1.02v-4.29c0-.75-.515-1.235-1.312-1.235-.826 0-1.453.72-1.453 1.61V48z"/><rect width="120" height="12" x="87.5" y="54" fill="#EBEEEF" rx="6"/><rect width="32" height="32" x="219.5" y="34" fill="#007AFF" fill-opacity=".3" rx="4"/><g fill="#007AFF" clip-path="url(#b)"><path d="M229.667 52.167a2.166 2.166 0 1 0 0-4.333 2.166 2.166 0 0 0 0 4.333m5.833 0a2.167 2.167 0 1 0 0-4.333 2.167 2.167 0 0 0 0 4.333m5.833 0a2.167 2.167 0 1 0 0-4.333 2.167 2.167 0 0 0 0 4.333"/></g><rect width="231" height="55" x="32" y="22.5" stroke="#C2E0F4" rx="3.5"/></g><path stroke="#C2E0F4" stroke-linecap="round" stroke-width="2" d="m24.174 9.174 3.959 3.959m-.14-3.959-3.959 3.959"/><path stroke="#B5D9F1" stroke-linecap="round" stroke-linejoin="round" stroke-width="2.204" d="M29.043 88.096a2.045 2.045 0 0 0 2.043-2.048A2.045 2.045 0 0 0 29.043 84 2.045 2.045 0 0 0 27 86.048c0 1.13.915 2.048 2.043 2.048" clip-rule="evenodd"/><path stroke="#C2E0F4" stroke-linecap="round" stroke-linejoin="round" stroke-width="2" d="M267 15.945 269.946 13l2.947 2.946-2.947 2.947z"/><defs><clipPath id="b"><path fill="#fff" d="M227.5 42h16v16h-16z"/></clipPath><filter id="a" width="240" height="89" x="31.5" y="22" color-interpolation-filters="sRGB" filterUnits="userSpaceOnUse"><feFlood flood-opacity="0" result="BackgroundImageFix"/><feColorMatrix in="SourceAlpha" result="hardAlpha" values="0 0 0 0 0 0 0 0 0 0 0 0 0 0 0 0 0 0 127 0"/><feOffset dx="8" dy="8"/><feComposite in2="hardAlpha" operator="out"/><feColorMatrix values="0 0 0 0 0.921569 0 0 0 0 0.960784 0 0 0 0 0.984314 0 0 0 1 0"/><feBlend in2="BackgroundImageFix" result="effect1_dropShadow_4528_140014"/><feBlend in="SourceGraphic" in2="effect1_dropShadow_4528_140014" result="shape"/></filter></defs></svg>