<svg xmlns="http://www.w3.org/2000/svg" width="856" height="274" fill="none" preserveAspectRatio="none"><g clip-path="url(#a)"><path stroke="#EDEFF1" stroke-width="1.5" d="M856 272.88H0m856-54.053H0m856-54.053H0m856-54.983H0m856-54.053H0M856 1.685H0M122.25 272.13V.936M.25 272.13V.936m244 271.194V.936m611 271.194V.936m-489 271.194V.936m123 271.194V.936m122 271.194V.936m122 271.194V.936"/><path fill="#DBE5F7" d="m57 251.556-67 23.379h865V33.665l-56.5 65.461-66 16.833-58.5 30.86-62.5 21.976H548l-121 24.782H308.5L244 224.904l-61 5.611-60.5 21.041z" opacity=".5"/><path stroke="#DBE5F7" stroke-width="2" d="m-10 274.935 67-23.379h65.5l60.5-21.041 61-5.611 64.5-31.327H427l121-24.782h63.5l62.5-21.976 58.5-30.86 66-16.833 56.5-65.46"/></g><defs><clipPath id="a"><path fill="#fff" d="M0 0h856v274H0z"/></clipPath></defs></svg>