<svg xmlns="http://www.w3.org/2000/svg" width="376" height="100" fill="none"><mask id="a" width="376" height="100" x="0" y="0" maskUnits="userSpaceOnUse" style="mask-type:alpha"><path fill="#C4C4C4" d="M0 0h376v100H0z"/></mask><g mask="url(#a)"><path fill="url(#b)" d="M0 0h376v100H0z"/><g clip-path="url(#c)" opacity=".2"><path stroke="#fff" stroke-linecap="round" stroke-linejoin="round" stroke-width="4" d="M309.084 44.782a2.326 2.326 0 0 1 .488-3.253l35.547-26.272a2.326 2.326 0 0 1 3.253.488l47.013 63.61a2.326 2.326 0 0 1-.488 3.253L379.93 93.67l-11.753-15.902a1.164 1.164 0 0 0-1.627-.244l-9.355 6.913a1.164 1.164 0 0 0-.244 1.627l11.754 15.902-9.355 6.914a2.326 2.326 0 0 1-3.253-.488zm-33.921 59.784a2.326 2.326 0 0 1 .488-3.253l35.547-26.272a2.326 2.326 0 0 1 3.253.488l30.42 41.159a2.327 2.327 0 0 1-.488 3.254l-9.354 6.913-11.753-15.902a1.163 1.163 0 0 0-1.627-.244l-9.354 6.914a1.163 1.163 0 0 0-.245 1.626l11.754 15.903-14.967 11.061a2.326 2.326 0 0 1-3.254-.488z" clip-rule="evenodd"/><path fill="#fff" d="M361.345 56.782a1.163 1.163 0 0 1 .244-1.627l3.742-2.766a1.16 1.16 0 0 1 1.626.244l2.766 3.742a1.164 1.164 0 0 1-.244 1.627l-3.742 2.765a1.163 1.163 0 0 1-1.627-.244zm-10.981 6.669a1.163 1.163 0 0 0-.244 1.627l2.765 3.742c.382.516 1.11.626 1.627.244l3.742-2.766c.516-.382.625-1.11.244-1.627l-2.766-3.741a1.163 1.163 0 0 0-1.627-.244zm-8.541-9.598a1.164 1.164 0 0 1 .244-1.627l3.742-2.765a1.163 1.163 0 0 1 1.627.244l2.765 3.741a1.163 1.163 0 0 1-.244 1.627l-3.741 2.766a1.163 1.163 0 0 1-1.627-.245zm11.47-9.923a1.163 1.163 0 0 0-.244 1.626l2.765 3.742c.382.517 1.11.626 1.627.244l3.742-2.765c.516-.382.625-1.11.244-1.627l-2.766-3.742a1.163 1.163 0 0 0-1.627-.244zm-19.766-1.302a1.163 1.163 0 0 1 .244-1.627l3.742-2.766a1.164 1.164 0 0 1 1.627.244l2.765 3.742a1.163 1.163 0 0 1-.244 1.627l-3.742 2.765a1.164 1.164 0 0 1-1.627-.244zm5.611 29.12a1.164 1.164 0 0 0-.244 1.626l2.766 3.742c.382.517 1.11.626 1.627.244l3.741-2.765c.517-.382.626-1.11.244-1.627l-2.765-3.742a1.163 1.163 0 0 0-1.627-.244zm-8.54-9.599a1.163 1.163 0 0 1 .244-1.627l3.742-2.765a1.164 1.164 0 0 1 1.627.244l2.765 3.742a1.163 1.163 0 0 1-.244 1.626l-3.742 2.766a1.163 1.163 0 0 1-1.627-.244zm-8.052-12.852a1.163 1.163 0 0 0-.244 1.627l2.765 3.742c.382.516 1.11.625 1.627.244l3.742-2.766c.516-.382.626-1.11.244-1.627l-2.766-3.741a1.16 1.16 0 0 0-1.626-.245zm22.206-14.966a1.164 1.164 0 0 1 .244-1.627l3.742-2.765a1.163 1.163 0 0 1 1.627.244l2.765 3.742a1.163 1.163 0 0 1-.244 1.627l-3.742 2.765a1.16 1.16 0 0 1-1.626-.244zm-45.139 68.084a1.165 1.165 0 0 1 .244-1.627l3.742-2.765a1.163 1.163 0 0 1 1.627.244l2.765 3.742a1.163 1.163 0 0 1-.244 1.627l-3.741 2.765a1.163 1.163 0 0 1-1.627-.244zm-10.981 6.67a1.164 1.164 0 0 0-.244 1.627l2.766 3.741c.381.517 1.11.626 1.626.244l3.742-2.765c.517-.382.626-1.11.244-1.627l-2.765-3.742a1.165 1.165 0 0 0-1.627-.244zm22.207-14.966a1.163 1.163 0 0 1 .244-1.627l3.741-2.765a1.163 1.163 0 0 1 1.627.244l2.766 3.742a1.164 1.164 0 0 1-.244 1.626l-3.742 2.766a1.163 1.163 0 0 1-1.627-.244z"/></g><g clip-path="url(#d)" filter="url(#e)" opacity=".2"><path stroke="#fff" stroke-linecap="round" stroke-linejoin="round" d="M254.438 47.427a.417.417 0 0 1 .551-.209l7.215 3.26c.21.095.303.341.208.551l-5.833 12.91a.416.416 0 0 1-.551.208l-3.038-1.372 1.458-3.227a.21.21 0 0 0-.104-.276l-1.898-.858a.21.21 0 0 0-.276.104l-1.458 3.228-1.899-.858a.42.42 0 0 1-.208-.551zm-12.311-.076a.417.417 0 0 1 .551-.208l7.215 3.26c.21.094.303.341.208.55l-3.774 8.354a.417.417 0 0 1-.551.209l-1.899-.858 1.458-3.228a.21.21 0 0 0-.104-.275l-1.898-.858a.21.21 0 0 0-.276.104l-1.458 3.227-3.038-1.372a.417.417 0 0 1-.208-.551z" clip-rule="evenodd"/><path fill="#fff" d="M257.132 56.645a.207.207 0 0 1 .275-.104l.76.343c.105.047.151.17.104.275l-.343.76a.21.21 0 0 1-.276.104l-.759-.343a.21.21 0 0 1-.104-.276zm-2.003-1.134a.21.21 0 0 0-.276.104l-.343.76a.21.21 0 0 0 .104.276l.76.343c.105.047.228 0 .275-.105l.343-.759a.21.21 0 0 0-.104-.276zm.754-2.174a.207.207 0 0 1 .275-.104l.76.343a.21.21 0 0 1 .104.276l-.343.76a.21.21 0 0 1-.276.103l-.759-.343a.21.21 0 0 1-.104-.275zm2.554.925a.21.21 0 0 0-.276.105l-.343.759a.21.21 0 0 0 .104.276l.759.343a.21.21 0 0 0 .276-.104l.343-.76a.21.21 0 0 0-.104-.276zm-1.525-3.203a.21.21 0 0 1 .276-.104l.759.343c.105.047.151.17.104.276l-.343.759a.21.21 0 0 1-.276.104l-.759-.343a.21.21 0 0 1-.104-.276zm-4.061 3.423a.21.21 0 0 0-.276.104l-.343.76a.21.21 0 0 0 .104.275l.759.343a.21.21 0 0 0 .276-.104l.343-.76a.21.21 0 0 0-.104-.275zm.753-2.174a.21.21 0 0 1 .276-.104l.759.343c.105.047.152.17.105.276l-.344.759a.207.207 0 0 1-.275.104l-.76-.343c-.104-.048-.151-.17-.104-.276zm1.305-2.382a.207.207 0 0 0-.275.104l-.343.759a.21.21 0 0 0 .104.276l.759.343a.21.21 0 0 0 .276-.104l.343-.76a.21.21 0 0 0-.104-.275zm4.281 2.162a.21.21 0 0 1 .276-.104l.759.343a.21.21 0 0 1 .104.276l-.343.76a.21.21 0 0 1-.275.103l-.76-.343a.21.21 0 0 1-.104-.275zm-14.589-1.103a.21.21 0 0 1 .276-.104l.759.343c.105.047.152.17.104.276l-.343.76a.21.21 0 0 1-.275.103l-.76-.343a.21.21 0 0 1-.104-.276zm-2.002-1.133a.21.21 0 0 0-.276.104l-.343.76a.21.21 0 0 0 .104.275l.759.343a.21.21 0 0 0 .276-.104l.343-.76a.21.21 0 0 0-.104-.275zm4.28 2.162a.21.21 0 0 1 .276-.104l.76.343a.21.21 0 0 1 .104.276l-.344.76a.207.207 0 0 1-.275.103l-.76-.343a.21.21 0 0 1-.104-.275z"/></g><g clip-path="url(#f)" filter="url(#g)" opacity=".2"><path stroke="#fff" stroke-linecap="round" stroke-linejoin="round" d="M289.044 11.012a.21.21 0 0 1 .249-.157l3.861.872a.21.21 0 0 1 .158.25l-1.562 6.909a.21.21 0 0 1-.249.157l-1.626-.368.391-1.727a.104.104 0 0 0-.079-.124l-1.016-.23a.103.103 0 0 0-.124.079l-.391 1.727-1.016-.23a.21.21 0 0 1-.157-.249zm-6.037 1.198a.21.21 0 0 1 .249-.157l3.861.873a.21.21 0 0 1 .157.249l-1.01 4.47a.21.21 0 0 1-.249.158l-1.017-.23.391-1.727a.105.105 0 0 0-.079-.124l-1.016-.23a.103.103 0 0 0-.124.078l-.391 1.728-1.625-.368a.21.21 0 0 1-.158-.249z" clip-rule="evenodd"/><path fill="#fff" d="M291.289 15.257a.103.103 0 0 1 .124-.079l.407.092a.104.104 0 0 1 .078.125l-.092.406a.103.103 0 0 1-.124.079l-.407-.092a.104.104 0 0 1-.078-.124zm-1.095-.354a.105.105 0 0 0-.125.079l-.092.406a.105.105 0 0 0 .079.124l.407.092a.104.104 0 0 0 .124-.078l.092-.407a.104.104 0 0 0-.079-.124zm.151-1.141a.104.104 0 0 1 .124-.078l.407.091a.104.104 0 0 1 .078.125l-.091.406a.105.105 0 0 1-.125.08l-.406-.093a.104.104 0 0 1-.079-.124zm1.344.198a.105.105 0 0 0-.125.078l-.092.406a.105.105 0 0 0 .079.125l.406.092a.105.105 0 0 0 .125-.079l.092-.406a.105.105 0 0 0-.079-.125zm-1.069-1.417a.105.105 0 0 1 .125-.079l.406.092a.104.104 0 0 1 .079.125l-.092.406a.104.104 0 0 1-.124.079l-.407-.092a.104.104 0 0 1-.078-.125zm-1.645 2.084a.105.105 0 0 0-.125.079l-.092.406a.105.105 0 0 0 .079.125l.406.092a.105.105 0 0 0 .125-.079l.092-.406a.105.105 0 0 0-.079-.125zm.151-1.14a.103.103 0 0 1 .124-.079l.407.092a.104.104 0 0 1 .078.124l-.092.407a.103.103 0 0 1-.124.079l-.407-.092a.104.104 0 0 1-.078-.125zm.4-1.298a.105.105 0 0 0-.125.079l-.092.406a.105.105 0 0 0 .079.125l.406.091a.105.105 0 0 0 .125-.078l.092-.407a.105.105 0 0 0-.079-.124zm2.314.63a.103.103 0 0 1 .124-.08l.407.093a.104.104 0 0 1 .078.124l-.092.407a.103.103 0 0 1-.124.078l-.407-.091a.104.104 0 0 1-.078-.125zm-7.257.923a.104.104 0 0 1 .125-.078l.406.091a.105.105 0 0 1 .079.125l-.092.406a.105.105 0 0 1-.125.08l-.406-.093a.104.104 0 0 1-.079-.124zm-1.095-.354a.103.103 0 0 0-.124.079l-.092.406a.103.103 0 0 0 .079.125l.406.092a.105.105 0 0 0 .125-.079l.091-.406a.104.104 0 0 0-.078-.125zm2.314.63a.105.105 0 0 1 .125-.079l.406.092a.104.104 0 0 1 .079.125l-.092.406a.104.104 0 0 1-.125.079l-.406-.092a.105.105 0 0 1-.079-.125z"/></g><g clip-path="url(#h)" filter="url(#i)" opacity=".2"><path stroke="#fff" stroke-linecap="round" stroke-linejoin="round" d="M208.312 22.448a.21.21 0 0 1 .075-.285l3.421-1.99a.21.21 0 0 1 .285.075l3.562 6.123c.058.1.024.227-.076.285l-1.44.838-.891-1.531a.104.104 0 0 0-.142-.038l-.9.524a.104.104 0 0 0-.038.142l.89 1.531-.9.524a.21.21 0 0 1-.285-.076zm-3.606 4.989a.21.21 0 0 1 .076-.285l3.421-1.99a.21.21 0 0 1 .285.075l2.304 3.962c.058.1.025.227-.075.285l-.9.523-.891-1.53a.104.104 0 0 0-.142-.038l-.901.524a.105.105 0 0 0-.037.142l.89 1.531-1.44.838a.21.21 0 0 1-.285-.075z" clip-rule="evenodd"/><path fill="#fff" d="M212.846 24.028a.104.104 0 0 1 .038-.143l.36-.21a.104.104 0 0 1 .142.039l.21.36a.104.104 0 0 1-.038.142l-.36.21a.105.105 0 0 1-.143-.038zm-1.043.486a.104.104 0 0 0-.038.142l.21.36c.029.05.093.067.142.038l.36-.21a.104.104 0 0 0 .038-.142l-.209-.36a.105.105 0 0 0-.143-.038zm-.666-.938a.104.104 0 0 1 .038-.143l.36-.21a.104.104 0 0 1 .142.039l.21.36a.104.104 0 0 1-.038.142l-.36.21a.105.105 0 0 1-.143-.038zm1.118-.771a.104.104 0 0 0-.038.142l.21.36c.029.05.093.067.142.038l.36-.21a.104.104 0 0 0 .038-.142l-.209-.36a.105.105 0 0 0-.143-.038zm-1.747-.31a.104.104 0 0 1 .038-.142l.36-.21a.105.105 0 0 1 .143.038l.209.36a.104.104 0 0 1-.038.143l-.36.21a.104.104 0 0 1-.142-.038zm.215 2.647a.104.104 0 0 0-.038.143l.209.36c.029.05.093.067.143.038l.36-.21a.104.104 0 0 0 .038-.142l-.21-.36a.104.104 0 0 0-.142-.038zm-.667-.938a.104.104 0 0 1 .038-.142l.36-.21a.105.105 0 0 1 .143.038l.209.36a.104.104 0 0 1-.038.143l-.36.21a.104.104 0 0 1-.142-.039zm-.59-1.223a.104.104 0 0 0-.038.143l.209.36c.029.05.093.067.143.038l.36-.21a.104.104 0 0 0 .038-.142l-.21-.36a.104.104 0 0 0-.142-.038zm2.123-1.114a.104.104 0 0 1 .038-.143l.36-.21a.104.104 0 0 1 .142.039l.21.36a.104.104 0 0 1-.038.142l-.36.21a.105.105 0 0 1-.143-.038zm-4.685 5.618a.105.105 0 0 1 .037-.142l.36-.21a.105.105 0 0 1 .143.038l.209.36a.105.105 0 0 1-.037.142l-.36.21a.105.105 0 0 1-.143-.038zm-1.043.486a.104.104 0 0 0-.038.142l.21.36c.029.05.092.067.142.038l.36-.21a.104.104 0 0 0 .038-.142l-.21-.36a.104.104 0 0 0-.142-.037zm2.123-1.114a.104.104 0 0 1 .038-.143l.36-.21a.104.104 0 0 1 .142.038l.21.36a.104.104 0 0 1-.038.143l-.36.21a.104.104 0 0 1-.142-.038z"/></g><g clip-path="url(#j)" filter="url(#k)" opacity=".2"><path stroke="#fff" stroke-linecap="round" stroke-linejoin="round" d="M26.34.476a.21.21 0 0 1 .075-.285l3.422-1.99a.21.21 0 0 1 .285.075L33.683 4.4c.058.1.024.227-.075.285l-1.44.838-.891-1.53a.104.104 0 0 0-.143-.039l-.9.524a.104.104 0 0 0-.038.143l.89 1.53-.9.524a.21.21 0 0 1-.285-.075zm-3.605 4.989a.21.21 0 0 1 .075-.285l3.422-1.99a.21.21 0 0 1 .284.075l2.305 3.962c.058.1.024.227-.076.285l-.9.524-.89-1.53a.104.104 0 0 0-.143-.039l-.9.524a.104.104 0 0 0-.038.143l.89 1.53-1.44.838a.21.21 0 0 1-.285-.075z" clip-rule="evenodd"/><path fill="#fff" d="M30.874 2.056a.104.104 0 0 1 .038-.142l.36-.21a.104.104 0 0 1 .142.038l.21.36a.104.104 0 0 1-.038.142l-.36.21a.104.104 0 0 1-.142-.038zm-1.043.486a.104.104 0 0 0-.037.143l.21.36c.028.05.092.066.142.037l.36-.21a.104.104 0 0 0 .037-.142l-.21-.36a.104.104 0 0 0-.141-.037zm-.666-.938a.104.104 0 0 1 .038-.142l.36-.21a.104.104 0 0 1 .142.038l.21.36a.104.104 0 0 1-.038.142l-.36.21a.104.104 0 0 1-.142-.038zm1.118-.771a.104.104 0 0 0-.037.143l.21.36c.028.05.092.066.142.037l.36-.21a.104.104 0 0 0 .037-.142l-.21-.36a.104.104 0 0 0-.142-.037zM28.537.524a.104.104 0 0 1 .037-.143l.36-.21a.104.104 0 0 1 .143.038l.21.36a.104.104 0 0 1-.038.143l-.36.21a.104.104 0 0 1-.143-.038zm.213 2.646a.104.104 0 0 0-.037.143l.21.36c.029.05.092.067.142.038l.36-.21a.104.104 0 0 0 .038-.142l-.21-.36a.104.104 0 0 0-.142-.038zm-.665-.937a.104.104 0 0 1 .037-.143l.36-.21a.104.104 0 0 1 .143.038l.21.36a.104.104 0 0 1-.038.143l-.36.21a.104.104 0 0 1-.143-.038zm-.591-1.223a.104.104 0 0 0-.038.142l.21.36c.029.05.092.067.142.038l.36-.21a.104.104 0 0 0 .038-.142l-.21-.36A.104.104 0 0 0 27.854.8zm2.123-1.115a.104.104 0 0 1 .038-.142l.36-.21a.104.104 0 0 1 .142.038l.21.36a.104.104 0 0 1-.038.142l-.36.21a.104.104 0 0 1-.142-.038zm-4.685 5.618a.104.104 0 0 1 .038-.142l.36-.21a.104.104 0 0 1 .142.038l.21.36a.104.104 0 0 1-.038.143l-.36.209a.104.104 0 0 1-.142-.038zM23.89 6a.104.104 0 0 0-.039.142l.21.36c.029.05.093.066.142.038l.36-.21a.104.104 0 0 0 .038-.142l-.21-.36a.104.104 0 0 0-.142-.038zm2.123-1.115a.104.104 0 0 1 .037-.143l.36-.21a.104.104 0 0 1 .143.038l.21.36a.104.104 0 0 1-.039.143l-.36.21a.104.104 0 0 1-.142-.038z"/></g></g><defs><clipPath id="c"><path fill="#fff" d="m228.296 59.941 107.762-79.645L415.703 88.06l-107.762 79.644z"/></clipPath><clipPath id="d"><path fill="#fff" d="m245.005 36.124 21.871 9.881-9.881 21.871-21.871-9.881z"/></clipPath><clipPath id="f"><path fill="#fff" d="m283.289 6.422 11.705 2.645-2.645 11.705-11.705-2.645z"/></clipPath><clipPath id="h"><path fill="#fff" d="m200.972 23.005 10.373-6.033 6.033 10.373-10.372 6.033z"/></clipPath><clipPath id="j"><path fill="#fff" d="M19 1.034 29.373-5l6.033 10.373-10.372 6.033z"/></clipPath><filter id="e" width="32.753" height="32.753" x="234.624" y="35.624" color-interpolation-filters="sRGB" filterUnits="userSpaceOnUse"><feFlood flood-opacity="0" result="BackgroundImageFix"/><feBlend in="SourceGraphic" in2="BackgroundImageFix" result="shape"/><feGaussianBlur result="effect1_foregroundBlur_217_5151" stdDeviation=".25"/></filter><filter id="g" width="17.35" height="17.35" x="279.144" y="4.922" color-interpolation-filters="sRGB" filterUnits="userSpaceOnUse"><feFlood flood-opacity="0" result="BackgroundImageFix"/><feBlend in="SourceGraphic" in2="BackgroundImageFix" result="shape"/><feGaussianBlur result="effect1_foregroundBlur_217_5151" stdDeviation=".75"/></filter><filter id="i" width="18.407" height="18.406" x="199.972" y="15.972" color-interpolation-filters="sRGB" filterUnits="userSpaceOnUse"><feFlood flood-opacity="0" result="BackgroundImageFix"/><feBlend in="SourceGraphic" in2="BackgroundImageFix" result="shape"/><feGaussianBlur result="effect1_foregroundBlur_217_5151" stdDeviation=".5"/></filter><filter id="k" width="18.407" height="18.406" x="18" y="-6" color-interpolation-filters="sRGB" filterUnits="userSpaceOnUse"><feFlood flood-opacity="0" result="BackgroundImageFix"/><feBlend in="SourceGraphic" in2="BackgroundImageFix" result="shape"/><feGaussianBlur result="effect1_foregroundBlur_217_5151" stdDeviation=".5"/></filter><linearGradient id="b" x1="-132.394" x2="-97.41" y1="35.211" y2="166.752" gradientUnits="userSpaceOnUse"><stop offset=".146" stop-color="#264887"/><stop offset="1" stop-color="#315CAE"/></linearGradient></defs></svg>