<svg xmlns="http://www.w3.org/2000/svg" width="40" height="39" fill="none"><g clip-path="url(#a)"><mask id="c" fill="#fff"><path fill-rule="evenodd" d="M39.598 33.35 23.123 1.889a3.525 3.525 0 0 0-6.244 0L.402 33.35a3.525 3.525 0 0 0 3.124 5.16h32.948a3.525 3.525 0 0 0 3.124-5.16" clip-rule="evenodd"/></mask><g filter="url(#b)"><path fill="#fff" fill-rule="evenodd" d="M39.598 33.35 23.123 1.889a3.525 3.525 0 0 0-6.244 0L.402 33.35a3.525 3.525 0 0 0 3.124 5.16h32.948a3.525 3.525 0 0 0 3.124-5.16" clip-rule="evenodd"/></g><path fill="#264887" d="M23.123 1.889 24.895.96zM39.598 33.35l-1.772.928zM21.826.509l1.035-1.711zm-3.65 0 1.036 1.711zm-1.297 1.38L15.107.96zM.402 33.35l1.772.928zm-.4 1.744-2 .062zm.507 1.717 1.711-1.036zm1.285 1.246-.982 1.742zm1.732.454v-2zm32.948 0v-2zm3.017-1.7-1.711-1.036zm.507-1.717L38 35.033zM21.351 2.817l16.475 31.46 3.543-1.855L24.895.962zm-.56-.597c.237.144.431.35.56.597L24.896.961a5.5 5.5 0 0 0-2.034-2.163zM20 2c.278 0 .551.076.79.22l2.07-3.422A5.5 5.5 0 0 0 20-2zm-.79.22A1.53 1.53 0 0 1 20 2v-4a5.5 5.5 0 0 0-2.86.798zm-.56.597c.128-.246.322-.453.56-.597l-2.07-3.422A5.5 5.5 0 0 0 15.107.96zM2.173 34.277 18.65 2.818 15.107.96-1.37 32.422zM2 35.033a1.5 1.5 0 0 1 .173-.755l-3.543-1.856a5.5 5.5 0 0 0-.628 2.734zm.22.742a1.5 1.5 0 0 1-.22-.742l-3.998.123c.029.95.303 1.877.795 2.69zm.555.54a1.5 1.5 0 0 1-.556-.54l-3.422 2.071A5.5 5.5 0 0 0 .812 39.8zm.75.196c-.263 0-.521-.068-.75-.197L.812 39.8a5.5 5.5 0 0 0 2.714.712zm32.948 0H3.526v4h32.948zm.75-.197a1.5 1.5 0 0 1-.75.197v4a5.53 5.53 0 0 0 2.714-.712zm.556-.539c-.136.225-.328.41-.556.54l1.964 3.484a5.5 5.5 0 0 0 2.014-1.953zm.22-.742a1.5 1.5 0 0 1-.22.742l3.422 2.071c.492-.813.766-1.74.795-2.69zm-.174-.755c.122.233.181.492.173.755l3.998.123a5.5 5.5 0 0 0-.628-2.734z" mask="url(#c)"/><rect width="4" height="14" x="18" y="12" fill="#D32D27" rx="2"/><circle cx="20" cy="30" r="2" fill="#D32D27"/></g><defs><clipPath id="a"><path fill="#fff" d="M0 0h40v38.511H0z"/></clipPath><filter id="b" width="40" height="38.511" x="0" y="0" color-interpolation-filters="sRGB" filterUnits="userSpaceOnUse"><feFlood flood-opacity="0" result="BackgroundImageFix"/><feBlend in="SourceGraphic" in2="BackgroundImageFix" result="shape"/><feColorMatrix in="SourceAlpha" result="hardAlpha" values="0 0 0 0 0 0 0 0 0 0 0 0 0 0 0 0 0 0 127 0"/><feOffset dx="2" dy="-3"/><feComposite in2="hardAlpha" k2="-1" k3="1" operator="arithmetic"/><feColorMatrix values="0 0 0 0 0.709804 0 0 0 0 0.85098 0 0 0 0 0.945098 0 0 0 1 0"/><feBlend in2="shape" result="effect1_innerShadow"/></filter></defs></svg>