<svg xmlns="http://www.w3.org/2000/svg" width="16" height="16" fill="none"><path fill="#40526D" d="M2.5 11.495a2 2 0 0 0 2 2h5.333a2 2 0 0 0 2-2V8.139a.665.665 0 0 0-.412-.619.67.67 0 0 0-.73.146l-3.013 3.01a1.666 1.666 0 0 1-2.445-.098 1.737 1.737 0 0 1 .162-2.333L8.333 5.31a.667.667 0 0 0 0-.946L8.33 4.36a.67.67 0 0 0-.474-.196H4.5a2 2 0 0 0-2 2z"/><path fill="#40526D" d="M11.283 5.66a.166.166 0 0 1 .235 0l1.415 1.413a.334.334 0 0 0 .57-.236v-4a.333.333 0 0 0-.334-.333h-4a.333.333 0 0 0-.236.569l1.409 1.408a.165.165 0 0 1 .036.182.2.2 0 0 1-.036.054L6.029 9.021a.667.667 0 0 0 .942.944z"/></svg>