<svg xmlns="http://www.w3.org/2000/svg" width="90" height="88" fill="none"><path fill="#E4E5F6" d="M1 44a44 44 0 1 0 88 0 44 44 0 0 0-88 0"/><path stroke="#264887" stroke-linecap="round" stroke-linejoin="round" stroke-width="1.875" d="M17.454 71.678h54.083M10.5 71.523h3.863m60.264 0h3.863"/><path fill="#fff" stroke="#264887" stroke-linecap="round" stroke-linejoin="round" stroke-width="1.875" d="M65.725 34.42V22.3a1.854 1.854 0 0 0-1.854-1.854h-5.186a1.854 1.854 0 0 0-1.854 1.854v4.422z"/><path fill="#fff" d="M68.01 71.584H23.544V45.22l22.233-19.284L68.01 45.219z"/><path fill="#B5D9F1" d="M45.777 25.939 23.544 45.22v4.46l20.042-17.385a3.35 3.35 0 0 1 4.382 0L68.01 49.677v-4.458z"/><path stroke="#264887" stroke-linecap="round" stroke-linejoin="round" stroke-width="1.875" d="M68.01 71.584H23.544V45.22l22.233-19.284L68.01 45.219z"/><path fill="#D32D27" d="M21.383 46.016a3.335 3.335 0 0 1-2.163-5.872L43.616 19.02a3.32 3.32 0 0 1 4.327 0l24.39 21.12a3.336 3.336 0 1 1-4.327 5.08l-22.23-19.28-22.233 19.28a3.33 3.33 0 0 1-2.16.796"/><path fill="#E78C89" d="m19.224 43.845 24.391-21.12a3.32 3.32 0 0 1 4.327 0l24.39 21.12q.343.304.595.686a3.303 3.303 0 0 0-.595-4.391L47.936 19.02a3.32 3.32 0 0 0-4.327 0L19.224 40.14a3.3 3.3 0 0 0-.596 4.393q.25-.385.596-.688"/><path stroke="#264887" stroke-linecap="round" stroke-linejoin="round" stroke-width="1.875" d="M21.383 46.016a3.335 3.335 0 0 1-2.163-5.872L43.616 19.02a3.32 3.32 0 0 1 4.327 0l24.39 21.12a3.336 3.336 0 1 1-4.327 5.08l-22.23-19.28-22.233 19.28a3.33 3.33 0 0 1-2.16.796"/><path fill="#E78C89" stroke="#264887" stroke-linecap="round" stroke-linejoin="round" stroke-width="1.875" d="M59.056 20.447h4.446v-2.593A1.855 1.855 0 0 0 61.647 16h-.74a1.855 1.855 0 0 0-1.854 1.854z"/><path fill="#fff" stroke="#264887" stroke-linecap="round" stroke-linejoin="round" stroke-width="1.875" d="M45.716 71.584H27.929v-2.902a1.545 1.545 0 0 1 1.545-1.546H44.17a1.545 1.545 0 0 1 1.545 1.546z"/><path fill="#264887" stroke="#264887" stroke-linecap="round" stroke-linejoin="round" stroke-width="1.875" d="M43.492 67.137h-13.34V57.133a6.674 6.674 0 0 1 6.67-6.773 6.67 6.67 0 0 1 6.67 6.773z"/><path stroke="#fff" stroke-linecap="round" stroke-linejoin="round" stroke-width="2.406" d="M39.047 61.578v-2.223"/><path fill="#B5D9F1" d="M45.716 43.793a4.447 4.447 0 1 0 0-8.895 4.447 4.447 0 0 0 0 8.895"/><path fill="#fff" d="M48.86 36.202a4.447 4.447 0 0 0-6.29 6.288z"/><path stroke="#264887" stroke-linecap="round" stroke-linejoin="round" stroke-width="1.875" d="M45.716 43.793a4.447 4.447 0 1 0 0-8.895 4.447 4.447 0 0 0 0 8.895"/><path fill="#B5D9F1" d="M59.732 51.575H53.93c-.853 0-1.545.691-1.545 1.545v10.25c0 .853.692 1.545 1.545 1.545h5.802c.854 0 1.546-.692 1.546-1.546V53.12c0-.853-.692-1.544-1.546-1.544"/><path fill="#fff" d="M61.25 53.29a1.837 1.837 0 0 0-1.824-1.714H54.24a1.854 1.854 0 0 0-1.854 1.854v8.726z"/><path stroke="#264887" stroke-linecap="round" stroke-linejoin="round" stroke-width="1.875" d="M59.732 51.575H53.93c-.853 0-1.545.691-1.545 1.545v10.25c0 .853.692 1.545 1.545 1.545h5.802c.854 0 1.546-.692 1.546-1.546V53.12c0-.853-.692-1.544-1.546-1.544"/><path stroke="#E78C89" stroke-linecap="round" stroke-linejoin="round" stroke-width="1.5" d="M81 29.5h3.75v3.75H81z"/><path stroke="#E78C89" stroke-width="1.5" d="M6.375 22.75a1.875 1.875 0 1 0 0-3.75 1.875 1.875 0 0 0 0 3.75Z" clip-rule="evenodd"/><path stroke="#E78C89" stroke-linecap="round" stroke-linejoin="round" stroke-width="1.5" d="m15 29.152 2.651-2.651 2.652 2.651-2.652 2.652z"/><path stroke="#E78C89" stroke-linecap="round" stroke-width="1.5" d="m25.656 16.156 3.563 3.563m-.125-3.563L25.53 19.72"/></svg>