<svg xmlns="http://www.w3.org/2000/svg" width="125" height="125" fill="none"><g clip-path="url(#a)"><path fill="#EBF5FB" fill-rule="evenodd" d="M62.5 125c34.518 0 62.5-27.982 62.5-62.5S97.018 0 62.5 0 0 27.982 0 62.5 27.982 125 62.5 125" clip-rule="evenodd"/><path stroke="#C2E0F4" stroke-linecap="round" stroke-linejoin="round" stroke-width="2" d="M100.722 98.057h4.167v4.167h-4.167zM31.7 20.09l2.946-2.946 2.946 2.946-2.946 2.947zM13.863 42.863h4.167v4.167h-4.167z"/><path stroke="#C2E0F4" stroke-linecap="round" stroke-width="2" d="m89.09 46.73 3.96 3.96m-.14-3.96-3.96 3.96"/></g><path fill="#F0C936" d="m17.7 55.273-1.366 4.034a1.04 1.04 0 0 0 .157.957l2.546 3.414a1.04 1.04 0 0 1-.847 1.665l-4.251-.056a1.04 1.04 0 0 0-.863.441l-2.46 3.477a1.043 1.043 0 0 1-1.845-.293l-1.26-4.067a1.04 1.04 0 0 0-.685-.685L2.758 62.9a1.04 1.04 0 0 1-.29-1.844l3.476-2.46a1.05 1.05 0 0 0 .44-.864l-.054-4.251a1.043 1.043 0 0 1 1.664-.85l3.414 2.548a1.04 1.04 0 0 0 .958.158l4.032-1.367a1.04 1.04 0 0 1 1.302 1.303"/><path fill="#FAE8A7" d="m5.55 62.664 3.477-2.458a1.05 1.05 0 0 0 .441-.864l-.055-4.265a1.02 1.02 0 0 1 .587-.944l-2.033-1.517a1.043 1.043 0 0 0-1.664.849l.053 4.252a1.04 1.04 0 0 1-.439.864L2.44 61.04a1.04 1.04 0 0 0 .292 1.844l2.395.744a1.02 1.02 0 0 1 .423-.965"/><path stroke="#004590" stroke-linecap="round" stroke-linejoin="round" stroke-width="2" d="m17.7 55.273-1.366 4.034a1.04 1.04 0 0 0 .157.957l2.546 3.414a1.04 1.04 0 0 1-.847 1.664l-4.251-.055a1.04 1.04 0 0 0-.863.441l-2.46 3.477a1.043 1.043 0 0 1-1.845-.293l-1.26-4.067a1.04 1.04 0 0 0-.685-.685L2.758 62.9a1.04 1.04 0 0 1-.29-1.844l3.476-2.46a1.05 1.05 0 0 0 .44-.864l-.054-4.251a1.043 1.043 0 0 1 1.664-.85l3.414 2.548a1.04 1.04 0 0 0 .958.158l4.032-1.367a1.04 1.04 0 0 1 1.302 1.303"/><path fill="#F0C936" d="m43.448 19.852-1.369 4.035a1.04 1.04 0 0 0 .158.957l2.547 3.412a1.04 1.04 0 0 1-.847 1.665l-4.251-.054a1.04 1.04 0 0 0-.863.44l-2.46 3.478a1.042 1.042 0 0 1-1.845-.293l-1.26-4.067a1.04 1.04 0 0 0-.685-.685l-4.067-1.26a1.043 1.043 0 0 1-.292-1.846l3.477-2.458a1.04 1.04 0 0 0 .44-.864l-.054-4.252a1.041 1.041 0 0 1 1.664-.848l3.414 2.547a1.04 1.04 0 0 0 .958.158l4.032-1.369a1.044 1.044 0 0 1 1.303 1.304"/><path fill="#FAE8A7" d="m31.306 27.243 3.477-2.46a1.04 1.04 0 0 0 .44-.863l-.055-4.251a1.02 1.02 0 0 1 .588-.945l-2.033-1.516a1.04 1.04 0 0 0-1.665.848l.054 4.252a1.04 1.04 0 0 1-.44.864l-3.476 2.458a1.043 1.043 0 0 0 .291 1.846l2.395.745a1.02 1.02 0 0 1 .424-.978"/><path stroke="#004590" stroke-linecap="round" stroke-linejoin="round" stroke-width="2" d="m43.448 19.852-1.369 4.035a1.04 1.04 0 0 0 .158.957l2.547 3.412a1.04 1.04 0 0 1-.847 1.665l-4.251-.054a1.04 1.04 0 0 0-.863.44l-2.46 3.478a1.042 1.042 0 0 1-1.845-.293l-1.26-4.067a1.04 1.04 0 0 0-.685-.685l-4.067-1.26a1.043 1.043 0 0 1-.292-1.846l3.477-2.458a1.04 1.04 0 0 0 .44-.864l-.054-4.252a1.041 1.041 0 0 1 1.664-.848l3.414 2.547a1.04 1.04 0 0 0 .958.158l4.032-1.369a1.044 1.044 0 0 1 1.303 1.304"/><path fill="#F0C936" d="m96.858 19.856-1.369 4.042a1.04 1.04 0 0 0 .158.958l2.546 3.414a1.041 1.041 0 0 1-.847 1.664l-4.252-.055a1.04 1.04 0 0 0-.863.441l-2.46 3.477a1.043 1.043 0 0 1-1.845-.293l-1.26-4.067a1.04 1.04 0 0 0-.684-.685l-4.068-1.26a1.04 1.04 0 0 1-.291-1.844l3.477-2.46a1.05 1.05 0 0 0 .44-.864l-.055-4.252a1.043 1.043 0 0 1 1.665-.848l3.414 2.547a1.04 1.04 0 0 0 .957.158l4.016-1.384a1.04 1.04 0 0 1 1.32 1.311"/><path fill="#FAE8A7" d="m84.715 27.247 3.477-2.458a1.05 1.05 0 0 0 .44-.864l-.055-4.252a1.02 1.02 0 0 1 .588-.945l-2.033-1.516a1.043 1.043 0 0 0-1.665.849l.054 4.251a1.04 1.04 0 0 1-.44.865l-3.476 2.453a1.042 1.042 0 0 0 .291 1.844l2.395.745a1.02 1.02 0 0 1 .424-.972"/><path stroke="#004590" stroke-linecap="round" stroke-linejoin="round" stroke-width="2" d="m96.858 19.856-1.369 4.042a1.04 1.04 0 0 0 .158.958l2.546 3.414a1.041 1.041 0 0 1-.847 1.664l-4.252-.055a1.04 1.04 0 0 0-.863.441l-2.46 3.477a1.043 1.043 0 0 1-1.845-.293l-1.26-4.067a1.04 1.04 0 0 0-.684-.685l-4.068-1.26a1.04 1.04 0 0 1-.291-1.844l3.477-2.46a1.05 1.05 0 0 0 .44-.864l-.055-4.252a1.043 1.043 0 0 1 1.665-.848l3.414 2.547a1.04 1.04 0 0 0 .957.158l4.016-1.384a1.04 1.04 0 0 1 1.32 1.311"/><path fill="#F0C936" d="m120.816 55.267-1.369 4.034a1.04 1.04 0 0 0 .158.958l2.548 3.412a1.04 1.04 0 0 1-.297 1.515c-.166.1-.358.152-.552.15l-4.252-.054a1.04 1.04 0 0 0-.864.44L113.73 69.2a1.05 1.05 0 0 1-1.014.426 1.04 1.04 0 0 1-.832-.72l-1.278-4.067a1.05 1.05 0 0 0-.685-.684l-4.068-1.26a1.05 1.05 0 0 1-.72-.836 1.04 1.04 0 0 1 .434-1.014l3.478-2.459a1.04 1.04 0 0 0 .439-.864l-.053-4.252a1.043 1.043 0 0 1 1.129-1.052c.194.017.379.087.535.204l3.413 2.547a1.04 1.04 0 0 0 .957.158l4.034-1.368a1.044 1.044 0 0 1 1.317 1.308"/><path fill="#FAE8A7" d="m108.674 62.66 3.477-2.46a1.05 1.05 0 0 0 .439-.863l-.054-4.26a1.03 1.03 0 0 1 .586-.945l-2.033-1.515a1.042 1.042 0 0 0-1.663.848l.054 4.252a1.05 1.05 0 0 1-.439.864l-3.474 2.465a1.04 1.04 0 0 0-.429 1.014 1.04 1.04 0 0 0 .722.831l2.395.745a1.01 1.01 0 0 1 .419-.976"/><path stroke="#004590" stroke-linecap="round" stroke-linejoin="round" stroke-width="2" d="m120.816 55.267-1.369 4.034a1.04 1.04 0 0 0 .158.958l2.548 3.412a1.04 1.04 0 0 1-.297 1.515c-.166.1-.358.152-.552.15l-4.252-.054a1.04 1.04 0 0 0-.864.44L113.73 69.2a1.05 1.05 0 0 1-1.014.426 1.04 1.04 0 0 1-.832-.72l-1.278-4.067a1.05 1.05 0 0 0-.685-.684l-4.068-1.26a1.05 1.05 0 0 1-.72-.836 1.04 1.04 0 0 1 .434-1.014l3.478-2.459a1.04 1.04 0 0 0 .439-.864l-.053-4.252a1.043 1.043 0 0 1 1.129-1.052c.194.017.379.087.535.204l3.413 2.547a1.04 1.04 0 0 0 .957.158l4.034-1.368a1.044 1.044 0 0 1 1.317 1.308"/><path fill="#F0C936" d="M70.65 38.386a3.228 3.228 0 0 1 5.744 2.047l-.206 20.017a3.23 3.23 0 0 0 2.137 3.079l17.405 6.227a3.228 3.228 0 0 1-.02 6.085l-18.683 6.546a3.23 3.23 0 0 0-2.156 2.866L73.77 104.96a3.228 3.228 0 0 1-5.984 1.484l-10.077-16.76a3.225 3.225 0 0 0-3.849-1.376l-18.424 6.561a3.229 3.229 0 0 1-3.687-4.946L43.4 73.993a3.23 3.23 0 0 0 .158-3.585L33.259 53.503a3.229 3.229 0 0 1 3.846-4.724l17.405 6.226a3.225 3.225 0 0 0 3.602-1.017z"/><path fill="#FAE8A7" d="m76.334 46.356.061-5.917a3.227 3.227 0 0 0-5.744-2.047L58.113 53.997a3.225 3.225 0 0 1-3.603 1.017l-17.404-6.236a3.227 3.227 0 0 0-3.846 4.724l3.057 5.023a3.47 3.47 0 0 1 3.21-.686l17.405 6.228a3.23 3.23 0 0 0 3.605-1.018l12.537-15.606a3.46 3.46 0 0 1 3.26-1.087"/><path stroke="#004590" stroke-dasharray="30 7 1 5" stroke-linecap="round" stroke-linejoin="round" stroke-width="2" d="M70.65 38.386a3.228 3.228 0 0 1 5.744 2.047l-.206 20.017a3.23 3.23 0 0 0 2.137 3.079l17.405 6.227a3.228 3.228 0 0 1-.02 6.085l-18.683 6.546a3.23 3.23 0 0 0-2.156 2.866L73.77 104.96a3.228 3.228 0 0 1-5.984 1.484l-10.077-16.76a3.225 3.225 0 0 0-3.849-1.376l-18.424 6.561a3.229 3.229 0 0 1-3.687-4.946L43.4 73.993a3.23 3.23 0 0 0 .158-3.585L33.259 53.503a3.229 3.229 0 0 1 3.846-4.724l17.405 6.226a3.225 3.225 0 0 0 3.602-1.017z"/><defs><clipPath id="a"><path fill="#fff" d="M0 0h125v125H0z"/></clipPath></defs></svg>