<svg xmlns="http://www.w3.org/2000/svg" width="48" height="48" fill="none"><circle cx="24" cy="24" r="24" fill="#E4E5F6"/><path fill="#474A86" stroke="#474A86" stroke-linecap="round" stroke-linejoin="round" stroke-width="1.913" d="M31.774 28.019v2.194c0 .59-.536 1.071-1.192 1.071h-16.39c-.656 0-1.192-.482-1.192-1.07v-2.195z"/><path fill="#474A86" stroke="#474A86" stroke-linecap="round" stroke-linejoin="round" stroke-width="1.418" d="M25.473 33.963H19.53l.294-2.354h5.354z"/><path stroke="#474A86" stroke-linecap="round" stroke-linejoin="round" stroke-width="1.913" d="M17.898 35.03h9.59"/><path fill="#474A86" fill-rule="evenodd" d="M24.938 16.25a2 2 0 0 0-.438 1.25v.75H14.236c-.121 0-.186.095-.186.16v8.453h12.064q.188.037.386.037h6q.117 0 .23-.013v.976a1 1 0 0 1-1 1H13.05a1 1 0 0 1-1-1V18.41c0-1.211 1.002-2.16 2.186-2.16z" clip-rule="evenodd"/><path fill="#D32D27" d="M34.611 16.78v-1.258c0-.934-.368-1.83-1.025-2.49A3.5 3.5 0 0 0 31.111 12c-.928 0-1.818.371-2.474 1.032a3.53 3.53 0 0 0-1.026 2.49v1.258c-.398 0-.779.16-1.06.443s-.44.667-.44 1.067v5.535c0 .4.158.785.44 1.068.281.283.663.442 1.06.442h7c.398 0 .78-.159 1.061-.442s.44-.667.44-1.068V18.29c0-.4-.159-.784-.44-1.067a1.5 1.5 0 0 0-1.06-.442m-5-1.258c0-.4.158-.784.44-1.067a1.495 1.495 0 0 1 2.121 0c.281.283.44.667.44 1.068v1.258h-3zm2.5 6.039a1.01 1.01 0 0 1-.617.93.99.99 0 0 1-1.09-.218 1.01 1.01 0 0 1 .707-1.718 1 1 0 0 1 1 1.006"/></svg>