<svg xmlns="http://www.w3.org/2000/svg" width="48" height="48" fill="none"><circle cx="24" cy="24" r="24" fill="#E4E5F6"/><g clip-path="url(#a)"><path fill="#474A86" d="m35.407 27.685-.867-.36a10.08 10.08 0 0 1 0-6.652l.867-.36a.959.959 0 1 0-.735-1.773l-.866.359a10.08 10.08 0 0 1-4.705-4.7l.359-.867a.961.961 0 0 0-1.774-.74l-.359.868a10.08 10.08 0 0 1-6.653 0l-.36-.867a.961.961 0 0 0-1.788-.012.96.96 0 0 0 .015.747l.359.867a10.08 10.08 0 0 1-4.7 4.7l-.872-.355a.961.961 0 0 0-.735 1.774l.868.359a10.1 10.1 0 0 1 0 6.653l-.868.359a.96.96 0 1 0 .735 1.774l.867-.36a10.1 10.1 0 0 1 4.705 4.7l-.359.868a.96.96 0 0 0 .519 1.255q.175.075.367.078a.96.96 0 0 0 .887-.593l.359-.867c2.154-.753 4.5-.753 6.654 0l.359.867a.96.96 0 1 0 1.774-.735l-.359-.867a10.08 10.08 0 0 1 4.705-4.7l.866.359a.96.96 0 1 0 .735-1.774zm-2.574-1.066-1.653-.685a6.5 6.5 0 0 1 0-3.87l1.653-.684a11.5 11.5 0 0 0 0 5.239m-5.8-7.43a7.9 7.9 0 0 0 1.779 1.779l-3.037 1.258zM24 21.49l-1.258-3.037a7.9 7.9 0 0 0 2.516 0zm-1.774.735-3.037-1.258a7.9 7.9 0 0 0 1.779-1.78zM21.491 24l-3.037 1.257a7.9 7.9 0 0 0 0-2.516zm.736 1.773-1.259 3.038a7.9 7.9 0 0 0-1.78-1.78zm1.773.736 1.258 3.037a7.7 7.7 0 0 0-2.516 0zm1.774-.736 3.038 1.259a7.9 7.9 0 0 0-1.78 1.779zM26.509 24l3.038-1.26a7.9 7.9 0 0 0 0 2.518zm5.591-4.394-1.654.685a6.5 6.5 0 0 1-2.736-2.736l.684-1.655a11.5 11.5 0 0 0 3.706 3.706m-5.48-4.44-.685 1.654a6.47 6.47 0 0 1-3.87 0l-.684-1.653a11.5 11.5 0 0 0 5.239 0m-7.013.734.685 1.653a6.5 6.5 0 0 1-2.736 2.738l-1.656-.685a11.5 11.5 0 0 0 3.707-3.706m-4.44 5.48 1.654.685a6.5 6.5 0 0 1 0 3.869l-1.654.685a11.5 11.5 0 0 0 0-5.24m.733 7.013 1.653-.685a6.5 6.5 0 0 1 2.737 2.737l-.683 1.655a11.5 11.5 0 0 0-3.707-3.707m5.478 4.44.685-1.653a6.47 6.47 0 0 1 3.87 0l.685 1.653a11.5 11.5 0 0 0-5.238 0zm7.014-.735-.685-1.653a6.5 6.5 0 0 1 2.737-2.736l1.652.684a11.5 11.5 0 0 0-3.702 3.707z"/><circle cx="21" cy="31" r="2" fill="#D32D27"/></g><defs><clipPath id="a"><path fill="#fff" d="M12 12h24v24H12z"/></clipPath></defs></svg>