<svg xmlns="http://www.w3.org/2000/svg" width="48" height="48" fill="none"><circle cx="24" cy="24" r="24" fill="#E4E5F6"/><path fill="#D32D27" d="M30.857 25.959a4.87 4.87 0 0 0-3.51 1.498l-5.375-2.69q.07-.38.077-.766a5 5 0 0 0-.077-.767l5.376-2.69a4.883 4.883 0 0 0 8.023-5.251 4.886 4.886 0 0 0-5.467-2.95 4.884 4.884 0 0 0-3.94 4.804q.008.387.077.768l-5.375 2.687A4.892 4.892 0 0 0 12.25 24a4.9 4.9 0 0 0 3.062 4.54 4.89 4.89 0 0 0 5.354-1.142l5.375 2.689q-.07.38-.077.768a4.9 4.9 0 0 0 3.02 4.522 4.89 4.89 0 0 0 6.672-3.567 4.897 4.897 0 0 0-4.8-5.851"/><path fill="#fff" stroke="#474A86" stroke-width="2" d="M21.435 24A4.217 4.217 0 1 1 13 24a4.217 4.217 0 0 1 8.435 0ZM35 17.217a4.217 4.217 0 1 1-8.435 0 4.217 4.217 0 0 1 8.435 0Z"/><circle cx="30.783" cy="30.783" r="4.217" fill="#fff" stroke="#474A86" stroke-width="2"/><path stroke="#474A86" stroke-width="2" d="M21.435 24A4.217 4.217 0 1 1 13 24a4.217 4.217 0 0 1 8.435 0ZM35 17.217a4.217 4.217 0 1 1-8.435 0 4.217 4.217 0 0 1 8.435 0Z"/><circle cx="30.783" cy="30.783" r="4.217" stroke="#474A86" stroke-width="2"/></svg>