<svg xmlns="http://www.w3.org/2000/svg" width="48" height="48" fill="none"><circle cx="24" cy="24" r="24" fill="#E4E5F6"/><path fill="#474A86" d="M25 27.01v3.49a1 1 0 0 1-1 1h-7a1 1 0 0 1-1-1v-11a1 1 0 0 1 1-1h5.26a.25.25 0 0 0 .246-.24 3.23 3.23 0 0 1 .639-1.86.246.246 0 0 0-.2-.4H16.5a2.5 2.5 0 0 0-2.5 2.5v15a2.5 2.5 0 0 0 2.5 2.5h8a2.5 2.5 0 0 0 2.5-2.5V27a.25.25 0 0 0-.249-.25c-.383 0-1.113.013-1.5.007a.25.25 0 0 0-.234.156.3.3 0 0 0-.017.097"/><path fill="#D32D27" d="M32.5 16.75V15.5a3.5 3.5 0 1 0-7 0v1.25a1.5 1.5 0 0 0-1.5 1.5v5.5a1.5 1.5 0 0 0 1.5 1.5h7a1.5 1.5 0 0 0 1.5-1.5v-5.5a1.5 1.5 0 0 0-1.5-1.5m-5-1.25a1.5 1.5 0 1 1 3 0v1.25h-3zm2.5 6a1 1 0 1 1-2 0 1 1 0 0 1 2 0"/></svg>