<svg xmlns="http://www.w3.org/2000/svg" width="20" height="20" fill="none"><path fill="#40526D" d="M18.75 7.917h-1.552a7.5 7.5 0 0 0-.636-1.534l1.098-1.096a1.25 1.25 0 0 0 0-1.769l-1.18-1.177a1.25 1.25 0 0 0-1.767 0l-1.098 1.097a7.4 7.4 0 0 0-1.532-.635V1.25A1.25 1.25 0 0 0 10.833 0H9.167a1.25 1.25 0 0 0-1.25 1.25v1.553a7.5 7.5 0 0 0-1.533.635L5.286 2.341a1.25 1.25 0 0 0-1.768 0L2.34 3.519a1.25 1.25 0 0 0 0 1.768l1.099 1.098a7.4 7.4 0 0 0-.636 1.532H1.25A1.25 1.25 0 0 0 0 9.167v1.666a1.25 1.25 0 0 0 1.25 1.25h1.552a7.4 7.4 0 0 0 .636 1.533l-1.1 1.099a1.25 1.25 0 0 0 0 1.768l1.179 1.178a1.287 1.287 0 0 0 1.768 0l1.098-1.098q.731.404 1.534.637v1.55A1.25 1.25 0 0 0 9.167 20h1.666a1.25 1.25 0 0 0 1.25-1.25V17.2a7.5 7.5 0 0 0 1.533-.636l1.098 1.098a1.25 1.25 0 0 0 1.768 0l1.178-1.179a1.25 1.25 0 0 0 0-1.767l-1.098-1.098c.27-.485.482-1 .636-1.533h1.552A1.25 1.25 0 0 0 20 10.833V9.167a1.25 1.25 0 0 0-1.25-1.25M10 14.167a4.167 4.167 0 1 1 0-8.334 4.167 4.167 0 0 1 0 8.334"/></svg>