<svg xmlns="http://www.w3.org/2000/svg" width="40" height="40" fill="none"><rect width="39" height="39" x=".5" y=".5" fill="#fff" rx="7.5"/><rect width="39" height="39" x=".5" y=".5" stroke="#D5DBE2" rx="7.5"/><path fill="#4285F4" d="M32.32 20.292c0-.91-.082-1.785-.233-2.625H20v4.964h6.907a5.9 5.9 0 0 1-2.561 3.873v3.22h4.147c2.427-2.234 3.827-5.524 3.827-9.432"/><path fill="#34A853" d="M20 32.833c3.465 0 6.37-1.149 8.493-3.109l-4.147-3.22c-1.15.77-2.62 1.225-4.346 1.225-3.342 0-6.172-2.257-7.18-5.29H8.531v3.324A12.83 12.83 0 0 0 20 32.833"/><path fill="#FBBC05" d="M12.82 22.438A7.7 7.7 0 0 1 12.416 20c0-.846.146-1.668.402-2.438v-3.325H8.532A12.8 12.8 0 0 0 7.167 20c0 2.07.496 4.03 1.365 5.763z"/><path fill="#EA4335" d="M20 12.27c1.884 0 3.576.648 4.906 1.92l3.68-3.68C26.365 8.437 23.46 7.166 20 7.166a12.83 12.83 0 0 0-11.468 7.07l4.287 3.325c1.01-3.034 3.839-5.291 7.181-5.291"/></svg>