<svg xmlns="http://www.w3.org/2000/svg" width="24" height="24" fill="none"><g fill="#40526D" clip-path="url(#a)"><path d="M16.43 12.13a.51.51 0 0 0-.46.3L14.82 15a1.53 1.53 0 0 1-1.36.89 1.51 1.51 0 0 1-1.36-.87L10 10.57a.24.24 0 0 0-.21-.14.22.22 0 0 0-.22.11l-.62.92a1.5 1.5 0 0 1-1.25.67H2.43a.25.25 0 0 0-.23.16.24.24 0 0 0 .06.27l9 9.26a1 1 0 0 0 1.5 0l9-9.26a.26.26 0 0 0-.18-.43z"/><path d="M23.36 5.17a6.09 6.09 0 0 0-9.69-1.56l-1.33 1.22a.52.52 0 0 1-.68 0l-1.33-1.22A6.09 6.09 0 0 0 .64 5.17a5.85 5.85 0 0 0-.3 4.63.5.5 0 0 0 .47.33h6.34a.5.5 0 0 0 .42-.22l1.06-1.59a1.5 1.5 0 0 1 2.61.2l2 4.2a.25.25 0 0 0 .46 0l.75-1.7a1.5 1.5 0 0 1 1.37-.89h7.41a.5.5 0 0 0 .47-.33 5.85 5.85 0 0 0-.34-4.63"/></g><defs><clipPath id="a"><path fill="#fff" d="M0 0h24v24H0z"/></clipPath></defs></svg>