<svg xmlns="http://www.w3.org/2000/svg" width="16" height="17" fill="none"><g fill="#007AFF" clip-path="url(#a)"><path d="m1.762 7.224 6.033-4.989a.32.32 0 0 1 .41 0l6.033 4.989a.966.966 0 0 0 1.377-.148 1.015 1.015 0 0 0-.145-1.408L9.437.68a2.26 2.26 0 0 0-2.874 0L.533 5.668a1.015 1.015 0 0 0-.145 1.408.967.967 0 0 0 1.374.148"/><path d="M14.854 14.83v-4.666a1.48 1.48 0 0 0-.489-1.06L8.832 4.437a1.29 1.29 0 0 0-1.663 0l-5.533 4.67a1.48 1.48 0 0 0-.49 1.057v4.666a1.32 1.32 0 0 0 1.305 1.334h3.591a.66.66 0 0 0 .653-.667V11.83a.66.66 0 0 1 .652-.666h1.306a.66.66 0 0 1 .652.666v3.667a.66.66 0 0 0 .653.667h3.59a1.32 1.32 0 0 0 1.306-1.334"/></g><defs><clipPath id="a"><path fill="#fff" d="M0 .164h16v16H0z"/></clipPath></defs></svg>