<svg xmlns="http://www.w3.org/2000/svg" width="121" height="120" fill="none"><path fill="#EFF9FF" fill-rule="evenodd" d="M60 120c33.137 0 60-26.863 60-60S93.137 0 60 0 0 26.863 0 60s26.863 60 60 60" clip-rule="evenodd"/><path fill="#CBE1F4" fill-rule="evenodd" stroke="#3C4862" stroke-width="2" d="M40.76 35.329c-8.326-3.853-32.809 28.8 11.528 34.03 21.775 2.568 30.101 0 35.225-5.137 13.462-13.496 17.932-10.73 19.213-15.41 1.531-5.592-17.292-3.852-32.663 8.347s-30.1 4.864-33.303-3.667c-3.202-8.532 4.375-16.139 0-18.163Z" clip-rule="evenodd"/><g filter="url(#a)"><path fill="#fff" fill-rule="evenodd" d="M119.521 71.331c1.437 2.88-18.176 15.089-35.852 14.768-10.392-.189-21.079-2.177-26.271-17.336-5.591-16.322 6.666-38.106 9.607-34.673 7.698 8.99.778 21.471 0 26.968-1.91 13.483 16.01 13.484 31.382 13.484 15.37 0 18.573-8.348 21.134-3.21" clip-rule="evenodd"/></g><path stroke="#3C4862" stroke-width="2" d="M119.521 71.331c1.437 2.88-18.176 15.089-35.852 14.768-10.392-.189-21.079-2.177-26.271-17.336-5.591-16.322 6.666-38.106 9.607-34.673 7.698 8.99.778 21.471 0 26.968-1.91 13.483 16.01 13.484 31.382 13.484 15.37 0 18.573-8.348 21.134-3.21Z" clip-rule="evenodd"/><g filter="url(#b)"><path fill="#fff" fill-rule="evenodd" d="M67.54 35.405s3.842 0 3.842-3.852-5.123-6.42-8.966-3.852 0 5.778 0 5.778-8.11 6.294-16.011 24.4c-4.483 10.272-14.09-3.853-28.18-1.927S3.495 78.425 9.899 82.919c6.405 4.495 19.214 7.705 24.337 1.284 2.707-3.391-21.135-3.21-14.73-13.483 6.404-10.273 26.899 8.347 37.786-1.284 14.09-19.905 10.248-34.03 10.248-34.03" clip-rule="evenodd"/></g><path stroke="#3C4862" stroke-width="2" d="M67.54 35.405s3.842 0 3.842-3.852-5.123-6.42-8.966-3.852 0 5.778 0 5.778-8.11 6.294-16.011 24.4c-4.483 10.272-14.09-3.853-28.18-1.927S3.495 78.425 9.899 82.919c6.405 4.495 19.214 7.705 24.337 1.284 2.707-3.391-21.135-3.21-14.73-13.483 6.404-10.273 26.899 8.347 37.786-1.284 14.09-19.905 10.248-34.03 10.248-34.03Z" clip-rule="evenodd"/><path stroke="#B1C5DA" stroke-linecap="round" stroke-width="2" d="M64.444 35.656s-10.247 25.04-15.37 28.893c-7.047 5.298-15.372-7.705-29.461-3.852-5.494 1.502-8.618 7.735-7.686 13.483.662 4.08 16.652 10.274 16.652 10.274"/><path stroke="#B1D9F2" stroke-width="1.6" d="M46 22.667a2 2 0 1 0 0-4 2 2 0 0 0 0 4Z" clip-rule="evenodd"/><path stroke="#B1D9F2" stroke-linecap="round" stroke-width="1.6" d="m2.139 48.806 3.167 3.167m-.111-3.167-3.167 3.167"/><path fill="#D75E59" fill-rule="evenodd" d="m106.255 30.682-1.865-.643 3.198-11.1 2.97 1.022zm-3.729 2.54q.273-.794.833-1.062.561-.27 1.332-.003.761.262 1.022.831.26.57-.003 1.33-.261.761-.828 1.063-.566.303-1.316.044-.761-.261-1.037-.836t-.003-1.368m-83.434.902-1.033.482-3.125-5.895 1.645-.767zm-.53 2.55q-.205-.438-.08-.774.125-.337.552-.536.422-.196.758-.064t.533.553q.195.42.082.774-.114.353-.529.546-.422.197-.767.069t-.55-.567m64.326-11.841-.997-.552 2.933-5.993 1.586.88zm-2.376 1.07q.235-.423.58-.52.346-.096.759.132.406.225.497.575t-.134.757q-.225.405-.578.521t-.753-.107q-.407-.225-.506-.58-.099-.354.135-.777" clip-rule="evenodd"/><path stroke="#B1D9F2" stroke-linecap="round" stroke-linejoin="round" stroke-width="1.6" d="M68.408 8.735 71.145 6l2.738 2.735-2.738 2.736z" clip-rule="evenodd"/><defs><filter id="a" width="65.641" height="54.376" x="54.955" y="32.73" color-interpolation-filters="sRGB" filterUnits="userSpaceOnUse"><feFlood flood-opacity="0" result="BackgroundImageFix"/><feBlend in="SourceGraphic" in2="BackgroundImageFix" result="shape"/><feColorMatrix in="SourceAlpha" result="hardAlpha" values="0 0 0 0 0 0 0 0 0 0 0 0 0 0 0 0 0 0 127 0"/><feOffset dy="-8"/><feComposite in2="hardAlpha" k2="-1" k3="1" operator="arithmetic"/><feColorMatrix values="0 0 0 0 0.796078 0 0 0 0 0.882353 0 0 0 0 0.956863 0 0 0 1 0"/><feBlend in2="shape" result="effect1_innerShadow_1604_42"/></filter><filter id="b" width="67.383" height="63.152" x="5" y="25.667" color-interpolation-filters="sRGB" filterUnits="userSpaceOnUse"><feFlood flood-opacity="0" result="BackgroundImageFix"/><feBlend in="SourceGraphic" in2="BackgroundImageFix" result="shape"/><feColorMatrix in="SourceAlpha" result="hardAlpha" values="0 0 0 0 0 0 0 0 0 0 0 0 0 0 0 0 0 0 127 0"/><feOffset dy="-7"/><feComposite in2="hardAlpha" k2="-1" k3="1" operator="arithmetic"/><feColorMatrix values="0 0 0 0 0.796078 0 0 0 0 0.882353 0 0 0 0 0.956863 0 0 0 1 0"/><feBlend in2="shape" result="effect1_innerShadow_1604_42"/></filter></defs></svg>