<svg xmlns="http://www.w3.org/2000/svg" width="14" height="14" fill="none"><g fill="#748193" clip-path="url(#a)"><path d="m10.955 8.571-.431-.155c-.04-.014-.097-.083-.141-.233a1.96 1.96 0 0 1 .047-1.138c.553-.61 1.094-1.36 1.094-3.229A2.708 2.708 0 0 0 8.75.875q-.345 0-.68.082a.146.146 0 0 0-.077.238c.61.736.932 1.669.906 2.625 0 1.914-.54 2.9-1.161 3.634a.14.14 0 0 0-.034.08q-.002.043-.007.088a.15.15 0 0 0 .097.143c1.405.5 3.581 1.284 3.581 4.195v.873a1 1 0 0 1-.008.127.14.14 0 0 0 .035.115.15.15 0 0 0 .11.05h2.197a.29.29 0 0 0 .291-.292v-.875c0-2.303-1.617-2.878-3.045-3.387"/><path d="M10.5 11.958c0-2.303-1.617-2.878-3.045-3.387l-.431-.155c-.04-.014-.097-.083-.141-.233a1.96 1.96 0 0 1 .047-1.138c.553-.61 1.094-1.36 1.094-3.229A2.707 2.707 0 0 0 5.25.875a2.707 2.707 0 0 0-2.773 2.943c0 1.867.54 2.62 1.091 3.225.13.367.147.765.049 1.142-.044.148-.102.217-.141.233l-.445.16C1.611 9.08-.002 9.65-.002 11.96v.872a.29.29 0 0 0 .292.292h9.916a.29.29 0 0 0 .294-.292z"/></g><defs><clipPath id="a"><path fill="#fff" d="M0 0h14v14H0z"/></clipPath></defs></svg>