<svg xmlns="http://www.w3.org/2000/svg" width="101" height="100" fill="none"><path fill="#ECF5FB" d="M50.5 100c27.614 0 50-22.386 50-50S78.114 0 50.5 0 .5 22.386.5 50s22.386 50 50 50"/><g opacity=".9"><g stroke="#264887" opacity=".9"><path fill="#fff" d="M84.328 50.323c0 18.506-15.005 33.505-33.506 33.505-18.51 0-33.505-14.999-33.505-33.505 0-18.507 14.996-33.506 33.506-33.506 18.5 0 33.505 14.999 33.505 33.506Z" opacity=".9"/><path fill="#fff" d="M84.328 50.323c0 18.506-15.005 33.505-33.506 33.505-18.51 0-33.505-14.999-33.505-33.505 0-18.507 14.996-33.506 33.506-33.506 18.5 0 33.505 14.999 33.505 33.506Z" opacity=".9"/><path stroke-dasharray="190 7 1 5" stroke-linecap="round" stroke-width="2" d="M84.828 50.323c0 18.782-15.229 34.005-34.006 34.005-18.785 0-34.005-15.223-34.005-34.005s15.22-34.006 34.006-34.006c18.776 0 34.005 15.223 34.005 34.006Z" opacity=".9"/></g><path fill="#00A878" d="M64.507 38.794a1.613 1.613 0 1 1 2.201 2.358l-22.177 20.7a1.613 1.613 0 0 1-2.241-.04l-7.393-7.392a1.613 1.613 0 1 1 2.281-2.28l6.29 6.29z" opacity=".9"/></g><path stroke="#B5D9F1" stroke-dasharray="1.11 6.67 182.22 5.56" stroke-linecap="round" stroke-width="2.222" d="M15.984 16.774a2.58 2.58 0 1 0 0-5.161 2.58 2.58 0 0 0 0 5.161Z"/><path stroke="#B5D9F1" stroke-dasharray="1.11 6.67 182.22 5.56" stroke-linecap="round" stroke-width="2.222" d="m90.823 47.064 3.193-3.193 3.193 3.193-3.193 3.194z" clip-rule="evenodd"/><path stroke="#B5D9F1" stroke-dasharray="1.11 6.67 182.22 5.56" stroke-linecap="round" stroke-width="2.222" d="m76.145 15.645 3.678 3.678m-.129-3.678-3.678 3.678"/></svg>