<svg xmlns="http://www.w3.org/2000/svg" width="36" height="36" fill="none"><rect width="36" height="36" fill="#EBEEEF" rx="3"/><path fill="#EBEEEF" d="M6 6h24v24H6z"/><g fill="#40526D" clip-path="url(#a)"><path d="M13.375 29.375a.25.25 0 0 0-.25-.25H11.5a.62.62 0 0 1-.587-.411L9.1 23.722a.25.25 0 0 0-.357-.133q-.665.371-1.274.829A2.46 2.46 0 0 0 6.5 26.4v3.1a.5.5 0 0 0 .5.5h6.125a.25.25 0 0 0 .25-.25z"/><path d="M11.878 27.711a.25.25 0 0 0 .235.164H14a.625.625 0 0 1 .625.625v.858a.25.25 0 0 0 .432.172l2.007-2.13a.25.25 0 0 0 0-.343l-4.536-4.8a.25.25 0 0 0-.246-.07q-.982.258-1.925.634a.25.25 0 0 0-.142.317zm13.209 1.003a.62.62 0 0 1-.587.411h-1.625a.25.25 0 0 0-.25.25v.375a.25.25 0 0 0 .25.25H29a.5.5 0 0 0 .5-.5v-3.1a2.46 2.46 0 0 0-.967-1.977 11 11 0 0 0-1.273-.829.25.25 0 0 0-.3.042.3.3 0 0 0-.057.091z"/><path d="M16.848 29.454a.25.25 0 0 0 .182.421h4.1a.25.25 0 0 0 .25-.25V28.5a.625.625 0 0 1 .62-.625h1.887a.25.25 0 0 0 .235-.164l1.663-4.572a.25.25 0 0 0-.142-.317q-.876-.348-1.787-.595a.25.25 0 0 0-.248.07zm-.088-4.395a.25.25 0 0 0 .046.273l.926.98a.25.25 0 0 0 .364 0l1.042-1.1a.25.25 0 0 0 .047-.273l-.728-1.639a.522.522 0 0 0-.915 0z"/><path d="M10.814 15.707a.25.25 0 0 0-.265.142.3.3 0 0 0-.023.105v1.085a2.13 2.13 0 0 0 1.2 1.914.25.25 0 0 1 .139.2.9.9 0 0 0 .114.372 6.97 6.97 0 0 0 10.571 1.793 7 7 0 0 0 1.514-1.777.9.9 0 0 0 .115-.369.25.25 0 0 1 .14-.2 2.14 2.14 0 0 0 1.206-1.921v-1.088a.25.25 0 0 0-.18-.24.3.3 0 0 0-.107-.007 47 47 0 0 1-7.211.562 46.5 46.5 0 0 1-7.213-.571M21.565 19a.25.25 0 0 1 .111.411 5 5 0 0 1-1 .812 4.92 4.92 0 0 1-5.372-.041 5.2 5.2 0 0 1-.937-.775.25.25 0 0 1-.059-.238.25.25 0 0 1 .175-.169 13.6 13.6 0 0 0 3.4-1.895.25.25 0 0 1 .277 0c1.04.79 2.186 1.428 3.405 1.895m-3.54-8.249a30.4 30.4 0 0 0 5.5-.516.25.25 0 0 0 .202-.215.3.3 0 0 0-.009-.104l-.889-2.887v-.006a1.5 1.5 0 0 0-1.9-.944c-.931.35-1.908.563-2.9.633a10.4 10.4 0 0 1-2.9-.633 1.5 1.5 0 0 0-1.147.08c-.357.18-.628.495-.755.875v.006l-.891 2.876a.248.248 0 0 0 .193.319 30.5 30.5 0 0 0 5.496.516m-9.217 3.297a.68.68 0 0 0 .525.422 45 45 0 0 0 8.692.82 45 45 0 0 0 8.692-.82.67.67 0 0 0 .51-.39.85.85 0 0 0-.095-.759l-.032-.049a.2.2 0 0 1-.029-.076c-.082-.4-1.534-1.4-1.979-1.7a.25.25 0 0 0-.227-.027c-2.242.531-4.54.794-6.844.784-2.35-.008-4.69-.27-6.984-.78a.25.25 0 0 0-.188.033 6.1 6.1 0 0 0-1.929 1.812.83.83 0 0 0-.112.73"/></g><defs><clipPath id="a"><path fill="#fff" d="M6 6h24v24H6z"/></clipPath></defs></svg>