<svg xmlns="http://www.w3.org/2000/svg" width="16" height="16" fill="none"><g clip-path="url(#a)"><path fill="#40526D" d="M13.657 2.356a8.002 8.002 0 0 0-11.314 11.32 8.09 8.09 0 0 0 11.123.185 7.96 7.96 0 0 0 2.447-4.67q.085-.584.087-1.175a7.95 7.95 0 0 0-2.343-5.66M3.528 3.528a6.415 6.415 0 0 1 8.153-.682.176.176 0 0 1 .021.267l-8.59 8.594a.18.18 0 0 1-.21.03.2.2 0 0 1-.057-.05 6.33 6.33 0 0 1 .683-8.159m8.971 8.976a6.346 6.346 0 0 1-8.154.682.175.175 0 0 1-.021-.267l8.591-8.595a.177.177 0 0 1 .267.02 6.33 6.33 0 0 1-.682 8.16"/></g><defs><clipPath id="a"><path fill="#fff" d="M0 0h16v16H0z"/></clipPath></defs></svg>