<svg xmlns="http://www.w3.org/2000/svg" width="36" height="36" fill="none"><rect width="36" height="36" fill="#EDF2FB" rx="3"/><path fill="#EDF2FB" d="M6 6h24v24H6z"/><path fill="#264887" d="M10.123 14.3a.25.25 0 0 1 .157.426L7.008 18a.97.97 0 0 0 0 1.374l1.783 1.784a.5.5 0 0 0 .189.118q.107.038.22.025a.5.5 0 0 0 .368-.231q.228-.362.531-.665a3.889 3.889 0 1 1 4.835 6.031.5.5 0 0 0-.088.777l1.784 1.784a.97.97 0 0 0 1.374 0l3.273-3.273a.25.25 0 0 1 .426.157 3.87 3.87 0 0 0 5.891 3 3.892 3.892 0 0 0 .715-6.066 3.82 3.82 0 0 0-2.428-1.11.25.25 0 0 1-.157-.426L28.992 18a.97.97 0 0 0 0-1.374l-1.783-1.784a.5.5 0 0 0-.777.088q-.228.366-.532.67a3.889 3.889 0 1 1-4.835-6.031.5.5 0 0 0 .088-.777l-1.779-1.785a.97.97 0 0 0-1.374 0l-3.273 3.273a.25.25 0 0 1-.427-.157 3.87 3.87 0 0 0-5.891-3 3.892 3.892 0 0 0-.709 6.068 3.82 3.82 0 0 0 2.423 1.109"/></svg>