<svg xmlns="http://www.w3.org/2000/svg" width="36" height="36" fill="none"><rect width="36" height="36" fill="#FBEBEB" rx="3"/><g clip-path="url(#a)"><path fill="#FBEBEB" d="M6 6h24v24H6z"/><path fill="#D32D27" d="M17.321 22.9a.25.25 0 0 0-.321.24v4.11a2.75 2.75 0 1 0 5.5 0 1 1 0 0 0-2 0 .75.75 0 1 1-1.5 0v-4.11a.25.25 0 0 0-.321-.239 2.4 2.4 0 0 1-1.358 0zM18 6a1 1 0 0 0-1 1v.323a.25.25 0 0 1-.225.248A12.166 12.166 0 0 0 6 20v.5a1 1 0 1 0 2 0c0-.533.7-1 1.5-1s1.5.467 1.5 1a1 1 0 0 0 2 0c0-.408.779-1 2-1s2 .592 2 1a1 1 0 0 0 2 0c0-.408.779-1 2-1s2 .592 2 1a1 1 0 0 0 2 0c0-.533.7-1 1.5-1s1.5.467 1.5 1a1 1 0 0 0 2 0V20A12.166 12.166 0 0 0 19.225 7.571.25.25 0 0 1 19 7.323V7a1 1 0 0 0-1-1"/></g><defs><clipPath id="a"><path fill="#fff" d="M6 6h24v24H6z"/></clipPath></defs></svg>