<svg xmlns="http://www.w3.org/2000/svg" width="16" height="16" fill="none"><path fill="currentColor" d="M0 0h16v16H0z"/><path fill="#fff" d="M-635-300H805v780H-635z"/><g filter="url(#a)"><rect width="696" height="308" x="-371" y="-216" fill="#fff" rx="4"/><rect width="695" height="307" x="-370.5" y="-215.5" stroke="currentColor" rx="3.5"/></g><circle cx="8" cy="8" r="7.5" fill="currentColor" stroke="currentColor"/><path fill="#fff" d="M8 .889A7.111 7.111 0 1 0 15.11 8 7.12 7.12 0 0 0 8 .89m.147 2.963a.889.889 0 1 1 0 1.778.889.889 0 0 1 0-1.778m1.334 8H7.11a.593.593 0 0 1 0-1.185h.444a.15.15 0 0 0 .148-.148V7.852a.15.15 0 0 0-.148-.148H7.11a.593.593 0 1 1 0-1.185h.593a1.185 1.185 0 0 1 1.185 1.185v2.815a.15.15 0 0 0 .148.148h.445a.593.593 0 1 1 0 1.185"/><defs><filter id="a" width="700" height="314" x="-373" y="-218" color-interpolation-filters="sRGB" filterUnits="userSpaceOnUse"><feFlood flood-opacity="0" result="BackgroundImageFix"/><feColorMatrix in="SourceAlpha" values="0 0 0 0 0 0 0 0 0 0 0 0 0 0 0 0 0 0 127 0"/><feOffset dy="1"/><feGaussianBlur stdDeviation="1"/><feColorMatrix values="0 0 0 0 0.113958 0 0 0 0 0.188601 0 0 0 0 0.28457 0 0 0 0.04 0"/><feBlend in2="BackgroundImageFix" result="effect1_dropShadow"/><feColorMatrix in="SourceAlpha" values="0 0 0 0 0 0 0 0 0 0 0 0 0 0 0 0 0 0 127 0"/><feOffset dy="2"/><feGaussianBlur stdDeviation="1"/><feColorMatrix values="0 0 0 0 0.113958 0 0 0 0 0.188601 0 0 0 0 0.28457 0 0 0 0.04 0"/><feBlend in2="effect1_dropShadow" result="effect2_dropShadow"/><feColorMatrix in="SourceAlpha" values="0 0 0 0 0 0 0 0 0 0 0 0 0 0 0 0 0 0 127 0"/><feOffset/><feGaussianBlur stdDeviation="1"/><feColorMatrix values="0 0 0 0 0.113958 0 0 0 0 0.188601 0 0 0 0 0.28457 0 0 0 0.16 0"/><feBlend in2="effect2_dropShadow" result="effect3_dropShadow"/><feBlend in="SourceGraphic" in2="effect3_dropShadow" result="shape"/></filter></defs></svg>