<svg xmlns="http://www.w3.org/2000/svg" width="36" height="36" fill="none"><rect width="36" height="36" fill="#EBEEEF" rx="3"/><g clip-path="url(#a)"><path fill="#EBEEEF" d="M6 6h24v24H6z"/><path fill="#40526D" d="M28.5 10.5h-21A1.5 1.5 0 0 0 6 12v2.5A1.5 1.5 0 0 0 7.5 16h21a1.5 1.5 0 0 0 1.5-1.5V12a1.5 1.5 0 0 0-1.5-1.5M9.25 13.25a1.25 1.25 0 1 1 2.5 0 1.25 1.25 0 0 1-2.5 0m5.25 1.25a1.25 1.25 0 1 1 0-2.5 1.25 1.25 0 0 1 0 2.5m14.224-6.448-3.895-1.947a1 1 0 0 0-.447-.1H11.618a1 1 0 0 0-.447.105l-3.9 1.947A.5.5 0 0 0 7.5 9h21a.5.5 0 0 0 .224-.948M28.5 17.5h-21A1.5 1.5 0 0 0 6 19v2.5A1.5 1.5 0 0 0 7.5 23h21a1.5 1.5 0 0 0 1.5-1.5V19a1.5 1.5 0 0 0-1.5-1.5M9.25 20.25a1.25 1.25 0 1 1 2.5 0 1.25 1.25 0 0 1-2.5 0m5.25 1.25a1.25 1.25 0 1 1 0-2.5 1.25 1.25 0 0 1 0 2.5m14 3h-21A1.5 1.5 0 0 0 6 26v2.5A1.5 1.5 0 0 0 7.5 30h21a1.5 1.5 0 0 0 1.5-1.5V26a1.5 1.5 0 0 0-1.5-1.5M9.25 27.25a1.25 1.25 0 1 1 2.5 0 1.25 1.25 0 0 1-2.5 0m5.25 1.25a1.25 1.25 0 1 1 0-2.5 1.25 1.25 0 0 1 0 2.5"/></g><defs><clipPath id="a"><path fill="#fff" d="M6 6h24v24H6z"/></clipPath></defs></svg>