<svg xmlns="http://www.w3.org/2000/svg" width="36" height="36" fill="none"><rect width="36" height="36" fill="#EBEEEF" rx="3"/><path fill="#EBEEEF" d="M6 6h24v24H6z"/><path fill="#40526D" d="M14 27.443a.25.25 0 0 0 .273-.321 6 6 0 0 1-.146-2.892.25.25 0 0 0-.212-.3 12.77 12.77 0 0 1-6.128-2.21.25.25 0 0 0-.408.194v1.716c-.004 1.791 2.78 3.299 6.621 3.813m-6.625-8.309c0 1.835 2.936 3.375 6.932 3.847a.25.25 0 0 0 .256-.143 5.9 5.9 0 0 1 2.553-2.738.25.25 0 0 0-.121-.47h-.12c-3.5 0-7.155-.832-9.092-2.41a.25.25 0 0 0-.408.194z"/><path fill="#40526D" d="M16.876 15.134c-3.5 0-7.156-.832-9.093-2.41a.25.25 0 0 0-.408.193v1.717c0 2.21 4.255 4 9.5 4 1.99.023 3.97-.266 5.869-.857a.24.24 0 0 0 .093-.055l1.914-1.808a1.96 1.96 0 0 1 1.3-.542.25.25 0 0 0 .221-.162c.15-.754.184-1.527.1-2.292a.25.25 0 0 0-.408-.194c-1.933 1.576-5.583 2.41-9.088 2.41"/><path fill="#40526D" d="M16.876 14.134c5.247 0 9.5-1.79 9.5-4s-4.253-4-9.5-4-9.5 1.79-9.5 4 4.253 4 9.5 4m9.249 2.734a.5.5 0 0 0-.344.136l-4.238 4a.25.25 0 0 1-.245.057 4.5 4.5 0 1 0 3 3.012.25.25 0 0 1 .063-.25l4.116-4.106a.5.5 0 0 0 .147-.353v-2a.5.5 0 0 0-.5-.5zm-7.217 7.109a1.75 1.75 0 1 1 0 2.475 1.755 1.755 0 0 1 0-2.475"/></svg>