<svg xmlns="http://www.w3.org/2000/svg" width="22" height="15"><path fill="currentColor" d="m15.094 1.222-.778.785A10.1 10.1 0 0 0 11 1.44c-2.677 0-5.193 1.096-7.33 2.919a13 13 0 0 0-2.073 2.208c-.36.497-.586.935-.597.935.011-.002.237.436.597.933a13 13 0 0 0 2.073 2.208q.58.495 1.193.914l-.718.726C1.532 10.452 0 8.096 0 7.5 0 6.49 4.4.429 11 .429c1.484 0 2.857.306 4.094.793m2.761 1.496C20.468 4.548 22 6.904 22 7.5c0 1.01-4.4 7.071-11 7.071a11.1 11.1 0 0 1-4.094-.793l.778-.785c1.065.37 2.176.568 3.316.568 2.677 0 5.193-1.096 7.33-2.919a13 13 0 0 0 2.073-2.208c.36-.497.586-.935.597-.935-.011.002-.237-.436-.597-.933a13 13 0 0 0-2.073-2.208 14 14 0 0 0-1.193-.914zM8.687 11.98l2.438-2.463a2.01 2.01 0 0 0 1.871-1.89l2.438-2.462A5.1 5.1 0 0 1 16 7.5c0 2.79-2.239 5.05-5 5.05a4.94 4.94 0 0 1-2.313-.57M6.566 9.836A5.1 5.1 0 0 1 6 7.5c0-2.79 2.239-5.05 5-5.05.834 0 1.621.206 2.313.57l-2.438 2.464a2.01 2.01 0 0 0-1.871 1.89zM17.718 0l.707.714L4.282 15l-.707-.714z"/></svg>