<svg xmlns="http://www.w3.org/2000/svg" width="120" height="120" fill="none" viewBox="249 97 120 120"><path fill="#ECF5FB" fill-rule="evenodd" d="M309 217c33.137 0 60-26.863 60-60s-26.863-60-60-60-60 26.863-60 60 26.863 60 60 60" clip-rule="evenodd"/><path stroke="#B5D9F1" stroke-linecap="round" stroke-linejoin="round" stroke-width="2" d="m346.998 143.828 2.829-2.828 2.828 2.828-2.828 2.828zm-30.861-29.691 3.115 3.115m-.11-3.115-3.115 3.115M263 163h4v4h-4z"/><path fill="#162649" d="m313.875 149.501-4.149-4.148a1.017 1.017 0 1 0-1.438 1.439l4.148 4.148a1.323 1.323 0 0 1-1.87 1.87l-4.149-4.148a1.017 1.017 0 1 0-1.438 1.439l4.148 4.148a3.34 3.34 0 0 0 2.374.982c.859 0 1.719-.328 2.374-.982a3.36 3.36 0 0 0 0-4.748m-7.626 7.626-4.148-4.148a1.016 1.016 0 1 0-1.439 1.438l4.149 4.149c.249.249.387.581.387.935 0 .353-.138.685-.387.935a1.326 1.326 0 0 1-1.871 0l-4.148-4.149a1.018 1.018 0 0 0-1.439 1.439l4.149 4.148a3.34 3.34 0 0 0 2.374.982c.859 0 1.719-.327 2.373-.982a3.33 3.33 0 0 0 .984-2.374c0-.896-.349-1.739-.984-2.373"/><g filter="url(#a)"><path fill="#fff" d="M282.192 146.068a6 6 0 0 1-.017-8.485l7.363-7.391a6 6 0 0 1 8.486-.017l7.006 6.98-15.832 15.893z"/></g><path stroke="#162649" stroke-dasharray="215.11 6.27 0.9 3.59" stroke-linecap="round" stroke-width="1.793" d="M282.192 146.068a6 6 0 0 1-.017-8.485l7.363-7.391a6 6 0 0 1 8.486-.017l7.006 6.98-15.832 15.893z"/><g filter="url(#b)"><path fill="#fff" d="M289.704 156.964a3.04 3.04 0 0 1-.008-4.3l15.343-15.401a3.04 3.04 0 1 1 4.308 4.291l-15.343 15.402a3.04 3.04 0 0 1-4.3.008"/></g><path stroke="#162649" stroke-dasharray="215.11 6.27 0.9 3.59" stroke-linecap="round" stroke-width="1.793" d="M289.704 156.964a3.04 3.04 0 0 1-.008-4.3l15.343-15.401a3.04 3.04 0 1 1 4.308 4.291l-15.343 15.402a3.04 3.04 0 0 1-4.3.008Z"/><path fill="#fff" stroke="#162649" stroke-dasharray="215.11 6.27 0.9 3.59" stroke-linecap="round" stroke-width="1.793" d="M279.834 134.046a4 4 0 0 1-.011-5.657l.553-.555a4 4 0 0 1 5.657-.011l2.859 2.848-6.2 6.223z"/><g filter="url(#c)"><path fill="#fff" d="M277.333 125.999a.472.472 0 0 1 .665-.667l2.085 2.077-.664.667z"/></g><path stroke="#162649" stroke-dasharray="215.11 6.27 0.9 3.59" stroke-linecap="round" stroke-width="1.793" d="M277.333 125.999a.472.472 0 0 1 .665-.667l2.085 2.077-.664.667z"/><path fill="#D32D27" d="M285 143a1 1 0 1 0 0-2 1 1 0 0 0 0 2"/><g filter="url(#d)"><path fill="#fff" d="M335.905 165.002a6 6 0 0 1-.09 8.485l-10.921 10.691a6 6 0 0 1-8.484-.09l-8.696-8.882 19.495-19.086z"/></g><path stroke="#162649" stroke-dasharray="215.11 6.27 0.9 3.59" stroke-linecap="round" stroke-width="1.793" d="M335.905 165.002a6 6 0 0 1-.09 8.485l-10.921 10.691a6 6 0 0 1-8.484-.09l-8.696-8.882 19.495-19.086z"/><path fill="#fff" stroke="#162649" stroke-dasharray="215.11 6.27 0.9 3.59" stroke-linecap="round" stroke-width="1.793" d="M327.341 151.622a3.04 3.04 0 0 1-.045 4.299l-19.772 19.357a3.04 3.04 0 0 1-4.299-.046 3.04 3.04 0 0 1 .045-4.299l19.772-19.357a3.04 3.04 0 0 1 4.299.046Z"/><g filter="url(#e)"><path fill="#fff" d="M336.905 178.689a4 4 0 0 1-.06 5.656l-.56.549a4 4 0 0 1-5.657-.06l-2.823-2.884 6.277-6.144z"/></g><path stroke="#162649" stroke-dasharray="215.11 6.27 0.9 3.59" stroke-linecap="round" stroke-width="1.793" d="M336.905 178.689a4 4 0 0 1-.06 5.656l-.56.549a4 4 0 0 1-5.657-.06l-2.823-2.884 6.277-6.144z"/><g filter="url(#f)"><path fill="#fff" d="M339.304 186.766a.47.47 0 0 1-.672.659l-2.059-2.103.672-.659z"/></g><path stroke="#162649" stroke-dasharray="215.11 6.27 0.9 3.59" stroke-linecap="round" stroke-width="1.793" d="M339.304 186.766a.47.47 0 0 1-.672.659l-2.059-2.103.672-.659z"/><defs><filter id="a" width="29.625" height="29.642" x="276.673" y="124.673" color-interpolation-filters="sRGB" filterUnits="userSpaceOnUse"><feFlood flood-opacity="0" result="BackgroundImageFix"/><feBlend in="SourceGraphic" in2="BackgroundImageFix" result="shape"/><feColorMatrix in="SourceAlpha" result="hardAlpha" values="0 0 0 0 0 0 0 0 0 0 0 0 0 0 0 0 0 0 127 0"/><feOffset dx="-5.378" dy="-6.274"/><feComposite in2="hardAlpha" k2="-1" k3="1" operator="arithmetic"/><feColorMatrix values="0 0 0 0 0.760784 0 0 0 0 0.878431 0 0 0 0 0.956863 0 0 0 1 0"/><feBlend in2="shape" result="effect1_innerShadow"/></filter><filter id="b" width="26.477" height="26.536" x="286.282" y="133.841" color-interpolation-filters="sRGB" filterUnits="userSpaceOnUse"><feFlood flood-opacity="0" result="BackgroundImageFix"/><feBlend in="SourceGraphic" in2="BackgroundImageFix" result="shape"/><feColorMatrix in="SourceAlpha" result="hardAlpha" values="0 0 0 0 0 0 0 0 0 0 0 0 0 0 0 0 0 0 127 0"/><feOffset dx="-5.378" dy="-6.274"/><feComposite in2="hardAlpha" k2="-1" k3="1" operator="arithmetic"/><feColorMatrix values="0 0 0 0 0.760784 0 0 0 0 0.878431 0 0 0 0 0.956863 0 0 0 1 0"/><feBlend in2="shape" result="effect1_innerShadow"/></filter><filter id="c" width="5.618" height="5.611" x="275.732" y="123.732" color-interpolation-filters="sRGB" filterUnits="userSpaceOnUse"><feFlood flood-opacity="0" result="BackgroundImageFix"/><feBlend in="SourceGraphic" in2="BackgroundImageFix" result="shape"/><feColorMatrix in="SourceAlpha" result="hardAlpha" values="0 0 0 0 0 0 0 0 0 0 0 0 0 0 0 0 0 0 127 0"/><feOffset dx="-5.378" dy="-6.274"/><feComposite in2="hardAlpha" k2="-1" k3="1" operator="arithmetic"/><feColorMatrix values="0 0 0 0 0.858824 0 0 0 0 0.92549 0 0 0 0 0.964706 0 0 0 1 0"/><feBlend in2="shape" result="effect1_innerShadow"/></filter><filter id="d" width="34.923" height="34.79" x="306.447" y="154.853" color-interpolation-filters="sRGB" filterUnits="userSpaceOnUse"><feFlood flood-opacity="0" result="BackgroundImageFix"/><feBlend in="SourceGraphic" in2="BackgroundImageFix" result="shape"/><feColorMatrix in="SourceAlpha" result="hardAlpha" values="0 0 0 0 0 0 0 0 0 0 0 0 0 0 0 0 0 0 127 0"/><feOffset dx="-5.378" dy="-6.274"/><feComposite in2="hardAlpha" k2="-1" k3="1" operator="arithmetic"/><feColorMatrix values="0 0 0 0 0.760784 0 0 0 0 0.878431 0 0 0 0 0.956863 0 0 0 1 0"/><feBlend in2="shape" result="effect1_innerShadow"/></filter><filter id="e" width="14.432" height="14.421" x="326.538" y="174.538" color-interpolation-filters="sRGB" filterUnits="userSpaceOnUse"><feFlood flood-opacity="0" result="BackgroundImageFix"/><feBlend in="SourceGraphic" in2="BackgroundImageFix" result="shape"/><feColorMatrix in="SourceAlpha" result="hardAlpha" values="0 0 0 0 0 0 0 0 0 0 0 0 0 0 0 0 0 0 127 0"/><feOffset dx="-5.378" dy="-6.274"/><feComposite in2="hardAlpha" k2="-1" k3="1" operator="arithmetic"/><feColorMatrix values="0 0 0 0 0.760784 0 0 0 0 0.878431 0 0 0 0 0.956863 0 0 0 1 0"/><feBlend in2="shape" result="effect1_innerShadow"/></filter><filter id="f" width="5.596" height="5.633" x="335.305" y="183.396" color-interpolation-filters="sRGB" filterUnits="userSpaceOnUse"><feFlood flood-opacity="0" result="BackgroundImageFix"/><feBlend in="SourceGraphic" in2="BackgroundImageFix" result="shape"/><feColorMatrix in="SourceAlpha" result="hardAlpha" values="0 0 0 0 0 0 0 0 0 0 0 0 0 0 0 0 0 0 127 0"/><feOffset dx="-5.378" dy="-6.274"/><feComposite in2="hardAlpha" k2="-1" k3="1" operator="arithmetic"/><feColorMatrix values="0 0 0 0 0.858824 0 0 0 0 0.92549 0 0 0 0 0.964706 0 0 0 1 0"/><feBlend in2="shape" result="effect1_innerShadow"/></filter></defs></svg>