<svg xmlns="http://www.w3.org/2000/svg" width="36" height="36" fill="none"><rect width="36" height="36" fill="#E7F7F2" rx="3"/><path fill="#E7F7F2" d="M6 6h24v24H6z"/><path fill="#008A63" d="M10.046 15.917a1.25 1.25 0 0 0 1.768 1.767 8.76 8.76 0 0 1 12.374 0 1.25 1.25 0 0 0 .884.366 1.24 1.24 0 0 0 1.245-1.221V16.8a1.24 1.24 0 0 0-.366-.883 11.264 11.264 0 0 0-15.905 0"/><path fill="#008A63" d="M28.784 12.088a15.27 15.27 0 0 0-21.568 0 1.25 1.25 0 0 0 1.768 1.768 12.767 12.767 0 0 1 18.032 0 1.25 1.25 0 1 0 1.768-1.768m-8.401 5.945a7.25 7.25 0 0 0-7.509 1.711 1.25 1.25 0 1 0 1.767 1.767 4.75 4.75 0 0 1 6.527-.155c.062.055.131.1.19.155a1.247 1.247 0 0 0 2.035-.409 1.25 1.25 0 0 0-.271-1.362 7.2 7.2 0 0 0-2.739-1.707M18 28.371a2.5 2.5 0 1 0 0-5 2.5 2.5 0 0 0 0 5"/></svg>