<svg xmlns="http://www.w3.org/2000/svg" width="129" height="125" fill="none"><path fill="#ECF5FB" fill-rule="evenodd" d="M66 125c34.518 0 62.5-27.982 62.5-62.5S100.518 0 66 0 3.5 27.982 3.5 62.5 31.482 125 66 125" clip-rule="evenodd"/><path stroke="#B5D9F1" stroke-width="1.25" d="M3.5 71.528a2.083 2.083 0 1 0 0-4.167 2.083 2.083 0 0 0 0 4.167Z" clip-rule="evenodd"/><path stroke="#B5D9F1" stroke-linecap="round" stroke-width="1.25" d="m62.67 10.559 3.245 3.245m-.115-3.245-3.244 3.245"/><path stroke="#B5D9F1" stroke-dasharray="1 6 164 5" stroke-linecap="round" stroke-width="1.25" d="M33.361 98.611h68.75"/><path fill="#B5D9F1" stroke="#264887" stroke-dasharray="169 7" stroke-linecap="round" stroke-width="1.25" d="M68.983 43.243c2.469 5.885 1.68 12.696-2.107 17.844L34.045 50.611c-.089-5.452 2.256-10.882 6.838-14.548 6.5-5.202 15.466-5.201 21.912-.58l5.47-4.378 4.248 8.95z"/><g filter="url(#a)"><path fill="#fff" d="M29.076 62.447c1.109-9.908 9.994-17.05 19.848-15.947 8.165.913 14.413 7.205 15.689 14.969l6.255.7 3.127.35-6.543 9.178-3.934-.44c-2.96 7.289-10.446 12.044-18.61 11.13-9.854-1.103-16.94-10.032-15.832-19.94"/></g><path stroke="#264887" stroke-dasharray="181 7 1 4" stroke-linecap="round" stroke-width="1.25" d="M29.076 62.447c1.109-9.908 9.994-17.05 19.848-15.947 8.165.913 14.413 7.205 15.689 14.969l6.255.7 3.127.35-6.543 9.178-3.934-.44c-2.96 7.289-10.446 12.044-18.61 11.13-9.854-1.103-16.94-10.032-15.832-19.94Z"/><path stroke="#264887" stroke-linecap="round" stroke-linejoin="round" stroke-width="1.25" d="M45.335 60.773a3.473 3.473 0 1 1-3.837 3.065 3.473 3.473 0 0 1 3.837-3.065" clip-rule="evenodd"/><path stroke="#D32D27" stroke-linecap="round" stroke-linejoin="round" stroke-width="1.25" d="m44.95 64.223-16.405-1.835c-3.516-.394-6.024-3.805-5.598-7.615s3.626-6.582 7.143-6.188l3.207.359"/><path fill="#D75E59" fill-rule="evenodd" d="m116.3 24.237-2.186-.753 3.748-13.009 3.481 1.199zm-4.37 2.976q.32-.93.977-1.244.656-.315 1.561-.004.892.308 1.197.974.305.667-.003 1.559-.306.892-.97 1.246t-1.543.052q-.892-.308-1.215-.98-.324-.675-.004-1.603M14.152 28.27l-1.21.564-3.662-6.908 1.927-.899zm-.62 2.989q-.24-.514-.094-.909.146-.394.647-.628.494-.23.888-.075t.624.648q.23.495.097.907-.134.414-.62.64-.495.231-.899.081t-.644-.664m75.383-13.877-1.168-.647 3.437-7.023 1.86 1.03zm-2.783 1.255q.275-.496.68-.61.405-.112.889.155.476.264.582.674.107.41-.157.886t-.677.612-.883-.126q-.476-.264-.593-.68-.116-.414.16-.911" clip-rule="evenodd"/><path stroke="#B5D9F1" stroke-linecap="round" stroke-linejoin="round" stroke-width="1.25" d="M112.528 68.055h4.167v4.167h-4.167z"/><path fill="#fff" stroke="#264887" stroke-dasharray="181 7 1 4" stroke-linecap="round" stroke-width="1.25" d="m76.532 75.893-3.47-1.904 10.254-5.608 5.518 3.027 11.035 6.054 1.925 6.672-6.661 1.962-4.293-2.354-4.44 1.308-1.283-4.448-2.862-1.57-4.443 1.308z"/><g filter="url(#b)"><path fill="#B5D9F1" d="m77.372 48.57-1.695-4.662 7.124-7.32 15.795 7.353 2.398 6.59-6.602 2.401-4.436-1.904-4.099 1.49-1.667-4.582-2.15-1.065z"/></g><path stroke="#264887" stroke-dasharray="169 7" stroke-linecap="round" stroke-width="1.25" d="m77.372 48.57-1.695-4.662 7.124-7.32 15.795 7.353 2.398 6.59-6.602 2.401-4.436-1.904-4.099 1.49-1.667-4.582-2.15-1.065z"/><defs><filter id="a" width="46.784" height="37.362" x="28.337" y="45.763" color-interpolation-filters="sRGB" filterUnits="userSpaceOnUse"><feFlood flood-opacity="0" result="BackgroundImageFix"/><feBlend in="SourceGraphic" in2="BackgroundImageFix" result="shape"/><feColorMatrix in="SourceAlpha" result="hardAlpha" values="0 0 0 0 0 0 0 0 0 0 0 0 0 0 0 0 0 0 127 0"/><feOffset dx="5" dy="-1"/><feComposite in2="hardAlpha" k2="-1" k3="1" operator="arithmetic"/><feColorMatrix values="0 0 0 0 0.709804 0 0 0 0 0.85098 0 0 0 0 0.945098 0 0 0 1 0"/><feBlend in2="shape" result="effect1_innerShadow"/></filter><filter id="b" width="26.839" height="17.769" x="74.955" y="35.835" color-interpolation-filters="sRGB" filterUnits="userSpaceOnUse"><feFlood flood-opacity="0" result="BackgroundImageFix"/><feBlend in="SourceGraphic" in2="BackgroundImageFix" result="shape"/><feColorMatrix in="SourceAlpha" result="hardAlpha" values="0 0 0 0 0 0 0 0 0 0 0 0 0 0 0 0 0 0 127 0"/><feOffset dx="5" dy="-1"/><feComposite in2="hardAlpha" k2="-1" k3="1" operator="arithmetic"/><feColorMatrix values="0 0 0 0 0.760784 0 0 0 0 0.878431 0 0 0 0 0.956863 0 0 0 1 0"/><feBlend in2="shape" result="effect1_innerShadow"/></filter></defs></svg>