<svg xmlns="http://www.w3.org/2000/svg" width="36" height="36" fill="none"><rect width="36" height="36" fill="#FBEBEB" rx="3"/><path fill="#FBEBEB" d="M6 6h24v24H6z"/><path fill="#D32D27" d="M15.75 18h-1a.25.25 0 0 1-.25-.25v-1a.75.75 0 0 0-.75-.75h-1.5a.75.75 0 0 0-.75.75v1a.25.25 0 0 1-.25.25h-1a.75.75 0 0 0-.75.75v1.5a.75.75 0 0 0 .75.75h1a.25.25 0 0 1 .25.25v1a.75.75 0 0 0 .75.75h1.5a.75.75 0 0 0 .75-.75v-1a.25.25 0 0 1 .25-.25h1a.75.75 0 0 0 .75-.75v-1.5a.75.75 0 0 0-.75-.75"/><path fill="#D32D27" d="M30 10.5a2 2 0 0 0-2-2H8a2 2 0 0 0-2 2v15a2 2 0 0 0 2 2h20a2 2 0 0 0 2-2zm-21.5 15A.5.5 0 0 1 8 25V14.5a.5.5 0 0 1 .5-.5h19a.5.5 0 0 1 .5.5V25a.5.5 0 0 1-.5.5z"/><path fill="#D32D27" d="M25.25 17.75H20.5a.75.75 0 1 0 0 1.5h4.75a.75.75 0 1 0 0-1.5m-1.25 3h-3.5a.75.75 0 1 0 0 1.5H24a.75.75 0 1 0 0-1.5"/></svg>