<svg xmlns="http://www.w3.org/2000/svg" width="24" height="24" fill="currentColor"><g clip-path="url(#a)"><path d="M24 2a2 2 0 0 0-2-2H2A1.9 1.9 0 0 0 .58.59 1.93 1.93 0 0 0 0 2v7.31A15.13 15.13 0 0 0 11.86 24q.1.015.2 0 .1.015.2 0A15.14 15.14 0 0 0 24 9.2zm-7.9 8.51L8.9 18.4a.29.29 0 0 1-.36.05.28.28 0 0 1-.11-.35l2.24-5.77a.27.27 0 0 0 0-.23.26.26 0 0 0-.21-.11H8.32a.56.56 0 0 1-.5-.28.57.57 0 0 1 0-.58l3.92-6.84a.58.58 0 0 1 .5-.3h2.89a.59.59 0 0 1 .5.3.57.57 0 0 1 0 .58l-2.4 4.25a.28.28 0 0 0 0 .25.25.25 0 0 0 .22.12h2.26a.58.58 0 0 1 .52.35.57.57 0 0 1-.13.62z"/></g><defs><clipPath id="a"><path fill="#fff" d="M0 0h24v24H0z"/></clipPath></defs></svg>