<svg xmlns="http://www.w3.org/2000/svg" width="88" height="68" fill="none"><path fill="#6F73D2" d="M16.719 18.922a.5.5 0 0 1-.235.172 3 3 0 0 1-.28.078l-.298.062a.7.7 0 0 0-.25.141.2.2 0 0 0-.047.031q0 .015-.03.016-.047 0-.095-.078a.2.2 0 0 0-.109-.094q-.405.218-.875.375l-.937.344q-.455.188-.891.39a3.1 3.1 0 0 0-.766.532 3 3 0 0 0-.515.109.67.67 0 0 0-.375.344h-.047a.1.1 0 0 1-.094-.047q-.03-.031-.094-.031-.11 0-.14.062a.6.6 0 0 0-.047.125.6.6 0 0 1-.016.14q-.015.063-.094.063-.03 0-.062-.062-.032-.048-.156-.032-.579.313-1.203.625a3.9 3.9 0 0 0-1.079.829.1.1 0 0 0-.078-.032H7.86L7.844 23q-.032 0-.047-.016-.015-.015-.031-.015-.36.313-.766.562-.39.266-.797.516-.405.25-.797.5-.39.266-.734.594-.219.015-.438.093l-.437.157a5 5 0 0 1-.422.14 1.3 1.3 0 0 1-.437.078q-.407 0-.672-.359a.4.4 0 0 1-.094.047.2.2 0 0 1-.078.015.33.33 0 0 1-.235-.109q-.093-.093-.265-.062a1.3 1.3 0 0 1-.297-.563 3.5 3.5 0 0 0-.203-.61q.03-.608.203-1.187.188-.562.234-1.172.141-.14.219-.328.078-.172.14-.375l.157-.375a.85.85 0 0 1 .219-.312q.093-.47.312-.89.219-.423.297-.907a.7.7 0 0 0 .203-.188q.094-.109.203-.203v-.093q0-.125-.062-.188.109-.281.234-.531.14-.25.266-.5.125-.25.219-.516t.124-.578a.7.7 0 0 0 .188-.266q.063-.172.11-.328a5 5 0 0 1 .124-.312.52.52 0 0 1 .25-.219.2.2 0 0 1-.015-.078.5.5 0 0 1 .078-.281.44.44 0 0 0 .094-.266.3.3 0 0 0-.047-.156l.61-1.281q.296-.641.452-1.36a.33.33 0 0 0 .188-.234.6.6 0 0 1 .14-.281v-.079q0-.266.11-.593.125-.329.297-.547.078-.547.172-1.14.109-.61.328-1.11a1 1 0 0 0-.094-.219 1.5 1.5 0 0 1-.078-.234 5.5 5.5 0 0 1-1.094.453.5.5 0 0 0-.187.062q-.095.031-.11.157-.015.109-.016.187a.5.5 0 0 0-.296.078 2 2 0 0 0-.22.188q-.094.094-.202.187a.7.7 0 0 1-.282.11 7 7 0 0 1-.312.296 1.6 1.6 0 0 1-.36.188.4.4 0 0 0-.156.125l-.156.187a1 1 0 0 1-.156.157.15.15 0 0 1-.14.046.6.6 0 0 1-.141.235q-.079.093-.172.187a.7.7 0 0 0-.156.188.47.47 0 0 0-.047.281q-.063.063-.11.063-.046 0-.11-.063a.7.7 0 0 1-.124.313q-.078.108-.188.203a5 5 0 0 1-.234.187 2 2 0 0 0-.234.203 1 1 0 0 1-.25-.062 4 4 0 0 0-.203-.094 1 1 0 0 0-.235-.062.8.8 0 0 0-.281-.016q.015-.094-.031-.14a.4.4 0 0 0-.125-.079v-.312q.015-.188.015-.375.015-.203.047-.375a.9.9 0 0 1 .094-.281.86.86 0 0 1 .297-.282q.219-.124.453-.25a9 9 0 0 0 .469-.281q.233-.157.375-.375.014.016.062.016.125 0 .203-.063a.5.5 0 0 1 .203-.203.7.7 0 0 0 .25-.187.15.15 0 0 0 .047-.11.24.24 0 0 1 .063-.125.5.5 0 0 1 .172-.094.55.55 0 0 0 .218-.125.5.5 0 0 0 .141-.171q.063-.094.14-.172a1 1 0 0 1 .266-.141q.156-.047.297-.125.14-.093.25-.219a.8.8 0 0 0 .188-.297q.312-.14.609-.28.297-.157.578-.329.156-.093.297-.203.141-.125.281-.234a2.5 2.5 0 0 1 .313-.188.9.9 0 0 1 .36-.078q.233 0 .359.094a1 1 0 0 1 .218.187q.11.094.219.203a.74.74 0 0 0 .313.157q.155.249.203.546.062.282.078.594.015.297 0 .594 0 .297.047.578a5 5 0 0 1-.22.516 1.17 1.17 0 0 0-.108.718H8.25q-.063.516-.234 1.016a13 13 0 0 1-.391.969l-.422.953q-.203.468-.344.969-.03.14-.109.172-.078.015-.11.124-.077.172-.124.376a2.4 2.4 0 0 1-.125.39q-.157.406-.313.781t-.328.735v.156q0 .078.047.078-.5.689-.672 1.563a.6.6 0 0 0-.187.234.53.53 0 0 1-.157.219 5.6 5.6 0 0 1-.297.89q-.171.423-.359.844-.187.422-.36.844a5.5 5.5 0 0 0-.265.89q-.172.157-.281.375-.094.22-.172.47l-.125.5a4 4 0 0 1-.11.452l-.156.563v.312q0 .078-.015.172t-.094.125q.03.11.078.172.063.063.031.172.063.125.219.14.172.031.297.079.125-.032.14-.14a.4.4 0 0 1 .079-.188 2.3 2.3 0 0 1 .422-.407q.296-.219.624-.453.344-.234.657-.453.328-.203.531-.375h.281q.563-.36 1.125-.703a11 11 0 0 1 1.172-.594q.157-.203.375-.312l.469-.219q.25-.093.469-.203a.9.9 0 0 0 .375-.313q.172-.03.375-.078a.43.43 0 0 0 .297-.218h.062q.047 0 .094.015.047.031.062.094a.16.16 0 0 0 .125-.14.4.4 0 0 1 .11-.188q.453-.172.922-.36.469-.187.921-.422.22 0 .485-.062a.64.64 0 0 0 .422-.281q.03.015.078.015.172 0 .328-.047l.344-.125q.172-.078.343-.14t.36-.078h.031q.03 0 .016-.078v-.11q0-.062.062-.047a.6.6 0 0 1 .156-.015q.173 0 .313.078.156.062.297.156t.281.203q.141.095.297.14a1 1 0 0 0-.031.204q0 .078.015.156.032.063.063.14m8.015-15.563a.8.8 0 0 1-.109.266.8.8 0 0 0-.11.281q-.203 0-.39.063-.187.062-.234.281h-.047q-.078 0-.11-.062-.015-.063-.093-.063h-.016l-.016.016q-.312.093-.625.203-.312.109-.625.203-.656.219-1.312.422a8 8 0 0 0-1.25.515h-.344A14 14 0 0 1 17.5 6.547a25 25 0 0 0-1.969 1 2.5 2.5 0 0 1-.25.328 9 9 0 0 1-.312.297q.094.078.094.25 0 .218-.047.422a1.6 1.6 0 0 0-.047.39q0 .126.047.188a1 1 0 0 0 .14.14 1 1 0 0 1-.078.172l-.094.141a1 1 0 0 0-.093.172q-.032.11-.032.297 0 .656-.109 1.281-.11.625-.11 1.281 0 .39.063.703.109-.045.203-.109.095-.062.219-.125a.7.7 0 0 1 .172-.062q.094-.016.187-.047.079-.032.063-.11-.015-.077.047-.11a.22.22 0 0 1 .125-.03.6.6 0 0 0 .156-.047 3 3 0 0 0 .219-.063q.109-.046.234-.078.5-.187.969-.422.484-.235 1.031-.25a.43.43 0 0 1 .203-.156q.126-.063.266-.094.14-.046.265-.078a.6.6 0 0 0 .235-.14 10 10 0 0 1 1.14-.188q.594-.062 1.188-.062.313 0 .625.046.266.141.516.25t.515.235q.266.156.516.36.265.186.484.437.266.265.344.625.094.36.094.718 0 .094-.016.266 0 .172-.031.36-.015.186-.047.359a1.4 1.4 0 0 1-.062.25q-.032.062-.25.437-.204.375-.454.813-.234.437-.453.812-.203.36-.234.39-.032.032-.125.048a1 1 0 0 1-.11.015.6.6 0 0 1-.125.282q-.078.11-.171.218a2 2 0 0 0-.188.22.5.5 0 0 0-.078.296.43.43 0 0 0-.203.11.4.4 0 0 1-.188.109 4 4 0 0 1-.5.687 8 8 0 0 1-.593.625l-.61.61q-.297.312-.547.656h-.047q-.124-.016-.187.062-.046.078-.156.094a.5.5 0 0 0-.063.172q0 .109.016.188H19q-.172.218-.406.359a5 5 0 0 1-.469.297q-.234.14-.469.297-.218.156-.375.39-.015-.015-.062-.015a.17.17 0 0 0-.125.047q-.031.046-.157.015a1.1 1.1 0 0 0-.375.375.9.9 0 0 1-.406.36 31 31 0 0 1-.61-.297 1.4 1.4 0 0 1-.515-.438q.11-.234.125-.453.765-.438 1.516-.922.75-.468 1.328-1.156.015.015.063.015.046 0 .078-.03a.14.14 0 0 1 .062-.016q.032 0 .047.015t.031.016a.43.43 0 0 1 .094-.235q.094-.078.188-.171.094-.078.171-.172a.28.28 0 0 0 .078-.203.5.5 0 0 0-.03-.157 2.3 2.3 0 0 0 .624-.468q.282-.266.532-.578.25-.297.5-.579.25-.297.578-.515v-.282a.5.5 0 0 0 .265-.156q.11-.125.188-.265t.156-.266a.53.53 0 0 1 .25-.203q0-.032.016-.063a.3.3 0 0 0 .015-.093.14.14 0 0 0-.015-.063.14.14 0 0 1-.016-.062h.156q.235-.531.532-1.016.313-.5.484-1.062-.031-.39-.172-.657a13 13 0 0 0-.328-.578q-.25 0-.375-.11a1 1 0 0 0-.297-.218.6.6 0 0 1-.172.031q-.078 0-.172-.015a1 1 0 0 0-.156-.016.38.38 0 0 0-.281.11h-.047a.12.12 0 0 1-.125-.047q-.031-.08-.11-.079-.015 0-.03.016h-.032a1.5 1.5 0 0 0-.578.047 2 2 0 0 1-.563.078.7.7 0 0 1-.156-.016.7.7 0 0 1-.39.235 4 4 0 0 1-.438.094 5.3 5.3 0 0 1-.766.453q-.374.171-.812.297-.266.203-.563.374-.296.157-.609.329-.297.172-.562.375a2 2 0 0 0-.454.484v.047q-.015.125.079.187.093.063.093.22a.8.8 0 0 0-.172.28.9.9 0 0 0 0 .328l-.25.125a1.6 1.6 0 0 0-.25.157l-.343-.125a.8.8 0 0 0-.36-.078q-.093 0-.25.03a2 2 0 0 0-.469-.515q-.281-.219-.546-.437.03-.219.093-.453a.47.47 0 0 1 .313-.328 1 1 0 0 0 .015-.141v-.14a2 2 0 0 0-.03-.36 4 4 0 0 1-.016-.36q0-.156.015-.218a.3.3 0 0 1 .063-.11.2.2 0 0 1 .062-.046.2.2 0 0 0 .047-.079 1.6 1.6 0 0 0 .016-.5 9 9 0 0 1-.016-.5q0-.312.047-.609.063-.312.25-.578a1 1 0 0 1-.016-.14v-.141q0-.657.094-1.297.11-.641.188-1.297a1.4 1.4 0 0 0-.344-.297 1.3 1.3 0 0 1-.328-.312q.047-.454.265-.735a4.3 4.3 0 0 1 .579-.562v-.047a.4.4 0 0 0-.047-.188.6.6 0 0 1-.032-.203v-.047a.14.14 0 0 0 .016-.062 2.6 2.6 0 0 1 .453-.235q.266-.11.485-.109.14 0 .25.063.937-.344 1.843-.782.297-.015.594-.093.312-.08.531-.313.156-.046.344-.078.188-.047.375-.11.188-.062.344-.14.171-.095.281-.219a.6.6 0 0 0 .25.047q.188 0 .375-.094a1.4 1.4 0 0 0 .328-.234q.032 0 .063.015h.093q.156 0 .266-.062.125-.063.25-.14.141-.094.281-.157a.85.85 0 0 1 .344-.062h.094q.062 0 .11.015.217-.046.437-.156a1 1 0 0 1 .437-.11q.157 0 .25.094a.8.8 0 0 1 .125-.156.4.4 0 0 1 .156-.125.35.35 0 0 1 .157-.031q.093-.015.172-.031a.24.24 0 0 0 .125-.063q.062-.047.062-.14.063.03.125.03a.23.23 0 0 0 .14-.046q.079-.062.126-.11.11.032.156.11.062.079.11.172a1 1 0 0 0 .14.14q.093.063.265.032.032.203.172.343m15.594 4.782a1.6 1.6 0 0 0-.156.359q-.063.188-.156.375-.078.188-.203.344a.6.6 0 0 1-.313.203v.11q0 .155-.078.234-.063.078-.031.28a9.3 9.3 0 0 0-.985 1.235q-.437.641-.984 1.219a.2.2 0 0 0-.094-.016q-.11 0-.172.063a.15.15 0 0 1-.11.047.1.1 0 0 1-.077-.031 9 9 0 0 0-.469.64q-.219.328-.453.64a13 13 0 0 1-.5.626 6 6 0 0 1-.547.562q-.172.406-.437.766-.25.36-.532.703-.28.344-.531.703-.25.36-.39.781a.17.17 0 0 0-.126.047q-.03.032-.109.032a6 6 0 0 1-.39.796q-.204.36-.407.735-.187.375-.328.781-.125.406-.125.906v.188q0 .094.016.172.156.172.343.328a.49.49 0 0 1 .188.39q0 .141-.063.282a.7.7 0 0 0-.062.297q-.25.015-.484.078a2.5 2.5 0 0 1-.47.078 1.6 1.6 0 0 0-.452-.219 11 11 0 0 0-.5-.11 1.2 1.2 0 0 1-.125-.265.5.5 0 0 0-.157-.234q.078-.235.094-.485a4 4 0 0 0 0-.5v-.5q.016-.25.078-.484.125-.14.203-.328.079-.172.141-.375.063-.204.125-.39.063-.189.14-.36.048 0 .063-.032a1 1 0 0 0 .047-.078q.015-.046.047-.062.03-.031.125-.016.28-.765.75-1.422.468-.656.875-1.375a.8.8 0 0 0 .219-.156q.109-.093.218-.172.078-.202.203-.375l.266-.344q.14-.171.25-.343.125-.172.188-.39a.6.6 0 0 0 .265-.22 2.5 2.5 0 0 0 .188-.312 3 3 0 0 1 .203-.297.52.52 0 0 1 .297-.187.9.9 0 0 1 .14-.407q.126-.156.266-.297.14-.156.25-.312a.9.9 0 0 0 .125-.438q.046.047.078.047t.047-.015q.03-.032.11-.032.108-.219.265-.421.156-.204.313-.391.156-.204.296-.406.14-.22.235-.47a.5.5 0 0 0 .203-.062.8.8 0 0 1 .187-.109v-.11q0-.14.063-.265a.6.6 0 0 0 .062-.266.2.2 0 0 0-.015-.078.25.25 0 0 0-.157-.094 1 1 0 0 0-.171-.015.5.5 0 0 0-.188.094 1 1 0 0 1-.156.125h-.672a2 2 0 0 1-.547.265q-.296.079-.61.14-.296.064-.577.142a1.6 1.6 0 0 0-.5.234q-.078-.094-.266-.094-.281 0-.562.11a2.2 2.2 0 0 1-.563.109v.11q0 .25.016.5.015.25.015.5 0 .124-.015.234 0 .109-.016.218-.03.172-.094.204a.3.3 0 0 0-.093.124q-.032.11-.047.204a.6.6 0 0 1-.032.187 1.3 1.3 0 0 1-.218.406 2.3 2.3 0 0 1-.328.297 11 11 0 0 1-.36.281 5 5 0 0 0-.36.266q-.077 0-.062.094a.12.12 0 0 1-.047.125 2.2 2.2 0 0 1-.5.297 9 9 0 0 1-.625.265q-.327.126-.656.266a5 5 0 0 0-.562.297.47.47 0 0 0-.266-.156 1.3 1.3 0 0 0-.281-.032q-.25 0-.516.079a.2.2 0 0 0-.078-.141.3.3 0 0 0-.156-.078 1 1 0 0 0-.172-.047l-.172-.031a1.93 1.93 0 0 1-.5-.891 4.7 4.7 0 0 1-.125-1.047q0-.562.14-1.078a.35.35 0 0 0 .204-.14l.172-.204v-.39a1 1 0 0 0 .422-.532 5 5 0 0 1 .265-.64 3 3 0 0 1 .375-.578 1.45 1.45 0 0 0 .297-.61q.156.016.172-.094a.7.7 0 0 1 .11-.234q.093-.078.155-.156a.3.3 0 0 1 .172-.125.55.55 0 0 1 .141-.313 1 1 0 0 0 .203-.312q.187-.062.375-.188.188-.124.36-.25.187-.124.359-.234a1.5 1.5 0 0 1 .312-.156.5.5 0 0 1 .188-.032q.11-.015.187-.015.282 0 .532.047.265.047.547.047.062.14.203.203a.53.53 0 0 1 .25.203v.078q.015.047.015.094a.5.5 0 0 1-.015.125v.14a1.2 1.2 0 0 1-.313.22.8.8 0 0 1-.36.015q.016.234.22.375.203.125.468.187.282.046.563.063.297.015.468.015.314 0 .657-.03.36-.048.64-.173a1 1 0 0 0 .172.047q.11 0 .172.078l.125-.094a.25.25 0 0 1 .156-.062q.063 0 .157.031a.9.9 0 0 1 .359-.172q.219-.062.438-.062.234-.015.453-.016.234 0 .437-.031.204-.03.422-.11l.438-.171q.218-.094.421-.157.22-.078.407-.078.14 0 .265.032.141.015.282.015h.109l.11-.031q.14.125.25.219.125.093.218.203.095.11.14.25a.8.8 0 0 1 .063.344m3.438 8.734q0 .25-.032.5-.03.25-.03.5-.126.173-.188.344a1 1 0 0 1-.157.328 1.3 1.3 0 0 1-.218.25q-.126.093-.266.203a5 5 0 0 0-.25.234 1.2 1.2 0 0 0-.203.328q-.484.141-.672.563a10 10 0 0 0-.937.484q-.454.266-.86.578-.266-.03-.344.016-.062.047-.172.266a.3.3 0 0 1-.093-.016h-.078q-.235 0-.5.078a2.6 2.6 0 0 0-.453.219q-.267 0-.532.016a8 8 0 0 1-.515.015 3 3 0 0 1-.813-.11 1.23 1.23 0 0 1-.656-.437 5.5 5.5 0 0 1-.172-.906l-.062-.922q.14-.36.328-.672.203-.312.297-.672a.6.6 0 0 0 .14-.078.7.7 0 0 1 .14-.109q.063-.297.22-.5.171-.219.359-.39.202-.188.375-.376.188-.187.297-.453a.4.4 0 0 0 .218-.078q.095-.062.266-.031.125-.047.14-.156a.5.5 0 0 1 .094-.188h.063a.7.7 0 0 0 .422-.125.6.6 0 0 1 .39-.14q.095 0 .188.046.266-.125.5-.28.234-.174.516-.282h.25a2.8 2.8 0 0 1 .969.063q.327.077.624.39.438.03.688.234.25.203.531.485.032.124.047.297.031.156.14.25zm-1.516-.078a.14.14 0 0 0-.016-.063v-.093a2.4 2.4 0 0 0-.422-.235 1.4 1.4 0 0 0-.468-.14.7.7 0 0 1-.235.203 7 7 0 0 1-.265.125 4 4 0 0 0-.282.14.7.7 0 0 0-.234.203v.11q0 .203-.11.453a.6.6 0 0 0-.296.063.5.5 0 0 0-.156.171 2 2 0 0 0-.11.235 3 3 0 0 1-.11.25 1.3 1.3 0 0 1-.468-.25 1 1 0 0 0-.469-.25 2 2 0 0 0-.312.281q-.124.14-.375.172a3 3 0 0 1-.14.5q-.095.234-.188.484-.094.25-.172.5a2 2 0 0 0-.063.516v.125q.126.03.172.11a.34.34 0 0 0 .188.109 1.5 1.5 0 0 0 .422-.125q.218-.078.422-.172.218-.094.421-.172.219-.063.453-.094.031-.078.079-.172a.25.25 0 0 1 .14-.11.7.7 0 0 0 .297-.077q.156-.064.313-.172l.312-.188a1 1 0 0 1 .313-.125q.125-.219.265-.328a.63.63 0 0 1 .407-.125 3.5 3.5 0 0 0 .484-.875q.203-.515.203-.984m-11.156-5.985v-.046a.64.64 0 0 1-.14-.391v-.14a.6.6 0 0 0 .015-.141.2.2 0 0 0-.047-.125 1.4 1.4 0 0 0-.11-.156 2 2 0 0 1-.093-.188.7.7 0 0 1-.016-.25.7.7 0 0 1-.25-.14l-.187-.22a1 1 0 0 0-.172-.187.32.32 0 0 0-.235-.094.6.6 0 0 0-.156.016 2.4 2.4 0 0 1-.328.422q-.157.156-.187.469a.8.8 0 0 0-.407.468q-.078.297-.156.61-.093.03-.125.094-.015.046-.14.015a6 6 0 0 1-.22.844q-.14.405-.14.844 0 .624.578.843.079-.062.14-.125a.23.23 0 0 1 .173-.062q.078 0 .093.062.032.047.11.047h.047q.14-.078.25-.156l.218-.172a.7.7 0 0 1 .25-.14 1 1 0 0 1 .328-.079 3 3 0 0 1 .25-.359q.157-.173.282-.344t.218-.36a1 1 0 0 0 .094-.437.3.3 0 0 0-.031-.14.4.4 0 0 1-.031-.156q0-.063.062-.063.063 0 .063-.062m30.437-.859a.66.66 0 0 0-.11.313q-.015.171-.015.312v.375q.015.173.016.344v.234a1 1 0 0 1-.094.219 1 1 0 0 0-.094.219q-.218.577-.218 1.156v.031q-.078.188-.157.344l-.125.313a1.4 1.4 0 0 0-.109.687 4 4 0 0 1-.578 1 21 21 0 0 0-.703.906 2.7 2.7 0 0 0-.61.328 5 5 0 0 0-.515.453q-.484.157-.953.36a3 3 0 0 0-.844.547q-.297.03-.594.093t-.578.188h-.187q-.141 0-.204-.062a1.6 1.6 0 0 1-.422.156q-.218.03-.437.031-.281 0-.562-.031l-.547-.094a.94.94 0 0 0-.438-.328 12 12 0 0 1-.5-.235 4.8 4.8 0 0 1-.656-1.203 35 35 0 0 1-.422-1.328 2 2 0 0 1 .11-.422q.077-.219.062-.468a6 6 0 0 1 .734-1.47q.47-.67 1.063-1.28 0-.094.031-.157.046-.062.016-.187.014.015.062.015.125 0 .156-.062a.3.3 0 0 0 .016-.172 5.6 5.6 0 0 0 1.016-.828 4.4 4.4 0 0 1 1.062-.781.5.5 0 0 1 .156-.235.7.7 0 0 0 .172-.218 3 3 0 0 0 .907-.422q.405-.281.859-.5.25-.14.469-.188.234-.062.5-.125.093-.03.172-.047a1 1 0 0 1 .171-.015q.282 0 .547.11.266.093.547.093h.125l.125-.031q.265.327.672.5.094.234.219.406l.281.344q.14.156.25.359.124.188.156.453m-1.562.813a.6.6 0 0 0-.016-.141 1.5 1.5 0 0 1-.297-.125.63.63 0 0 0-.312-.078.6.6 0 0 0-.219.047q-.016-.11-.094-.156a.5.5 0 0 0-.156-.079.5.5 0 0 0-.172-.062.4.4 0 0 1-.14-.094 3 3 0 0 0-.11-.25.33.33 0 0 0-.187-.203 1.3 1.3 0 0 1-.328.234q-.189.079-.391.157-.187.078-.375.187a1.2 1.2 0 0 0-.297.266h-.281a.65.65 0 0 1-.266.265.8.8 0 0 0-.297.235 2.3 2.3 0 0 0-.468.312q-.204.173-.407.375-.202.188-.406.39-.187.204-.406.376a4 4 0 0 1-.453.765 14 14 0 0 0-.453.641 4.6 4.6 0 0 0-.36.719q-.14.375-.14.937v.157q0 .078.015.156.204.219.328.469a.8.8 0 0 0 .453.359q.313.125.657.11.36-.017.687.078.75-.14 1.438-.454.702-.328 1.328-.78a2 2 0 0 1 .218-.157q.126-.094.204-.188a.7.7 0 0 0 .125-.171q.062-.094.125-.172a5 5 0 0 1 .28-.407q.157-.203.329-.375.078-.343.203-.656.125-.328.25-.64.125-.313.203-.641.094-.328.094-.688 0-.078-.016-.171a1 1 0 0 0-.015-.172.62.62 0 0 0 .125-.375m15.547-1.86q0 .095-.094.156a1.5 1.5 0 0 1-.188.126l-.203.14a.4.4 0 0 0-.125.188h-.14q-.094 0-.094.062h-.047q-.14 0-.187-.078-.048-.093-.204-.094-.39 0-.78.016-.376 0-.766.015-1.08 0-2.126.079a7.1 7.1 0 0 0-2.046.437.2.2 0 0 1-.079.016q-.078 0-.093-.063 0-.062-.078-.062-.22 0-.407.047a2.4 2.4 0 0 1-.406.062q-.25.219-.578.36a21 21 0 0 1-.656.28 7 7 0 0 0-.64.282q-.314.141-.548.375.032.188.047.375.031.173.031.344 0 .672-.125 1.328a7 7 0 0 0-.125 1.297v.234q0 .11.016.235.03.078.11.109.093.015.156.062.202-.14.406-.218.218-.094.437-.172.236-.094.438-.172.219-.094.422-.219h.437q.172-.125.406-.187a.43.43 0 0 0 .313-.282q.03.032.063.032h.062q.188 0 .375-.079l.406-.156q.204-.093.406-.172t.422-.078q.048 0 .079.016h.093a.6.6 0 0 1 .266-.235q.172-.093.36-.156l.374-.125q.203-.062.344-.156h.063q.093 0 .14.047.063.03.14.062a1.63 1.63 0 0 1 .891-.28q.47-.016.97-.063.109.188.187.312.093.11.093.328a.6.6 0 0 1-.015.156 3 3 0 0 0-.266.11l-.172.094a2 2 0 0 1-.187.062q-.11.016-.313.016-.125 0-.11.078.016.062-.077.078a3.4 3.4 0 0 1-.438.125 3.4 3.4 0 0 0-.437.125q-.453.14-.906.313a6.5 6.5 0 0 1-.907.25q-.39.312-.844.515-.453.188-.937.313-.515.375-1.016.703a5.6 5.6 0 0 1-1.125.531 1 1 0 0 1-.187.14.3.3 0 0 0-.14.188h-.079a.2.2 0 0 0-.078-.015.5.5 0 0 0-.344.109.6.6 0 0 1-.281.125 1.3 1.3 0 0 0-.078.406q0 .219.078.39.078.173.188.329l.25.312q.14.14.234.313a.6.6 0 0 1-.125.297 1 1 0 0 1-.188.218l-.218.22a.7.7 0 0 0-.141.28 3.3 3.3 0 0 1-.547.047q-.172 0-.36-.047a1 1 0 0 1-.327-.125 2.3 2.3 0 0 1-.36-.734 4.6 4.6 0 0 0-.265-.781l.015-.11q0-.344-.125-.593a1.9 1.9 0 0 0-.343-.532.3.3 0 0 0 .015-.109.62.62 0 0 0-.125-.375q.031-.36.188-.562.172-.204.375-.453V15.5q0-.672.109-1.312.125-.657.125-1.313 0-.405-.062-.719a.4.4 0 0 0-.126-.015.17.17 0 0 0-.124.046.3.3 0 0 0-.079.079.6.6 0 0 1-.078.093q-.03.048-.11.063-.264-.047-.343-.25a1.3 1.3 0 0 1-.078-.453q0-.141.016-.281l.03-.297q.595-.656 1.423-1.22a9.6 9.6 0 0 1 1.64-.905.4.4 0 0 1 .11-.016q.062 0 .11.031.046.016.109.016.046 0 .078-.031.156 0 .218-.094a1 1 0 0 1 .172-.188q.11.078.188.079a.47.47 0 0 0 .312-.141A.67.67 0 0 1 67 8.5q.72-.125 1.406-.203a5.2 5.2 0 0 0 1.39-.36.9.9 0 0 0 .313.094q.157.016.313.016.172 0 .375-.031a.6.6 0 0 0 .344-.188q.5.063 1.062.047.578-.015 1.14.016.579.03 1.11.156.531.124.938.453.03.109.078.203.047.094.047.203m11.984 0q0 .095-.094.156a1.5 1.5 0 0 1-.187.126q-.094.062-.203.14a.4.4 0 0 0-.125.188h-.141q-.093 0-.094.062h-.047q-.14 0-.187-.078-.048-.093-.203-.094-.39 0-.781.016-.376 0-.766.015-1.078 0-2.125.079a7.1 7.1 0 0 0-2.047.437.2.2 0 0 1-.078.016q-.079 0-.094-.063 0-.062-.078-.062-.219 0-.406.047-.187.046-.406.062-.25.219-.579.36-.312.14-.656.28a7 7 0 0 0-.64.282q-.313.141-.547.375.03.188.046.375.032.173.032.344 0 .672-.125 1.328a7 7 0 0 0-.125 1.297v.234q0 .11.015.235.032.078.11.109.093.015.156.062.202-.14.406-.218.219-.094.438-.172.234-.094.437-.172.22-.094.422-.219h.438q.172-.125.406-.187a.43.43 0 0 0 .312-.282q.031.032.063.032h.062q.188 0 .375-.079l.407-.156q.202-.093.406-.172.203-.078.422-.078.047 0 .078.016h.094a.6.6 0 0 1 .265-.235 2 2 0 0 1 .36-.156l.375-.125q.203-.062.343-.156h.063q.094 0 .14.047.063.03.141.062a1.63 1.63 0 0 1 .89-.28q.47-.016.97-.063.109.188.187.312.094.11.094.328a.6.6 0 0 1-.016.156 3 3 0 0 0-.266.11l-.171.094q-.079.03-.188.062-.11.016-.312.016-.126 0-.11.078.016.062-.078.078a3.4 3.4 0 0 1-.437.125 3.4 3.4 0 0 0-.438.125 16 16 0 0 0-.906.313 6.5 6.5 0 0 1-.906.25q-.39.312-.844.515-.453.188-.938.313-.515.375-1.015.703a5.6 5.6 0 0 1-1.125.531 1 1 0 0 1-.188.14.3.3 0 0 0-.14.188h-.079a.2.2 0 0 0-.078-.015.5.5 0 0 0-.343.109.6.6 0 0 1-.282.125 1.3 1.3 0 0 0-.078.406q0 .219.078.39.079.173.188.329l.25.312q.141.14.234.313a.6.6 0 0 1-.125.297 1 1 0 0 1-.187.218l-.219.22a.7.7 0 0 0-.14.28 3.3 3.3 0 0 1-.547.047 1.5 1.5 0 0 1-.36-.047 1 1 0 0 1-.328-.125 2.3 2.3 0 0 1-.36-.734 4.6 4.6 0 0 0-.265-.781l.016-.11q0-.344-.125-.593a1.9 1.9 0 0 0-.344-.532.3.3 0 0 0 .016-.109.62.62 0 0 0-.126-.375q.032-.36.188-.562.172-.204.375-.453V15.5q0-.672.11-1.312.124-.657.124-1.313 0-.405-.062-.719a.4.4 0 0 0-.125-.015.17.17 0 0 0-.125.046.3.3 0 0 0-.078.079.6.6 0 0 1-.078.093q-.032.048-.11.063-.265-.047-.344-.25a1.3 1.3 0 0 1-.078-.453q0-.141.016-.281l.031-.297q.594-.656 1.422-1.22a9.6 9.6 0 0 1 1.64-.905.4.4 0 0 1 .11-.016q.063 0 .11.031.046.016.109.016.047 0 .078-.031.156 0 .219-.094a1 1 0 0 1 .172-.188q.109.078.187.079a.47.47 0 0 0 .313-.141.67.67 0 0 1 .343-.172q.72-.125 1.407-.203a5.2 5.2 0 0 0 1.39-.36.9.9 0 0 0 .313.094q.156.016.312.016.172 0 .375-.031a.6.6 0 0 0 .344-.188q.5.063 1.063.047.578-.015 1.14.016.578.03 1.11.156.53.124.937.453.03.109.078.203.047.094.047.203"/><g clip-path="url(#a)"><path fill="#6F73D2" d="M.037 63.732c.9-2.593 2.286-5.058 3.463-7.522.139-.324.693-.324.9-.13 1.178 1.168 2.494 2.335 3.256 3.762h.07c8.45.583 16.624-6.16 22.442-11.089 6.719-5.642 12.815-12.515 15.239-20.75.138-1.038.277-2.14.277-3.243 0-.519.762-.519.831 0v.584c.277 0 .485.194.485.518-.07.714-.277 1.427-.416 2.14-.554 17.574-19.256 34.498-37.542 35.6.623 1.038 1.177 2.14 1.87 3.178.346.454-.208.908-.693.843-3.463-.454-6.58-2.01-9.767-3.177-.277-.065-.554-.325-.415-.714m9.282 2.594c-.416-.843-.693-1.686-1.178-2.529a.47.47 0 0 1 .277-.648c0-.195.139-.325.347-.39 16.554-2.593 29.992-13.163 34.98-27.494-3.256 5.642-8.243 10.57-13.161 14.72-3.602 3.048-7.412 5.771-11.568 8.04-3.255 1.752-7.342 3.373-11.083 2.27.208.52-.623.779-.9.39-.9-1.103-1.801-2.14-2.77-3.113-.97 2.01-2.01 4.02-2.771 6.095 2.562.908 5.125 2.076 7.827 2.66"/></g><defs><clipPath id="a"><path fill="#fff" d="M47 24H0v44h47z"/></clipPath></defs></svg>