<svg xmlns="http://www.w3.org/2000/svg" width="16" height="13" fill="none"><path fill="#40526D" d="M2.69 12.122 14.004.808 13.195 0 1.882 11.314zM8 1.118a7.8 7.8 0 0 1 2.768.501L9.328 3.06a3.335 3.335 0 0 0-4.385 4.385l-1.91 1.908A7.9 7.9 0 0 1 .667 6.118c1.153-2.926 4-5 7.333-5"/><path fill="#40526D" d="M8 4.118q.129 0 .253.016L6.016 6.371A1.997 1.997 0 0 1 8 4.118M9.95 5.67 7.552 8.068q.216.05.448.05A1.997 1.997 0 0 0 9.95 5.67"/><path fill="#40526D" d="M8 9.452a3.3 3.3 0 0 1-1.484-.348l-1.45 1.449A7.8 7.8 0 0 0 8 11.118c3.334 0 6.18-2.073 7.334-5a7.9 7.9 0 0 0-2.496-3.336l-1.852 1.852A3.335 3.335 0 0 1 8 9.451"/></svg>