<svg xmlns="http://www.w3.org/2000/svg" width="90" height="67" fill="none"><path fill="#6F73D2" d="M13.61 11.938q0 .36-.094.671l-.203.641-.079.25a2 2 0 0 1-.312.422q-.188.219-.344.39-.36.406-.719.829a6 6 0 0 0-.64.875h-.031a.17.17 0 0 0-.094.03.5.5 0 0 0-.063.079l-.062.063q-.031.015-.094 0a.8.8 0 0 1-.36.406 1.8 1.8 0 0 0-.421.312.7.7 0 0 1-.063.219.36.36 0 0 0-.047.188q-.563.327-1.062.75l-.953.859q-.297.078-.485.25-.171.172-.359.375-.406.203-.812.437-.39.236-.704.578a2.5 2.5 0 0 0-.687.297q-.312.203-.64.407a.7.7 0 0 1-.204.093q-.093.048-.203.094-.11.047-.11.156h-.062q-.125 0-.187.078-.048.079-.203.063a1.2 1.2 0 0 1-.391.266l-.438.203-.437.218a1.5 1.5 0 0 0-.36.313q-.265.03-.484.156a.9.9 0 0 1-.469.125H.672a1.4 1.4 0 0 0-.219-.203 3 3 0 0 1-.219-.172.8.8 0 0 1-.171-.203.6.6 0 0 1-.063-.297v-.078q.735-.297 1.234-.844.032 0 .047-.015h.047q.079 0 .14.015.063.032.126.032a.24.24 0 0 0 .093-.032q.344-.11.657-.297a9 9 0 0 0 .625-.39l.625-.375a3.7 3.7 0 0 1 .656-.281q.5-.407 1.031-.782.532-.375 1.125-.672a.7.7 0 0 1 .11-.203q.078-.062.046-.203.031.015.079.016.124 0 .203-.063.25-.171.468-.359l.454-.39.953-.829q.484-.421.984-.781a.4.4 0 0 1 .125-.234q.094-.094.094-.266a.62.62 0 0 0 .312-.25.6.6 0 0 1 .36-.25q.125-.25.265-.469a.77.77 0 0 1 .407-.312q.093-.25.203-.453.124-.204.219-.391.108-.203.187-.422.078-.219.078-.531 0-.345-.219-.469a1.3 1.3 0 0 0-.515-.187 10 10 0 0 0-.625-.079 1.1 1.1 0 0 1-.5-.156q-.095.015-.078.125.03.11-.032.14h-.156q-.202 0-.406.063l-.39.11-.391.094q-.203.046-.407.03l-.53.282a6 6 0 0 1-.454.234 4 4 0 0 1-.484.204q-.25.094-.594.171-.172.032-.219.11a.5.5 0 0 1-.172.156.7.7 0 0 1-.14-.11.35.35 0 0 0-.141-.109.24.24 0 0 0-.14.094 2 2 0 0 0-.094.14l-.094.126a.15.15 0 0 1-.11.046.5.5 0 0 1-.265-.078 2 2 0 0 1-.203-.203l-.188-.219a.5.5 0 0 0-.203-.171.8.8 0 0 0 .063-.313q0-.172-.016-.312.188-.203.344-.407a1.04 1.04 0 0 1 .39-.312q.422-.5.782-.938.36-.453.625-.921.28-.485.453-1.016.188-.547.234-1.235a.28.28 0 0 1 .047-.171.2.2 0 0 0 .063-.157.53.53 0 0 0-.063-.265A.6.6 0 0 0 7 6.156l-.125-.187a.46.46 0 0 1-.031-.25.83.83 0 0 0-.563-.219.8.8 0 0 0-.281.063 8 8 0 0 0-.328.14 2.5 2.5 0 0 0-.313.188 7 7 0 0 0-.25.156 2 2 0 0 0-.187.14l-.156.125-.703.61a12 12 0 0 0-.641.625v.297a.47.47 0 0 0-.235.125.7.7 0 0 0-.124.234 2 2 0 0 0-.079.281q-.03.14-.078.25l.016.047v.031q0 .016-.031.016a.1.1 0 0 1-.047-.015q-.031-.032-.063-.032H2.75a1.02 1.02 0 0 1-.422.547q-.28.188-.578.36a2 2 0 0 1-.547-.235 13 13 0 0 1-.469-.328 1.1 1.1 0 0 1-.109-.5q0-.281.078-.531.079-.266.14-.547.235-.187.391-.438l.313-.5q.171-.249.36-.453.203-.219.515-.328.156-.25.39-.437a4 4 0 0 1 .485-.36q.266-.171.515-.343.25-.172.438-.391h.297a.33.33 0 0 1 .187-.219q.141-.078.282-.125a2 2 0 0 0 .28-.14q.126-.095.141-.297.063-.015.063.062a1 1 0 0 1 .313-.047q.202 0 .39.047.204.047.39.047a1 1 0 0 0 .298-.047.2.2 0 0 0 .078.14q.079.032.172.063.109.015.203.031a.28.28 0 0 1 .172.047q-.016.157.093.188.126.015.188.094a.3.3 0 0 1 .062.187q.015.109.11.203l.172.188q.093.078.172.187.28.39.437.969.156.578.156 1.063 0 .03-.031.187a1 1 0 0 1-.047.172 7 7 0 0 1-.5 1.5q-.328.688-.703 1.39.094.015.172.032h.172q.343 0 .625-.094.296-.093.61-.219.155.047.343.047.266 0 .5-.047.25-.047.515-.047.141 0 .266.063a.8.8 0 0 0 .313.062q.156 0 .234-.015.25.124.531.25.297.125.563.265.281.141.515.329.25.172.438.406a.6.6 0 0 1 .078.11 1 1 0 0 1 .063.093.7.7 0 0 1 .03.25 4 4 0 0 1 .016.265m13.796-.704q0 .985-.187 1.922a25 25 0 0 1-.422 1.86 1.4 1.4 0 0 0-.266.359.77.77 0 0 0-.078.422.34.34 0 0 0-.25.234 3 3 0 0 1-.14.328q-.267.172-.47.407-.187.218-.405.437a2 2 0 0 0-.125.14.4.4 0 0 1-.11.126q-.141.109-.312.203-.173.078-.313.172-.312.203-.61.422-.296.234-.577.5-.672.266-1.297.593-.61.345-1.219.75h-.39a4 4 0 0 1-.376.203 1 1 0 0 1-.406.079 3 3 0 0 1-.687.328q-.376.14-.766.25t-.781.203-.735.219a1 1 0 0 1-.156-.047.6.6 0 0 0-.14-.016.9.9 0 0 0-.407.094q-.172.094-.375.14a.2.2 0 0 1-.14.016h-.141q-.406 0-.734-.14a4.6 4.6 0 0 0-.703-.204 1.5 1.5 0 0 0-.266-.39l-.344-.375a2.6 2.6 0 0 1-.297-.39.9.9 0 0 1-.172-.423V19.5q0-.173-.03-.344a4 4 0 0 0-.079-.343q.11-.282.219-.594.109-.313.234-.61.126-.312.281-.593.156-.282.391-.485a2 2 0 0 1 .25-.625q.156-.297.36-.562l.374-.563q.188-.28.313-.61.078.016.094-.03a.4.4 0 0 0 .046-.094.4.4 0 0 1 .063-.094q.031-.03.125 0 0-.156.063-.25.062-.109.124-.203a1 1 0 0 0 .126-.187.6.6 0 0 0 .078-.25.4.4 0 0 0 .172-.141 2 2 0 0 0 .14-.188 4 4 0 0 1 .125-.203.4.4 0 0 1 .188-.14q.03-.203.109-.344a3 3 0 0 1 .188-.281q.108-.126.203-.25a1.1 1.1 0 0 0 .172-.313.24.24 0 0 1 .218-.047q.219-.437.516-.828.296-.39.61-.765l.624-.75q.313-.39.547-.813.219-.125.406-.297a1.6 1.6 0 0 0 .328-.422 16 16 0 0 1-.546-1.14 3.3 3.3 0 0 1-.235-1.266q0-.11.016-.219l.031-.234q.266-.36.516-.594.25-.25.734-.25.47 0 .906.172.453.172.922.172.235.172.469.312.25.126.516.25l.203.079q.125.03.218.078a2 2 0 0 1 .188.14q.109.078.203.157.625.515 1.156 1.125.547.593 1.078 1.218v.032q0 .249.11.39.109.125.234.297 0 .281.078.5t.203.453v.453q.015.219.079.438.062.156.078.234a2 2 0 0 1 .062.563zm-1.265-.015q0-.453-.063-.828a15 15 0 0 0-.281-1.578 3 3 0 0 0-.25-.72 2.3 2.3 0 0 0-.422-.624 2.3 2.3 0 0 0-.625-.485h-.047q-.047 0-.11.079-.045.062-.218.062a.6.6 0 0 1-.187-.031.22.22 0 0 0-.157-.032h-.062q-.188.095-.328.141a.8.8 0 0 1-.36.016 5 5 0 0 1-.5.406 2 2 0 0 1-.562.266 1.9 1.9 0 0 1-.36.5 1.2 1.2 0 0 1-.53.28.9.9 0 0 1-.188.329 2 2 0 0 1-.25.234 7 7 0 0 1-.297.188q-.156.093-.282.203a1.2 1.2 0 0 0-.203.266.8.8 0 0 1-.187.234 9 9 0 0 0-.313.297 3 3 0 0 0-.25.328l-.218.344a.95.95 0 0 0-.11.39 2.1 2.1 0 0 0-.718.688l-.532.844a3 3 0 0 1-.218.28l-.22.25a.34.34 0 0 0-.062.142q0 .078.016.156-.219.156-.375.375a5 5 0 0 0-.297.437 6 6 0 0 1-.281.469 1.8 1.8 0 0 1-.344.39 7 7 0 0 1-.297.641 1.6 1.6 0 0 1-.422.532q-.266.656-.515 1.296a6.3 6.3 0 0 0-.328 1.344q.108.11.218.188.11.093.219.203.015.015.063.015.078 0 .109-.047a.15.15 0 0 1 .11-.046h.03l.032.015q.015.11.094.157a.5.5 0 0 0 .187.062q.11.031.219.047.11.015.172.078.344-.11.765-.172.423-.047.828-.125.422-.062.813-.187t.672-.36h.172q.156 0 .218.063a2.5 2.5 0 0 1 .594-.453q.297-.156.703-.172a4.8 4.8 0 0 1 1.344-.875q.765-.345 1.453-.75.078-.032.078-.11 0-.093.078-.109a.25.25 0 0 1 .125 0h.125q.547-.53 1.047-1.078.516-.562.907-1.219 0-.11.015-.187a.6.6 0 0 0 .031-.172.6.6 0 0 0-.047-.14A4.9 4.9 0 0 0 26 12.624q.14-.72.14-1.406m-3.61-5.625a2.3 2.3 0 0 0-.484-.25 1.3 1.3 0 0 0-.531-.125q-.266 0-.391.156-.11.141-.11.39 0 .142.079.235.078.078.031.313.047.03.125.03a.9.9 0 0 0 .36-.077q.171-.078.312-.188a8 8 0 0 0 .297-.25q.156-.141.312-.234m20 1.547a1.6 1.6 0 0 0-.156.359q-.063.188-.156.375-.078.188-.203.344a.6.6 0 0 1-.313.203v.11q0 .155-.078.234-.063.078-.031.28a9.3 9.3 0 0 0-.985 1.235q-.437.641-.984 1.219a.2.2 0 0 0-.094-.016q-.11 0-.172.063a.15.15 0 0 1-.109.047.1.1 0 0 1-.078-.031 9 9 0 0 0-.469.64q-.219.328-.453.64-.234.314-.5.626a6 6 0 0 1-.547.562q-.171.406-.437.766-.25.36-.532.703-.28.344-.53.703-.252.36-.392.781a.17.17 0 0 0-.124.047q-.032.032-.11.032a6 6 0 0 1-.39.796q-.204.36-.407.735-.187.375-.328.781-.125.406-.125.906v.188q0 .094.016.172.156.172.343.328a.49.49 0 0 1 .188.39q0 .141-.062.282a.7.7 0 0 0-.063.297q-.25.015-.484.078a2.5 2.5 0 0 1-.47.078 1.6 1.6 0 0 0-.452-.219 11 11 0 0 0-.5-.11 1.2 1.2 0 0 1-.125-.265.5.5 0 0 0-.157-.234q.08-.235.094-.485.015-.25 0-.5v-.5q.016-.25.078-.484.126-.14.203-.328a3 3 0 0 0 .141-.375q.062-.204.125-.39.063-.189.14-.36.048 0 .063-.032a1 1 0 0 0 .047-.078q.015-.046.047-.062.031-.031.125-.016.282-.765.75-1.422t.875-1.375a.8.8 0 0 0 .219-.156q.11-.093.218-.172.079-.202.204-.375l.265-.344q.14-.171.25-.343.126-.172.188-.39a.6.6 0 0 0 .265-.22q.11-.156.188-.312.093-.156.203-.297a.52.52 0 0 1 .297-.187.9.9 0 0 1 .14-.407q.126-.156.266-.297.14-.156.25-.312a.9.9 0 0 0 .125-.438q.047.047.078.047.032 0 .047-.015.031-.032.11-.032.109-.219.265-.421.156-.204.313-.391.156-.204.297-.406.14-.218.234-.47a.5.5 0 0 0 .203-.062.8.8 0 0 1 .188-.109v-.11q0-.14.062-.265a.6.6 0 0 0 .063-.266.2.2 0 0 0-.016-.078.25.25 0 0 0-.156-.094 1 1 0 0 0-.172-.015.5.5 0 0 0-.188.094A1 1 0 0 1 39 8.14h-.672a2 2 0 0 1-.547.265q-.296.079-.61.14-.296.064-.577.142-.282.078-.5.234-.078-.094-.266-.094-.281 0-.562.11a2.2 2.2 0 0 1-.563.109v.11q0 .25.016.5.015.25.015.5 0 .124-.015.234 0 .109-.016.218-.03.172-.094.204a.3.3 0 0 0-.093.124q-.032.11-.047.204a.6.6 0 0 1-.032.187 1.3 1.3 0 0 1-.218.406 2.3 2.3 0 0 1-.328.297 11 11 0 0 1-.36.281 5 5 0 0 0-.36.266q-.077 0-.062.094a.12.12 0 0 1-.047.125 2.2 2.2 0 0 1-.5.297 9 9 0 0 1-.624.265q-.33.126-.657.266a5 5 0 0 0-.562.297.47.47 0 0 0-.266-.156 1.3 1.3 0 0 0-.281-.032q-.25 0-.516.079a.2.2 0 0 0-.078-.141.3.3 0 0 0-.156-.078 1 1 0 0 0-.172-.047l-.172-.031a1.93 1.93 0 0 1-.5-.891 4.7 4.7 0 0 1-.125-1.047q0-.562.14-1.078a.35.35 0 0 0 .204-.14l.172-.204v-.39a1 1 0 0 0 .422-.532q.11-.328.265-.64a3 3 0 0 1 .375-.578 1.45 1.45 0 0 0 .297-.61q.157.016.172-.093a.7.7 0 0 1 .11-.235 1 1 0 0 0 .156-.156.3.3 0 0 1 .172-.125.55.55 0 0 1 .14-.313 1 1 0 0 0 .203-.312q.188-.062.375-.188.188-.124.36-.25.187-.124.359-.234t.313-.156a.5.5 0 0 1 .187-.032q.109-.015.188-.015.28 0 .53.047.266.047.548.047.062.14.203.203.156.063.25.203v.078q.015.047.015.094a.5.5 0 0 1-.015.125v.14a1.2 1.2 0 0 1-.313.22.8.8 0 0 1-.36.015q.016.234.22.375.202.125.468.187.282.047.563.063.297.015.469.015.312 0 .656-.03.36-.048.64-.173a1 1 0 0 0 .172.047q.11 0 .172.078l.125-.093a.25.25 0 0 1 .157-.063q.062 0 .156.031a.9.9 0 0 1 .36-.172q.217-.062.437-.062.234-.015.453-.016.234 0 .437-.031.204-.03.422-.11l.438-.171q.218-.094.422-.157.217-.078.406-.078.14 0 .265.032.141.015.282.015h.109q.047-.015.11-.031.14.125.25.219.125.093.218.203a.7.7 0 0 1 .14.25.85.85 0 0 1 .063.344m3.438 8.734q0 .25-.032.5-.03.25-.03.5a1.4 1.4 0 0 0-.188.344 1 1 0 0 1-.157.328 1.3 1.3 0 0 1-.218.25q-.126.093-.266.203a5 5 0 0 0-.25.234 1.2 1.2 0 0 0-.203.328q-.484.141-.672.563a10 10 0 0 0-.937.484q-.453.266-.86.578-.265-.03-.343.016-.064.047-.172.266a.3.3 0 0 1-.094-.016h-.078q-.235 0-.5.078a2.6 2.6 0 0 0-.453.219q-.266 0-.532.016-.25.015-.515.015a3 3 0 0 1-.813-.11 1.23 1.23 0 0 1-.656-.437 5.6 5.6 0 0 1-.172-.906l-.062-.922q.14-.36.328-.672.203-.312.297-.672a.6.6 0 0 0 .14-.078.7.7 0 0 1 .14-.109 1.2 1.2 0 0 1 .22-.5q.171-.219.359-.39.203-.188.375-.376a1.4 1.4 0 0 0 .297-.453.4.4 0 0 0 .219-.078q.093-.062.265-.031.126-.047.14-.156a.5.5 0 0 1 .095-.188h.062a.7.7 0 0 0 .422-.125.6.6 0 0 1 .39-.14q.095 0 .188.046.266-.125.5-.28.234-.174.516-.282h.25q.14-.016.281-.016.376 0 .688.078.328.08.624.391.438.03.688.234.25.203.531.485.032.124.047.297.032.156.14.25zm-1.516-.078a.14.14 0 0 0-.016-.063v-.093a2.4 2.4 0 0 0-.421-.235 1.4 1.4 0 0 0-.47-.14.7.7 0 0 1-.233.203 7 7 0 0 1-.266.125 4 4 0 0 0-.281.14.7.7 0 0 0-.235.204v.109q0 .203-.11.453a.6.6 0 0 0-.296.063.5.5 0 0 0-.156.171 1.6 1.6 0 0 0-.11.235 3 3 0 0 1-.109.25 1.3 1.3 0 0 1-.469-.25 1 1 0 0 0-.468-.25A2 2 0 0 0 40.5 17q-.124.14-.375.172a3 3 0 0 1-.14.5q-.095.234-.188.484-.094.25-.172.5a2 2 0 0 0-.062.516v.125q.124.03.171.11a.33.33 0 0 0 .188.109q.219-.032.422-.125.219-.078.422-.172.218-.094.422-.172a3 3 0 0 1 .453-.094q.03-.078.078-.172a.25.25 0 0 1 .14-.11.7.7 0 0 0 .297-.077q.157-.064.313-.172l.312-.188a1 1 0 0 1 .313-.125q.125-.219.265-.328a.63.63 0 0 1 .407-.125 3.5 3.5 0 0 0 .484-.875q.203-.515.203-.984M33.297 9.812v-.046a.64.64 0 0 1-.14-.391v-.14a.6.6 0 0 0 .015-.141.2.2 0 0 0-.047-.125 1.4 1.4 0 0 0-.11-.156 2 2 0 0 1-.093-.188.7.7 0 0 1-.016-.25.7.7 0 0 1-.25-.14l-.187-.22a1 1 0 0 0-.172-.187.32.32 0 0 0-.234-.094.6.6 0 0 0-.157.016 2.4 2.4 0 0 1-.328.422q-.156.156-.187.469a.8.8 0 0 0-.407.468l-.156.61q-.093.03-.125.094-.015.046-.14.015a6 6 0 0 1-.22.844 2.6 2.6 0 0 0-.14.844q0 .624.578.843.079-.062.14-.125a.23.23 0 0 1 .173-.062q.078 0 .093.062.032.047.11.047h.047q.14-.078.25-.156l.218-.172a.7.7 0 0 1 .25-.14 1 1 0 0 1 .329-.079 3 3 0 0 1 .25-.359q.157-.173.28-.344.126-.171.22-.36a1 1 0 0 0 .093-.437.3.3 0 0 0-.03-.14.4.4 0 0 1-.032-.156q0-.063.062-.063.063 0 .063-.062m30.437-.859a.66.66 0 0 0-.109.313q-.016.171-.016.312v.375q.015.173.016.344v.234a1 1 0 0 1-.094.219 1 1 0 0 0-.093.219q-.22.577-.22 1.156v.031q-.077.188-.156.344l-.124.313a1.4 1.4 0 0 0-.11.688 4 4 0 0 1-.578.999 21 21 0 0 0-.703.906 2.7 2.7 0 0 0-.61.328 5 5 0 0 0-.515.454q-.484.156-.953.359a3 3 0 0 0-.844.547q-.297.03-.594.093t-.578.188h-.187q-.141 0-.203-.062a1.6 1.6 0 0 1-.422.156q-.219.03-.438.031-.281 0-.562-.031-.266-.048-.547-.094a.94.94 0 0 0-.438-.328 13 13 0 0 1-.5-.235 4.8 4.8 0 0 1-.656-1.203 35 35 0 0 1-.422-1.328q.031-.218.11-.422.078-.219.062-.468a6 6 0 0 1 .734-1.47q.47-.67 1.063-1.28 0-.094.031-.157.047-.062.016-.187.015.015.062.015.126 0 .157-.062a.3.3 0 0 0 .015-.172q.563-.36 1.016-.828a4.4 4.4 0 0 1 1.062-.781.5.5 0 0 1 .157-.235.7.7 0 0 0 .171-.218 3 3 0 0 0 .907-.422q.406-.282.859-.5.25-.141.469-.188.234-.062.5-.125.093-.03.172-.047a1 1 0 0 1 .172-.015q.281 0 .546.11.266.093.547.093h.125l.125-.031q.266.327.672.5.095.234.219.406l.281.344q.14.156.25.359.125.188.156.453m-1.562.813a.6.6 0 0 0-.016-.141 1.5 1.5 0 0 1-.297-.125.63.63 0 0 0-.312-.078.6.6 0 0 0-.219.047q-.016-.11-.094-.156a.6.6 0 0 0-.156-.079.5.5 0 0 0-.172-.062.4.4 0 0 1-.14-.094 3 3 0 0 0-.11-.25.33.33 0 0 0-.187-.203 1.3 1.3 0 0 1-.328.234 15 15 0 0 1-.391.157 3 3 0 0 0-.375.187 1.2 1.2 0 0 0-.297.266h-.281a.65.65 0 0 1-.266.265.8.8 0 0 0-.297.235 2.3 2.3 0 0 0-.468.312q-.203.173-.407.375-.202.188-.406.39-.187.204-.406.376a4 4 0 0 1-.453.765q-.235.313-.453.641a4.6 4.6 0 0 0-.36.719q-.14.375-.14.937v.157q0 .078.015.156.204.219.328.469a.8.8 0 0 0 .453.359q.314.125.657.11.36-.016.687.078.75-.14 1.438-.454a8 8 0 0 0 1.328-.78 2 2 0 0 1 .219-.157 1.2 1.2 0 0 0 .203-.188.7.7 0 0 0 .125-.171q.062-.094.125-.172.125-.203.281-.407t.328-.375q.078-.343.203-.656.126-.328.25-.64.126-.313.203-.641a2.5 2.5 0 0 0 .094-.688q0-.078-.016-.171a1 1 0 0 0-.015-.172.62.62 0 0 0 .125-.375m15.547-1.86q0 .094-.094.157a1.5 1.5 0 0 1-.187.124q-.094.063-.204.141a.4.4 0 0 0-.125.188h-.14q-.094 0-.094.062h-.047q-.14 0-.187-.078-.048-.093-.204-.094-.39 0-.78.016-.376 0-.766.015-1.08 0-2.125.079a7.1 7.1 0 0 0-2.047.437.2.2 0 0 1-.078.016q-.08 0-.094-.063 0-.062-.078-.062-.219 0-.406.047a2.4 2.4 0 0 1-.407.062q-.25.219-.578.36-.312.14-.656.28a7 7 0 0 0-.64.282q-.314.141-.548.375.032.188.047.375.031.173.031.344 0 .672-.124 1.328-.126.641-.126 1.297v.234q0 .11.016.235a.2.2 0 0 0 .11.109q.093.015.156.062.202-.14.406-.218.219-.094.438-.172.234-.094.437-.172a3 3 0 0 0 .422-.219h.437q.172-.125.407-.187a.43.43 0 0 0 .312-.282q.031.032.063.032h.062q.188 0 .375-.079l.406-.156q.203-.093.407-.172t.421-.078q.048 0 .079.016h.093a.6.6 0 0 1 .266-.235 2 2 0 0 1 .36-.156l.374-.125q.203-.062.344-.156h.063q.093 0 .14.047.063.03.14.062a1.63 1.63 0 0 1 .891-.28q.47-.016.97-.063.109.188.187.312.094.11.094.328a.6.6 0 0 1-.016.156 3 3 0 0 0-.266.11l-.172.094q-.078.03-.187.062-.11.016-.313.016-.125 0-.109.078.015.062-.078.078a3.4 3.4 0 0 1-.438.125 3.4 3.4 0 0 0-.437.125q-.453.14-.906.313a6.5 6.5 0 0 1-.907.25q-.39.312-.843.515-.454.188-.938.313-.515.375-1.016.703a5.6 5.6 0 0 1-1.124.531 1 1 0 0 1-.188.14.3.3 0 0 0-.14.188h-.079a.2.2 0 0 0-.078-.015.5.5 0 0 0-.344.109.6.6 0 0 1-.28.125 1.3 1.3 0 0 0-.079.406q0 .219.078.39.078.173.188.329l.25.312q.14.14.234.313a.6.6 0 0 1-.125.297 1 1 0 0 1-.187.218l-.22.22a.7.7 0 0 0-.14.28 3.3 3.3 0 0 1-.547.047q-.171 0-.36-.047a1 1 0 0 1-.327-.125 2.3 2.3 0 0 1-.36-.734 4.6 4.6 0 0 0-.265-.781l.015-.11q0-.344-.125-.593a1.9 1.9 0 0 0-.343-.532.3.3 0 0 0 .015-.109.62.62 0 0 0-.125-.375q.032-.36.188-.562.172-.204.375-.453V14.5q0-.672.11-1.312.124-.657.124-1.313 0-.405-.062-.719a.4.4 0 0 0-.125-.015.17.17 0 0 0-.125.046.3.3 0 0 0-.079.079.6.6 0 0 1-.078.093q-.03.048-.109.063-.266-.047-.344-.25a1.3 1.3 0 0 1-.078-.453q0-.141.016-.281l.031-.297q.594-.656 1.422-1.22a9.6 9.6 0 0 1 1.64-.905.4.4 0 0 1 .11-.016q.062 0 .11.031.045.016.109.016.046 0 .078-.031.156 0 .219-.094a1 1 0 0 1 .171-.188q.11.079.188.079a.47.47 0 0 0 .312-.141.67.67 0 0 1 .344-.172q.72-.125 1.406-.203A5.2 5.2 0 0 0 72 6.937a.9.9 0 0 0 .313.094q.156.016.312.016.172 0 .375-.031a.62.62 0 0 0 .344-.188q.5.063 1.062.047.579-.015 1.14.016.579.03 1.11.156.531.124.938.453.03.109.078.203.047.094.047.203m11.984 0q0 .094-.094.157a1.5 1.5 0 0 1-.187.124q-.094.063-.203.141a.37.37 0 0 0-.125.188h-.14q-.095 0-.095.062h-.046q-.141 0-.188-.078-.047-.093-.203-.094-.39 0-.781.016-.375 0-.766.015-1.078 0-2.125.079a7.1 7.1 0 0 0-2.047.437.2.2 0 0 1-.078.016q-.078 0-.094-.063 0-.062-.078-.062-.219 0-.406.047a2.4 2.4 0 0 1-.406.062q-.25.219-.579.36-.312.14-.656.28a7 7 0 0 0-.64.282q-.313.141-.547.375.03.188.047.375.03.173.03.344.001.672-.124 1.328a7 7 0 0 0-.125 1.297v.234q0 .11.016.235.03.078.109.109.094.015.156.062.203-.14.406-.218.219-.094.438-.172.234-.094.437-.172.22-.094.422-.219h.438q.172-.125.406-.187a.43.43 0 0 0 .313-.282q.03.032.062.032h.063q.187 0 .374-.079l.407-.156q.202-.093.406-.172.203-.078.422-.078.047 0 .078.016h.094a.6.6 0 0 1 .265-.235 2 2 0 0 1 .36-.156l.375-.125q.203-.062.344-.156h.062q.095 0 .14.047.064.03.141.062a1.63 1.63 0 0 1 .89-.28q.47-.016.97-.063.109.188.187.312.094.11.094.328a.6.6 0 0 1-.016.156 3 3 0 0 0-.265.11l-.172.094q-.078.03-.188.062-.11.016-.312.016-.126 0-.11.078.016.062-.078.078a3.4 3.4 0 0 1-.437.125 3.4 3.4 0 0 0-.438.125q-.453.14-.906.313a6.5 6.5 0 0 1-.906.25 4 4 0 0 1-.844.515q-.453.188-.937.313-.516.375-1.016.703a5.6 5.6 0 0 1-1.125.531 1 1 0 0 1-.188.14.3.3 0 0 0-.14.188h-.078a.2.2 0 0 0-.079-.015.5.5 0 0 0-.343.109.6.6 0 0 1-.281.125 1.3 1.3 0 0 0-.079.406q0 .219.079.39.078.173.187.329l.25.312q.141.14.234.313a.6.6 0 0 1-.125.297 1 1 0 0 1-.187.218l-.219.22a.7.7 0 0 0-.14.28 3.3 3.3 0 0 1-.547.047 1.5 1.5 0 0 1-.36-.047 1 1 0 0 1-.328-.125 2.3 2.3 0 0 1-.36-.734 4.6 4.6 0 0 0-.265-.781l.016-.11q0-.344-.125-.593a1.9 1.9 0 0 0-.344-.532.3.3 0 0 0 .016-.109.62.62 0 0 0-.125-.375q.03-.36.187-.562.172-.204.375-.453V14.5q0-.672.11-1.312.124-.657.124-1.313 0-.405-.062-.719a.4.4 0 0 0-.125-.015.17.17 0 0 0-.125.046.3.3 0 0 0-.078.079.6.6 0 0 1-.078.093q-.031.048-.11.063-.265-.047-.343-.25a1.3 1.3 0 0 1-.079-.453q0-.141.016-.281l.031-.297a8 8 0 0 1 1.422-1.22 9.6 9.6 0 0 1 1.64-.905.4.4 0 0 1 .11-.016q.063 0 .11.031.046.016.109.016.047 0 .078-.031.156 0 .219-.094a1 1 0 0 1 .172-.188q.11.079.187.079a.47.47 0 0 0 .313-.141.67.67 0 0 1 .344-.172q.718-.125 1.406-.203a5.2 5.2 0 0 0 1.39-.36.9.9 0 0 0 .313.094q.156.016.312.016.172 0 .375-.031a.6.6 0 0 0 .344-.188q.5.063 1.063.047.578-.015 1.14.016.578.03 1.11.156.53.124.937.453.031.109.078.203t.047.203"/><g clip-path="url(#a)"><path fill="#6F73D2" d="M.037 62.732c.9-2.593 2.286-5.058 3.463-7.522.139-.324.693-.324.9-.13 1.178 1.168 2.494 2.335 3.256 3.762h.07c8.45.583 16.624-6.16 22.442-11.089 6.719-5.642 12.815-12.515 15.239-20.75.138-1.038.277-2.14.277-3.243 0-.519.762-.519.831 0v.584c.277 0 .485.194.485.518-.07.714-.277 1.427-.416 2.14-.554 17.574-19.256 34.498-37.542 35.6.623 1.038 1.177 2.14 1.87 3.178.346.454-.208.908-.693.843-3.463-.454-6.58-2.01-9.767-3.177-.277-.065-.554-.325-.415-.714m9.282 2.594c-.416-.843-.693-1.686-1.178-2.529a.47.47 0 0 1 .277-.648c0-.195.139-.325.347-.39 16.554-2.593 29.992-13.163 34.98-27.494-3.256 5.642-8.243 10.57-13.161 14.72-3.602 3.048-7.412 5.771-11.568 8.04-3.255 1.752-7.342 3.373-11.083 2.27.208.52-.623.779-.9.39-.9-1.103-1.801-2.14-2.77-3.113-.97 2.01-2.01 4.02-2.771 6.095 2.562.908 5.125 2.076 7.827 2.66"/></g><defs><clipPath id="a"><path fill="#fff" d="M47 23H0v44h47z"/></clipPath></defs></svg>