<svg xmlns="http://www.w3.org/2000/svg" width="125" height="125" fill="none"><path fill="#ECF5FB" fill-rule="evenodd" d="M62.5 125c34.518 0 62.5-27.982 62.5-62.5S97.018 0 62.5 0 0 27.982 0 62.5 27.982 125 62.5 125" clip-rule="evenodd"/><path stroke="#B5D9F1" stroke-width="1.25" d="M27.778 12.5a2.083 2.083 0 1 0 0-4.167 2.083 2.083 0 0 0 0 4.167Z" clip-rule="evenodd"/><path stroke="#B5D9F1" stroke-linecap="round" stroke-width="1.25" d="m52.92 15.42 3.245 3.245m-.115-3.245-3.244 3.245"/><path stroke="#B5D9F1" stroke-dasharray="1 6 164 5" stroke-linecap="round" stroke-width="1.25" d="M29.861 98.611h68.75"/><path fill="#3598DB" fill-opacity=".1" fill-rule="evenodd" d="M67.481 57.843c4.1 2.362 9.176 2.381 13.303.08l2.636 2.336v3.671h3.678l1.226 1.286v3.61h3.23l2.604 2.448h5.201v-5.192l-13.374-13.35c2.87-5.124 2.131-11.72-2.231-16.076a13.48 13.48 0 0 0-11.268-3.833" clip-rule="evenodd"/><path stroke="#3598DB" stroke-dasharray="169 7" stroke-linecap="round" stroke-opacity=".7" stroke-width="1.25" d="M67.481 57.843c4.1 2.362 9.176 2.381 13.303.08l2.636 2.336v3.671h3.678l1.226 1.286v3.61h3.23l2.604 2.448h5.201v-5.192l-13.374-13.35c2.87-5.124 2.131-11.72-2.231-16.076a13.48 13.48 0 0 0-11.268-3.833"/><g filter="url(#a)"><path fill="#3598DB" fill-opacity=".1" fill-rule="evenodd" d="M76.736 43.433c0-7.342-5.986-13.291-13.368-13.291S50 36.09 50 43.432c0 6.083 4.115 11.199 9.722 12.777v2.93l-2.43 2.415 2.43 2.419v2.416l-2.43 2.417 2.43 2.417v3.624l3.646 3.625 3.646-3.625V56.21c5.607-1.578 9.722-6.694 9.722-12.777" clip-rule="evenodd"/></g><path stroke="#3598DB" stroke-dasharray="181 7 1 4" stroke-linecap="round" stroke-opacity=".7" stroke-width="1.25" d="M76.736 43.433c0-7.342-5.986-13.291-13.368-13.291S50 36.09 50 43.432c0 6.083 4.115 11.199 9.722 12.777v2.93l-2.43 2.415 2.43 2.419v2.416l-2.43 2.417 2.43 2.417v3.624l3.646 3.625 3.646-3.625V56.21c5.607-1.578 9.722-6.694 9.722-12.777Z" clip-rule="evenodd"/><path stroke="#3598DB" stroke-linecap="round" stroke-linejoin="round" stroke-opacity=".7" stroke-width="1.25" d="M65.939 41.967a2.572 2.572 0 0 1-5.142 0 2.572 2.572 0 0 1 5.142 0" clip-rule="evenodd"/><path stroke="#3598DB" stroke-linecap="round" stroke-linejoin="round" stroke-opacity=".5" stroke-width="1.25" d="M63.368 41.967v-12.22c0-2.62 2.303-4.747 5.142-4.747 2.838 0 5.141 2.126 5.141 4.746v2.39"/><g filter="url(#b)"><path fill="#B5D9F1" fill-rule="evenodd" d="M43.176 73.12c4.1 2.363 9.176 2.382 13.303.081l2.636 2.335v3.672h3.678l1.226 1.285v3.61h3.23l2.604 2.449h5.2V81.36L61.68 68.01c2.869-5.124 2.13-11.721-2.232-16.076a13.48 13.48 0 0 0-11.267-3.833" clip-rule="evenodd"/></g><path stroke="#264887" stroke-dasharray="169 7" stroke-linecap="round" stroke-width="1.25" d="M43.176 73.12c4.1 2.363 9.176 2.382 13.303.081l2.636 2.335v3.672h3.678l1.226 1.285v3.61h3.23l2.604 2.449h5.2V81.36L61.68 68.01c2.869-5.124 2.13-11.721-2.232-16.076a13.48 13.48 0 0 0-11.267-3.833"/><g filter="url(#c)"><path fill="#fff" fill-rule="evenodd" d="M52.43 58.71c0-7.341-5.986-13.29-13.367-13.29s-13.369 5.949-13.369 13.29c0 6.083 4.115 11.199 9.723 12.777v2.93l-2.43 2.415 2.43 2.419v2.416l-2.43 2.417 2.43 2.416v3.625l3.645 3.625 3.646-3.625V71.487c5.608-1.578 9.723-6.694 9.723-12.777" clip-rule="evenodd"/></g><path stroke="#264887" stroke-dasharray="181 7 1 4" stroke-linecap="round" stroke-width="1.25" d="M52.43 58.71c0-7.341-5.986-13.29-13.367-13.29s-13.369 5.949-13.369 13.29c0 6.083 4.115 11.199 9.723 12.777v2.93l-2.43 2.415 2.43 2.419v2.416l-2.43 2.417 2.43 2.416v3.625l3.645 3.625 3.646-3.625V71.487c5.608-1.578 9.723-6.694 9.723-12.777Z" clip-rule="evenodd"/><path stroke="#264887" stroke-linecap="round" stroke-linejoin="round" stroke-width="1.25" d="M41.633 57.245a2.572 2.572 0 0 1-5.141 0 2.572 2.572 0 0 1 5.141 0" clip-rule="evenodd"/><path stroke="#D32D27" stroke-linecap="round" stroke-linejoin="round" stroke-width="1.25" d="M39.063 57.245V45.024c0-2.62 2.303-4.746 5.141-4.746s5.142 2.126 5.142 4.746v2.39"/><path fill="#D75E59" fill-rule="evenodd" d="m112.8 24.237-2.186-.753 3.748-13.009 3.481 1.199zm-4.37 2.976q.32-.93.977-1.244.656-.315 1.561-.004.892.308 1.197.974.305.667-.003 1.559-.306.892-.97 1.246t-1.543.052q-.892-.308-1.215-.98-.324-.675-.004-1.603M10.652 28.27l-1.21.564-3.662-6.908 1.927-.899zm-.62 2.989q-.24-.514-.094-.909.146-.394.647-.628.494-.23.888-.075t.624.648q.23.495.097.907-.134.414-.62.64-.495.231-.899.081t-.644-.664m75.383-13.877-1.168-.647 3.437-7.023 1.86 1.03zm-2.783 1.255q.275-.496.68-.61.405-.112.889.155.476.264.582.674.107.41-.157.886t-.677.612-.883-.126q-.476-.264-.593-.68-.116-.414.16-.911" clip-rule="evenodd"/><path stroke="#B5D9F1" stroke-linecap="round" stroke-linejoin="round" stroke-width="1.25" d="M105.556 50.694h4.167v4.167h-4.167z"/><defs><filter id="a" width="27.986" height="49.837" x="49.375" y="29.517" color-interpolation-filters="sRGB" filterUnits="userSpaceOnUse"><feFlood flood-opacity="0" result="BackgroundImageFix"/><feBlend in="SourceGraphic" in2="BackgroundImageFix" result="shape"/><feColorMatrix in="SourceAlpha" result="hardAlpha" values="0 0 0 0 0 0 0 0 0 0 0 0 0 0 0 0 0 0 127 0"/><feOffset dx="5" dy="-1"/><feComposite in2="hardAlpha" k2="-1" k3="1" operator="arithmetic"/><feColorMatrix values="0 0 0 0 0.709804 0 0 0 0 0.85098 0 0 0 0 0.945098 0 0 0 1 0"/><feBlend in2="shape" result="effect1_innerShadow"/></filter><filter id="b" width="33.128" height="39.812" x="42.551" y="47.365" color-interpolation-filters="sRGB" filterUnits="userSpaceOnUse"><feFlood flood-opacity="0" result="BackgroundImageFix"/><feBlend in="SourceGraphic" in2="BackgroundImageFix" result="shape"/><feColorMatrix in="SourceAlpha" result="hardAlpha" values="0 0 0 0 0 0 0 0 0 0 0 0 0 0 0 0 0 0 127 0"/><feOffset dx="5" dy="-1"/><feComposite in2="hardAlpha" k2="-1" k3="1" operator="arithmetic"/><feColorMatrix values="0 0 0 0 0.760784 0 0 0 0 0.878431 0 0 0 0 0.956863 0 0 0 1 0"/><feBlend in2="shape" result="effect1_innerShadow"/></filter><filter id="c" width="27.986" height="49.837" x="25.07" y="44.794" color-interpolation-filters="sRGB" filterUnits="userSpaceOnUse"><feFlood flood-opacity="0" result="BackgroundImageFix"/><feBlend in="SourceGraphic" in2="BackgroundImageFix" result="shape"/><feColorMatrix in="SourceAlpha" result="hardAlpha" values="0 0 0 0 0 0 0 0 0 0 0 0 0 0 0 0 0 0 127 0"/><feOffset dx="5" dy="-1"/><feComposite in2="hardAlpha" k2="-1" k3="1" operator="arithmetic"/><feColorMatrix values="0 0 0 0 0.709804 0 0 0 0 0.85098 0 0 0 0 0.945098 0 0 0 1 0"/><feBlend in2="shape" result="effect1_innerShadow"/></filter></defs></svg>