<svg xmlns="http://www.w3.org/2000/svg" width="19" height="17" fill="none"><g fill="#fff" clip-path="url(#a)"><path d="M17.437.803H4.882c-.404 0-.791.138-1.076.384s-.446.58-.446.928v10.82c0 .347.16.68.446.927.285.246.672.384 1.076.384h12.555c.404 0 .791-.138 1.076-.384s.446-.58.446-.928V2.114c0-.347-.16-.68-.446-.927a1.65 1.65 0 0 0-1.076-.384M5.262 12.934a.4.4 0 0 1-.269-.096.3.3 0 0 1-.111-.231V2.443c0-.087.04-.17.111-.232a.4.4 0 0 1 .27-.096h11.794c.1 0 .198.034.269.096a.3.3 0 0 1 .111.232v10.164c0 .086-.04.17-.111.231a.4.4 0 0 1-.27.096z"/><path d="M15.535 15.23H2.6a.4.4 0 0 1-.269-.097.3.3 0 0 1-.111-.231V3.754c0-.174-.08-.34-.223-.464a.83.83 0 0 0-.538-.192.83.83 0 0 0-.538.192.61.61 0 0 0-.223.464v11.475c0 .348.16.682.446.928.285.246.672.384 1.076.384h13.316a.83.83 0 0 0 .538-.192.61.61 0 0 0 .223-.464c0-.174-.08-.34-.223-.463a.83.83 0 0 0-.538-.193"/></g><defs><clipPath id="a"><path fill="#fff" d="M.697.803H18.96v15.738H.697z"/></clipPath></defs></svg>