<svg xmlns="http://www.w3.org/2000/svg" width="36" height="36" fill="none"><rect width="36" height="36" fill="#E7F7F2" rx="3"/><g clip-path="url(#a)"><path fill="#E7F7F2" d="M6 6h24v24H6z"/><path fill="#008A63" d="M14.3 19.5a.5.5 0 0 0 .5-.468c.052-.882.18-1.758.382-2.618a.5.5 0 0 0-.79-.514 5.5 5.5 0 0 0-1.961 2.973.5.5 0 0 0 .484.625zm6.4-.468a.5.5 0 0 0 .5.468h1.389a.5.5 0 0 0 .484-.625 5.5 5.5 0 0 0-1.965-2.975.5.5 0 0 0-.792.512c.203.86.332 1.737.384 2.62m-3.31-4.224a9.7 9.7 0 0 0-1.1 4.154.5.5 0 0 0 .5.538h1.93a.5.5 0 0 0 .5-.538 9.7 9.7 0 0 0-1.1-4.154.1.1 0 0 0-.073-.044c-.1-.007-.19-.014-.287-.014q-.145.002-.287.014a.09.09 0 0 0-.083.044m-2.583 6.657a.5.5 0 0 0-.5-.465h-1.392a.5.5 0 0 0-.484.625 5.5 5.5 0 0 0 1.987 3 .5.5 0 0 0 .79-.516 15.7 15.7 0 0 1-.401-2.644m3.293 4.243a10.4 10.4 0 0 0 1.1-4.166.5.5 0 0 0-.5-.542h-1.906a.5.5 0 0 0-.5.542c.07 1.45.446 2.87 1.1 4.166a.05.05 0 0 0 .043.027c.1.007.2.015.307.015s.205-.008.307-.015q.016 0 .028-.006a.05.05 0 0 0 .021-.021"/><path fill="#008A63" d="M26.8 11.175a.5.5 0 0 1-.3-.458V8a2 2 0 0 0-2-2h-13A3.5 3.5 0 0 0 8 9.5V27a3 3 0 0 0 3 3h15a2 2 0 0 0 2-2V13a1.99 1.99 0 0 0-1.2-1.825M10 9.5A1.5 1.5 0 0 1 11.5 8H24a.5.5 0 0 1 .5.5v2a.5.5 0 0 1-.5.5H11.5A1.5 1.5 0 0 1 10 9.5m7.75 17.75a7 7 0 1 1 7-7 7.01 7.01 0 0 1-7 7"/><path fill="#008A63" d="M21.191 21a.5.5 0 0 0-.5.465q-.087 1.337-.4 2.639a.5.5 0 0 0 .79.516 5.5 5.5 0 0 0 1.987-3 .5.5 0 0 0-.483-.62z"/></g><defs><clipPath id="a"><path fill="#fff" d="M6 6h24v24H6z"/></clipPath></defs></svg>