<svg xmlns="http://www.w3.org/2000/svg" width="14" height="14" fill="none"><path fill="#374353" d="M.333 11.233c0 .646.256 1.264.71 1.72a2.42 2.42 0 0 0 1.714.713h6.465a2.42 2.42 0 0 0 1.714-.712 2.44 2.44 0 0 0 .71-1.72V7.177a.81.81 0 0 0-.497-.753.81.81 0 0 0-.885.177l-3.652 3.626a2.02 2.02 0 0 1-2.312.387 2 2 0 0 1-.654-.51 2.12 2.12 0 0 1 .194-2.838L7.404 3.74a.81.81 0 0 0 0-1.151.8.8 0 0 0-.574-.244H2.79a2.42 2.42 0 0 0-1.714.713 2.44 2.44 0 0 0-.71 1.72z"/><path fill="#374353" d="M4.628 9.4a1.09 1.09 0 0 0 1.54 0l4.928-4.93a.14.14 0 0 1 .198 0l1.056 1.056a.561.561 0 0 0 .924-.345l.29-4.138a.56.56 0 0 0-.58-.58l-4.138.29a.561.561 0 0 0-.346.924l1.056 1.056a.14.14 0 0 1 0 .198L4.628 7.86a1.09 1.09 0 0 0 0 1.54"/></svg>