<svg xmlns="http://www.w3.org/2000/svg" width="16" height="16" fill="none"><g clip-path="url(#a)"><rect width="16" height="16" fill="#D32D27" rx="1"/><path fill="#fff" fill-rule="evenodd" d="M2.885 9.18a1.18 1.18 0 1 0 0-2.36 1.18 1.18 0 0 0 0 2.36m3.935 0a1.18 1.18 0 1 0 0-2.36 1.18 1.18 0 0 0 0 2.36m3.934 0a1.18 1.18 0 1 0 0-2.36 1.18 1.18 0 0 0 0 2.36m2.754-4.197c0-.144.118-.262.262-.262h.263c.145 0 .262.118.262.262v6.033a.26.26 0 0 1-.262.263h-.263a.26.26 0 0 1-.262-.263z" clip-rule="evenodd"/></g><defs><clipPath id="a"><path fill="#fff" d="M0 0h16v16H0z"/></clipPath></defs></svg>