<svg xmlns="http://www.w3.org/2000/svg" width="18" height="20" fill="none"><path stroke="#6F73D2" d="M.542 10.31v.007c-.018 2.106.905 3.747 2.434 5.205 1.492 1.421 3.53 2.637 5.774 3.904 2.245-1.267 4.282-2.483 5.774-3.904 1.53-1.458 2.452-3.099 2.434-5.205v-.008l.04-6.23L8.75.544.502 4.079z"/><path fill="#6F73D2" stroke="#6F73D2" stroke-width=".5" d="m14.317 5.864.153.065-.001.166-.027 4.1c.013 1.514-.662 2.679-1.695 3.663-1.026.977-2.42 1.792-3.874 2.61l-.123.069-.123-.07c-1.454-.817-2.848-1.632-3.874-2.609-1.033-.984-1.708-2.15-1.695-3.663l-.027-4.1V5.93l.152-.065L8.652 3.52l.098-.042.098.042z"/><path fill="#fff" stroke="#6F73D2" stroke-width=".235" d="M5.53 10.368c.592 0 1.072-.485 1.072-1.08s-.48-1.08-1.073-1.08-1.072.484-1.072 1.08c0 .595.48 1.08 1.072 1.08Zm3.203 0c.593 0 1.072-.485 1.072-1.08s-.48-1.08-1.072-1.08c-.594 0-1.073.484-1.073 1.08 0 .595.48 1.08 1.073 1.08Zm3.199 0c.593 0 1.072-.485 1.072-1.08s-.48-1.08-1.072-1.08c-.594 0-1.073.484-1.073 1.08 0 .595.48 1.08 1.073 1.08Z"/></svg>