<svg xmlns="http://www.w3.org/2000/svg" width="40" height="40" fill="none"><circle cx="20" cy="20" r="20" fill="#EDF2FB"/><g fill="#264887" clip-path="url(#a)"><path d="M17.5 12.75h4a.5.5 0 0 0 .5-.5v-.5a2.5 2.5 0 0 0-5 0v.5a.5.5 0 0 0 .5.5m-4.5 18a2 2 0 1 0 0-4 2 2 0 0 0 0 4"/><path d="M31 14.25H17.5a.5.5 0 0 0-.5.5v.5a.5.5 0 0 1-.5.5h-2.911a2.03 2.03 0 0 0-1.789 1.109l-2.215 5a1 1 0 0 0-.032.146l-.82.82A2.5 2.5 0 0 0 8 24.594v3.656a1 1 0 0 0 1 1 .5.5 0 0 0 .5-.5 3.5 3.5 0 1 1 7 0v.011a.5.5 0 0 0 .5.5l6-.015a.5.5 0 0 0 .5-.5 3.5 3.5 0 0 1 7 0 .5.5 0 0 0 .5.5 1 1 0 0 0 1-1v-13a1 1 0 0 0-1-.996m-14 6.516a.5.5 0 0 1-.5.5h-3.7a.5.5 0 0 1-.458-.7l1.112-2.516a.5.5 0 0 1 .458-.3H16.5a.5.5 0 0 1 .5.5zm10.5.484a.5.5 0 0 1-.5.5h-1a.5.5 0 0 0-.5.5v1a.5.5 0 0 1-.5.5h-1a.5.5 0 0 1-.5-.5v-1a.5.5 0 0 0-.5-.5h-1a.5.5 0 0 1-.5-.5v-1a.5.5 0 0 1 .5-.5h1a.5.5 0 0 0 .5-.5v-1a.5.5 0 0 1 .5-.5h1a.5.5 0 0 1 .5.5v1a.5.5 0 0 0 .5.5h1a.5.5 0 0 1 .5.5z"/><path d="M27 30.75a2 2 0 1 0 0-4 2 2 0 0 0 0 4"/></g><defs><clipPath id="a"><path fill="#fff" d="M8 8h24v24H8z"/></clipPath></defs></svg>