<svg xmlns="http://www.w3.org/2000/svg" width="36" height="36" fill="none"><rect width="36" height="36" fill="#ECF5FB" rx="3"/><g clip-path="url(#a)"><path fill="#ECF5FB" d="M6 6h24v24H6z"/><path fill="#3598DB" d="M29 10.5a2 2 0 0 0-2-2h-1.75a.25.25 0 0 1-.25-.25V7a1 1 0 0 0-2 0v1.25a.25.25 0 0 1-.25.25h-3.5a.25.25 0 0 1-.25-.25V7a1 1 0 0 0-2 0v1.25a.25.25 0 0 1-.25.25h-3.5a.25.25 0 0 1-.25-.25V7a1 1 0 0 0-2 0v1.25a.25.25 0 0 1-.25.25H9a2 2 0 0 0-2 2V28a2 2 0 0 0 2 2h18a2 2 0 0 0 2-2z"/><path fill="#fff" d="M24.5 15.5a1 1 0 0 0-1-1h-11a1 1 0 0 0 0 2h11a1 1 0 0 0 1-1m0 4a1 1 0 0 0-1-1h-11a1 1 0 0 0 0 2h11a1 1 0 0 0 1-1m-4 3h-8a1 1 0 0 0 0 2h8a1 1 0 0 0 0-2"/></g><defs><clipPath id="a"><path fill="#fff" d="M6 6h24v24H6z"/></clipPath></defs></svg>