<svg xmlns="http://www.w3.org/2000/svg" width="36" height="36" fill="none"><rect width="36" height="36" fill="#FBEBEB" rx="3"/><path fill="#FBEBEB" d="M6 6h24v24H6z"/><g fill="#D32D27" clip-path="url(#a)"><path d="M27.566 18.133h-5.135a.5.5 0 0 0-.457.3l-1.159 2.606a1.5 1.5 0 0 1-1.358.891h-.015a1.5 1.5 0 0 1-1.357-.868l-2.1-4.489a.251.251 0 0 0-.435-.033l-.618.929a1.5 1.5 0 0 1-1.249.668H8.434a.25.25 0 0 0-.179.424l9 9.263a1.046 1.046 0 0 0 1.5 0l9-9.263a.25.25 0 0 0-.041-.382.25.25 0 0 0-.138-.042z"/><path d="M29.361 11.166a6.093 6.093 0 0 0-9.691-1.552l-1.333 1.215a.5.5 0 0 1-.674 0L16.33 9.614a6.093 6.093 0 0 0-9.691 1.552 5.9 5.9 0 0 0-.303 4.634.5.5 0 0 0 .471.335h6.346a.5.5 0 0 0 .416-.223l1.062-1.594a1.48 1.48 0 0 1 1.362-.664 1.5 1.5 0 0 1 1.246.861l1.961 4.207a.25.25 0 0 0 .455 0l.754-1.7a1.5 1.5 0 0 1 1.37-.89h7.411a.5.5 0 0 0 .472-.334 5.9 5.9 0 0 0-.301-4.632"/></g><defs><clipPath id="a"><path fill="#fff" d="M6 6h24v24H6z"/></clipPath></defs></svg>