<svg xmlns="http://www.w3.org/2000/svg" width="36" height="36" fill="none"><rect width="36" height="36" fill="#E7F7F2" rx="3"/><g clip-path="url(#a)"><path fill="#E7F7F2" d="M6 6h24v24H6z"/><path fill="#008A63" d="M30 10.5a2 2 0 0 0-2-2H8a2 2 0 0 0-2 2v15a2 2 0 0 0 2 2h3a1 1 0 0 0 1-1v-.75a.75.75 0 0 1 .75-.75.76.76 0 0 1 .75.75v.75a1 1 0 0 0 1 1h7a1 1 0 0 0 1-1v-.75a.75.75 0 0 1 .75-.75.76.76 0 0 1 .75.75v.75a1 1 0 0 0 1 1h3a2 2 0 0 0 2-2z"/><path fill="#fff" d="M20.25 17.5a.75.75 0 0 0 .75.75h4.783a.75.75 0 1 0 0-1.5H21a.75.75 0 0 0-.75.75m0 3a.75.75 0 0 0 .75.75h2.609a.75.75 0 1 0 0-1.5H21a.75.75 0 0 0-.75.75m.75-5.25h5a.75.75 0 1 0 0-1.5h-5a.75.75 0 1 0 0 1.5M13.83 17a2 2 0 1 0 0-4 2 2 0 0 0 0 4m-2.823 4h5.647a.5.5 0 0 0 .471-.684A3.6 3.6 0 0 0 13.83 18a3.6 3.6 0 0 0-3.294 2.316.5.5 0 0 0 .471.684"/></g><defs><clipPath id="a"><path fill="#fff" d="M6 6h24v24H6z"/></clipPath></defs></svg>