<svg xmlns="http://www.w3.org/2000/svg" width="36" height="36" fill="none"><rect width="36" height="36" fill="#ECF5FB" rx="3"/><g clip-path="url(#a)"><path fill="#ECF5FB" d="M6 6h24v24H6z"/><path fill="#3598DB" d="M29.888 11.832a.18.18 0 0 0-.2.039l-9.747 9.745a2.75 2.75 0 0 1-3.888 0L6.31 11.871a.18.18 0 0 0-.28.028A.2.2 0 0 0 6 12v12a2 2 0 0 0 2 2h20a2 2 0 0 0 2-2V12a.18.18 0 0 0-.112-.168"/><path fill="#3598DB" d="M17.115 20.556a1.25 1.25 0 0 0 1.768 0l9.686-9.686a.5.5 0 0 0 .121-.511C28.58 10.03 28.274 10 28 10H8c-.275 0-.583.03-.691.359a.5.5 0 0 0 .121.511z"/></g><defs><clipPath id="a"><path fill="#fff" d="M6 6h24v24H6z"/></clipPath></defs></svg>