<svg xmlns="http://www.w3.org/2000/svg" width="16" height="16" fill="none"><g fill="#41536B" clip-path="url(#a)"><path d="M5 7h-.667a.667.667 0 0 0 0 1.333H5A.667.667 0 1 0 5 7m3.333 0h-.666a.667.667 0 0 0 0 1.333h.666a.667.667 0 1 0 0-1.333m3.334 0H11a.667.667 0 0 0 0 1.333h.667a.667.667 0 1 0 0-1.333M5 9.667h-.667a.667.667 0 0 0 0 1.333H5a.667.667 0 0 0 0-1.333m3.333 0h-.666a.667.667 0 0 0 0 1.333h.666a.667.667 0 0 0 0-1.333m3.334 0H11A.667.667 0 0 0 11 11h.667a.667.667 0 0 0 0-1.333M5 12.333h-.667a.667.667 0 1 0 0 1.334H5a.667.667 0 0 0 0-1.334m3.333 0h-.666a.667.667 0 1 0 0 1.334h.666a.667.667 0 0 0 0-1.334m3.334 0H11a.667.667 0 0 0 0 1.334h.667a.667.667 0 0 0 0-1.334"/><path d="M14.333 2H12.5a.166.166 0 0 1-.167-.167V.667a.667.667 0 0 0-1.333 0v3.166a.5.5 0 1 1-1 0v-1.5A.333.333 0 0 0 9.667 2H5.5a.167.167 0 0 1-.167-.166V.667A.667.667 0 1 0 4 .667v3.166a.5.5 0 0 1-1 0v-1.5A.333.333 0 0 0 2.667 2h-1A1.333 1.333 0 0 0 .333 3.333v11.334A1.333 1.333 0 0 0 1.667 16h12.666a1.334 1.334 0 0 0 1.334-1.333V3.333A1.334 1.334 0 0 0 14.333 2m0 12.333a.333.333 0 0 1-.333.334H2a.333.333 0 0 1-.333-.334v-8A.333.333 0 0 1 2 6h12a.333.333 0 0 1 .333.333z"/></g><defs><clipPath id="a"><path fill="#fff" d="M0 0h16v16H0z"/></clipPath></defs></svg>