<svg xmlns="http://www.w3.org/2000/svg" width="100" height="100" fill="none"><path fill="#EBF5FB" fill-rule="evenodd" d="M50 100c27.614 0 50-22.386 50-50S77.614 0 50 0 0 22.386 0 50s22.386 50 50 50" clip-rule="evenodd"/><path fill="#fff" fill-rule="evenodd" d="M33.889 47.189c0 8.781 7.089 15.9 15.833 15.9s15.834-7.119 15.834-15.9V34.233c0-8.781-7.09-15.9-15.834-15.9s-15.833 7.119-15.833 15.9zm25.802 0c0 5.529-4.463 10.011-9.969 10.011s-9.969-4.482-9.969-10.011V34.233c0-5.529 4.464-10.01 9.97-10.01 5.505 0 9.968 4.481 9.968 10.01z" clip-rule="evenodd"/><path fill="#B5D9F1" d="M46.389 24.167c-7.376.833-10 6.11-9.166 19.166h1.944c-.278-16.666 2.5-16.11 7.222-19.166"/><path fill="#264887" d="M49.722 62.533c-8.435 0-15.278-6.867-15.278-15.344h-1.11c0 9.086 7.335 16.456 16.388 16.456zM65 47.19c0 8.477-6.842 15.344-15.278 15.344v1.111c9.054 0 16.39-7.369 16.39-16.455zm0-12.956V47.19h1.111V34.233zM49.722 18.89C58.158 18.889 65 25.757 65 34.233h1.111c0-9.086-7.335-16.455-16.389-16.455zM34.444 34.233c0-8.476 6.843-15.344 15.278-15.344v-1.111c-9.053 0-16.389 7.37-16.389 16.455zm0 12.956V34.233h-1.11V47.19zm15.278 10.567c5.815 0 10.525-4.733 10.525-10.567h-1.111c0 5.224-4.217 9.456-9.414 9.456zM39.198 47.189c0 5.834 4.71 10.567 10.524 10.567v-1.111c-5.196 0-9.413-4.232-9.413-9.456zm0-12.956V47.19h1.11V34.233zm10.524-10.566c-5.815 0-10.524 4.733-10.524 10.566h1.11c0-5.224 4.218-9.455 9.414-9.455zm10.525 10.566c0-5.833-4.71-10.566-10.525-10.566v1.11c5.197 0 9.414 4.232 9.414 9.456zm0 12.956V34.233h-1.111V47.19z"/><path fill="#fff" fill-rule="evenodd" stroke="#264887" stroke-dasharray="92 7 1 4" stroke-linecap="round" stroke-width="1.25" d="M27.778 46.111c0-1.227.995-2.222 2.222-2.222h40c1.227 0 2.222.995 2.222 2.222V75A2.22 2.22 0 0 1 70 77.222H30A2.22 2.22 0 0 1 27.778 75z" clip-rule="evenodd"/><path fill="#B5D9F1" d="M31.625 71.944V44.512H30c-.92 0-1.667.678-1.667 1.599V75c0 .92.747 1.667 1.667 1.667h40a2.22 2.22 0 0 0 2.222-2.223v-2.5z"/><path fill="#264887" stroke="#264887" stroke-width="1.25" d="M73.056 49.306H26.945a.417.417 0 1 0 0 .833h46.11a.417.417 0 0 0 0-.833Zm0 22.222H26.945a.417.417 0 0 0 0 .833h46.11a.417.417 0 0 0 0-.833Z"/><path stroke="#90C6EB" stroke-linecap="round" stroke-width="1.25" d="M36.111 63.14h31.405m-31.405 4.058h31.405m-31.405-8.116h31.405m-31.405-4.058h31.405"/><path fill="#fff" fill-rule="evenodd" stroke="#26417E" stroke-linecap="round" stroke-linejoin="round" stroke-width="1.25" d="M56.111 61.11a5.555 5.555 0 1 1-11.11.002 5.555 5.555 0 0 1 11.11-.001" clip-rule="evenodd"/><path fill="#B5D9F1" d="M47.432 57.222c-1.043 2.778-.42 7.5 3.679 8.89-5.833.277-7.222-6.39-3.68-8.89"/><path fill="#E3E3E3" stroke="#D22D27" stroke-width="1.25" d="M50.848 63.45v-4.678a.292.292 0 0 0-.585 0v4.678a.293.293 0 1 0 .585 0Z"/><path stroke="#C2E0F4" stroke-width="1.25" d="M80 58.889a1.667 1.667 0 1 0 0-3.333 1.667 1.667 0 0 0 0 3.333Z" clip-rule="evenodd"/><path stroke="#C2E0F4" stroke-linecap="round" stroke-linejoin="round" stroke-width="1.25" d="M26.111 33.889h-3.333v3.333h3.333z"/><path stroke="#C2E0F4" stroke-linecap="round" stroke-width="1.6" d="m74.003 24.003 2.596 2.596"/><path stroke="#C2E0F4" stroke-linecap="round" stroke-width="1.25" d="m76.507 24.003-2.596 2.596"/><path stroke="#264887" stroke-dasharray="1 6 164 5" stroke-linecap="round" stroke-width="1.25" d="M21.667 77.222h57.222"/></svg>