<svg xmlns="http://www.w3.org/2000/svg" width="22" height="21" fill="none"><path fill="#40526D" d="M21.512 8.654a19.4 19.4 0 0 0-4.032-3.367l3.751-3.751a.853.853 0 0 0-.047-1.257.816.816 0 0 0-1.228 0L1.64 18.557a.938.938 0 1 0 1.266 1.266l3.892-3.892c1.36.607 2.835.908 4.323.882 3.986 0 7.963-2.814 10.316-5.44a2.026 2.026 0 0 0 .075-2.72m-6.452 2.55a4.3 4.3 0 0 1-2.813 2.814 4.03 4.03 0 0 1-2.907-.178.225.225 0 0 1-.057-.375l5.205-5.215a.234.234 0 0 1 .385.057c.42.909.487 1.942.187 2.897m-8.159.123a.23.23 0 0 0 .066-.225 3.8 3.8 0 0 1-.169-1.05 4.23 4.23 0 0 1 4.22-4.258c.37.003.736.06 1.088.17a.24.24 0 0 0 .225-.057l1.83-1.829a.244.244 0 0 0-.104-.394 10 10 0 0 0-3.039-.469c-4.032 0-8.065 2.814-10.494 5.44a2.026 2.026 0 0 0 0 2.72 20 20 0 0 0 3.217 2.813.24.24 0 0 0 .31 0z"/></svg>