<svg xmlns="http://www.w3.org/2000/svg" width="160" height="160" fill="none"><path fill="#ECF5FB" fill-rule="evenodd" d="M80 160c44.183 0 80-35.817 80-80S124.183 0 80 0 0 35.817 0 80s35.817 80 80 80" clip-rule="evenodd"/><path stroke="#B5D9F1" stroke-linecap="round" stroke-linejoin="round" stroke-width="2" d="m126.007 95.111 3.77-3.77 3.772 3.77-3.771 3.771zM29.333 40h5.333v5.333h-5.333zm81.071-9.596 4.154 4.154m-.146-4.154-4.154 4.154"/><path fill="#B5D9F1" stroke="#264887" stroke-width="1.79" d="M109.567 81.672c-.4.498.016 3.02 0 2.869h9.015c-.028-1.06.157-1.596.819-2.459 2.43-3.546 3.779-5.862 6.146-10.653 1.451-3.462 1.592-4.837 0-5.737-.16-.085-.249-.185-.409 0-1.657 3.793-2.8 5.878-5.737 9.425-.202-.585-1.639-1.23-2.049-.82s-7.384 6.878-7.785 7.375Zm-56.909-.914c.436.495-.017 3.002 0 2.852h-9.823c.03-1.053-.172-1.587-.893-2.445-2.649-3.524-4.118-5.827-6.698-10.59-1.58-3.442-1.735-4.809 0-5.703.174-.085.272-.184.447 0 1.805 3.77 3.05 5.843 6.25 9.369.22-.58 1.787-1.222 2.233-.815s8.048 6.837 8.484 7.332Z"/><g filter="url(#a)"><path fill="#fff" d="M55.307 99.186c9.424-9.014 40.974-8.195 50.398 0a10.5 10.5 0 0 1 1.527 1.639l.112-.819 2.049-15.98h9.834v33.599c-2.869 8.604-11.063 8.604-14.751 0-1.223-1.301-1.694-.966-2.459 0V125H59.404v-7.375c-.706-.649-1.058-.579-1.639 0-4.507 8.604-11.063 7.785-15.57 0v-34.01h10.243l2.869 24.995-.82-8.604z"/></g><path stroke="#264887" stroke-dasharray="215.11 6.27 0.9 3.59" stroke-linecap="round" stroke-width="1.793" d="m106.115 109.02 1.117-8.195m0 0 .112-.819 2.049-15.98h9.834v33.599c-2.869 8.604-11.063 8.604-14.751 0-1.223-1.301-1.694-.966-2.459 0V125H59.404v-7.375c-.706-.649-1.058-.579-1.639 0-4.507 8.604-11.063 7.785-15.57 0v-34.01h10.243l2.869 24.995-.82-8.604.82-.82c9.424-9.014 40.974-8.195 50.398 0a10.5 10.5 0 0 1 1.527 1.639Z"/><path fill="#B5D9F1" stroke="#264887" stroke-width="1.79" d="M87.191 99.186c0 3.076-2.666 5.661-6.07 5.661s-6.071-2.585-6.071-5.66c0-3.077 2.666-5.662 6.07-5.662s6.071 2.585 6.071 5.661Z"/><g filter="url(#b)"><ellipse cx="79.41" cy="70.86" fill="#B5D9F1" rx="24.135" ry="29.037" transform="rotate(-8.588 79.41 70.86)"/></g><path stroke="#264887" stroke-width="1.793" d="M102.388 67.39c2.345 15.528-6.232 29.401-18.776 31.296s-24.835-8.828-27.18-24.356c-2.346-15.528 6.231-29.401 18.775-31.295 12.545-1.895 24.836 8.827 27.181 24.355Z"/><path fill="#264887" d="M71.287 68.455c-3.553-1.18-5.1-.85-7.376.82-1.217.66-2.139.742-2.048-.82.68-2.009 2.048-2.868 5.326-3.278 2.442-.008 3.967.38 5.327 2.05.088.444.093.75 0 .948-.147.314-.537.363-1.23.28m22.952-2.868c-3.552-1.18-5.099-.85-7.375.82-1.217.66-2.14.742-2.049-.82.68-2.01 2.049-2.868 5.327-3.278 2.441-.008 3.966.38 5.327 2.05.087.444.093.75 0 .948-.147.314-.537.363-1.23.28"/><circle cx="68.141" cy="74.324" r="3" fill="#264887"/><circle cx="91.086" cy="71.046" r="3" fill="#264887"/><path fill="#264887" d="m82.852 78.705-4.493.354c-.409.032.511 1.64 2.203 1.882 1.594-.282 2.698-2.268 2.29-2.236m-6.172 9.903c1.815 3.57 7.528 2.958 8.578-.751-.092-1.286-1.12-1.663-4.406-1.766-3.674.387-4.665.916-4.172 2.517"/><path fill="#B5D9F1" stroke="#264887" stroke-width="1.79" d="M106.115 72.307c0-2.458-1.967-3.442-1.967-3.442l-1.311 7.376s3.278-1.475 3.278-3.934ZM54.04 78.063c1.275 2.102 3.467 1.923 3.467 1.923L54.803 73s-2.038 2.961-.763 5.063Z"/><g filter="url(#c)"><path fill="#264887" d="m53.668 72.963 3.278 3.687c-1.01-10.074 2.458-18.028 4.507-18.028s23.355-.82 32.37-4.098c4.41 4.102 7.342 7.664 9.014 19.258l1.639-5.327c-.224-10.816-1.473-15.757-5.327-22.945-7.1-8.661-12.12-11.447-24.175-10.244-16.8 2.049-23.673 10.522-21.306 37.697"/></g><path stroke="#264887" d="m53.668 72.963 3.278 3.687c-1.01-10.074 2.458-18.028 4.507-18.028s23.355-.82 32.37-4.098c4.41 4.102 7.342 7.664 9.014 19.258l1.639-5.327c-.224-10.816-1.473-15.757-5.327-22.945-7.1-8.661-12.12-11.447-24.175-10.244-16.8 2.049-23.673 10.522-21.306 37.697Z"/><path stroke="#B5D9F1" stroke-linecap="round" stroke-linejoin="round" stroke-width="1.793" d="M49 135.556h63.111"/><defs><filter id="a" width="78.824" height="43.177" x="41.299" y="82.72" color-interpolation-filters="sRGB" filterUnits="userSpaceOnUse"><feFlood flood-opacity="0" result="BackgroundImageFix"/><feBlend in="SourceGraphic" in2="BackgroundImageFix" result="shape"/><feColorMatrix in="SourceAlpha" result="hardAlpha" values="0 0 0 0 0 0 0 0 0 0 0 0 0 0 0 0 0 0 127 0"/><feOffset dx="-5.378" dy="-6.274"/><feComposite in2="hardAlpha" k2="-1" k3="1" operator="arithmetic"/><feColorMatrix values="0 0 0 0 0.858824 0 0 0 0 0.92549 0 0 0 0 0.964706 0 0 0 1 0"/><feBlend in2="shape" result="effect1_innerShadow"/></filter><filter id="b" width="56.401" height="64.632" x="51.209" y="38.544" color-interpolation-filters="sRGB" filterUnits="userSpaceOnUse"><feFlood flood-opacity="0" result="BackgroundImageFix"/><feBlend in="SourceGraphic" in2="BackgroundImageFix" result="shape"/><feColorMatrix in="SourceAlpha" result="hardAlpha" values="0 0 0 0 0 0 0 0 0 0 0 0 0 0 0 0 0 0 127 0"/><feOffset dx="5.378" dy="-4.481"/><feComposite in2="hardAlpha" k2="-1" k3="1" operator="arithmetic"/><feColorMatrix values="0 0 0 0 0.564706 0 0 0 0 0.776471 0 0 0 0 0.921569 0 0 0 1 0"/><feBlend in2="shape" result="effect1_innerShadow"/></filter><filter id="c" width="52.263" height="43.636" x="52.714" y="34.5" color-interpolation-filters="sRGB" filterUnits="userSpaceOnUse"><feFlood flood-opacity="0" result="BackgroundImageFix"/><feBlend in="SourceGraphic" in2="BackgroundImageFix" result="shape"/><feColorMatrix in="SourceAlpha" result="hardAlpha" values="0 0 0 0 0 0 0 0 0 0 0 0 0 0 0 0 0 0 127 0"/><feOffset dx="4" dy="-1"/><feComposite in2="hardAlpha" k2="-1" k3="1" operator="arithmetic"/><feColorMatrix values="0 0 0 0 0.0729167 0 0 0 0 0.200709 0 0 0 0 0.4375 0 0 0 1 0"/><feBlend in2="shape" result="effect1_innerShadow"/></filter></defs></svg>