<svg xmlns="http://www.w3.org/2000/svg" width="14" height="16" fill="none"><path fill="#40526D" fill-rule="evenodd" d="M2.123 4.546 7 2.456l4.877 2.09-.023 3.61c.01 1.315-.582 2.321-1.45 3.148-.851.811-2 1.48-3.159 2.132L7 13.574l-.245-.138c-1.159-.652-2.308-1.32-3.16-2.132-.867-.827-1.46-1.833-1.449-3.148zm2.3 3.654a.767.767 0 0 0 .765-.77.767.767 0 0 0-.764-.77.767.767 0 0 0-.764.77c0 .425.342.77.764.77m2.563 0a.767.767 0 0 0 .764-.77.767.767 0 0 0-.764-.77.767.767 0 0 0-.763.77c0 .425.341.77.763.77m2.559 0a.767.767 0 0 0 .764-.77.767.767 0 0 0-.764-.77.767.767 0 0 0-.764.77c0 .425.342.77.764.77" clip-rule="evenodd"/><path fill="#40526D" fill-rule="evenodd" d="m0 3 .034 5.25C.002 11.902 3.267 13.9 7 16c3.733-2.1 6.998-4.098 6.966-7.75L14 3 7 0zm2.795 8.983c1.07 1.02 2.529 1.915 4.205 2.868 1.676-.953 3.134-1.848 4.205-2.868 1.141-1.087 1.774-2.25 1.761-3.724V8.25l.03-4.593L7 1.088l-5.996 2.57.03 4.593v.008c-.013 1.473.62 2.637 1.76 3.724" clip-rule="evenodd"/></svg>