<svg xmlns="http://www.w3.org/2000/svg" width="16" height="16" fill="none"><path fill="#41536B" d="M15.467 7.033a14 14 0 0 0-2.867-2.4l2.667-2.664a.666.666 0 1 0-.942-.942l-.012.012a.5.5 0 0 1-.116.194l-13 13-.017.011a.667.667 0 0 0 1.087.725l2.764-2.764a7.5 7.5 0 0 0 2.873.626h.2c2.838 0 5.66-1.989 7.368-3.866a1.447 1.447 0 0 0-.005-1.932m-4.591 1.814a3.05 3.05 0 0 1-2 2.018 2.87 2.87 0 0 1-2.067-.126.17.17 0 0 1-.087-.204.2.2 0 0 1 .042-.068l3.706-3.706a.168.168 0 0 1 .272.045c.294.64.341 1.367.134 2.04m-5.799.087a.16.16 0 0 0 .04-.16A3 3 0 0 1 5 8a3 3 0 0 1 3-3q.394.004.774.115a.16.16 0 0 0 .16-.041l1.294-1.295a.17.17 0 0 0-.067-.28 7 7 0 0 0-2.16-.332c-2.868-.04-5.735 1.966-7.46 3.866a1.433 1.433 0 0 0-.004 1.933 14 14 0 0 0 2.292 2.02.17.17 0 0 0 .217-.02z"/></svg>