<svg xmlns="http://www.w3.org/2000/svg" fill="none" viewBox="0 0 24 24"><path fill="currentColor" d="M2.037 18.554c0 .914.35 1.79.975 2.437A3.27 3.27 0 0 0 5.364 22h13.305c.883 0 1.729-.363 2.352-1.01a3.5 3.5 0 0 0 .975-2.436v-1.61a1.1 1.1 0 0 0-.264-.81 1 1 0 0 0-.342-.255.99.99 0 0 0-1.168.254 1.07 1.07 0 0 0-.264.81v1.611c0 .358-.134.7-.375.957a1.3 1.3 0 0 1-.914.413H5.364a1.3 1.3 0 0 1-.935-.401 1.4 1.4 0 0 1-.387-.969v-1.61a1.1 1.1 0 0 0-.264-.81 1 1 0 0 0-.343-.255.99.99 0 0 0-1.167.254 1.07 1.07 0 0 0-.264.81z"/><path fill="currentColor" d="M12.017 18.322c.44 0 .864-.182 1.176-.505s.487-.761.487-1.218V8.743a.2.2 0 0 1 .06-.115.2.2 0 0 1 .114-.058h2.238a.8.8 0 0 0 .428-.146.85.85 0 0 0 .291-.356.89.89 0 0 0-.104-.893l-4.075-4.893A.83.83 0 0 0 12.017 2a.8.8 0 0 0-.616.282l-4.075 4.85a.89.89 0 0 0-.143.926.85.85 0 0 0 .306.372.8.8 0 0 0 .453.14h2.237a.2.2 0 0 1 .114.058q.047.046.06.115v7.89c.01.451.188.88.5 1.196.31.316.728.493 1.164.493"/></svg>