<svg xmlns="http://www.w3.org/2000/svg" width="120" height="120" fill="none"><path fill="#ECF5FB" fill-rule="evenodd" d="M60 120c33.137 0 60-26.863 60-60S93.137 0 60 0 0 26.863 0 60s26.863 60 60 60" clip-rule="evenodd"/><path stroke="#B5D9F1" stroke-linecap="round" stroke-linejoin="round" stroke-width="1.793" d="M36.667 98.667H84"/><g filter="url(#a)"><path fill="#fff" fill-rule="evenodd" d="M46 52.712c-8.752 4.907-14.667 14.273-14.667 25.021 0 15.832 57.334 15.832 57.334 0 0-10.748-5.915-20.114-14.667-25.021l3.524-5.177c1.216-1.785-.063-4.202-2.222-4.202H44.699c-2.16 0-3.438 2.417-2.223 4.203z" clip-rule="evenodd"/></g><path fill="#264887" d="m46 52.712.741-.505.55.808-.852.478zm28 0-.438.782-.853-.479.55-.808zm3.524-5.177.741.505zm-35.048 0 .74-.504zm15.948 41.16a.896.896 0 0 1-.037 1.792zm1.845 1.808a.896.896 0 0 1-.006-1.792zm.257-1.794a.896.896 0 0 1 .012 1.793zm1.087 1.778a.896.896 0 0 1-.037-1.792zm22.695-26.192a.896.896 0 0 1 1.568-.87zm1.135-1.625a.896.896 0 1 1-1.542.915zm-1.602.814a.896.896 0 0 1 1.538-.92zm1.279-1.346a.896.896 0 0 1-1.522.947zM74.937 49.743a.896.896 0 1 1 1.482 1.008zm1.58.864a.896.896 0 1 1-1.482-1.008zm-1.468-1.029a.896.896 0 0 1 1.482 1.009zm1.538.927a.896.896 0 1 1-1.482-1.009zm.34-5.237a.896.896 0 0 1 1.626-.757zm1.53-.95a.896.896 0 1 1-1.578.852zm-1.586.839a.896.896 0 0 1 1.57-.865zm1.51-.972a.896.896 0 0 1-1.54.917zm-17.652.045a.896.896 0 0 1 0-1.793zm-.85-1.793a.896.896 0 0 1 0 1.793zm-.122 1.793a.896.896 0 0 1 0-1.793zm-.485-1.793a.896.896 0 0 1 0 1.793zM43.16 45.102a.896.896 0 0 1-1.54-.917zm-1.645-.729a.896.896 0 0 1 1.592.825zm1.585.839a.896.896 0 0 1-1.6-.812zm-1.653-.701a.896.896 0 1 1 1.625.757zm3.448 4.985a.896.896 0 1 1-1.482 1.009zm-1.384 1.153a.896.896 0 0 1 1.482-1.01zm1.496-.989a.896.896 0 1 1-1.482 1.01zm-1.426 1.091a.896.896 0 1 1 1.482-1.009zm-7.178 12.334a.896.896 0 0 1-1.523-.947zm-1.972-.2a.896.896 0 0 1 1.55.901zm1.491 1.002a.896.896 0 1 1-1.553-.895zm-1.798-.461a.896.896 0 0 1 1.568.868zM32.23 77.733c0 3.206 2.803 5.89 7.798 7.847 4.914 1.925 11.568 2.975 18.396 3.115l-.037 1.792c-6.954-.142-13.836-1.21-19.013-3.238-5.096-1.996-8.937-5.099-8.937-9.516zm28.033 10.978.263-.002.012 1.793-.269.001zm1.313-.016c6.828-.14 13.482-1.19 18.396-3.115 4.995-1.956 7.799-4.641 7.799-7.847h1.792c0 4.417-3.841 7.52-8.937 9.516-5.177 2.028-12.059 3.096-19.013 3.238zM87.77 77.733a27.64 27.64 0 0 0-3.462-13.438l1.568-.87a29.4 29.4 0 0 1 3.687 14.308zm-3.869-14.148-.06-.1 1.538-.922.064.107zm-.303-.5a27.9 27.9 0 0 0-10.036-9.591l.876-1.564A29.7 29.7 0 0 1 85.12 62.138zM73.259 52.207l1.678-2.465 1.482 1.01-1.678 2.464zm1.776-2.608.014-.02 1.482 1.008-.014.02zm.07-.103 1.678-2.465 1.482 1.009-1.678 2.465zm1.678-2.465a1.76 1.76 0 0 0 .145-1.763l1.625-.757c.499 1.07.48 2.4-.288 3.529zm.096-1.86-.008-.014 1.57-.865.015.027zm-.039-.069a1.76 1.76 0 0 0-1.538-.872v-1.793c1.366 0 2.474.733 3.079 1.748zm-1.538-.872H60.729v-1.793h14.573zm-15.423 0h-.122v-1.793h.122zm-.607 0H44.699v-1.793h14.573zm-14.573 0a1.76 1.76 0 0 0-1.54.872l-1.54-.917a3.55 3.55 0 0 1 3.08-1.748zm-1.592.968-.007.014-1.6-.812.014-.027zm-.035.07a1.76 1.76 0 0 0 .145 1.763l-1.482 1.009a3.55 3.55 0 0 1-.288-3.53zm.145 1.763 1.678 2.465-1.482 1.009-1.678-2.465zm1.776 2.609.014.02-1.482 1.01-.014-.021zm.07.102 1.678 2.465-1.482 1.01-1.678-2.466zm1.376 3.752a27.9 27.9 0 0 0-10.036 9.591l-1.523-.947A29.7 29.7 0 0 1 45.563 51.93zM35.98 63.786l-.059.101-1.553-.895.062-.107zm-.29.508a27.64 27.64 0 0 0-3.461 13.44h-1.793a29.4 29.4 0 0 1 3.687-14.308z"/><g filter="url(#b)"><path fill="#B5D9F1" fill-rule="evenodd" d="M60 60c8.837 0 16-7.163 16-16s-7.163-16-16-16-16 7.163-16 16 7.163 16 16 16" clip-rule="evenodd"/></g><path stroke="#264887" stroke-width="1.793" d="M75.104 44c0 8.342-6.763 15.104-15.104 15.104-8.342 0-15.104-6.762-15.104-15.104S51.658 28.896 60 28.896 75.104 35.658 75.104 44Z"/><g filter="url(#c)"><mask id="d" fill="#fff"><path fill-rule="evenodd" d="M68.677 50.528 60 81.333 81.322 56.28c1.388-1.63.405-4.15-1.72-4.411l-3.706-.455 2.99-4.506c1.105-1.665.07-3.911-1.913-4.155l-11.563-1.42z" clip-rule="evenodd"/></mask><path fill="#fff" fill-rule="evenodd" d="M68.677 50.528 60 81.333 81.322 56.28c1.388-1.63.405-4.15-1.72-4.411l-3.706-.455 2.99-4.506c1.105-1.665.07-3.911-1.913-4.155l-11.563-1.42z" clip-rule="evenodd"/><path fill="#264887" d="m60 81.333-1.725-.486 3.09 1.648zm8.677-30.805.219-1.78-1.527-.187-.417 1.48zm12.645 5.752 1.365 1.162zm-5.426-4.866-1.494-.991L72.8 52.84l2.879.353zm2.99-4.506 1.493.992zM65.41 41.333l.218-1.779-2.879-.353.972 2.733zm3.267 9.195-.218 1.779 2.879.353-.971-2.733zm-6.951 31.291 8.677-30.806-3.451-.971-8.677 30.805zm18.23-26.7L58.636 80.17l2.73 2.324 21.322-25.053zm-.573-1.47a.896.896 0 0 1 .574 1.47l2.73 2.323c2.313-2.718.676-6.917-2.867-7.352zm-3.705-.456 3.705.455.437-3.558-3.705-.455zm1.714-7.276-2.99 4.506 2.988 1.982 2.99-4.505zm-.638-1.385a.896.896 0 0 1 .638 1.386l2.987 1.982c1.842-2.776.119-6.52-3.188-6.926zm-11.563-1.42 11.563 1.42.437-3.558-11.563-1.42zm5.176 6.815-3.268-9.194-3.378 1.2 3.267 9.195zm-1.908 2.38.437-3.559z" mask="url(#d)"/></g><mask id="f" fill="#fff"><path fill-rule="evenodd" d="M50.945 50.528 60 81.333 38.359 56.29c-1.407-1.627-.428-4.165 1.706-4.427l3.66-.45-2.989-4.504c-1.105-1.666-.07-3.912 1.913-4.156l11.563-1.42z" clip-rule="evenodd"/></mask><g filter="url(#e)"><path fill="#fff" fill-rule="evenodd" d="M50.945 50.528 60 81.333 38.359 56.29c-1.407-1.627-.428-4.165 1.706-4.427l3.66-.45-2.989-4.504c-1.105-1.666-.07-3.912 1.913-4.156l11.563-1.42z" clip-rule="evenodd"/></g><path fill="#264887" d="m60 81.333 1.72-.505-3.076 1.677zm-9.056-30.805-1.72.505-.163-.558.194-.548zM38.359 56.29l-1.356 1.172zm1.707-4.427.219 1.78zm3.66-.45 1.495-.99 1.603 2.417-2.879.353zm-2.989-4.504-1.493.99zm1.913-4.156-.218-1.78zm11.563-1.42-.218-1.779 2.878-.353-.97 2.733zM58.28 81.84l-9.055-30.806 3.44-1.011 9.055 30.806zM39.715 55.12l21.641 25.04-2.712 2.344-21.642-25.043zm.569-1.476a.896.896 0 0 0-.57 1.475l-2.712 2.344c-2.344-2.712-.713-6.941 2.845-7.378zm3.66-.45-3.66.45-.437-3.559 3.66-.45zm-1.714-7.276 2.99 4.506-2.988 1.982-2.99-4.505zm.638-1.385a.896.896 0 0 0-.638 1.386L39.243 47.9c-1.842-2.776-.119-6.52 3.188-6.926zm11.563-1.42-11.563 1.42-.437-3.558 11.563-1.42zm-5.176 6.815 3.268-9.194 3.378 1.2-3.267 9.195z" mask="url(#f)"/><mask id="g" fill="#fff"><path fill-rule="evenodd" d="M68.31 50.491c4.247 0 7.69-3.393 7.69-7.579 0-4.185-3.443-7.579-7.69-7.579-3.1 0-5.77 1.807-6.988 4.41h-2.644a7.7 7.7 0 0 0-6.987-4.41c-4.248 0-7.691 3.394-7.691 7.58 0 4.185 3.443 7.578 7.69 7.578 3.588 0 6.602-2.42 7.452-5.695h1.716c.85 3.274 3.864 5.695 7.452 5.695" clip-rule="evenodd"/></mask><path fill="#D32D27" fill-rule="evenodd" d="M68.31 50.491c4.247 0 7.69-3.393 7.69-7.579 0-4.185-3.443-7.579-7.69-7.579-3.1 0-5.77 1.807-6.988 4.41h-2.644a7.7 7.7 0 0 0-6.987-4.41c-4.248 0-7.691 3.394-7.691 7.58 0 4.185 3.443 7.578 7.69 7.578 3.588 0 6.602-2.42 7.452-5.695h1.716c.85 3.274 3.864 5.695 7.452 5.695" clip-rule="evenodd"/><path fill="#264887" d="M61.322 39.743v1.793h1.14l.483-1.033zm-2.644 0-1.623.76.483 1.033h1.14zm.464 5.053v-1.793h-1.387l-.349 1.343zm1.716 0 1.736-.45-.349-1.343H60.86zm13.35-1.884c0 3.171-2.616 5.787-5.898 5.787v3.585c5.212 0 9.483-4.171 9.483-9.372zm-5.898-5.786c3.282 0 5.897 2.615 5.897 5.786h3.586c0-5.2-4.27-9.371-9.483-9.371zm-5.364 3.377a5.91 5.91 0 0 1 5.364-3.377v-3.585a9.49 9.49 0 0 0-8.612 5.443zm-4.268 1.033h2.644V37.95h-2.644zm-6.987-4.41a5.91 5.91 0 0 1 5.364 3.377l3.247-1.52a9.49 9.49 0 0 0-8.611-5.442zm-5.898 5.786c0-3.17 2.615-5.786 5.898-5.786v-3.585c-5.213 0-9.484 4.171-9.484 9.371zM51.69 48.7c-3.283 0-5.898-2.615-5.898-5.787h-3.586c0 5.2 4.27 9.372 9.484 9.372zm5.715-4.353c-.645 2.487-2.948 4.353-5.715 4.353v3.585c4.407 0 8.132-2.977 9.186-7.038zm3.453-1.343h-1.717v3.585h1.716zm7.45 5.696c-2.767 0-5.07-1.866-5.715-4.353l-3.47.9c1.053 4.061 4.778 7.038 9.186 7.038z" mask="url(#g)"/><mask id="i" fill="#fff"><path fill-rule="evenodd" d="M60 20.725c-3.415-3.593-10-2.747-11.923 2.536l-2.52 6.924c-5.415 1.22-8.89 3.112-8.89 5.236 0 3.682 10.446 6.667 23.333 6.667s23.333-2.985 23.333-6.667c0-2.124-3.475-4.015-8.89-5.236l-2.52-6.924c-1.924-5.283-8.508-6.129-11.923-2.536" clip-rule="evenodd"/></mask><g filter="url(#h)"><path fill="#fff" fill-rule="evenodd" d="M60 20.725c-3.415-3.593-10-2.747-11.923 2.536l-2.52 6.924c-5.415 1.22-8.89 3.112-8.89 5.236 0 3.682 10.446 6.667 23.333 6.667s23.333-2.985 23.333-6.667c0-2.124-3.475-4.015-8.89-5.236l-2.52-6.924c-1.924-5.283-8.508-6.129-11.923-2.536" clip-rule="evenodd"/></g><path fill="#264887" d="m60 20.725-1.3 1.235 1.3 1.367 1.3-1.367zM48.077 23.26l-1.684-.613zm-2.52 6.924.394 1.748.955-.215.335-.92zm28.886 0-1.684.613.335.92.955.215zm-2.52-6.924 1.684-.613zm-10.624-3.77c-4.254-4.475-12.49-3.48-14.906 3.158l3.368 1.226c1.43-3.928 6.364-4.624 8.94-1.914zm-14.906 3.158-2.521 6.923 3.369 1.227 2.52-6.924zm-1.23 5.788c-2.794.63-5.212 1.457-6.977 2.475-1.642.947-3.312 2.412-3.312 4.51h3.585c0-.026.068-.568 1.517-1.404 1.326-.764 3.353-1.493 5.975-2.084zm-10.289 6.985c0 1.83 1.284 3.176 2.623 4.08 1.401.947 3.312 1.73 5.511 2.358C47.432 43.122 53.438 43.88 60 43.88v-3.585c-6.325 0-11.985-.735-16.007-1.884-2.023-.578-3.53-1.232-4.49-1.88-1.022-.691-1.044-1.1-1.044-1.11zM60 43.88c6.561 0 12.568-.759 16.992-2.022 2.2-.629 4.11-1.41 5.511-2.358 1.34-.904 2.623-2.25 2.623-4.08H81.54c0 .01-.022.419-1.045 1.11-.96.648-2.466 1.302-4.49 1.88-4.02 1.15-9.68 1.884-16.006 1.884zm25.126-8.46c0-2.098-1.67-3.563-3.312-4.51-1.765-1.018-4.183-1.845-6.976-2.475l-.789 3.497c2.621.591 4.649 1.32 5.975 2.084 1.449.836 1.517 1.378 1.517 1.404zM70.238 23.874l2.521 6.924 3.369-1.227-2.52-6.923zM61.3 21.96c2.576-2.71 7.51-2.014 8.94 1.914l3.368-1.226c-2.417-6.639-10.652-7.633-14.906-3.158z" mask="url(#i)"/><path stroke="#D32D27" stroke-width="1.793" d="M56.408 33.234a2.153 2.153 0 1 1-2.346-3.611 2.153 2.153 0 0 1 2.346 3.611Z"/><path stroke="#D32D27" stroke-linecap="square" stroke-width="1.793" d="m57.555 30.024 7.309-4.746m.467.235 1.476 2.273m-4.984-.119.922 1.42"/><path stroke="#B5D9F1" stroke-linecap="round" stroke-linejoin="round" stroke-width="1.793" d="m94.504 71.334 2.829-2.828 2.828 2.828-2.828 2.828z"/><path stroke="#B5D9F1" stroke-linecap="round" stroke-linejoin="round" stroke-width="1.793" d="M25.333 63.333a2 2 0 1 0 0-4 2 2 0 0 0 0 4" clip-rule="evenodd"/><path stroke="#B5D9F1" stroke-linecap="round" stroke-linejoin="round" stroke-width="1.793" d="M22 30h4v4h-4zm60.803-7.197 3.116 3.116m-.11-3.116-3.115 3.116"/><defs><filter id="a" width="59.126" height="48.066" x="30.437" y="42.437" color-interpolation-filters="sRGB" filterUnits="userSpaceOnUse"><feFlood flood-opacity="0" result="BackgroundImageFix"/><feBlend in="SourceGraphic" in2="BackgroundImageFix" result="shape"/><feColorMatrix in="SourceAlpha" result="hardAlpha" values="0 0 0 0 0 0 0 0 0 0 0 0 0 0 0 0 0 0 127 0"/><feOffset dx="-5.378" dy="-6.274"/><feComposite in2="hardAlpha" k2="-1" k3="1" operator="arithmetic"/><feColorMatrix values="0 0 0 0 0.709804 0 0 0 0 0.85098 0 0 0 0 0.945098 0 0 0 1 0"/><feBlend in2="shape" result="effect1_innerShadow"/></filter><filter id="b" width="32" height="32" x="44" y="28" color-interpolation-filters="sRGB" filterUnits="userSpaceOnUse"><feFlood flood-opacity="0" result="BackgroundImageFix"/><feBlend in="SourceGraphic" in2="BackgroundImageFix" result="shape"/><feColorMatrix in="SourceAlpha" result="hardAlpha" values="0 0 0 0 0 0 0 0 0 0 0 0 0 0 0 0 0 0 127 0"/><feOffset dx="5.378" dy="-4.481"/><feComposite in2="hardAlpha" k2="-1" k3="1" operator="arithmetic"/><feColorMatrix values="0 0 0 0 0.564706 0 0 0 0 0.776471 0 0 0 0 0.921569 0 0 0 1 0"/><feBlend in2="shape" result="effect1_innerShadow"/></filter><filter id="c" width="26.027" height="43.218" x="60" y="41.273" color-interpolation-filters="sRGB" filterUnits="userSpaceOnUse"><feFlood flood-opacity="0" result="BackgroundImageFix"/><feColorMatrix in="SourceAlpha" values="0 0 0 0 0 0 0 0 0 0 0 0 0 0 0 0 0 0 127 0"/><feOffset dx="2.689" dy=".896"/><feColorMatrix values="0 0 0 0 0.709804 0 0 0 0 0.85098 0 0 0 0 0.945098 0 0 0 1 0"/><feBlend in2="BackgroundImageFix" result="effect1_dropShadow"/><feBlend in="SourceGraphic" in2="effect1_dropShadow" result="shape"/><feColorMatrix in="SourceAlpha" result="hardAlpha" values="0 0 0 0 0 0 0 0 0 0 0 0 0 0 0 0 0 0 127 0"/><feOffset dx="-4.481" dy=".896"/><feComposite in2="hardAlpha" k2="-1" k3="1" operator="arithmetic"/><feColorMatrix values="0 0 0 0 0.709804 0 0 0 0 0.85098 0 0 0 0 0.945098 0 0 0 1 0"/><feBlend in2="shape" result="effect2_innerShadow"/></filter><filter id="e" width="23.672" height="42.408" x="36.328" y="41.227" color-interpolation-filters="sRGB" filterUnits="userSpaceOnUse"><feFlood flood-opacity="0" result="BackgroundImageFix"/><feBlend in="SourceGraphic" in2="BackgroundImageFix" result="shape"/><feColorMatrix in="SourceAlpha" result="hardAlpha" values="0 0 0 0 0 0 0 0 0 0 0 0 0 0 0 0 0 0 127 0"/><feOffset dy="8.963"/><feComposite in2="hardAlpha" k2="-1" k3="1" operator="arithmetic"/><feColorMatrix values="0 0 0 0 0.709804 0 0 0 0 0.85098 0 0 0 0 0.945098 0 0 0 1 0"/><feBlend in2="shape" result="effect1_innerShadow"/></filter><filter id="h" width="46.667" height="23.544" x="36.667" y="18.544" color-interpolation-filters="sRGB" filterUnits="userSpaceOnUse"><feFlood flood-opacity="0" result="BackgroundImageFix"/><feBlend in="SourceGraphic" in2="BackgroundImageFix" result="shape"/><feColorMatrix in="SourceAlpha" result="hardAlpha" values="0 0 0 0 0 0 0 0 0 0 0 0 0 0 0 0 0 0 127 0"/><feOffset dx="5.378" dy="-4.481"/><feComposite in2="hardAlpha" k2="-1" k3="1" operator="arithmetic"/><feColorMatrix values="0 0 0 0 0.709804 0 0 0 0 0.85098 0 0 0 0 0.945098 0 0 0 1 0"/><feBlend in2="shape" result="effect1_innerShadow"/></filter></defs></svg>