<svg xmlns="http://www.w3.org/2000/svg" width="36" height="36" fill="none"><rect width="36" height="36" fill="#E7F7F2" rx="3"/><path fill="#E7F7F2" d="M6 6h24v24H6z"/><path fill="#008A63" d="M9.5 20.734a1 1 0 0 0 1-1v-8.316a.667.667 0 0 1 .667-.667h13.666a.667.667 0 0 1 .667.667v8.316a1 1 0 0 0 2 0v-8.316a2.67 2.67 0 0 0-2.667-2.667H11.167A2.67 2.67 0 0 0 8.5 11.418v8.316a1 1 0 0 0 1 1m20.394 1.709a.5.5 0 0 0-.394-.192h-8a.5.5 0 0 0-.5.5c0 .71-1.232 1.5-3 1.5s-3-.79-3-1.5a.5.5 0 0 0-.5-.5h-8a.5.5 0 0 0-.485.621 5.77 5.77 0 0 0 5.608 4.379h12.754a5.77 5.77 0 0 0 5.608-4.379.5.5 0 0 0-.091-.429"/></svg>