<svg xmlns="http://www.w3.org/2000/svg" width="89" height="81" fill="none"><path stroke="#1D3049" stroke-dasharray="316.21 7.91 2.37 3.16" stroke-linecap="round" stroke-linejoin="round" stroke-width="1.78" d="M67.414 68.1c1.83 4.282-.064 9.28-4.239 11.158-4.169 1.88-9.032-.069-10.86-4.354a8.6 8.6 0 0 1-.677-3.515l13.715-6.177c.85.776 1.57 1.74 2.061 2.887z" clip-rule="evenodd"/><path stroke="#1D3049" stroke-linecap="round" stroke-linejoin="round" stroke-width="1.78" d="M23.217 44.987c-3.924-9.778-1.927-19.099 3.938-25.194-.243-.366-.488-.709-.668-1.13-1.856-4.185.068-9.063 4.296-10.9 4.228-1.838 9.16.073 11.017 4.258.175.396.27.806.375 1.213 8.789-.176 17.465 5.125 22 14.138 0 0 6.716 15.271 14.09 16.485.229.01 4.184.108 5.392 2.965 1.138 2.7-1.205 6.316-5.279 8.054L34.245 73.712c-4.07 1.738-8.566 1.04-9.53-1.724-.95-2.726 1.135-5.261 1.332-5.485 4.167-6.338-2.83-21.516-2.83-21.516" clip-rule="evenodd"/><path fill="#1D3049" fill-rule="evenodd" d="M32.554 22.604c-6.953 3.543-9.717 12.106-6.16 19.088.31.608 1.052.85 1.657.542a1.233 1.233 0 0 0 .535-1.658c-2.94-5.77-.658-12.844 5.089-15.772a1.23 1.23 0 0 0 .535-1.658 1.23 1.23 0 0 0-1.656-.542M12.856 36.952a1.22 1.22 0 0 0-.942-.008c-.291.117-.54.346-.673.66-2.223 5.268.247 11.382 5.506 13.627a1.225 1.225 0 0 0 1.612-.652 1.24 1.24 0 0 0-.654-1.619c-4.011-1.712-5.894-6.371-4.198-10.389a1.235 1.235 0 0 0-.65-1.62" clip-rule="evenodd"/><path fill="#1D3049" fill-rule="evenodd" d="M15.722 58.84a1.226 1.226 0 0 0 1.612-.651 1.24 1.24 0 0 0-.654-1.619C8.22 52.959 4.246 43.124 7.823 34.65a1.24 1.24 0 0 0-.654-1.62 1.22 1.22 0 0 0-.942-.007c-.291.117-.54.346-.673.66-4.104 9.724.456 21.011 10.168 25.157M75.76 24.992c.328.095.66.047.937-.107.274-.152.494-.41.587-.737 1.565-5.5-1.632-11.267-7.125-12.854a1.226 1.226 0 0 0-1.52.843 1.24 1.24 0 0 0 .846 1.527c4.19 1.21 6.626 5.606 5.432 9.8-.19.656.19 1.34.844 1.529" clip-rule="evenodd"/><path fill="#1D3049" fill-rule="evenodd" d="M70.249 3.616a1.226 1.226 0 0 0-1.52.843 1.24 1.24 0 0 0 .846 1.527C78.41 8.54 83.554 17.817 81.037 26.664a1.24 1.24 0 0 0 .846 1.527c.327.095.659.047.936-.107.275-.152.494-.41.587-.737 2.89-10.152-3.013-20.8-13.157-23.73" clip-rule="evenodd"/></svg>