<svg xmlns="http://www.w3.org/2000/svg" width="15" height="14" fill="none"><path stroke="#fff" stroke-linecap="round" stroke-linejoin="round" stroke-width=".75" d="M11.3 2.86a.8.8 0 0 0-.64-.317h-6.4a.8.8 0 0 0-.64.318L1.84 5.22a.79.79 0 0 0 .025.987l4.98 5.992a.8.8 0 0 0 .953.21.8.8 0 0 0 .275-.21l4.98-5.992a.79.79 0 0 0 .026-.987zm-7.407-.229 3.567 9.855m3.547-9.972L7.44 12.37M1.679 5.724h11.559"/><path stroke="#fff" stroke-linecap="round" stroke-linejoin="round" stroke-width=".75" d="m5.06 5.724 2.4-3.181 2.4 3.181"/></svg>