<svg xmlns="http://www.w3.org/2000/svg" width="16" height="16" fill="none"><g fill="#1B283C" clip-path="url(#a)"><path d="M6.017 8.61a.17.17 0 0 0 .028-.2 2.23 2.23 0 0 1 0-2.156.166.166 0 0 0-.028-.2L4.978 5.019a.167.167 0 0 0-.254.022 3.99 3.99 0 0 0 0 4.585.166.166 0 0 0 .194.061.2.2 0 0 0 .061-.038zM8 8.567A1.233 1.233 0 1 0 8 6.1a1.233 1.233 0 0 0 0 2.467M6.723 5.35a.17.17 0 0 0 .2.028 2.23 2.23 0 0 1 2.156 0 .17.17 0 0 0 .2-.028l1.038-1.039a.167.167 0 0 0-.022-.254 3.99 3.99 0 0 0-4.585 0 .167.167 0 0 0-.022.254zm3.26.707a.165.165 0 0 0-.028.2 2.23 2.23 0 0 1-.007 2.169.15.15 0 0 0 .024.175l1.05 1.05a.166.166 0 0 0 .201.026.2.2 0 0 0 .054-.048 3.99 3.99 0 0 0 0-4.586.17.17 0 0 0-.122-.067.17.17 0 0 0-.134.048zm-.707 3.26a.17.17 0 0 0-.2-.028 2.23 2.23 0 0 1-2.155 0 .17.17 0 0 0-.2.028l-1.036 1.038a.167.167 0 0 0 .023.256 3.99 3.99 0 0 0 4.584 0 .17.17 0 0 0 .067-.122.16.16 0 0 0-.048-.134z"/><path d="M14.333 0H1.667A1.64 1.64 0 0 0 0 1.606v11.455a1.6 1.6 0 0 0 .907 1.429.17.17 0 0 1 .093.15v.693a.667.667 0 1 0 1.333 0v-.5a.166.166 0 0 1 .167-.166h11a.167.167 0 0 1 .167.166v.5a.667.667 0 1 0 1.333 0v-.694a.17.17 0 0 1 .093-.149A1.6 1.6 0 0 0 16 13.06V1.607A1.64 1.64 0 0 0 14.333 0m-1 7.333A5.334 5.334 0 1 1 8 2a5.34 5.34 0 0 1 5.333 5.333"/></g><defs><clipPath id="a"><path fill="#fff" d="M0 0h16v16H0z"/></clipPath></defs></svg>