<svg xmlns="http://www.w3.org/2000/svg" width="126" height="126" fill="none"><path fill="#ECF5FB" d="M5.56 63a58.334 58.334 0 1 0 116.668 0A58.334 58.334 0 0 0 5.561 63"/><path stroke="#B5D9F1" stroke-width="2" d="M53.278 18.556a2.083 2.083 0 1 0 0-4.167 2.083 2.083 0 0 0 0 4.167Z" clip-rule="evenodd"/><path stroke="#B5D9F1" stroke-linecap="round" stroke-linejoin="round" stroke-width="2" d="m58.476 85.39-2.946-2.946-2.947 2.947 2.947 2.946z"/><path stroke="#B5D9F1" stroke-linecap="round" stroke-width="2" d="m63.836 24.111 4.025 4.167m-.141-4.167-4.026 4.167M36.753 96.333l4.025 4.167m-.142-4.167L36.61 100.5"/><path fill="#DAECF8" d="M36.531 46.624v-5.25a7.502 7.502 0 0 1 15.005 0v5.25h5.252v-5.25a12.76 12.76 0 1 0-25.51 0v5.25z"/><path fill="#ECF5FB" d="M44.033 28.619a12.76 12.76 0 0 0-12.759 12.759v3a12.76 12.76 0 0 1 17.716-12.09 12.76 12.76 0 0 1 7.794 12.092v-3.006a12.76 12.76 0 0 0-12.75-12.754"/><path fill="#B5D9F1" d="M57.226 46.624H30.841a2.563 2.563 0 0 0-2.563 2.563v17.875a2.563 2.563 0 0 0 2.563 2.563h26.385a2.563 2.563 0 0 0 2.563-2.563V49.187a2.563 2.563 0 0 0-2.563-2.563"/><path fill="#ECF5FB" d="M57.226 46.624H30.841a2.563 2.563 0 0 0-2.563 2.563v4.49a2.563 2.563 0 0 1 2.563-2.564h26.385a2.563 2.563 0 0 1 2.563 2.563v-4.489a2.564 2.564 0 0 0-2.563-2.563"/><path fill="#22618C" stroke="#264887" stroke-dasharray="100 7 1 5" stroke-linecap="round" stroke-linejoin="round" stroke-width="1.25" d="M47.035 55.628a3.002 3.002 0 1 0-4.503 2.585v3.417a1.501 1.501 0 0 0 2.996 0v-3.417a3 3 0 0 0 1.507-2.585"/><path stroke="#264887" stroke-dasharray="100 7 1 5" stroke-linecap="round" stroke-linejoin="round" stroke-width="1.25" d="M57.226 46.624H30.841a2.563 2.563 0 0 0-2.563 2.563v17.875a2.563 2.563 0 0 0 2.563 2.563h26.385a2.563 2.563 0 0 0 2.563-2.563V49.187a2.563 2.563 0 0 0-2.563-2.563"/><path stroke="#264887" stroke-dasharray="100 7 1 5" stroke-linecap="round" stroke-linejoin="round" stroke-width="1.25" d="M36.531 46.624v-5.25a7.502 7.502 0 0 1 15.005 0v5.25h5.252v-5.25a12.76 12.76 0 1 0-25.51 0v5.25z"/><path fill="#3598DB" stroke="#264887" stroke-dasharray="100 7 1 5" stroke-linecap="round" stroke-linejoin="round" stroke-width="1.25" d="M79.98 55.892a6.057 6.057 0 0 0-11.81-1.868l-22.634.11a1.734 1.734 0 1 0 .017 3.47l2.552-.013.017 3.641a1.736 1.736 0 0 0 2.981 1.24 1.74 1.74 0 0 0 .486-1.256l-.018-3.642 3.241-.015.014 1.479a1.734 1.734 0 1 0 3.467-.016l-.007-1.479 9.795-.046a6.057 6.057 0 0 0 11.904-1.605zm-6.044 2.743a2.714 2.714 0 1 1-.024-5.429 2.714 2.714 0 0 1 .024 5.429"/><path fill="#DAECF8" stroke="#264887" stroke-dasharray="100 7 1 5" stroke-linecap="round" stroke-linejoin="round" stroke-width="1.25" d="M93.908 60.053a2.87 2.87 0 0 0 2.793-2.294 50.1 50.1 0 0 0-.048-20.36l-.249-1.194a2.867 2.867 0 1 0-5.612 1.168l.25 1.197a44.4 44.4 0 0 1 .037 18.042 2.87 2.87 0 0 0 2.83 3.44"/><path fill="#3598DB" d="m95.828 98.094-.07-14.424a1.387 1.387 0 0 0-1.393-1.38l-19.441.092a1.387 1.387 0 0 0-1.38 1.394l.068 14.423z"/><path fill="#6CB4E4" d="m94.323 82.287-19.348.09a1.434 1.434 0 0 0-1.426 1.443l.017 3.661a1.43 1.43 0 0 1 1.427-1.442l19.348-.091a1.434 1.434 0 0 1 1.442 1.426l-.018-3.662a1.433 1.433 0 0 0-1.442-1.425"/><path stroke="#264887" stroke-dasharray="100 7 1 5" stroke-linecap="round" stroke-linejoin="round" stroke-width="1.25" d="m95.828 98.094-.07-14.424a1.387 1.387 0 0 0-1.393-1.38l-19.441.092a1.387 1.387 0 0 0-1.38 1.394l.068 14.423"/><path fill="#fff" stroke="#264887" stroke-dasharray="100 7 1 5" stroke-linecap="round" stroke-linejoin="round" stroke-width="1.25" d="m74.97 82.378-.013-2.913a1.385 1.385 0 0 1 1.38-1.393l16.575-.079a1.386 1.386 0 0 1 1.393 1.38l.013 2.914z"/><path fill="#DAECF8" d="m76.384 78.072 16.433-.084v-.73c-.046-9.763 11.499-23.187-4.666-47.123a2.861 2.861 0 0 0-4.82 3.08 49 49 0 0 0-2.018-2.875l-.748-.969a2.868 2.868 0 0 0-4.56 3.477l.74.972a44.8 44.8 0 0 1 8.167 17.894l-.202.024a11.633 11.633 0 0 0-19.677-3.247 2.867 2.867 0 0 0 4.367 3.713 5.908 5.908 0 1 1-.633 6.768 2.92 2.92 0 0 0-2.551-1.47 2.84 2.84 0 0 0-2.441 4.254 12.15 12.15 0 0 0 5.894 5.129c5.215 2.161 6.435 4.627 6.645 11.19z"/><path fill="#DAECF8" d="M84.927 30.871c16.164 23.938 4.619 37.36 4.66 47.124v.013l3.224-.015v-.73c-.046-9.763 11.499-23.188-4.66-47.124a2.867 2.867 0 0 0-4.508-.318c.522.217.968.582 1.284 1.05"/><path stroke="#264887" stroke-dasharray="100 7 1 5" stroke-linecap="round" stroke-linejoin="round" stroke-width="1.25" d="m76.384 78.072 16.433-.084v-.73c-.046-9.763 11.499-23.187-4.666-47.123a2.861 2.861 0 0 0-4.82 3.08 49 49 0 0 0-2.018-2.875l-.748-.969a2.868 2.868 0 0 0-4.56 3.477l.74.972a44.8 44.8 0 0 1 8.167 17.894l-.202.024a11.633 11.633 0 0 0-19.677-3.247 2.867 2.867 0 0 0 4.367 3.713 5.908 5.908 0 1 1-.633 6.768 2.92 2.92 0 0 0-2.551-1.47 2.84 2.84 0 0 0-2.441 4.254 12.15 12.15 0 0 0 5.894 5.129c5.215 2.161 6.435 4.627 6.645 11.19z"/><path stroke="#264887" stroke-dasharray="100 7 1 5" stroke-linecap="round" stroke-linejoin="round" stroke-width="1.25" d="M90.697 51.302a50.7 50.7 0 0 0-7.358-18.084"/><path fill="#D32D27" fill-rule="evenodd" d="m97.794 19.249-1.539-.53 2.638-9.155 2.45.844zm-3.075 2.094q.225-.654.687-.875.462-.222 1.099-.002.627.216.842.685t-.002 1.097-.683.877-1.086.036q-.627-.216-.855-.69t-.002-1.128m-60.427-5.499-1.062.496-3.213-6.061 1.691-.789zm-.545 2.623q-.21-.45-.082-.797.129-.346.568-.55.434-.203.779-.067.346.135.547.569t.086.796q-.118.362-.545.562-.432.202-.788.07-.354-.132-.565-.583m53.613-5.185-1.025-.569 3.015-6.161 1.631.904zm-2.442 1.1q.24-.435.597-.535.354-.098.779.136.419.233.511.591.095.36-.138.778-.231.417-.594.536-.362.12-.774-.11-.418-.231-.52-.596t.139-.8" clip-rule="evenodd"/></svg>