<svg xmlns="http://www.w3.org/2000/svg" width="32" height="32" fill="none"><circle cx="16" cy="16" r="15.5" stroke="#3B70D4"/><path fill="#3B70D4" d="M16.258 22.227c2.5 0 4.21-1.383 4.21-3.368v-.015c0-1.563-1.1-2.547-2.757-2.703v-.04c1.352-.28 2.36-1.21 2.36-2.609v-.015c0-1.766-1.509-2.977-3.829-2.977-2.273 0-3.812 1.281-3.984 3.234l-.008.086h1.875l.008-.078c.101-1.008.922-1.64 2.11-1.64 1.202 0 1.898.609 1.898 1.64v.016c0 .984-.828 1.687-2.07 1.687h-1.29v1.5h1.328c1.446 0 2.32.657 2.32 1.844v.016c0 1.047-.866 1.773-2.171 1.773-1.32 0-2.203-.68-2.313-1.633l-.008-.086h-1.921l.007.094c.149 1.93 1.766 3.274 4.235 3.274"/></svg>