<svg xmlns="http://www.w3.org/2000/svg" width="36" height="36" fill="none"><rect width="36" height="36" fill="#E7F7F2" rx="3"/><path fill="#E7F7F2" d="M6 6h24v24H6z"/><path fill="#008A63" d="M28 16.375a1 1 0 0 0 1-1v-1a1 1 0 0 0-1-1h-2.1a.25.25 0 0 1-.237-.171l-1.1-3.3a1.5 1.5 0 0 0-1.423-1.029H12.86A1.5 1.5 0 0 0 11.437 9.9l-1.1 3.3a.25.25 0 0 1-.237.171H8a1 1 0 0 0-1 1v1a1 1 0 0 0 1 1h.689a.25.25 0 0 1 .177.427l-1.573 1.577a1 1 0 0 0-.293.707v3.293a.98.98 0 0 0 .6.9.25.25 0 0 1 .15.229v2.374A1.25 1.25 0 0 0 9 27.125h2a1.25 1.25 0 0 0 1.25-1.25v-2.25a.25.25 0 0 1 .25-.25h11a.25.25 0 0 1 .25.25v2.25a1.25 1.25 0 0 0 1.25 1.25h2a1.25 1.25 0 0 0 1.25-1.25V23.5a.25.25 0 0 1 .15-.229.98.98 0 0 0 .6-.9v-3.289c0-.265-.106-.519-.293-.707L27.134 16.8a.25.25 0 0 1 .177-.427zm-5.4-5.5a.25.25 0 0 1 .237.171l1.163 3.5a.25.25 0 0 1-.238.329H12.235a.25.25 0 0 1-.244-.213.25.25 0 0 1 .009-.116l1.167-3.5a.25.25 0 0 1 .233-.171zm-10.6 10H9a.5.5 0 0 1-.5-.5v-1a.5.5 0 0 1 .5-.5h3a.5.5 0 0 1 .5.5v1a.5.5 0 0 1-.5.5m11.5-1.5a.5.5 0 0 1 .5-.5h3a.5.5 0 0 1 .5.5v1a.5.5 0 0 1-.5.5h-3a.5.5 0 0 1-.5-.5z"/></svg>