<svg xmlns="http://www.w3.org/2000/svg" width="24" height="24" fill="currentColor"><g clip-path="url(#a)"><path d="M5.407 12.138a.75.75 0 0 0-.656-.387h-.436a.502.502 0 0 1-.5-.565A8.25 8.25 0 0 1 18.47 7.133a1 1 0 0 0 1.568-1.24 10.25 10.25 0 0 0-18.245 5.4.5.5 0 0 1-.5.453H.75a.75.75 0 0 0-.636 1.147l2 3.2a.75.75 0 0 0 1.273 0l2-3.2a.75.75 0 0 0 .02-.755m18.479-.785-2-3.2a.78.78 0 0 0-1.273 0l-2 3.2a.75.75 0 0 0 .636 1.147h.436a.5.5 0 0 1 .5.565A8.25 8.25 0 0 1 5.53 17.118a1 1 0 0 0-1.568 1.241 10.25 10.25 0 0 0 18.245-5.405.5.5 0 0 1 .5-.454h.547a.75.75 0 0 0 .636-1.147z"/><path d="M14.971 9.812a.2.2 0 0 1-.171-.198V8.8a2.8 2.8 0 1 0-5.6 0v.814a.2.2 0 0 1-.171.198A1.2 1.2 0 0 0 8 11v4.4a1.2 1.2 0 0 0 1.2 1.2h5.6a1.2 1.2 0 0 0 1.2-1.2V11a1.2 1.2 0 0 0-1.029-1.188M12.8 13.6a.8.8 0 1 1-1.6 0 .8.8 0 0 1 1.6 0m-2-4.8a1.2 1.2 0 1 1 2.4 0v.8a.2.2 0 0 1-.2.2h-2a.2.2 0 0 1-.2-.2z"/></g><defs><clipPath id="a"><path fill="#fff" d="M0 0h24v24H0z"/></clipPath></defs></svg>