<svg xmlns="http://www.w3.org/2000/svg" width="22" height="15"><path fill="currentColor" d="M0 7.5c0-1 4.4-7 11-7s11 6 11 7-4.4 7-11 7-11-6-11-7m1.597.924a13 13 0 0 0 2.073 2.187C5.807 12.415 8.323 13.5 11 13.5s5.193-1.085 7.33-2.89a13 13 0 0 0 2.073-2.186c.36-.491.586-.925.597-.925-.011.002-.237-.432-.597-.923a13 13 0 0 0-2.073-2.187C16.193 2.585 13.677 1.5 11 1.5S5.807 2.585 3.67 4.39a13 13 0 0 0-2.073 2.186c-.36.491-.586.925-.597.925.011-.002.237.432.597.923M11 12.5a5 5 0 1 1 0-10 5 5 0 0 1 0 10m0-3a2 2 0 1 0 0-4 2 2 0 0 0 0 4"/></svg>