<svg xmlns="http://www.w3.org/2000/svg" width="120" height="120" fill="none"><path fill="#ECF5FB" fill-rule="evenodd" d="M60 120c33.137 0 60-26.863 60-60S93.137 0 60 0 0 26.863 0 60s26.863 60 60 60" clip-rule="evenodd"/><path stroke="#B5D9F1" stroke-linecap="round" stroke-linejoin="round" stroke-width="1.793" d="M37 98.667h47.334"/><path fill="#162649" stroke="#ECF5FB" d="M64.686 22.758a1.258 1.258 0 0 1 2.516 0v3.633a1.258 1.258 0 1 1-2.516 0zm-9.039 3.862 2.486 2.485a1.258 1.258 0 0 1-1.779 1.779l-2.486-2.486a1.258 1.258 0 0 1 1.78-1.779Zm22.373 0a1.26 1.26 0 0 1 0 1.778l-2.486 2.486a1.258 1.258 0 0 1-1.779-1.779l2.487-2.486a1.26 1.26 0 0 1 1.778 0Z"/><g filter="url(#a)"><path fill="#fff" d="M63 34c-3.015 11.923-6.246 15.54-14 18v23.5c4.021 2.01 6.557 3.408 12 4.234h15.5c5 0 5-7.234 0-7.234h5c5 0 5-7 0-7 5 0 5-7 0-7 5 0 5-7 0-7h-14l.5-.5c3.933-12.88 3.055-16.844-5-17"/></g><path stroke="#162649" stroke-width="1.79" d="m67.5 51.5.5-.5c3.933-12.88 3.055-16.844-5-17-3.015 11.923-6.246 15.54-14 18v23.5c4.021 2.01 6.557 3.408 12 4.234h15.5c5 0 5-7.234 0-7.234h5c5 0 5-7 0-7m-14-14H62zm0 0h14c5 0 5 7 0 7m0 0h-5m5 0c5 0 5 7 0 7m0 0h-5"/><g filter="url(#b)"><path fill="#fff" d="M38 78a1 1 0 0 1-1-1V50a1 1 0 0 1 1-1h4.701l2.309.008a3 3 0 0 1 2.99 3V75a3 3 0 0 1-3 3z"/></g><path stroke="#1C315F" stroke-width="1.79" d="M42.704 48.105H38A1.895 1.895 0 0 0 36.105 50v27c0 1.047.848 1.895 1.895 1.895h7A3.895 3.895 0 0 0 48.895 75V52.008a3.895 3.895 0 0 0-3.882-3.895z"/><path fill="#D32D27" d="M42 74a1 1 0 1 0 0-2 1 1 0 0 0 0 2"/><defs><filter id="a" width="38.04" height="47.537" x="48.105" y="33.091" color-interpolation-filters="sRGB" filterUnits="userSpaceOnUse"><feFlood flood-opacity="0" result="BackgroundImageFix"/><feBlend in="SourceGraphic" in2="BackgroundImageFix" result="shape"/><feColorMatrix in="SourceAlpha" result="hardAlpha" values="0 0 0 0 0 0 0 0 0 0 0 0 0 0 0 0 0 0 127 0"/><feOffset dy="-5"/><feComposite in2="hardAlpha" k2="-1" k3="1" operator="arithmetic"/><feColorMatrix values="0 0 0 0 0.760784 0 0 0 0 0.878431 0 0 0 0 0.956863 0 0 0 1 0"/><feBlend in2="shape" result="effect1_innerShadow"/></filter><filter id="b" width="14.58" height="32.58" x="35.21" y="47.21" color-interpolation-filters="sRGB" filterUnits="userSpaceOnUse"><feFlood flood-opacity="0" result="BackgroundImageFix"/><feBlend in="SourceGraphic" in2="BackgroundImageFix" result="shape"/><feColorMatrix in="SourceAlpha" result="hardAlpha" values="0 0 0 0 0 0 0 0 0 0 0 0 0 0 0 0 0 0 127 0"/><feOffset dx="-3" dy="-3"/><feComposite in2="hardAlpha" k2="-1" k3="1" operator="arithmetic"/><feColorMatrix values="0 0 0 0 0.760784 0 0 0 0 0.878431 0 0 0 0 0.956863 0 0 0 1 0"/><feBlend in2="shape" result="effect1_innerShadow"/></filter></defs></svg>