<svg xmlns="http://www.w3.org/2000/svg" width="100" height="100" fill="none"><path fill="#EBF5FB" fill-rule="evenodd" d="M50 100c27.614 0 50-22.386 50-50S77.614 0 50 0 0 22.386 0 50s22.386 50 50 50" clip-rule="evenodd"/><path fill="#fff" fill-rule="evenodd" d="M63.56 50.884c0 6.235 5.034 11.29 11.243 11.29s11.243-5.055 11.243-11.29v-9.2c0-6.235-5.034-11.29-11.243-11.29S63.56 35.45 63.56 41.685zm18.321 0c0 3.926-3.169 7.108-7.078 7.108s-7.08-3.182-7.08-7.108v-9.2c0-3.925 3.17-7.108 7.08-7.108s7.078 3.183 7.078 7.108z" clip-rule="evenodd"/><path fill="#B5D9F1" d="M72.436 34.537c-5.238.591-7.1 4.339-6.509 13.61h1.38c-.197-11.835 1.776-11.44 5.13-13.61"/><path fill="#264887" d="M74.803 61.779c-5.99 0-10.849-4.876-10.849-10.895h-.788c0 6.452 5.208 11.684 11.637 11.684zM85.65 50.884c0 6.019-4.859 10.895-10.848 10.895v.79c6.428 0 11.637-5.233 11.637-11.685zm0-9.2v9.2h.789v-9.2zM74.803 30.79c5.99 0 10.848 4.877 10.848 10.895h.789C86.44 35.233 81.231 30 74.803 30zM63.954 41.684c0-6.018 4.859-10.895 10.849-10.895V30c-6.429 0-11.637 5.233-11.637 11.684zm0 9.2v-9.2h-.788v9.2zm10.849 7.503c4.129 0 7.472-3.361 7.472-7.503h-.788c0 3.71-2.994 6.714-6.684 6.714zm-7.474-7.503c0 4.142 3.345 7.503 7.474 7.503v-.79c-3.69 0-6.685-3.004-6.685-6.713zm0-9.2v9.2h.79v-9.2zm7.474-7.503c-4.13 0-7.474 3.361-7.474 7.503h.79c0-3.71 2.994-6.714 6.684-6.714zm7.472 7.503c0-4.142-3.343-7.503-7.472-7.503v.79c3.69 0 6.684 3.004 6.684 6.713zm0 9.2v-9.2h-.788v9.2z"/><path fill="#fff" fill-rule="evenodd" stroke="#264887" stroke-dasharray="92 7 1 4" stroke-linecap="round" stroke-width="1.25" d="M59.221 50.118c0-.871.706-1.578 1.578-1.578H89.2c.872 0 1.578.707 1.578 1.578v20.513c0 .872-.706 1.578-1.578 1.578H60.8a1.577 1.577 0 0 1-1.578-1.578z" clip-rule="evenodd"/><path fill="#B5D9F1" d="M61.953 68.462V48.935h-.67c-.921 0-1.667.746-1.667 1.667v19.546c0 .92.746 1.667 1.666 1.667h27.275a2.22 2.22 0 0 0 2.222-2.223v-1.13z"/><path fill="#264887" stroke="#264887" stroke-width="1.25" d="M91.37 52.387H58.63a.296.296 0 1 0 0 .591h32.74a.296.296 0 1 0 0-.591Zm0 15.779H58.63a.296.296 0 1 0 0 .591h32.74a.296.296 0 1 0 0-.592Z"/><path stroke="#90C6EB" stroke-linecap="round" stroke-width="1.25" d="M65.138 62.21h22.3m-22.3 2.882h22.3m-22.3-5.763h22.3m-22.3-2.882h22.3"/><path fill="#fff" fill-rule="evenodd" d="M13.56 50.884c0 6.235 5.034 11.29 11.243 11.29s11.242-5.055 11.242-11.29v-9.2c0-6.235-5.033-11.29-11.242-11.29S13.56 35.45 13.56 41.685zm18.321 0c0 3.926-3.169 7.108-7.078 7.108s-7.079-3.182-7.079-7.108v-9.2c0-3.925 3.17-7.108 7.079-7.108 3.91 0 7.078 3.183 7.078 7.108z" clip-rule="evenodd"/><path fill="#B5D9F1" d="M22.436 34.537c-5.238.591-7.1 4.339-6.509 13.61h1.38c-.197-11.835 1.776-11.44 5.129-13.61"/><path fill="#264887" d="M24.803 61.779c-5.99 0-10.848-4.876-10.848-10.895h-.79c0 6.452 5.21 11.684 11.638 11.684zM35.65 50.884c0 6.019-4.859 10.895-10.848 10.895v.79c6.428 0 11.637-5.233 11.637-11.685zm0-9.2v9.2h.789v-9.2zM24.803 30.79c5.99 0 10.848 4.877 10.848 10.895h.789C36.44 35.233 31.23 30 24.803 30zM13.955 41.684c0-6.018 4.858-10.895 10.848-10.895V30c-6.429 0-11.637 5.233-11.637 11.684zm0 9.2v-9.2h-.79v9.2zm10.848 7.503c4.129 0 7.473-3.361 7.473-7.503h-.79c0 3.71-2.993 6.714-6.683 6.714zm-7.473-7.503c0 4.142 3.344 7.503 7.473 7.503v-.79c-3.69 0-6.684-3.004-6.684-6.713zm0-9.2v9.2h.789v-9.2zm7.473-7.503c-4.13 0-7.473 3.361-7.473 7.503h.789c0-3.71 2.994-6.714 6.684-6.714zm7.473 7.503c0-4.142-3.344-7.503-7.473-7.503v.79c3.69 0 6.684 3.004 6.684 6.713zm0 9.2v-9.2h-.79v9.2z"/><path fill="#fff" fill-rule="evenodd" stroke="#264887" stroke-dasharray="92 7 1 4" stroke-linecap="round" stroke-width="1.25" d="M9.22 50.118c0-.871.707-1.578 1.579-1.578H39.2c.872 0 1.578.707 1.578 1.578v20.513c0 .872-.706 1.578-1.578 1.578H10.8a1.58 1.58 0 0 1-1.58-1.579z" clip-rule="evenodd"/><path fill="#B5D9F1" d="M11.953 68.462V49.144H11c-.92 0-1.385.537-1.385 1.458v19.546c0 .92.746 1.666 1.667 1.666h27.275a2.22 2.22 0 0 0 2.222-2.222v-1.13z"/><path fill="#264887" stroke="#264887" stroke-width="1.25" d="M41.37 52.387H8.63a.296.296 0 0 0 0 .591h32.74a.296.296 0 0 0 0-.591Zm0 15.779H8.63a.296.296 0 0 0 0 .591h32.74a.296.296 0 1 0 0-.592Z"/><path stroke="#90C6EB" stroke-linecap="round" stroke-width="1.25" d="M15.138 62.21h22.3m-22.3 2.882h22.3m-22.3-5.763h22.3m-22.3-2.882h22.3"/><path fill="#fff" fill-rule="evenodd" d="M33.889 47.189c0 8.781 7.089 15.9 15.833 15.9s15.834-7.119 15.834-15.9V34.233c0-8.781-7.09-15.9-15.834-15.9s-15.833 7.119-15.833 15.9zm25.802 0c0 5.529-4.463 10.011-9.969 10.011s-9.969-4.482-9.969-10.011V34.233c0-5.529 4.464-10.01 9.97-10.01 5.505 0 9.968 4.481 9.968 10.01z" clip-rule="evenodd"/><path fill="#B5D9F1" d="M46.389 24.167c-7.376.833-10 6.11-9.166 19.166h1.944c-.278-16.666 2.5-16.11 7.222-19.166"/><path fill="#264887" d="M49.722 62.533c-8.435 0-15.278-6.867-15.278-15.344h-1.11c0 9.086 7.335 16.456 16.388 16.456zM65 47.19c0 8.477-6.842 15.344-15.278 15.344v1.111c9.054 0 16.39-7.369 16.39-16.455zm0-12.956V47.19h1.111V34.233zM49.722 18.89C58.158 18.889 65 25.757 65 34.233h1.111c0-9.086-7.335-16.455-16.389-16.455zM34.444 34.233c0-8.476 6.843-15.344 15.278-15.344v-1.111c-9.053 0-16.389 7.37-16.389 16.455zm0 12.956V34.233h-1.11V47.19zm15.278 10.567c5.815 0 10.525-4.733 10.525-10.567h-1.111c0 5.224-4.217 9.456-9.414 9.456zM39.198 47.189c0 5.834 4.71 10.567 10.524 10.567v-1.111c-5.196 0-9.413-4.232-9.413-9.456zm0-12.956V47.19h1.11V34.233zm10.524-10.566c-5.815 0-10.524 4.733-10.524 10.566h1.11c0-5.224 4.218-9.455 9.414-9.455zm10.525 10.566c0-5.833-4.71-10.566-10.525-10.566v1.11c5.197 0 9.414 4.232 9.414 9.456zm0 12.956V34.233h-1.111V47.19z"/><path fill="#fff" fill-rule="evenodd" stroke="#264887" stroke-dasharray="92 7 1 4" stroke-linecap="round" stroke-width="1.25" d="M27.778 46.111c0-1.227.995-2.222 2.222-2.222h40c1.227 0 2.222.995 2.222 2.222V75A2.22 2.22 0 0 1 70 77.222H30A2.22 2.22 0 0 1 27.778 75z" clip-rule="evenodd"/><path fill="#B5D9F1" d="M31.625 71.945V44.5H30c-.92 0-1.667.69-1.667 1.611V75c0 .92.747 1.667 1.667 1.667h40a2.22 2.22 0 0 0 2.222-2.222v-2.5z"/><path fill="#264887" stroke="#264887" stroke-width="1.25" d="M73.056 49.306H26.945a.417.417 0 1 0 0 .833h46.11a.417.417 0 0 0 0-.833Zm0 22.222H26.945a.417.417 0 0 0 0 .833h46.11a.417.417 0 0 0 0-.833Z"/><path stroke="#90C6EB" stroke-linecap="round" stroke-width="1.25" d="M36.111 63.14h31.405m-31.405 4.058h31.405m-31.405-8.116h31.405m-31.405-4.058h31.405"/><path fill="#fff" fill-rule="evenodd" stroke="#26417E" stroke-linecap="round" stroke-linejoin="round" stroke-width="1.25" d="M56.111 61.11a5.555 5.555 0 1 1-11.11.002 5.555 5.555 0 0 1 11.11-.001" clip-rule="evenodd"/><path fill="#B5D9F1" d="M47.432 57.222c-1.043 2.778-.42 7.5 3.679 8.89-5.833.277-7.222-6.39-3.68-8.89"/><path fill="#E3E3E3" stroke="#D22D27" stroke-width="1.25" d="M50.848 63.45v-4.678a.292.292 0 0 0-.585 0v4.678a.293.293 0 1 0 .585 0Z"/><path stroke="#C2E0F4" stroke-width="1.25" d="M57.778 12.778a1.667 1.667 0 1 0 0-3.333 1.667 1.667 0 0 0 0 3.333Z" clip-rule="evenodd"/><path stroke="#C2E0F4" stroke-linecap="round" stroke-linejoin="round" stroke-width="1.25" d="M28.333 16.667H25V20h3.333z"/><path stroke="#C2E0F4" stroke-linecap="round" stroke-width="1.25" d="m74.003 24.003 2.596 2.596m-.092-2.596-2.596 2.596"/><path stroke="#264887" stroke-dasharray="1 6 164 5" stroke-linecap="round" stroke-width="1.25" d="M21.667 77.222h57.222"/></svg>