<svg xmlns="http://www.w3.org/2000/svg" width="16" height="16" fill="none"><g fill="#40526D" clip-path="url(#a)"><path d="M1.766 10.824a.333.333 0 0 0-.56.163L.262 15.23a.334.334 0 0 0 .397.399l4.243-.943a.334.334 0 0 0 .163-.562zm10.135-6.127-7.306 7.307a.17.17 0 0 0 0 .236l1.178 1.178a.34.34 0 0 0 .472 0l7.07-7.071a.333.333 0 0 0 0-.471l-1.178-1.18a.17.17 0 0 0-.236 0m-.706-.942-1.179-1.178a.333.333 0 0 0-.471 0l-7.072 7.07a.333.333 0 0 0 0 .472l1.179 1.179a.17.17 0 0 0 .236 0l7.307-7.307a.17.17 0 0 0 0-.236M14.966.925a2.67 2.67 0 0 0-3.772 0l-.471.47a.333.333 0 0 0 0 .472l3.3 3.3a.34.34 0 0 0 .47 0l.473-.472a2.666 2.666 0 0 0 0-3.77"/></g><defs><clipPath id="a"><path fill="#fff" d="M0-.11h16v16H0z"/></clipPath></defs></svg>