<svg xmlns="http://www.w3.org/2000/svg" width="24" height="24" fill="none"><rect width="22.639" height="22.474" x=".68" y=".763" fill="currentColor" rx="4"/><path fill="#fff" fill-rule="evenodd" d="M19.794 7.952a.557.557 0 1 1 1.113 0v8.097a.557.557 0 0 1-1.113 0zM4.763 13.658c.922 0 1.67-.743 1.67-1.658 0-.916-.748-1.658-1.67-1.658s-1.67.742-1.67 1.658.748 1.658 1.67 1.658m5.567 0c.922 0 1.67-.743 1.67-1.658 0-.916-.748-1.658-1.67-1.658-.923 0-1.67.742-1.67 1.658s.747 1.658 1.67 1.658m5.566 0c.923 0 1.67-.743 1.67-1.658 0-.916-.747-1.658-1.67-1.658s-1.67.742-1.67 1.658.748 1.658 1.67 1.658" clip-rule="evenodd"/></svg>