<svg xmlns="http://www.w3.org/2000/svg" width="24" height="24" fill="none"><path fill="#40526D" fill-rule="evenodd" d="M20.696 3H3.304c-.346 0-.677.135-.922.376S2 3.944 2 4.285V15.89a1.23 1.23 0 0 0 .387.89 1.27 1.27 0 0 0 .917.352h2.609v3.426a.41.41 0 0 0 .235.377.41.41 0 0 0 .443 0l5.548-3.803h8.557c.346 0 .677-.136.922-.377a1.27 1.27 0 0 0 .382-.908V4.285c0-.341-.137-.668-.382-.909A1.32 1.32 0 0 0 20.696 3M6 12a1 1 0 0 1 1-1h10a1 1 0 1 1 0 2H7a1 1 0 0 1-1-1m1-5a1 1 0 0 0 0 2h10a1 1 0 1 0 0-2z" clip-rule="evenodd"/></svg>