<svg xmlns="http://www.w3.org/2000/svg" width="24" height="24" fill="none"><path fill="#40526D" d="M11.27 16.494a.2.2 0 0 0-.095.023.24.24 0 0 0-.091.184v3.774c0 .67.265 1.312.738 1.785a2.517 2.517 0 0 0 4.301-1.785.92.92 0 0 0-.916-.918.915.915 0 0 0-.916.918.69.69 0 0 1-.687.689.686.686 0 0 1-.688-.689v-3.737a.24.24 0 0 0-.091-.184.23.23 0 0 0-.202 0 2.15 2.15 0 0 1-1.246 0c-.04-.023-.072-.06-.107-.06M12 1a.915.915 0 0 0-.916.918v.294a.23.23 0 0 1-.202.23A11.14 11.14 0 0 0 3.725 6.22a11.18 11.18 0 0 0-2.72 7.635v.459a.92.92 0 0 0 .916.918.915.915 0 0 0 .916-.918c0-.487.642-.918 1.375-.918s1.374.459 1.374.918a.92.92 0 0 0 .916.918.915.915 0 0 0 .917-.918c0-.377.714-.918 1.832-.918s1.833.541 1.833.918a.92.92 0 0 0 .916.918.915.915 0 0 0 .916-.918c0-.377.715-.918 1.833-.918s1.832.541 1.832.918a.92.92 0 0 0 .917.918.915.915 0 0 0 .916-.918c0-.487.641-.918 1.374-.918s1.375.431 1.375.918a.92.92 0 0 0 .916.918.916.916 0 0 0 .916-.918v-.46a11.18 11.18 0 0 0-2.72-7.634 11.14 11.14 0 0 0-7.157-3.778.23.23 0 0 1-.202-.23v-.294A.92.92 0 0 0 12 1"/></svg>