<svg xmlns="http://www.w3.org/2000/svg" width="20" height="20" fill="none"><g fill="#007AFF" clip-path="url(#a)"><path d="M15.208 3.75h.625a.417.417 0 0 1 .417.417v.625a.625.625 0 1 0 1.25 0v-.625a.417.417 0 0 1 .417-.417h.625a.625.625 0 0 0 0-1.25h-.625a.417.417 0 0 1-.417-.417v-.625a.625.625 0 1 0-1.25 0v.625a.417.417 0 0 1-.417.417h-.625a.625.625 0 0 0 0 1.25m-11.25 10h-.416a.21.21 0 0 1-.209-.208v-.417a.625.625 0 1 0-1.25 0v.417a.21.21 0 0 1-.208.208h-.417a.625.625 0 1 0 0 1.25h.417a.21.21 0 0 1 .208.208v.417a.625.625 0 1 0 1.25 0v-.417A.21.21 0 0 1 3.542 15h.416a.625.625 0 1 0 0-1.25m9.217-5.3a.94.94 0 0 0-.6-.95l-1.825-.7a.41.41 0 0 1-.258-.383l-.05-2.042A.925.925 0 0 0 8.85 3.7l-1.1 1.108a.42.42 0 0 1-.433.092L5.5 4.275a.96.96 0 0 0-.983.233.97.97 0 0 0-.242.992L4.9 7.317a.4.4 0 0 1-.1.433l-1.1 1.1a.925.925 0 0 0-.208 1.025.95.95 0 0 0 .833.567l2.059.05a.41.41 0 0 1 .375.258l.741 1.825a.958.958 0 0 0 1.834-.075L10 10.242a.41.41 0 0 1 .284-.284l2.216-.625a.95.95 0 0 0 .675-.883M2.267 3.15a.625.625 0 0 0 .883-.883L1.9 1.017a.625.625 0 0 0-.883.883zm5.025-.233a.633.633 0 0 0 .625-.625V.625a.625.625 0 0 0-1.25 0v1.667a.633.633 0 0 0 .625.625M2.917 7.708a.633.633 0 0 0-.625-.625H.625a.625.625 0 0 0 0 1.25h1.667a.633.633 0 0 0 .625-.625m16.55 9.5-7.392-6.566a.41.41 0 0 0-.567 0l-.833.833a.41.41 0 0 0 0 .567l6.575 7.391a1.598 1.598 0 0 0 2.716-.453 1.6 1.6 0 0 0-.466-1.805z"/></g><defs><clipPath id="a"><path fill="#fff" d="M0 0h20v20H0z"/></clipPath></defs></svg>