<svg xmlns="http://www.w3.org/2000/svg" width="16" height="16" fill="none"><g fill="#40526D" clip-path="url(#a)"><path d="M9 6a4 4 0 0 0-1-2.643v-1.69a1.667 1.667 0 0 0-3.334 0v.347a4 4 0 0 0-1 7.754v.427l-.569.569a.333.333 0 0 0 0 .472l.57.57v.39l-.57.57a.333.333 0 0 0 0 .47l.57.57v.86a.33.33 0 0 0 .097.237l1 1a.334.334 0 0 0 .472 0l1-1a.33.33 0 0 0 .097-.236V9.768A4.01 4.01 0 0 0 9 6M5 4a.667.667 0 1 1 0 1.333A.667.667 0 0 1 5 4M6.333.667a1 1 0 0 1 1 1v1.086A4 4 0 0 0 6 2.127v1.206h-.667V1.667a1 1 0 0 1 1-1"/><path d="m14.903 12.018-3.467-3.467a3.964 3.964 0 0 0-1.415-5.06.333.333 0 0 0-.485.418 4.98 4.98 0 0 1-1.85 6.3.334.334 0 0 0 .18.614h.004a4 4 0 0 0 1.694-.393l.433.385v.853a.333.333 0 0 0 .333.333h.858l.142.15V13a.333.333 0 0 0 .334.333h.746l.61.576a.34.34 0 0 0 .23.09h1.417a.333.333 0 0 0 .333-.332v-1.414a.33.33 0 0 0-.097-.236"/></g><defs><clipPath id="a"><path fill="#fff" d="M0 0h16v16H0z"/></clipPath></defs></svg>