<svg xmlns="http://www.w3.org/2000/svg" viewBox="0 0 108 108"><defs><style>.cls-2{fill:#d22630}</style></defs><path d="M0 0h108v108H0z" style="fill:#0a2240"/><svg xmlns="http://www.w3.org/2000/svg" width="150" height="150" x="-21" y="-21" viewBox="0 0 108 108"><path d="m53.927 26.5 23.371 8.908-.212 23.306a19.14 19.14 0 0 1-7.824 15.922c-9.231 6.597-13.261 8.084-13.261 8.084L54 83.5s-6.232-2.128-15.363-8.864a19.8 19.8 0 0 1-7.824-15.922l-.111-23.378Z" class="cls-2"/><path d="m53.939 31.237 19.487 7.427-.177 19.432a15.96 15.96 0 0 1-6.524 13.276c-7.697 5.5-11.057 6.74-11.057 6.74l-1.668.65s-5.196-1.774-12.809-7.39a16.5 16.5 0 0 1-6.523-13.276l-.093-19.491Z" style="fill:#fff;stroke:#0a2240;stroke-miterlimit:10;stroke-width:.71156px"/><path d="M68.102 46.883a.81.81 0 0 0-.81.808v13.084a.81.81 0 1 0 1.62.001V47.695a.81.81 0 0 0-.81-.812m-16.04 4.235a3.11 3.11 0 1 0 3.086 3.135v-.024a3.1 3.1 0 0 0-3.086-3.11m8.75 0a3.11 3.11 0 1 0 3.087 3.135v-.024a3.1 3.1 0 0 0-3.086-3.11m-17.5 0a3.11 3.11 0 1 0 3.085 3.135v-.024a3.1 3.1 0 0 0-3.085-3.11" class="cls-2"/></svg></svg>