<svg xmlns="http://www.w3.org/2000/svg" width="20" height="20" fill="none"><path fill="#007AFF" d="M1.667 15.291c0 .807.319 1.58.887 2.15.569.571 1.34.892 2.143.892h8.08c.804 0 1.575-.321 2.143-.891s.888-1.344.888-2.15v-5.07a1.02 1.02 0 0 0-.622-.942 1.01 1.01 0 0 0-1.106.222l-4.565 4.532a2.52 2.52 0 0 1-1.887.738 2.52 2.52 0 0 1-1.82-.89 2.65 2.65 0 0 1 .242-3.548l4.455-4.41a1.014 1.014 0 0 0 0-1.44 1 1 0 0 0-.717-.304h-5.05c-.804 0-1.575.32-2.143.89a3.05 3.05 0 0 0-.888 2.151z"/><path fill="#007AFF" d="M7.035 12.999a1.36 1.36 0 0 0 1.924 0l6.16-6.16a.175.175 0 0 1 .249 0l1.319 1.319a.702.702 0 0 0 1.156-.432l.362-5.173a.7.7 0 0 0-.724-.724l-5.174.362a.702.702 0 0 0-.431 1.155l1.32 1.32a.175.175 0 0 1 0 .248l-6.161 6.16a1.36 1.36 0 0 0 0 1.925"/></svg>