<svg xmlns="http://www.w3.org/2000/svg" width="20" height="20" fill="currentColor"><path d="M3.125 14.368a2.5 2.5 0 0 0 2.5 2.5h6.667a2.5 2.5 0 0 0 2.5-2.5v-4.194a.834.834 0 0 0-.837-.838.83.83 0 0 0-.59.247l-3.767 3.761a2.083 2.083 0 0 1-3.057-.121 2.17 2.17 0 0 1 .203-2.917l3.673-3.667a.833.833 0 0 0 0-1.183l-.006-.006a.83.83 0 0 0-.592-.245H5.625a2.5 2.5 0 0 0-2.5 2.5z"/><path d="M14.103 7.076a.21.21 0 0 1 .295 0l1.769 1.766a.417.417 0 0 0 .711-.294v-5a.417.417 0 0 0-.416-.417h-5a.417.417 0 0 0-.295.71l1.76 1.762a.21.21 0 0 1 0 .295l-5.391 5.38a.834.834 0 0 0 1.178 1.18z"/></svg>