<svg xmlns="http://www.w3.org/2000/svg" width="40" height="40" fill="none"><rect width="40" height="40" fill="#069" rx="8"/><path fill="#fff" fill-rule="evenodd" d="M11.997 33.45V15.29H5.96v18.16zM8.979 12.81c2.105 0 3.415-1.395 3.415-3.137-.04-1.782-1.31-3.138-3.375-3.138S5.604 7.89 5.604 9.673c0 1.742 1.31 3.137 3.335 3.137zm6.358 20.64h6.036V23.307c0-.543.04-1.085.199-1.473.436-1.085 1.43-2.208 3.097-2.208 2.184 0 3.058 1.666 3.058 4.107v9.715h6.035V23.037c0-5.578-2.977-8.174-6.949-8.174-3.256 0-4.685 1.82-5.48 3.06h.04v-2.634h-6.035c.079 1.704 0 18.16 0 18.16" clip-rule="evenodd"/></svg>