<svg xmlns="http://www.w3.org/2000/svg" width="40" height="41" fill="none"><path fill="#47A1DE" d="M33.333 10.997H17.5a.84.84 0 0 1-.598-.255l-2.235-2.313a2.5 2.5 0 0 0-1.804-.765h-5.72a2.98 2.98 0 0 0-2.976 2.975v19.05a2.98 2.98 0 0 0 2.976 2.975h25.714a2.98 2.98 0 0 0 2.976-2.975V13.497a2.5 2.5 0 0 0-2.5-2.5"/><g fill="#fff" clip-path="url(#a)"><path d="M26.388 21.553a2.503 2.503 0 0 0-2.5-2.5h-1.74a.556.556 0 0 0 0 1.11h1.74a1.39 1.39 0 0 1 0 2.778h-3.055a1.39 1.39 0 0 1-1.39-1.389.556.556 0 0 0-1.11 0 2.5 2.5 0 0 0 2.5 2.5h3.055a2.503 2.503 0 0 0 2.5-2.5"/><path d="M17.98 23.497a.556.556 0 0 0-.555-.556H16.11a1.389 1.389 0 0 1 0-2.777h2.778a1.39 1.39 0 0 1 1.39 1.388.556.556 0 1 0 1.11 0 2.503 2.503 0 0 0-2.5-2.5H16.11a2.5 2.5 0 1 0 0 5h1.315a.555.555 0 0 0 .555-.555"/></g><defs><clipPath id="a"><path fill="#fff" d="M13.333 15.164h13.333v13.333H13.333z"/></clipPath></defs></svg>