<svg xmlns="http://www.w3.org/2000/svg" width="24" height="25" fill="none"><path fill="#056DFF" d="M22.084 1.5H10.17a.916.916 0 0 0-.916.917v2.291a.917.917 0 1 0 1.833 0v-.916a.46.46 0 0 1 .458-.459h9.164a.46.46 0 0 1 .458.459v17.416a.46.46 0 0 1-.458.459h-9.164a.46.46 0 0 1-.458-.459v-.916a.917.917 0 1 0-1.833 0v2.291a.917.917 0 0 0 .916.917h11.914a.916.916 0 0 0 .916-.917V2.417a.917.917 0 0 0-.916-.917"/><path fill="#056DFF" d="M11.682 14.413h.587l.788.779a.44.44 0 0 0 .641 0l.789-.78h.531l.788.78a.44.44 0 0 0 .642 0l.788-.78h1.182a.43.43 0 0 0 .32-.137l1.375-1.375a.44.44 0 0 0 0-.642l-1.374-1.375a.43.43 0 0 0-.321-.137h-6.736a5.5 5.5 0 0 0-9.387-1.712 5.5 5.5 0 0 0 6.986 8.29 5.5 5.5 0 0 0 2.401-2.912m-5.635-1.834a1.375 1.375 0 1 1-2.75 0 1.375 1.375 0 0 1 2.75 0"/></svg>