<svg xmlns="http://www.w3.org/2000/svg" width="36" height="36" fill="none"><path fill="#6C6BBD" d="M22.75 10.181h-9.497v15.635h9.497z"/><path fill="#D32011" d="M14.231 18a10 10 0 0 1 .99-4.345A9.9 9.9 0 0 1 18 10.185 9.8 9.8 0 0 0 7.593 9.06a9.9 9.9 0 0 0-4.05 3.667A10 10 0 0 0 2.04 18a10 10 0 0 0 1.503 5.275 9.9 9.9 0 0 0 4.05 3.668 9.8 9.8 0 0 0 10.406-1.125 9.9 9.9 0 0 1-2.778-3.472A10 10 0 0 1 14.23 18"/><path fill="#F79E1B" d="M33.016 24.162v-.32h.137v-.067h-.326v.066h.129v.32zm.633 0v-.387h-.099l-.115.276-.115-.276h-.098v.387h.07v-.293l.108.251h.074l.107-.251v.293z"/><path fill="#0099DF" d="M33.96 18a10 10 0 0 1-1.504 5.275 9.9 9.9 0 0 1-4.05 3.668 9.8 9.8 0 0 1-10.407-1.127 9.9 9.9 0 0 0 2.777-3.472 10.01 10.01 0 0 0 0-8.691 9.9 9.9 0 0 0-2.777-3.472 9.8 9.8 0 0 1 10.407-1.127 9.9 9.9 0 0 1 4.05 3.668 10 10 0 0 1 1.503 5.275z"/></svg>