<svg xmlns="http://www.w3.org/2000/svg" width="24" height="24" fill="none"><path fill="#40526D" d="M24 4.5a2 2 0 0 0-2-2H2a2 2 0 0 0-2 2v15a2 2 0 0 0 2 2h3a1 1 0 0 0 1-1v-.75a.75.75 0 1 1 1.5 0v.75a1 1 0 0 0 1 1h7a1 1 0 0 0 1-1v-.75a.75.75 0 1 1 1.5 0v.75a1 1 0 0 0 1 1h3a2 2 0 0 0 2-2zM22 19a.5.5 0 0 1-.5.5h-1.09a.49.49 0 0 1-.48-.38 2.75 2.75 0 0 0-5.36 0 .49.49 0 0 1-.48.38H9.91a.49.49 0 0 1-.48-.38 2.75 2.75 0 0 0-5.36 0 .49.49 0 0 1-.48.38H2.5A.5.5 0 0 1 2 19V5a.47.47 0 0 1 .15-.35.47.47 0 0 1 .35-.15h19a.5.5 0 0 1 .5.5z"/><path fill="#40526D" d="M14.25 11.5a.76.76 0 0 0 .75.75h4.78a.75.75 0 1 0 0-1.5H15a.76.76 0 0 0-.75.75m0 3a.76.76 0 0 0 .75.75h2.61a.75.75 0 1 0 0-1.5H15a.76.76 0 0 0-.75.75M15 9.25h5a.75.75 0 1 0 0-1.5h-5a.75.75 0 1 0 0 1.5M7.83 11a2 2 0 1 0 0-4 2 2 0 0 0 0 4M5 15h5.64a.5.5 0 0 0 .47-.68A3.57 3.57 0 0 0 7.83 12a3.57 3.57 0 0 0-3.29 2.32A.5.5 0 0 0 5 15"/></svg>