<svg xmlns="http://www.w3.org/2000/svg" width="24" height="24" fill="none"><path fill="#40526D" fill-rule="evenodd" d="M20.538 2.464c.296.297.462.7.462 1.12v10.725h-5.93c-.37 0-1.005.434-1.005 1.126V21H4.576a1.57 1.57 0 0 1-1.114-.464A1.6 1.6 0 0 1 3 19.416V3.584c0-.42.166-.822.462-1.12A1.57 1.57 0 0 1 4.576 2h14.848c.418 0 .819.167 1.114.464M6.6 6.75c0-.525.403-.95.9-.95h9c.497 0 .9.425.9.95s-.403.95-.9.95h-9c-.497 0-.9-.425-.9-.95m.9 2.85c-.497 0-.9.425-.9.95s.403.95.9.95h9c.497 0 .9-.425.9-.95s-.403-.95-.9-.95z" clip-rule="evenodd"/><path fill="#40526D" d="M21 15.238h-4.57q-.08 0-.152.007a1.57 1.57 0 0 0-1.11.796 2 2 0 0 0-.177.803V21h.376a.8.8 0 0 0 .56-.23l4.845-4.591a.8.8 0 0 0 .228-.562z"/></svg>