<svg xmlns="http://www.w3.org/2000/svg" width="40" height="40" fill="none"><rect width="39.5" height="39.5" x=".25" y=".25" fill="#fff" rx="7.75"/><rect width="39.5" height="39.5" x=".25" y=".25" stroke="#D5DBE2" stroke-width=".5" rx="7.75"/><g clip-path="url(#a)"><path fill="#0A2767" d="M34 20.674a.63.63 0 0 0-.298-.537H33.7l-.012-.006-9.702-5.744a1.3 1.3 0 0 0-1.455 0l-9.702 5.744-.012.006a.632.632 0 0 0 .015 1.083l9.702 5.743q.064.042.13.078a1.3 1.3 0 0 0 1.325-.078l9.702-5.743a.63.63 0 0 0 .31-.546"/><path fill="#0364B8" d="M13.959 16.84h6.367v5.836h-6.367zm18.739-5.933v-2.67A1.21 1.21 0 0 0 31.518 7H14.994a1.21 1.21 0 0 0-1.18 1.237v2.67l9.767 2.605z"/><path fill="#0078D4" d="M13.815 10.907h6.511v5.86h-6.511z"/><path fill="#28A8EA" d="M26.837 10.907h-6.512v5.86l6.512 5.861h5.86v-5.86z"/><path fill="#0078D4" d="M20.325 16.767h6.512v5.86h-6.512z"/><path fill="#0364B8" d="M20.325 22.628h6.512v5.86h-6.512z"/><path fill="#14447D" d="M13.959 22.676h6.367v5.305H13.96z"/><path fill="#0078D4" d="M26.838 22.628h5.86v5.86h-5.86z"/><path fill="url(#b)" d="m33.703 21.185-.013.006-9.702 5.457a1.35 1.35 0 0 1-.656.203l-.53-.31a1 1 0 0 1-.13-.075l-9.833-5.611h-.005l-.321-.18V31.72c.005.737.606 1.33 1.343 1.326h18.822c.012 0 .021-.005.033-.005q.236-.015.456-.095.095-.041.183-.096c.044-.024.118-.078.118-.078.334-.247.531-.637.533-1.052V20.675a.59.59 0 0 1-.298.51"/><path fill="#0A2767" d="M33.48 20.631v.677l-10.146 6.986-10.503-7.435-.006-.006-.964-.58v-.488l.397-.007.84.482.02.007.071.045s9.872 5.633 9.898 5.646l.378.221q.047-.02.104-.039c.02-.013 9.8-5.515 9.8-5.515z" opacity=".5"/><path fill="#1490DF" d="m33.703 21.185-.013.007-9.702 5.456a1.36 1.36 0 0 1-1.455 0l-9.702-5.456-.012-.007a.59.59 0 0 1-.306-.51V31.72c.004.737.605 1.33 1.342 1.326h18.803a1.334 1.334 0 0 0 1.343-1.326V20.675a.59.59 0 0 1-.298.51"/><path fill="#000" d="m24.13 26.568-.146.08a1.35 1.35 0 0 1-.642.21l3.692 4.365 6.439 1.552a1.3 1.3 0 0 0 .408-.51z" opacity=".1"/><path fill="#000" d="m24.787 26.197-.803.451a1.35 1.35 0 0 1-.642.209l1.73 4.769 8.403 1.147a1.32 1.32 0 0 0 .526-1.053v-.142z" opacity=".05"/><path fill="#28A8EA" d="M13.874 33.047h18.782c.29.001.571-.09.805-.26L22.8 26.541a1 1 0 0 1-.13-.075l-9.833-5.611h-.004l-.321-.181v11.008a1.36 1.36 0 0 0 1.36 1.364"/><path fill="#000" d="M21.629 13.403v13.889a1.2 1.2 0 0 1-.749 1.107q-.212.09-.443.09h-7.924V12.86h1.302v-.651h6.622c.658.002 1.19.536 1.192 1.194" opacity=".1"/><path fill="#000" d="M20.978 14.054v13.89a1.1 1.1 0 0 1-.098.455c-.18.446-.613.738-1.094.74h-7.273V12.862h7.273c.19-.002.375.045.54.136.4.201.652.61.652 1.057" opacity=".2"/><path fill="#000" d="M20.978 14.054v12.587a1.2 1.2 0 0 1-1.192 1.196h-7.273V12.861h7.273c.19-.002.375.045.54.136.4.201.652.61.652 1.057" opacity=".2"/><path fill="#000" d="M20.327 14.054v12.587a1.197 1.197 0 0 1-1.192 1.196h-6.622V12.861h6.622c.659 0 1.192.534 1.192 1.192z" opacity=".2"/><path fill="url(#c)" d="M7.193 12.86h11.939c.659 0 1.193.535 1.193 1.194v11.939c0 .659-.534 1.193-1.193 1.193H7.193A1.193 1.193 0 0 1 6 25.992V14.055c0-.66.534-1.194 1.193-1.194"/><path fill="#fff" d="M9.73 17.866a3.47 3.47 0 0 1 1.364-1.506 4.1 4.1 0 0 1 2.166-.543 3.84 3.84 0 0 1 2.005.515 3.44 3.44 0 0 1 1.327 1.44c.32.658.479 1.383.465 2.116a4.9 4.9 0 0 1-.479 2.213c-.3.62-.776 1.137-1.367 1.49a4 4 0 0 1-2.08.528 3.9 3.9 0 0 1-2.05-.52 3.5 3.5 0 0 1-1.343-1.442 4.5 4.5 0 0 1-.47-2.091 5 5 0 0 1 .462-2.2m1.454 3.536c.157.396.423.74.767.991.35.245.77.372 1.198.36.455.019.904-.112 1.279-.372.34-.25.599-.595.745-.99.163-.443.244-.912.237-1.383a4.2 4.2 0 0 0-.224-1.4 2.2 2.2 0 0 0-.721-1.033 1.98 1.98 0 0 0-1.268-.39 2.07 2.07 0 0 0-1.226.364c-.35.252-.621.598-.781.999a3.97 3.97 0 0 0-.006 2.855"/><path fill="#50D9FF" d="M26.838 10.907h5.86v5.86h-5.86z"/></g><defs><linearGradient id="b" x1="23.257" x2="23.257" y1="20.675" y2="33.047" gradientUnits="userSpaceOnUse"><stop stop-color="#35B8F1"/><stop offset="1" stop-color="#28A8EA"/></linearGradient><linearGradient id="c" x1="8.488" x2="17.837" y1="11.928" y2="28.119" gradientUnits="userSpaceOnUse"><stop stop-color="#1784D9"/><stop offset=".5" stop-color="#107AD5"/><stop offset="1" stop-color="#0A63C9"/></linearGradient><clipPath id="a"><path fill="#fff" d="M6 7h28v26.047H6z"/></clipPath></defs></svg>