<svg xmlns="http://www.w3.org/2000/svg" width="48" height="48" fill="none"><rect width="47" height="47" x=".5" y=".5" fill="url(#a)" rx="23.5"/><rect width="47" height="47" x=".5" y=".5" stroke="#B5D9F1" rx="23.5"/><g fill="#22618C" clip-path="url(#b)"><path d="M21.025 24.915a.25.25 0 0 0 .042-.3 3.34 3.34 0 0 1 0-3.234.25.25 0 0 0-.042-.3l-1.558-1.553a.25.25 0 0 0-.301-.04.25.25 0 0 0-.08.073 5.99 5.99 0 0 0 0 6.878.25.25 0 0 0 .383.034zM24 24.85a1.85 1.85 0 1 0 0-3.7 1.85 1.85 0 0 0 0 3.7m-1.915-4.825a.25.25 0 0 0 .3.042 3.34 3.34 0 0 1 3.234 0 .25.25 0 0 0 .3-.042l1.557-1.558a.25.25 0 0 0 .04-.301.25.25 0 0 0-.073-.08 5.99 5.99 0 0 0-6.878 0 .25.25 0 0 0-.033.381zm4.89 1.061a.25.25 0 0 0-.042.3 3.34 3.34 0 0 1-.011 3.253.22.22 0 0 0 .036.262l1.574 1.575a.25.25 0 0 0 .303.04.3.3 0 0 0 .08-.073 5.99 5.99 0 0 0 0-6.879.25.25 0 0 0-.183-.1.25.25 0 0 0-.2.072zm-1.061 4.889a.25.25 0 0 0-.3-.042 3.34 3.34 0 0 1-3.232 0 .25.25 0 0 0-.3.042l-1.554 1.558a.253.253 0 0 0 .034.383 5.99 5.99 0 0 0 6.876 0 .25.25 0 0 0 .1-.183.25.25 0 0 0-.072-.2z"/><path d="M33.5 12h-19a2.46 2.46 0 0 0-2.5 2.409v17.182a2.4 2.4 0 0 0 1.361 2.144.25.25 0 0 1 .139.224V35a1 1 0 0 0 2 0v-.75a.25.25 0 0 1 .25-.25h16.5a.25.25 0 0 1 .25.25V35a1 1 0 0 0 2 0v-1.041a.25.25 0 0 1 .139-.224A2.4 2.4 0 0 0 36 31.591V14.409A2.46 2.46 0 0 0 33.5 12M32 23a8 8 0 1 1-8-8 8.01 8.01 0 0 1 8 8"/></g><defs><linearGradient id="a" x1="22.965" x2="-5.513" y1="20.684" y2="14.578" gradientUnits="userSpaceOnUse"><stop stop-color="#fff"/><stop offset="1" stop-color="#EBF5FB"/></linearGradient><clipPath id="b"><path fill="#fff" d="M12 12h24v24H12z"/></clipPath></defs></svg>