<svg xmlns="http://www.w3.org/2000/svg" width="80" height="80" fill="none"><path fill="#ECF5FB" fill-rule="evenodd" d="M40 80c22.091 0 40-17.909 40-40S62.091 0 40 0 0 17.909 0 40s17.909 40 40 40" clip-rule="evenodd"/><path stroke="#B5D9F1" stroke-linecap="round" stroke-linejoin="round" d="m63.003 47.555 1.886-1.886 1.886 1.886-1.886 1.886zM14.666 20h2.667v2.667h-2.667zm40.536-4.798 2.077 2.077m-.073-2.077-2.077 2.077"/><path fill="#DAECF8" stroke="#264887" d="M54.784 40.836c-.2.25.008 1.51 0 1.434h4.507c-.014-.53.078-.798.41-1.229 1.215-1.773 1.889-2.93 3.072-5.327.726-1.73.797-2.418 0-2.868-.08-.043-.124-.093-.204 0-.829 1.896-1.4 2.94-2.869 4.712-.1-.292-.819-.614-1.024-.41s-3.692 3.44-3.893 3.688ZM26.33 40.38c.217.246-.01 1.5 0 1.425h-4.912c.015-.527-.086-.794-.447-1.222-1.324-1.763-2.059-2.914-3.349-5.296-.79-1.72-.867-2.404 0-2.85.087-.044.136-.093.224 0 .902 1.884 1.525 2.92 3.125 4.683.11-.29.893-.61 1.116-.407s4.024 3.419 4.242 3.666Z"/><g filter="url(#a)"><path fill="#fff" d="M27.654 49.593c4.712-4.507 20.487-4.097 25.199 0 .337.3.5.482.763.82l.056-.41 1.025-7.99h4.916v16.8c-1.434 4.302-5.531 4.302-7.375 0-.611-.651-.846-.484-1.23 0V62.5H29.703v-3.688c-.353-.324-.529-.29-.82 0-2.253 4.303-5.53 3.893-7.784 0V41.808h5.121l1.435 12.497-.41-4.302z"/></g><path stroke="#264887" stroke-dasharray="140 7 3 5" stroke-linecap="round" d="m53.058 54.51.558-4.097m0 0 .056-.41 1.025-7.99h4.916v16.8c-1.434 4.302-5.531 4.302-7.375 0-.611-.651-.846-.484-1.23 0V62.5H29.703v-3.688c-.353-.324-.529-.29-.82 0-2.253 4.303-5.53 3.893-7.784 0V41.808h5.121l1.435 12.497-.41-4.302.41-.41c4.712-4.507 20.487-4.097 25.199 0 .337.3.5.482.763.82Z"/><path fill="#B5D9F1" stroke="#264887" d="M43.543 49.593c0 1.506-1.306 2.778-2.983 2.778-1.676 0-2.982-1.272-2.982-2.778s1.306-2.778 2.982-2.778 2.983 1.272 2.983 2.778Z"/><g filter="url(#b)"><ellipse cx="39.705" cy="35.43" fill="#DAECF8" rx="12.068" ry="14.519" transform="rotate(-8.588 39.705 35.43)"/></g><path stroke="#264887" d="M51.143 33.703c1.17 7.745-3.11 14.647-9.345 15.589-6.235.941-12.361-4.39-13.531-12.135s3.11-14.647 9.344-15.588c6.236-.942 12.362 4.389 13.532 12.134Z"/><path fill="#264887" d="M35.643 34.228c-1.776-.59-2.55-.425-3.687.41-.609.33-1.07.37-1.025-.41.34-1.005 1.025-1.434 2.664-1.64 1.22-.003 1.983.19 2.663 1.025.044.223.046.375 0 .475-.073.156-.268.18-.615.14m11.477-1.434c-1.777-.59-2.55-.425-3.688.41-.609.33-1.07.37-1.025-.41.34-1.005 1.025-1.434 2.664-1.64 1.22-.003 1.983.19 2.663 1.025.044.223.047.375 0 .474-.073.157-.268.182-.615.14"/><circle cx="34.07" cy="37.162" r="1.5" fill="#264887"/><circle cx="45.543" cy="35.523" r="1.5" fill="#264887"/><path fill="#264887" d="m41.426 39.353-2.247.177c-.204.016.256.82 1.102.94.797-.14 1.349-1.133 1.145-1.117m-3.086 4.951c.908 1.785 3.764 1.479 4.29-.376-.047-.643-.56-.831-2.204-.883-1.837.194-2.332.458-2.086 1.259"/><path fill="#B5D9F1" stroke="#264887" d="M53.057 36.154c0-1.23-.983-1.721-.983-1.721l-.655 3.687s1.638-.737 1.638-1.966ZM27.02 39.032c.638 1.05 1.733.961 1.733.961L27.401 36.5s-1.018 1.48-.38 2.532Z"/><g filter="url(#c)"><path fill="#264887" d="m26.834 36.481 1.639 1.844c-.505-5.037 1.23-9.014 2.254-9.014s11.677-.41 16.184-2.049c2.206 2.051 3.672 3.832 4.508 9.629l.82-2.663c-.113-5.409-.737-7.88-2.664-11.473-3.55-4.33-6.06-5.724-12.088-5.122-8.4 1.024-11.836 5.261-10.653 18.848"/></g><path stroke="#264887" d="m26.834 36.481 1.639 1.844c-.505-5.037 1.23-9.014 2.254-9.014s11.677-.41 16.184-2.049c2.206 2.051 3.672 3.832 4.508 9.629l.82-2.663c-.113-5.409-.737-7.88-2.664-11.473-3.55-4.33-6.06-5.724-12.088-5.122-8.4 1.024-11.836 5.261-10.653 18.848Z"/><path stroke="#B5D9F1" stroke-linecap="round" stroke-linejoin="round" d="M24.5 67.778h31.556"/><defs><filter id="a" width="39.516" height="21.692" x="20.598" y="41.308" color-interpolation-filters="sRGB" filterUnits="userSpaceOnUse"><feFlood flood-opacity="0" result="BackgroundImageFix"/><feBlend in="SourceGraphic" in2="BackgroundImageFix" result="shape"/><feColorMatrix in="SourceAlpha" result="hardAlpha" values="0 0 0 0 0 0 0 0 0 0 0 0 0 0 0 0 0 0 127 0"/><feOffset dx="-5.378" dy="-6.274"/><feComposite in2="hardAlpha" k2="-1" k3="1" operator="arithmetic"/><feColorMatrix values="0 0 0 0 0.709804 0 0 0 0 0.85098 0 0 0 0 0.945098 0 0 0 1 0"/><feBlend in2="shape" result="effect1_innerShadow_3173_2067"/></filter><filter id="b" width="24.259" height="28.94" x="27.575" y="20.96" color-interpolation-filters="sRGB" filterUnits="userSpaceOnUse"><feFlood flood-opacity="0" result="BackgroundImageFix"/><feBlend in="SourceGraphic" in2="BackgroundImageFix" result="shape"/><feColorMatrix in="SourceAlpha" result="hardAlpha" values="0 0 0 0 0 0 0 0 0 0 0 0 0 0 0 0 0 0 127 0"/><feOffset dx="5.378" dy="-4.481"/><feComposite in2="hardAlpha" k2="-1" k3="1" operator="arithmetic"/><feColorMatrix values="0 0 0 0 0.709804 0 0 0 0 0.85098 0 0 0 0 0.945098 0 0 0 1 0"/><feBlend in2="shape" result="effect1_innerShadow_3173_2067"/></filter><filter id="c" width="26.632" height="22.811" x="26.107" y="17" color-interpolation-filters="sRGB" filterUnits="userSpaceOnUse"><feFlood flood-opacity="0" result="BackgroundImageFix"/><feBlend in="SourceGraphic" in2="BackgroundImageFix" result="shape"/><feColorMatrix in="SourceAlpha" result="hardAlpha" values="0 0 0 0 0 0 0 0 0 0 0 0 0 0 0 0 0 0 127 0"/><feOffset dx="4" dy="-1"/><feComposite in2="hardAlpha" k2="-1" k3="1" operator="arithmetic"/><feColorMatrix values="0 0 0 0 0.0729167 0 0 0 0 0.200709 0 0 0 0 0.4375 0 0 0 1 0"/><feBlend in2="shape" result="effect1_innerShadow_3173_2067"/></filter></defs></svg>