<svg xmlns="http://www.w3.org/2000/svg" width="150" height="152" fill="none"><mask id="a" width="150" height="152" x="0" y="0" maskUnits="userSpaceOnUse" style="mask-type:alpha"><path fill="#fff" d="M0 0v129.828l27.86 10.645 3.308-25.834 24.804 16.146 39.686 20.99 42.545-20.99L150 136.552V0z"/></mask><g mask="url(#a)"><path fill="#DAECF8" d="M99.831 136.045c2.337 0 3.07 2.377 3.07 4.265 0 1.889-.733 4.268-3.07 4.268s-3.077-2.375-3.077-4.268.734-4.265 3.077-4.265m0 1.577c-1.186 0-1.263 1.866-1.263 2.688 0 .884.077 2.693 1.263 2.693s1.259-1.809 1.259-2.693c.007-.822-.077-2.688-1.259-2.688m-1.586-14.537a.875.875 0 0 1 .526-.844.86.86 0 0 1 .686 0 .87.87 0 0 1 .526.844v6.602a.758.758 0 0 1-.777.824h-1.648a.785.785 0 0 1-.735-.495.8.8 0 0 1-.054-.307.748.748 0 0 1 .789-.8h.687zm1.586-14.904c2.337 0 3.07 2.374 3.07 4.267s-.733 4.268-3.07 4.268-3.077-2.379-3.077-4.268.734-4.267 3.077-4.267m0 1.575c-1.186 0-1.263 1.868-1.263 2.692 0 .884.077 2.688 1.263 2.688s1.259-1.809 1.259-2.688c.007-.824-.077-2.692-1.259-2.692m0-15.509c2.337 0 3.07 2.377 3.07 4.266 0 1.888-.733 4.267-3.07 4.267s-3.077-2.375-3.077-4.267.734-4.266 3.077-4.266m0 1.58c-1.186 0-1.263 1.864-1.263 2.686 0 .883.077 2.692 1.263 2.692s1.259-1.809 1.259-2.692c.007-.822-.077-2.686-1.259-2.686m-1.586-14.534a.872.872 0 1 1 1.738 0v6.598a.758.758 0 0 1-.777.824h-1.648a.78.78 0 0 1-.789-.8.75.75 0 0 1 .789-.802h.687zm1.586-14.905c2.337 0 3.07 2.377 3.07 4.268 0 1.89-.733 4.267-3.07 4.267s-3.077-2.377-3.077-4.267.734-4.268 3.077-4.268m0 1.575c-1.186 0-1.263 1.869-1.263 2.693 0 .883.077 2.688 1.263 2.688s1.259-1.807 1.259-2.688c.007-.826-.077-2.693-1.259-2.693M98.245 53.43a.872.872 0 1 1 1.738 0v6.599a.758.758 0 0 1-.777.823h-1.648a.78.78 0 0 1-.789-.801.75.75 0 0 1 .789-.8h.687zm0-13.932a.87.87 0 1 1 1.738 0v6.596a.758.758 0 0 1-.777.824h-1.648a.78.78 0 0 1-.789-.8.75.75 0 0 1 .789-.802h.687zm14.222 79.132a.84.84 0 0 1 .883-.87h3a.786.786 0 0 1 .823.8.77.77 0 0 1-.233.584.78.78 0 0 1-.59.217h-2.145v1.767h1.902a.8.8 0 0 1 .596.217.8.8 0 0 1 .25.583.8.8 0 0 1-.246.587.8.8 0 0 1-.6.213h-1.902v1.692h2.041a.78.78 0 0 1 .586.22.8.8 0 0 1 .238.579.78.78 0 0 1-.234.584.77.77 0 0 1-.59.216h-2.872c-.611 0-.901-.429-.901-1.01zm5.657-9.492a.84.84 0 0 1-.492.854.85.85 0 0 1-.34.074.8.8 0 0 1-.837-.698 1.82 1.82 0 0 1-1.531.766 2.99 2.99 0 0 1-2.748-3.247c0-1.659.824-3.198 2.576-3.198a1.92 1.92 0 0 1 1.683.786h.02v-.393a1.28 1.28 0 0 0-.873-1.264 1.3 1.3 0 0 0-.541-.061c-.963 0-1.546.519-2.085.519a.81.81 0 0 1-.663-.729c0-.917 1.946-1.252 2.631-1.252a2.85 2.85 0 0 1 3.014 1.783c.155.391.222.812.195 1.232zm-1.669-2.275c0-.811-.418-1.646-1.31-1.646s-1.299.813-1.299 1.706c0 .775.442 1.68 1.299 1.68.919 0 1.31-.927 1.31-1.74m-3.674-15.641a.59.59 0 0 1-.42-.59c0-.488.267-.731.557-.731.202.009.4.064.578.161l4.581 2.112a.725.725 0 0 1 0 1.325l-4.581 2.098a1.26 1.26 0 0 1-.578.175c-.29 0-.557-.243-.557-.731a.59.59 0 0 1 .42-.592l3.856-1.61zm1.868-7.695a.8.8 0 0 1-.235.61.8.8 0 0 1-.615.223h-1.155a.663.663 0 1 1 0-1.326h.543v-7.536h-.543a.663.663 0 1 1 0-1.325h1.155a.785.785 0 0 1 .8.503q.06.16.05.332zm-1.826-20.635a.85.85 0 0 1 .212-.648.85.85 0 0 1 .623-.277.84.84 0 0 1 .798.579c.037.111.049.23.037.346v3.848h.475a.71.71 0 0 1 .802.733c0 .533-.371.73-.802.73h-.475v.998a.83.83 0 0 1-.212.648.83.83 0 0 1-.623.277.84.84 0 0 1-.798-.579.85.85 0 0 1-.037-.346v-.999h-.371a.715.715 0 0 1-.678-.447.7.7 0 0 1-.051-.282.68.68 0 0 1 .729-.733h.371zm0-37.714a.85.85 0 0 1 .212-.648.84.84 0 0 1 .964-.204.83.83 0 0 1 .494.853v3.85h.475a.707.707 0 0 1 .802.73c0 .535-.371.732-.802.732h-.475v.998a.83.83 0 0 1-.212.648.837.837 0 0 1-1.421-.302.85.85 0 0 1-.037-.346v-1.01h-.371a.71.71 0 0 1-.729-.73.676.676 0 0 1 .729-.732h.371zm2.234 24.457c.983 1.241 2.78 2.838 2.78 4.453a2.4 2.4 0 0 1-.761 1.767 2.4 2.4 0 0 1-1.814.645 2.73 2.73 0 0 1-2.721-2.635.8.8 0 0 1 .234-.611.8.8 0 0 1 .612-.233c1.104 0 .475 1.877 1.807 1.877a.87.87 0 0 0 .837-.883 1.93 1.93 0 0 0-.405-1.078c-.883-1.277-1.926-2.32-2.891-3.468a.98.98 0 0 1-.263-.59c0-.534.393-.766.901-.766h3.868a.744.744 0 0 1 .833.767c0 .532-.393.764-.901.764zm-49.906 90.74a.847.847 0 0 1 .915-.87h2.018a3.76 3.76 0 0 1 2.898 1.105 3.75 3.75 0 0 1 1.078 2.908 3.844 3.844 0 0 1-4.082 4.241h-1.926a.84.84 0 0 1-.634-.249.86.86 0 0 1-.25-.634zm1.738 5.787h1.052c1.601 0 2.295-1.078 2.295-2.562 0-1.391-.68-2.491-2.178-2.491h-1.169zm2.388-15.487c0 .823-1.266 1.206-2.09 1.206a2.02 2.02 0 0 1-1.557-.478 2.03 2.03 0 0 1-.702-1.471c0-1.912 2.898-1.795 2.898-2.562 0-.313-.15-.475-.663-.475-.788 0-1.078.568-1.73.568a.79.79 0 0 1-.715-.742c0-.753 1.39-1.288 2.33-1.288a2.1 2.1 0 0 1 1.615.464 2.1 2.1 0 0 1 .762 1.498c0 1.899-2.9 1.784-2.9 2.562 0 .322.267.464.57.464.543 0 1.181-.489 1.493-.489a.724.724 0 0 1 .69.743m-4.127-18.164a.85.85 0 0 1 .915-.868h2.018a3.74 3.74 0 0 1 2.897 1.104 3.76 3.76 0 0 1 1.08 2.907 3.84 3.84 0 0 1-2.438 3.993 3.9 3.9 0 0 1-1.645.25h-1.926a.856.856 0 0 1-.883-.884zm1.739 5.787h1.05c1.602 0 2.296-1.08 2.296-2.565 0-1.389-.68-2.489-2.178-2.489h-1.169zm-.136-21.716a.844.844 0 0 1 .884-.87h3a.786.786 0 0 1 .823.8.775.775 0 0 1-.824.801h-2.145v1.767h1.902a.8.8 0 0 1 .846.8.784.784 0 0 1-.846.799h-1.902v1.692h2.041a.787.787 0 0 1 .824.8.77.77 0 0 1-.505.754.75.75 0 0 1-.319.045h-2.871c-.612 0-.901-.428-.901-1.009zm5.658-9.492a.84.84 0 0 1-.833.928.8.8 0 0 1-.837-.698 1.81 1.81 0 0 1-1.53.766 2.99 2.99 0 0 1-2.748-3.247c0-1.659.824-3.198 2.575-3.198a1.91 1.91 0 0 1 1.683.786h.02v-.393a1.286 1.286 0 0 0-1.413-1.325c-.963 0-1.547.519-2.085.519a.81.81 0 0 1-.663-.73c0-.916 1.946-1.252 2.63-1.252a2.86 2.86 0 0 1 3.21 3.016zm-1.67-2.275c0-.81-.417-1.646-1.31-1.646-.892 0-1.298.813-1.298 1.706 0 .775.441 1.68 1.298 1.68.92 0 1.31-.927 1.31-1.74m-3.674-15.641a.59.59 0 0 1-.42-.59c0-.488.268-.731.557-.731.203.009.401.064.579.161l4.581 2.112a.724.724 0 0 1 0 1.325l-4.581 2.098a1.3 1.3 0 0 1-.579.175c-.29 0-.556-.243-.556-.731a.59.59 0 0 1 .42-.592l3.856-1.61zm1.869-7.695a.79.79 0 0 1-.85.833H66.93a.662.662 0 1 1 0-1.326h.544V53.45h-.544a.662.662 0 1 1 0-1.325h1.155a.79.79 0 0 1 .85.835zM67.11 40.844a.84.84 0 1 1 1.67 0v3.848h.475a.71.71 0 0 1 .802.733c0 .532-.37.729-.802.729h-.474v.998a.84.84 0 1 1-1.67 0v-.998h-.371a.713.713 0 0 1-.73-.729.676.676 0 0 1 .73-.733h.37zm0-37.714a.838.838 0 0 1 1.459-.648.84.84 0 0 1 .212.648v3.85h.474a.707.707 0 0 1 .802.731c0 .535-.37.732-.802.732h-.474v.998a.84.84 0 1 1-1.67 0v-1.01h-.371a.71.71 0 0 1-.73-.73.674.674 0 0 1 .73-.732h.37zm2.234 24.457c.983 1.24 2.781 2.838 2.781 4.452a2.41 2.41 0 0 1-2.575 2.413 2.73 2.73 0 0 1-2.722-2.636.8.8 0 0 1 .846-.843c1.105 0 .475 1.877 1.807 1.877a.87.87 0 0 0 .837-.883 1.93 1.93 0 0 0-.404-1.078c-.883-1.277-1.926-2.32-2.891-3.468a.98.98 0 0 1-.263-.59c0-.534.393-.766.901-.766h3.868a.747.747 0 0 1 .832.766c0 .532-.393.764-.9.764zm-20.357 84.368a.844.844 0 0 1 .883-.871h3a.79.79 0 0 1 .765.486q.06.151.059.314a.776.776 0 0 1-.824.802h-2.145v1.767h1.902a.795.795 0 0 1 .846.799.786.786 0 0 1-.846.8h-1.902v1.692h2.041a.77.77 0 0 1 .586.22.8.8 0 0 1 .238.58.77.77 0 0 1-.506.754.8.8 0 0 1-.318.045h-2.871c-.612 0-.901-.428-.901-1.009zm1.184-27.409a.59.59 0 0 1-.42-.59c0-.488.268-.731.557-.731.203.009.4.064.579.161l4.58 2.112a.724.724 0 0 1 0 1.325l-4.58 2.099a1.3 1.3 0 0 1-.579.174c-.29 0-.556-.243-.556-.731a.59.59 0 0 1 .42-.592l3.856-1.61zm-.563 55.98a.9.9 0 0 1-.152-.442c0-.382.311-.568.682-.568h3.888a.74.74 0 0 1 .543.199.74.74 0 0 1 .228.531.73.73 0 0 1-.48.687.7.7 0 0 1-.291.043h-2.209l2.63 3.687a.7.7 0 0 1 .173.501.506.506 0 0 1-.543.521h-3.793a.731.731 0 1 1 0-1.462h1.937zm3.602-13.14v-.987c0-.614.241-.903.835-.903.595 0 .831.296.831.91v.98h.199a.76.76 0 0 1 .76.458.768.768 0 0 1-.76 1.071h-.199v3.565a1.31 1.31 0 0 1-.776 1.375c-.173.076-.36.113-.55.109a1.17 1.17 0 0 1-1.181-.662l-2.597-4.71a.9.9 0 0 1-.164-.51.72.72 0 0 1 .258-.516.73.73 0 0 1 .553-.166zm0 1.529h-1.587l1.566 3.236h.022zm1.573-26.392a.845.845 0 0 1-.493.854.8.8 0 0 1-.34.074.8.8 0 0 1-.837-.698 1.8 1.8 0 0 1-1.53.767 2.99 2.99 0 0 1-2.748-3.247c0-1.66.823-3.199 2.575-3.199a1.92 1.92 0 0 1 1.683.787h.02v-.394a1.286 1.286 0 0 0-1.414-1.325c-.963 0-1.546.52-2.085.52a.81.81 0 0 1-.663-.73c0-.916 1.946-1.252 2.631-1.252a2.858 2.858 0 0 1 3.21 3.015zm-1.67-2.275c0-.81-.418-1.645-1.31-1.645s-1.299.813-1.299 1.705c0 .775.442 1.681 1.299 1.681.919 0 1.31-.928 1.31-1.741m-.523-23.335a.79.79 0 0 1-.85.832h-1.155a.663.663 0 1 1 0-1.325h.544v-7.536h-.544a.663.663 0 1 1 0-1.326h1.155a.79.79 0 0 1 .85.835zm-.74-20.635a.84.84 0 1 1 1.67 0v3.848h.475a.71.71 0 0 1 .802.733c0 .532-.372.729-.802.729h-.475v.998a.84.84 0 1 1-1.67 0v-.998h-.371a.71.71 0 0 1-.73-.73.676.676 0 0 1 .73-.732h.37zm0-37.714a.84.84 0 1 1 1.67 0v3.85h.475a.706.706 0 0 1 .801.731c0 .535-.37.731-.801.731h-.475v.999a.84.84 0 1 1-1.67 0v-1.01h-.371a.71.71 0 0 1-.73-.731.677.677 0 0 1 .73-.731h.37zm-.07 24.395c.982 1.241 2.78 2.838 2.78 4.453a2.41 2.41 0 0 1-2.575 2.412 2.73 2.73 0 0 1-2.721-2.635.802.802 0 0 1 .846-.844c1.104 0 .474 1.878 1.806 1.878a.87.87 0 0 0 .838-.884 1.93 1.93 0 0 0-.405-1.078c-.883-1.277-1.926-2.32-2.891-3.468a.98.98 0 0 1-.263-.59c0-.534.393-.766.901-.766h3.868a.746.746 0 0 1 .833.767c0 .532-.393.764-.901.764zm75.753 67.893a.844.844 0 0 1 .884-.87h2.999a.77.77 0 0 1 .586.221.8.8 0 0 1 .238.578.78.78 0 0 1-.505.756.8.8 0 0 1-.319.046h-2.145v1.767h1.902a.8.8 0 0 1 .846.8.78.78 0 0 1-.246.587.78.78 0 0 1-.6.212h-1.902v1.692h2.041a.79.79 0 0 1 .766.485q.062.151.058.315a.76.76 0 0 1-.233.583.77.77 0 0 1-.591.216h-2.871c-.612 0-.901-.428-.901-1.009zm1.184-27.408a.585.585 0 0 1-.42-.59c0-.488.268-.731.557-.731.203.008.401.064.579.16l4.581 2.112a.73.73 0 0 1 .431.663.72.72 0 0 1-.431.663l-4.581 2.098a1.3 1.3 0 0 1-.579.175c-.289 0-.557-.243-.557-.731a.596.596 0 0 1 .42-.592l3.857-1.61zm-.563 55.979a.87.87 0 0 1-.152-.442c0-.382.311-.567.682-.567h3.888a.725.725 0 0 1 .712.441.732.732 0 0 1-.712 1.019h-2.209l2.631 3.686a.7.7 0 0 1 .172.502.51.51 0 0 1-.543.521h-3.793a.731.731 0 1 1 0-1.462h1.937zm3.602-13.139v-.988c0-.614.241-.903.835-.903.595 0 .831.296.831.91v.981h.199a.78.78 0 0 1 .579.202.78.78 0 0 1 .245.562.76.76 0 0 1-.245.562.77.77 0 0 1-.579.202h-.199v3.565a1.3 1.3 0 0 1-.322 1.047 1.32 1.32 0 0 1-1.003.437 1.17 1.17 0 0 1-1.182-.662l-2.598-4.709a.9.9 0 0 1-.163-.511.72.72 0 0 1 .258-.515.74.74 0 0 1 .553-.167zm0 1.528h-1.588l1.566 3.236h.022zm1.573-26.391a.844.844 0 0 1-.833.928.8.8 0 0 1-.837-.698 1.82 1.82 0 0 1-1.531.766 2.98 2.98 0 0 1-2.052-1.049 2.98 2.98 0 0 1-.695-2.198c0-1.659.823-3.198 2.575-3.198a1.91 1.91 0 0 1 1.683.786h.02v-.393a1.28 1.28 0 0 0-.406-.984 1.28 1.28 0 0 0-1.008-.341c-.963 0-1.546.519-2.085.519a.81.81 0 0 1-.662-.73c0-.916 1.946-1.251 2.63-1.251a2.857 2.857 0 0 1 3.21 3.014zm-1.67-2.275c0-.81-.418-1.646-1.31-1.646s-1.299.813-1.299 1.706c0 .775.442 1.68 1.299 1.68.919 0 1.31-.927 1.31-1.74m-.522-23.336a.78.78 0 0 1-.236.61.78.78 0 0 1-.614.223h-1.156a.662.662 0 0 1 0-1.325h.544V67.78h-.544a.662.662 0 0 1 0-1.325h1.156a.79.79 0 0 1 .85.835zm-.741-20.635a.85.85 0 0 1 .212-.648.85.85 0 0 1 .623-.277.84.84 0 0 1 .835.925v3.848h.475a.71.71 0 0 1 .802.733c0 .533-.371.73-.802.73h-.475v.998a.85.85 0 0 1-.212.648.85.85 0 0 1-.623.277.84.84 0 0 1-.835-.925v-.999h-.371a.72.72 0 0 1-.521-.208.72.72 0 0 1-.208-.52.674.674 0 0 1 .729-.733h.371zm0-37.713a.85.85 0 0 1 .212-.649.84.84 0 0 1 .964-.204.84.84 0 0 1 .494.853v3.85h.475a.708.708 0 0 1 .802.73c0 .535-.371.732-.802.732h-.475v.998a.85.85 0 0 1-.212.648.84.84 0 0 1-.964.205.84.84 0 0 1-.494-.853v-1.01h-.371a.7.7 0 0 1-.522-.208.72.72 0 0 1-.207-.522.674.674 0 0 1 .729-.731h.371zm-.07 24.395c.983 1.24 2.781 2.838 2.781 4.452a2.42 2.42 0 0 1-.762 1.768 2.4 2.4 0 0 1-1.814.644 2.73 2.73 0 0 1-2.721-2.635.8.8 0 0 1 .234-.61.8.8 0 0 1 .612-.233c1.104 0 .475 1.877 1.807 1.877a.87.87 0 0 0 .837-.883 1.93 1.93 0 0 0-.405-1.078c-.883-1.277-1.926-2.32-2.891-3.468a1 1 0 0 1-.263-.59c0-.535.393-.766.902-.766h3.867a.746.746 0 0 1 .833.766c0 .532-.393.764-.901.764zM22.097 3.311v-.987c0-.614.24-.903.834-.903.595 0 .831.296.831.91v.98h.199a.767.767 0 1 1 0 1.529h-.199v3.565a1.31 1.31 0 0 1-1.325 1.484 1.17 1.17 0 0 1-1.182-.663l-2.597-4.709a.9.9 0 0 1-.164-.51.73.73 0 0 1 .81-.682zm0 1.529h-1.588l1.566 3.236h.022zm-3.509 103.863a.85.85 0 0 1 .542-.816.85.85 0 0 1 .341-.054h3a.79.79 0 0 1 .764.485.8.8 0 0 1 .06.314.77.77 0 0 1-.506.756.8.8 0 0 1-.318.046h-2.145v1.767h1.902a.793.793 0 0 1 .846.802.785.785 0 0 1-.846.799h-1.902v1.692h2.041a.79.79 0 0 1 .765.486.8.8 0 0 1 .059.314.77.77 0 0 1-.506.755.8.8 0 0 1-.318.045h-2.871c-.612 0-.901-.429-.901-1.01zm5.628-9.491a.84.84 0 0 1-.833.928.8.8 0 0 1-.837-.698 1.81 1.81 0 0 1-1.533.766 3 3 0 0 1-2.62-2.079 3 3 0 0 1-.128-1.168c0-1.659.824-3.198 2.576-3.198a1.92 1.92 0 0 1 1.683.786h.022v-.393a1.284 1.284 0 0 0-1.416-1.325c-.96 0-1.546.519-2.083.519a.81.81 0 0 1-.662-.73c0-.916 1.946-1.252 2.63-1.252a2.872 2.872 0 0 1 3.2 3.026zm-1.67-2.275c0-.81-.42-1.646-1.312-1.646s-1.299.81-1.299 1.705c0 .776.442 1.681 1.299 1.681.919 0 1.312-.927 1.312-1.74m-3.66-15.642a.59.59 0 0 1-.42-.59c0-.488.267-.731.557-.731.203.009.4.064.579.161l4.58 2.114a.723.723 0 0 1 0 1.325l-4.58 2.099a1.26 1.26 0 0 1-.58.174c-.288 0-.556-.243-.556-.73a.59.59 0 0 1 .42-.593l3.856-1.61zm1.889-7.693a.79.79 0 0 1-.85.833h-1.156a.663.663 0 0 1 0-1.325h.544v-7.537h-.544a.663.663 0 0 1 0-1.325h1.156a.788.788 0 0 1 .85.833zm-1.831-20.634a.838.838 0 0 1 1.458-.649.84.84 0 0 1 .212.649v3.847h.475a.706.706 0 0 1 .802.732c0 .534-.371.73-.802.73h-.477v.999a.84.84 0 1 1-1.67 0v-.998h-.371a.715.715 0 0 1-.729-.731.676.676 0 0 1 .729-.732h.37zm2.227-13.258c.983 1.241 2.783 2.838 2.783 4.453a2.41 2.41 0 0 1-2.575 2.412 2.73 2.73 0 0 1-2.724-2.635.8.8 0 0 1 .846-.846c1.105 0 .475 1.88 1.807 1.88a.87.87 0 0 0 .837-.884 1.93 1.93 0 0 0-.404-1.08c-.884-1.275-1.924-2.317-2.891-3.466a.98.98 0 0 1-.263-.59c0-.534.393-.766.901-.766h3.874a.745.745 0 0 1 .833.767c0 .532-.393.764-.901.764zm-1.133-18.941a.838.838 0 0 1 1.176-.853.84.84 0 0 1 .494.853v3.85h.48a.707.707 0 0 1 .801.73c0 .535-.37.732-.802.732h-.474v.998a.84.84 0 1 1-1.67 0V26.07h-.371a.714.714 0 0 1-.73-.731.675.675 0 0 1 .73-.731h.37zm127.483-.922v-.987c0-.614.241-.903.835-.903s.83.296.83.91v.98h.199a.77.77 0 0 1 .825.764.77.77 0 0 1-.514.724.8.8 0 0 1-.311.04h-.199v3.566a1.32 1.32 0 0 1-.322 1.046 1.3 1.3 0 0 1-1.003.438 1.17 1.17 0 0 1-1.182-.663l-2.597-4.709a.9.9 0 0 1-.164-.51.74.74 0 0 1 .259-.516.72.72 0 0 1 .552-.167zm0 1.529h-1.588l1.566 3.236h.022zm-3.319-16.899a.844.844 0 0 1 .883-.87h3a.78.78 0 0 1 .764.485q.062.152.06.314a.78.78 0 0 1-.234.585.76.76 0 0 1-.59.217h-2.145v1.767h1.902a.79.79 0 0 1 .781.482c.043.1.065.209.065.318a.8.8 0 0 1-.246.587.8.8 0 0 1-.6.212h-1.902v1.692h2.041a.79.79 0 0 1 .765.485q.062.152.059.315a.78.78 0 0 1-.234.583.76.76 0 0 1-.59.216h-2.872c-.611 0-.901-.428-.901-1.01zm-.19 120.762a.844.844 0 0 1 .884-.87h2.999a.77.77 0 0 1 .586.221.8.8 0 0 1 .238.578.78.78 0 0 1-.233.585.78.78 0 0 1-.591.217h-2.144v1.767h1.901a.8.8 0 0 1 .321.047.8.8 0 0 1 .462.437q.064.151.063.318a.78.78 0 0 1-.246.587.78.78 0 0 1-.6.212h-1.901v1.692h2.04a.783.783 0 0 1 .824.8.765.765 0 0 1-.505.755.8.8 0 0 1-.319.044h-2.871c-.612 0-.901-.428-.901-1.009zm5.628-9.492a.83.83 0 0 1-.211.649.84.84 0 0 1-.622.279.8.8 0 0 1-.837-.698 1.81 1.81 0 0 1-1.533.767 2.99 2.99 0 0 1-2.747-3.247c0-1.659.824-3.199 2.575-3.199a1.92 1.92 0 0 1 1.683.787h.022v-.393a1.28 1.28 0 0 0-.874-1.265 1.3 1.3 0 0 0-.541-.061c-.961 0-1.547.519-2.083.519a.805.805 0 0 1-.663-.729c0-.916 1.946-1.252 2.631-1.252a2.87 2.87 0 0 1 3.2 3.026zm-1.67-2.275c0-.81-.419-1.645-1.312-1.645-.892 0-1.298.81-1.298 1.705 0 .775.441 1.681 1.298 1.681.919 0 1.312-.928 1.312-1.741m-3.66-15.642a.585.585 0 0 1-.42-.589c0-.488.268-.731.557-.731.203.009.401.064.579.161l4.581 2.114a.72.72 0 0 1 .316 1.059.7.7 0 0 1-.316.266l-4.581 2.099a1.26 1.26 0 0 1-.579.174c-.289 0-.557-.243-.557-.731a.6.6 0 0 1 .42-.592l3.857-1.61zm1.889-7.692a.8.8 0 0 1-.235.61.8.8 0 0 1-.615.223h-1.156a.662.662 0 0 1 0-1.325h.544v-7.537h-.544a.662.662 0 0 1 0-1.325h1.156a.79.79 0 0 1 .799.502c.04.105.058.218.051.33zm-1.83-20.634a.83.83 0 0 1 .211-.649.839.839 0 0 1 1.459.648v3.848h.474a.707.707 0 0 1 .802.731c0 .535-.371.732-.802.732h-.477v.998a.83.83 0 0 1-.211.648.84.84 0 0 1-1.421-.301q-.056-.17-.037-.347v-.998h-.372a.72.72 0 0 1-.678-.45.7.7 0 0 1-.05-.282.685.685 0 0 1 .44-.692.7.7 0 0 1 .288-.039h.372zm2.226-13.258c.983 1.24 2.783 2.838 2.783 4.453a2.4 2.4 0 0 1-.762 1.766 2.4 2.4 0 0 1-1.813.645 2.73 2.73 0 0 1-2.723-2.635.8.8 0 0 1 .514-.794.8.8 0 0 1 .332-.052c1.104 0 .474 1.88 1.806 1.88a.87.87 0 0 0 .837-.883 1.9 1.9 0 0 0-.404-1.08c-.883-1.275-1.924-2.318-2.891-3.466a.98.98 0 0 1-.263-.59c0-.534.393-.766.901-.766h3.874a.75.75 0 0 1 .593.192.75.75 0 0 1 .24.574c0 .532-.393.764-.901.764zm-1.132-18.941a.85.85 0 0 1 .212-.648.837.837 0 0 1 1.246 0 .84.84 0 0 1 .212.648v3.85h.479a.707.707 0 0 1 .802.73c0 .535-.371.732-.802.732h-.475v.998a.83.83 0 0 1-.212.649.83.83 0 0 1-.623.277.84.84 0 0 1-.798-.579.85.85 0 0 1-.037-.347v-1.009h-.371a.716.716 0 0 1-.729-.731.677.677 0 0 1 .729-.731h.371zM2.941 93.664a2.87 2.87 0 0 1 2.911 2.871 2.524 2.524 0 0 1-2.43 2.598 1.9 1.9 0 0 1-.728-.14l-.024.023c.382.543 1.137 1.285 1.599 1.855.133.126.22.294.247.475a.99.99 0 0 1-.824.846.6.6 0 0 1-.351-.079 3 3 0 0 1-.371-.279 9.38 9.38 0 0 1-2.947-5.3 2.814 2.814 0 0 1 2.918-2.87m0 4.08a1.105 1.105 0 1 0 .009-2.21 1.105 1.105 0 0 0-.009 2.21m2.882-12.566a.84.84 0 0 1-.833.928.8.8 0 0 1-.837-.698 1.84 1.84 0 0 1-1.588.767 3.269 3.269 0 0 1 .058-6.446 2.38 2.38 0 0 1 1.53.579v-2.04a.84.84 0 1 1 1.67 0zm-1.67-2.182c0-.81-.393-1.738-1.312-1.738-.866 0-1.298.903-1.298 1.68 0 .778.441 1.706 1.298 1.706s1.312-.833 1.312-1.648M.086 66.797a.84.84 0 1 1 1.67 0v2.911c0 .663.3 1.146.983 1.146.603 0 .974-.472.974-1.146v-2.911a.84.84 0 1 1 1.67 0v2.911a1.01 1.01 0 0 0 .987 1.146c.601 0 .972-.472.972-1.146v-2.911a.84.84 0 1 1 1.67 0v3.2a2.092 2.092 0 0 1-2.282 2.249 2.52 2.52 0 0 1-1.767-.846 2.13 2.13 0 0 1-1.727.846 2.07 2.07 0 0 1-1.546-.694.704.704 0 0 1-.767.625.845.845 0 0 1-.832-.927zm-.26-10.665a4.013 4.013 0 0 1 3.99-4.263c.859 0 2.61.256 2.61 1.37a.817.817 0 0 1-.768.786c-.473 0-.866-.486-1.843-.486A2.276 2.276 0 0 0 1.638 56.1c0 1.413.742 2.63 2.177 2.63.977 0 1.3-.404 1.768-.404a.734.734 0 0 1 .72.776c0 1.022-1.648 1.298-2.494 1.298a4 4 0 0 1-3.983-4.27m.892-16.896a.8.8 0 0 1-.117-.407.91.91 0 0 1 .963-.821c.521 0 .663.232.974.883l2.871 5.842c.143.234.234.495.268.767a.84.84 0 0 1-.833.835H.647a.76.76 0 0 1-.859-.8.77.77 0 0 1 .86-.802h2.968zm1.334-13.56 3.713 5.147c.161.214.252.473.259.742a.864.864 0 0 1-.974.835H.804a.8.8 0 0 1-.81-.787.73.73 0 0 1 .81-.742H3.85L.12 25.652a1.15 1.15 0 0 1-.235-.663c0-.488.358-.835.977-.835h4.554a.815.815 0 0 1 .833.767.742.742 0 0 1-.833.764zm2.254-10.357c0 .823-1.264 1.206-2.087 1.206a2.03 2.03 0 0 1-2.262-1.949c0-1.912 2.9-1.797 2.9-2.562 0-.313-.15-.475-.663-.475-.788 0-1.078.568-1.73.568a.79.79 0 0 1-.715-.742c0-.753 1.39-1.286 2.328-1.286 1.438 0 2.377.846 2.377 1.957 0 1.902-2.898 1.787-2.898 2.565 0 .322.267.464.57.464.543 0 1.182-.489 1.493-.489a.723.723 0 0 1 .687.743M.138-2.85a.844.844 0 0 1 .895-.868h2.988a.784.784 0 0 1 .824.8.77.77 0 0 1-.824.8H1.877v1.766H3.78a.795.795 0 0 1 .843.8.786.786 0 0 1-.843.802H1.877v1.69h2.04a.786.786 0 0 1 .825.801.773.773 0 0 1-.824.8H1.046c-.612 0-.901-.429-.901-1.01zm34.99 93.66a.87.87 0 1 1 1.738 0v6.598a.752.752 0 0 1-.776.824h-1.643a.776.776 0 0 1-.79-.802.752.752 0 0 1 .79-.8h.68zm1.761 55.646c2.343 0 3.072 2.377 3.072 4.268 0 1.89-.729 4.267-3.072 4.267s-3.073-2.379-3.073-4.267.731-4.268 3.073-4.268m0 1.575c-1.182 0-1.264 1.869-1.264 2.693 0 .883.082 2.688 1.264 2.688s1.263-1.809 1.263-2.688c0-.824-.081-2.693-1.263-2.693m-.177-72.125c2.343 0 3.072 2.377 3.072 4.267s-.728 4.268-3.072 4.268-3.072-2.379-3.072-4.267.73-4.268 3.072-4.268m0 1.575c-1.182 0-1.263 1.869-1.263 2.693 0 .883.081 2.688 1.263 2.688s1.263-1.81 1.263-2.688c0-.824-.081-2.693-1.263-2.693m.177 55.047c2.343 0 3.072 2.375 3.072 4.265 0 1.891-.729 4.268-3.072 4.268s-3.073-2.377-3.073-4.268c0-1.89.731-4.265 3.073-4.265m0 1.575c-1.182 0-1.264 1.866-1.264 2.69 0 .884.082 2.688 1.264 2.688s1.263-1.806 1.263-2.688c0-.824-.081-2.69-1.263-2.69m-.177-72.125c2.343 0 3.072 2.374 3.072 4.265s-.728 4.267-3.072 4.267-3.072-2.376-3.072-4.267c0-1.89.73-4.265 3.072-4.265m0 1.575c-1.182 0-1.263 1.866-1.263 2.69 0 .884.081 2.688 1.263 2.688s1.263-1.807 1.263-2.688c0-.824-.081-2.69-1.263-2.69m-1.408 56.016a.87.87 0 0 1 .526-.844.88.88 0 0 1 .686 0 .9.9 0 0 1 .473.497.9.9 0 0 1 .053.347v6.597a.76.76 0 0 1-.462.768.74.74 0 0 1-.313.056h-1.643a.77.77 0 0 1-.567-.23.78.78 0 0 1-.224-.569.752.752 0 0 1 .79-.802h.681zm-.176-70.551a.869.869 0 0 1 1.685-.346.9.9 0 0 1 .053.346v6.598a.752.752 0 0 1-.776.824h-1.643a.78.78 0 0 1-.79-.8.75.75 0 0 1 .79-.801h.68zm.176 56.621a.87.87 0 0 1 .238-.644.88.88 0 0 1 .974-.2.875.875 0 0 1 .526.844v6.595a.76.76 0 0 1-.462.768.74.74 0 0 1-.313.056h-1.643a.78.78 0 0 1-.79-.799.75.75 0 0 1 .478-.752.8.8 0 0 1 .312-.048h.68zm-.176-70.55a.869.869 0 0 1 1.685-.346.9.9 0 0 1 .053.346v6.596a.752.752 0 0 1-.776.823h-1.643a.777.777 0 0 1-.79-.8.75.75 0 0 1 .79-.799h.68zM83.28 141.517a.873.873 0 0 1 .869-.914.86.86 0 0 1 .63.271.86.86 0 0 1 .24.643v6.598a.75.75 0 0 1-.464.767.74.74 0 0 1-.312.057H82.6a.77.77 0 0 1-.568-.232.78.78 0 0 1-.223-.57.753.753 0 0 1 .79-.799h.68zm-.177-70.549a.869.869 0 0 1 1.5-.644.87.87 0 0 1 .239.644v6.597a.754.754 0 0 1-.776.824h-1.643a.78.78 0 0 1-.79-.802.75.75 0 0 1 .79-.8h.68zm1.761 55.645c2.344 0 3.073 2.376 3.073 4.267s-.73 4.268-3.073 4.268-3.072-2.379-3.072-4.268.731-4.267 3.072-4.267m0 1.575c-1.181 0-1.263 1.868-1.263 2.692 0 .884.082 2.688 1.263 2.688 1.182 0 1.264-1.809 1.264-2.688 0-.824-.082-2.692-1.264-2.692m-.176-72.125c2.343 0 3.072 2.376 3.072 4.267 0 1.89-.729 4.267-3.072 4.267s-3.073-2.378-3.073-4.267.732-4.267 3.073-4.267m0 1.575c-1.182 0-1.264 1.868-1.264 2.692 0 .884.082 2.688 1.264 2.688s1.263-1.809 1.263-2.688c0-.824-.081-2.692-1.263-2.692m.176 55.047c2.344 0 3.073 2.374 3.073 4.265s-.73 4.268-3.073 4.268-3.072-2.377-3.072-4.268.731-4.265 3.072-4.265m0 1.575c-1.181 0-1.263 1.866-1.263 2.69 0 .884.082 2.688 1.263 2.688 1.182 0 1.264-1.807 1.264-2.688 0-.824-.082-2.69-1.264-2.69m-.176-72.125c2.343 0 3.072 2.374 3.072 4.265s-.729 4.267-3.072 4.267-3.073-2.376-3.073-4.267c0-1.89.732-4.265 3.073-4.265m0 1.575c-1.182 0-1.264 1.866-1.264 2.69 0 .883.082 2.688 1.264 2.688s1.263-1.807 1.263-2.688c0-.824-.081-2.69-1.263-2.69M83.28 99.725a.87.87 0 1 1 1.738 0v6.598a.752.752 0 0 1-.775.824H82.6a.79.79 0 0 1-.737-.492.8.8 0 0 1-.054-.308.75.75 0 0 1 .478-.752.74.74 0 0 1 .313-.05h.68zm-.177-70.55a.87.87 0 1 1 1.739 0v6.598a.753.753 0 0 1-.776.824h-1.643a.78.78 0 0 1-.79-.8.75.75 0 0 1 .79-.801h.68zm.177 56.621a.871.871 0 1 1 1.738 0v6.595a.754.754 0 0 1-.775.824H82.6a.775.775 0 0 1-.791-.8.75.75 0 0 1 .79-.8h.68zm-.177-70.55a.869.869 0 0 1 1.5-.644.87.87 0 0 1 .239.643v6.596a.753.753 0 0 1-.776.824h-1.643a.777.777 0 0 1-.79-.8.75.75 0 0 1 .79-.8h.68z"/><path fill="#F7DD7B" stroke="#EDBF0E" stroke-linecap="round" stroke-linejoin="round" stroke-width="1.23" d="M93.093 19.952a3.57 3.57 0 0 1 2.678-2.678l5.375-1.24a.44.44 0 0 0 .363-.436.44.44 0 0 0-.363-.436l-5.375-1.239a3.58 3.58 0 0 1-2.68-2.677l-1.24-5.373a.443.443 0 0 0-.87 0l-1.242 5.37a3.57 3.57 0 0 1-2.678 2.678l-5.37 1.24a.443.443 0 0 0 0 .87l5.372 1.24a3.58 3.58 0 0 1 2.676 2.68l1.24 5.376a.443.443 0 0 0 .87 0z"/></g><path stroke="#3C4862" stroke-dasharray="1.1 6.61 180.79 5.51" stroke-linecap="round" stroke-width="2" d="M27.31 124.388h94.622"/><path fill="#3598DB" d="M101.209 58.597a4.605 4.605 0 0 0-4.605-4.605h-2.607a21.875 21.875 0 0 0-38.528 0h-2.61a4.605 4.605 0 0 0-4.604 4.605v59.862a4.6 4.6 0 0 0 4.605 4.605h43.744a4.6 4.6 0 0 0 3.256-1.349 4.6 4.6 0 0 0 1.349-3.256zm-18.418-4.605H66.675a2.302 2.302 0 1 1 0-4.603H82.79a2.302 2.302 0 0 1 0 4.603"/><path fill="#DAECF8" d="M56.252 60.898h39.14v55.258h-39.14z"/><path fill="#fff" d="m56.252 91.98 31.126-31.082H58.172a1.92 1.92 0 0 0-1.919 1.92z"/><path fill="#6CB4E4" d="M56.795 57.446a3.77 3.77 0 0 0 3.246-1.858 18.48 18.48 0 0 1 15.775-9.655 18.48 18.48 0 0 1 15.772 9.654 3.76 3.76 0 0 0 3.246 1.859h7.296a4.6 4.6 0 0 0-4.443-3.455H95.08a21.875 21.875 0 0 0-38.529 0h-2.608a4.6 4.6 0 0 0-4.443 3.455z"/><path stroke="#40526D" stroke-linejoin="round" stroke-width="2" d="M55.972 60.633h39.141v55.257H55.972z"/><path stroke="#40526D" stroke-linejoin="round" stroke-width="2" d="M102.312 59.11a4.604 4.604 0 0 0-4.605-4.604h-2.608a21.874 21.874 0 0 0-38.528 0h-2.609a4.605 4.605 0 0 0-4.605 4.605v59.862a4.604 4.604 0 0 0 4.605 4.605h43.745a4.6 4.6 0 0 0 3.256-1.349c.428-.427.767-.935.998-1.494a4.6 4.6 0 0 0 .351-1.762zm-18.418-4.604H67.777a2.302 2.302 0 1 1 0-4.604h16.117a2.302 2.302 0 0 1 0 4.604Z"/><path stroke="#40526D" stroke-linecap="round" stroke-linejoin="round" stroke-width="2" d="M65.894 104.729h20.72m-16.544 4.339h11.512"/><path stroke="#40526D" stroke-linejoin="round" stroke-width="2" d="M73.572 49.386v-2.303a18.42 18.42 0 0 1 36.837 0v42.594a8.056 8.056 0 0 0 8.059 8.058 8.06 8.06 0 0 0 8.058-8.058V49.386a13.813 13.813 0 0 0-13.813-13.815h-18.42a13.82 13.82 0 0 0-12.665 8.287"/><rect width="26.458" height="26.458" x="62.211" y="72.759" fill="#40526D" rx="4.41"/><g fill="#fff" clip-path="url(#b)"><path d="M77.52 87.219c0 1.192.5 2.267 1.302 3.027v1.62l-10.016.001a.35.35 0 0 1-.245-.098.33.33 0 0 1-.102-.235v-1c0-2.64 1.916-3.293 3.61-3.84l.527-.18c.048-.02.118-.093.166-.266a2.2 2.2 0 0 0-.055-1.333c-.66-.687-1.298-1.546-1.298-3.68 0-2.326 1.624-3.332 3.269-3.332s3.297 1.006 3.297 3.332c0 2.133-.638 3.02-1.298 3.686a2.15 2.15 0 0 0-.055 1.3c.048.173.118.267.166.267l.542.173.019.007.199.068a4 4 0 0 0-.028.483"/><path fill-rule="evenodd" d="M80.708 90.301v-.313a2.939 2.939 0 1 1 1.96 0v3.6a.23.23 0 0 1-.073.171l-.735.735a.236.236 0 0 1-.343 0l-.735-.735a.23.23 0 0 1-.074-.171v-.632l-.416-.421a.236.236 0 0 1 0-.343l.416-.421v-.284l-.416-.422a.234.234 0 0 1 0-.342zm.98-2.844a.735.735 0 1 0 0-1.47.735.735 0 0 0 0 1.47" clip-rule="evenodd"/></g><path fill="#F7DD7B" stroke="#EDBF0E" stroke-linecap="round" stroke-linejoin="round" stroke-width="1.23" d="M113.838 39.661a2.18 2.18 0 0 1 1.632-1.632l3.276-.756a.27.27 0 0 0 .21-.265.27.27 0 0 0-.21-.265l-3.276-.756a2.18 2.18 0 0 1-1.633-1.633l-.755-3.274a.27.27 0 0 0-.265-.212.28.28 0 0 0-.171.06.28.28 0 0 0-.095.152l-.755 3.274a2.17 2.17 0 0 1-1.629 1.633l-3.274.756a.273.273 0 0 0 0 .53l3.273.756a2.18 2.18 0 0 1 1.633 1.632l.755 3.276a.271.271 0 0 0 .532 0z"/><path fill="#F7DD7B" stroke="#EDBF0E" stroke-linecap="round" stroke-linejoin="round" stroke-width="1.075" d="M69.562 34.668a3.12 3.12 0 0 1 2.34-2.34l4.698-1.084a.387.387 0 0 0 0-.762L71.902 29.4a3.13 3.13 0 0 1-2.341-2.341l-1.084-4.696a.387.387 0 0 0-.76 0l-1.086 4.694a3.12 3.12 0 0 1-2.34 2.34l-4.694 1.083a.387.387 0 0 0 0 .762l4.695 1.083a3.13 3.13 0 0 1 2.339 2.343l1.084 4.698a.387.387 0 0 0 .76 0z"/><defs><clipPath id="b"><path fill="#fff" d="M67.724 77.168h17.639v17.64h-17.64z"/></clipPath></defs></svg>