<svg xmlns="http://www.w3.org/2000/svg" width="80" height="80" fill="none"><g clip-path="url(#a)"><path fill="#ECF5FB" fill-rule="evenodd" d="M40 80c22.091 0 40-17.909 40-40S62.091 0 40 0 0 17.909 0 40s17.909 40 40 40" clip-rule="evenodd"/><path fill="#B5D9F1" d="M21.1 58.666a3.03 3.03 0 0 1-2.673-4.456l19.196-35.981a3.03 3.03 0 0 1 5.348 0l19.187 35.98a3.03 3.03 0 0 1-2.677 4.457z"/><path fill="#DAECF8" d="M45.636 23.23a2.96 2.96 0 0 0-1.712-.547 3.05 3.05 0 0 0-2.682 1.608L22.925 58.666H21.1a3.03 3.03 0 0 1-2.673-4.456l19.196-35.981a3.03 3.03 0 0 1 5.348 0l2.668 5.002"/><path stroke="#264887" stroke-dasharray="80.89 3.11 0.44 1.78" stroke-linecap="round" stroke-linejoin="round" stroke-width=".889" d="M21.1 58.666a3.03 3.03 0 0 1-2.673-4.456l19.196-35.981a3.03 3.03 0 0 1 5.348 0l19.187 35.98a3.03 3.03 0 0 1-2.677 4.457z"/><path fill="#264887" stroke="#264887" stroke-linecap="round" stroke-linejoin="round" stroke-width=".889" d="M41.007 44.374a.74.74 0 0 1-1.435 0c-2.9-11.426-2.777-10.91-2.789-11.025a3.521 3.521 0 1 1 7.013 0c-.008.114.111-.403-2.79 11.025m-.716 9.63a2.848 2.848 0 1 1-.003-5.695 2.848 2.848 0 0 1 .003 5.695"/><path stroke="#B5D9F1" stroke-dasharray="0.44 2.67 72.89 2.22" stroke-linecap="round" stroke-width=".889" d="M16.445 65.556h47.11"/><path stroke="#B5D9F1" stroke-linecap="round" stroke-linejoin="round" stroke-width=".889" d="M64.731 22.613h2.825v2.825h-2.825z"/><path stroke="#B5D9F1" stroke-width=".889" d="M10.301 13.529a1.412 1.412 0 1 0 0-2.825 1.412 1.412 0 0 0 0 2.825Z" clip-rule="evenodd"/><path stroke="#B5D9F1" stroke-linecap="round" stroke-linejoin="round" stroke-width=".889" d="m16.797 18.35 1.998-1.997 1.998 1.998-1.998 1.997z"/><path stroke="#B5D9F1" stroke-linecap="round" stroke-width=".556" d="m24.824 8.562 2.684 2.684m-.096-2.684-2.683 2.684"/></g><defs><clipPath id="a"><path fill="#fff" d="M0 0h80v80H0z"/></clipPath></defs></svg>