<svg xmlns="http://www.w3.org/2000/svg" width="160" height="160" fill="none"><path fill="#EBF5FB" fill-rule="evenodd" d="M80 160c44.183 0 80-35.817 80-80S124.183 0 80 0 0 35.817 0 80s35.817 80 80 80" clip-rule="evenodd"/><g filter="url(#a)"><path fill="#fff" fill-rule="evenodd" d="M89.126 68.14V57.733C89.126 47.387 80.774 39 70.472 39c-10.303 0-18.655 8.387-18.655 18.733v15.264q0 .349.013.694h6.916q-.02-.345-.02-.694V57.733c0-6.514 5.258-11.795 11.745-11.795s11.746 5.28 11.746 11.795v2.454s2.073 2.01 2.073 2.403-2.073 2.546-2.073 2.546v3.004z" clip-rule="evenodd"/></g><path fill="#264887" d="M89.126 68.14v1h1v-1zM51.83 73.69l-1 .037.035.964h.965zm6.916 0v1h1.06l-.062-1.057zm23.47-13.503h-1v.424l.305.294zm0 4.95-.72-.694-.28.29v.403zm0 3.003h-1v1h1zm7.91 0V57.733h-2V68.14zm0-10.407C90.126 46.84 81.331 38 70.472 38v2c9.746 0 17.654 7.935 17.654 17.733zM70.472 38c-10.86 0-19.655 8.839-19.655 19.733h2C52.817 47.935 60.725 40 70.472 40zM50.817 57.733v15.264h2V57.733zm0 15.264q0 .367.013.73l2-.072a18 18 0 0 1-.013-.658zm1.013 1.694h6.916v-2H51.83zm7.914-1.058q-.018-.315-.018-.636h-2q0 .378.022.752zm-.018-.636V57.733h-2v15.264zm0-15.264c0-5.966 4.815-10.795 10.745-10.795v-2c-7.043 0-12.745 5.733-12.745 12.795zM70.47 46.938c5.93 0 10.746 4.83 10.746 10.795h2c0-7.062-5.703-12.795-12.746-12.795zm10.746 10.795v2.454h2v-2.454zm1 2.454-.696.718v.001l.004.004.017.016.063.061a36 36 0 0 1 .92.939c.252.27.49.534.659.746q.127.161.164.224c.013.021.007.015-.004-.012-.005-.012-.054-.124-.054-.294h2c0-.22-.066-.394-.101-.478-.042-.1-.092-.19-.136-.26a4 4 0 0 0-.305-.427c-.22-.275-.5-.586-.766-.869a35 35 0 0 0-.975-.995l-.069-.067-.018-.018-.006-.006h-.001zm1.073 2.403c0-.167.047-.277.05-.283.01-.024.013-.026-.002-.001q-.04.072-.17.245c-.172.227-.411.51-.665.798a37 37 0 0 1-.986 1.072l-.016.016-.004.005.72.694.72.694v-.001l.002-.001.024-.025.068-.071a40 40 0 0 0 .972-1.06c.265-.3.543-.628.76-.916.108-.141.215-.293.3-.437.042-.072.09-.161.13-.26a1.3 1.3 0 0 0 .097-.47zm-2.073 2.546V67.9h2v-2.763zm0 2.763v.241h2v-.242zm1 1.241h6.91v-2h-6.91z"/><g filter="url(#b)"><path fill="#fff" fill-rule="evenodd" d="M43.963 75.727a4 4 0 0 1 4-4h44.364a4 4 0 0 1 4 4V107a4 4 0 0 1-4 4H47.963a4 4 0 0 1-4-4z" clip-rule="evenodd"/></g><path stroke="#264887" stroke-dasharray="92 7 1 4" stroke-linecap="round" stroke-width="2" d="M43.963 75.727a4 4 0 0 1 4-4h44.364a4 4 0 0 1 4 4V107a4 4 0 0 1-4 4H47.963a4 4 0 0 1-4-4z" clip-rule="evenodd"/><rect width="55.309" height=".982" x="42.49" y="78.109" fill="#264887" stroke="#264887" stroke-width=".982" rx=".491"/><rect width="55.309" height=".982" x="42.49" y="104.291" fill="#264887" stroke="#264887" stroke-width=".982" rx=".491"/><path stroke="#86C1E9" stroke-linecap="round" stroke-width="2" d="M53.78 94.409h37m-37 4.781h37m-37-9.562h37m-37-4.781h37"/><g filter="url(#c)"><path fill="#fff" fill-rule="evenodd" d="M77.345 92.017a6.545 6.545 0 1 1-13.09.003 6.545 6.545 0 0 1 13.09-.003" clip-rule="evenodd"/></g><path stroke="#26417E" stroke-linecap="round" stroke-linejoin="round" stroke-width="2" d="M77.345 92.017a6.545 6.545 0 1 1-13.09.003 6.545 6.545 0 0 1 13.09-.003" clip-rule="evenodd"/><rect width="6.201" height=".689" x="71.144" y="88.918" fill="#E3E3E3" stroke="#D22D27" stroke-width="2" rx=".344" transform="rotate(90 71.144 88.918)"/><path stroke="#C2E0F4" stroke-width="2" d="M128 94.222a2.667 2.667 0 1 0 0-5.333 2.667 2.667 0 0 0 0 5.333Zm5.667-70.889a2.667 2.667 0 1 0-.001-5.333 2.667 2.667 0 0 0 .001 5.333Z" clip-rule="evenodd"/><path stroke="#C2E0F4" stroke-linecap="round" stroke-linejoin="round" stroke-width="2" d="M23.444 47.222h5.333v5.333h-5.333z"/><path stroke="#C2E0F4" stroke-linecap="round" stroke-width="1.6" d="m17.182 90.182 4.154 4.154m-.146-4.154-4.154 4.154"/><path stroke="#264887" stroke-dasharray="1 6 164 5" stroke-linecap="round" stroke-width="2" d="M5 111h150"/><path fill="#fff" d="M60 82h1v5h-1z"/><path fill="#DAECF8" d="M152.436 114c-12.78 27.182-40.411 46-72.436 46s-59.656-18.818-72.436-46z"/><path stroke="#B5D9F1" stroke-dasharray="1 8 164 9" stroke-linecap="round" stroke-width="2" d="M42 121h57"/><path stroke="#B5D9F1" stroke-dasharray="161 16 10 16" stroke-linecap="round" stroke-width="2" d="M60 127h32"/><g filter="url(#d)"><path fill="#90C6EB" d="M117.385 42.498a3.62 3.62 0 0 0-.563-2.176 3.6 3.6 0 0 0-1.737-1.42l-6.976-2.758a1.6 1.6 0 0 1-1.011-1.455l-.173-7.86a3.64 3.64 0 0 0-2.188-3.416 3.53 3.53 0 0 0-3.917.83l-4.195 4.23a1.59 1.59 0 0 1-1.65.381l-6.963-2.422h-.03a3.69 3.69 0 0 0-3.776.917 3.73 3.73 0 0 0-.887 3.8l2.408 7a1.61 1.61 0 0 1-.38 1.657l-4.216 4.224a3.56 3.56 0 0 0-.823 3.935c.292.65.764 1.201 1.36 1.59a3.7 3.7 0 0 0 1.999.601l7.87.177a1.59 1.59 0 0 1 1.45 1.012l2.741 6.995a3.6 3.6 0 0 0 1.332 1.69 3.6 3.6 0 0 0 2.053.627h.198a3.65 3.65 0 0 0 2.137-.804 3.67 3.67 0 0 0 1.247-1.92l2.374-8.533a1.6 1.6 0 0 1 1.107-1.112l8.498-2.387a3.66 3.66 0 0 0 1.912-1.254 3.7 3.7 0 0 0 .799-2.149"/><path stroke="#264887" stroke-width="2" d="M116.387 42.436v.011l-.001.011a2.7 2.7 0 0 1-.582 1.566 2.66 2.66 0 0 1-1.389.911l-.012.003-8.498 2.387a2.6 2.6 0 0 0-1.8 1.807l-2.373 8.533-.003.011a2.68 2.68 0 0 1-.908 1.398 2.65 2.65 0 0 1-1.533.583h-.182a2.6 2.6 0 0 1-1.48-.453 2.6 2.6 0 0 1-.964-1.221l-.003-.008-2.74-6.995v-.001a2.6 2.6 0 0 0-2.36-1.646h-.002l-7.868-.176h-.016a2.7 2.7 0 0 1-1.459-.44 2.73 2.73 0 0 1-.988-1.15 2.57 2.57 0 0 1 .597-2.816l.008-.007.007-.008 4.217-4.223h.001a2.6 2.6 0 0 0 .617-2.688l-2.407-6.996a2.74 2.74 0 0 1 .651-2.777 2.7 2.7 0 0 1 2.755-.67l.151.05h.02l6.804 2.367a2.59 2.59 0 0 0 2.686-.62l.002-.002 4.195-4.23.007-.007.007-.007a2.53 2.53 0 0 1 2.803-.599 2.63 2.63 0 0 1 1.579 2.474l-.001.021.001.022.172 7.86a2.6 2.6 0 0 0 1.644 2.363l6.976 2.759.008.003a2.61 2.61 0 0 1 1.661 2.6Z"/></g><path fill="#B5D9F1" stroke="#EBF5FB" stroke-width=".75" d="M77.314 22.413a2 2 0 0 1-1.416-.568l-4.78-4.801a2.034 2.034 0 0 1 .028-2.842 2.01 2.01 0 0 1 2.825-.026l4.78 4.802a2.035 2.035 0 0 1-.028 2.842c-.375.376-.88.588-1.41.593Zm18.982-2.166a2.013 2.013 0 0 1-2.852 0 2.03 2.03 0 0 1-.591-1.435v-6.409c0-.538.213-1.054.591-1.434a2.01 2.01 0 0 1 2.852 0c.379.38.592.896.592 1.434v6.409c0 .538-.213 1.054-.592 1.435ZM65.422 32.078a2.034 2.034 0 0 0-.346 2.848c.33.424.813.697 1.344.762l6.334.77a2 2 0 0 0 1.487-.418 2.034 2.034 0 0 0 .346-2.849 2 2 0 0 0-1.344-.76l-6.334-.77a2 2 0 0 0-1.487.417Z"/><g filter="url(#e)"><path fill="#264887" d="m134.299 70.701-22.588-19.39a1.3 1.3 0 0 0-.884-.31 1.3 1.3 0 0 0-.864.36l-2.591 2.5a1.204 1.204 0 0 0-.051 1.685l20.091 21.805c.437.494.976.895 1.581 1.178a5.04 5.04 0 0 0 3.907.147 4.9 4.9 0 0 0 1.671-1.055 4.7 4.7 0 0 0 1.093-1.614 4.56 4.56 0 0 0-.152-3.77 4.75 4.75 0 0 0-1.22-1.526z"/><path stroke="#264887" stroke-width="2" d="m111.06 52.07 21.865 18.77-.019.024.749.618c.406.335.733.745.963 1.203a3.57 3.57 0 0 1 .119 2.947 3.7 3.7 0 0 1-.861 1.269c-.376.364-.829.65-1.33.84l.354.935-.354-.936a4.04 4.04 0 0 1-3.129-.117 3.85 3.85 0 0 1-1.256-.935l-.007-.007-.006-.007-20.091-21.805a.2.2 0 0 1-.057-.145.22.22 0 0 1 .067-.144l2.591-2.5a.3.3 0 0 1 .197-.08.3.3 0 0 1 .205.07Z"/></g><defs><filter id="a" width="39.309" height="36.691" x="50.817" y="38" color-interpolation-filters="sRGB" filterUnits="userSpaceOnUse"><feFlood flood-opacity="0" result="BackgroundImageFix"/><feBlend in="SourceGraphic" in2="BackgroundImageFix" result="shape"/><feColorMatrix in="SourceAlpha" result="hardAlpha" values="0 0 0 0 0 0 0 0 0 0 0 0 0 0 0 0 0 0 127 0"/><feOffset dx="-4" dy="-2"/><feComposite in2="hardAlpha" k2="-1" k3="1" operator="arithmetic"/><feColorMatrix values="0 0 0 0 0.760784 0 0 0 0 0.878431 0 0 0 0 0.956863 0 0 0 1 0"/><feBlend in2="shape" result="effect1_innerShadow_606_4234"/></filter><filter id="b" width="54.364" height="41.273" x="42.963" y="70.727" color-interpolation-filters="sRGB" filterUnits="userSpaceOnUse"><feFlood flood-opacity="0" result="BackgroundImageFix"/><feBlend in="SourceGraphic" in2="BackgroundImageFix" result="shape"/><feColorMatrix in="SourceAlpha" result="hardAlpha" values="0 0 0 0 0 0 0 0 0 0 0 0 0 0 0 0 0 0 127 0"/><feOffset dx="7" dy="-7"/><feComposite in2="hardAlpha" k2="-1" k3="1" operator="arithmetic"/><feColorMatrix values="0 0 0 0 0.760784 0 0 0 0 0.878431 0 0 0 0 0.956863 0 0 0 1 0"/><feBlend in2="shape" result="effect1_innerShadow_606_4234"/></filter><filter id="c" width="15.091" height="15.091" x="63.254" y="84.473" color-interpolation-filters="sRGB" filterUnits="userSpaceOnUse"><feFlood flood-opacity="0" result="BackgroundImageFix"/><feBlend in="SourceGraphic" in2="BackgroundImageFix" result="shape"/><feColorMatrix in="SourceAlpha" result="hardAlpha" values="0 0 0 0 0 0 0 0 0 0 0 0 0 0 0 0 0 0 127 0"/><feOffset dx="4" dy="-2"/><feComposite in2="hardAlpha" k2="-1" k3="1" operator="arithmetic"/><feColorMatrix values="0 0 0 0 0.760784 0 0 0 0 0.878431 0 0 0 0 0.956863 0 0 0 1 0"/><feBlend in2="shape" result="effect1_innerShadow_606_4234"/></filter><filter id="d" width="40.356" height="38.514" x="77.036" y="22.143" color-interpolation-filters="sRGB" filterUnits="userSpaceOnUse"><feFlood flood-opacity="0" result="BackgroundImageFix"/><feColorMatrix in="SourceAlpha" result="hardAlpha" values="0 0 0 0 0 0 0 0 0 0 0 0 0 0 0 0 0 0 127 0"/><feOffset dx="-3" dy="-1"/><feColorMatrix values="0 0 0 0 0 0 0 0 0 0 0 0 0 0 0 0 0 0 0.1 0"/><feBlend in2="BackgroundImageFix" result="effect1_dropShadow_606_4234"/><feBlend in="SourceGraphic" in2="effect1_dropShadow_606_4234" result="shape"/><feColorMatrix in="SourceAlpha" result="hardAlpha" values="0 0 0 0 0 0 0 0 0 0 0 0 0 0 0 0 0 0 127 0"/><feOffset dx="-4" dy="-1"/><feComposite in2="hardAlpha" k2="-1" k3="1" operator="arithmetic"/><feColorMatrix values="0 0 0 0 0.709804 0 0 0 0 0.85098 0 0 0 0 0.945098 0 0 0 1 0"/><feBlend in2="shape" result="effect2_innerShadow_606_4234"/></filter><filter id="e" width="32" height="28" x="104" y="51" color-interpolation-filters="sRGB" filterUnits="userSpaceOnUse"><feFlood flood-opacity="0" result="BackgroundImageFix"/><feColorMatrix in="SourceAlpha" result="hardAlpha" values="0 0 0 0 0 0 0 0 0 0 0 0 0 0 0 0 0 0 127 0"/><feOffset dx="-3"/><feColorMatrix values="0 0 0 0 0 0 0 0 0 0 0 0 0 0 0 0 0 0 0.1 0"/><feBlend in2="BackgroundImageFix" result="effect1_dropShadow_606_4234"/><feBlend in="SourceGraphic" in2="effect1_dropShadow_606_4234" result="shape"/></filter></defs></svg>