<svg xmlns="http://www.w3.org/2000/svg" width="42" height="38" fill="none"><path fill="#B5D9F1" fill-rule="evenodd" d="M16.308 23.111a9.1 9.1 0 0 0 8.956.055l1.774 1.572v2.472h2.477l.825.865v2.43h2.174l1.754 1.649h3.501v-3.496l-9.004-8.988c1.932-3.45 1.435-7.89-1.502-10.822a9.07 9.07 0 0 0-7.586-2.581" clip-rule="evenodd"/><path stroke="#264887" stroke-dasharray="169 7" stroke-linecap="round" stroke-width="1.25" d="M16.308 23.111a9.1 9.1 0 0 0 8.956.055l1.774 1.572v2.472h2.477l.825.865v2.43h2.174l1.754 1.649h3.501v-3.496l-9.004-8.988c1.932-3.45 1.435-7.89-1.502-10.822a9.07 9.07 0 0 0-7.586-2.581"/><g filter="url(#a)"><path fill="#fff" fill-rule="evenodd" d="M22.539 13.41c0-4.943-4.03-8.948-9-8.948s-9 4.005-9 8.948c0 4.095 2.77 7.539 6.545 8.601v1.974L9.448 25.61l1.636 1.628v1.627l-1.636 1.627 1.636 1.627v2.44L13.539 37l2.454-2.44V22.01c3.775-1.062 6.545-4.506 6.545-8.601" clip-rule="evenodd"/></g><path stroke="#264887" stroke-dasharray="181 7 1 4" stroke-linecap="round" stroke-width="1.25" d="M22.539 13.41c0-4.943-4.03-8.948-9-8.948s-9 4.005-9 8.948c0 4.095 2.77 7.539 6.545 8.601v1.974L9.448 25.61l1.636 1.628v1.627l-1.636 1.627 1.636 1.627v2.44L13.539 37l2.454-2.44V22.01c3.775-1.062 6.545-4.506 6.545-8.601Z" clip-rule="evenodd"/><path stroke="#264887" stroke-linecap="round" stroke-linejoin="round" stroke-width="1.25" d="M15.27 12.423a1.731 1.731 0 1 1-3.464-.001 1.731 1.731 0 0 1 3.463.001" clip-rule="evenodd"/><path stroke="#D7403A" stroke-linecap="round" stroke-linejoin="round" stroke-width="1.25" d="M13.539 12.423V4.195C13.539 2.431 15.089 1 17 1s3.462 1.431 3.462 3.195v1.609"/><path stroke="#B5D9F1" d="M39.5 25.923a1.038 1.038 0 1 0 0-2.077 1.038 1.038 0 0 0 0 2.077Z" clip-rule="evenodd"/><path stroke="#B5D9F1" stroke-linecap="round" stroke-linejoin="round" d="M1.077 24.885h2.077v2.077H1.077z"/><path stroke="#B5D9F1" stroke-linecap="round" d="m36.11 4.532 1.617 1.618m-.057-1.617L36.052 6.15"/><defs><filter id="a" width="19.25" height="34.045" x="3.913" y="3.837" color-interpolation-filters="sRGB" filterUnits="userSpaceOnUse"><feFlood flood-opacity="0" result="BackgroundImageFix"/><feBlend in="SourceGraphic" in2="BackgroundImageFix" result="shape"/><feColorMatrix in="SourceAlpha" result="hardAlpha" values="0 0 0 0 0 0 0 0 0 0 0 0 0 0 0 0 0 0 127 0"/><feOffset dx="4.5" dy="-1"/><feComposite in2="hardAlpha" k2="-1" k3="1" operator="arithmetic"/><feColorMatrix values="0 0 0 0 0.709804 0 0 0 0 0.85098 0 0 0 0 0.945098 0 0 0 1 0"/><feBlend in2="shape" result="effect1_innerShadow_415_6337"/></filter></defs></svg>