<svg xmlns="http://www.w3.org/2000/svg" width="24" height="24" fill="none"><path fill="#40526D" d="M10.46 12.917a9.1 9.1 0 0 1 .99-3.841.1.1 0 0 1 .028-.046H12q.035.002.062.025a.1.1 0 0 1 .037.058 9.1 9.1 0 0 1 .99 3.804.45.45 0 0 1-.269.456.5.5 0 0 1-.181.039H10.91a.45.45 0 0 1-.45-.495m3.97 0a.46.46 0 0 0 .14.306c.084.08.195.125.31.124h1.25a.43.43 0 0 0 .352-.174.46.46 0 0 0 .08-.403 5.1 5.1 0 0 0-1.8-2.75.445.445 0 0 0-.521 0 .44.44 0 0 0-.19.486c.19.792.317 1.598.379 2.41m-5.76.459a.43.43 0 0 0 .32-.131.45.45 0 0 0 .13-.327q.076-1.215.342-2.402a.45.45 0 0 0-.162-.458.44.44 0 0 0-.522 0 5.1 5.1 0 0 0-1.8 2.75.47.47 0 0 0 .236.532q.093.046.196.045zm.46 1.805a.46.46 0 0 0-.142-.306.45.45 0 0 0-.309-.124H7.42a.43.43 0 0 0-.35.174.46.46 0 0 0-.082.404 5.05 5.05 0 0 0 1.8 2.75.44.44 0 0 0 .522 0 .47.47 0 0 0 .19-.495 13.6 13.6 0 0 1-.37-2.402m3.95.064a9.7 9.7 0 0 1-.99 3.823h-.63a9.7 9.7 0 0 1-.99-3.823.42.42 0 0 1 .117-.348.43.43 0 0 1 .324-.147h1.728a.42.42 0 0 1 .324.147.42.42 0 0 1 .117.348m1.482-.371a.45.45 0 0 1 .31-.124l1.268.01a.43.43 0 0 1 .351.173.46.46 0 0 1 .081.404 5.05 5.05 0 0 1-1.8 2.75.445.445 0 0 1-.522 0 .47.47 0 0 1-.189-.495c.192-.791.312-1.598.36-2.411a.46.46 0 0 1 .141-.307"/><path fill="#40526D" fill-rule="evenodd" d="M19.92 5.74a.43.43 0 0 1-.27-.413V2.833c0-.486-.19-.952-.527-1.296A1.78 1.78 0 0 0 17.85 1H6.15c-.835 0-1.637.338-2.227.94A3.24 3.24 0 0 0 3 4.208V20.25c0 .73.284 1.429.79 1.945A2.68 2.68 0 0 0 5.7 23h13.5c.477 0 .935-.193 1.273-.537A1.85 1.85 0 0 0 21 21.167V7.417c0-.357-.103-.705-.295-1.003a1.8 1.8 0 0 0-.785-.675M4.8 4.207c0-.364.142-.714.395-.972a1.34 1.34 0 0 1 .955-.403H17.4c.12 0 .234.049.318.135a.46.46 0 0 1 .132.324v1.833a.46.46 0 0 1-.132.324.45.45 0 0 1-.318.134H6.15c-.358 0-.701-.145-.955-.402a1.4 1.4 0 0 1-.395-.973m6.975 16.271a6.2 6.2 0 0 1-3.5-1.081 6.4 6.4 0 0 1-2.32-2.88 6.53 6.53 0 0 1-.359-3.707A6.45 6.45 0 0 1 7.32 9.525a6.27 6.27 0 0 1 3.226-1.756 6.2 6.2 0 0 1 3.64.365 6.33 6.33 0 0 1 2.827 2.364 6.5 6.5 0 0 1 1.062 3.565A6.48 6.48 0 0 1 16.23 18.6a6.24 6.24 0 0 1-4.455 1.88" clip-rule="evenodd"/></svg>