<svg xmlns="http://www.w3.org/2000/svg" width="40" height="40" fill="none"><rect width="40" height="40" fill="#EBF2FA" rx="8"/><path fill="#005CF0" d="M27.368 16.865h-.736v-2.808a7.03 7.03 0 0 0-1.943-4.872A6.5 6.5 0 0 0 20 7.167a6.5 6.5 0 0 0-4.69 2.018 7.03 7.03 0 0 0-1.942 4.872v2.808h-.736c-.522 0-1.021.215-1.39.598a2.08 2.08 0 0 0-.575 1.443v10.719c0 .541.207 1.06.575 1.444.369.383.868.598 1.39.598h14.736c.522 0 1.021-.215 1.39-.598.368-.383.575-.902.575-1.444V18.906c0-.541-.207-1.06-.575-1.443a1.93 1.93 0 0 0-1.39-.598M20 26.052c-.389 0-.769-.12-1.092-.344a2.03 2.03 0 0 1-.723-.916 2.1 2.1 0 0 1-.112-1.18c.076-.396.263-.76.538-1.045.274-.286.624-.48 1.006-.559a1.9 1.9 0 0 1 1.135.116c.359.155.666.416.882.752a2.1 2.1 0 0 1 .33 1.134 2.08 2.08 0 0 1-.575 1.444 1.93 1.93 0 0 1-1.389.598m4.175-9.698a.52.52 0 0 1-.143.361.48.48 0 0 1-.348.15h-7.368a.48.48 0 0 1-.348-.15.52.52 0 0 1-.143-.36v-2.298c0-1.15.44-2.254 1.223-3.068A4.1 4.1 0 0 1 20 9.72c1.107 0 2.17.457 2.952 1.27a4.43 4.43 0 0 1 1.223 3.068z"/></svg>