<svg xmlns="http://www.w3.org/2000/svg" width="80" height="80" fill="none"><path fill="#ECF5FB" d="M40.035 74.8c20.637 0 37.368-16.73 37.368-37.367 0-20.638-16.73-37.368-37.369-37.368-20.637 0-37.367 16.73-37.367 37.368S19.397 74.8 40.035 74.8"/><path fill="#F7DD7B" stroke="#EDBF0E" stroke-linecap="round" stroke-linejoin="round" stroke-width=".889" d="M18.133 12.873a2.97 2.97 0 0 1 2.222-2.223l4.46-1.029a.367.367 0 0 0 0-.723l-4.46-1.028a2.97 2.97 0 0 1-2.222-2.223l-1.03-4.46a.368.368 0 0 0-.721 0l-1.03 4.458a2.97 2.97 0 0 1-2.223 2.223L8.674 8.896a.367.367 0 0 0 0 .723l4.457 1.03a2.97 2.97 0 0 1 2.22 2.224l1.029 4.46a.367.367 0 0 0 .722 0z"/><mask id="a" width="76" height="75" x="2" y="0" maskUnits="userSpaceOnUse" style="mask-type:alpha"><path fill="#ECF5FB" d="M39.778 74.222c20.741 0 37.555-16.615 37.555-37.11C77.333 16.614 60.52 0 39.778 0S2.222 16.615 2.222 37.111s16.814 37.111 37.556 37.111"/></mask><g fill="#B5D9F1" mask="url(#a)"><path d="M34.808 75.533c0 .388-.596.568-.983.568a.953.953 0 0 1-1.064-.918c0-.9 1.364-.845 1.364-1.206 0-.148-.07-.223-.312-.223-.371 0-.507.267-.814.267a.37.37 0 0 1-.337-.35c0-.354.654-.606 1.097-.606a.993.993 0 0 1 1.119.924c0 .894-1.365.84-1.365 1.206 0 .152.125.218.268.218.256 0 .556-.23.703-.23a.34.34 0 0 1 .324.35m-1.946-8.551a.4.4 0 0 1 .43-.409h.95a1.768 1.768 0 0 1 1.872 1.889 1.81 1.81 0 0 1-1.921 1.997h-.907a.403.403 0 0 1-.416-.416zm.818 2.724h.495c.754 0 1.08-.508 1.08-1.207 0-.654-.32-1.172-1.025-1.172h-.55zm-.058-10.224a.396.396 0 0 1 .416-.41h1.412a.37.37 0 0 1 .388.377.364.364 0 0 1-.388.377h-1.01v.832h.895a.375.375 0 0 1 .399.377.37.37 0 0 1-.399.376h-.895v.797h.96a.37.37 0 0 1 .389.376.362.362 0 0 1-.388.376h-1.352c-.288 0-.424-.201-.424-.475zm2.665-4.468a.397.397 0 0 1-.392.437.376.376 0 0 1-.395-.329.85.85 0 0 1-.72.36 1.407 1.407 0 0 1-1.294-1.528c0-.78.388-1.506 1.213-1.506a.9.9 0 0 1 .792.37h.01v-.184a.606.606 0 0 0-.666-.624c-.453 0-.728.244-.982.244a.38.38 0 0 1-.312-.343c0-.432.917-.59 1.239-.59a1.345 1.345 0 0 1 1.51 1.42zm-.786-1.071c0-.382-.197-.775-.617-.775s-.612.383-.612.803c0 .365.208.791.612.791.432 0 .617-.437.617-.82m-1.731-7.364a.28.28 0 0 1-.198-.278c0-.23.126-.344.262-.344q.145.007.273.076l2.156.994a.341.341 0 0 1 0 .624l-2.156.988a.6.6 0 0 1-.273.082c-.136 0-.262-.114-.262-.344a.28.28 0 0 1 .198-.279l1.815-.758zm.876-3.622a.373.373 0 0 1-.4.392h-.544a.312.312 0 1 1 0-.623h.255v-3.549h-.255a.312.312 0 1 1 0-.623h.543a.37.37 0 0 1 .4.393zm-.861-9.714a.394.394 0 0 1 .393-.436.394.394 0 0 1 .393.436v1.811h.223a.334.334 0 0 1 .378.346c0 .25-.175.343-.378.343h-.223v.47a.396.396 0 1 1-.786 0v-.47h-.175a.33.33 0 0 1-.32-.21.3.3 0 0 1-.023-.133.318.318 0 0 1 .343-.346h.175zm0-17.756a.394.394 0 1 1 .786 0V17.3h.223a.333.333 0 0 1 .378.344c0 .251-.175.344-.378.344h-.223v.47a.396.396 0 1 1-.786 0v-.475h-.175a.336.336 0 0 1-.343-.344.32.32 0 0 1 .343-.345h.175zM34.833 27c.462.584 1.309 1.336 1.309 2.096a1.13 1.13 0 0 1-1.213 1.136 1.284 1.284 0 0 1-1.28-1.24.377.377 0 0 1 .397-.398c.52 0 .224.884.851.884a.41.41 0 0 0 .394-.416.9.9 0 0 0-.19-.507c-.416-.601-.907-1.092-1.361-1.633a.46.46 0 0 1-.124-.278c0-.251.185-.36.424-.36h1.82a.35.35 0 0 1 .393.36c0 .251-.185.36-.424.36zm-9.578 45.428a.4.4 0 0 1 .416-.41h1.412a.37.37 0 0 1 .388.377.364.364 0 0 1-.388.378h-1.01v.832h.896a.374.374 0 0 1 .398.376.37.37 0 0 1-.398.376h-.895v.797h.96a.37.37 0 0 1 .388.376.362.362 0 0 1-.388.377h-1.351c-.288 0-.425-.202-.425-.475zm.56-12.903a.276.276 0 0 1-.197-.278c0-.23.125-.344.262-.344q.144.007.272.076l2.157.994a.343.343 0 0 1 .148.498.34.34 0 0 1-.148.126l-2.157.988a.6.6 0 0 1-.272.082c-.137 0-.262-.114-.262-.344a.28.28 0 0 1 .197-.279l1.816-.758zm2.172 8.463a.395.395 0 0 1-.392.437.376.376 0 0 1-.394-.329.85.85 0 0 1-.72.36 1.407 1.407 0 0 1-1.295-1.528c0-.78.388-1.505 1.213-1.505a.9.9 0 0 1 .792.37h.01v-.185a.606.606 0 0 0-.666-.624c-.453 0-.728.244-.982.244a.38.38 0 0 1-.311-.343c0-.432.916-.59 1.238-.59a1.345 1.345 0 0 1 1.511 1.42zm-.786-1.071c0-.382-.197-.775-.617-.775s-.611.383-.611.803c0 .365.208.791.611.791.433 0 .617-.437.617-.82m-.252-10.986a.373.373 0 0 1-.4.392h-.545a.312.312 0 1 1 0-.623h.256V52.15h-.256a.312.312 0 0 1 0-.624h.544a.37.37 0 0 1 .4.393zm-.343-9.714a.396.396 0 1 1 .786 0v1.812h.224a.334.334 0 0 1 .377.345c0 .25-.174.343-.377.343h-.224v.47a.394.394 0 0 1-.768.163.4.4 0 0 1-.018-.163v-.47h-.175a.33.33 0 0 1-.319-.21.3.3 0 0 1-.024-.133.318.318 0 0 1 .343-.345h.175zm0-17.755a.396.396 0 1 1 .786 0v1.813h.224a.332.332 0 0 1 .377.344c0 .252-.174.344-.377.344h-.224v.47a.394.394 0 1 1-.786 0v-.475h-.175a.336.336 0 0 1-.343-.344.318.318 0 0 1 .343-.344h.175zm-.033 11.485c.463.584 1.31 1.336 1.31 2.096a1.133 1.133 0 0 1-1.213 1.136 1.285 1.285 0 0 1-1.281-1.24.377.377 0 0 1 .398-.398c.52 0 .223.884.85.884a.41.41 0 0 0 .395-.416.9.9 0 0 0-.19-.508c-.417-.6-.907-1.092-1.362-1.632a.46.46 0 0 1-.124-.278c0-.252.185-.36.425-.36h1.82a.35.35 0 0 1 .393.36c0 .25-.186.36-.425.36zM62.794 67.31a.28.28 0 0 1-.198-.279c0-.23.126-.344.262-.344q.145.007.273.076l2.156.994a.343.343 0 0 1 .148.498.34.34 0 0 1-.148.126l-2.156.988a.6.6 0 0 1-.273.082c-.136 0-.262-.114-.262-.344a.28.28 0 0 1 .198-.279l1.815-.758zm2.171 8.463a.397.397 0 0 1-.392.437.377.377 0 0 1-.394-.329.85.85 0 0 1-.72.36 1.406 1.406 0 0 1-1.294-1.528c0-.78.388-1.505 1.212-1.505a.9.9 0 0 1 .793.37h.01v-.185a.605.605 0 0 0-.666-.624c-.454 0-.728.244-.982.244a.38.38 0 0 1-.312-.343c0-.432.916-.59 1.239-.59a1.345 1.345 0 0 1 1.51 1.42zm-.786-1.071c0-.382-.196-.775-.616-.775s-.612.383-.612.803c0 .365.208.791.612.791.432 0 .616-.436.616-.82m-.249-10.985a.37.37 0 0 1-.4.392h-.544a.312.312 0 1 1 0-.624h.256v-3.548h-.255a.312.312 0 1 1 0-.624h.543a.37.37 0 0 1 .4.394zm-.345-9.715a.394.394 0 0 1 .686-.305.4.4 0 0 1 .1.305v1.811h.223a.333.333 0 0 1 .378.346c0 .25-.175.343-.378.343h-.223v.47a.395.395 0 1 1-.786 0v-.47h-.175a.333.333 0 0 1-.343-.343.32.32 0 0 1 .343-.346h.175zm0-17.755a.394.394 0 1 1 .786 0v1.813h.223a.332.332 0 0 1 .378.344c0 .251-.175.344-.378.344h-.223v.47a.396.396 0 1 1-.786 0v-.475h-.175a.336.336 0 0 1-.343-.344.318.318 0 0 1 .343-.345h.175zm-.033 11.486c.462.584 1.309 1.336 1.309 2.096a1.133 1.133 0 0 1-1.213 1.135 1.284 1.284 0 0 1-1.28-1.24.377.377 0 0 1 .397-.397c.52 0 .224.883.851.883a.41.41 0 0 0 .394-.415.9.9 0 0 0-.19-.508c-.416-.6-.907-1.092-1.361-1.633a.46.46 0 0 1-.124-.277c0-.252.185-.361.424-.361h1.82a.35.35 0 0 1 .393.36c0 .252-.185.36-.424.36zm-50.955-9.845v-.465c0-.289.113-.425.393-.425s.39.14.39.429v.461h.094a.36.36 0 0 1 .358.216.36.36 0 0 1-.358.504h-.093v1.678a.62.62 0 0 1-.624.7.55.55 0 0 1-.557-.313l-1.223-2.217a.4.4 0 0 1-.077-.24.34.34 0 0 1 .382-.321zm0 .72h-.748l.737 1.523h.01zm-1.561-7.955a.4.4 0 0 1 .416-.41h1.412a.37.37 0 0 1 .388.377.365.365 0 0 1-.388.377h-1.01v.832h.895a.374.374 0 0 1 .399.376.37.37 0 0 1-.399.377h-.895v.796h.96a.37.37 0 0 1 .389.377.363.363 0 0 1-.388.376h-1.352c-.288 0-.424-.202-.424-.475zm.051 43.95a.276.276 0 0 1-.198-.278c0-.23.126-.344.262-.344q.146.007.273.076l2.157.995a.34.34 0 0 1 0 .624l-2.157.988a.6.6 0 0 1-.273.082c-.136 0-.262-.114-.262-.344a.28.28 0 0 1 .198-.279l1.816-.758zm.888-3.622a.37.37 0 0 1-.4.392h-.544a.312.312 0 0 1 0-.624h.256V67.2h-.256a.312.312 0 0 1 0-.624h.544a.37.37 0 0 1 .4.392zm-.865-9.714a.396.396 0 1 1 .787 0v1.811h.223a.332.332 0 0 1 .378.345c0 .251-.175.344-.377.344h-.225v.47a.394.394 0 1 1-.786 0v-.47h-.175a.337.337 0 0 1-.343-.344.317.317 0 0 1 .343-.345h.175zm1.05-6.242c.462.585 1.31 1.337 1.31 2.097a1.134 1.134 0 0 1-1.213 1.135 1.284 1.284 0 0 1-1.282-1.24.377.377 0 0 1 .398-.399c.52 0 .224.885.85.885a.41.41 0 0 0 .395-.416.9.9 0 0 0-.19-.508c-.416-.6-.906-1.091-1.362-1.632a.46.46 0 0 1-.123-.277c0-.252.185-.361.424-.361h1.824a.352.352 0 0 1 .392.36c0 .251-.185.36-.425.36zm-.533-8.917a.394.394 0 1 1 .786 0v1.812h.226a.332.332 0 0 1 .377.344c0 .252-.174.345-.377.345h-.224v.47a.394.394 0 0 1-.686.305.4.4 0 0 1-.1-.306v-.475h-.175a.335.335 0 0 1-.343-.344.32.32 0 0 1 .343-.344h.175zM49.19 70.651c1.1 0 1.445 1.118 1.445 2.01 0 .89-.346 2.008-1.446 2.008s-1.449-1.12-1.449-2.009.346-2.009 1.45-2.009m0 .742c-.56 0-.596.88-.596 1.267 0 .416.037 1.266.595 1.266.559 0 .593-.852.593-1.266.003-.388-.037-1.267-.593-1.267m.001-7.301c1.1 0 1.445 1.12 1.445 2.008 0 .89-.346 2.01-1.446 2.01s-1.449-1.118-1.449-2.01c0-.89.346-2.008 1.45-2.008m0 .744c-.56 0-.596.877-.596 1.264 0 .416.037 1.268.595 1.268.559 0 .593-.852.593-1.268.003-.386-.037-1.264-.593-1.264m-.742-6.843a.41.41 0 0 1 .409-.43.41.41 0 0 1 .41.43V61.1a.356.356 0 0 1-.367.388h-.776a.366.366 0 0 1-.37-.376.353.353 0 0 1 .37-.377h.324zm.743-7.017c1.1 0 1.445 1.119 1.445 2.01s-.346 2.008-1.446 2.008-1.449-1.119-1.449-2.009.346-2.009 1.45-2.009m0 .742c-.56 0-.596.88-.596 1.267 0 .416.037 1.266.595 1.266.559 0 .593-.851.593-1.266.003-.389-.037-1.267-.593-1.267m-.742-6.842a.41.41 0 0 1 .409-.43.41.41 0 0 1 .41.43v3.106a.356.356 0 0 1-.367.388h-.776a.37.37 0 0 1-.37-.378.352.352 0 0 1 .37-.376h.324zm0-6.56a.41.41 0 0 1 .409-.43.41.41 0 0 1 .41.43v3.105a.356.356 0 0 1-.367.388h-.776a.37.37 0 0 1-.37-.376.353.353 0 0 1 .37-.378h.324zM71.646 62.28v-.464c0-.29.113-.425.393-.425s.39.139.39.428v.462h.094a.36.36 0 0 1 .273.624.36.36 0 0 1-.273.095h-.093v1.679a.618.618 0 0 1-.624.698.55.55 0 0 1-.556-.311l-1.223-2.218a.4.4 0 0 1-.077-.24.344.344 0 0 1 .381-.321zm0 .72h-.748l.737 1.524h.01zm-1.565-7.955a.396.396 0 0 1 .416-.41h1.412a.37.37 0 0 1 .388.376.364.364 0 0 1-.388.378H70.9v.832h.896a.375.375 0 0 1 .398.376.37.37 0 0 1-.398.377H70.9v.796h.96a.37.37 0 0 1 .388.377.364.364 0 0 1-.388.376h-1.352c-.288 0-.424-.202-.424-.475zm2.669-4.47a.4.4 0 0 1-.392.437.377.377 0 0 1-.394-.328.85.85 0 0 1-.72.36 1.406 1.406 0 0 1-1.294-1.528c0-.781.388-1.506 1.212-1.506a.9.9 0 0 1 .793.37h.01v-.185a.606.606 0 0 0-.666-.624c-.454 0-.728.245-.982.245a.38.38 0 0 1-.312-.344c0-.431.916-.59 1.239-.59a1.347 1.347 0 0 1 1.51 1.42zm-.786-1.07c0-.382-.196-.775-.617-.775-.42 0-.611.382-.611.803 0 .364.208.79.611.79.433 0 .617-.436.617-.819m-1.731-7.363a.28.28 0 0 1-.198-.277c0-.23.126-.345.263-.345q.144.007.272.076l2.157.994a.34.34 0 0 1 0 .624l-2.157.988a.6.6 0 0 1-.272.082c-.137 0-.263-.114-.263-.344a.28.28 0 0 1 .198-.279l1.816-.758zm.443 28.359a.396.396 0 1 1 .787 0v1.812h.225a.334.334 0 0 1 .378.344c0 .252-.175.344-.378.344h-.224v.47a.394.394 0 1 1-.786 0v-.475h-.174a.337.337 0 0 1-.344-.344.32.32 0 0 1 .344-.344h.174z"/></g><path fill="#B5D9F1" d="M55.16 76.959a.27.27 0 0 1-.142-.105.3.3 0 0 1-.05-.174c0-.23.123-.345.255-.345q.142.007.265.076l2.1.998q.09.04.144.126a.35.35 0 0 1-.144.5l-2.1.99a.6.6 0 0 1-.265.083c-.132 0-.255-.115-.255-.345a.3.3 0 0 1 .05-.174.27.27 0 0 1 .142-.106l1.768-.76zm.853-2.743a.38.38 0 0 1-.108.288.36.36 0 0 1-.282.106h-.529a.3.3 0 0 1-.215-.092.32.32 0 0 1 0-.443.3.3 0 0 1 .215-.091h.25v-3.56h-.25a.3.3 0 0 1-.215-.091.32.32 0 0 1 0-.443.3.3 0 0 1 .215-.092h.53a.35.35 0 0 1 .282.106.37.37 0 0 1 .107.289zm-.834-9.746a.4.4 0 0 1 .097-.305.4.4 0 0 1 .285-.131.37.37 0 0 1 .286.13.4.4 0 0 1 .097.307v1.817h.217a.32.32 0 0 1 .263.085.34.34 0 0 1 .105.261c0 .252-.17.345-.368.345h-.217v.471a.4.4 0 0 1-.097.306.4.4 0 0 1-.286.131.37.37 0 0 1-.285-.13.4.4 0 0 1-.097-.307v-.471h-.17a.32.32 0 0 1-.24-.099.34.34 0 0 1-.094-.245.33.33 0 0 1 .088-.254.3.3 0 0 1 .246-.093h.17zm0-17.81a.4.4 0 0 1 .097-.307.4.4 0 0 1 .285-.13.38.38 0 0 1 .286.13.4.4 0 0 1 .097.306v1.818h.217a.32.32 0 0 1 .263.085.33.33 0 0 1 .105.26c0 .253-.17.346-.368.346h-.217v.471a.4.4 0 0 1-.097.307.4.4 0 0 1-.286.13.38.38 0 0 1-.285-.13.4.4 0 0 1-.097-.306v-.477h-.17a.32.32 0 0 1-.24-.099.34.34 0 0 1-.094-.246.33.33 0 0 1 .089-.253.31.31 0 0 1 .245-.093h.17zm1.02 11.55c.45.586 1.274 1.34 1.274 2.103a1.17 1.17 0 0 1-.35.835 1.1 1.1 0 0 1-.83.304 1.23 1.23 0 0 1-.868-.362 1.3 1.3 0 0 1-.38-.882.4.4 0 0 1 .108-.289.37.37 0 0 1 .28-.11c.507 0 .218.887.828.887a.4.4 0 0 0 .275-.128.42.42 0 0 0 .109-.29.93.93 0 0 0-.185-.508c-.405-.603-.883-1.096-1.325-1.638a.47.47 0 0 1-.12-.279c0-.252.18-.362.412-.362H57.2a.33.33 0 0 1 .271.091.35.35 0 0 1 .11.271c0 .252-.18.361-.413.361zM41.315 46.62a.41.41 0 1 1 .818 0v3.107a.356.356 0 0 1-.365.388h-.773a.37.37 0 0 1-.373-.378.355.355 0 0 1 .373-.376h.32zm.833 26.198c1.103 0 1.446 1.119 1.446 2.009s-.343 2.01-1.446 2.01c-1.104 0-1.447-1.12-1.447-2.01s.344-2.009 1.447-2.009m0 .741c-.557 0-.595.88-.595 1.268 0 .416.038 1.266.595 1.266s.595-.852.595-1.266c0-.388-.039-1.268-.595-1.268m-.085-33.955c1.104 0 1.447 1.119 1.447 2.009s-.343 2.009-1.447 2.009c-1.103 0-1.446-1.12-1.446-2.01 0-.888.344-2.008 1.446-2.008m0 .741c-.556 0-.595.88-.595 1.268 0 .416.039 1.265.595 1.265.557 0 .595-.851.595-1.265 0-.388-.038-1.268-.595-1.268m.085 25.915c1.103 0 1.446 1.118 1.446 2.008s-.343 2.01-1.446 2.01c-1.104 0-1.447-1.12-1.447-2.01s.344-2.008 1.447-2.008m0 .742c-.557 0-.595.878-.595 1.266 0 .416.038 1.266.595 1.266s.595-.85.595-1.266c0-.388-.039-1.266-.595-1.266m-.085-33.956c1.104 0 1.447 1.118 1.447 2.008s-.343 2.01-1.447 2.01c-1.103 0-1.446-1.12-1.446-2.01s.344-2.008 1.446-2.008m0 .742c-.556 0-.595.878-.595 1.266 0 .416.039 1.266.595 1.266.557 0 .595-.85.595-1.266 0-.388-.038-1.266-.595-1.266m-.66 26.372a.41.41 0 1 1 .818 0v3.106a.356.356 0 0 1-.365.388h-.774a.366.366 0 0 1-.372-.377.355.355 0 0 1 .372-.377h.32zm-.088-33.214a.41.41 0 1 1 .818 0v3.106a.356.356 0 0 1-.365.388h-.773a.366.366 0 0 1-.373-.377.355.355 0 0 1 .373-.377h.32zm.088 26.656a.41.41 0 1 1 .818 0v3.105a.356.356 0 0 1-.365.387h-.774a.364.364 0 0 1-.372-.376.353.353 0 0 1 .372-.376h.32zm-.088-32.77a.41.41 0 1 1 .818 0v3.105a.356.356 0 0 1-.365.388h-.773a.365.365 0 0 1-.373-.377.354.354 0 0 1 .373-.376h.32zM18.732 62.474a.41.41 0 1 1 .818 0v3.106a.35.35 0 0 1-.218.362.4.4 0 0 1-.147.026h-.773a.37.37 0 0 1-.373-.377.353.353 0 0 1 .373-.377h.32zm.748-7.017c1.104 0 1.447 1.12 1.447 2.01s-.343 2.008-1.446 2.008c-1.104 0-1.447-1.12-1.447-2.009s.344-2.009 1.447-2.009m0 .742c-.556 0-.594.88-.594 1.267 0 .416.038 1.266.595 1.266s.595-.852.595-1.266c0-.388-.039-1.267-.595-1.267M19.48 48.9c1.104 0 1.447 1.118 1.447 2.008s-.343 2.009-1.446 2.009c-1.104 0-1.447-1.119-1.447-2.01s.344-2.007 1.447-2.007m0 .741c-.556 0-.594.88-.594 1.267 0 .416.038 1.265.595 1.265s.595-.85.595-1.265c0-.388-.039-1.267-.595-1.267m-.666 26.373a.41.41 0 1 1 .819 0v3.106a.356.356 0 0 1-.365.387h-.774a.364.364 0 0 1-.372-.376.355.355 0 0 1 .372-.377h.32zM18.732 42.8a.41.41 0 1 1 .818 0v3.105a.353.353 0 0 1-.365.388h-.773a.366.366 0 0 1-.373-.376.353.353 0 0 1 .373-.378h.32zm.084 26.655a.41.41 0 1 1 .819 0v3.105a.356.356 0 0 1-.365.388h-.774a.365.365 0 0 1-.372-.377.353.353 0 0 1 .372-.376h.32zm-.084-33.215a.41.41 0 1 1 .818 0v3.106a.353.353 0 0 1-.365.388h-.773a.365.365 0 0 1-.373-.377.353.353 0 0 1 .373-.376h.32zM3.582 64.963a1.35 1.35 0 0 1 1.37 1.352 1.19 1.19 0 0 1-1.143 1.223.9.9 0 0 1-.344-.065l-.011.01c.18.256.536.605.753.873.063.06.104.139.116.224a.465.465 0 0 1-.388.398.3.3 0 0 1-.165-.037 1.3 1.3 0 0 1-.175-.131 4.4 4.4 0 0 1-1.387-2.496 1.325 1.325 0 0 1 1.374-1.35m0 1.921a.52.52 0 1 0 .004-1.04.52.52 0 0 0-.004 1.04m1.354-5.916a.396.396 0 0 1-.392.436.377.377 0 0 1-.394-.328.87.87 0 0 1-.748.36 1.539 1.539 0 0 1 .027-3.034c.265.003.52.1.721.273v-.961a.395.395 0 1 1 .786 0zM4.15 59.94c0-.382-.185-.818-.618-.818-.407 0-.611.425-.611.791s.208.803.611.803c.404 0 .618-.392.618-.776m-1.913-7.625a.395.395 0 1 1 .786 0v1.37c0 .312.142.54.463.54.284 0 .458-.223.458-.54v-1.37a.395.395 0 1 1 .787 0v1.37a.475.475 0 0 0 .464.54c.283 0 .458-.223.458-.54v-1.37a.395.395 0 1 1 .786 0v1.506a.985.985 0 0 1-1.074 1.059 1.2 1.2 0 0 1-.832-.398 1 1 0 0 1-.813.398.97.97 0 0 1-.728-.327.33.33 0 0 1-.36.295.4.4 0 0 1-.393-.437zm-.123-5.021a1.89 1.89 0 0 1 1.878-2.007c.405 0 1.23.12 1.23.645a.385.385 0 0 1-.363.37c-.222 0-.407-.229-.867-.229a1.07 1.07 0 0 0-1.025 1.206c0 .666.35 1.239 1.025 1.239.46 0 .612-.19.832-.19a.346.346 0 0 1 .34.364c0 .482-.777.612-1.175.612a1.885 1.885 0 0 1-1.875-2.01m.42-7.956a.4.4 0 0 1-.055-.191.427.427 0 0 1 .453-.387c.246 0 .312.11.459.416l1.352 2.75a.9.9 0 0 1 .125.361.396.396 0 0 1-.392.394H2.501a.358.358 0 0 1-.405-.377.364.364 0 0 1 .405-.377h1.397zm.631-6.383 1.748 2.422a.6.6 0 0 1 .121.35.407.407 0 0 1-.458.393H2.577a.376.376 0 0 1-.382-.37.344.344 0 0 1 .382-.35h1.434l-1.756-2.456a.54.54 0 0 1-.11-.312c0-.23.168-.393.459-.393h2.144a.383.383 0 0 1 .392.361.35.35 0 0 1-.392.36zm1.056-4.876c0 .387-.594.567-.982.567a.954.954 0 0 1-1.065-.917c0-.9 1.365-.846 1.365-1.206 0-.148-.07-.224-.312-.224-.371 0-.507.268-.814.268a.37.37 0 0 1-.337-.35c0-.354.654-.605 1.096-.605.677 0 1.119.398 1.119.921 0 .896-1.364.842-1.364 1.208 0 .151.126.218.268.218.256 0 .556-.23.703-.23a.34.34 0 0 1 .323.35m-1.962-8.553a.397.397 0 0 1 .421-.409h1.407a.37.37 0 0 1 .388.377.363.363 0 0 1-.388.376h-1.01v.832h.897a.374.374 0 0 1 .397.376.37.37 0 0 1-.397.378h-.897v.795h.961a.37.37 0 0 1 .388.378.364.364 0 0 1-.388.376H2.686c-.288 0-.424-.202-.424-.475z"/><path fill="#40526D" d="M40.315 63.652c.253.28 1.385-.257 3.145-1.492 1.761-1.236 4.007-3.068 6.244-5.095s4.282-4.081 5.684-5.712 2.048-2.704 1.795-2.984-1.385.257-3.146 1.493c-1.76 1.235-4.006 3.068-6.243 5.094s-4.282 4.082-5.684 5.713c-1.403 1.63-2.049 2.704-1.795 2.983" opacity=".15"/><path fill="#3598DB" d="M36.962 24.425a2.17 2.17 0 0 0-3.062-.15l-.91.823a10.298 10.298 0 0 0-13.442 12.18l-.91.824a2.17 2.17 0 0 0-.151 3.062L37.41 62.05a2.17 2.17 0 0 0 3.062.151l15.262-13.827a2.167 2.167 0 0 0 .15-3.063zm-7.882 4.216-5.622 5.094a1.084 1.084 0 0 1-1.455-1.606l5.622-5.094a1.084 1.084 0 0 1 1.456 1.606"/><path fill="#DAECF8" d="m21.622 39.788 13.655-12.372 17.467 19.278L39.09 59.067z"/><path fill="#fff" d="M31.447 50.632 32.48 29.95l-10.19 9.232a.903.903 0 0 0-.062 1.276z"/><path fill="#6CB4E4" d="M20.724 38.41a1.77 1.77 0 0 0 .545-1.673 8.7 8.7 0 0 1 2.452-8.355 8.7 8.7 0 0 1 8.555-1.618 1.77 1.77 0 0 0 1.72-.377l2.545-2.306a2.16 2.16 0 0 0-2.642.199l-.91.824a10.298 10.298 0 0 0-13.442 12.179l-.91.824a2.164 2.164 0 0 0-.458 2.61z"/><path stroke="#004590" stroke-linejoin="round" stroke-width=".889" d="m21.622 39.788 13.655-12.372 17.467 19.278L39.09 59.067z"/><path stroke="#004590" stroke-linejoin="round" stroke-width=".889" d="M36.962 24.425a2.17 2.17 0 0 0-3.062-.15l-.91.823a10.298 10.298 0 0 0-13.442 12.18l-.91.824a2.17 2.17 0 0 0-.151 3.062L37.41 62.05a2.17 2.17 0 0 0 3.062.151l15.262-13.827a2.167 2.167 0 0 0 .15-3.063zm-7.882 4.216-5.622 5.094a1.084 1.084 0 0 1-1.455-1.606l5.622-5.094a1.084 1.084 0 0 1 1.456 1.606Z"/><path stroke="#40526D" stroke-linecap="round" stroke-linejoin="round" stroke-width=".889" d="m38.606 52.076 7.229-6.55m-4.163 6.7 4.016-3.639"/><path stroke="#004590" stroke-dasharray="44.44 3.11 0.44 2.22" stroke-linejoin="round" stroke-width=".889" d="m24.414 29.948-.728-.804A8.672 8.672 0 1 1 36.538 17.5l13.465 14.86a3.794 3.794 0 0 0 5.622-5.094L42.89 13.209a6.504 6.504 0 0 0-9.186-.453l-6.426 5.822a6.51 6.51 0 0 0-1.8 6.895"/><rect width="12.456" height="12.456" x="27.45" y="42.042" fill="#40526D" rx="2.076" transform="rotate(-42.18 27.45 42.042)"/><g fill="#fff" clip-path="url(#b)"><path d="M37.362 42.248c.377.416.89.633 1.41.645l.513.565-3.494 3.166a.17.17 0 0 1-.116.044.15.15 0 0 1-.11-.05l-.316-.35c-.835-.92-.373-1.754.045-2.48l.127-.23c.011-.021.012-.069-.026-.145a1.03 1.03 0 0 0-.44-.447c-.448-.031-.942-.13-1.616-.874-.736-.811-.487-1.676.087-2.196.573-.52 1.468-.69 2.203.12.675.745.732 1.256.713 1.697.079.194.215.358.391.471.072.045.126.056.143.04l.243-.11.009-.004.091-.039q.066.091.143.177"/><path fill-rule="evenodd" d="m39.449 42.316-.1-.11a1.383 1.383 0 1 1 .684-.62l1.138 1.257a.1.1 0 0 1 .029.083l-.024.488a.11.11 0 0 1-.037.08.11.11 0 0 1-.083.029l-.489-.024a.1.1 0 0 1-.08-.037l-.2-.22-.278-.015a.11.11 0 0 1-.08-.037.11.11 0 0 1-.028-.083l.012-.279-.09-.099-.278-.015a.11.11 0 0 1-.108-.12zm-.558-1.302a.346.346 0 1 0-.464-.513.346.346 0 0 0 .464.513" clip-rule="evenodd"/></g><path fill="#F7DD7B" stroke="#EDBF0E" stroke-linecap="round" stroke-linejoin="round" stroke-width=".889" d="M74.876 34.397a1.84 1.84 0 0 1 1.377-1.377l2.764-.638a.23.23 0 0 0 0-.447l-2.764-.638a1.84 1.84 0 0 1-1.378-1.378l-.637-2.763a.23.23 0 0 0-.449 0l-.637 2.763a1.84 1.84 0 0 1-1.374 1.378l-2.764.638a.23.23 0 0 0 0 .447l2.763.638a1.84 1.84 0 0 1 1.378 1.377l.637 2.764a.23.23 0 0 0 .448 0z"/><defs><clipPath id="b"><path fill="#fff" d="m30.767 41.838 6.154-5.576 5.576 6.154-6.154 5.576z"/></clipPath></defs></svg>