<svg xmlns="http://www.w3.org/2000/svg" width="48" height="48" fill="none"><rect width="47" height="47" x=".5" y=".5" fill="url(#a)" rx="23.5"/><rect width="47" height="47" x=".5" y=".5" stroke="#B5D9F1" rx="23.5"/><path fill="#22618C" d="M31.5 21.5h-.75v-2.75a6.75 6.75 0 0 0-13.5 0v2.75h-.75a2 2 0 0 0-2 2V34a2 2 0 0 0 2 2h15a2 2 0 0 0 2-2V23.5a2 2 0 0 0-2-2m-7.5 9a2 2 0 1 1 0-4 2 2 0 0 1 0 4m4.25-9.5a.5.5 0 0 1-.5.5h-7.5a.5.5 0 0 1-.5-.5v-2.25a4.25 4.25 0 1 1 8.5 0z"/><defs><linearGradient id="a" x1="22.965" x2="-5.513" y1="20.684" y2="14.578" gradientUnits="userSpaceOnUse"><stop stop-color="#fff"/><stop offset="1" stop-color="#EBF5FB"/></linearGradient></defs></svg>