<svg xmlns="http://www.w3.org/2000/svg" width="185" height="180" fill="none"><path fill="#ECF5FB" fill-rule="evenodd" d="M95 180c49.706 0 90-40.294 90-90S144.706 0 95 0 5 40.294 5 90s40.294 90 90 90" clip-rule="evenodd"/><path stroke="#B5D9F1" stroke-width="2.25" d="M53.197 16.721a3.934 3.934 0 1 0 0-7.868 3.934 3.934 0 0 0 0 7.868Zm56.25 78.75a3.934 3.934 0 1 0 0-7.868 3.934 3.934 0 0 0 0 7.868Z" clip-rule="evenodd"/><path stroke="#B5D9F1" stroke-linecap="round" stroke-linejoin="round" stroke-width="2.25" d="M165.206 91.519h6.885v6.885h-6.885zM33.07 58.702l4.868-4.869 4.868 4.869-4.868 4.868z"/><path stroke="#B5D9F1" stroke-linecap="round" stroke-width="2.25" d="m99.666 16.684 5.608 5.608m-.198-5.608-5.607 5.608M66.45 149.875v7.93m3.826-4.104h-7.93"/><path stroke="#264887" stroke-linecap="round" stroke-linejoin="round" stroke-width="2.32" d="M64.275 99.037c0-1.687-.168-3.334-.487-4.926a24.67 24.67 0 0 0-9.99-15.327m-7.233-3.463a24 24 0 0 0-6.654-.93 24.08 24.08 0 0 0-14.876 5.126m-3.061 2.841a24.7 24.7 0 0 0-6.426 16.679c0 1.897.212 3.744.613 5.518m34.774-27.329q-.573-.272-1.162-.515zm7.305 31.477q.232-2.275.233-4.614c0-3.631-.43-7.16-1.243-10.536-1.816-7.453-8.9-13.362-17.34-13.362-7.285 0-13.561 4.402-16.402 10.737m-1.09 3.177a18.7 18.7 0 0 0-.53 4.44c0 1.306.36 2.74.36 5.683 0 2.822-.962 5.286-3.2 6.604m38.112 4.164q.406-1.63.693-3.305z"/><path stroke="#264887" stroke-linecap="round" stroke-linejoin="round" stroke-width="2.32" d="M48.527 121.958a37.3 37.3 0 0 0 3.783-11.936m.364-5.248c0-2.865-.32-5.656-.928-8.337-1.157-5.18-6.029-9.284-11.859-9.284-6.716 0-12.16 5.445-12.16 12.162 0 1.058.135 2.085.39 3.064m0 3.336c0 4.616-2.027 7.875-5.607 10.245"/><path stroke="#264887" stroke-linecap="round" stroke-linejoin="round" stroke-width="2.32" d="M40.765 123.118a31.05 31.05 0 0 0 6.107-18.519c0-1.41-.094-1.638-.276-2.999m-.503-3.946c.17 1.069.122.634.031.215-.606-2.809-3.138-4.915-6.17-4.915-3.484 0-6.308 2.782-6.308 6.215 0 .732.129 1.436.365 2.088.33.938.46 2.193.46 3.478 0 6.06-2.86 11.463-7.321 14.971"/><path stroke="#264887" stroke-linecap="round" stroke-linejoin="round" stroke-width="2.32" d="M34.11 121.958c4.31-4.565 6.961-10.78 6.961-17.63 0-1.915-.207-3.78-.6-5.574"/><path stroke="#D22D27" stroke-linecap="round" stroke-linejoin="round" stroke-width="2.32" d="M1.626 85.992h.507m3.304 0h2.121m3.815 0h56.112m3.24 0h1.508m2.867 0h.776"/><g filter="url(#a)"><path fill="#B5D9F1" stroke="#264887" stroke-linecap="round" stroke-linejoin="round" stroke-width="2.25" d="m109.497 129.99-14.69-7.013a2.09 2.09 0 0 1-1.189-1.883v-1.391l29.454-2.166v3.249z"/><path fill="#fff" stroke="#264887" stroke-linecap="round" stroke-linejoin="round" stroke-width="2.25" d="m108.467 125.664-14.018-6.541a1.044 1.044 0 0 1-.13-1.82l11.536-7.542a2.09 2.09 0 0 1 2.025-.145l13.491 6.296c.742.346.815 1.372.13 1.819l-12.022 7.861a1.04 1.04 0 0 1-1.012.072"/><path fill="#B5D9F1" d="m108.375 122.901-9.686-4.451a.768.768 0 0 1-.094-1.344l7.727-4.943a1.85 1.85 0 0 1 1.769-.123l9.505 4.368a.462.462 0 0 1 .057.809l-8.836 5.653a.46.46 0 0 1-.442.031"/><path fill="#fff" d="M106.404 120.11a305 305 0 0 1-7.554-3.637l1.116-.803c2.76 1.372 4.855 2.354 6.955 3.339a302 302 0 0 1 7.555 3.638l-.544 1.088c-3.047-1.524-5.285-2.573-7.528-3.625"/><path fill="#fff" fill-rule="evenodd" d="m115.938 121.731-14.121-6.833.53-1.095 14.121 6.833zm2.167-1.822-13.665-6.612.53-1.095 13.665 6.612z" clip-rule="evenodd"/><path fill="#B5D9F1" stroke="#264887" stroke-linecap="round" stroke-linejoin="round" stroke-width="2.25" d="m146.215 153.682-39.623-18.366a2.61 2.61 0 0 1-1.512-2.367v-6.293l65.154 7.075v6.829c0 .888-.451 1.715-1.198 2.195l-16.299 10.478a6.79 6.79 0 0 1-6.522.449"/><g filter="url(#b)"><path fill="#fff" d="m168.989 131.493-41.097-19.007a3.66 3.66 0 0 0-3.577.288l-18.04 12.177c-1.684 1.137-1.48 3.678.364 4.531l41.097 19.007a3.65 3.65 0 0 0 3.577-.287l18.04-12.178c1.685-1.137 1.48-3.678-.364-4.531"/></g><path stroke="#264887" stroke-dasharray="96.11 10.98 16.48 10.98" stroke-linecap="round" stroke-linejoin="round" stroke-width="2.25" d="m168.989 131.493-41.097-19.007a3.66 3.66 0 0 0-3.577.288l-18.04 12.177c-1.684 1.137-1.48 3.678.364 4.531l41.097 19.007a3.65 3.65 0 0 0 3.577-.287l18.04-12.178c1.685-1.137 1.48-3.678-.364-4.531"/><ellipse cx="137.81" cy="129.603" fill="#fff" rx="11.202" ry="7.37"/><path fill="#DAECF8" fill-rule="evenodd" d="M127.625 132.306v-.006c0-2.858 4.533-5.175 10.125-5.175s10.125 2.317 10.125 5.175v.006c-1.429 2.221-5.422 3.819-10.125 3.819s-8.696-1.598-10.125-3.819" clip-rule="evenodd"/><path fill="#D32D27" fill-rule="evenodd" d="M127.199 131.909v-.004c0-3.092 4.751-5.598 10.612-5.598s10.612 2.506 10.612 5.598v.007c-.534.856-1.409 1.626-2.537 2.263.989-.76 1.412-1.568 1.412-2.27 0-.922-.728-2.025-2.508-2.964-1.728-.912-4.194-1.509-6.979-1.509s-5.251.597-6.979 1.509c-1.78.939-2.508 2.042-2.508 2.964 0 .701.422 1.508 1.408 2.267-1.126-.637-2-1.407-2.533-2.263" clip-rule="evenodd"/><path stroke="#D32D27" stroke-width="2.25" d="M147.891 129.602c0 1.535-.946 3.068-2.775 4.271-1.818 1.197-4.397 1.973-7.302 1.973s-5.484-.776-7.303-1.973c-1.828-1.203-2.774-2.736-2.774-4.271s.946-3.069 2.774-4.271c1.819-1.197 4.398-1.974 7.303-1.974s5.484.777 7.302 1.974c1.829 1.202 2.775 2.736 2.775 4.271Z"/></g><path stroke="#264887" stroke-linecap="round" stroke-width="2.25" d="M145.625 90c0 7.2-1.503 14.049-4.213 20.25M95 39.375c-20.321 0-37.846 11.973-45.905 29.25m12.155 59.109c8.956 8.017 20.784 12.891 33.75 12.891q2.563-.001 5.062-.25"/><path fill="#fff" d="m150.027 144.487 12.1-8.214.828 1.22-12.1 8.214z"/><circle cx="133.812" cy="51.977" r="23.063" fill="url(#c)"/><path stroke="#264887" stroke-linecap="round" stroke-width="2.25" d="M111.761 40.996v-6.678c0-2.772 2.183-5.02 4.877-5.02h6.333"/><path stroke="#264887" stroke-linecap="round" stroke-width="2.206" d="M126.871 61.046c1.751 1.468 4.145 2.372 6.786 2.372 2.679 0 5.104-.93 6.862-2.437"/><path stroke="#264887" stroke-linecap="round" stroke-width="2.25" d="M156.116 40.996v-6.678c0-2.772-2.184-5.02-4.877-5.02h-6.334m-33.144 32.658v6.678c0 2.772 2.183 5.02 4.877 5.02h6.333m33.145-11.698v6.678c0 2.772-2.184 5.02-4.877 5.02h-6.334"/><mask id="d" fill="#fff"><path fill-rule="evenodd" d="M144.418 45.138a1.218 1.218 0 1 0-2.437 0v3.9a1.219 1.219 0 0 0 2.437 0zM123.7 43.92h.982c.402 0 .727.326.727.728v4.881a.727.727 0 0 1-.727.728h-.982a.73.73 0 0 1-.728-.728v-4.88c0-.403.326-.729.728-.729m11.944.485v8.405a4 4 0 0 1 0 .208v.342q0 .105-.041.196c-.272 2.056-1.835 3.684-3.81 3.967q-.154.045-.319.045c-.659 0-1.192-.556-1.192-1.24 0-.686.533-1.242 1.192-1.242h.016l-.002-.116.072-.013c.894-.198 1.582-1.028 1.655-2.001l.047-.041v-8.51c0-.268.217-.486.485-.486h1.412c.268 0 .485.218.485.486" clip-rule="evenodd"/></mask><path fill="#264887" fill-rule="evenodd" d="M144.418 45.138a1.218 1.218 0 1 0-2.437 0v3.9a1.219 1.219 0 0 0 2.437 0zM123.7 43.92h.982c.402 0 .727.326.727.728v4.881a.727.727 0 0 1-.727.728h-.982a.73.73 0 0 1-.728-.728v-4.88c0-.403.326-.729.728-.729m11.944.485v8.405a4 4 0 0 1 0 .208v.342q0 .105-.041.196c-.272 2.056-1.835 3.684-3.81 3.967q-.154.045-.319.045c-.659 0-1.192-.556-1.192-1.24 0-.686.533-1.242 1.192-1.242h.016l-.002-.116.072-.013c.894-.198 1.582-1.028 1.655-2.001l.047-.041v-8.51c0-.268.217-.486.485-.486h1.412c.268 0 .485.218.485.486" clip-rule="evenodd"/><path fill="#264887" d="M135.644 52.81h-1.002v.021zm0 .208-1.002-.021v.02zm-.041.538-.917-.405-.058.131-.019.142zm-3.81 3.967-.143-.993-.069.01-.067.02zm-.303-2.436-.014 1.002 1.03.015-.014-1.03zm-.002-.117-.179-.987-.834.152.011.848zm.072-.013.179.986.019-.003.019-.004zm1.655-2.001-.664-.75-.305.269-.031.405zm.047-.041.664.75.338-.299v-.451zm9.938-7.993c.119 0 .216.097.216.216h2.005a2.22 2.22 0 0 0-2.221-2.221zm-.216.216c0-.12.097-.216.216-.216v-2.005a2.22 2.22 0 0 0-2.221 2.221zm0 3.9v-3.9h-2.005v3.9zm.216.215a.216.216 0 0 1-.216-.216h-2.005a2.22 2.22 0 0 0 2.221 2.222zm.216-.216c0 .12-.097.216-.216.216v2.006a2.22 2.22 0 0 0 2.221-2.222zm0-3.899v3.9h2.005v-3.9zm-18.734-2.22h-.982v2.005h.982zm1.73 1.73a1.73 1.73 0 0 0-1.73-1.73v2.005a.275.275 0 0 1-.275-.275zm0 4.881v-4.88h-2.005v4.88zm-1.73 1.73a1.73 1.73 0 0 0 1.73-1.73h-2.005c0-.152.123-.275.275-.275zm-.982 0h.982v-2.005h-.982zm-1.73-1.73c0 .956.774 1.73 1.73 1.73v-2.005c.152 0 .275.123.275.275zm0-4.88v4.88h2.005v-4.88zm1.73-1.731a1.73 1.73 0 0 0-1.73 1.73h2.005a.275.275 0 0 1-.275.275zm12.947 9.892v-8.405h-2.005v8.405zm.001.104-.001-.125-2.005.042.001.083zm-.001.125.001-.125h-2.005l-.001.083zm0 .321v-.342h-2.005v.342zm-.126.6c.081-.185.126-.388.126-.6h-2.005q0-.11.044-.21zm-4.586 4.556c2.444-.35 4.334-2.352 4.662-4.829l-1.988-.263c-.216 1.636-1.453 2.89-2.959 3.106zm-.461.055q.309-.001.597-.085l-.557-1.926a.1.1 0 0 1-.04.005zm-2.195-2.244c0 1.2.945 2.244 2.195 2.244v-2.006c-.067 0-.189-.068-.189-.238zm2.195-2.243c-1.25 0-2.195 1.043-2.195 2.243h2.006c0-.17.122-.238.189-.238zm.03 0h-.03v2.005h.002zm-1.018.899.001.117 2.005-.026-.001-.117zm.895-1.013-.072.013.358 1.973.072-.013zm.834-1.09c-.043.57-.446 1.003-.872 1.098l.434 1.958c1.361-.302 2.334-1.529 2.438-2.904zm.382-.716-.046.041 1.329 1.502.046-.041zm-.338-7.76v8.51h2.005v-8.51zm1.488-1.487c-.822 0-1.488.666-1.488 1.488h2.005a.517.517 0 0 1-.517.517zm1.412 0h-1.412v2.005h1.412zm1.488 1.488c0-.822-.666-1.488-1.488-1.488v2.005a.52.52 0 0 1-.517-.517z" mask="url(#d)"/><defs><filter id="a" width="82.51" height="48.265" x="89.118" y="108.295" color-interpolation-filters="sRGB" filterUnits="userSpaceOnUse"><feFlood flood-opacity="0" result="BackgroundImageFix"/><feColorMatrix in="SourceAlpha" result="hardAlpha" values="0 0 0 0 0 0 0 0 0 0 0 0 0 0 0 0 0 0 127 0"/><feOffset dx="-3.375" dy="1.125"/><feComposite in2="hardAlpha" operator="out"/><feColorMatrix values="0 0 0 0 0 0 0 0 0 0 0 0 0 0 0 0 0 0 0.1 0"/><feBlend in2="BackgroundImageFix" result="effect1_dropShadow_5947_34510"/><feBlend in="SourceGraphic" in2="effect1_dropShadow_5947_34510" result="shape"/></filter><filter id="b" width="67.628" height="38.927" x="104" y="111.024" color-interpolation-filters="sRGB" filterUnits="userSpaceOnUse"><feFlood flood-opacity="0" result="BackgroundImageFix"/><feBlend in="SourceGraphic" in2="BackgroundImageFix" result="shape"/><feColorMatrix in="SourceAlpha" result="hardAlpha" values="0 0 0 0 0 0 0 0 0 0 0 0 0 0 0 0 0 0 127 0"/><feOffset dx="-4.5" dy="-1.125"/><feComposite in2="hardAlpha" k2="-1" k3="1" operator="arithmetic"/><feColorMatrix values="0 0 0 0 0.854902 0 0 0 0 0.92549 0 0 0 0 0.972549 0 0 0 1 0"/><feBlend in2="shape" result="effect1_innerShadow_5947_34510"/></filter><radialGradient id="c" cx="0" cy="0" r="1" gradientTransform="rotate(90 40.661 93.151)scale(22.55)" gradientUnits="userSpaceOnUse"><stop stop-color="#fff"/><stop offset=".466" stop-color="#fff" stop-opacity=".68"/><stop offset="1" stop-color="#fff" stop-opacity="0"/></radialGradient></defs></svg>