<svg xmlns="http://www.w3.org/2000/svg" width="36" height="36" fill="none"><g clip-path="url(#a)"><g clip-path="url(#b)"><rect width="36" height="36" y=".2" fill="#FAF4DE" rx="3"/><path fill="#C79F0C" d="M6.5 24a2 2 0 0 0 2 2h19a2 2 0 0 0 2-2v-8.5a.25.25 0 0 0-.25-.25H6.75a.25.25 0 0 0-.25.25zM23 21.75h3a.75.75 0 1 1 0 1.5h-3a.75.75 0 1 1 0-1.5m-12.5-4h8a.75.75 0 1 1 0 1.5h-8a.75.75 0 1 1 0-1.5m0 4h3a.75.75 0 1 1 0 1.5h-3a.75.75 0 1 1 0-1.5m19-9.75a2 2 0 0 0-2-2h-19a2 2 0 0 0-2 2v1.5a.25.25 0 0 0 .25.25h22.5a.25.25 0 0 0 .25-.25z"/></g></g><defs><clipPath id="a"><path fill="#fff" d="M0 0h36v36H0z"/></clipPath><clipPath id="b"><path fill="#fff" d="M0 .2h36v36H0z"/></clipPath></defs></svg>