<svg xmlns="http://www.w3.org/2000/svg" width="16" height="16" fill="none"><path fill="#40526D" d="M.333 12a1.334 1.334 0 0 0 1.334 1.333h12.667a1.333 1.333 0 0 0 1.333-1.334V6.333a.166.166 0 0 0-.167-.167H.5a.167.167 0 0 0-.167.167zm11-1.5h2a.5.5 0 1 1 0 1h-2a.5.5 0 1 1 0-1M3 7.832h5.334a.5.5 0 0 1 0 1H3a.5.5 0 0 1 0-1m0 2.666h2a.5.5 0 0 1 0 1H3a.5.5 0 1 1 0-1M15.667 4a1.333 1.333 0 0 0-1.333-1.334H1.667A1.333 1.333 0 0 0 .333 3.999v1a.167.167 0 0 0 .167.167h15a.166.166 0 0 0 .167-.167z"/></svg>