<svg xmlns="http://www.w3.org/2000/svg" width="12" height="12" fill="none"><g clip-path="url(#a)"><g fill="#40526D" clip-path="url(#b)"><path d="M1.324 8.118a.25.25 0 0 0-.42.122l-.707 3.183a.25.25 0 0 0 .298.298l3.182-.707a.25.25 0 0 0 .122-.42zm7.602-4.595-5.48 5.48a.126.126 0 0 0 0 .177l.884.884a.253.253 0 0 0 .353 0L9.987 4.76a.25.25 0 0 0 0-.353l-.884-.884a.126.126 0 0 0-.177 0m-.53-.709-.884-.883a.25.25 0 0 0-.354 0L1.855 7.234a.25.25 0 0 0 0 .353l.884.884a.126.126 0 0 0 .177 0l5.48-5.48a.126.126 0 0 0 0-.177m2.829-2.12a2 2 0 0 0-2.83 0l-.353.354a.25.25 0 0 0 0 .353l2.475 2.475a.257.257 0 0 0 .354 0l.354-.354a2 2 0 0 0 0-2.828"/></g></g><defs><clipPath id="a"><path fill="#fff" d="M0 0h12v12H0z"/></clipPath><clipPath id="b"><path fill="#fff" d="M0-.082h12v12H0z"/></clipPath></defs></svg>