<svg xmlns="http://www.w3.org/2000/svg" width="88" height="88" fill="none"><g clip-path="url(#a)"><path fill="#E4E5F6" d="M0 44.957C0 56.372 4.636 67.32 12.887 75.393S32.331 88 44 88s22.861-4.535 31.113-12.607S88 56.373 88 44.956c0-11.415-4.636-22.364-12.887-30.436S55.67 1.913 44 1.913 21.139 6.448 12.887 14.52 0 33.54 0 44.956"/><path fill="#D32D27" stroke="#474A86" stroke-linecap="round" stroke-linejoin="round" stroke-width="1.1" d="m29.788 45.124-7.142 3.095 1.147 15.639c.224-.147.394-.36.484-.61l5.55-17.28a1.2 1.2 0 0 0-.04-.844"/><path fill="#DF6661" stroke="#474A86" stroke-linecap="round" stroke-linejoin="round" stroke-width="1.1" d="m22.647 48.22 7.14-3.096v-.008a1.24 1.24 0 0 0-.59-.618l-5.984-2.96a2.6 2.6 0 0 0-1.07-.264l.509 6.947z"/><path fill="#E78C89" stroke="#474A86" stroke-linecap="round" stroke-linejoin="round" stroke-width="1.1" d="M22.136 41.272a2.6 2.6 0 0 0-1.092.21l-6.414 2.779 8.011 3.958z"/><path fill="#EFB2B0" stroke="#474A86" stroke-linecap="round" stroke-linejoin="round" stroke-width=".77" d="m14.636 44.26-2.383 8.465 10.394-4.506z"/><path fill="#E78C89" stroke="#474A86" stroke-linecap="round" stroke-linejoin="round" stroke-width="1.1" d="m12.253 52.725 11.072 11.336q.13-.012.254-.051.112-.065.21-.15l-1.142-15.64z"/><path fill="#D32D27" stroke="#474A86" stroke-linecap="round" stroke-linejoin="round" stroke-width="1.1" d="m5.112 55.821 7.141-3.096 11.073 11.336a1.26 1.26 0 0 1-.788-.059L5.726 56.417a1.25 1.25 0 0 1-.614-.596"/><path fill="#DF6661" stroke="#474A86" stroke-linecap="round" stroke-linejoin="round" stroke-width="1.1" d="m12.253 52.725-7.141 3.096v-.009a1.2 1.2 0 0 1-.071-.843l1.778-6.324a2.5 2.5 0 0 1 .519-.954l4.92 5.036z"/><path fill="#E78C89" stroke="#474A86" stroke-linecap="round" stroke-linejoin="round" stroke-width="1.1" d="M7.333 47.69a2.5 2.5 0 0 1 .894-.65l6.413-2.78-2.383 8.465z"/><path fill="#9699DE" stroke="#474A86" stroke-linecap="round" stroke-linejoin="round" stroke-width="1.1" d="m48.63 48.581 7.14 3.095-1.145 15.639a1.22 1.22 0 0 1-.483-.61l-5.549-17.28a1.2 1.2 0 0 1 .037-.844"/><path fill="#B0B2E6" stroke="#474A86" stroke-linecap="round" stroke-linejoin="round" stroke-width="1.1" d="m55.77 51.675-7.14-3.094v-.008c.116-.267.326-.486.591-.617l5.984-2.96a2.6 2.6 0 0 1 1.071-.266l-.51 6.948z"/><path fill="#CACCEE" stroke="#474A86" stroke-linecap="round" stroke-linejoin="round" stroke-width="1.1" d="M56.279 44.729c.376-.01.75.062 1.093.21l6.414 2.779-8.011 3.957z"/><path fill="#E4E5F6" stroke="#474A86" stroke-linecap="round" stroke-linejoin="round" stroke-width=".77" d="m63.781 47.718 2.384 8.464-10.395-4.507z"/><path fill="#CACCEE" stroke="#474A86" stroke-linecap="round" stroke-linejoin="round" stroke-width="1.1" d="M66.165 56.182 55.092 67.517a1.3 1.3 0 0 1-.253-.05 1.2 1.2 0 0 1-.208-.15l1.145-15.639z"/><path fill="#9699DE" stroke="#474A86" stroke-linecap="round" stroke-linejoin="round" stroke-width="1.1" d="m73.306 59.277-7.14-3.095-11.074 11.335c.262.065.538.045.787-.058l16.813-7.586c.27-.121.488-.333.614-.596"/><path fill="#B0B2E6" stroke="#474A86" stroke-linecap="round" stroke-linejoin="round" stroke-width="1.1" d="m66.165 56.182 7.14 3.095v-.008a1.2 1.2 0 0 0 .07-.843L71.599 52.1a2.45 2.45 0 0 0-.52-.953l-4.918 5.036z"/><path fill="#CACCEE" stroke="#474A86" stroke-linecap="round" stroke-linejoin="round" stroke-width="1.1" d="M71.083 51.146a2.5 2.5 0 0 0-.892-.65l-6.414-2.778 2.384 8.464z"/><path fill="#fff" stroke="#474A86" stroke-linecap="round" stroke-linejoin="round" stroke-width="1.1" d="m16.404 17.1 3.362-1.097q.098-.032.159-.113a.304.304 0 0 0-.16-.476l-2.762-.9a1.3 1.3 0 0 1-.496-.3 1.2 1.2 0 0 1-.306-.485l-.919-2.695a.3.3 0 0 0-.114-.157.32.32 0 0 0-.487.157l-.921 2.703a1.2 1.2 0 0 1-.306.485 1.3 1.3 0 0 1-.496.3l-2.765.901a.3.3 0 0 0-.16.112.3.3 0 0 0 0 .365q.062.081.16.111l2.765.902a1.26 1.26 0 0 1 .802.785l.922 2.705a.3.3 0 0 0 .114.156.32.32 0 0 0 .487-.156zm61.101 11.195 3.362-1.097c.064-.02.12-.06.159-.112a.304.304 0 0 0 0-.364.3.3 0 0 0-.159-.112l-2.763-.901a1.3 1.3 0 0 1-.495-.3 1.2 1.2 0 0 1-.307-.484l-.92-2.703a.3.3 0 0 0-.115-.155.32.32 0 0 0-.487.155l-.92 2.703a1.24 1.24 0 0 1-.307.484 1.3 1.3 0 0 1-.495.3l-2.766.9a.3.3 0 0 0-.159.113.304.304 0 0 0 0 .364q.062.08.159.112l2.766.901a1.25 1.25 0 0 1 .801.784l.922 2.705a.32.32 0 0 0 .601 0zM56.954 9.973c.106-.45.34-.863.674-1.19a2.54 2.54 0 0 1 1.218-.661l3.799-.857a.32.32 0 0 0 .175-.11.305.305 0 0 0 0-.384.32.32 0 0 0-.175-.11l-3.8-.856a2.54 2.54 0 0 1-1.217-.66 2.45 2.45 0 0 1-.674-1.192L56.077.24a.3.3 0 0 0-.111-.173.32.32 0 0 0-.393 0 .3.3 0 0 0-.111.173l-.876 3.713c-.107.452-.34.865-.675 1.192a2.54 2.54 0 0 1-1.218.661l-3.8.856a.32.32 0 0 0-.175.11.306.306 0 0 0 0 .383.32.32 0 0 0 .176.11l3.796.857c.46.104.883.333 1.218.66s.568.74.675 1.191l.876 3.717a.3.3 0 0 0 .11.172.32.32 0 0 0 .394 0 .3.3 0 0 0 .11-.172z"/><path fill="#6F73D2" stroke="#474A86" stroke-linecap="round" stroke-linejoin="round" stroke-width="1.1" d="m66.774 35.283-13.819-1.009-11.597 25.4c.477-.044.926-.24 1.28-.557l23.474-22.48c.377-.36.611-.84.662-1.354"/><path fill="#7C7FD6" stroke="#474A86" stroke-linecap="round" stroke-linejoin="round" stroke-width="1.1" d="m52.955 34.274 13.82 1.009v-.019a2.15 2.15 0 0 0-.401-1.45l-6.825-9.532a4.5 4.5 0 0 0-1.442-1.288l-5.152 11.284z"/><path fill="#9699DE" stroke="#474A86" stroke-linecap="round" stroke-linejoin="round" stroke-width="1.1" d="M58.107 22.994a4.55 4.55 0 0 0-1.89-.565l-12.402-.905 9.14 12.754z"/><path fill="#B0B2E6" stroke="#474A86" stroke-linecap="round" stroke-linejoin="round" stroke-width=".77" d="M43.815 21.52 32.84 32.806l20.115 1.468z"/><path fill="#9699DE" stroke="#474A86" stroke-linecap="round" stroke-linejoin="round" stroke-width="1.1" d="m32.84 32.806 7.616 26.802q.214.087.44.128h.011q.232-.01.454-.062l11.597-25.4z"/><path fill="#6F73D2" stroke="#474A86" stroke-linecap="round" stroke-linejoin="round" stroke-width="1.1" d="m19.021 31.797 13.82 1.009 7.616 26.802a2.2 2.2 0 0 1-1.184-.733L19.471 33.232a2.15 2.15 0 0 1-.45-1.435"/><path fill="#7C7FD6" stroke="#474A86" stroke-linecap="round" stroke-linejoin="round" stroke-width="1.1" d="m32.84 32.806-13.819-1.01v-.019c.033-.513.25-1 .611-1.372l8.197-8.431a4.5 4.5 0 0 1 1.627-1.067l3.383 11.907z"/><path fill="#9699DE" stroke="#474A86" stroke-linecap="round" stroke-linejoin="round" stroke-width="1.1" d="M29.457 20.9a4.6 4.6 0 0 1 1.954-.286l12.404.91L32.84 32.806z"/><path stroke="#474A86" stroke-dasharray="49.5 3.85 0.55 2.75" stroke-linecap="round" stroke-width="1.1" d="M28.743 71.621h23.665"/></g><defs><clipPath id="a"><path fill="#fff" d="M0 0h88v88H0z"/></clipPath></defs></svg>