<svg xmlns="http://www.w3.org/2000/svg" width="125" height="125" fill="none"><path fill="#E4E5F6" fill-rule="evenodd" d="M62.5 125c34.518 0 62.5-27.982 62.5-62.5S97.018 0 62.5 0 0 27.982 0 62.5 27.982 125 62.5 125" clip-rule="evenodd"/><path stroke="#9699DE" stroke-dasharray="1 6 164 5" stroke-linecap="round" stroke-width="2" d="M37.5 100h49.306"/><path stroke="#9699DE" stroke-width="2" d="M13.889 45.139a2.083 2.083 0 1 0 0-4.167 2.083 2.083 0 0 0 0 4.167Z" clip-rule="evenodd"/><path stroke="#9699DE" stroke-linecap="round" stroke-linejoin="round" stroke-width="2" d="m26.915 22.917 2.947-2.947 2.946 2.947-2.946 2.946z"/><path stroke="#9699DE" stroke-linecap="round" stroke-width="1.6" d="m105.003 37.642 3.245 3.245m-.114-3.245-3.245 3.245"/><g fill="#fff" stroke="#1C315F" stroke-linecap="round" stroke-linejoin="round" stroke-width="2" filter="url(#a)"><path d="M99.993 50.915H77.886L62.52 93.59a3.5 3.5 0 0 0 1.965-1.06l34.617-39.338c.556-.63.872-1.437.891-2.278m-22.107 0h22.107v-.034a3.56 3.56 0 0 0-.806-2.31L87.171 33.88a7.1 7.1 0 0 0-2.46-1.93l-6.837 18.964z"/><path d="M84.71 31.945a7.15 7.15 0 0 0-3.073-.695h-19.84l16.089 19.652z"/><path d="m61.798 31.25-16.09 19.658h32.179zm-16.09 19.665 15.363 42.682q.35.115.718.154h.017q.366-.04.715-.154l15.366-42.682z"/><path d="M23.612 50.915h22.107l15.363 42.682a3.5 3.5 0 0 1-1.965-1.06L24.489 53.193a3.56 3.56 0 0 1-.877-2.278m22.096-.002H23.612v-.035c-.015-.84.27-1.66.803-2.31l12.013-14.696a7.1 7.1 0 0 1 2.461-1.928l6.836 18.963z"/><path d="M38.88 31.944a7.2 7.2 0 0 1 3.073-.683h19.844l-16.09 19.652z"/></g><path stroke="#1C315F" stroke-linecap="round" stroke-linejoin="round" stroke-width="2" d="M99.993 50.915H77.886L62.52 93.59a3.5 3.5 0 0 0 1.965-1.06l34.617-39.338c.556-.63.872-1.437.891-2.278m-22.107 0h22.107v-.034a3.56 3.56 0 0 0-.806-2.31L87.171 33.88a7.1 7.1 0 0 0-2.46-1.93l-6.837 18.964z"/><path stroke="#1C315F" stroke-linecap="round" stroke-linejoin="round" stroke-width="2" d="M84.71 31.945a7.15 7.15 0 0 0-3.073-.695h-19.84l16.089 19.652z"/><path stroke="#1C315F" stroke-linecap="round" stroke-linejoin="round" stroke-width="2" d="m61.798 31.25-16.09 19.658h32.179zm-16.09 19.665 15.363 42.682q.35.115.718.154h.017q.366-.04.715-.154l15.366-42.682z"/><path stroke="#1C315F" stroke-dasharray="110 7 1 5" stroke-linecap="round" stroke-linejoin="round" stroke-width="2" d="M23.612 50.915h22.107l15.363 42.682a3.5 3.5 0 0 1-1.965-1.06L24.489 53.193a3.56 3.56 0 0 1-.877-2.278"/><path stroke="#1C315F" stroke-linecap="round" stroke-linejoin="round" stroke-width="2" d="M45.708 50.913H23.612v-.035c-.015-.84.27-1.66.803-2.31l12.013-14.696a7.1 7.1 0 0 1 2.461-1.928l6.836 18.963z"/><path stroke="#1C315F" stroke-linecap="round" stroke-linejoin="round" stroke-width="2" d="M38.88 31.944a7.2 7.2 0 0 1 3.073-.683h19.844l-16.09 19.652z"/><defs><filter id="a" width="78.383" height="64.501" x="22.611" y="30.25" color-interpolation-filters="sRGB" filterUnits="userSpaceOnUse"><feFlood flood-opacity="0" result="BackgroundImageFix"/><feBlend in="SourceGraphic" in2="BackgroundImageFix" result="shape"/><feColorMatrix in="SourceAlpha" result="hardAlpha" values="0 0 0 0 0 0 0 0 0 0 0 0 0 0 0 0 0 0 127 0"/><feOffset dx="8" dy="4"/><feComposite in2="hardAlpha" k2="-1" k3="1" operator="arithmetic"/><feColorMatrix values="0 0 0 0 0.792157 0 0 0 0 0.8 0 0 0 0 0.933333 0 0 0 1 0"/><feBlend in2="shape" result="effect1_innerShadow"/></filter></defs></svg>