<svg xmlns="http://www.w3.org/2000/svg" width="92" height="96" fill="none"><g filter="url(#a)"><path fill="#fff" fill-rule="evenodd" d="M1 5a4 4 0 0 1 4-4h82a4 4 0 0 1 4 4v82.363a4 4 0 0 1-4 4h-4.057a5.819 5.819 0 0 1-10.79 0H21.732a5.819 5.819 0 0 1-10.79 0H5a4 4 0 0 1-4-4z" clip-rule="evenodd"/></g><path fill="#264887" d="M82.943 91.363v-1h-.674l-.253.625zm-10.79 0 .928-.375-.253-.625h-.675zm-50.421 0v-1h-.674l-.253.625zm-10.79 0 .927-.375-.253-.625h-.674zM1.658 1.28a1 1 0 1 0 1.337 1.487zM2.87 2.887A1 1 0 0 0 1.45 1.48zM1.421 1.508a1 1 0 1 0 1.432 1.397zm1.347 1.487a1 1 0 0 0-1.487-1.337zM0 43.378a1 1 0 1 0 2 0zm2 3.019a1 1 0 1 0-2 0zm-2 .431a1 1 0 1 0 2 0zm2 2.156a1 1 0 1 0-2 0zm-.72 41.72a1 1 0 1 0 1.488-1.337zm1.607-1.211a1 1 0 0 0-1.408 1.42zM1.508 90.94a1 1 0 1 0 1.397-1.431zm1.487-1.347a1 1 0 0 0-1.337 1.488zm4.774 2.769a1 1 0 1 0 0-2zm.218-2a1 1 0 1 0 0 2zm.03 2a1 1 0 1 0 0-2zm.156-2a1 1 0 1 0 0 2zm4.126 4.313a1 1 0 0 0 1.186-1.61zm1.357-1.49a1 1 0 1 0-1.115 1.66zm-1.08 1.684a1 1 0 0 0 1.105-1.668zm1.231-1.587a1 1 0 0 0-1.052 1.701zm6.112 1.701a1 1 0 0 0-1.052-1.7zm-.876-1.815a1 1 0 1 0 1.125 1.654zm1.16 1.63a1 1 0 1 0-1.136-1.647zm-1.014-1.734a1 1 0 0 0 1.186 1.61zm26.038-.702a1 1 0 1 0 0-2zm1.848-2a1 1 0 1 0 0 2zm.264 2a1 1 0 1 0 0-2zm1.32-2a1 1 0 0 0 0 2zm24.851 4.313a1 1 0 0 0 1.186-1.61zm1.358-1.49a1 1 0 1 0-1.115 1.66zm-1.08 1.684a1 1 0 0 0 1.105-1.668zm1.23-1.587a1 1 0 0 0-1.052 1.701zm6.112 1.701a1 1 0 1 0-1.052-1.7zm-.876-1.815a1 1 0 0 0 1.125 1.654zm1.16 1.63a1 1 0 1 0-1.136-1.647zM80.4 93.065a1 1 0 1 0 1.186 1.61zm4.433-.702a1 1 0 1 0 0-2zm.15-2a1 1 0 1 0 0 2zm.02 2a1 1 0 1 0 0-2zm.107-2a1 1 0 1 0 0 2zm5.232.719a1 1 0 1 0-1.337-1.487zm-1.212-1.607a1 1 0 0 0 1.42 1.409zm1.449 1.38a1 1 0 1 0-1.432-1.398zm-1.347-1.488a1 1 0 0 0 1.487 1.337zM92 48.984a1 1 0 1 0-2 0zm-2-3.018a1 1 0 1 0 2 0zm2-.431a1 1 0 1 0-2 0zm-2-2.157a1 1 0 1 0 2 0zm.72-41.72a1 1 0 1 0-1.488 1.337zM89.112 2.87a1 1 0 0 0 1.408-1.42zm1.379-1.449a1 1 0 0 0-1.397 1.432zm-1.487 1.347a1 1 0 1 0 1.337-1.487zM48.79 0a1 1 0 1 0 0 2zm-3.006 2a1 1 0 1 0 0-2zm-.429-2a1 1 0 1 0 0 2zm-2.147 2a1 1 0 1 0 0-2zM5 0a5 5 0 0 0-3.342 1.28l1.337 1.488A3 3 0 0 1 5 2zM1.45 1.479l-.029.03 1.432 1.396.017-.018zm-.17.18A5 5 0 0 0 0 5h2c0-.771.29-1.473.768-2.005zM0 5v38.378h2V5zm0 41.397v.431h2v-.431zm0 2.587v38.379h2V48.984zm0 38.379c0 1.284.485 2.457 1.28 3.341l1.488-1.337A3 3 0 0 1 2 87.363zm1.479 3.55.03.028 1.396-1.431-.018-.017zm.18.169A5 5 0 0 0 5 92.362v-2c-.771 0-1.473-.29-2.005-.767zM5 92.362h2.769v-2H5zm2.987 0h.03v-2h-.03zm.186 0h2.77v-2h-2.77zm1.842-.624a6.84 6.84 0 0 0 2.284 2.938l1.186-1.61a4.84 4.84 0 0 1-1.616-2.078zm2.526 3.108.036.024 1.104-1.668-.025-.016zm.214.138A6.8 6.8 0 0 0 16.337 96v-2a4.8 4.8 0 0 1-2.53-.717zM16.337 96a6.8 6.8 0 0 0 3.582-1.016l-1.052-1.7a4.8 4.8 0 0 1-2.53.716zm3.83-1.177.035-.024-1.135-1.647-.024.017zm.208-.147a6.84 6.84 0 0 0 2.284-2.939l-1.854-.75a4.84 4.84 0 0 1-1.616 2.078zm1.357-2.313h23.495v-2H21.732zm25.343 0h.264v-2h-.264zm1.583 0h23.495v-2H48.658zm22.568-.626a6.84 6.84 0 0 0 2.284 2.939l1.186-1.61a4.84 4.84 0 0 1-1.615-2.078zm2.527 3.11.035.023 1.105-1.668-.025-.016zm.213.137A6.8 6.8 0 0 0 77.548 96v-2a4.8 4.8 0 0 1-2.53-.717zM77.548 96a6.8 6.8 0 0 0 3.582-1.016l-1.052-1.7a4.8 4.8 0 0 1-2.53.716zm3.83-1.177.036-.024-1.136-1.647-.024.017zm.208-.147a6.84 6.84 0 0 0 2.284-2.939l-1.854-.75a4.84 4.84 0 0 1-1.616 2.078zm1.357-2.313h1.89v-2h-1.89zm2.04 0h.02v-2h-.02zm.127 0H87v-2h-1.89zm1.89 0a5 5 0 0 0 3.342-1.281l-1.337-1.487a3 3 0 0 1-2.005.768zm3.55-1.48.029-.029-1.432-1.397-.017.018zm.17-.179A5 5 0 0 0 92 87.363h-2c0 .771-.29 1.472-.768 2.004zM92 87.363V48.984h-2v38.379zm0-41.397v-.431h-2v.43zm0-2.588V5h-2v38.378zM92 5a5 5 0 0 0-1.28-3.342l-1.488 1.337A3 3 0 0 1 90 5zm-1.479-3.55-.03-.029-1.396 1.432.018.017zm-.18-.17A5 5 0 0 0 87 0v2c.771 0 1.473.29 2.005.768zM87 0H48.79v2H87zM45.785 0h-.429v2h.43zM43.21 0H5v2h38.21z"/><g filter="url(#b)"><path fill="#fff" fill-rule="evenodd" d="M10.841 12a2 2 0 0 1 2-2h67.533a2 2 0 0 1 2 2v67.482a2 2 0 0 1-2 2H12.841a2 2 0 0 1-2-2z" clip-rule="evenodd"/></g><path stroke="#264887" stroke-linecap="round" stroke-linejoin="round" stroke-width="2" d="M10.841 12a2 2 0 0 1 2-2h67.533a2 2 0 0 1 2 2v67.482a2 2 0 0 1-2 2H12.841a2 2 0 0 1-2-2z" clip-rule="evenodd"/><g filter="url(#c)"><path fill="#fff" fill-rule="evenodd" d="M7 22.61a3.974 3.974 0 0 1 7.948 0v8.82a3.974 3.974 0 1 1-7.948 0z" clip-rule="evenodd"/></g><path stroke="#264887" stroke-linecap="round" stroke-linejoin="round" stroke-width="2" d="M7 22.61a3.974 3.974 0 0 1 7.948 0v8.82a3.974 3.974 0 1 1-7.948 0z" clip-rule="evenodd"/><g filter="url(#d)"><path fill="#fff" fill-rule="evenodd" d="M7 63.875a3.974 3.974 0 0 1 7.948 0v8.82a3.974 3.974 0 1 1-7.948 0z" clip-rule="evenodd"/></g><path stroke="#264887" stroke-linecap="round" stroke-linejoin="round" stroke-width="2" d="M7 63.875a3.974 3.974 0 0 1 7.948 0v8.82a3.974 3.974 0 1 1-7.948 0z" clip-rule="evenodd"/><path fill="#fff" fill-rule="evenodd" d="M47 70c13.255 0 24-10.745 24-24S60.255 22 47 22 23 32.745 23 46s10.745 24 24 24m0-5.333c3.3 0 6.401-.857 9.092-2.36 1.069-.597 1.176-2.04.31-2.905l-7.765-7.765a2 2 0 0 0-2.828 0l-7.923 7.923c-.876.875-.755 2.336.338 2.92A18.6 18.6 0 0 0 47 64.666m-16.323-9.604c.596 1.071 2.04 1.18 2.907.313l7.982-7.981a2 2 0 0 0 0-2.829l-7.968-7.968c-.866-.866-2.307-.759-2.905.31A18.6 18.6 0 0 0 28.333 46c0 3.29.851 6.38 2.344 9.063m17.96-14.739a2 2 0 0 1-2.827 0l-7.898-7.898c-.877-.876-.754-2.339.34-2.92A18.6 18.6 0 0 1 47 27.333c3.29 0 6.382.852 9.066 2.346 1.07.596 1.18 2.04.312 2.906zm4.244 7.071a2 2 0 0 1 0-2.828l7.68-7.68c.876-.875 2.337-.753 2.92.34A18.6 18.6 0 0 1 65.667 46c0 3.16-.786 6.138-2.172 8.747-.582 1.095-2.045 1.218-2.921.342z" clip-rule="evenodd"/><path fill="#264887" d="m63.495 54.747-.884-.469zm-2.934-17.86.707.708zm2.92.34.882-.471zm-25.57-4.8-.706.706zm.342-2.921-.47-.883zm10.385 10.818.707.708zm-17.96 14.74-.875.486zm7.208 4.496.706.707zm.338 2.92-.471.881zM52.88 44.566l-.707-.707zm-4.244 7.07-.707.708zm-2.828 0 .707.707zm-4.243-4.242.707.707zm14.5-17.716.486-.874zm.312 2.906-.707-.707zm.024 26.817-.707.707zM70 46c0 12.703-10.297 23-23 23v2c13.807 0 25-11.193 25-25zM47 23c12.703 0 23 10.298 23 23h2c0-13.807-11.193-25-25-25zM24 46c0-12.702 10.298-23 23-23v-2c-13.807 0-25 11.193-25 25zm23 23c-12.702 0-23-10.297-23-23h-2c0 13.807 11.193 25 25 25zm8.604-7.566A17.6 17.6 0 0 1 47 63.667v2c3.476 0 6.744-.903 9.58-2.487zm-7.674-9.09 7.765 7.765 1.414-1.414-7.764-7.765zm-2.828-1.414-7.924 7.922 1.415 1.415 7.923-7.923zM47 63.667c-3.004 0-5.83-.75-8.305-2.07l-.942 1.764A19.6 19.6 0 0 0 47 65.667zm-12.71-7.584 7.983-7.98-1.414-1.415-7.982 7.98zm-1.399-18.777 7.968 7.968 1.414-1.415-7.968-7.968zM29.333 46c0-3.125.811-6.059 2.233-8.604l-1.746-.975A19.6 19.6 0 0 0 27.333 46zm2.218 8.577A17.6 17.6 0 0 1 29.333 46h-2c0 3.464.897 6.72 2.47 9.55zm14.966-14.96-7.898-7.898-1.414 1.414 7.898 7.898zm-7.795-9.228A17.6 17.6 0 0 1 47 28.333v-2c-3.328 0-6.466.828-9.217 2.29zM47 28.333c3.116 0 6.04.806 8.58 2.22l.972-1.748A19.6 19.6 0 0 0 47 26.333zm2.345 12.699 7.74-7.74-1.414-1.414-7.74 7.74zm10.509-4.851-7.68 7.679 1.414 1.414 7.68-7.679zm2.744 1.516A17.6 17.6 0 0 1 64.667 46h2c0-3.34-.834-6.487-2.304-9.244zM64.667 46c0 2.993-.744 5.81-2.056 8.278l1.767.939A19.6 19.6 0 0 0 66.667 46zm-3.386 8.381-7.693-7.693-1.414 1.414 7.693 7.694zm1.33-.103c-.221.418-.86.574-1.33.103l-1.414 1.415c1.282 1.282 3.569 1.193 4.51-.58zm-1.343-16.683c.47-.47 1.108-.314 1.33.102l1.765-.941c-.944-1.769-3.227-1.857-4.509-.575zm-22.65-5.876c-.47-.47-.314-1.109.104-1.33l-.939-1.766c-1.772.941-1.861 3.228-.578 4.51zm6.484 9.312a3 3 0 0 0 4.243 0l-1.414-1.414a1 1 0 0 1-1.414 0zm-10.796-5.14c-1.268-1.268-3.52-1.199-4.486.53l1.746.975c.229-.41.861-.554 1.325-.09zm-1.43 18.778c-.464.464-1.096.318-1.325-.092l-1.747.973c.963 1.732 3.218 1.802 4.487.533zm4.302 4.184c-1.281 1.28-1.194 3.565.575 4.508l.942-1.764c-.417-.223-.572-.86-.102-1.33zM52.174 43.86a3 3 0 0 0 0 4.243l1.414-1.415a1 1 0 0 1 0-1.414zm-2.83 7.07a3 3 0 0 0-4.242 0l1.414 1.414a1 1 0 0 1 1.414 0zm-7.07-2.828a3 3 0 0 0 0-4.243l-1.415 1.414a1 1 0 0 1 0 1.415zm13.305-17.55c.41.23.557.862.092 1.326l1.414 1.415c1.27-1.27 1.199-3.524-.533-4.488zm1 32.628c1.729-.966 1.798-3.217.53-4.485l-1.414 1.414c.464.464.319 1.096-.091 1.325z"/><circle cx="47" cy="46" r="8" fill="#B5D9F1" stroke="#264887" stroke-dasharray="92 7 1 4" stroke-linecap="round" stroke-width="2"/><defs><filter id="a" width="92" height="96" x="0" y="0" color-interpolation-filters="sRGB" filterUnits="userSpaceOnUse"><feFlood flood-opacity="0" result="BackgroundImageFix"/><feBlend in="SourceGraphic" in2="BackgroundImageFix" result="shape"/><feColorMatrix in="SourceAlpha" result="hardAlpha" values="0 0 0 0 0 0 0 0 0 0 0 0 0 0 0 0 0 0 127 0"/><feOffset dy="-4"/><feComposite in2="hardAlpha" k2="-1" k3="1" operator="arithmetic"/><feColorMatrix values="0 0 0 0 0.760784 0 0 0 0 0.878431 0 0 0 0 0.956863 0 0 0 1 0"/><feBlend in2="shape" result="effect1_innerShadow"/></filter><filter id="b" width="73.533" height="73.481" x="9.841" y="9" color-interpolation-filters="sRGB" filterUnits="userSpaceOnUse"><feFlood flood-opacity="0" result="BackgroundImageFix"/><feBlend in="SourceGraphic" in2="BackgroundImageFix" result="shape"/><feColorMatrix in="SourceAlpha" result="hardAlpha" values="0 0 0 0 0 0 0 0 0 0 0 0 0 0 0 0 0 0 127 0"/><feOffset dx="6" dy="-6"/><feComposite in2="hardAlpha" k2="-1" k3="1" operator="arithmetic"/><feColorMatrix values="0 0 0 0 0.709804 0 0 0 0 0.85098 0 0 0 0 0.945098 0 0 0 1 0"/><feBlend in2="shape" result="effect1_innerShadow"/></filter><filter id="c" width="9.948" height="18.767" x="6" y="17.637" color-interpolation-filters="sRGB" filterUnits="userSpaceOnUse"><feFlood flood-opacity="0" result="BackgroundImageFix"/><feBlend in="SourceGraphic" in2="BackgroundImageFix" result="shape"/><feColorMatrix in="SourceAlpha" result="hardAlpha" values="0 0 0 0 0 0 0 0 0 0 0 0 0 0 0 0 0 0 127 0"/><feOffset dx="3" dy="-4"/><feComposite in2="hardAlpha" k2="-1" k3="1" operator="arithmetic"/><feColorMatrix values="0 0 0 0 0.709804 0 0 0 0 0.85098 0 0 0 0 0.945098 0 0 0 1 0"/><feBlend in2="shape" result="effect1_innerShadow"/></filter><filter id="d" width="9.948" height="18.767" x="6" y="58.901" color-interpolation-filters="sRGB" filterUnits="userSpaceOnUse"><feFlood flood-opacity="0" result="BackgroundImageFix"/><feBlend in="SourceGraphic" in2="BackgroundImageFix" result="shape"/><feColorMatrix in="SourceAlpha" result="hardAlpha" values="0 0 0 0 0 0 0 0 0 0 0 0 0 0 0 0 0 0 127 0"/><feOffset dx="3" dy="-4"/><feComposite in2="hardAlpha" k2="-1" k3="1" operator="arithmetic"/><feColorMatrix values="0 0 0 0 0.709804 0 0 0 0 0.85098 0 0 0 0 0.945098 0 0 0 1 0"/><feBlend in2="shape" result="effect1_innerShadow"/></filter></defs></svg>