<svg xmlns="http://www.w3.org/2000/svg" width="125" height="125" fill="none"><path fill="#EBF5FB" d="M62.5 125c34.518 0 62.5-27.982 62.5-62.5S97.018 0 62.5 0 0 27.982 0 62.5 27.982 125 62.5 125"/><path fill="#fff" stroke="#004590" stroke-dasharray="100 7 1 5" stroke-linecap="round" stroke-linejoin="round" stroke-width="2" d="M64 113c24.853 0 45-20.147 45-45S88.853 23 64 23 19 43.147 19 68s20.147 45 45 45"/><path fill="#fff" d="M64 105.501c20.71 0 37.5-16.79 37.5-37.5C101.5 47.288 84.71 30.5 64 30.5S26.5 47.29 26.5 68s16.789 37.501 37.5 37.501"/><path fill="#EBF5FB" d="M64 41.749a37.475 37.475 0 0 1 37.033 31.876 37.5 37.5 0 0 0-8.51-30.238 37.5 37.5 0 0 0-65.558 30.238A37.474 37.474 0 0 1 64 41.749"/><path stroke="#004590" stroke-linecap="round" stroke-linejoin="round" stroke-width="2" d="M64 105.501c20.71 0 37.5-16.79 37.5-37.5C101.5 47.288 84.71 30.5 64 30.5S26.5 47.29 26.5 68s16.789 37.501 37.5 37.501"/><path stroke="#004590" stroke-linecap="round" stroke-linejoin="round" stroke-width="2" d="M64 105.501c20.71 0 37.5-16.79 37.5-37.5C101.5 47.288 84.71 30.5 64 30.5S26.5 47.29 26.5 68s16.789 37.501 37.5 37.501m32.5-37.499h-5m-4.52 22.982-3.536-3.535M64 100.501V95.5m-22.982-4.516 3.536-3.535M31.499 68.002h4.999m4.52-22.982 3.536 3.534M86.98 45.02l-3.536 3.534"/><path fill="#D32D27" stroke="#004590" stroke-linecap="round" stroke-linejoin="round" stroke-width="2" d="M67.46 67.308h-6.922V41.685a3.461 3.461 0 1 1 6.921 0z"/><path fill="#fff" stroke="#004590" stroke-linecap="round" stroke-linejoin="round" stroke-width="2" d="m61.923 70.727 3.926-3.918 12.384 12.386a2.77 2.77 0 0 1-3.916 3.916z"/><path fill="#fff" stroke="#004590" stroke-linecap="round" stroke-linejoin="round" stroke-width="2" d="M64 72.154a4.154 4.154 0 1 0 0-8.308 4.154 4.154 0 0 0 0 8.308"/><path fill="#F0C936" d="M116.3 23.668H85.699A2.7 2.7 0 0 0 83 26.366v24.978a2.7 2.7 0 0 0 2.699 2.7H116.3a2.7 2.7 0 0 0 2.699-2.7V26.366a2.7 2.7 0 0 0-2.699-2.698"/><path fill="#FAE8A7" d="M119 26.643a2.96 2.96 0 0 0-.867-2.103 2.96 2.96 0 0 0-2.101-.872H85.975a2.975 2.975 0 0 0-2.968 2.975v6.74a3.86 3.86 0 0 1 3.86-3.86h28.273a3.86 3.86 0 0 1 3.86 3.86z"/><path stroke="#004590" stroke-linecap="round" stroke-linejoin="round" stroke-width="2" d="M116.3 23.668H85.699A2.7 2.7 0 0 0 83 26.366v24.978a2.7 2.7 0 0 0 2.699 2.7H116.3a2.7 2.7 0 0 0 2.699-2.7V26.366a2.7 2.7 0 0 0-2.699-2.698"/><path fill="#004590" stroke="#004590" stroke-linecap="round" stroke-linejoin="round" stroke-width="2" d="M101.001 42.63a3.772 3.772 0 1 0 0-7.546 3.772 3.772 0 0 0 0 7.545"/><path fill="#B5D9F1" stroke="#004590" stroke-linecap="round" stroke-linejoin="round" stroke-width="2" d="M108.071 23.67v-6.304a7.06 7.06 0 0 0-2.036-5.063 7.075 7.075 0 0 0-10.07 0 7.07 7.07 0 0 0-2.036 5.063v6.304h-6.432v-6.304a13.5 13.5 0 0 1 27.001 0v6.304z"/><path stroke="#C2E0F4" stroke-linecap="round" stroke-linejoin="round" stroke-width="2" d="M91 115h4.167v4.167H91zM28.836 16.941l2.946-2.946 2.947 2.946-2.947 2.947zM3 31.719h4.167v4.167H3z"/><path stroke="#C2E0F4" stroke-linecap="round" stroke-width="2" d="m119.174 62.174 3.959 3.959m-.14-3.959-3.959 3.959"/></svg>