<svg xmlns="http://www.w3.org/2000/svg" fill="none" viewBox="0 0 352 52"><path fill="#D71340" d="m172.355 48.596-.767-4.548c0-.307-.153-.562-.306-.664s-.46-.154-.92 0c-.307 0-.766.102-1.226.153-.511.051-.971.153-1.482.153s-.971.102-1.431.102h-1.124c-1.482 0-2.555-.306-3.271-.868s-1.073-1.635-1.073-3.117V20.644h7.103c.511 0 .818-.102.971-.306q.153-.307.153-.92v-3.884c0-.306-.051-.613-.153-.817-.102-.205-.46-.307-.971-.307h-7.103V5.365c0-.51-.102-.868-.357-1.022-.256-.153-.563-.204-.92-.102l-5.059 1.431c-.511.204-.869.358-1.073.562-.205.205-.664.358-.664 1.278v6.898h-3.475c-.562 0-.767.153-.92.307-.102.102-1.789 4.445-1.891 4.803s0 .562.205.767c.204.204.46.357.919.357h5.213l-.205 20.236c0 3.423.818 5.978 2.402 7.614 1.584 1.686 4.343 2.504 8.176 2.504 3.832 0 2.146 0 3.73-.154a20 20 0 0 0 4.804-.92c.408-.204.664-.408.664-.613v-.766zM98.925 12.06c-2.096 0-4.293.153-6.643.46a31 31 0 0 0-6.49 1.584c-.613.255-.818.715-.613 1.481l.97 4.037c.103.41.256.665.512.767.255.102.613.05 1.124-.051 1.175-.358 2.708-.716 4.599-1.022a32 32 0 0 1 5.212-.41c1.584 0 2.708.154 3.679.46.92.307 1.686.767 2.249 1.33a3.83 3.83 0 0 1 1.073 1.992c.204.767.306 1.584.306 2.504v1.227h-7.92c-2.81 0-5.212.357-7.154 1.073-1.942.715-3.526 1.635-4.752 2.81-1.227 1.175-2.096 2.504-2.658 4.037s-.817 3.168-.817 4.804c0 1.635.255 3.168.715 4.598.46 1.431 1.329 2.709 2.504 3.782s2.81 1.942 4.855 2.555c2.043.664 4.65.97 7.715.97 3.067 0 2.3 0 3.578-.102 1.226-.05 2.503-.204 3.781-.408a44 44 0 0 0 3.73-.767q1.763-.46 3.373-1.226c.92-.409 1.328-1.227 1.328-2.35v-21.36c0-4.19-1.124-7.359-3.423-9.556s-5.877-3.27-10.782-3.27zm5.876 31.222c-.613.255-1.277.408-1.993.562-.715.153-1.431.255-2.095.357a12 12 0 0 1-1.89.154h-1.38c-2.249 0-4.088-.41-5.417-1.227-1.38-.817-2.044-2.248-2.044-4.292s.256-2.555.818-3.373c.562-.817 1.226-1.43 2.044-1.84a7.7 7.7 0 0 1 2.606-.766 24 24 0 0 1 2.555-.153h6.796V43.28m36.792-11.19c-1.124-.868-2.402-1.583-3.833-2.197a57 57 0 0 0-4.445-1.686c-1.329-.46-2.453-.869-3.373-1.277a18 18 0 0 1-2.248-1.176c-.562-.409-.971-.817-1.278-1.277-.255-.46-.409-1.022-.409-1.686 0-.87.358-1.687 1.176-2.453.766-.716 2.044-1.125 3.781-1.176 1.584 0 3.117.052 4.497.256s3.015.613 4.854 1.226c.358.154.665.154.869.103.204 0 .409-.256.511-.665l1.533-4.037c.102-.357.102-.715 0-.97-.051-.256-.307-.512-.664-.665a27.5 27.5 0 0 0-5.775-1.533c-1.992-.307-3.985-.46-5.927-.409-2.146 0-4.088.358-5.723.92q-2.453.843-4.139 2.3t-2.453 3.372c-.562 1.278-.818 2.709-.767 4.242 0 1.38.307 2.657.818 3.679a8.4 8.4 0 0 0 2.197 2.861c.971.869 2.146 1.584 3.628 2.3 1.431.664 3.169 1.328 5.11 1.993 2.555.868 4.497 1.737 5.775 2.504 1.277.766 1.941 1.84 1.941 3.168 0 1.226-.46 2.197-1.43 3.015q-1.456 1.15-4.446 1.226c-1.584 0-3.424-.153-5.519-.562s-3.986-.971-5.672-1.737c-.511-.205-.92-.256-1.124-.154-.256.102-.46.409-.716.818l-1.635 3.935c-.357.766-.204 1.328.511 1.686a17 17 0 0 0 3.271 1.38c1.175.357 2.401.664 3.679.868q1.916.307 3.832.46c1.278.102 2.504.153 3.628.102 1.993 0 3.833-.306 5.519-.766s3.168-1.175 4.395-2.095a9.2 9.2 0 0 0 2.861-3.526c.665-1.431 1.022-3.066.971-4.906 0-1.737-.409-3.168-1.124-4.394a10.7 10.7 0 0 0-2.759-3.117zm83.088-20.03c-2.095 0-6.234.664-8.227 1.43-.613.256-.817.716-.613 1.482l.971 4.037c.102.409.255.664.511.767.255.102.613.05 1.124-.052 1.175-.357 3.321-.817 4.906-.817s2.708.153 3.679.46c.92.306 1.686.766 2.248 1.328q.843.844 1.073 1.993a9.6 9.6 0 0 1 .307 2.504v1.227h-7.921c-2.81 0-5.212.357-7.154 1.073-1.941.715-3.525 1.635-4.752 2.81s-2.095 2.504-2.657 4.037-.818 3.168-.818 4.804c0 1.635.256 3.168.716 4.598.46 1.431 1.328 2.709 2.504 3.782s2.81 1.942 4.854 2.555c2.044.664 4.65.97 7.716.97s2.3 0 3.577-.102c1.227-.05 2.504-.204 3.782-.408a44 44 0 0 0 3.73-.767 19 19 0 0 0 3.372-1.226c.92-.409 1.329-1.227 1.329-2.35v-21.36c0-4.19-1.124-7.359-3.424-9.556s-5.876-3.27-10.782-3.27zm5.877 31.17c-.614.256-1.278.41-1.993.563s-1.431.255-2.095.357-1.278.154-1.891.154h-1.38c-2.248 0-4.088-.41-5.416-1.227-1.38-.817-2.044-2.248-2.044-4.292s.255-2.555.817-3.322c.562-.817 1.227-1.43 2.044-1.84a7.7 7.7 0 0 1 2.606-.766 24 24 0 0 1 2.555-.153h6.797zm70.415-8.022a10.7 10.7 0 0 0-2.759-3.117c-1.124-.869-2.402-1.584-3.833-2.198a57 57 0 0 0-4.445-1.686c-1.329-.46-2.453-.869-3.373-1.277a18 18 0 0 1-2.248-1.176c-.562-.409-.971-.817-1.278-1.277-.255-.46-.409-1.022-.409-1.686 0-.87.358-1.687 1.176-2.453.766-.716 2.044-1.125 3.781-1.176 1.584 0 3.117.052 4.497.256s3.015.613 4.854 1.226c.358.154.665.154.869.103.204 0 .409-.256.511-.665l1.533-4.037c.102-.357.102-.715 0-.97-.051-.256-.307-.512-.664-.665a27.5 27.5 0 0 0-5.775-1.533c-1.992-.307-3.985-.46-5.927-.409-2.146 0-4.088.358-5.723.92q-2.454.843-4.139 2.3-1.687 1.456-2.453 3.372c-.562 1.278-.818 2.709-.767 4.242 0 1.38.307 2.657.818 3.679a8.4 8.4 0 0 0 2.197 2.861c.971.869 2.146 1.584 3.628 2.3 1.431.664 3.168 1.328 5.11 1.993 2.555.868 4.497 1.737 5.775 2.504 1.277.766 1.941 1.84 1.941 3.168 0 1.226-.46 2.197-1.431 3.015q-1.455 1.15-4.445 1.226c-1.584 0-3.424-.153-5.519-.562s-3.986-.971-5.672-1.737c-.511-.205-.92-.256-1.124-.154-.256.102-.46.409-.716.818l-1.635 3.935c-.358.766-.204 1.328.511 1.686a17 17 0 0 0 3.271 1.38c1.175.357 2.401.664 3.679.868q1.916.307 3.832.46c1.278.102 2.504.153 3.628.102 1.993 0 3.833-.306 5.519-.766s3.168-1.175 4.395-2.095a9.2 9.2 0 0 0 2.861-3.526c.665-1.431 1.022-3.066.971-4.906 0-1.737-.409-3.168-1.124-4.394zM267.35 32.09c-1.125-.868-2.402-1.583-3.833-2.197a57 57 0 0 0-4.446-1.686c-1.328-.46-2.452-.869-3.372-1.277a18 18 0 0 1-2.249-1.176c-.562-.409-.971-.817-1.277-1.277-.256-.46-.409-1.022-.409-1.686 0-.87.358-1.687 1.175-2.453.767-.716 2.044-1.125 3.782-1.176 1.584 0 3.117.052 4.497.256s3.014.613 4.854 1.226c.358.154.664.154.869.103.204 0 .409-.256.511-.665l1.533-4.037c.102-.357.102-.715 0-.97-.051-.256-.307-.512-.665-.665a27.5 27.5 0 0 0-5.774-1.533c-1.993-.307-3.986-.46-5.927-.409-2.147 0-4.088.358-5.724.92q-2.453.843-4.139 2.3t-2.452 3.372c-.563 1.278-.818 2.709-.767 4.242 0 1.38.307 2.657.818 3.679a8.4 8.4 0 0 0 2.197 2.861c.971.869 2.146 1.584 3.628 2.3 1.431.664 3.168 1.328 5.11 1.993 2.555.868 4.497 1.737 5.774 2.504s1.942 1.84 1.942 3.168c0 1.226-.46 2.197-1.431 3.015q-1.457 1.15-4.445 1.226c-1.585 0-3.424-.153-5.519-.562s-3.986-.971-5.672-1.737c-.511-.205-.92-.256-1.124-.154-.256.102-.46.409-.716.818l-1.635 3.935c-.358.766-.204 1.328.511 1.686a17 17 0 0 0 3.27 1.38c1.176.357 2.402.664 3.679.868q1.917.307 3.833.46c1.277.102 2.504.153 3.628.102 1.993 0 3.833-.306 5.519-.766s3.168-1.175 4.394-2.095a9.2 9.2 0 0 0 2.862-3.526c.664-1.431 1.022-3.066.971-4.906 0-1.737-.409-3.168-1.124-4.394a10.7 10.7 0 0 0-2.76-3.117zm-56.466-21.972c-.817-1.993-1.942-3.68-3.423-5.11s-3.22-2.504-5.315-3.322C200.102.92 197.803.511 195.35.511h-15.126a2.8 2.8 0 0 0-2.81 2.81V49.72c0 .715.562 1.278 1.277 1.278h6.03c.715 0 1.278-.562 1.278-1.278V33.215h8.584q5.597 0 9.045-1.84c2.3-1.226 4.037-2.708 5.314-4.497a15.2 15.2 0 0 0 2.555-5.467c.409-1.89.614-3.475.614-4.855 0-2.35-.409-4.548-1.227-6.49zm-9.453 13.03c-1.431 1.533-3.731 2.35-6.848 2.35h-9.044V8.79h8.891c1.84 0 3.373.256 4.548.818s2.146 1.226 2.81 2.044c.665.817 1.125 1.737 1.431 2.76.256 1.021.409 1.94.409 2.758 0 2.402-.715 4.395-2.146 5.928zM80.12 49.107c-.154-.869-.307-1.686-.46-2.555-.102-.613-.204-1.278-.358-1.89-.102-.512-.102-1.227-.51-1.636a.7.7 0 0 0-.205-.153c-.46-.307-.971-.256-1.482-.256H63.768c-1.737 0-3.066-.409-4.088-1.226-.971-.818-1.482-2.248-1.482-4.241V1.073a1.34 1.34 0 0 0-.92-1.022c-.153 0-.255-.051-.409-.051h-6.54c-.205 0-.358 0-.562.102A1.43 1.43 0 0 0 49 .971V37.15c0 1.788.204 3.526.613 5.16.409 1.636 1.124 3.118 2.146 4.395q1.533 1.917 4.14 3.066c1.737.767 3.934 1.175 6.54 1.175h13.644c1.175 0 4.292.103 4.037-1.84"/></svg>