<svg xmlns="http://www.w3.org/2000/svg" width="25" height="24" fill="none"><path fill="#40526D" fill-rule="evenodd" d="M10.128 19.674v-.002a8.26 8.26 0 0 1-4.033-3.56 8.25 8.25 0 0 1 .642-9.103.5.5 0 0 1 .753-.046l.309.309a.75.75 0 0 0 1.26-.362l.849-3.677a.78.78 0 0 0-.9-.9l-3.677.849-.002-.002a.75.75 0 0 0-.362 1.26l.387.387a.5.5 0 0 1 .033.675A10.25 10.25 0 0 0 9.37 21.52v.003c.977.411 2.019.67 3.088.763a1 1 0 0 0 .173-1.992 8.3 8.3 0 0 1-2.504-.62M17.474 2.95a10.3 10.3 0 0 0-3.502-.948 1 1 0 0 0-.174 1.993 8.3 8.3 0 0 1 2.423.586 7 7 0 0 1 .497.223l.119.058a8.25 8.25 0 0 1 2.805 12.394.5.5 0 0 1-.753.046l-.309-.308a.75.75 0 0 0-1.071.014.75.75 0 0 0-.186.344l-.849 3.677a.75.75 0 0 0 .9.9l3.678-.849a.75.75 0 0 0 .36-1.26l-.384-.385a.5.5 0 0 1-.032-.675 10.25 10.25 0 0 0-3.522-15.81" clip-rule="evenodd"/></svg>