<svg xmlns="http://www.w3.org/2000/svg" width="20" height="20" fill="none"><circle cx="10" cy="10" r="10" fill="#CACCEE"/><path fill="#474A86" d="M9.02 5.88a4.22 4.22 0 0 1 4.141 1.313.73.73 0 1 0 1.092-.967 5.68 5.68 0 0 0-5.57-1.768 5.99 5.99 0 0 0-4.296 4.148.145.145 0 0 1-.158.103l-.602-.075a.29.29 0 0 0-.277.127.29.29 0 0 0-.011.307l1.444 2.533a.3.3 0 0 0 .218.145h.036a.3.3 0 0 0 .21-.089l2.028-2.096A.292.292 0 0 0 7.1 9.07l-1.096-.136a.146.146 0 0 1-.116-.194 4.49 4.49 0 0 1 3.131-2.86m7.635 5.345a.29.29 0 0 0 .008-.307l-1.458-2.526a.292.292 0 0 0-.464-.054l-2.016 2.108a.292.292 0 0 0 .175.49l1.078.13a.145.145 0 0 1 .12.194 4.49 4.49 0 0 1-3.132 2.858 4.22 4.22 0 0 1-4.142-1.314.728.728 0 1 0-1.092.966 5.68 5.68 0 0 0 5.57 1.768 5.99 5.99 0 0 0 4.3-4.154.146.146 0 0 1 .157-.104l.617.074h.035a.29.29 0 0 0 .244-.13"/></svg>