<svg xmlns="http://www.w3.org/2000/svg" width="125" height="125" fill="none"><path fill="#EBF5FB" fill-rule="evenodd" d="M62.5 125c34.518 0 62.5-27.982 62.5-62.5S97.018 0 62.5 0 0 27.982 0 62.5 27.982 125 62.5 125" clip-rule="evenodd"/><path stroke="#C2E0F4" stroke-linecap="round" stroke-linejoin="round" stroke-width="2" d="M108.722 50.057h4.167v4.167h-4.167zM31.7 20.09l2.946-2.946 2.946 2.946-2.946 2.947zM13.863 42.863h4.167v4.167h-4.167z"/><path stroke="#C2E0F4" stroke-linecap="round" stroke-width="2" d="m97.09 22.73 3.959 3.96m-.14-3.96-3.959 3.96"/><g filter="url(#a)"><path fill="#fff" fill-rule="evenodd" d="M30 41.316a4 4 0 0 1 4-4h56a4 4 0 0 1 4 4v55.517a4 4 0 0 1-4 4h-1.74a4.139 4.139 0 0 1-7.65 0H44.73a4.139 4.139 0 0 1-7.65 0H34a4 4 0 0 1-4-4z" clip-rule="evenodd"/></g><path fill="#264887" d="M88.26 100.833v-1h-.67l-.255.618zm-7.65 0 .924-.382-.256-.618h-.668zm-35.879 0v-1h-.669l-.255.618zm-7.65 0 .925-.382-.256-.618h-.668zm-6.423-63.236a1 1 0 1 0 1.337 1.487zm1.212 1.607a1 1 0 0 0-1.42-1.409zm-1.449-1.38a1 1 0 1 0 1.432 1.398zm1.347 1.488a1 1 0 0 0-1.487-1.337zM29 67.186a1 1 0 1 0 2 0zm2 2.034a1 1 0 1 0-2 0zm-2 .29a1 1 0 1 0 2 0zm2 1.454a1 1 0 1 0-2 0zm-.72 29.211a1 1 0 0 0 1.488-1.337zm1.607-1.212a1 1 0 0 0-1.408 1.42zm-1.379 1.449a1 1 0 1 0 1.397-1.431zm1.487-1.347a1 1 0 0 0-1.337 1.487zm3.441 2.768a1 1 0 0 0 0-2zm.113-2a1 1 0 0 0 0 2zm.016 2a1 1 0 0 0 0-2zm.08-2a1 1 0 0 0 0 2zm2.236 3.572a1 1 0 1 0 1.179-1.616zm1.29-1.538a1 1 0 0 0-1.108 1.665zm-1.082 1.682a.999.999 0 1 0 1.098-1.671zm1.18-1.619a1 1 0 1 0-1.046 1.704zm4.32 1.704a1 1 0 1 0-1.045-1.704zm-.931-1.778a1 1 0 0 0 1.118 1.658zm1.145 1.64a.999.999 0 1 0-1.129-1.651zm-1.05-1.707a1 1 0 0 0 1.18 1.616zm18.696.044a1 1 0 0 0 0-2zm1.315-2a1 1 0 0 0 0 2zm.188 2a1 1 0 0 0 0-2zm.94-2a1 1 0 0 0 0 2zm17.517 3.572a1 1 0 1 0 1.179-1.616zm1.29-1.538a1 1 0 0 0-1.108 1.665zm-1.082 1.682a.999.999 0 1 0 1.098-1.671zm1.18-1.619a1 1 0 1 0-1.046 1.704zm4.321 1.704a1 1 0 1 0-1.046-1.704zm-.932-1.778a1 1 0 1 0 1.119 1.658zm1.145 1.64a.999.999 0 1 0-1.129-1.651zm-1.05-1.707a1 1 0 0 0 1.18 1.616zm2.79.044a1 1 0 0 0 0-2zm.063-2a1 1 0 0 0 0 2zm.01 2a1 1 0 0 0 0-2zm.045-2a1 1 0 0 0 0 2zm4.153.719a1 1 0 1 0-1.337-1.487zm-1.212-1.606a1 1 0 0 0 1.42 1.408zm1.449 1.379a1 1 0 0 0-1.432-1.397zm-1.347-1.487a1 1 0 1 0 1.487 1.337zM95 70.964a1 1 0 1 0-2 0zm-2-2.035a1 1 0 1 0 2 0zm2-.29a1 1 0 1 0-2 0zm-2-1.453a1 1 0 1 0 2 0zm.72-29.211a1 1 0 1 0-1.488 1.337zm-1.607 1.211a1 1 0 0 0 1.408-1.42zm1.379-1.448a1 1 0 1 0-1.397 1.431zm-1.487 1.346a1 1 0 0 0 1.337-1.487zm-28.1-2.768a1 1 0 1 0 0 2zm-2.052 2a1 1 0 1 0 0-2zm-.293-2a1 1 0 1 0 0 2zm-1.466 2a1 1 0 1 0 0-2zm-26.094-2a5 5 0 0 0-3.342 1.281l1.337 1.487A3 3 0 0 1 34 38.317zm-3.55 1.48-.029.029 1.432 1.396.017-.017zm-.17.179A5 5 0 0 0 29 41.316h2c0-.771.29-1.472.768-2.004zM29 41.316v25.87h2v-25.87zm0 27.904v.29h2v-.29zm0 1.744v25.87h2v-25.87zm0 25.87c0 1.283.485 2.456 1.28 3.341l1.488-1.337A3 3 0 0 1 31 96.833zm1.479 3.549.03.029 1.396-1.431-.018-.018zm.18.169A4.98 4.98 0 0 0 34 101.833v-2c-.771 0-1.473-.29-2.005-.768zM34 101.833h1.436v-2H34zm1.549 0h.016v-2h-.016zm.097 0h1.436v-2h-1.436zm.511-.618a5.15 5.15 0 0 0 1.724 2.19l1.179-1.616a3.15 3.15 0 0 1-1.054-1.338zm1.906 2.317.026.017 1.098-1.671-.016-.011zm.16.102c.782.48 1.702.756 2.683.756v-2a3.1 3.1 0 0 1-1.637-.46zm2.683.756c.982 0 1.902-.276 2.684-.756l-1.046-1.704a3.1 3.1 0 0 1-1.638.46zm2.87-.876.027-.018-1.129-1.651-.016.011zm.156-.109a5.15 5.15 0 0 0 1.723-2.19l-1.848-.764a3.15 3.15 0 0 1-1.054 1.338zm.8-1.572h16.717v-2H44.731zm18.032 0h.188v-2h-.188zm1.127 0H80.61v-2H63.89zm15.795-.618a5.15 5.15 0 0 0 1.723 2.19l1.179-1.616a3.15 3.15 0 0 1-1.054-1.338zm1.905 2.317.026.017 1.098-1.671-.016-.011zm.16.102c.782.48 1.702.756 2.683.756v-2a3.1 3.1 0 0 1-1.637-.46zm2.683.756c.982 0 1.902-.276 2.684-.756l-1.046-1.704a3.1 3.1 0 0 1-1.638.46zm2.87-.876.027-.018-1.129-1.651-.016.011zm.156-.109a5.15 5.15 0 0 0 1.723-2.19l-1.848-.764a3.15 3.15 0 0 1-1.054 1.338zm.8-1.572h.81v-2h-.81zm.874 0h.01v-2h-.01zm.055 0H90v-2h-.811zm.811 0a4.98 4.98 0 0 0 3.342-1.281l-1.337-1.487a3 3 0 0 1-2.005.768zm3.55-1.479.029-.029-1.432-1.397-.017.018zm.17-.179A5 5 0 0 0 95 96.833h-2c0 .772-.29 1.473-.768 2.005zM95 96.833V70.964h-2v25.87zm0-27.904v-.29h-2v.29zm0-1.743v-25.87h-2v25.87zm0-25.87a5 5 0 0 0-1.28-3.341l-1.488 1.337c.478.532.768 1.233.768 2.004zm-1.479-3.55-.03-.028-1.396 1.431.018.017zm-.18-.169A5 5 0 0 0 90 36.317v2c.771 0 1.473.29 2.005.767zM90 36.317H63.906v2H90zm-28.147 0h-.293v2h.293zm-1.759 0H34v2h26.094z"/><path fill="#264887" fill-rule="evenodd" stroke="#264887" stroke-linecap="round" stroke-linejoin="round" stroke-width="2" d="M36.812 45.406a2 2 0 0 1 2-2h46.736a2 2 0 0 1 2 2v46.407a2 2 0 0 1-2 2H38.812a2 2 0 0 1-2-2z" clip-rule="evenodd"/><g filter="url(#b)"><path fill="#fff" fill-rule="evenodd" d="M41.58 42.701a2 2 0 0 1 2-2h5.536a2 2 0 0 1 2 2v52.845a2 2 0 0 1-2 2H43.58a2 2 0 0 1-2-2z" clip-rule="evenodd"/></g><path stroke="#3C4862" stroke-linecap="round" stroke-linejoin="round" stroke-width="2" d="M41.58 42.701a2 2 0 0 1 2-2h5.536a2 2 0 0 1 2 2v52.845a2 2 0 0 1-2 2H43.58a2 2 0 0 1-2-2z" clip-rule="evenodd"/><g filter="url(#c)"><path fill="#fff" fill-rule="evenodd" d="M47.71 39.386c0-1.709-2.004-2.63-3.302-1.519l-6.898 5.91a2 2 0 0 0-.699 1.52v46.976a2 2 0 0 0 .647 1.472l6.898 6.339c1.282 1.178 3.353.269 3.353-1.473z" clip-rule="evenodd"/></g><path stroke="#264887" stroke-linecap="round" stroke-linejoin="round" stroke-width="2" d="M47.71 39.386c0-1.709-2.004-2.63-3.302-1.519l-6.898 5.91a2 2 0 0 0-.699 1.52v46.976a2 2 0 0 0 .647 1.472l6.898 6.339c1.282 1.178 3.353.269 3.353-1.473z" clip-rule="evenodd"/><g filter="url(#d)"><path fill="#fff" fill-rule="evenodd" d="M33.43 50.798a2.478 2.478 0 0 1 4.955 0v6.868a2.478 2.478 0 0 1-4.956 0z" clip-rule="evenodd"/></g><path stroke="#264887" stroke-linecap="round" stroke-linejoin="round" stroke-width="2" d="M33.43 50.798a2.478 2.478 0 0 1 4.955 0v6.868a2.478 2.478 0 0 1-4.956 0z" clip-rule="evenodd"/><g filter="url(#e)"><path fill="#fff" fill-rule="evenodd" d="M33.43 80.572a2.478 2.478 0 1 1 4.955 0v6.867a2.478 2.478 0 0 1-4.956 0z" clip-rule="evenodd"/></g><path stroke="#264887" stroke-linecap="round" stroke-linejoin="round" stroke-width="2" d="M33.43 80.572a2.478 2.478 0 1 1 4.955 0v6.867a2.478 2.478 0 0 1-4.956 0z" clip-rule="evenodd"/><g filter="url(#f)"><path fill="#fff" fill-rule="evenodd" d="M42.52 75.89c.895 0 1.621-3.03 1.621-6.767s-.726-6.768-1.621-6.768c-.896 0-1.622 3.03-1.622 6.768s.726 6.767 1.622 6.767" clip-rule="evenodd"/></g><path stroke="#264887" stroke-width="2" d="M42.52 76.89c.816 0 1.286-.66 1.501-1.039.26-.46.462-1.058.618-1.71.316-1.321.502-3.095.502-5.018 0-1.924-.185-3.697-.502-5.019-.157-.652-.358-1.25-.618-1.71-.215-.38-.685-1.038-1.501-1.038-.817 0-1.286.658-1.502 1.038-.26.46-.461 1.058-.617 1.71-.317 1.322-.503 3.095-.503 5.019s.186 3.697.502 5.018c.157.652.358 1.25.618 1.71.216.38.685 1.039 1.502 1.039Z"/><g stroke="#D32D27" filter="url(#g)"><path fill="#D32D27" stroke-width="2" d="M40.436 71.754c.663 0 .988-.529 1.072-.677a2.8 2.8 0 0 0 .269-.725c.117-.489.18-1.113.18-1.767s-.063-1.278-.18-1.767a2.8 2.8 0 0 0-.269-.725c-.084-.148-.409-.677-1.072-.677s-.988.529-1.072.677a2.8 2.8 0 0 0-.269.725c-.117.489-.18 1.113-.18 1.767s.063 1.278.18 1.767c.057.237.14.499.269.725.084.148.409.677 1.072.677Z"/><path fill="#D32D27" stroke-width="2" d="M40.057 71.754c.663 0 .988-.529 1.072-.677a2.8 2.8 0 0 0 .268-.725c.118-.489.18-1.113.18-1.767s-.062-1.278-.18-1.767a2.8 2.8 0 0 0-.268-.725c-.084-.148-.409-.677-1.072-.677-.664 0-.989.529-1.073.677a2.8 2.8 0 0 0-.268.725c-.118.489-.18 1.113-.18 1.767s.062 1.278.18 1.767c.057.237.14.499.268.725.084.148.41.677 1.073.677Z"/><path stroke-linecap="round" stroke-width="3" d="m40.898 71.83 1.985 4.338m-3.007-5.353-1.021 5.353m1.303-15.166.059 4.338"/></g><path stroke="#004590" stroke-dasharray="1 6 164 5" stroke-linecap="round" stroke-width="2" d="M30.917 105.39h62.5"/><path stroke="#B5D9F1" stroke-linecap="round" stroke-linejoin="round" stroke-width="2.204" d="M13.833 23.119a2.045 2.045 0 0 0 2.043-2.048c0-1.13-.914-2.048-2.043-2.048a2.045 2.045 0 0 0-2.043 2.048c0 1.131.915 2.048 2.043 2.048" clip-rule="evenodd"/><defs><filter id="a" width="66" height="68.074" x="29" y="36.316" color-interpolation-filters="sRGB" filterUnits="userSpaceOnUse"><feFlood flood-opacity="0" result="BackgroundImageFix"/><feBlend in="SourceGraphic" in2="BackgroundImageFix" result="shape"/><feColorMatrix in="SourceAlpha" result="hardAlpha" values="0 0 0 0 0 0 0 0 0 0 0 0 0 0 0 0 0 0 127 0"/><feOffset dy="-4"/><feComposite in2="hardAlpha" k2="-1" k3="1" operator="arithmetic"/><feColorMatrix values="0 0 0 0 0.760784 0 0 0 0 0.878431 0 0 0 0 0.956863 0 0 0 1 0"/><feBlend in2="shape" result="effect1_innerShadow_938_121487"/></filter><filter id="b" width="11.536" height="58.844" x="40.58" y="39.701" color-interpolation-filters="sRGB" filterUnits="userSpaceOnUse"><feFlood flood-opacity="0" result="BackgroundImageFix"/><feBlend in="SourceGraphic" in2="BackgroundImageFix" result="shape"/><feColorMatrix in="SourceAlpha" result="hardAlpha" values="0 0 0 0 0 0 0 0 0 0 0 0 0 0 0 0 0 0 127 0"/><feOffset dx="-5" dy="-6"/><feComposite in2="hardAlpha" k2="-1" k3="1" operator="arithmetic"/><feColorMatrix values="0 0 0 0 0.85098 0 0 0 0 0.92549 0 0 0 0 0.972549 0 0 0 1 0"/><feBlend in2="shape" result="effect1_innerShadow_938_121487"/></filter><filter id="c" width="12.898" height="65.236" x="35.811" y="36.381" color-interpolation-filters="sRGB" filterUnits="userSpaceOnUse"><feFlood flood-opacity="0" result="BackgroundImageFix"/><feBlend in="SourceGraphic" in2="BackgroundImageFix" result="shape"/><feColorMatrix in="SourceAlpha" result="hardAlpha" values="0 0 0 0 0 0 0 0 0 0 0 0 0 0 0 0 0 0 127 0"/><feOffset dx="-5" dy="-6"/><feComposite in2="hardAlpha" k2="-1" k3="1" operator="arithmetic"/><feColorMatrix values="0 0 0 0 0.760784 0 0 0 0 0.878431 0 0 0 0 0.956863 0 0 0 1 0"/><feBlend in2="shape" result="effect1_innerShadow_938_121487"/></filter><filter id="d" width="6.956" height="13.824" x="32.429" y="47.32" color-interpolation-filters="sRGB" filterUnits="userSpaceOnUse"><feFlood flood-opacity="0" result="BackgroundImageFix"/><feBlend in="SourceGraphic" in2="BackgroundImageFix" result="shape"/><feColorMatrix in="SourceAlpha" result="hardAlpha" values="0 0 0 0 0 0 0 0 0 0 0 0 0 0 0 0 0 0 127 0"/><feOffset dx="3" dy="-4"/><feComposite in2="hardAlpha" k2="-1" k3="1" operator="arithmetic"/><feColorMatrix values="0 0 0 0 0.760784 0 0 0 0 0.878431 0 0 0 0 0.956863 0 0 0 1 0"/><feBlend in2="shape" result="effect1_innerShadow_938_121487"/></filter><filter id="e" width="6.956" height="13.824" x="32.429" y="77.094" color-interpolation-filters="sRGB" filterUnits="userSpaceOnUse"><feFlood flood-opacity="0" result="BackgroundImageFix"/><feBlend in="SourceGraphic" in2="BackgroundImageFix" result="shape"/><feColorMatrix in="SourceAlpha" result="hardAlpha" values="0 0 0 0 0 0 0 0 0 0 0 0 0 0 0 0 0 0 127 0"/><feOffset dx="3" dy="-4"/><feComposite in2="hardAlpha" k2="-1" k3="1" operator="arithmetic"/><feColorMatrix values="0 0 0 0 0.760784 0 0 0 0 0.878431 0 0 0 0 0.956863 0 0 0 1 0"/><feBlend in2="shape" result="effect1_innerShadow_938_121487"/></filter><filter id="f" width="7.244" height="17.535" x="38.898" y="60.355" color-interpolation-filters="sRGB" filterUnits="userSpaceOnUse"><feFlood flood-opacity="0" result="BackgroundImageFix"/><feBlend in="SourceGraphic" in2="BackgroundImageFix" result="shape"/><feColorMatrix in="SourceAlpha" result="hardAlpha" values="0 0 0 0 0 0 0 0 0 0 0 0 0 0 0 0 0 0 127 0"/><feOffset dx="3" dy="-2"/><feComposite in2="hardAlpha" k2="-1" k3="1" operator="arithmetic"/><feColorMatrix values="0 0 0 0 0.760784 0 0 0 0 0.878431 0 0 0 0 0.956863 0 0 0 1 0"/><feBlend in2="shape" result="effect1_innerShadow_938_121487"/></filter><filter id="g" width="9.028" height="18.166" x="37.355" y="59.502" color-interpolation-filters="sRGB" filterUnits="userSpaceOnUse"><feFlood flood-opacity="0" result="BackgroundImageFix"/><feColorMatrix in="SourceAlpha" result="hardAlpha" values="0 0 0 0 0 0 0 0 0 0 0 0 0 0 0 0 0 0 127 0"/><feOffset dx="2"/><feColorMatrix values="0 0 0 0 0 0 0 0 0 0 0 0 0 0 0 0 0 0 0.1 0"/><feBlend in2="BackgroundImageFix" result="effect1_dropShadow_938_121487"/><feBlend in="SourceGraphic" in2="effect1_dropShadow_938_121487" result="shape"/></filter></defs></svg>