<svg xmlns="http://www.w3.org/2000/svg" width="125" height="125" fill="none"><circle cx="62.5" cy="62.5" r="62.5" fill="#EBF5FB"/><path stroke="#004590" stroke-dasharray="1 6 164 5" stroke-linecap="round" stroke-width="2" d="M22.917 101.389h62.5"/><g filter="url(#a)"><path fill="#fff" fill-rule="evenodd" d="M22.222 39.417a4 4 0 0 1 4-4h54.5a4 4 0 0 1 4 4v54.751a4 4 0 0 1-4 4h-1.595a4.04 4.04 0 0 1-7.493 0H36.62a4.04 4.04 0 0 1-7.492 0h-2.905a4 4 0 0 1-4-4z" clip-rule="evenodd"/></g><path fill="#004590" d="M79.127 98.168v-1h-.674l-.253.625zm-7.493 0 .927-.375-.252-.625h-.675zm-35.015 0v-1h-.674l-.253.625zm-7.492 0 .927-.375-.253-.625h-.674zm-6.246-62.47a1 1 0 1 0 1.337 1.487zm1.211 1.606a1 1 0 1 0-1.42-1.409zm-1.448-1.38a1 1 0 1 0 1.43 1.398zm1.346 1.488a1 1 0 0 0-1.487-1.337zm-2.768 27.517a1 1 0 1 0 2 0zm2 2.007a1 1 0 0 0-2 0zm-2 .286a1 1 0 1 0 2 0zm2 1.434a1 1 0 1 0-2 0zm-.719 28.854a1 1 0 1 0 1.487-1.337zm1.607-1.212a1 1 0 1 0-1.409 1.42zm-1.38 1.45a1 1 0 1 0 1.397-1.432zm1.488-1.348a1 1 0 0 0-1.337 1.487zm3.358 2.768a1 1 0 1 0 0-2zm.106-2a1 1 0 1 0 0 2zm.015 2a1 1 0 1 0 0-2zm.076-2a1 1 0 1 0 0 2zm2.115 3.547a1 1 0 1 0 1.185-1.61zm1.294-1.534a1 1 0 0 0-1.115 1.66zm-1.089 1.678a1 1 0 1 0 1.104-1.668zm1.184-1.617a1 1 0 0 0-1.052 1.701zm4.244 1.701a1 1 0 1 0-1.052-1.7zm-.941-1.773a1 1 0 0 0 1.125 1.654zm1.15 1.636a1 1 0 1 0-1.134-1.647zm-1.057-1.701a1 1 0 1 0 1.185 1.61zm18.262.063a1 1 0 1 0 0-2zm1.284-2a1 1 0 1 0 0 2zm.183 2a1 1 0 1 0 0-2zm.916-2a1 1 0 1 0 0 2zm17.078 3.547a1 1 0 1 0 1.185-1.61zm1.293-1.534a1 1 0 0 0-1.114 1.66zm-1.088 1.678a1 1 0 1 0 1.104-1.668zm1.184-1.617a1 1 0 0 0-1.052 1.701zm4.244 1.701a1 1 0 1 0-1.052-1.7zm-.941-1.773a1 1 0 0 0 1.125 1.654zm1.15 1.636a1 1 0 1 0-1.135-1.647zm-1.058-1.701a1 1 0 1 0 1.186 1.61zm2.69.063a1 1 0 1 0 0-2zm.059-2a1 1 0 1 0 0 2zm.008 2a1 1 0 1 0 0-2zm.042-2a1 1 0 0 0 0 2zm4.085.72a1 1 0 1 0-1.337-1.488zm-1.212-1.607a1 1 0 0 0 1.42 1.408zm1.45 1.379a1 1 0 1 0-1.432-1.397zm-1.348-1.487a1 1 0 0 0 1.488 1.337zm2.768-27.517a1 1 0 1 0-2 0zm-2-2.007a1 1 0 1 0 2 0zm2-.287a1 1 0 1 0-2 0zm-2-1.433a1 1 0 1 0 2 0zm.72-28.854a1 1 0 1 0-1.488 1.337zm-1.607 1.211a1 1 0 0 0 1.408-1.42zm1.379-1.448a1 1 0 1 0-1.397 1.431zm-1.487 1.347a1 1 0 0 0 1.337-1.488zm-27.4-2.769a1 1 0 1 0 0 2zm-1.997 2a1 1 0 1 0 0-2zm-.286-2a1 1 0 1 0 0 2zm-1.426 2a1 1 0 1 0 0-2zm-25.396-2a5 5 0 0 0-3.341 1.281l1.337 1.488a3 3 0 0 1 2.004-.769zm-3.55 1.48-.029.029 1.432 1.397.017-.018zm-.169.179a5 5 0 0 0-1.28 3.341h2c0-.77.29-1.472.767-2.004zm-1.28 3.341V64.93h2V39.416zm0 27.52v.286h2v-.286zm0 1.72v25.512h2V68.656zm0 25.512c0 1.284.485 2.457 1.28 3.342l1.487-1.337a3 3 0 0 1-.768-2.005zm1.478 3.55.03.03 1.396-1.432-.017-.018zm.18.17a5 5 0 0 0 3.341 1.28v-2c-.771 0-1.472-.29-2.004-.768zm3.341 1.28h1.354v-2h-1.354zm1.46 0h.015v-2h-.015zm.091 0h1.354v-2h-1.354zm.427-.625a5.05 5.05 0 0 0 1.688 2.172l1.185-1.61a3.05 3.05 0 0 1-1.02-1.312zm1.867 2.298.026.018 1.104-1.668-.015-.01zm.158.102c.77.477 1.678.751 2.648.751v-2a3 3 0 0 1-1.596-.452zm2.648.751c.97 0 1.878-.274 2.648-.751l-1.052-1.7a3 3 0 0 1-1.596.451zm2.832-.87.026-.018-1.136-1.647-.015.011zm.153-.109a5.05 5.05 0 0 0 1.688-2.172l-1.854-.75a3.05 3.05 0 0 1-1.02 1.312zm.761-1.547h16.316v-2H36.62zm17.6 0h.183v-2h-.183zm1.1 0h16.315v-2H55.32zm15.388-.625a5.05 5.05 0 0 0 1.689 2.172l1.185-1.61a3.05 3.05 0 0 1-1.02-1.312zm1.868 2.298.026.018 1.104-1.668-.016-.01zm.158.102c.77.477 1.678.751 2.648.751v-2a3 3 0 0 1-1.596-.452zm2.648.751c.97 0 1.878-.274 2.648-.751l-1.052-1.7a3 3 0 0 1-1.596.451zm2.832-.87.026-.018-1.136-1.647-.015.011zm.153-.109a5.05 5.05 0 0 0 1.688-2.172l-1.854-.75a3.05 3.05 0 0 1-1.02 1.312zm.761-1.547h.744v-2h-.744zm.802 0h.008v-2h-.008zm.05 0h.743v-2h-.743zm.743 0a5 5 0 0 0 3.342-1.28L82.727 96.4a3 3 0 0 1-2.005.768zm3.55-1.479.03-.029-1.432-1.397-.018.018zm.17-.179a5 5 0 0 0 1.28-3.342h-2c0 .772-.29 1.473-.768 2.005zm1.28-3.342V68.656h-2v25.512zm0-27.519v-.287h-2v.287zm0-1.72V39.416h-2V64.93zm0-25.513a5 5 0 0 0-1.28-3.341l-1.488 1.337c.479.532.768 1.233.768 2.005zm-1.479-3.55-.029-.028-1.397 1.431.018.017zm-.179-.169a5 5 0 0 0-3.342-1.28v2c.772 0 1.473.29 2.005.768zm-3.342-1.28H55.327v2h25.395zm-27.392 0h-.286v2h.286zm-1.712 0H26.222v2h25.396z"/><g filter="url(#b)"><path fill="#fff" fill-rule="evenodd" d="M29.167 44.36a2 2 0 0 1 2-2h45.676a2 2 0 0 1 2 2V90a2 2 0 0 1-2 2H31.167a2 2 0 0 1-2-2z" clip-rule="evenodd"/></g><path stroke="#004590" stroke-linecap="round" stroke-linejoin="round" stroke-width="2" d="M29.167 44.36a2 2 0 0 1 2-2h45.676a2 2 0 0 1 2 2V90a2 2 0 0 1-2 2H31.167a2 2 0 0 1-2-2z" clip-rule="evenodd"/><g filter="url(#c)"><path fill="#fff" fill-rule="evenodd" d="M26.389 50.424a2.76 2.76 0 1 1 5.52 0v6.124a2.76 2.76 0 1 1-5.52 0z" clip-rule="evenodd"/></g><path stroke="#004590" stroke-linecap="round" stroke-linejoin="round" stroke-width="2" d="M26.389 50.424a2.76 2.76 0 0 1 2.76-2.76v0a2.76 2.76 0 0 1 2.76 2.76v6.124a2.76 2.76 0 0 1-2.76 2.76v0a2.76 2.76 0 0 1-2.76-2.76z" clip-rule="evenodd"/><g filter="url(#d)"><path fill="#fff" fill-rule="evenodd" d="M26.389 79.08a2.76 2.76 0 1 1 5.52 0v6.124a2.76 2.76 0 0 1-5.52 0z" clip-rule="evenodd"/></g><path stroke="#004590" stroke-linecap="round" stroke-linejoin="round" stroke-width="2" d="M26.389 79.08a2.76 2.76 0 0 1 2.76-2.76v0a2.76 2.76 0 0 1 2.76 2.76v6.124a2.76 2.76 0 0 1-2.76 2.76v0a2.76 2.76 0 0 1-2.76-2.76z" clip-rule="evenodd"/><path stroke="#004590" stroke-width="2" d="M53.398 77.32c5.524 0 10.004-4.475 10.004-9.997 0-5.521-4.48-9.996-10.004-9.996s-10.003 4.475-10.003 9.996 4.48 9.997 10.003 9.997Z"/><path fill="#D22D27" fill-rule="evenodd" d="M54.847 56.92a1.25 1.25 0 1 0-2.5-.001v6.212a4.01 4.01 0 0 0-2.627 4.802l-5.456 3.83a1.257 1.257 0 0 0-.31 1.748 1.246 1.246 0 0 0 1.743.306l5.37-3.77c.689.566 1.57.906 2.53.906a3.98 3.98 0 0 0 2.752-1.101l5.648 3.965a1.25 1.25 0 0 0 1.743-.306 1.254 1.254 0 0 0-.31-1.747l-5.892-4.137a4.01 4.01 0 0 0-2.692-4.496z" clip-rule="evenodd"/><path stroke="#B5D9F1" stroke-linecap="round" stroke-linejoin="round" stroke-width="2" d="M119.097 42.361h-5.208v5.56h5.208zM8.422 26.108l-3.56 3.8 3.56 3.802 3.56-3.801zm93.34 54.812 4.949 5.283m-.175-5.283-4.949 5.283"/><path fill="#004590" d="M84.722 37.344a1.9 1.9 0 0 0-.574-1.363 1.98 1.98 0 0 0-1.387-.565H49.043a24.2 24.2 0 0 0 1.242 13.399A24.66 24.66 0 0 0 58.51 59.57a25.3 25.3 0 0 0 12.748 4.9c4.63.438 9.292-.4 13.465-2.42z" opacity=".15"/><path fill="#fff" stroke="#004590" stroke-linecap="round" stroke-linejoin="round" stroke-width="2" d="m89.212 50.415-3.815 3.815 6.677 6.676 3.814-3.814z"/><path fill="#fff" stroke="#004590" stroke-linecap="round" stroke-linejoin="round" stroke-width="2" d="M85.355 56.637c9.23-6.299 11.608-18.888 5.31-28.118-6.3-9.23-18.888-11.608-28.118-5.31s-11.608 18.888-5.31 28.118 18.887 11.608 28.118 5.31"/><path fill="#6CB4E4" d="M89.927 42.515c1.432-8.824-4.56-17.138-13.384-18.57s-17.138 4.56-18.57 13.385 4.56 17.137 13.385 18.57c8.823 1.431 17.137-4.561 18.57-13.385"/><path fill="#B5D9F1" d="M85.409 28.492a16.185 16.185 0 0 0-22.89 22.89z"/><path stroke="#004590" stroke-miterlimit="10" stroke-width="2" d="M85.396 28.48a16.185 16.185 0 1 1-22.89 22.889 16.185 16.185 0 0 1 22.89-22.889Z"/><path fill="#90C6EB" d="M103.839 74.58a2.92 2.92 0 0 0 4.129 0l1.594-1.595a2.92 2.92 0 0 0 0-4.127L96.576 55.872a.973.973 0 0 0-1.376 0l-4.347 4.346a.975.975 0 0 0 0 1.377z"/><path fill="#B5D9F1" d="m108.857 73.69.705-.705a2.914 2.914 0 0 0 0-4.128L96.576 55.872a.973.973 0 0 0-1.376 0l-2.174 2.173 15.748 15.727z"/><path stroke="#004590" stroke-miterlimit="10" stroke-width="2" d="M109.562 68.858a2.915 2.915 0 0 1 0 4.128l-1.595 1.595a2.92 2.92 0 0 1-4.127 0L90.853 61.595a.975.975 0 0 1 0-1.377l4.349-4.346a.973.973 0 0 1 1.376 0z"/><path fill="#fff" stroke="#3598DB" stroke-width="2" d="m82.17 48.176-.697-.717.697.717a2.54 2.54 0 0 0 .774-1.822v-8.203a2.54 2.54 0 0 0-.774-1.822c-.395-.384-.9-.63-1.437-.71v-1.18a6.2 6.2 0 0 0-1.893-4.445 6.5 6.5 0 0 0-4.535-1.828 6.5 6.5 0 0 0-4.534 1.828 6.2 6.2 0 0 0-1.893 4.446v1.178a2.63 2.63 0 0 0-1.437.71 2.54 2.54 0 0 0-.774 1.823v8.203c0 .69.282 1.344.774 1.822.491.477 1.151.74 1.834.74h12.061c.683 0 1.343-.263 1.834-.74ZM76.723 34.44v1.148h-4.835V34.44c0-.606.248-1.193.698-1.63a2.47 2.47 0 0 1 1.72-.69c.65 0 1.268.25 1.72.69.45.437.697 1.024.697 1.63Zm-.64 7.92a1.778 1.778 0 1 1-3.555.001 1.778 1.778 0 0 1 3.555 0Z"/><path stroke="#B5D9F1" stroke-linecap="round" stroke-linejoin="round" stroke-width="2.204" d="m94.628 20.698 4.677-.922M87.56 16.103l.156-4.775m4.208 5.786 2.86-3.823"/><path stroke="#B5D9F1" stroke-linecap="round" stroke-linejoin="round" stroke-width="2.204" d="M44.833 12.119a2.045 2.045 0 0 0 2.043-2.048c0-1.13-.914-2.048-2.043-2.048a2.045 2.045 0 0 0-2.042 2.048c0 1.131.914 2.048 2.042 2.048" clip-rule="evenodd"/><defs><filter id="a" width="64.5" height="67.278" x="21.222" y="34.416" color-interpolation-filters="sRGB" filterUnits="userSpaceOnUse"><feFlood flood-opacity="0" result="BackgroundImageFix"/><feBlend in="SourceGraphic" in2="BackgroundImageFix" result="shape"/><feColorMatrix in="SourceAlpha" result="hardAlpha" values="0 0 0 0 0 0 0 0 0 0 0 0 0 0 0 0 0 0 127 0"/><feOffset dy="-4"/><feComposite in2="hardAlpha" k2="-1" k3="1" operator="arithmetic"/><feColorMatrix values="0 0 0 0 0.760784 0 0 0 0 0.878431 0 0 0 0 0.956863 0 0 0 1 0"/><feBlend in2="shape" result="effect1_innerShadow_843_97106"/></filter><filter id="b" width="51.676" height="51.64" x="28.167" y="41.361" color-interpolation-filters="sRGB" filterUnits="userSpaceOnUse"><feFlood flood-opacity="0" result="BackgroundImageFix"/><feBlend in="SourceGraphic" in2="BackgroundImageFix" result="shape"/><feColorMatrix in="SourceAlpha" result="hardAlpha" values="0 0 0 0 0 0 0 0 0 0 0 0 0 0 0 0 0 0 127 0"/><feOffset dx="6" dy="-6"/><feComposite in2="hardAlpha" k2="-1" k3="1" operator="arithmetic"/><feColorMatrix values="0 0 0 0 0.709804 0 0 0 0 0.85098 0 0 0 0 0.945098 0 0 0 1 0"/><feBlend in2="shape" result="effect1_innerShadow_843_97106"/></filter><filter id="c" width="7.52" height="13.644" x="25.389" y="46.664" color-interpolation-filters="sRGB" filterUnits="userSpaceOnUse"><feFlood flood-opacity="0" result="BackgroundImageFix"/><feBlend in="SourceGraphic" in2="BackgroundImageFix" result="shape"/><feColorMatrix in="SourceAlpha" result="hardAlpha" values="0 0 0 0 0 0 0 0 0 0 0 0 0 0 0 0 0 0 127 0"/><feOffset dx="3" dy="-4"/><feComposite in2="hardAlpha" k2="-1" k3="1" operator="arithmetic"/><feColorMatrix values="0 0 0 0 0.709804 0 0 0 0 0.85098 0 0 0 0 0.945098 0 0 0 1 0"/><feBlend in2="shape" result="effect1_innerShadow_843_97106"/></filter><filter id="d" width="7.52" height="13.644" x="25.389" y="75.32" color-interpolation-filters="sRGB" filterUnits="userSpaceOnUse"><feFlood flood-opacity="0" result="BackgroundImageFix"/><feBlend in="SourceGraphic" in2="BackgroundImageFix" result="shape"/><feColorMatrix in="SourceAlpha" result="hardAlpha" values="0 0 0 0 0 0 0 0 0 0 0 0 0 0 0 0 0 0 127 0"/><feOffset dx="3" dy="-4"/><feComposite in2="hardAlpha" k2="-1" k3="1" operator="arithmetic"/><feColorMatrix values="0 0 0 0 0.709804 0 0 0 0 0.85098 0 0 0 0 0.945098 0 0 0 1 0"/><feBlend in2="shape" result="effect1_innerShadow_843_97106"/></filter></defs></svg>