<svg xmlns="http://www.w3.org/2000/svg" width="64" height="64" fill="none"><g filter="url(#a)"><path fill="#fff" fill-rule="evenodd" d="M47.14 27.59v-8.71c0-8.66-6.99-15.68-15.613-15.68s-15.613 7.02-15.613 15.68v12.775q0 .291.01.581h5.79a10 10 0 0 1-.017-.58V18.88c0-5.452 4.401-9.872 9.83-9.872s9.83 4.42 9.83 9.872v8.71z" clip-rule="evenodd"/></g><path fill="#264887" d="M47.14 27.59v.8h.8v-.8zm-31.215 4.646-.8.029.028.771h.772zm5.788 0v.8h.848l-.049-.846zm19.645-4.646h-.8v.8h.8zm6.583 0v-8.71h-1.6v8.71zm0-8.71c0-9.099-7.346-16.48-16.414-16.48V4c8.178 0 14.814 6.659 14.814 14.88zM31.527 2.4c-9.068 0-16.413 7.381-16.413 16.48h1.6C16.714 10.658 23.35 4 31.527 4zM15.114 18.88v12.775h1.6V18.879zm0 12.775q0 .306.011.61l1.6-.058q-.011-.275-.01-.552zm.81 1.381h5.79v-1.6h-5.79zm6.588-.846a9 9 0 0 1-.015-.535h-1.6q0 .316.018.627zm-.015-.535V18.88h-1.6v12.775zm0-12.775c0-5.014 4.046-9.072 9.03-9.072v-1.6c-5.874 0-10.63 4.78-10.63 10.672zm9.03-9.072c4.984 0 9.03 4.058 9.03 9.072h1.6c0-5.891-4.755-10.672-10.63-10.672zm9.03 9.072v2.054h1.6V18.88zm0 2.054v1.963h1.6v-1.963zm0 1.963v2.179h1.6v-2.179zm0 2.179v2.312h1.6v-2.312zm0 2.312v.202h1.6v-.202zm.8 1.002h5.784v-1.6h-5.783z"/><g filter="url(#b)"><path fill="#fff" fill-rule="evenodd" d="M9.416 28.612a2.26 2.26 0 0 1 2.26-2.26h40.692a2.26 2.26 0 0 1 2.26 2.26V58a2.26 2.26 0 0 1-2.26 2.26H11.677A2.26 2.26 0 0 1 9.417 58z" clip-rule="evenodd"/></g><path stroke="#264887" stroke-dasharray="147.2 11.2 1.6 6.4" stroke-linecap="round" stroke-width="1.6" d="M9.416 28.612a2.26 2.26 0 0 1 2.26-2.26h40.692a2.26 2.26 0 0 1 2.26 2.26V58a2.26 2.26 0 0 1-2.26 2.26H11.677A2.26 2.26 0 0 1 9.417 58z" clip-rule="evenodd"/><path fill="#264887" d="M55.476 31.862H8.57c-.234 0-.424.358-.424.8s.19.8.424.8h46.907c.234 0 .424-.358.424-.8s-.19-.8-.424-.8m-.001 22.606H8.57c-.234 0-.424.358-.424.8s.19.8.424.8h46.907c.234 0 .424-.358.424-.8s-.19-.8-.424-.8"/><path stroke="#90C6EB" stroke-linecap="round" stroke-width="1.6" d="M17.894 45.935h31.947m-31.947 4.129h31.947m-31.947-8.256h31.947M17.894 37.68h31.947"/><g filter="url(#c)"><path fill="#fff" fill-rule="evenodd" d="M38.24 43.87a5.651 5.651 0 1 1-11.303.002 5.651 5.651 0 0 1 11.302-.001" clip-rule="evenodd"/></g><path stroke="#26417E" stroke-linecap="round" stroke-linejoin="round" stroke-width="1.6" d="M38.24 43.87a5.651 5.651 0 1 1-11.303.002 5.651 5.651 0 0 1 11.302-.001" clip-rule="evenodd"/><path stroke="#00A878" stroke-linecap="round" stroke-width="1.6" d="m30.61 44.436.639.58a.8.8 0 0 0 1.144-.073l1.89-2.202"/><path stroke="#264887" stroke-dasharray="1.6 9.6 262.4 8" stroke-linecap="round" stroke-width="1.6" d="M3.2 60.26h58.21"/><path stroke="#B5D9F1" stroke-linecap="round" stroke-linejoin="round" stroke-width="1.6" d="M53.333 14.667h3.186v3.186h-3.186zm-48-5.003L8.33 6.667l2.998 2.997-2.998 2.998zM2.8 30.8l3.027 3.027M5.72 30.8l-3.027 3.027"/><defs><filter id="a" width="32.827" height="30.636" x="15.114" y="2.4" color-interpolation-filters="sRGB" filterUnits="userSpaceOnUse"><feFlood flood-opacity="0" result="BackgroundImageFix"/><feBlend in="SourceGraphic" in2="BackgroundImageFix" result="shape"/><feColorMatrix in="SourceAlpha" result="hardAlpha" values="0 0 0 0 0 0 0 0 0 0 0 0 0 0 0 0 0 0 127 0"/><feOffset dx="-3.2"/><feComposite in2="hardAlpha" k2="-1" k3="1" operator="arithmetic"/><feColorMatrix values="0 0 0 0 0.760784 0 0 0 0 0.878431 0 0 0 0 0.956863 0 0 0 1 0"/><feBlend in2="shape" result="effect1_innerShadow_40_5879"/></filter><filter id="b" width="46.812" height="35.509" x="8.616" y="25.552" color-interpolation-filters="sRGB" filterUnits="userSpaceOnUse"><feFlood flood-opacity="0" result="BackgroundImageFix"/><feBlend in="SourceGraphic" in2="BackgroundImageFix" result="shape"/><feColorMatrix in="SourceAlpha" result="hardAlpha" values="0 0 0 0 0 0 0 0 0 0 0 0 0 0 0 0 0 0 127 0"/><feOffset dx="3.2" dy="-3.2"/><feComposite in2="hardAlpha" k2="-1" k3="1" operator="arithmetic"/><feColorMatrix values="0 0 0 0 0.709804 0 0 0 0 0.85098 0 0 0 0 0.945098 0 0 0 1 0"/><feBlend in2="shape" result="effect1_innerShadow_40_5879"/></filter><filter id="c" width="12.903" height="12.903" x="26.136" y="37.42" color-interpolation-filters="sRGB" filterUnits="userSpaceOnUse"><feFlood flood-opacity="0" result="BackgroundImageFix"/><feBlend in="SourceGraphic" in2="BackgroundImageFix" result="shape"/><feColorMatrix in="SourceAlpha" result="hardAlpha" values="0 0 0 0 0 0 0 0 0 0 0 0 0 0 0 0 0 0 127 0"/><feOffset dx="2.4" dy="-1.6"/><feComposite in2="hardAlpha" k2="-1" k3="1" operator="arithmetic"/><feColorMatrix values="0 0 0 0 0.709804 0 0 0 0 0.85098 0 0 0 0 0.945098 0 0 0 1 0"/><feBlend in2="shape" result="effect1_innerShadow_40_5879"/></filter></defs></svg>