<svg xmlns="http://www.w3.org/2000/svg" width="24" height="24" fill="none"><path fill="#40526D" d="M20.75 5.75H3.25A1.25 1.25 0 0 0 2 7v2.083a1.25 1.25 0 0 0 1.25 1.25h17.5A1.25 1.25 0 0 0 22 9.083V7a1.25 1.25 0 0 0-1.25-1.25M4.708 8.042a1.042 1.042 0 1 1 2.084 0 1.042 1.042 0 0 1-2.084 0m4.375 1.041a1.042 1.042 0 1 1 0-2.083 1.042 1.042 0 0 1 0 2.083m11.85-5.375-3.241-1.616A.8.8 0 0 0 17.317 2H6.683a.8.8 0 0 0-.375.092L3.067 3.708a.417.417 0 0 0 .183.792h17.5a.427.427 0 0 0 .183-.833zm-.183 7.875H3.25A1.25 1.25 0 0 0 2 12.833v2.084a1.25 1.25 0 0 0 1.25 1.25h17.5a1.25 1.25 0 0 0 1.25-1.25v-2.084a1.25 1.25 0 0 0-1.25-1.25M4.708 13.875a1.042 1.042 0 1 1 2.084 0 1.042 1.042 0 0 1-2.084 0m4.375 1.042a1.041 1.041 0 1 1 0-2.083 1.041 1.041 0 0 1 0 2.083m11.667 2.5H3.25A1.25 1.25 0 0 0 2 18.667v2.083A1.25 1.25 0 0 0 3.25 22h17.5A1.25 1.25 0 0 0 22 20.75v-2.083a1.25 1.25 0 0 0-1.25-1.25M4.708 19.708a1.042 1.042 0 1 1 2.084 0 1.042 1.042 0 0 1-2.084 0m4.375 1.042a1.041 1.041 0 1 1 0-2.083 1.041 1.041 0 0 1 0 2.083"/></svg>