<svg xmlns="http://www.w3.org/2000/svg" width="40" height="41" fill="none"><path fill="#47A1DE" d="M33.333 10.997H17.5a.84.84 0 0 1-.598-.255l-2.235-2.313a2.5 2.5 0 0 0-1.804-.765h-5.72a2.98 2.98 0 0 0-2.976 2.975v19.05a2.98 2.98 0 0 0 2.976 2.975h25.714a2.98 2.98 0 0 0 2.976-2.975V13.497a2.5 2.5 0 0 0-2.5-2.5"/><g fill="#fff" clip-path="url(#a)"><path d="m23.767 23.325-.434-.145c-.039 0-.094-.078-.133-.222a1.86 1.86 0 0 1 .044-1.083c.528-.556 1.04-1.295 1.04-3.073 0-1.938-1.323-2.777-2.64-2.777a3 3 0 0 0-.65.078.14.14 0 0 0-.1.094.14.14 0 0 0 0 .133c.582.701.888 1.59.862 2.5 0 1.823-.512 2.778-1.112 3.461a.1.1 0 0 0 0 .073.4.4 0 0 0 0 .083.14.14 0 0 0 .09.139c1.338.478 3.41 1.222 3.41 3.994v.928a.14.14 0 0 0 .079.145.1.1 0 0 0 .055.01h2.11a.28.28 0 0 0 .279-.277v-.834c0-2.194-1.54-2.738-2.9-3.227"/><path d="M23.333 26.553c0-2.195-1.539-2.74-2.9-3.228L20 23.18c-.039 0-.095-.078-.133-.222a1.86 1.86 0 0 1 .044-1.083c.528-.556 1.039-1.295 1.039-3.073 0-1.938-1.322-2.777-2.639-2.777s-2.617.839-2.617 2.778c0 1.777.511 2.494 1.04 3.066.125.358.14.745.044 1.111-.04.145-.095.206-.134.223l-.422.15c-1.355.455-2.889 1-2.889 3.2v.833a.28.28 0 0 0 .278.278h9.444a.28.28 0 0 0 .278-.278z"/></g><defs><clipPath id="a"><path fill="#fff" d="M13.333 15.164h13.333v13.333H13.333z"/></clipPath></defs></svg>