<svg xmlns="http://www.w3.org/2000/svg" width="60" height="40" fill="none"><path stroke="#B5D9F1" stroke-linecap="round" stroke-linejoin="round" d="M3.1 10 1 11.358l1.383 2.127 2.1-1.356z"/><path fill="#B5D9F1" d="m11.128 11.288 3.308.732z"/><path stroke="#B5D9F1" stroke-linecap="round" d="m11.128 11.288 3.308.732"/><path fill="#B5D9F1" d="m13.051 10.046-.68 3.308z"/><path stroke="#B5D9F1" stroke-linecap="round" d="m13.051 10.046-.68 3.308"/><path stroke="#B5D9F1" stroke-linecap="round" stroke-linejoin="round" d="m54.618 8.762-1.856-1.675-1.668 1.849 1.856 1.675z"/><path stroke="#B5D9F1" d="M55.25 17.5a1.25 1.25 0 1 0 0-2.5 1.25 1.25 0 0 0 0 2.5Z" clip-rule="evenodd"/><path fill="#D32D27" d="M34.453 17.735h6.11v7.52h-6.11z"/><g clip-path="url(#a)"><path fill="#fff" stroke="#264887" stroke-linecap="round" stroke-width="1.25" d="M37.105 4.625c1.705 0 3.34.68 4.546 1.894a6.5 6.5 0 0 1 1.885 4.575v3.514h1.409c.388 0 .76.155 1.035.432s.43.652.43 1.045v11.034c0 .393-.155.77-.43 1.046a1.46 1.46 0 0 1-1.035.432h-15.68a1.46 1.46 0 0 1-1.035-.432 1.48 1.48 0 0 1-.43-1.046V16.085c0-.393.155-.768.43-1.045a1.46 1.46 0 0 1 1.035-.432h1.41v-3.514c0-1.717.678-3.363 1.884-4.575a6.4 6.4 0 0 1 4.546-1.894Zm1.04 14.196a2.705 2.705 0 0 0-2.962.592 2.732 2.732 0 0 0 .412 4.193 2.71 2.71 0 0 0 3.43-.34 2.734 2.734 0 0 0-.88-4.445Zm-1.04-12.82a5.06 5.06 0 0 0-3.585 1.493 5.1 5.1 0 0 0-1.482 3.6v2.364a1.15 1.15 0 0 0 1.147 1.15h7.84a1.146 1.146 0 0 0 1.147-1.15v-2.364c0-1.35-.533-2.645-1.483-3.6a5.06 5.06 0 0 0-3.584-1.492Z"/></g><path fill="#B5D9F1" d="M50.772 24.617a2.2 2.2 0 0 0-.852.168l-10.035 4.077a3.3 3.3 0 0 1-1.254.245h-1.015a2.22 2.22 0 0 0 1.546-.67 2.245 2.245 0 0 0 0-3.136 2.22 2.22 0 0 0-1.546-.67H33.31c-3.585 0-2.747-3.918-9.055-3.918h-6.123v12.334a13.2 13.2 0 0 1 5.138.616l2.467.875a19.1 19.1 0 0 0 10.576.632c.63-.048 14.7-5.995 15.31-6.25a2.23 2.23 0 0 0 1.113-1.013 2.25 2.25 0 0 0-.552-2.786 2.22 2.22 0 0 0-1.413-.507z"/><path fill="#DAECF8" d="M23.316 23.094c6.31 0 5.47 3.917 9.056 3.917h4.304c.502 0 .99.17 1.383.484s.67.752.785 1.243a2.25 2.25 0 0 0 .1-3.663 2.22 2.22 0 0 0-1.328-.442H33.31c-3.585 0-2.747-3.917-9.055-3.917h-6.123v2.378z"/><path fill="#DAECF8" d="M53 26.854a2.25 2.25 0 0 0-.99-1.86 2.22 2.22 0 0 0-2.089-.207l-10.035 4.078a3.3 3.3 0 0 1-1.254.245H27.943c0 .551.214 1.082.596 1.478.382.397.902.628 1.45.646 9.723.318 10.322-.109 19.02-4.023a2.21 2.21 0 0 1 2.565.645c.2.245.346.531.427.838h.046a2.24 2.24 0 0 0 .952-1.84"/><path stroke="#264887" stroke-linecap="round" stroke-miterlimit="10" stroke-width="1.25" d="M37.616 29.11h-9.464"/><path stroke="#264887" stroke-linecap="round" stroke-linejoin="round" stroke-width="1.25" d="M50.772 24.617a2.2 2.2 0 0 0-.852.168l-10.035 4.077a3.3 3.3 0 0 1-1.254.245h-1.015a2.22 2.22 0 0 0 1.546-.67 2.245 2.245 0 0 0 0-3.136 2.22 2.22 0 0 0-1.546-.67H33.31c-3.585 0-2.747-3.918-9.055-3.918h-6.123v12.334a13.2 13.2 0 0 1 5.138.616l2.467.875a19.1 19.1 0 0 0 10.576.632c.63-.048 14.7-5.995 15.31-6.25a2.23 2.23 0 0 0 1.113-1.013 2.25 2.25 0 0 0-.552-2.786 2.22 2.22 0 0 0-1.413-.507z"/><path fill="#fff" d="M13.957 18h-6.12a.84.84 0 0 0-.837.84v15.667c0 .465.374.841.836.841h6.12a.84.84 0 0 0 .837-.84V18.84a.84.84 0 0 0-.836-.841"/><path stroke="#264887" stroke-linecap="round" stroke-linejoin="round" stroke-width="1.25" d="M13.957 18h-6.12a.84.84 0 0 0-.837.84v15.667c0 .465.374.841.836.841h6.12a.84.84 0 0 0 .837-.84V18.84a.84.84 0 0 0-.836-.841"/><path fill="#fff" stroke="#264887" stroke-linecap="round" stroke-linejoin="round" stroke-width="1.25" d="M14.793 34.228h2.504a.83.83 0 0 0 .591-.246.84.84 0 0 0 .245-.595V19.96a.84.84 0 0 0-.245-.594.83.83 0 0 0-.591-.246h-2.504z"/><defs><clipPath id="a"><path fill="#fff" d="M24.561 4h25.088v25.221H24.561z"/></clipPath></defs></svg>