<svg xmlns="http://www.w3.org/2000/svg" width="60" height="40" fill="none"><path fill="#B5D9F1" d="M33.587 32.036v-.15a5.276 5.276 0 0 0-10.552 0v.15a1.055 1.055 0 0 0 0 2.11c.022 0 .043-.005.065-.007.38 2.54 2.565 4.093 5.211 4.093s4.831-1.552 5.211-4.093c.022 0 .043.007.065.007a1.056 1.056 0 1 0 0-2.11"/><path fill="#90C6EB" d="M25.277 34.678a.66.66 0 1 0 0-1.32.66.66 0 0 0 0 1.32m6.068-.004a.66.66 0 1 0 0-1.319.66.66 0 0 0 0 1.319"/><path stroke="#264887" stroke-linecap="round" stroke-linejoin="round" stroke-width=".976" d="M26.724 35.36a2.3 2.3 0 0 0 3.174 0m-2.906-3.056a.86.86 0 0 0-1.587 0m5.812-.004a.86.86 0 0 0-1.588 0"/><path fill="#90C6EB" d="M33.187 29.866a7.25 7.25 0 0 0-4.252-1.847 4.8 4.8 0 0 0-1.248 0 7.25 7.25 0 0 0-4.251 1.847 5.279 5.279 0 0 1 9.75 0"/><path stroke="#264887" stroke-linecap="round" stroke-linejoin="round" stroke-width="1.25" d="M33.587 32.036v-.15a5.276 5.276 0 0 0-10.552 0v.15a1.055 1.055 0 0 0 0 2.11c.022 0 .043-.005.065-.007.38 2.54 2.565 4.093 5.211 4.093s4.831-1.552 5.211-4.093c.022 0 .043.007.065.007a1.056 1.056 0 1 0 0-2.11"/><path fill="#315CAE" stroke="#264887" stroke-linecap="round" stroke-linejoin="round" stroke-width=".976" d="M28.312 28.34c.846 0 1.532-.61 1.532-1.362s-.686-1.362-1.532-1.362c-.847 0-1.533.61-1.533 1.362s.686 1.362 1.533 1.362"/><path fill="#614B44" d="M27.798 25.252a4.5 4.5 0 0 0-.046-1.338 3.26 3.26 0 0 0-.866-1.69.131.131 0 0 1 .132-.218c.3.103.566.284.77.526.306.39.528.84.654 1.32.159.47.253.961.282 1.457"/><path stroke="#264887" stroke-linecap="round" stroke-linejoin="round" stroke-width=".976" d="M27.798 25.252a4.5 4.5 0 0 0-.046-1.338 3.26 3.26 0 0 0-.866-1.69.131.131 0 0 1 .132-.218c.3.103.566.284.77.526.306.39.528.84.654 1.32.159.47.253.961.282 1.457"/><path fill="#D7403A" stroke="#264887" stroke-linecap="round" stroke-linejoin="round" stroke-width=".976" d="M28.311 25.852a3.8 3.8 0 0 1 1.315-1.19.694.694 0 0 1 .967.446c.136.486.136 1 0 1.486a.69.69 0 0 1-.967.446 3.8 3.8 0 0 1-1.315-1.188"/><path fill="#D7403A" stroke="#264887" stroke-linecap="round" stroke-linejoin="round" stroke-width=".976" d="M28.312 25.852a3.8 3.8 0 0 0-1.315-1.189.693.693 0 0 0-.968.446c-.135.486-.135 1 0 1.486a.694.694 0 0 0 .968.446 3.8 3.8 0 0 0 1.314-1.189"/><path fill="#D7403A" stroke="#264887" stroke-linecap="round" stroke-linejoin="round" stroke-width=".976" d="M28.31 26.533a.68.68 0 1 0 .001-1.362.68.68 0 0 0 0 1.361"/><path fill="#B5D9F1" stroke="#264887" stroke-linecap="round" stroke-linejoin="round" stroke-width="1.25" d="M26.91 16.765a1.63 1.63 0 0 0-1.326-1.589v-1.06a7.949 7.949 0 0 0-15.897 0v1.06a1.622 1.622 0 0 0 .168 3.212 7.948 7.948 0 0 0 15.562 0 1.64 1.64 0 0 0 1.492-1.623"/><path fill="#90C6EB" d="M13.328 18.752a.994.994 0 1 0 0-1.987.994.994 0 0 0 0 1.987m8.611 0a.994.994 0 1 0 0-1.987.994.994 0 0 0 0 1.987"/><path stroke="#264887" stroke-linecap="round" stroke-linejoin="round" stroke-width=".998" d="M15.647 20.138a3.58 3.58 0 0 0 3.974 0"/><path fill="#264887" d="M13.961 9.624s3.975-1.987 5.962 0l3.973 3.974s1.987 1.987 4.637-.662l-1.324-.663 1.987-1.325s-1.325 0-2.65-1.987S23.236 3 18.6 3c-6.624 0-7.282 3.974-7.282 3.974z"/><path fill="#B5D9F1" d="M18.598 4.934c4.636 0 6.623 3.974 7.948 5.962.278.427.61.816.987 1.16l1.662-1.107s-1.325 0-2.65-1.988S23.235 3 18.599 3c-6.624 0-7.282 3.974-7.282 3.974l.608.61c.798-1.156 2.616-2.65 6.674-2.65"/><path fill="#264887" stroke="#264887" stroke-linecap="round" stroke-linejoin="round" stroke-width=".998" d="M13.961 9.624s3.975-1.987 5.962 0l3.973 3.974s1.987 1.987 4.637-.662l-1.324-.663 1.987-1.325s-1.325 0-2.65-1.987S23.236 3 18.6 3c-6.624 0-7.282 3.974-7.282 3.974z"/><path fill="#264887" d="M11.312 6.976S8 6.976 8 10.95c0 3.312 1.663 4.201 1.663 4.201s1.649-4.2 4.298-5.525z"/><path fill="#fff" d="m13.19 8.853-1.878-1.877S8 6.976 8 10.95q0 .395.03.747c1.045-2.285 3.875-2.965 5.16-2.844"/><path stroke="#264887" stroke-linecap="round" stroke-linejoin="round" stroke-width=".998" d="M11.312 6.976S8 6.976 8 10.95c0 3.312 1.663 4.201 1.663 4.201s1.649-4.2 4.298-5.525z"/><path fill="#264887" d="M14.652 16.158a.994.994 0 1 0 0-1.987.994.994 0 0 0 0 1.987m5.962-.001a.993.993 0 1 0 0-1.986.993.993 0 0 0 0 1.986"/><path fill="#B5D9F1" stroke="#264887" stroke-linecap="round" stroke-linejoin="round" stroke-width="1.25" d="M49 16.851a1.63 1.63 0 0 0-1.325-1.589v-1.06a7.949 7.949 0 1 0-15.897 0v1.06a1.622 1.622 0 0 0 .168 3.211 7.949 7.949 0 0 0 15.562 0A1.64 1.64 0 0 0 49 16.851"/><path fill="#90C6EB" d="M35.419 18.838a.993.993 0 1 0 0-1.987.993.993 0 0 0 0 1.987m8.611 0a.994.994 0 1 0 0-1.987.994.994 0 0 0 0 1.987"/><path stroke="#264887" stroke-linecap="round" stroke-linejoin="round" stroke-width=".998" d="M43.306 15.527a1.126 1.126 0 0 0-1.596 0m-5.567 0a1.126 1.126 0 0 1 1.596 0m3.973 4.631a3.31 3.31 0 0 1-3.975 0"/><path fill="#264887" d="M48.335 9.983a6.376 6.376 0 0 0-6.376-6.376h-8.103a1.325 1.325 0 0 0-.826 2.359l.685.549a3.96 3.96 0 0 0-2.602 3.715v3.975a.663.663 0 0 0 .663.662c1.396-.839 3.626-2.886 3.937-4.513a.403.403 0 0 1 .488-.299 2.18 2.18 0 0 1 1.816 1.855.4.4 0 0 0 .528.3 4.25 4.25 0 0 0 2.605-1.88.37.37 0 0 1 .44-.247c3.431 1.08 2.26 4.29 6.019 4.65a.663.663 0 0 0 .726-.659z"/><path fill="#B5D9F1" d="M41.959 3.604h-8.103a1.325 1.325 0 0 0-.827 2.36l.435.346q.193-.057.392-.057h8.102a6.376 6.376 0 0 1 6.377 6.377V9.983a6.376 6.376 0 0 0-6.376-6.38"/><path fill="#264887" stroke="#264887" stroke-linecap="round" stroke-linejoin="round" stroke-width=".998" d="M48.335 9.983a6.376 6.376 0 0 0-6.376-6.376h-8.103a1.325 1.325 0 0 0-.826 2.359l.685.549a3.96 3.96 0 0 0-2.602 3.715v3.975a.663.663 0 0 0 .663.662c1.396-.839 3.626-2.886 3.937-4.513a.403.403 0 0 1 .488-.299 2.18 2.18 0 0 1 1.816 1.855.4.4 0 0 0 .528.3 4.25 4.25 0 0 0 2.605-1.88.37.37 0 0 1 .44-.247c3.431 1.08 2.26 4.29 6.019 4.65a.663.663 0 0 0 .726-.659z"/><path stroke="#B5D9F1" stroke-linecap="round" stroke-linejoin="round" d="M11.156 30 9 31.392l1.42 2.184 2.156-1.392zM2.524 3 2 5.513l2.545.556.524-2.513z"/><path stroke="#B5D9F1" stroke-linecap="round" d="m45.131 29.323 3.398.752m-1.422-2.028-.7 3.398"/><path stroke="#B5D9F1" d="M56.25 6.5a1.25 1.25 0 1 0 0-2.5 1.25 1.25 0 0 0 0 2.5Z" clip-rule="evenodd"/></svg>