<svg xmlns="http://www.w3.org/2000/svg" width="24" height="24" fill="none"><path fill="#40526D" d="M9.75 12h-1a.25.25 0 0 1-.25-.25v-1a.76.76 0 0 0-.75-.75h-1.5a.76.76 0 0 0-.75.75v1a.25.25 0 0 1-.25.25h-1a.76.76 0 0 0-.75.75v1.5a.76.76 0 0 0 .75.75h1a.25.25 0 0 1 .25.25v1a.76.76 0 0 0 .75.75h1.5a.76.76 0 0 0 .75-.75v-1a.25.25 0 0 1 .25-.25h1a.76.76 0 0 0 .75-.75v-1.5a.76.76 0 0 0-.75-.75"/><path fill="#40526D" d="M24 4.5a2 2 0 0 0-2-2H2a2 2 0 0 0-2 2v15a2 2 0 0 0 2 2h20a2 2 0 0 0 2-2zm-21.5 15A.5.5 0 0 1 2 19V8.5a.5.5 0 0 1 .5-.5h19a.5.5 0 0 1 .5.5V19a.5.5 0 0 1-.5.5z"/><path fill="#40526D" d="M19.25 11.75H14.5a.75.75 0 1 0 0 1.5h4.75a.75.75 0 1 0 0-1.5m-1.25 3h-3.5a.75.75 0 1 0 0 1.5H18a.75.75 0 1 0 0-1.5"/></svg>