<svg xmlns="http://www.w3.org/2000/svg" width="24" height="24" fill="none"><g fill="#40526D" clip-path="url(#a)"><path d="M3.499 14.98a1 1 0 0 0 1-1V5.67A.67.67 0 0 1 5.167 5h13.654a.67.67 0 0 1 .67.67v8.31a1 1 0 0 0 2 0V5.67A2.68 2.68 0 0 0 18.821 3H5.168a2.68 2.68 0 0 0-2.669 2.67v8.31a1 1 0 0 0 1 1m20.381 1.71a.49.49 0 0 0-.39-.19h-7.996a.5.5 0 0 0-.5.5c0 .71-1.23 1.5-2.999 1.5s-2.999-.79-2.999-1.5a.5.5 0 0 0-.5-.5H.5a.49.49 0 0 0-.39.19.48.48 0 0 0-.09.43 5.76 5.76 0 0 0 5.598 4.38h12.755a5.756 5.756 0 0 0 5.617-4.38.48.48 0 0 0-.11-.43"/></g><defs><clipPath id="a"><path fill="#fff" d="M0 0h24v24H0z"/></clipPath></defs></svg>