<svg xmlns="http://www.w3.org/2000/svg" width="24" height="24" fill="none"><path fill="#40526D" d="M7.712 21.484a.217.217 0 0 0-.216-.209h-1.35a.53.53 0 0 1-.49-.35l-1.508-4.163a.23.23 0 0 0-.083-.116.22.22 0 0 0-.175 0q-.556.302-1.057.69A2.04 2.04 0 0 0 2 19.003v2.582a.416.416 0 0 0 .4.416h5.096a.216.216 0 0 0 .216-.208z"/><path fill="#40526D" d="M6.463 20.093a.21.21 0 0 0 .191.142h1.574a.516.516 0 0 1 .516.516v.716a.217.217 0 0 0 .367.142l1.665-1.774a.19.19 0 0 0 0-.283l-3.772-3.997a.19.19 0 0 0-.208-.058q-.815.213-1.599.524a.2.2 0 0 0-.117.267zm11.001.833a.53.53 0 0 1-.491.35h-1.35a.216.216 0 0 0-.216.208v.308a.217.217 0 0 0 .217.208h5.096a.416.416 0 0 0 .416-.416v-2.59a2.04 2.04 0 0 0-.833-1.665 8 8 0 0 0-1.057-.692.22.22 0 0 0-.175 0 .23.23 0 0 0-.125.125z"/><path fill="#40526D" d="M10.602 21.542a.216.216 0 0 0 .15.358h3.406a.217.217 0 0 0 .216-.208v-.941a.516.516 0 0 1 .516-.516h1.574a.21.21 0 0 0 .192-.142l1.382-3.805a.2.2 0 0 0-.117-.267q-.727-.286-1.482-.491a.19.19 0 0 0-.208.058zm-.075-3.656a.21.21 0 0 0 .042.225l.766.833c.04.04.093.064.15.067.06 0 .116-.025.158-.067l.832-.916a.19.19 0 0 0 0-.225l-.599-1.365a.441.441 0 0 0-.766 0z"/><path fill="#40526D" d="M5.572 10.1a.24.24 0 0 0-.167 0 .23.23 0 0 0-.066.16v.915a1.77 1.77 0 0 0 .99 1.665.22.22 0 0 1 .117.167q.015.17.1.316c.308.519.696.985 1.15 1.383a5.77 5.77 0 0 0 7.652.108 5.7 5.7 0 0 0 1.257-1.482c.057-.094.09-.2.1-.308a.22.22 0 0 1 .116-.167 1.78 1.78 0 0 0 1.008-1.599v-.916a.23.23 0 0 0-.075-.158.18.18 0 0 0-.167 0 39.4 39.4 0 0 1-6.003.466 39.4 39.4 0 0 1-6.012-.55m8.951 2.74a.21.21 0 0 1 .1.342q-.377.386-.833.674a4.1 4.1 0 0 1-2.231.65 4.16 4.16 0 0 1-2.265-.683 4.5 4.5 0 0 1-.783-.641.23.23 0 0 1-.05-.2.23.23 0 0 1 .167-.142 11.3 11.3 0 0 0 2.84-1.573.18.18 0 0 1 .224 0c.866.653 1.82 1.183 2.831 1.573M11.56 5.97a25.5 25.5 0 0 0 4.57-.424.25.25 0 0 0 .142-.1.18.18 0 0 0 0-.166l-.7-2.432a1.25 1.25 0 0 0-1.581-.783c-.78.3-1.599.482-2.432.542a8.4 8.4 0 0 1-2.39-.525 1.23 1.23 0 0 0-.94.067 1.3 1.3 0 0 0-.65.7l-.733 2.43a.2.2 0 0 0 0 .167.25.25 0 0 0 .142.1c1.508.278 3.038.42 4.571.425M3.906 8.719a.56.56 0 0 0 .433.35c2.387.459 4.813.688 7.245.682a38 38 0 0 0 7.236-.683.55.55 0 0 0 .424-.324.69.69 0 0 0-.083-.633c-.108-.2-.05-.417-1.665-1.524a.23.23 0 0 0-.192 0 24.4 24.4 0 0 1-5.745.633 27 27 0 0 1-5.83-.65.27.27 0 0 0-.157 0 5.1 5.1 0 0 0-1.574 1.54.68.68 0 0 0-.092.609"/></svg>