<svg xmlns="http://www.w3.org/2000/svg" width="16" height="16" fill="currentColor"><path d="M15.21 5.957a.98.98 0 0 0-.915-.64h-3.962L8.915 1.302a.977.977 0 0 0-1.834.012L5.667 5.318H1.705a.977.977 0 0 0-.627 1.726l3.354 2.78-1.407 4.222a.977.977 0 0 0 1.503 1.099L8 12.6l3.471 2.545a.976.976 0 0 0 1.504-1.096l-1.408-4.225 3.362-2.786a.98.98 0 0 0 .282-1.082M10.367 9.09a.67.67 0 0 0-.207.724l1.032 3.098a.166.166 0 0 1-.158.22.17.17 0 0 1-.098-.033l-2.542-1.865a.67.67 0 0 0-.788 0l-2.538 1.862a.167.167 0 0 1-.257-.187l1.032-3.098a.67.67 0 0 0-.207-.724L3.05 6.947a.167.167 0 0 1 .106-.296H6.14a.67.67 0 0 0 .63-.445L7.842 3.16a.167.167 0 0 1 .314 0L9.23 6.205a.67.67 0 0 0 .63.445h2.982a.167.167 0 0 1 .106.296z"/></svg>