<svg xmlns="http://www.w3.org/2000/svg" width="92" height="96" fill="none"><g filter="url(#a)"><path fill="#fff" fill-rule="evenodd" d="M1 5a4 4 0 0 1 4-4h82a4 4 0 0 1 4 4v82.363a4 4 0 0 1-4 4h-4.057a5.819 5.819 0 0 1-10.79 0H21.732a5.819 5.819 0 0 1-10.79 0H5a4 4 0 0 1-4-4z" clip-rule="evenodd"/></g><path fill="#264887" d="M82.943 91.363v-1h-.674l-.253.625zm-10.79 0 .928-.375-.253-.625h-.675zm-50.421 0v-1h-.674l-.253.625zm-10.79 0 .927-.375-.253-.625h-.674zM1.658 1.28a1 1 0 1 0 1.337 1.487zM2.87 2.887A1 1 0 0 0 1.45 1.48zM1.421 1.508a1 1 0 1 0 1.432 1.397zm1.347 1.487a1 1 0 0 0-1.487-1.337zM0 43.378a1 1 0 1 0 2 0zm2 3.019a1 1 0 1 0-2 0zm-2 .431a1 1 0 1 0 2 0zm2 2.156a1 1 0 1 0-2 0zm-.72 41.72a1 1 0 1 0 1.488-1.337zm1.607-1.211a1 1 0 0 0-1.408 1.42zM1.508 90.94a1 1 0 1 0 1.397-1.431zm1.487-1.347a1 1 0 0 0-1.337 1.488zm4.774 2.769a1 1 0 1 0 0-2zm.218-2a1 1 0 1 0 0 2zm.03 2a1 1 0 1 0 0-2zm.156-2a1 1 0 1 0 0 2zm4.126 4.313a1 1 0 0 0 1.186-1.61zm1.357-1.49a1 1 0 1 0-1.115 1.66zm-1.08 1.684a1 1 0 0 0 1.105-1.668zm1.231-1.587a1 1 0 0 0-1.052 1.701zm6.112 1.701a1 1 0 0 0-1.052-1.7zm-.876-1.815a1 1 0 1 0 1.125 1.654zm1.16 1.63a1 1 0 1 0-1.136-1.647zm-1.014-1.734a1 1 0 0 0 1.186 1.61zm26.038-.702a1 1 0 1 0 0-2zm1.848-2a1 1 0 1 0 0 2zm.264 2a1 1 0 1 0 0-2zm1.32-2a1 1 0 0 0 0 2zm24.851 4.313a1 1 0 0 0 1.186-1.61zm1.358-1.49a1 1 0 1 0-1.115 1.66zm-1.08 1.684a1 1 0 0 0 1.105-1.668zm1.23-1.587a1 1 0 0 0-1.052 1.701zm6.112 1.701a1 1 0 1 0-1.052-1.7zm-.876-1.815a1 1 0 0 0 1.125 1.654zm1.16 1.63a1 1 0 1 0-1.136-1.647zM80.4 93.065a1 1 0 1 0 1.186 1.61zm4.433-.702a1 1 0 1 0 0-2zm.15-2a1 1 0 1 0 0 2zm.02 2a1 1 0 1 0 0-2zm.107-2a1 1 0 1 0 0 2zm5.232.719a1 1 0 1 0-1.337-1.487zm-1.212-1.607a1 1 0 0 0 1.42 1.409zm1.449 1.38a1 1 0 1 0-1.432-1.398zm-1.347-1.488a1 1 0 0 0 1.487 1.337zM92 48.984a1 1 0 1 0-2 0zm-2-3.018a1 1 0 1 0 2 0zm2-.431a1 1 0 1 0-2 0zm-2-2.157a1 1 0 1 0 2 0zm.72-41.72a1 1 0 1 0-1.488 1.337zM89.112 2.87a1 1 0 0 0 1.408-1.42zm1.379-1.449a1 1 0 0 0-1.397 1.432zm-1.487 1.347a1 1 0 1 0 1.337-1.487zM48.79 0a1 1 0 1 0 0 2zm-3.006 2a1 1 0 1 0 0-2zm-.429-2a1 1 0 1 0 0 2zm-2.147 2a1 1 0 1 0 0-2zM5 0a5 5 0 0 0-3.342 1.28l1.337 1.488A3 3 0 0 1 5 2zM1.45 1.479l-.029.03 1.432 1.396.017-.018zm-.17.18A5 5 0 0 0 0 5h2c0-.771.29-1.473.768-2.005zM0 5v38.378h2V5zm0 41.397v.431h2v-.431zm0 2.587v38.379h2V48.984zm0 38.379c0 1.284.485 2.457 1.28 3.341l1.488-1.337A3 3 0 0 1 2 87.363zm1.479 3.55.03.028 1.396-1.431-.018-.017zm.18.169A5 5 0 0 0 5 92.362v-2c-.771 0-1.473-.29-2.005-.767zM5 92.362h2.769v-2H5zm2.987 0h.03v-2h-.03zm.186 0h2.77v-2h-2.77zm1.842-.624a6.84 6.84 0 0 0 2.284 2.938l1.186-1.61a4.84 4.84 0 0 1-1.616-2.078zm2.526 3.108.036.024 1.104-1.668-.025-.016zm.214.138A6.8 6.8 0 0 0 16.337 96v-2a4.8 4.8 0 0 1-2.53-.717zM16.337 96a6.8 6.8 0 0 0 3.582-1.016l-1.052-1.7a4.8 4.8 0 0 1-2.53.716zm3.83-1.177.035-.024-1.135-1.647-.024.017zm.208-.147a6.84 6.84 0 0 0 2.284-2.939l-1.854-.75a4.84 4.84 0 0 1-1.616 2.078zm1.357-2.313h23.495v-2H21.732zm25.343 0h.264v-2h-.264zm1.583 0h23.495v-2H48.658zm22.568-.626a6.84 6.84 0 0 0 2.284 2.939l1.186-1.61a4.84 4.84 0 0 1-1.615-2.078zm2.527 3.11.035.023 1.105-1.668-.025-.016zm.213.137A6.8 6.8 0 0 0 77.548 96v-2a4.8 4.8 0 0 1-2.53-.717zM77.548 96a6.8 6.8 0 0 0 3.582-1.016l-1.052-1.7a4.8 4.8 0 0 1-2.53.716zm3.83-1.177.036-.024-1.136-1.647-.024.017zm.208-.147a6.84 6.84 0 0 0 2.284-2.939l-1.854-.75a4.84 4.84 0 0 1-1.616 2.078zm1.357-2.313h1.89v-2h-1.89zm2.04 0h.02v-2h-.02zm.127 0H87v-2h-1.89zm1.89 0a5 5 0 0 0 3.342-1.281l-1.337-1.487a3 3 0 0 1-2.005.768zm3.55-1.48.029-.029-1.432-1.397-.017.018zm.17-.179A5 5 0 0 0 92 87.363h-2c0 .771-.29 1.472-.768 2.004zM92 87.363V48.984h-2v38.379zm0-41.397v-.431h-2v.43zm0-2.588V5h-2v38.378zM92 5a5 5 0 0 0-1.28-3.342l-1.488 1.337A3 3 0 0 1 90 5zm-1.479-3.55-.03-.029-1.396 1.432.018.017zm-.18-.17A5 5 0 0 0 87 0v2c.771 0 1.473.29 2.005.768zM87 0H48.79v2H87zM45.785 0h-.429v2h.43zM43.21 0H5v2h38.21z"/><g filter="url(#b)"><path fill="#fff" fill-rule="evenodd" d="M10.841 12a2 2 0 0 1 2-2h67.533a2 2 0 0 1 2 2v67.482a2 2 0 0 1-2 2H12.841a2 2 0 0 1-2-2z" clip-rule="evenodd"/></g><path stroke="#264887" stroke-linecap="round" stroke-linejoin="round" stroke-width="2" d="M10.841 12a2 2 0 0 1 2-2h67.533a2 2 0 0 1 2 2v67.482a2 2 0 0 1-2 2H12.841a2 2 0 0 1-2-2z" clip-rule="evenodd"/><g filter="url(#c)"><path fill="#fff" fill-rule="evenodd" d="M7 22.61a3.974 3.974 0 0 1 7.948 0v8.82a3.974 3.974 0 1 1-7.948 0z" clip-rule="evenodd"/></g><path stroke="#264887" stroke-linecap="round" stroke-linejoin="round" stroke-width="2" d="M7 22.61a3.974 3.974 0 0 1 7.948 0v8.82a3.974 3.974 0 1 1-7.948 0z" clip-rule="evenodd"/><g filter="url(#d)"><path fill="#fff" fill-rule="evenodd" d="M7 63.876a3.974 3.974 0 0 1 7.948 0v8.819a3.974 3.974 0 1 1-7.948 0z" clip-rule="evenodd"/></g><path stroke="#264887" stroke-linecap="round" stroke-linejoin="round" stroke-width="2" d="M7 63.876a3.974 3.974 0 0 1 7.948 0v8.819a3.974 3.974 0 1 1-7.948 0z" clip-rule="evenodd"/><path fill="#fff" d="M22 21h50v50H22z"/><path stroke="#00A878" stroke-linecap="round" stroke-linejoin="round" stroke-miterlimit="10" stroke-width="6" d="M60 36 40.7 55.6 34 49"/><defs><filter id="a" width="92" height="96" x="0" y="0" color-interpolation-filters="sRGB" filterUnits="userSpaceOnUse"><feFlood flood-opacity="0" result="BackgroundImageFix"/><feBlend in="SourceGraphic" in2="BackgroundImageFix" result="shape"/><feColorMatrix in="SourceAlpha" result="hardAlpha" values="0 0 0 0 0 0 0 0 0 0 0 0 0 0 0 0 0 0 127 0"/><feOffset dy="-4"/><feComposite in2="hardAlpha" k2="-1" k3="1" operator="arithmetic"/><feColorMatrix values="0 0 0 0 0.709804 0 0 0 0 0.85098 0 0 0 0 0.945098 0 0 0 1 0"/><feBlend in2="shape" result="effect1_innerShadow"/></filter><filter id="b" width="73.533" height="73.481" x="9.841" y="9" color-interpolation-filters="sRGB" filterUnits="userSpaceOnUse"><feFlood flood-opacity="0" result="BackgroundImageFix"/><feBlend in="SourceGraphic" in2="BackgroundImageFix" result="shape"/><feColorMatrix in="SourceAlpha" result="hardAlpha" values="0 0 0 0 0 0 0 0 0 0 0 0 0 0 0 0 0 0 127 0"/><feOffset dx="6" dy="-6"/><feComposite in2="hardAlpha" k2="-1" k3="1" operator="arithmetic"/><feColorMatrix values="0 0 0 0 0.709804 0 0 0 0 0.85098 0 0 0 0 0.945098 0 0 0 1 0"/><feBlend in2="shape" result="effect1_innerShadow"/></filter><filter id="c" width="9.948" height="18.767" x="6" y="17.637" color-interpolation-filters="sRGB" filterUnits="userSpaceOnUse"><feFlood flood-opacity="0" result="BackgroundImageFix"/><feBlend in="SourceGraphic" in2="BackgroundImageFix" result="shape"/><feColorMatrix in="SourceAlpha" result="hardAlpha" values="0 0 0 0 0 0 0 0 0 0 0 0 0 0 0 0 0 0 127 0"/><feOffset dx="3" dy="-4"/><feComposite in2="hardAlpha" k2="-1" k3="1" operator="arithmetic"/><feColorMatrix values="0 0 0 0 0.709804 0 0 0 0 0.85098 0 0 0 0 0.945098 0 0 0 1 0"/><feBlend in2="shape" result="effect1_innerShadow"/></filter><filter id="d" width="9.948" height="18.767" x="6" y="58.902" color-interpolation-filters="sRGB" filterUnits="userSpaceOnUse"><feFlood flood-opacity="0" result="BackgroundImageFix"/><feBlend in="SourceGraphic" in2="BackgroundImageFix" result="shape"/><feColorMatrix in="SourceAlpha" result="hardAlpha" values="0 0 0 0 0 0 0 0 0 0 0 0 0 0 0 0 0 0 127 0"/><feOffset dx="3" dy="-4"/><feComposite in2="hardAlpha" k2="-1" k3="1" operator="arithmetic"/><feColorMatrix values="0 0 0 0 0.709804 0 0 0 0 0.85098 0 0 0 0 0.945098 0 0 0 1 0"/><feBlend in2="shape" result="effect1_innerShadow"/></filter></defs></svg>