<svg xmlns="http://www.w3.org/2000/svg" width="92" height="94" fill="none"><path fill="#94B1E7" d="M32.53 65.356c17.966 0 32.53-14.603 32.53-32.617S50.496.122 32.53.122 0 14.725 0 32.74s14.564 32.617 32.53 32.617"/><path fill="url(#a)" d="M9.398 10.632C-4.156 24.222-.06 39.927 3.795 48.142l2.35 3.624 2.35 3.08 26.204 25.731 49.337-42.22L54.94 9l-3.072-2.537c-12.47-8.697-28.512-9.827-42.47 4.168"/><path stroke="#4C7DD7" stroke-linecap="round" stroke-width=".5" d="m41.975 10.185 1.8 1.805m-.064-1.805-1.8 1.805"/><path stroke="#4C7DD7" stroke-width=".5" d="M7.882 24.717c.698 0 1.263-.567 1.263-1.266s-.565-1.267-1.263-1.267c-.697 0-1.263.567-1.263 1.267 0 .699.566 1.266 1.263 1.266Z" clip-rule="evenodd"/><path stroke="#4C7DD7" stroke-linecap="round" stroke-linejoin="round" stroke-width=".5" d="m35.024 7.789 1.563-1.567 1.566 1.562-1.562 1.567z"/><path fill="#90C6EB" fill-rule="evenodd" stroke="#264887" stroke-width=".5" d="M20.887 19.946a4 4 0 0 1 4-4h15.498a4 4 0 0 1 4 4v21.535a6.22 6.22 0 0 1-6.221 6.22H27.107a6.22 6.22 0 0 1-6.22-6.22z" clip-rule="evenodd"/><path fill="#D32D27" fill-rule="evenodd" d="M33.433 45.428c-.3.3-.784.3-1.084 0a.77.77 0 0 1 0-1.087c.3-.3.785-.3 1.084 0s.3.787 0 1.087" clip-rule="evenodd"/><mask id="b" width="23" height="25" x="21" y="17" mask-type="alpha" maskUnits="userSpaceOnUse"><path fill="#fff" fill-rule="evenodd" d="M21.356 17.602h22.487v23.953H21.355z" clip-rule="evenodd"/></mask><g fill="#fff" fill-rule="evenodd" clip-rule="evenodd" mask="url(#b)"><path d="m10.765 35.878 34.81-14.776 1.8 4.242-34.81 14.775zm.399 6.577 34.795-14.81.998 2.358-34.795 14.809z"/></g><path fill="#90C6EB" stroke="#264887" stroke-width=".5" d="M39.787 29.19a3 3 0 0 1 3-3h1.662a3 3 0 0 1 3 3v14.68a3.831 3.831 0 1 1-7.662 0z"/><g filter="url(#c)"><rect width="12.771" height="12.805" x="37.233" y="30.799" fill="#fff" rx="6.221"/></g><rect width="12.771" height="12.805" x="37.233" y="30.799" stroke="#264887" stroke-dasharray="119.75 10.89 1.56 7.78" stroke-linecap="round" stroke-width=".5" rx="6.221"/><rect width="6.641" height="6.658" x="40.298" y="33.873" fill="#86C1E9" stroke="#3C4862" stroke-width=".5" rx="3.11"/><path fill="#fff" fill-rule="evenodd" d="m46.939 36.665-6.641 2.827V36.71l6.64-2.827z" clip-rule="evenodd"/><rect width="6.641" height="6.658" x="40.298" y="33.873" stroke="#264887" stroke-width=".5" rx="3.11"/><rect width=".511" height="3.585" x="51.024" y="35.409" fill="#D32D27" stroke="#D32D27" stroke-width=".5" rx=".255"/><g filter="url(#d)"><path fill="#fff" d="M15.409 21.89h11.003a2.03 2.03 0 0 1 2.035 2.04v23.5c0 1.134-.905 2.04-2.035 2.04H15.409a2.03 2.03 0 0 1-2.035-2.04v-23.5c.075-1.134.98-2.04 2.035-2.04"/></g><g filter="url(#e)"><path fill="#86C1E9" d="M28.447 26.423H13.45V44.71h14.997z"/></g><path stroke="#264887" stroke-linejoin="round" stroke-width=".5" d="M15.409 21.89h11.003a2.03 2.03 0 0 1 2.035 2.04v23.5c0 1.134-.905 2.04-2.035 2.04H15.409a2.03 2.03 0 0 1-2.035-2.04v-23.5c.075-1.134.98-2.04 2.035-2.04Z"/><path stroke="#264887" stroke-linejoin="round" stroke-width=".5" d="M28.447 26.423H13.45V44.71h14.997z"/><path stroke="#264887" stroke-linecap="round" stroke-linejoin="round" stroke-width=".5" d="M20.157 24.157h3.768"/><path fill="#264887" stroke="#264887" stroke-width=".5" d="M18.7 24.157a.354.354 0 1 1-.352-.355c.194 0 .353.158.353.355Z"/><path fill="#D32D27" d="M21.052 47.99a.896.896 0 0 0 .894-.897.896.896 0 1 0-.894.897"/><mask id="f" width="14" height="19" x="14" y="26" mask-type="alpha" maskUnits="userSpaceOnUse"><path fill="#fff" fill-rule="evenodd" d="M14.097 26.987h13.818v17.388H14.097z" clip-rule="evenodd"/></mask><g fill="#fff" fill-rule="evenodd" clip-rule="evenodd" mask="url(#f)"><path d="m-4.177 39.12 55.093-23.686 2.04 4.925-55.093 23.686zm.625 7.673 55.076-23.724 1.063 2.575L-2.49 49.37z"/></g><path fill="url(#g)" d="M9.398 10.632C-4.156 24.222-.06 39.927 3.795 48.142l2.35 3.624 2.35 3.08 26.204 25.731 49.337-42.22L54.94 9l-3.072-2.537c-12.47-8.697-28.512-9.827-42.47 4.168"/><g filter="url(#h)"><path fill="#DAECF8" fill-rule="evenodd" d="M57.47 90C75.436 90 90 75.397 90 57.383S75.436 24.766 57.47 24.766 24.94 39.37 24.94 57.383 39.503 90 57.47 90" clip-rule="evenodd"/></g><path fill="#90C6EB" fill-rule="evenodd" stroke="#264887" stroke-width=".5" d="M58.252 65.766a2.24 2.24 0 0 1 2.206-1.843h4.08a2.24 2.24 0 1 1 0 4.482h-4.08a2.24 2.24 0 0 1-2.206-2.64Z" clip-rule="evenodd"/><g filter="url(#i)"><path fill="#fff" fill-rule="evenodd" d="M45.036 43.952a3 3 0 0 1 3-3H76.96a3 3 0 0 1 3 3v18.092a3 3 0 0 1-3 3H49.684a4.65 4.65 0 0 1-4.648-4.648z" clip-rule="evenodd"/></g><path stroke="#264887" stroke-linecap="round" stroke-width=".5" d="M45.036 43.952a3 3 0 0 1 3-3H76.96a3 3 0 0 1 3 3v18.092a3 3 0 0 1-3 3H49.684a4.65 4.65 0 0 1-4.648-4.648z" clip-rule="evenodd"/><path fill="#90C6EB" fill-rule="evenodd" stroke="#264887" stroke-width=".5" d="M47.272 42.913h30.732V62.28H47.272z" clip-rule="evenodd"/><path fill="#fff" stroke="#264887" stroke-width=".5" d="M50.903 47.555a1 1 0 0 1 1-1H74.77a1 1 0 0 1 1 1V59.28a1 1 0 0 1-1 1H50.903z"/><path fill="#90C6EB" stroke="#90C6EB" stroke-width=".5" d="M51.86 49h5.308v10.645H51.86z"/><path fill="#90C6EB" d="M58.842 49h15.957v2H58.842z"/><path fill="#D32D27" fill-rule="evenodd" d="M52.144 48.113a.42.42 0 0 1 0-.594.42.42 0 0 1 .593 0 .42.42 0 0 1 0 .594.42.42 0 0 1-.593 0m1.989 0a.42.42 0 0 1-.592 0 .42.42 0 0 1 0-.594.42.42 0 0 1 .592 0 .42.42 0 0 1 0 .594m1.397 0a.42.42 0 0 1-.593 0 .42.42 0 0 1 0-.594.42.42 0 0 1 .593 0 .42.42 0 0 1 0 .594" clip-rule="evenodd"/><path fill="#90C6EB" fill-rule="evenodd" d="M57.888 56.961c0-.641.52-1.162 1.162-1.162h2.425c.642 0 1.162.52 1.162 1.162v.197c0 .642-.52 1.163-1.162 1.163H59.05c-.642 0-1.162-.52-1.162-1.163zM58.842 53a1 1 0 0 1 1-1h2.75a1 1 0 0 1 1 1v.521a1 1 0 0 1-1 1h-2.75a1 1 0 0 1-1-1z" clip-rule="evenodd"/><path fill="#90C6EB" fill-rule="evenodd" d="M58.842 56a1 1 0 0 1 1-1h2.75a1 1 0 0 1 1 1v.521a1 1 0 0 1-1 1h-2.75a1 1 0 0 1-1-1z" clip-rule="evenodd"/><rect width="4.75" height="2.521" x="64.09" y="52" fill="#90C6EB" rx="1"/><rect width="4.75" height="2.521" x="64.09" y="55" fill="#90C6EB" rx="1"/><rect width="4.75" height="2.521" x="69.339" y="52" fill="#90C6EB" rx="1"/><g filter="url(#j)"><path fill="#fff" d="M36.784 72.294h25.27V56.265a2 2 0 0 0-2-2h-21.27a2 2 0 0 0-2 2z"/></g><path stroke="#264887" stroke-linecap="round" stroke-width=".5" d="M36.784 72.294h25.27V56.265a2 2 0 0 0-2-2h-21.27a2 2 0 0 0-2 2z"/><path fill="#86C1E9" stroke="#264887" stroke-width=".5" d="M38.734 57.195h21.368v13.143H38.734z"/><mask id="k" width="21" height="13" x="39" y="58" mask-type="alpha" maskUnits="userSpaceOnUse"><path fill="#fff" stroke="#fff" stroke-width=".5" d="M39.893 58.75h-.25v11.5h19.449v-11.5h-19.2Z"/></mask><g fill="#fff" fill-rule="evenodd" clip-rule="evenodd" mask="url(#k)"><path d="m36.339 64.277 27.474-11.662.842 1.985-27.474 11.662zm.284 3.066L66.334 54.73l.468 1.102-29.711 12.612z"/></g><path fill="#D22D27" fill-rule="evenodd" d="M49.762 56.25a.485.485 0 0 1-.687 0 .49.49 0 0 1 0-.688.488.488 0 0 1 .687.689" clip-rule="evenodd"/><g filter="url(#l)"><path fill="#fff" d="M34.355 72.294h30.128v.419a2.017 2.017 0 0 1-2.017 2.017H36.371a2.017 2.017 0 0 1-2.017-2.017z"/></g><path stroke="#264887" stroke-width=".5" d="M34.355 72.294h30.128v.419a2.017 2.017 0 0 1-2.017 2.017H36.371a2.017 2.017 0 0 1-2.017-2.017z"/><rect width="7.289" height=".487" x="45.774" y="72.293" fill="#3C4862" stroke="#264887" stroke-width=".5" rx=".244"/><defs><filter id="c" width="13.271" height="13.305" x="36.983" y="30.549" color-interpolation-filters="sRGB" filterUnits="userSpaceOnUse"><feFlood flood-opacity="0" result="BackgroundImageFix"/><feBlend in="SourceGraphic" in2="BackgroundImageFix" result="shape"/><feColorMatrix in="SourceAlpha" result="hardAlpha" values="0 0 0 0 0 0 0 0 0 0 0 0 0 0 0 0 0 0 127 0"/><feOffset dx="-7.776" dy="-7.776"/><feComposite in2="hardAlpha" k2="-1" k3="1" operator="arithmetic"/><feColorMatrix values="0 0 0 0 0.760784 0 0 0 0 0.878431 0 0 0 0 0.956863 0 0 0 1 0"/><feBlend in2="shape" result="effect1_innerShadow"/></filter><filter id="d" width="15.073" height="27.581" x="13.374" y="21.89" color-interpolation-filters="sRGB" filterUnits="userSpaceOnUse"><feFlood flood-opacity="0" result="BackgroundImageFix"/><feBlend in="SourceGraphic" in2="BackgroundImageFix" result="shape"/><feColorMatrix in="SourceAlpha" result="hardAlpha" values="0 0 0 0 0 0 0 0 0 0 0 0 0 0 0 0 0 0 127 0"/><feOffset dx="-3.712" dy="-3.093"/><feComposite in2="hardAlpha" k2="-1" k3="1" operator="arithmetic"/><feColorMatrix values="0 0 0 0 0.760784 0 0 0 0 0.878431 0 0 0 0 0.956863 0 0 0 1 0"/><feBlend in2="shape" result="effect1_innerShadow"/></filter><filter id="e" width="14.997" height="18.287" x="13.45" y="26.423" color-interpolation-filters="sRGB" filterUnits="userSpaceOnUse"><feFlood flood-opacity="0" result="BackgroundImageFix"/><feBlend in="SourceGraphic" in2="BackgroundImageFix" result="shape"/><feColorMatrix in="SourceAlpha" result="hardAlpha" values="0 0 0 0 0 0 0 0 0 0 0 0 0 0 0 0 0 0 127 0"/><feOffset dx="-4.331"/><feComposite in2="hardAlpha" k2="-1" k3="1" operator="arithmetic"/><feColorMatrix values="0 0 0 0 0 0 0 0 0 0 0 0 0 0 0 0 0 0 0.1 0"/><feBlend in2="shape" result="effect1_innerShadow"/></filter><filter id="h" width="69.06" height="71.234" x="22.939" y="22.766" color-interpolation-filters="sRGB" filterUnits="userSpaceOnUse"><feFlood flood-opacity="0" result="BackgroundImageFix"/><feColorMatrix in="SourceAlpha" values="0 0 0 0 0 0 0 0 0 0 0 0 0 0 0 0 0 0 127 0"/><feOffset dy="1"/><feGaussianBlur stdDeviation="1"/><feColorMatrix values="0 0 0 0 0.113958 0 0 0 0 0.188601 0 0 0 0 0.28457 0 0 0 0.04 0"/><feBlend in2="BackgroundImageFix" result="effect1_dropShadow"/><feColorMatrix in="SourceAlpha" values="0 0 0 0 0 0 0 0 0 0 0 0 0 0 0 0 0 0 127 0"/><feOffset dy="2"/><feGaussianBlur stdDeviation="1"/><feColorMatrix values="0 0 0 0 0.113958 0 0 0 0 0.188601 0 0 0 0 0.28457 0 0 0 0.04 0"/><feBlend in2="effect1_dropShadow" result="effect2_dropShadow"/><feColorMatrix in="SourceAlpha" values="0 0 0 0 0 0 0 0 0 0 0 0 0 0 0 0 0 0 127 0"/><feOffset/><feGaussianBlur stdDeviation="1"/><feColorMatrix values="0 0 0 0 0.113958 0 0 0 0 0.188601 0 0 0 0 0.28457 0 0 0 0.16 0"/><feBlend in2="effect2_dropShadow" result="effect3_dropShadow"/><feBlend in="SourceGraphic" in2="effect3_dropShadow" result="shape"/></filter><filter id="i" width="35.423" height="24.591" x="44.786" y="40.702" color-interpolation-filters="sRGB" filterUnits="userSpaceOnUse"><feFlood flood-opacity="0" result="BackgroundImageFix"/><feBlend in="SourceGraphic" in2="BackgroundImageFix" result="shape"/><feColorMatrix in="SourceAlpha" result="hardAlpha" values="0 0 0 0 0 0 0 0 0 0 0 0 0 0 0 0 0 0 127 0"/><feOffset dx="-9.296" dy="-9.296"/><feComposite in2="hardAlpha" k2="-1" k3="1" operator="arithmetic"/><feColorMatrix values="0 0 0 0 0.709804 0 0 0 0 0.85098 0 0 0 0 0.945098 0 0 0 1 0"/><feBlend in2="shape" result="effect1_innerShadow"/></filter><filter id="j" width="25.769" height="18.528" x="36.534" y="54.016" color-interpolation-filters="sRGB" filterUnits="userSpaceOnUse"><feFlood flood-opacity="0" result="BackgroundImageFix"/><feBlend in="SourceGraphic" in2="BackgroundImageFix" result="shape"/><feColorMatrix in="SourceAlpha" result="hardAlpha" values="0 0 0 0 0 0 0 0 0 0 0 0 0 0 0 0 0 0 127 0"/><feOffset dx="-4.085" dy="-4.085"/><feComposite in2="hardAlpha" k2="-1" k3="1" operator="arithmetic"/><feColorMatrix values="0 0 0 0 0.760784 0 0 0 0 0.878431 0 0 0 0 0.956863 0 0 0 1 0"/><feBlend in2="shape" result="effect1_innerShadow"/></filter><filter id="l" width="30.628" height="2.936" x="34.105" y="72.043" color-interpolation-filters="sRGB" filterUnits="userSpaceOnUse"><feFlood flood-opacity="0" result="BackgroundImageFix"/><feBlend in="SourceGraphic" in2="BackgroundImageFix" result="shape"/><feColorMatrix in="SourceAlpha" result="hardAlpha" values="0 0 0 0 0 0 0 0 0 0 0 0 0 0 0 0 0 0 127 0"/><feOffset dx="-4.031" dy="-3.242"/><feComposite in2="hardAlpha" k2="-1" k3="1" operator="arithmetic"/><feColorMatrix values="0 0 0 0 0.760784 0 0 0 0 0.878431 0 0 0 0 0.956863 0 0 0 1 0"/><feBlend in2="shape" result="effect1_innerShadow"/></filter><linearGradient id="a" x1="21.687" x2="61.015" y1="25.853" y2="67.607" gradientUnits="userSpaceOnUse"><stop stop-color="#94B1E7"/><stop offset=".516" stop-color="#264887"/></linearGradient><linearGradient id="g" x1="21.687" x2="61.015" y1="25.853" y2="67.607" gradientUnits="userSpaceOnUse"><stop stop-color="#94B1E7" stop-opacity=".3"/><stop offset=".516" stop-color="#264887"/></linearGradient></defs></svg>