<svg xmlns="http://www.w3.org/2000/svg" width="90" height="90" fill="none"><path fill="#F7D8D7" d="M45 90c24.853 0 45-20.147 45-45S69.853 0 45 0 0 20.147 0 45s20.147 45 45 45"/><g filter="url(#a)"><path fill="#86C1E9" d="M41.04 61.499V47.766a1.69 1.69 0 0 0-1.686-1.685H16.185a1.69 1.69 0 0 0-1.685 1.685v13.733z"/></g><mask id="b" width="26" height="15" x="15" y="46" mask-type="alpha" maskUnits="userSpaceOnUse"><rect width="26" height="15" x="15" y="46" fill="#C4C4C4" rx="2"/></mask><g fill="#fff" fill-rule="evenodd" clip-rule="evenodd" mask="url(#b)"><path d="m10.898 54.539 35.847-15.99 1.097 2.716-35.847 15.99zm.37 4.193 38.765-17.291.61 1.509-38.766 17.29z"/></g><g filter="url(#c)"><path fill="#fff" d="M41.04 61.499v3.454a1.69 1.69 0 0 1-1.686 1.685H16.185a1.69 1.69 0 0 1-1.685-1.685v-3.455z"/></g><path stroke="#264887" stroke-linecap="round" stroke-linejoin="round" d="M41.04 61.499v3.454a1.69 1.69 0 0 1-1.686 1.685H16.185a1.69 1.69 0 0 1-1.685-1.685v-3.455z"/><path fill="#D32D27" d="M28.969 64c0 .555-.445 1-1 1-.556 0-1-.445-1-1 0-.556.444-1 1-1 .555 0 1 .444 1 1"/><g filter="url(#d)"><path fill="#fff" d="M32.023 70.008h-8.51l.422-3.37h7.667z"/></g><path stroke="#264887" stroke-linecap="round" stroke-linejoin="round" d="M32.023 70.008h-8.51l.422-3.37h7.667zm-11.121.242h13.733m6.405-8.751V47.766a1.69 1.69 0 0 0-1.686-1.685H16.185a1.69 1.69 0 0 0-1.685 1.685v13.733z"/><g filter="url(#e)"><path fill="#fff" d="M56.505 14.149h12.301a2.265 2.265 0 0 1 2.275 2.275v26.202a2.265 2.265 0 0 1-2.275 2.275h-12.3a2.265 2.265 0 0 1-2.276-2.275V16.424c.085-1.264 1.096-2.275 2.275-2.275"/></g><g filter="url(#f)"><path fill="#86C1E9" d="M71.08 19.204H54.316v20.389H71.08z"/></g><mask id="g" width="16" height="19" x="55" y="20" mask-type="alpha" maskUnits="userSpaceOnUse"><path fill="#fff" fill-rule="evenodd" d="M55 20h16v19H55z" clip-rule="evenodd"/></mask><g fill="#fff" fill-rule="evenodd" clip-rule="evenodd" mask="url(#g)"><path d="m35.335 33.629 61.612-17.272 1.488 2.384-61.612 17.271zm.706 3.552 61.612-17.273.836 1.337-61.613 17.273z"/></g><path stroke="#264887" stroke-linejoin="round" d="M56.505 14.149h12.301a2.265 2.265 0 0 1 2.275 2.275v26.202a2.265 2.265 0 0 1-2.275 2.275h-12.3a2.265 2.265 0 0 1-2.276-2.275V16.424c.085-1.264 1.096-2.275 2.275-2.275Z"/><path stroke="#264887" stroke-linejoin="round" d="M71.08 19.204H54.316v20.389H71.08z"/><path stroke="#264887" stroke-linecap="round" stroke-linejoin="round" d="M61.813 16.677h4.212"/><path fill="#264887" stroke="#264887" stroke-width=".977" d="M59.977 16.677a.185.185 0 1 1-.371 0 .185.185 0 0 1 .37 0Z"/><path fill="#D32D27" d="M62.813 43.25a1 1 0 1 0 0-2 1 1 0 0 0 0 2"/><path fill="#D32D27" stroke="#F7D8D7" stroke-linecap="round" stroke-linejoin="round" d="M52.218 78.312q-.758 0-1.263-.505l-4.887-4.887c-.674-.674-.674-1.77 0-2.528l4.887-4.886c.674-.674 1.853-.674 2.527 0a1.73 1.73 0 0 1 0 2.443l-1.6 1.685c9.351-1.432 16.934-8.51 18.872-17.861a1.71 1.71 0 0 1 2.106-1.348 1.71 1.71 0 0 1 1.348 2.106C71.933 63.652 62.75 71.993 51.46 73.257l2.022 2.022c.674.674.674 1.77 0 2.528q-.505.505-1.264.505m-33.6-38.692a1.71 1.71 0 0 1-1.348-2.106c2.275-11.122 11.46-19.464 22.748-20.726l-2.106-2.022c-.674-.674-.758-1.77-.084-2.528.674-.674 1.77-.758 2.527-.084l.085.084 4.886 4.887c.674.674.674 1.769 0 2.527l-4.886 4.803c-.674.674-1.77.758-2.528 0-.674-.674-.758-1.77 0-2.528l1.6-1.6c-9.351 1.432-16.934 8.509-18.872 17.86a1.723 1.723 0 0 1-2.022 1.433"/><defs><filter id="a" width="26.539" height="15.418" x="14.5" y="46.081" color-interpolation-filters="sRGB" filterUnits="userSpaceOnUse"><feFlood flood-opacity="0" result="BackgroundImageFix"/><feBlend in="SourceGraphic" in2="BackgroundImageFix" result="shape"/><feColorMatrix in="SourceAlpha" result="hardAlpha" values="0 0 0 0 0 0 0 0 0 0 0 0 0 0 0 0 0 0 127 0"/><feOffset dx="-3"/><feComposite in2="hardAlpha" k2="-1" k3="1" operator="arithmetic"/><feColorMatrix values="0 0 0 0 0 0 0 0 0 0 0 0 0 0 0 0 0 0 0.1 0"/><feBlend in2="shape" result="effect1_innerShadow"/></filter><filter id="c" width="27.539" height="6.139" x="14" y="60.998" color-interpolation-filters="sRGB" filterUnits="userSpaceOnUse"><feFlood flood-opacity="0" result="BackgroundImageFix"/><feBlend in="SourceGraphic" in2="BackgroundImageFix" result="shape"/><feColorMatrix in="SourceAlpha" result="hardAlpha" values="0 0 0 0 0 0 0 0 0 0 0 0 0 0 0 0 0 0 127 0"/><feOffset dx="-3.5" dy="-3.5"/><feComposite in2="hardAlpha" k2="-1" k3="1" operator="arithmetic"/><feColorMatrix values="0 0 0 0 0.760784 0 0 0 0 0.878431 0 0 0 0 0.956863 0 0 0 1 0"/><feBlend in2="shape" result="effect1_innerShadow"/></filter><filter id="d" width="9.509" height="4.37" x="23.014" y="66.138" color-interpolation-filters="sRGB" filterUnits="userSpaceOnUse"><feFlood flood-opacity="0" result="BackgroundImageFix"/><feBlend in="SourceGraphic" in2="BackgroundImageFix" result="shape"/><feColorMatrix in="SourceAlpha" result="hardAlpha" values="0 0 0 0 0 0 0 0 0 0 0 0 0 0 0 0 0 0 127 0"/><feOffset dx="-3.5" dy="-3.5"/><feComposite in2="hardAlpha" k2="-1" k3="1" operator="arithmetic"/><feColorMatrix values="0 0 0 0 0.760784 0 0 0 0 0.878431 0 0 0 0 0.956863 0 0 0 1 0"/><feBlend in2="shape" result="effect1_innerShadow"/></filter><filter id="e" width="16.85" height="30.752" x="54.23" y="14.149" color-interpolation-filters="sRGB" filterUnits="userSpaceOnUse"><feFlood flood-opacity="0" result="BackgroundImageFix"/><feBlend in="SourceGraphic" in2="BackgroundImageFix" result="shape"/><feColorMatrix in="SourceAlpha" result="hardAlpha" values="0 0 0 0 0 0 0 0 0 0 0 0 0 0 0 0 0 0 127 0"/><feOffset dx="-3" dy="-2.5"/><feComposite in2="hardAlpha" k2="-1" k3="1" operator="arithmetic"/><feColorMatrix values="0 0 0 0 0.760784 0 0 0 0 0.878431 0 0 0 0 0.956863 0 0 0 1 0"/><feBlend in2="shape" result="effect1_innerShadow"/></filter><filter id="f" width="16.766" height="20.389" x="54.315" y="19.204" color-interpolation-filters="sRGB" filterUnits="userSpaceOnUse"><feFlood flood-opacity="0" result="BackgroundImageFix"/><feBlend in="SourceGraphic" in2="BackgroundImageFix" result="shape"/><feColorMatrix in="SourceAlpha" result="hardAlpha" values="0 0 0 0 0 0 0 0 0 0 0 0 0 0 0 0 0 0 127 0"/><feOffset dx="-3.5"/><feComposite in2="hardAlpha" k2="-1" k3="1" operator="arithmetic"/><feColorMatrix values="0 0 0 0 0 0 0 0 0 0 0 0 0 0 0 0 0 0 0.1 0"/><feBlend in2="shape" result="effect1_innerShadow"/></filter></defs></svg>