<svg xmlns="http://www.w3.org/2000/svg" width="16" height="16" fill="none"><g fill="#40526D" clip-path="url(#a)"><path d="M4.667 8.607a.667.667 0 0 0-.914 0 .667.667 0 0 0 0 .92l.227.226a.327.327 0 0 1 0 .46l-3.6 3.574a1.3 1.3 0 0 0-.38.92 1.27 1.27 0 0 0 .38.913 1.27 1.27 0 0 0 .913.38 1.3 1.3 0 0 0 .92-.38l3.574-3.573A.32.32 0 0 1 6 11.953c.087 0 .17.033.233.094l.227.226a.667.667 0 0 0 .92 0 .666.666 0 0 0 0-.913zm8.3-4.194a1 1 0 0 0 .28.04h.086a1.09 1.09 0 0 0 .807-.454l1.28-1.706a.727.727 0 0 0-.087-.96l-.666-.667a.72.72 0 0 0-.947-.1L12 1.786a1.08 1.08 0 0 0-.473.813c-.013.151.005.303.053.447a.33.33 0 0 1-.08.333L8.72 6.126a.16.16 0 0 1-.233 0L6.34 4a.32.32 0 0 1-.08-.313A2.92 2.92 0 0 0 2.667.1a.32.32 0 0 0-.127.567l.967.94c.052.052.085.12.093.193l.113 1.034a.3.3 0 0 1-.093.266.32.32 0 0 1-.287.094L2.327 3.08a.35.35 0 0 1-.194-.093L1.167 2a.33.33 0 0 0-.314-.08.32.32 0 0 0-.233.227 2.93 2.93 0 0 0 .753 2.833 2.91 2.91 0 0 0 2.82.754.33.33 0 0 1 .314.086l2.16 2.14a.18.18 0 0 1 0 .24l-.114.107a.493.493 0 0 0 0 .667l.46.46a.48.48 0 0 0 .347.14.46.46 0 0 0 .34-.14L12.667 4.5a.32.32 0 0 1 .3-.086m2.18 6.086a2.9 2.9 0 0 0-2.82-.76.32.32 0 0 1-.314-.08L10.56 8.207a.34.34 0 0 0-.46 0L8.727 9.58a.327.327 0 0 0 0 .46l1.453 1.454a.33.33 0 0 1 .087.313 2.9 2.9 0 0 0 .753 2.82c.55.544 1.293.85 2.067.853q.383 0 .753-.1a.32.32 0 0 0 .227-.233.33.33 0 0 0-.08-.313l-.974-.967a.3.3 0 0 1-.093-.194l-.113-1.006a.32.32 0 0 1 .093-.26.3.3 0 0 1 .267-.094l1.033.114c.072.007.138.04.187.093l.946.94a.32.32 0 0 0 .54-.147 2.93 2.93 0 0 0-.726-2.813"/></g><defs><clipPath id="a"><path fill="#fff" d="M0 0h16v16H0z"/></clipPath></defs></svg>