<svg xmlns="http://www.w3.org/2000/svg" width="16" height="16" fill="none"><g fill="#40526D" clip-path="url(#a)"><path d="M12.968 5H3.031a.333.333 0 0 0-.333.363l.858 9.424A1.333 1.333 0 0 0 4.884 16h6.231a1.334 1.334 0 0 0 1.328-1.213l.857-9.424A.334.334 0 0 0 12.968 5m-6.133 8.667a.5.5 0 1 1-1 0v-6a.5.5 0 1 1 1 0zm3.333 0a.5.5 0 0 1-1 0v-6a.5.5 0 1 1 1 0zm4.499-11H11.5a.167.167 0 0 1-.167-.167v-.833A1.667 1.667 0 0 0 9.667 0H6.333a1.667 1.667 0 0 0-1.666 1.667V2.5a.167.167 0 0 1-.167.167H1.333a.667.667 0 1 0 0 1.333h13.334a.667.667 0 1 0 0-1.333M6 2.5v-.833a.333.333 0 0 1 .333-.334h3.334a.333.333 0 0 1 .333.334V2.5a.167.167 0 0 1-.167.167H6.167A.167.167 0 0 1 6 2.5"/></g><defs><clipPath id="a"><path fill="#fff" d="M0 0h16v16H0z"/></clipPath></defs></svg>