<svg xmlns="http://www.w3.org/2000/svg" width="16" height="16" fill="none"><g fill="#40526D" clip-path="url(#a)"><path d="M.889 4.707a.81.81 0 0 0 .808-.808V2.662a1.05 1.05 0 0 1 1.047-1.046h10.512a1.05 1.05 0 0 1 1.047 1.046V3.9a.808.808 0 1 0 1.616 0V2.662a2.667 2.667 0 0 0-2.663-2.666H2.744A2.667 2.667 0 0 0 .077 2.662V3.9a.81.81 0 0 0 .812.808"/><path d="M8 16a1.293 1.293 0 0 0 1.293-1.293V8.663a.167.167 0 0 1 .166-.166h1.773a.647.647 0 0 0 .488-1.071L8.488 3.709a.646.646 0 0 0-.976 0L4.28 7.426a.647.647 0 0 0 .488 1.07h1.773a.167.167 0 0 1 .166.167v6.044A1.293 1.293 0 0 0 8 16"/></g><defs><clipPath id="a"><path fill="#fff" d="M16 16H0V0h16z"/></clipPath></defs></svg>