<svg xmlns="http://www.w3.org/2000/svg" width="16" height="16" fill="none"><g clip-path="url(#a)"><rect width="16" height="16" fill="#40526D" rx="2"/><path fill="#fff" fill-rule="evenodd" d="M13.508 5.114a.393.393 0 1 1 .787 0v5.77a.394.394 0 0 1-.787 0zM2.885 9.181a1.18 1.18 0 1 0 0-2.36 1.18 1.18 0 0 0 0 2.36m3.935 0a1.18 1.18 0 1 0 0-2.36 1.18 1.18 0 0 0 0 2.36m3.934 0a1.18 1.18 0 1 0 0-2.36 1.18 1.18 0 0 0 0 2.36" clip-rule="evenodd"/></g><defs><clipPath id="a"><path fill="#fff" d="M0 0h16v16H0z"/></clipPath></defs></svg>