<svg xmlns="http://www.w3.org/2000/svg" width="16" height="16" fill="none"><path fill="#40526D" fill-rule="evenodd" d="M9.914 13.117v-.002q.197-.081.39-.179a5.5 5.5 0 0 0 1.87-8.263.334.334 0 0 0-.502-.03l-.206.205a.5.5 0 0 1-.84-.24l-.566-2.452a.52.52 0 0 1 .6-.6l2.451.566.002-.002a.5.5 0 0 1 .24.84l-.257.259a.334.334 0 0 0-.022.45 6.833 6.833 0 0 1-2.656 10.679v.002a6.8 6.8 0 0 1-2.058.509.667.667 0 0 1-.116-1.328 5.5 5.5 0 0 0 1.67-.414M5.016 1.967a6.8 6.8 0 0 1 2.335-.631.667.667 0 0 1 .116 1.328 5.5 5.5 0 0 0-1.615.39 5 5 0 0 0-.332.15v-.001l-.08.039a5.5 5.5 0 0 0-1.87 8.263.333.333 0 0 0 .503.03l.206-.205a.5.5 0 0 1 .838.239l.565 2.45a.5.5 0 0 1-.6.6l-2.451-.565a.5.5 0 0 1-.24-.84l.256-.257a.333.333 0 0 0 .021-.45 6.833 6.833 0 0 1 2.348-10.54" clip-rule="evenodd"/></svg>