<svg xmlns="http://www.w3.org/2000/svg" width="16" height="16" fill="none"><path fill="#40526D" d="M2.749 5.534a.167.167 0 0 1 .104.284L.673 8a.647.647 0 0 0 0 .916l1.188 1.19a.332.332 0 0 0 .518-.059q.152-.242.354-.443a2.593 2.593 0 1 1 3.223 4.02.333.333 0 0 0-.059.518l1.19 1.19a.65.65 0 0 0 .916 0l2.182-2.182a.166.166 0 0 1 .284.104 2.582 2.582 0 0 0 4.755 1.187 2.595 2.595 0 0 0-.351-3.23 2.55 2.55 0 0 0-1.619-.74.167.167 0 0 1-.105-.285L15.33 8a.65.65 0 0 0 0-.916l-1.19-1.189a.333.333 0 0 0-.518.059q-.152.243-.354.446a2.592 2.592 0 1 1-3.224-4.02.334.334 0 0 0 .06-.518L8.915.672a.65.65 0 0 0-.916 0L5.818 2.854a.167.167 0 0 1-.285-.105A2.58 2.58 0 0 0 .78 1.564a2.595 2.595 0 0 0 .354 3.23 2.55 2.55 0 0 0 1.616.74"/></svg>