<svg xmlns="http://www.w3.org/2000/svg" width="16" height="16" fill="none"><path fill="#40526D" d="M14.833 15.9a.667.667 0 1 0 0-1.334.667.667 0 0 0 0 1.334m-2.666-2a.667.667 0 1 0 0-1.333.667.667 0 0 0 0 1.333m-3.334 2a.667.667 0 1 0 0-1.334.667.667 0 0 0 0 1.334m-3-2a.667.667 0 1 0 0-1.334.667.667 0 0 0 0 1.334m-2.666 2a.667.667 0 1 0 0-1.333.667.667 0 0 0 0 1.333m-2-2a.667.667 0 1 0 0-1.333.667.667 0 0 0 0 1.333m10.606-7.48a3.49 3.49 0 0 0-4.22-.56.33.33 0 0 1-.4-.054L1.64.293a.667.667 0 0 0-.973 0 .667.667 0 0 0 0 .94l5.52 5.52a.33.33 0 0 1 .053.4 3.5 3.5 0 0 0 .553 4.213l1.774 1.774a.34.34 0 0 0 .466 0l.24-.24a.333.333 0 0 0 0-.467L8 11.133a.5.5 0 0 1 .707-.707l1.293 1.3a.34.34 0 0 0 .467 0l.24-.24a.34.34 0 0 0 0-.473L9.373 9.72a.5.5 0 0 1 .707-.707l1.3 1.293a.32.32 0 0 0 .467 0l.24-.233a.34.34 0 0 0 0-.473l-1.334-1.294a.5.5 0 0 1 .707-.706l1.3 1.293a.3.3 0 0 0 .233.1.33.33 0 0 0 .24-.1l.234-.233a.34.34 0 0 0 0-.474z"/></svg>