<svg xmlns="http://www.w3.org/2000/svg" width="16" height="16" fill="none"><g fill="#40526D" clip-path="url(#a)"><path d="M12.667 5.867a.17.17 0 0 0 .153-.1.18.18 0 0 0 0-.18 6.6 6.6 0 0 0-1.42-1.233.17.17 0 0 1-.061-.185.2.2 0 0 1 .034-.062 4.35 4.35 0 0 0 .894-1.9 1.166 1.166 0 1 0-1.334-.133A3 3 0 0 1 10 3.6a.17.17 0 0 1-.16.04 6.3 6.3 0 0 0-3.667 0 .2.2 0 0 1-.16 0A3.03 3.03 0 0 1 5.1 2.107a1.15 1.15 0 0 0 .4-.907 1.167 1.167 0 1 0-1.74 1.007 4.36 4.36 0 0 0 .907 1.9.2.2 0 0 1 0 .133.17.17 0 0 1-.074.114 6.5 6.5 0 0 0-1.4 1.233.18.18 0 0 0 0 .18.17.17 0 0 0 .14.1zM7.5 7.2a.333.333 0 0 0-.333-.334H3.333a.3.3 0 0 1-.133-.033L1.267 6a.667.667 0 1 0-.54 1.22l.98.433a.327.327 0 0 1 .186.393q-.096.36-.153.727a.34.34 0 0 1-.333.287h-.74a.667.667 0 0 0 0 1.333h.74a.34.34 0 0 1 .333.28q.075.479.22.94a.327.327 0 0 1-.173.4l-.967.473a.667.667 0 0 0 .58 1.2l.973-.48a.34.34 0 0 1 .42.114 6.37 6.37 0 0 0 4.327 2.666.36.36 0 0 0 .267-.08.33.33 0 0 0 .113-.253zm1 8.434a.333.333 0 0 0 .38.333 6.37 6.37 0 0 0 4.327-2.666.34.34 0 0 1 .42-.114l.973.48a.667.667 0 1 0 .58-1.2l-.967-.466a.327.327 0 0 1-.173-.4q.145-.46.22-.934a.33.33 0 0 1 .333-.28h.74a.667.667 0 1 0 0-1.333h-.74a.34.34 0 0 1-.333-.287 7 7 0 0 0-.153-.766.327.327 0 0 1 .186-.394l.98-.433a.667.667 0 0 0 .34-.887.667.667 0 0 0-.88-.286l-1.94.86a.3.3 0 0 1-.133.033H8.833a.333.333 0 0 0-.333.333z"/></g><defs><clipPath id="a"><path fill="#fff" d="M0 0h16v16H0z"/></clipPath></defs></svg>