<svg xmlns="http://www.w3.org/2000/svg" width="16" height="16" fill="none"><g fill="#40526D" clip-path="url(#a)"><path d="M4.667 9.667a2 2 0 0 1-1.962-2.396A2.05 2.05 0 0 1 4.74 5.667h4.592a.333.333 0 0 0 .334-.333V1.001A.667.667 0 0 0 9 .334H.667A.667.667 0 0 0 0 1.001v14a.667.667 0 0 0 .667.666H9a.667.667 0 0 0 .667-.666v-5a.333.333 0 0 0-.334-.334z"/><path d="m15.75 7.147-.773-.618-.895-.716-1.667-1.334A.667.667 0 0 0 11.333 5v1.667H4.667a1 1 0 0 0 0 2h6.666v1.667a.667.667 0 0 0 1.084.52l1.666-1.333.896-.716.772-.618a.668.668 0 0 0 0-1.041z"/></g><defs><clipPath id="a"><path fill="#fff" d="M0 0h16v16H0z"/></clipPath></defs></svg>