<svg xmlns="http://www.w3.org/2000/svg" width="60" height="40" fill="none"><path fill="#B5D9F1" d="M46.576 7.73A2.726 2.726 0 0 0 43.846 5H15.729a2.727 2.727 0 0 0-2.726 2.73v18.636h33.573z"/><path fill="#DAECF8" d="M35.436 5H15.728a2.73 2.73 0 0 0-2.726 2.73v18.636h1.067z"/><path fill="#DAEDF7" d="M33.858 34.506h-8.14l.509-4.07h7.122z"/><path fill="#ADC4D9" stroke="#264887" stroke-width="1.25" d="m32.798 30.061.034.276h-6.088l.035-.276z"/><path stroke="#264887" stroke-linecap="round" stroke-linejoin="round" stroke-width="1.25" d="M33.858 33.506h-8.14l.509-4.07h7.122z"/><path fill="#DAEDF7" stroke="#264887" stroke-linecap="round" stroke-linejoin="round" stroke-width="1.25" d="M35.616 35.541H23.96a.63.63 0 0 1-.586-.88 2.04 2.04 0 0 1 1.835-1.155h9.157A2.04 2.04 0 0 1 36.2 34.66a.63.63 0 0 1-.583.88"/><path fill="#fff" stroke="#264887" stroke-linecap="round" stroke-linejoin="round" stroke-width="1.25" d="M43.846 30.436a2.73 2.73 0 0 0 2.73-2.73v-1.34H13v1.34a2.73 2.73 0 0 0 2.727 2.73z"/><path stroke="#264887" stroke-linecap="round" stroke-linejoin="round" stroke-width="1.25" d="M46.576 7.73A2.726 2.726 0 0 0 43.846 5H15.729a2.727 2.727 0 0 0-2.726 2.73v18.636h33.573z"/><path fill="#264887" stroke="#264887" stroke-width="1.25" d="M29.788 28.365q.016 0 .026.01a.037.037 0 0 1 0 .052.037.037 0 0 1-.052 0 .037.037 0 0 1 .025-.062Z"/><path fill="#D32D27" stroke="#264887" stroke-linecap="round" stroke-linejoin="round" stroke-width="1.25" d="M25.099 10.444h-3.73a.44.44 0 0 0-.44.441v11.97h4.611v-11.97a.44.44 0 0 0-.441-.441"/><path fill="#fff" stroke="#264887" stroke-linecap="round" stroke-linejoin="round" stroke-width="1.25" d="M38.648 13.312a.44.44 0 0 0-.441-.44h-3.73a.44.44 0 0 0-.441.44v9.544h4.612z"/><path stroke="#264887" stroke-linecap="round" stroke-linejoin="round" stroke-width="1.25" d="M18.743 22.856h22.09"/><path fill="#fff" stroke="#264887" stroke-linecap="round" stroke-linejoin="round" stroke-width="1.25" d="M31.652 17.215h-3.729a.44.44 0 0 0-.441.441v5.2h4.612v-5.2a.44.44 0 0 0-.442-.44"/><path stroke="#B5D9F1" stroke-linecap="round" stroke-linejoin="round" d="M54.542 1h-2.5v2.669h2.5zM4.71 5.865 3 7.689l1.71 1.825 1.708-1.825zm46.802 13.643 2.376 2.536m-.084-2.536-2.376 2.536"/><path stroke="#B5D9F1" d="M8.25 18.5a1.25 1.25 0 1 0 0-2.5 1.25 1.25 0 0 0 0 2.5Z" clip-rule="evenodd"/></svg>