<svg xmlns="http://www.w3.org/2000/svg" width="376" height="100" fill="none"><mask id="a" width="376" height="100" x="0" y="0" maskUnits="userSpaceOnUse" style="mask-type:alpha"><path fill="#C4C4C4" d="M0 0h376v100H0z"/></mask><g mask="url(#a)"><path fill="url(#b)" d="M0 0h376v100H0z"/><g stroke="#fff" stroke-linecap="round" stroke-linejoin="round" stroke-width=".75" filter="url(#c)" opacity=".2"><path d="M259.365 51.903a1.6 1.6 0 0 0-.242-.659 1.6 1.6 0 0 0-.496-.486l-10.186-6.242a1.45 1.45 0 0 0-.643-.212 1.4 1.4 0 0 0-.656.109l-4.913 2.13c-.298.13-.542.361-.693.66-.15.297-.198.642-.136.98l2.644 14.672c.041.219.127.428.252.612s.287.338.473.452.392.185.604.208.425-.003.623-.076l13.209-4.957c.305-.113.56-.331.726-.62.165-.288.23-.63.184-.97zm-11.535-7.637-3.053 19.76m14.471-13.053L244.714 63.72m-3.023-16.445 18.151 11.07"/><path d="m246.995 50.436 6.611-2.862 1.01 7.536"/></g><g stroke="#fff" stroke-linecap="round" stroke-linejoin="round" stroke-width=".75" filter="url(#d)" opacity=".2"><path d="M29.512-2.535a.76.76 0 0 0-.363-.054.8.8 0 0 0-.353.123l-5.563 3.532a.89.89 0 0 0-.397.638L22.471 4.8a.85.85 0 0 0 .11.533.77.77 0 0 0 .406.336l7.329 2.615a.76.76 0 0 0 .344.037.8.8 0 0 0 .331-.12.9.9 0 0 0 .39-.593l1.33-8.114a.86.86 0 0 0-.084-.54.77.77 0 0 0-.387-.357zm-6.577 3.842 8.12 6.901M29.053-2.705l1.853 10.867m-8.282-2.898 9.92-6.27"/><path d="m25.481 3.43.492-4.164 3.671 1.52"/></g><g stroke="#fff" stroke-linecap="round" stroke-linejoin="round" stroke-width=".75" filter="url(#e)" opacity=".2"><path d="M123.894 68.109a.9.9 0 0 0-.254-.284.8.8 0 0 0-.347-.14l-6.392-.927a.77.77 0 0 0-.677.238l-2.064 2.192a.83.83 0 0 0-.219.493.87.87 0 0 0 .125.534l4.248 6.94q.099.157.249.259a.8.8 0 0 0 .329.126.77.77 0 0 0 .647-.207l5.7-5.497a.82.82 0 0 0 .244-.48.86.86 0 0 0-.099-.54zm-7.373-1.329 2.397 10.808m4.739-9.928-4.812 9.77m-4.852-7.713 11.463 1.58"/><path d="m117.344 70.14 2.779-2.947 2.008 3.642"/></g><g stroke="#fff" stroke-linecap="round" stroke-linejoin="round" stroke-width=".75" filter="url(#f)" opacity=".2"><path d="M291.582 13.026a.88.88 0 0 0-.5-.556l-6.076-2.463a.8.8 0 0 0-.368-.056.76.76 0 0 0-.347.119l-2.484 1.613a.8.8 0 0 0-.319.423.87.87 0 0 0 .012.547l2.712 7.751a.86.86 0 0 0 .487.513.77.77 0 0 0 .678-.041l6.744-3.917a.78.78 0 0 0 .34-.405.86.86 0 0 0 .016-.546zm-6.933-3.102.07 11.069m6.731-8.478-6.81 8.297m-3.05-8.654 10.817 4.302"/><path d="m284.754 13.36 3.341-2.167 1.203 4.01"/></g><g stroke="#fff" stroke-linecap="round" stroke-linejoin="round" stroke-width=".75" filter="url(#g)" opacity=".2"><path d="M210.462 15.477a.76.76 0 0 0-.366-.024.8.8 0 0 0-.342.151l-5.255 3.98a.87.87 0 0 0-.343.668l-.109 3.115a.84.84 0 0 0 .154.523.76.76 0 0 0 .432.3l7.522 2.003a.8.8 0 0 0 .346.008.8.8 0 0 0 .32-.147.9.9 0 0 0 .236-.274.9.9 0 0 0 .105-.35l.657-8.196a.85.85 0 0 0-.128-.53.78.78 0 0 0-.416-.325zm-6.23 4.383 8.638 6.198m-2.873-10.708 2.737 10.656m-8.502-2.164 9.398-7.11"/><path d="m206.949 21.762.148-4.194 3.787 1.214"/></g><g stroke="#fff" stroke-linecap="round" stroke-linejoin="round" stroke-width="4" clip-path="url(#h)" opacity=".2"><path d="M288.779 56.403a9.1 9.1 0 0 1 .966-3.857 8.54 8.54 0 0 1 2.498-2.991l53.663-40.116a8 8 0 0 1 3.502-1.494 7.8 7.8 0 0 1 3.767.319l29.036 9.888c1.763.6 3.283 1.811 4.314 3.436a9.07 9.07 0 0 1 1.37 5.519l-5.927 84.643a9 9 0 0 1-1.048 3.595 8.5 8.5 0 0 1-2.392 2.788 8 8 0 0 1-3.284 1.455 7.8 7.8 0 0 1-3.561-.149l-77.591-22.21c-1.789-.503-3.366-1.63-4.475-3.196a9.03 9.03 0 0 1-1.638-5.437zM349.513 7.93l29.018 110.217m-89.367-66.671 88.83 65.505m8.577-95.348-96.919 72.453"/><path d="m358.224 42.82-39.149-13.323-1.098 43.41"/></g></g><defs><filter id="c" width="20.485" height="21.635" x="240.509" y="43.383" color-interpolation-filters="sRGB" filterUnits="userSpaceOnUse"><feFlood flood-opacity="0" result="BackgroundImageFix"/><feBlend in="SourceGraphic" in2="BackgroundImageFix" result="shape"/><feGaussianBlur result="effect1_foregroundBlur_4093_139517" stdDeviation=".25"/></filter><filter id="d" width="12.987" height="13.797" x="21.101" y="-4.088" color-interpolation-filters="sRGB" filterUnits="userSpaceOnUse"><feFlood flood-opacity="0" result="BackgroundImageFix"/><feBlend in="SourceGraphic" in2="BackgroundImageFix" result="shape"/><feGaussianBlur result="effect1_foregroundBlur_4093_139517" stdDeviation=".5"/></filter><filter id="e" width="14.302" height="13.59" x="112.563" y="65.375" color-interpolation-filters="sRGB" filterUnits="userSpaceOnUse"><feFlood flood-opacity="0" result="BackgroundImageFix"/><feBlend in="SourceGraphic" in2="BackgroundImageFix" result="shape"/><feGaussianBlur result="effect1_foregroundBlur_4093_139517" stdDeviation=".5"/></filter><filter id="f" width="13.801" height="13.83" x="280.081" y="8.543" color-interpolation-filters="sRGB" filterUnits="userSpaceOnUse"><feFlood flood-opacity="0" result="BackgroundImageFix"/><feBlend in="SourceGraphic" in2="BackgroundImageFix" result="shape"/><feGaussianBlur result="effect1_foregroundBlur_4093_139517" stdDeviation=".5"/></filter><filter id="g" width="12.503" height="13.633" x="202.683" y="13.967" color-interpolation-filters="sRGB" filterUnits="userSpaceOnUse"><feFlood flood-opacity="0" result="BackgroundImageFix"/><feBlend in="SourceGraphic" in2="BackgroundImageFix" result="shape"/><feGaussianBlur result="effect1_foregroundBlur_4093_139517" stdDeviation=".5"/></filter><linearGradient id="b" x1="-132.394" x2="-97.41" y1="35.211" y2="166.752" gradientUnits="userSpaceOnUse"><stop offset=".146" stop-color="#474A86"/><stop offset="1" stop-color="#5B5FAC"/></linearGradient><clipPath id="h"><path fill="#fff" d="M364.58-23.156 257.254 57.076l76.104 113.47 107.326-80.231z"/></clipPath></defs></svg>