<svg xmlns="http://www.w3.org/2000/svg" width="14" height="25" fill="none"><path fill="#fff" d="M1.167 16.204a2.12 2.12 0 0 0 2.12 2.129h5.657c.563 0 1.102-.224 1.5-.623.398-.4.621-.941.621-1.506v-3.548a.71.71 0 0 0-.435-.66.705.705 0 0 0-.774.156L6.66 15.324a1.77 1.77 0 0 1-2.022.34 1.8 1.8 0 0 1-.573-.446 1.857 1.857 0 0 1 .17-2.484l3.118-3.087a.71.71 0 0 0 0-1.008.7.7 0 0 0-.502-.212H3.316c-.563 0-1.102.224-1.5.623-.398.4-.621.94-.621 1.505z"/><path fill="#fff" d="M4.924 14.6a.95.95 0 0 0 1.347 0l4.313-4.313a.123.123 0 0 1 .173 0l.924.924a.491.491 0 0 0 .809-.302l.253-3.622a.493.493 0 0 0-.507-.506l-3.621.253a.491.491 0 0 0-.302.809l.923.924a.123.123 0 0 1 0 .173l-4.312 4.313a.95.95 0 0 0 0 1.347"/></svg>