<svg xmlns="http://www.w3.org/2000/svg" width="126" height="126" fill="none"><path fill="#ECF5FB" fill-rule="evenodd" d="M63 125.5c34.518 0 62.5-27.982 62.5-62.5S97.518.5 63 .5.5 28.482.5 63s27.982 62.5 62.5 62.5" clip-rule="evenodd"/><path fill="#B5D9F1" d="M93.308 37.672h.997a.664.664 0 0 1 .665.664v.997a.997.997 0 1 0 1.994 0v-.997a.665.665 0 0 1 .664-.664h.997a.997.997 0 1 0 0-1.994h-.997a.665.665 0 0 1-.664-.665v-.997a.997.997 0 1 0-1.994 0v.997a.665.665 0 0 1-.665.665h-.997a.997.997 0 1 0 0 1.994"/><path fill="#EDBF0E" d="m12.231 41.612 4.825 1.03z"/><path stroke="#B5D9F1" stroke-linecap="round" stroke-width="1.389" d="m12.231 41.612 4.825 1.03"/><path fill="#EDBF0E" d="m15.055 39.782-1.03 4.824z"/><path stroke="#B5D9F1" stroke-linecap="round" stroke-width="1.389" d="m15.055 39.782-1.03 4.824"/><path stroke="#B5D9F1" stroke-linecap="round" stroke-linejoin="round" stroke-width="1.389" d="m117.54 74.243-2.726-2.46-2.459 2.726 2.726 2.46z"/><path fill="#EDBF0E" d="m80.773 81.283-3.304 3.662z"/><path stroke="#B5D9F1" stroke-linecap="round" stroke-width="1.389" d="m80.773 81.283-3.304 3.662"/><path fill="#EDBF0E" d="m80.946 84.643-3.662-3.305z"/><path stroke="#B5D9F1" stroke-linecap="round" stroke-width="1.389" d="m80.946 84.643-3.662-3.305"/><path fill="#B5D9F1" d="M56.564 96.594h-.886a.44.44 0 0 1-.443-.445v-.89c0-.355-.14-.694-.39-.945a1.326 1.326 0 0 0-2.268.945v.89a.446.446 0 0 1-.443.445h-.886c-.353 0-.691.14-.94.39a1.338 1.338 0 0 0 .94 2.28h.886a.44.44 0 0 1 .443.445v.89c0 .354.14.694.39.944a1.328 1.328 0 0 0 2.268-.944v-.89a.446.446 0 0 1 .443-.445h.886c.353 0 .691-.14.94-.391a1.34 1.34 0 0 0 0-1.888 1.33 1.33 0 0 0-.94-.391"/><path stroke="#B5D9F1" stroke-linecap="round" stroke-linejoin="round" stroke-width="1.389" d="m53.774 32.46-.189-3.667-3.666.189.188 3.666zm-28.99 45.683-3.081 1.996 1.996 3.081 3.081-1.996z"/><path fill="#fff" stroke="#264887" stroke-width="1.389" d="M24.805 54.71c0-1.558 1.329-2.821 2.968-2.821h70.454c1.638 0 2.967 1.263 2.967 2.822V69.9c0 1.558-1.33 2.821-2.967 2.821H27.773c-1.64 0-2.968-1.263-2.968-2.822z"/><path fill="#264887" d="M32.468 65.685c-1.27 0-1.88-.537-1.88-1.819v-3.68h-.922v-1.05h.922v-1.672h1.349v1.672h1.202v1.05h-1.202v3.601c0 .653.293.848.848.848a3 3 0 0 0 .354-.024v1.02a4.4 4.4 0 0 1-.671.054m1.922-.128V56.75h3.278c1.727 0 2.924 1.16 2.924 2.887v.012c0 1.721-1.197 2.9-2.924 2.9h-1.91v3.008zm2.936-7.654h-1.568v3.498h1.568c1.19 0 1.874-.641 1.874-1.746v-.012c0-1.099-.683-1.74-1.874-1.74m5.677 7.77c-1.282 0-2.143-.787-2.143-1.94v-.013c0-1.117.867-1.8 2.387-1.892l1.745-.104v-.482c0-.708-.457-1.135-1.275-1.135-.763 0-1.233.36-1.343.873l-.012.054h-1.245l.006-.067c.091-1.105 1.05-1.953 2.63-1.953 1.569 0 2.564.83 2.564 2.118v4.425h-1.325v-1.013h-.024c-.372.69-1.117 1.13-1.965 1.13m-.812-1.971c0 .561.464.915 1.172.915.928 0 1.63-.629 1.63-1.465v-.5l-1.57.097c-.793.05-1.232.397-1.232.94zm5.408 3.99v-8.557h1.318v1.105h.03c.385-.763 1.093-1.227 2.009-1.227 1.635 0 2.685 1.282 2.685 3.333v.006c0 2.044-1.056 3.332-2.667 3.332-.91 0-1.648-.464-2.026-1.208h-.031v3.216zm3.015-3.143c1.037 0 1.684-.842 1.684-2.197v-.006c0-1.367-.653-2.204-1.684-2.204-1.001 0-1.703.867-1.703 2.204v.006c0 1.33.708 2.197 1.703 2.197m6.457 1.135c-1.605 0-2.545-.793-2.68-1.965l-.005-.055h1.306l.012.061c.122.592.562.94 1.373.94.794 0 1.27-.33 1.27-.848v-.006c0-.415-.232-.654-.922-.818l-1.05-.238c-1.22-.281-1.825-.867-1.825-1.8v-.007c0-1.148 1.002-1.935 2.479-1.935 1.52 0 2.435.848 2.502 1.941l.006.073h-1.239l-.006-.042c-.08-.562-.519-.953-1.263-.953-.708 0-1.154.336-1.154.849v.006c0 .397.262.665.952.83l1.044.238c1.312.305 1.813.824 1.813 1.746v.006c0 1.172-1.099 1.977-2.613 1.977m6.043 0c-1.605 0-2.545-.793-2.68-1.965l-.006-.055h1.306l.013.061c.122.592.561.94 1.373.94.793 0 1.27-.33 1.27-.848v-.006c0-.415-.233-.654-.922-.818l-1.05-.238c-1.22-.281-1.825-.867-1.825-1.8v-.007c0-1.148 1.001-1.935 2.478-1.935 1.52 0 2.435.848 2.502 1.941l.007.073h-1.24l-.005-.042c-.08-.562-.52-.953-1.264-.953-.708 0-1.154.336-1.154.849v.006c0 .397.263.665.953.83l1.043.238c1.313.305 1.813.824 1.813 1.746v.006c0 1.172-1.099 1.977-2.612 1.977m4.388-.036a.796.796 0 0 1-.805-.8c0-.452.353-.8.805-.8.446 0 .8.348.8.8 0 .446-.354.8-.8.8m4.474.036c-1.874 0-3.046-1.288-3.046-3.344v-.007c0-2.032 1.197-3.32 3.028-3.32 1.654 0 2.655 1.062 2.765 2.27l.006.043H73.47l-.012-.048c-.14-.63-.628-1.16-1.489-1.16-1.025 0-1.69.854-1.69 2.228v.006c0 1.404.677 2.228 1.696 2.228.812 0 1.33-.47 1.49-1.166l.005-.049h1.27l-.006.043c-.14 1.288-1.215 2.276-2.759 2.276m6.459 0c-1.844 0-3.046-1.275-3.046-3.338v-.013c0-2.05 1.215-3.32 3.04-3.32 1.83 0 3.051 1.264 3.051 3.32v.013c0 2.069-1.208 3.338-3.045 3.338m.006-1.104c1.031 0 1.69-.818 1.69-2.234v-.013c0-1.403-.671-2.215-1.703-2.215-1.013 0-1.69.812-1.69 2.215v.013c0 1.422.671 2.234 1.703 2.234m4.059.976v-6.42h1.318v.994h.03c.275-.671.928-1.117 1.77-1.117.885 0 1.532.458 1.789 1.264h.03c.33-.782 1.087-1.264 2.002-1.264 1.27 0 2.1.842 2.1 2.13v4.413h-1.325v-4.095c0-.837-.445-1.319-1.226-1.319-.782 0-1.325.586-1.325 1.398v4.016h-1.294v-4.193c0-.745-.47-1.22-1.214-1.22-.782 0-1.337.616-1.337 1.446v3.967z"/><path fill="#fff" d="M26.194 56.056a2.78 2.78 0 0 1 2.778-2.778h38.195L56.685 71.333H28.972a2.78 2.78 0 0 1-2.778-2.777z"/><path stroke="#00A878" stroke-linecap="round" stroke-width="1.389" d="m71.816 44.646.212-.396M51.8 82.125l.138-.26zm.723-1.353.577-1.082zm.984-1.844 17.21-32.225zm17.543-32.85.3-.561z"/><rect width="3.472" height="4.167" x="34.528" y="60.222" fill="#45BF9C" rx="1.736"/><rect width="3.472" height="4.167" x="41.472" y="60.222" fill="#45BF9C" rx="1.736"/><rect width="3.472" height="4.167" x="48.417" y="60.222" fill="#45BF9C" rx="1.736"/><rect width="3.472" height="4.167" x="55.361" y="60.222" fill="#45BF9C" rx="1.736"/></svg>