<svg xmlns="http://www.w3.org/2000/svg" width="60" height="40" fill="none"><g filter="url(#a)"><path fill="#B5D9F1" d="M42.847 21.749a2.186 2.186 0 0 0-1.775-2.13V18.2a10.65 10.65 0 1 0-21.298 0v1.42a2.173 2.173 0 0 0 .224 4.303 10.65 10.65 0 0 0 20.85 0 2.196 2.196 0 0 0 2-2.173"/></g><path stroke="#264887" stroke-linecap="round" stroke-linejoin="round" stroke-width="1.675" d="M42.847 21.749a2.186 2.186 0 0 0-1.775-2.13V18.2a10.65 10.65 0 1 0-21.298 0v1.42a2.173 2.173 0 0 0 .224 4.303 10.65 10.65 0 0 0 20.85 0 2.196 2.196 0 0 0 2-2.173"/><path fill="#D32D27" d="M24.651 24.411a1.331 1.331 0 1 0 0-2.662 1.331 1.331 0 0 0 0 2.662m11.537 0a1.331 1.331 0 1 0 0-2.662 1.331 1.331 0 0 0 0 2.662"/><path stroke="#264887" stroke-linecap="round" stroke-linejoin="round" stroke-width="1.337" d="M35.218 19.974a1.51 1.51 0 0 0-2.139 0m-7.457 0a1.51 1.51 0 0 1 2.138 0m5.322 6.206a4.44 4.44 0 0 1-5.325 0"/><path fill="#264887" d="M41.956 12.547a8.543 8.543 0 0 0-8.543-8.543H22.558a1.775 1.775 0 0 0-1.108 3.16l.918.736a5.31 5.31 0 0 0-3.485 4.979v5.324a.89.89 0 0 0 .887.888c1.871-1.124 4.858-3.867 5.275-6.047a.54.54 0 0 1 .654-.4 2.92 2.92 0 0 1 2.433 2.485.536.536 0 0 0 .707.401 5.7 5.7 0 0 0 3.49-2.52.494.494 0 0 1 .59-.33c4.597 1.447 3.028 5.748 8.064 6.232a.89.89 0 0 0 .973-.884z"/><path fill="#B5D9F1" d="M33.413 4H22.558a1.775 1.775 0 0 0-1.108 3.16l.583.466q.257-.075.525-.076h10.855a8.543 8.543 0 0 1 8.543 8.543v-3.546A8.543 8.543 0 0 0 33.413 4"/><path fill="#264887" stroke="#264887" stroke-linecap="round" stroke-linejoin="round" stroke-width="1.337" d="M41.956 12.547a8.543 8.543 0 0 0-8.543-8.543H22.558a1.775 1.775 0 0 0-1.108 3.16l.918.736a5.31 5.31 0 0 0-3.485 4.979v5.324a.89.89 0 0 0 .887.888c1.871-1.124 4.858-3.867 5.275-6.047a.54.54 0 0 1 .654-.4 2.92 2.92 0 0 1 2.433 2.485.536.536 0 0 0 .707.401 5.7 5.7 0 0 0 3.49-2.52.494.494 0 0 1 .59-.33c4.597 1.447 3.028 5.748 8.064 6.232a.89.89 0 0 0 .973-.884z"/><path stroke="#B5D9F1" stroke-linecap="round" stroke-linejoin="round" d="M11.156 30 9 31.392l1.42 2.184 2.156-1.392zM2.524 3 2 5.513l2.545.556.524-2.513z"/><path stroke="#B5D9F1" stroke-linecap="round" d="m45.131 29.323 3.398.752m-1.422-2.028-.7 3.398"/><path stroke="#B5D9F1" d="M56.25 6.5a1.25 1.25 0 1 0 0-2.5 1.25 1.25 0 0 0 0 2.5Z" clip-rule="evenodd"/><defs><filter id="a" width="26.522" height="26.521" x="17.163" y="6.712" color-interpolation-filters="sRGB" filterUnits="userSpaceOnUse"><feFlood flood-opacity="0" result="BackgroundImageFix"/><feBlend in="SourceGraphic" in2="BackgroundImageFix" result="shape"/><feColorMatrix in="SourceAlpha" result="hardAlpha" values="0 0 0 0 0 0 0 0 0 0 0 0 0 0 0 0 0 0 127 0"/><feOffset dx="-3"/><feComposite in2="hardAlpha" k2="-1" k3="1" operator="arithmetic"/><feColorMatrix values="0 0 0 0 0.854902 0 0 0 0 0.92549 0 0 0 0 0.972549 0 0 0 1 0"/><feBlend in2="shape" result="effect1_innerShadow_245_15425"/></filter></defs></svg>