<svg xmlns="http://www.w3.org/2000/svg" width="60" height="40" fill="none"><g clip-path="url(#a)"><path stroke="#B5D9F1" stroke-linecap="round" stroke-linejoin="round" d="M54.541 1h-2.5v2.669h2.5zM4.71 5.865 3 7.689l1.71 1.825 1.708-1.825zm46.802 13.643 2.375 2.536m-.084-2.536-2.375 2.536"/><path stroke="#264887" stroke-dasharray="0.68 4.1 112.04 3.42" stroke-linecap="round" stroke-width="1.25" d="M13.832 37.877h32.794"/><path fill="#fff" fill-rule="evenodd" d="M13.832 6.45a2.733 2.733 0 0 1 2.733-2.733h25.931A2.733 2.733 0 0 1 45.23 6.45v26.058a2.733 2.733 0 0 1-2.733 2.733h-.078a2.03 2.03 0 0 1-3.765 0H21.065a2.03 2.03 0 0 1-3.765 0h-.735a2.733 2.733 0 0 1-2.733-2.733z" clip-rule="evenodd"/><path fill="#B5D9F1" d="M42.48 33.742h-.464l-.173.5a1.6 1.6 0 0 1-.455.681l-.017.014-.018.014-.007.006-.024.02-.025.017a1.2 1.2 0 0 1-.712.235 1.2 1.2 0 0 1-.748-.261l-.007-.006-.038-.03-.01-.009a1.6 1.6 0 0 1-.455-.68l-.174-.501h-8.719a.6.6 0 0 0-.232.046.6.6 0 0 0-.232-.046h-.093a.6.6 0 0 0-.324.094.6.6 0 0 0-.325-.094h-8.719l-.174.5a1.6 1.6 0 0 1-.472.696l-.01.007-.008.006-.006.006-.025.02-.025.017c-.206.149-.45.235-.712.235a1.2 1.2 0 0 1-.748-.261l-.007-.006-.025-.018-.023-.021a1.6 1.6 0 0 1-.455-.68l-.174-.501h-1.204c-.531 0-1.014-.232-1.38-.615l-.032-.032-.03-.035-.012-.014-.044-.047-.038-.053a2.62 2.62 0 0 1-.529-1.604v1.17c0 .618.2 1.179.529 1.605l.038.053.044.047.012.014.03.036.032.031c.366.383.849.615 1.38.615h1.204l.174.5a1.6 1.6 0 0 0 .503.72l.007.006.036.027c.206.148.45.234.712.234a1.2 1.2 0 0 0 .761-.272l.008-.005.034-.029c.202-.173.36-.408.455-.68l.174-.501h8.719c.117 0 .228.034.325.094a.6.6 0 0 1 .324-.094h.093q.123 0 .232.046a.6.6 0 0 1 .232-.046h8.719l.174.5a1.6 1.6 0 0 0 .503.72l.007.006.007.006.01.008.019.013c.206.148.45.234.712.234a1.2 1.2 0 0 0 .761-.272l.007-.005.018-.014.017-.015c.201-.173.36-.408.455-.68l.173-.501h.543c.531 0 1.014-.232 1.38-.615l.046-.044.04-.051.012-.014.03-.035.028-.037c.33-.426.529-.987.529-1.604v-1.171a2.62 2.62 0 0 1-.587 1.676l-.012.014-.04.051-.046.044c-.366.383-.849.615-1.38.615h-.078m2.143-15.447c0-.218.075-.415.196-.56a.87.87 0 0 1-.196-.558zm-30.248-2.077a.87.87 0 0 1-.196.56.87.87 0 0 1 .196.558v-.212a.9.9 0 0 0-.091-.4.9.9 0 0 0 .091-.4zm0 1.278a.9.9 0 0 1-.091.4.9.9 0 0 1 .091.399z"/><path fill="#264887" d="M42.418 35.241v-.683h-.461l-.173.427zm-3.765 0 .633-.256-.172-.427h-.461zm-17.589 0v-.683h-.46l-.173.427zm-3.765 0 .634-.256-.173-.427h-.46zM14.281 3.91a.683.683 0 1 0 .914 1.016zm.828 1.098a.683.683 0 0 0-.97-.962zm-.99-.942a.683.683 0 0 0 .978.954zm.92 1.016a.683.683 0 1 0-1.015-.914zm-1.89 13.511a.683.683 0 0 0 1.366 0zm1.366.955a.683.683 0 1 0-1.367 0zm-1.367.137a.683.683 0 0 0 1.367 0zm1.367.682a.683.683 0 1 0-1.367 0zm-.492 14.425a.683.683 0 1 0 1.017-.913zm1.098-.827a.683.683 0 0 0-.962.97zm-.942.99a.683.683 0 0 0 .954-.979zm1.016-.92a.683.683 0 1 0-.914 1.015zm1.712 1.89a.683.683 0 0 0 0-1.366zm.027-1.366a.683.683 0 1 0 0 1.366zm.004 1.366a.683.683 0 0 0 0-1.366zm.019-1.366a.683.683 0 1 0 0 1.366zm.617 2.109a.683.683 0 0 0 .81-1.1zm.859-1.067a.683.683 0 0 0-.762 1.135zm-.748 1.144a.683.683 0 1 0 .755-1.139zm.79-1.116a.683.683 0 1 0-.72 1.161zm2.133 1.161a.683.683 0 1 0-.72-1.161zm-.67-1.193a.683.683 0 0 0 .769 1.13zm.783 1.12a.683.683 0 0 0-.776-1.125zm-.742-1.15a.683.683 0 1 0 .81 1.1zm9.281.358a.683.683 0 0 0 0-1.366zm.645-1.366a.683.683 0 1 0 0 1.366zm.092 1.366a.683.683 0 0 0 0-1.366zm.46-1.366a.683.683 0 1 0 0 1.366zm8.47 2.109a.683.683 0 0 0 .811-1.1zm.86-1.067a.683.683 0 0 0-.763 1.135zm-.749 1.144a.683.683 0 1 0 .755-1.139zm.79-1.116a.683.683 0 0 0-.719 1.161zm2.133 1.161a.683.683 0 0 0-.719-1.161zm-.67-1.193a.683.683 0 0 0 .77 1.13zm.783 1.12a.683.683 0 0 0-.776-1.125zm-.741-1.15a.683.683 0 1 0 .81 1.1zm1.121.358a.683.683 0 0 0 0-1.366zm.003-1.366a.683.683 0 1 0 0 1.366zm0 1.366a.684.684 0 1 0 0-1.366zm.003-1.366a.683.683 0 1 0 0 1.366zm2.32.491a.683.683 0 1 0-.914-1.016zm-.829-1.097a.683.683 0 1 0 .97.962zm.99.942a.683.683 0 0 0-.978-.954zm-.92-1.016a.683.683 0 0 0 1.016.913zm1.891-13.512a.683.683 0 0 0-1.366 0zm-1.366-.955a.683.683 0 0 0 1.366 0zm1.366-.136a.683.683 0 0 0-1.366 0zm-1.366-.683a.683.683 0 0 0 1.366 0zm.491-14.425a.683.683 0 0 0-1.016.914zm-1.098.828a.683.683 0 1 0 .962-.97zm.943-.99a.683.683 0 1 0-.955.978zm-1.016.92a.683.683 0 1 0 .913-1.016zm-13.453-1.89a.683.683 0 0 0 0 1.366zm-.95 1.366a.683.683 0 1 0 0-1.367zm-.136-1.367a.683.683 0 1 0 0 1.367zm-.68 1.367a.683.683 0 0 0 0-1.367zM16.565 3.034a3.4 3.4 0 0 0-2.283.875l.914 1.016a2.04 2.04 0 0 1 1.37-.524zm-2.425 1.01-.02.02.978.955.012-.012zm-.115.123a3.4 3.4 0 0 0-.876 2.283h1.367c0-.527.198-1.006.525-1.37zm-.876 2.283v12.142h1.367V6.45zm0 13.097v.137h1.367v-.137zm0 .819v12.142h1.367V20.366zm0 12.142c0 .877.332 1.679.876 2.283l1.016-.913a2.04 2.04 0 0 1-.525-1.37zm1.01 2.426.02.02.955-.979-.012-.011zm.123.115a3.4 3.4 0 0 0 2.283.875v-1.366a2.04 2.04 0 0 1-1.37-.525zm2.283.875h.343v-1.366h-.343zm.37 0h.004v-1.366h-.004zm.023 0h.342v-1.366h-.342zm-.291-.427c.19.47.507.874.908 1.17l.81-1.1a1.35 1.35 0 0 1-.451-.582zm1.005 1.238.014.009.755-1.139-.007-.005zm.085.054a2.7 2.7 0 0 0 1.426.405v-1.366c-.26 0-.502-.074-.707-.2zm1.426.405a2.7 2.7 0 0 0 1.426-.405l-.72-1.161c-.204.127-.446.2-.706.2zm1.525-.469.014-.01-.776-1.124-.007.005zm.082-.058c.402-.296.719-.7.909-1.17l-1.267-.512a1.35 1.35 0 0 1-.452.582zm.275-.743h8.196v-1.366h-8.196zm8.84 0h.093v-1.366h-.092zm.553 0h8.196v-1.366h-8.196zm7.562-.427c.19.47.508.874.909 1.17l.81-1.1a1.35 1.35 0 0 1-.452-.582zm1.005 1.238.014.009.755-1.139-.007-.005zm.085.054a2.7 2.7 0 0 0 1.426.405v-1.366a1.34 1.34 0 0 1-.706-.2zm1.426.405c.522 0 1.012-.148 1.427-.405l-.72-1.161c-.205.127-.446.2-.707.2zm1.526-.469.013-.01-.776-1.124-.007.005zm.082-.058c.401-.296.718-.7.908-1.17l-1.267-.512a1.35 1.35 0 0 1-.451.582zm.275-.743h.036v-1.366h-.036zm.042 0h.036v-1.366h-.036zm.036 0c.877 0 1.679-.331 2.283-.875l-.913-1.016a2.04 2.04 0 0 1-1.37.525zm2.425-1.01.02-.02-.978-.954-.012.012zm.116-.123a3.4 3.4 0 0 0 .875-2.283h-1.366a2.04 2.04 0 0 1-.525 1.37zm.875-2.283V20.366h-1.366v12.142zm0-13.097v-.136h-1.366v.136zm0-.819V6.45h-1.366v12.142zm0-12.142c0-.877-.331-1.678-.875-2.283l-1.016.914c.327.363.525.842.525 1.37zm-1.01-2.425-.02-.02-.955.978.012.012zm-.123-.116a3.4 3.4 0 0 0-2.283-.875v1.367a2.04 2.04 0 0 1 1.37.524zm-2.283-.875H30.413v1.367h12.083zm-13.034 0h-.135v1.367h.135zm-.814 0H16.564v1.367h12.084z"/><path fill="#fff" fill-rule="evenodd" d="M17.266 8.225c0-.754.611-1.366 1.366-1.366h22.222c.755 0 1.367.612 1.367 1.366V30.43c0 .755-.612 1.367-1.367 1.367H18.632a1.366 1.366 0 0 1-1.366-1.367z" clip-rule="evenodd"/><path fill="#B5D9F1" d="M20 7h-1.634C17.612 7 17 7.612 17 8.366V30.57c0 .755.612 1.367 1.366 1.367h22.222c.755 0 1.367-.612 1.367-1.367v-1.633H21.367A1.367 1.367 0 0 1 20 27.57z"/><path stroke="#264887" stroke-linecap="round" stroke-linejoin="round" stroke-width="1.25" d="M17.266 8.225c0-.754.611-1.366 1.366-1.366h22.222c.755 0 1.367.612 1.367 1.366V30.43c0 .755-.612 1.367-1.367 1.367H18.632a1.366 1.366 0 0 1-1.366-1.367z" clip-rule="evenodd"/><path fill="#fff" fill-rule="evenodd" d="M15.924 11.259a1.386 1.386 0 0 1 2.773 0v3.076a1.386 1.386 0 0 1-2.773 0z" clip-rule="evenodd"/><path stroke="#264887" stroke-linecap="round" stroke-linejoin="round" stroke-width="1.25" d="M15.924 11.259a1.386 1.386 0 0 1 2.773 0v3.076a1.386 1.386 0 0 1-2.773 0z" clip-rule="evenodd"/><path fill="#fff" fill-rule="evenodd" d="M15.924 25.654a1.386 1.386 0 1 1 2.773 0v3.076a1.386 1.386 0 1 1-2.773 0z" clip-rule="evenodd"/><path stroke="#264887" stroke-linecap="round" stroke-linejoin="round" stroke-width="1.25" d="M15.924 25.654a1.386 1.386 0 1 1 2.773 0v3.076a1.386 1.386 0 1 1-2.773 0z" clip-rule="evenodd"/><path stroke="#264887" stroke-width="1.25" d="M29.494 24.894a5.146 5.146 0 0 0 5.147-5.144 5.146 5.146 0 0 0-5.147-5.145 5.146 5.146 0 0 0-5.148 5.145 5.146 5.146 0 0 0 5.148 5.144Z"/><path fill="#D22D27" fill-rule="evenodd" d="M30.22 14.52a.629.629 0 1 0-1.255 0v3.12a2.015 2.015 0 0 0-1.32 2.413l-2.741 1.925a.63.63 0 0 0-.156.877c.2.287.591.354.876.154l2.698-1.894a2 2 0 0 0 2.652-.099l2.837 1.993a.63.63 0 1 0 .72-1.032l-2.96-2.078q.03-.168.03-.345c0-.893-.579-1.65-1.38-1.914z" clip-rule="evenodd"/></g><defs><clipPath id="a"><path fill="#fff" d="M0 0h60v40H0z"/></clipPath></defs></svg>