<svg xmlns="http://www.w3.org/2000/svg" width="101" height="100" fill="none"><path fill="#ECF5FB" fill-rule="evenodd" d="M50.556 100c27.614 0 50-22.386 50-50s-22.386-50-50-50-50 22.386-50 50 22.385 50 50 50" clip-rule="evenodd"/><path stroke="#B5D9F1" stroke-linecap="round" stroke-linejoin="round" stroke-width="1.111" d="M73.334 4.444h3.333v3.333h-3.333zm-15.997 9.139 2.357-2.356 2.356 2.356-2.356 2.357zm7.246 9.889 3.167 3.167m-.111-3.167-3.167 3.167"/><path stroke="#264887" stroke-dasharray="0.56 3.33 91.11 2.78" stroke-linecap="round" stroke-width="1.111" d="M1.111 84.722h98.334"/><g filter="url(#a)"><path fill="#fff" fill-rule="evenodd" d="M.556 34.444c0-1.227.995-2.222 2.222-2.222h45.555c1.228 0 2.223.995 2.223 2.222v45.757a2.22 2.22 0 0 1-2.223 2.223H46.08a3.233 3.233 0 0 1-5.994 0H12.073a3.233 3.233 0 0 1-5.994 0H2.778A2.22 2.22 0 0 1 .556 80.2z" clip-rule="evenodd"/></g><path fill="#264887" d="M46.079 82.424v-.556h-.375l-.14.347zm-5.994 0 .515-.209-.14-.347h-.375zm-28.012 0v-.556h-.375l-.14.347zm-5.994 0 .515-.209-.14-.347h-.375zM.92 32.378a.555.555 0 1 0 .743.827zm.674.893a.555.555 0 1 0-.79-.783zm-.805-.766a.556.556 0 1 0 .795.776zm.748.826a.556.556 0 0 0-.826-.743zM0 55.766a.556.556 0 0 0 1.111 0zm1.111 1.677a.556.556 0 1 0-1.11 0zm-1.11.24a.556.556 0 1 0 1.11 0zm1.11 1.197a.556.556 0 1 0-1.11 0zm-.4 23.178a.556.556 0 0 0 .827-.743zm.893-.673a.556.556 0 0 0-.782.789zm-.766.805a.556.556 0 1 0 .776-.796zm.826-.749a.556.556 0 0 0-.743.827zm2.652 1.538a.556.556 0 0 0 0-1.11zm.12-1.11a.556.556 0 1 0 0 1.11zm.018 1.11a.556.556 0 0 0 0-1.11zm.087-1.11a.556.556 0 1 0 0 1.11zm2.292 2.395a.556.556 0 1 0 .658-.894zm.754-.828a.556.556 0 0 0-.62.923zm-.6.936a.556.556 0 0 0 .613-.926zm.683-.881a.556.556 0 0 0-.584.945zm3.396.945a.556.556 0 0 0-.585-.945zm-.487-1.009a.556.556 0 0 0 .625.919zm.644.906a.556.556 0 0 0-.63-.915zm-.563-.963a.556.556 0 0 0 .659.894zm14.465-.39a.556.556 0 1 0 0-1.112zm1.027-1.112a.555.555 0 1 0 0 1.111zm.147 1.111a.556.556 0 0 0 0-1.11zm.733-1.11a.556.556 0 1 0 0 1.11zm13.807 2.395a.556.556 0 1 0 .658-.894zm.754-.828a.556.556 0 0 0-.62.923zm-.6.936a.556.556 0 1 0 .613-.926zm.683-.881a.556.556 0 0 0-.584.945zm3.396.945a.556.556 0 1 0-.585-.945zm-.487-1.009a.556.556 0 1 0 .625.919zm.644.906a.556.556 0 0 0-.63-.915zm-.563-.963a.556.556 0 0 0 .66.894zm2.464-.39a.556.556 0 0 0 0-1.112zm.082-1.112a.556.556 0 1 0 0 1.111zm.012 1.111a.556.556 0 0 0 0-1.11zm.059-1.11a.555.555 0 1 0 0 1.11zm2.907.399a.555.555 0 1 0-.743-.827zm-.673-.893a.556.556 0 0 0 .789.782zm.805.766a.556.556 0 0 0-.796-.776zm-.749-.826a.556.556 0 1 0 .827.743zm1.538-22.435a.556.556 0 1 0-1.11 0zm-1.11-1.677a.556.556 0 1 0 1.11 0zm1.11-.24a.555.555 0 1 0-1.11 0zm-1.11-1.197a.556.556 0 1 0 1.11 0zm.399-23.178a.556.556 0 0 0-.827.743zm-.893.673a.556.556 0 1 0 .782-.789zm.766-.805a.556.556 0 1 0-.776.795zm-.826.749a.555.555 0 0 0 .743-.827zm-22.341-1.538a.556.556 0 1 0 0 1.11zm-1.67 1.11a.556.556 0 1 0 0-1.11zm-.238-1.11a.556.556 0 1 0 0 1.11zm-1.193 1.11a.556.556 0 1 0 0-1.11zm-21.227-.555v-.555a2.77 2.77 0 0 0-1.857.711l.372.413.371.414a1.66 1.66 0 0 1 1.114-.427zM1.2 32.88l-.394-.39-.016.016.397.387.398.389.01-.01zm-.075.08-.413-.371A2.77 2.77 0 0 0 0 34.444h1.111c0-.428.161-.818.427-1.113zm-.57 1.485H0v21.322h1.111V34.444zm0 22.999H0v.24h1.111v-.24zm0 1.437H0v21.321h1.111v-21.32zm0 21.321H0c0 .714.27 1.365.712 1.857l.413-.372.413-.37A1.66 1.66 0 0 1 1.11 80.2zm.658 1.578-.391.395.016.016.388-.398.388-.398-.01-.01zm.08.076-.372.413a2.77 2.77 0 0 0 1.857.711v-1.111c-.429 0-.818-.161-1.114-.427zm1.485.569v.555h1.538v-1.111H2.778zm1.659 0v.555h.017v-1.111h-.017zm.104 0v.555h1.538v-1.111H4.54zm1.538 0-.515.208c.265.656.708 1.22 1.269 1.632l.329-.447.33-.447a2.7 2.7 0 0 1-.898-1.155zm1.198 1.474-.31.461.02.013.307-.463.306-.463-.013-.01zm.101.065-.292.473a3.77 3.77 0 0 0 1.99.564V83.89c-.517 0-.998-.146-1.406-.398zm1.698.481V85c.729 0 1.411-.207 1.99-.564l-.293-.473-.292-.472a2.66 2.66 0 0 1-1.405.398zm1.815-.558.313.46.02-.013-.316-.458-.315-.457-.014.01zm.099-.07.329.448a3.8 3.8 0 0 0 1.269-1.632l-.515-.208-.515-.209c-.187.463-.5.862-.898 1.154zm1.083-1.392v.555h13.052v-1.111H12.074zm14.08 0v.555h.146v-1.111h-.147zm.88 0v.555h13.052v-1.111H27.032zm13.052 0-.515.208c.265.656.708 1.22 1.269 1.632l.329-.447.33-.447a2.7 2.7 0 0 1-.898-1.155zm1.198 1.474-.31.461.02.013.307-.463.306-.463-.013-.01zm.101.065-.292.473a3.77 3.77 0 0 0 1.99.564V83.89a2.66 2.66 0 0 1-1.406-.398zm1.698.481V85c.729 0 1.411-.207 1.99-.564l-.293-.473-.292-.472a2.66 2.66 0 0 1-1.405.398zm1.815-.558.313.46.02-.013-.316-.458-.315-.457-.014.01zm.099-.07.33.448a3.8 3.8 0 0 0 1.268-1.632l-.515-.208-.515-.209c-.187.463-.5.862-.898 1.154zm1.083-1.392v.555h1.05v-1.111h-1.05zm1.133 0v.555h.012v-1.111h-.012zm.07 0v.555h1.051v-1.111h-1.05zm1.051 0v.555a2.77 2.77 0 0 0 1.857-.711l-.371-.413-.372-.414a1.66 1.66 0 0 1-1.114.427zm1.578-.658.395.391.016-.016-.398-.388-.398-.388-.01.01zm.075-.08.414.372a2.77 2.77 0 0 0 .711-1.857H50c0 .429-.16.819-.427 1.114zm.57-1.485h.555v-21.32H50V80.2zm0-22.998h.555v-.24H50v.24zm0-1.437h.555V34.444H50v21.322zm0-21.322h.555a2.77 2.77 0 0 0-.711-1.856l-.413.371-.414.372c.266.295.427.685.427 1.113zm-.658-1.577.391-.395-.016-.016-.388.398-.388.397.01.01zm-.08-.076.372-.413a2.77 2.77 0 0 0-1.857-.711v1.111c.429 0 .819.16 1.114.427zm-1.485-.569v-.555H27.106v1.111h21.227zm-22.897 0v-.555h-.238v1.111h.238zm-1.43 0v-.555H2.777v1.111h21.227z"/><path fill="#fff" fill-rule="evenodd" stroke="#264887" stroke-width="1.111" d="M32.797 53.502a2.083 2.083 0 0 1 2.525-1.517L87.083 64.89a2.083 2.083 0 0 1 1.518 2.526l-2.8 11.229a2.083 2.083 0 0 1-2.526 1.517l-51.76-12.905a2.083 2.083 0 0 1-1.518-2.526z" clip-rule="evenodd"/><path fill="#D32D27" fill-rule="evenodd" d="M35.47 57.002a1.39 1.39 0 0 1 1.684-1.012l4.936 1.23a1.39 1.39 0 0 1 1.011 1.684l-1.35 5.418a1.39 1.39 0 0 1-1.684 1.012l-4.936-1.23a1.39 1.39 0 0 1-1.012-1.684z" clip-rule="evenodd"/><path fill="#B5D9F1" fill-rule="evenodd" d="M45.346 60.06a1.475 1.475 0 0 1 1.789-1.075l35.293 8.8a1.475 1.475 0 1 1-.714 2.863l-35.293-8.8a1.475 1.475 0 0 1-1.075-1.788m-1.189 4.773a1.476 1.476 0 0 1 1.788-1.075L65.5 68.633a1.476 1.476 0 1 1-.714 2.863l-19.553-4.875a1.476 1.476 0 0 1-1.075-1.788" clip-rule="evenodd" style="mix-blend-mode:multiply"/><path fill="#fff" fill-rule="evenodd" stroke="#264887" stroke-dasharray="105.56 3.33 0.56 2.22" stroke-linecap="round" stroke-width="1.111" d="M41.667 46.528c0-1.15.932-2.084 2.083-2.084h53.438c1.15 0 2.083.933 2.083 2.084v11.74c0 1.15-.933 2.083-2.083 2.083H43.75a2.083 2.083 0 0 1-2.084-2.083z" clip-rule="evenodd"/><path fill="#D32D27" fill-rule="evenodd" d="M45.113 49.313a1.39 1.39 0 0 1 1.389-1.389h5.1c.767 0 1.388.622 1.388 1.389v5.672a1.39 1.39 0 0 1-1.389 1.39h-5.1a1.39 1.39 0 0 1-1.388-1.39z" clip-rule="evenodd"/><path fill="#B5D9F1" fill-rule="evenodd" d="M55.453 49.912c0-.823.667-1.49 1.49-1.49H93.35a1.491 1.491 0 0 1 0 2.982H56.944a1.49 1.49 0 0 1-1.491-1.492m0 4.971a1.49 1.49 0 0 1 1.49-1.491h20.159a1.491 1.491 0 0 1 0 2.982H56.944a1.49 1.49 0 0 1-1.491-1.49" clip-rule="evenodd" style="mix-blend-mode:multiply"/><g filter="url(#b)"><path fill="#fff" fill-rule="evenodd" d="M6.023 38.333c0-.613.498-1.11 1.112-1.11h37.518a1.11 1.11 0 0 1 1.111 1.11v37.49c0 .614-.498 1.111-1.111 1.111H7.135a1.11 1.11 0 0 1-1.112-1.111z" clip-rule="evenodd"/></g><path stroke="#264887" stroke-linecap="round" stroke-linejoin="round" stroke-width="1.111" d="M6.023 38.333c0-.613.498-1.11 1.112-1.11h37.518a1.11 1.11 0 0 1 1.111 1.11v37.49c0 .614-.498 1.111-1.111 1.111H7.135a1.11 1.11 0 0 1-1.112-1.111z" clip-rule="evenodd"/><g filter="url(#c)"><path fill="#fff" fill-rule="evenodd" d="M3.889 44.228a2.208 2.208 0 1 1 4.416 0v4.9a2.208 2.208 0 1 1-4.416 0z" clip-rule="evenodd"/></g><path stroke="#264887" stroke-linecap="round" stroke-linejoin="round" stroke-width="1.111" d="M3.889 44.228c0-1.219.988-2.208 2.207-2.208v0c1.22 0 2.208.989 2.208 2.208v4.9c0 1.22-.988 2.208-2.208 2.208v0a2.21 2.21 0 0 1-2.207-2.208z" clip-rule="evenodd"/><g filter="url(#d)"><path fill="#fff" fill-rule="evenodd" d="M3.889 67.153a2.208 2.208 0 1 1 4.416 0v4.9a2.208 2.208 0 0 1-4.416 0z" clip-rule="evenodd"/></g><path stroke="#264887" stroke-linecap="round" stroke-linejoin="round" stroke-width="1.111" d="M3.889 67.153c0-1.22.988-2.208 2.207-2.208v0c1.22 0 2.208.989 2.208 2.208v4.9a2.207 2.207 0 0 1-2.208 2.207v0a2.21 2.21 0 0 1-2.207-2.207z" clip-rule="evenodd"/><path stroke="#264887" stroke-width="1.111" d="M25.497 49.995c4.284 0 7.758 3.47 7.758 7.753s-3.474 7.753-7.758 7.753a7.756 7.756 0 0 1-7.758-7.753 7.756 7.756 0 0 1 7.758-7.753Z"/><path fill="#D22D27" fill-rule="evenodd" d="M26.655 49.425a1 1 0 1 0-2 0v4.969a3.21 3.21 0 0 0-2.101 3.841l-4.365 3.066a1.006 1.006 0 0 0-.248 1.398.997.997 0 0 0 1.395.244l4.294-3.015a3.18 3.18 0 0 0 2.025.724c.853 0 1.628-.335 2.202-.88l4.517 3.171a1 1 0 0 0 1.395-.244 1.003 1.003 0 0 0-.248-1.398l-4.713-3.31q.046-.267.047-.548a3.21 3.21 0 0 0-2.2-3.05z" clip-rule="evenodd"/><defs><filter id="a" width="51.111" height="53.334" x="0" y="31.666" color-interpolation-filters="sRGB" filterUnits="userSpaceOnUse"><feFlood flood-opacity="0" result="BackgroundImageFix"/><feBlend in="SourceGraphic" in2="BackgroundImageFix" result="shape"/><feColorMatrix in="SourceAlpha" result="hardAlpha" values="0 0 0 0 0 0 0 0 0 0 0 0 0 0 0 0 0 0 127 0"/><feOffset dy="-2.222"/><feComposite in2="hardAlpha" k2="-1" k3="1" operator="arithmetic"/><feColorMatrix values="0 0 0 0 0.760784 0 0 0 0 0.878431 0 0 0 0 0.956863 0 0 0 1 0"/><feBlend in2="shape" result="effect1_innerShadow_615_8828"/></filter><filter id="b" width="40.852" height="40.823" x="5.468" y="36.666" color-interpolation-filters="sRGB" filterUnits="userSpaceOnUse"><feFlood flood-opacity="0" result="BackgroundImageFix"/><feBlend in="SourceGraphic" in2="BackgroundImageFix" result="shape"/><feColorMatrix in="SourceAlpha" result="hardAlpha" values="0 0 0 0 0 0 0 0 0 0 0 0 0 0 0 0 0 0 127 0"/><feOffset dx="3.333" dy="-3.333"/><feComposite in2="hardAlpha" k2="-1" k3="1" operator="arithmetic"/><feColorMatrix values="0 0 0 0 0.709804 0 0 0 0 0.85098 0 0 0 0 0.945098 0 0 0 1 0"/><feBlend in2="shape" result="effect1_innerShadow_615_8828"/></filter><filter id="c" width="5.527" height="10.426" x="3.333" y="41.465" color-interpolation-filters="sRGB" filterUnits="userSpaceOnUse"><feFlood flood-opacity="0" result="BackgroundImageFix"/><feBlend in="SourceGraphic" in2="BackgroundImageFix" result="shape"/><feColorMatrix in="SourceAlpha" result="hardAlpha" values="0 0 0 0 0 0 0 0 0 0 0 0 0 0 0 0 0 0 127 0"/><feOffset dx="1.667" dy="-2.222"/><feComposite in2="hardAlpha" k2="-1" k3="1" operator="arithmetic"/><feColorMatrix values="0 0 0 0 0.709804 0 0 0 0 0.85098 0 0 0 0 0.945098 0 0 0 1 0"/><feBlend in2="shape" result="effect1_innerShadow_615_8828"/></filter><filter id="d" width="5.527" height="10.426" x="3.333" y="64.39" color-interpolation-filters="sRGB" filterUnits="userSpaceOnUse"><feFlood flood-opacity="0" result="BackgroundImageFix"/><feBlend in="SourceGraphic" in2="BackgroundImageFix" result="shape"/><feColorMatrix in="SourceAlpha" result="hardAlpha" values="0 0 0 0 0 0 0 0 0 0 0 0 0 0 0 0 0 0 127 0"/><feOffset dx="1.667" dy="-2.222"/><feComposite in2="hardAlpha" k2="-1" k3="1" operator="arithmetic"/><feColorMatrix values="0 0 0 0 0.709804 0 0 0 0 0.85098 0 0 0 0 0.945098 0 0 0 1 0"/><feBlend in2="shape" result="effect1_innerShadow_615_8828"/></filter></defs></svg>