<svg xmlns="http://www.w3.org/2000/svg" width="125" height="127" fill="none"><circle cx="62.5" cy="64.5" r="62.5" fill="#EBF5FB"/><path stroke="#004590" stroke-dasharray="1 6 164 5" stroke-linecap="round" stroke-width="2" d="M22.917 103.389h62.5"/><g filter="url(#a)"><path fill="#fff" fill-rule="evenodd" d="M22.222 41.417a4 4 0 0 1 4-4h54.5a4 4 0 0 1 4 4v54.751a4 4 0 0 1-4 4h-1.595a4.04 4.04 0 0 1-7.493 0H36.62a4.04 4.04 0 0 1-7.493 0h-2.904a4 4 0 0 1-4-4z" clip-rule="evenodd"/></g><path fill="#004590" d="M79.127 100.168v-1h-.674l-.253.626zm-7.493 0 .927-.374-.252-.626h-.675zm-35.015 0v-1h-.674l-.253.626zm-7.493 0 .927-.374-.252-.626h-.675zm-6.246-62.47a1 1 0 0 0 1.338 1.487zm1.212 1.606a1 1 0 1 0-1.42-1.408zm-1.449-1.379a1 1 0 1 0 1.432 1.397zm1.347 1.487a1 1 0 0 0-1.487-1.337zm-2.768 27.517a1 1 0 1 0 2 0zm2 2.007a1 1 0 1 0-2 0zm-2 .287a1 1 0 0 0 2 0zm2 1.433a1 1 0 1 0-2 0zm-.719 28.854a1 1 0 0 0 1.487-1.337zm1.607-1.212a1 1 0 0 0-1.409 1.42zm-1.38 1.45a1 1 0 0 0 1.397-1.432zm1.488-1.348a1 1 0 0 0-1.338 1.488zm3.358 2.768a1 1 0 1 0 0-2zm.106-2a1 1 0 1 0 0 2zm.015 2a1 1 0 1 0 0-2zm.076-2a1 1 0 1 0 0 2zm2.115 3.547a1 1 0 1 0 1.185-1.61zm1.294-1.534a1 1 0 1 0-1.115 1.66zm-1.09 1.678a1 1 0 1 0 1.105-1.668zm1.185-1.617a1 1 0 0 0-1.052 1.701zm4.244 1.701a1 1 0 1 0-1.052-1.701zm-.941-1.773a1 1 0 0 0 1.125 1.654zm1.15 1.636a1 1 0 1 0-1.135-1.646zm-1.058-1.701a1 1 0 1 0 1.186 1.61zm18.263.063a1 1 0 1 0 0-2zm1.283-2a1 1 0 1 0 0 2zm.184 2a1 1 0 1 0 0-2zm.916-2a1 1 0 1 0 0 2zm17.078 3.547a1 1 0 1 0 1.185-1.61zm1.293-1.534a1 1 0 1 0-1.114 1.66zm-1.088 1.678a1 1 0 1 0 1.104-1.668zm1.184-1.617a1 1 0 0 0-1.052 1.701zm4.244 1.701a1 1 0 1 0-1.052-1.701zm-.941-1.773a1 1 0 0 0 1.125 1.654zm1.15 1.636a1 1 0 1 0-1.135-1.646zm-1.058-1.701a1 1 0 1 0 1.186 1.61zm2.69.063a1 1 0 1 0 0-2zm.059-2a1 1 0 1 0 0 2zm.008 2a1 1 0 1 0 0-2zm.042-2a1 1 0 1 0 0 2zm4.085.72a1 1 0 0 0-1.337-1.488zm-1.212-1.607a1 1 0 0 0 1.42 1.408zm1.449 1.38a1 1 0 0 0-1.431-1.398zm-1.347-1.488a1 1 0 1 0 1.487 1.337zm2.768-27.517a1 1 0 0 0-2 0zm-2-2.007a1 1 0 1 0 2 0zm2-.286a1 1 0 1 0-2 0zm-2-1.434a1 1 0 1 0 2 0zm.72-28.854a1 1 0 1 0-1.488 1.337zm-1.607 1.212a1 1 0 1 0 1.408-1.42zm1.379-1.45a1 1 0 0 0-1.397 1.432zm-1.487 1.348a1 1 0 1 0 1.337-1.488zm-27.4-2.768a1 1 0 1 0 0 2zm-1.997 2a1 1 0 0 0 0-2zm-.286-2a1 1 0 1 0 0 2zm-1.426 2a1 1 0 0 0 0-2zm-25.396-2a5 5 0 0 0-3.342 1.28l1.338 1.488a3 3 0 0 1 2.004-.768zm-3.55 1.479-.029.029 1.432 1.397.017-.018zm-.169.179a5 5 0 0 0-1.28 3.342h2c0-.772.289-1.473.767-2.005zm-1.28 3.342v25.512h2V41.417zm0 27.519v.287h2v-.287zm0 1.72v25.512h2V70.657zm0 25.512c0 1.284.484 2.457 1.28 3.342l1.487-1.337a3 3 0 0 1-.768-2.005zm1.478 3.55.03.03 1.396-1.432-.017-.017zm.18.17a5 5 0 0 0 3.341 1.28v-2c-.771 0-1.473-.29-2.005-.768zm3.341 1.28h1.354v-2h-1.354zm1.46 0h.015v-2h-.015zm.091 0h1.353v-2h-1.353zm.426-.625a5.05 5.05 0 0 0 1.689 2.172l1.185-1.61a3.05 3.05 0 0 1-1.02-1.311zm1.868 2.298.026.018 1.104-1.668-.015-.01zm.158.102c.77.477 1.678.751 2.648.751v-2a3 3 0 0 1-1.596-.452zm2.648.751c.97 0 1.878-.274 2.648-.751l-1.052-1.701a3 3 0 0 1-1.596.452zm2.832-.87.026-.018-1.136-1.646-.015.01zm.153-.109a5.05 5.05 0 0 0 1.688-2.172l-1.854-.75a3.06 3.06 0 0 1-1.02 1.312zm.761-1.547h16.316v-2H36.62zm17.6 0h.183v-2h-.184zm1.1 0h16.315v-2H55.318zm15.388-.625a5.05 5.05 0 0 0 1.689 2.172l1.185-1.61a3.05 3.05 0 0 1-1.02-1.311zm1.868 2.298.026.018 1.104-1.668-.016-.01zm.158.102c.77.477 1.678.751 2.648.751v-2a3 3 0 0 1-1.596-.452zm2.648.751c.97 0 1.878-.274 2.648-.751l-1.052-1.701a3 3 0 0 1-1.596.452zm2.832-.87.026-.018-1.136-1.646-.015.01zm.153-.109a5.05 5.05 0 0 0 1.688-2.172l-1.854-.75a3.05 3.05 0 0 1-1.02 1.312zm.761-1.547h.743v-2h-.743zm.802 0h.008v-2h-.008zm.05 0h.743v-2h-.743zm.743 0a5 5 0 0 0 3.342-1.28L82.727 98.4a3 3 0 0 1-2.005.768zm3.55-1.479.029-.029-1.431-1.397-.018.018zm.17-.179a5 5 0 0 0 1.28-3.342h-2c0 .772-.29 1.473-.768 2.005zm1.28-3.342V70.657h-2v25.512zm0-27.519v-.286h-2v.286zm0-1.72V41.417h-2v25.512zm0-25.512a5 5 0 0 0-1.28-3.342l-1.488 1.337c.478.532.768 1.233.768 2.005zm-1.479-3.55-.03-.03-1.396 1.432.018.018zm-.179-.17a5 5 0 0 0-3.342-1.28v2c.772 0 1.473.29 2.005.768zm-3.342-1.28H55.327v2h25.395zm-27.392 0h-.286v2h.286zm-1.712 0H26.222v2h25.396z"/><g filter="url(#b)"><path fill="#fff" fill-rule="evenodd" d="M29.167 46.361a2 2 0 0 1 2-2h45.676a2 2 0 0 1 2 2v45.64a2 2 0 0 1-2 2H31.167a2 2 0 0 1-2-2z" clip-rule="evenodd"/></g><path stroke="#004590" stroke-linecap="round" stroke-linejoin="round" stroke-width="2" d="M29.167 46.361a2 2 0 0 1 2-2h45.676a2 2 0 0 1 2 2v45.64a2 2 0 0 1-2 2H31.167a2 2 0 0 1-2-2z" clip-rule="evenodd"/><g filter="url(#c)"><path fill="#fff" fill-rule="evenodd" d="M26.389 52.424a2.76 2.76 0 1 1 5.52 0v6.125a2.76 2.76 0 1 1-5.52 0z" clip-rule="evenodd"/></g><path stroke="#004590" stroke-linecap="round" stroke-linejoin="round" stroke-width="2" d="M26.389 52.424a2.76 2.76 0 1 1 5.52 0v6.125a2.76 2.76 0 1 1-5.52 0z" clip-rule="evenodd"/><g filter="url(#d)"><path fill="#fff" fill-rule="evenodd" d="M26.389 81.08a2.76 2.76 0 1 1 5.52 0v6.125a2.76 2.76 0 1 1-5.52 0z" clip-rule="evenodd"/></g><path stroke="#004590" stroke-linecap="round" stroke-linejoin="round" stroke-width="2" d="M26.389 81.08a2.76 2.76 0 1 1 5.52 0v6.125a2.76 2.76 0 1 1-5.52 0z" clip-rule="evenodd"/><path stroke="#004590" stroke-width="2" d="M53.398 79.32c5.524 0 10.004-4.474 10.004-9.996s-4.48-9.997-10.004-9.997-10.003 4.475-10.003 9.997 4.48 9.996 10.003 9.996Z"/><path fill="#D22D27" fill-rule="evenodd" d="M54.847 58.92c0-.7-.56-1.259-1.25-1.259-.695 0-1.25.564-1.25 1.259v6.21a4.01 4.01 0 0 0-2.627 4.803l-5.456 3.831a1.257 1.257 0 0 0-.31 1.748 1.246 1.246 0 0 0 1.743.306l5.369-3.77c.69.566 1.57.905 2.53.905a3.98 3.98 0 0 0 2.753-1.1l5.647 3.965a1.25 1.25 0 0 0 1.744-.306 1.254 1.254 0 0 0-.31-1.748l-5.892-4.137a4.01 4.01 0 0 0-2.692-4.496z" clip-rule="evenodd"/><path stroke="#B5D9F1" stroke-linecap="round" stroke-linejoin="round" stroke-width="2" d="M119.097 44.361h-5.208v5.56h5.208zM8.422 28.108l-3.56 3.8 3.56 3.802 3.56-3.801zm93.34 54.812 4.949 5.283m-.175-5.283-4.949 5.283"/><path fill="#004590" d="M84.722 39.344c0-.51-.206-1.001-.574-1.363a1.98 1.98 0 0 0-1.387-.564H49.043a24.2 24.2 0 0 0 1.242 13.398 24.66 24.66 0 0 0 8.224 10.756 25.3 25.3 0 0 0 12.748 4.9c4.63.437 9.292-.4 13.465-2.42z" opacity=".15"/><path fill="#fff" stroke="#004590" stroke-linecap="round" stroke-linejoin="round" stroke-width="2" d="m89.212 52.415-3.815 3.815 6.676 6.677 3.815-3.815z"/><path fill="#fff" stroke="#004590" stroke-linecap="round" stroke-linejoin="round" stroke-width="2" d="M85.355 58.637c9.23-6.299 11.607-18.887 5.31-28.118-6.3-9.23-18.888-11.608-28.118-5.31s-11.608 18.888-5.31 28.118 18.887 11.608 28.118 5.31"/><path fill="#6CB4E4" d="M89.927 44.515c1.432-8.824-4.56-17.138-13.384-18.57s-17.138 4.56-18.57 13.384 4.56 17.138 13.385 18.57c8.823 1.432 17.137-4.56 18.57-13.384"/><path fill="#B5D9F1" d="M85.409 30.492a16.185 16.185 0 1 0-22.89 22.89z"/><path stroke="#004590" stroke-miterlimit="10" stroke-width="2" d="M85.396 30.48a16.186 16.186 0 1 1-22.891 22.89 16.186 16.186 0 0 1 22.891-22.89Z"/><path fill="#90C6EB" d="M103.838 76.58a2.9 2.9 0 0 0 2.065.856 2.92 2.92 0 0 0 2.065-.856l1.593-1.595a2.92 2.92 0 0 0 0-4.128L96.575 57.871a.973.973 0 0 0-1.375 0l-4.347 4.347a.974.974 0 0 0 0 1.376z"/><path fill="#B5D9F1" d="m108.857 75.689.704-.704a2.92 2.92 0 0 0 .855-2.064 2.9 2.9 0 0 0-.855-2.065L96.575 57.871a.973.973 0 0 0-1.375 0l-2.174 2.174 15.748 15.727z"/><path stroke="#004590" stroke-miterlimit="10" stroke-width="2" d="M109.561 70.857a2.92 2.92 0 0 1 .855 2.064 2.9 2.9 0 0 1-.855 2.065l-1.594 1.594a2.92 2.92 0 0 1-4.128 0L90.853 63.594a.97.97 0 0 1 0-1.376l4.349-4.347a.973.973 0 0 1 1.375 0z"/><path fill="#fff" stroke="#3598DB" stroke-width="2" d="m82.17 50.176-.697-.717.697.717a2.54 2.54 0 0 0 .775-1.822v-8.203a2.54 2.54 0 0 0-.775-1.822c-.395-.384-.9-.63-1.437-.71V36.44a6.2 6.2 0 0 0-1.893-4.446 6.5 6.5 0 0 0-4.534-1.827 6.5 6.5 0 0 0-4.535 1.827 6.2 6.2 0 0 0-1.893 4.446v1.178a2.63 2.63 0 0 0-1.437.711 2.54 2.54 0 0 0-.774 1.822v8.203c0 .69.282 1.344.774 1.822.491.477 1.151.74 1.834.74h12.061c.683 0 1.343-.262 1.834-.74ZM76.723 36.44v1.149h-4.835V36.44c0-.606.248-1.193.698-1.63a2.47 2.47 0 0 1 1.72-.69c.65 0 1.268.251 1.72.69.45.437.697 1.024.697 1.63Zm-.64 7.921a1.778 1.778 0 1 1-3.555 0 1.778 1.778 0 0 1 3.555 0Z"/><path stroke="#B5D9F1" stroke-linecap="round" stroke-linejoin="round" stroke-width="2.204" d="m94.628 22.698 4.677-.922M87.56 18.103l.156-4.776m4.208 5.787 2.86-3.823"/><path stroke="#B5D9F1" stroke-linecap="round" stroke-linejoin="round" stroke-width="2.204" d="M44.833 14.119a2.045 2.045 0 0 0 2.043-2.048 2.045 2.045 0 0 0-2.043-2.048 2.045 2.045 0 0 0-2.042 2.048c0 1.131.914 2.048 2.042 2.048" clip-rule="evenodd"/><path fill="#ECF5FB" fill-rule="evenodd" d="M56.32 114.116c29.724 0 53.82-24.096 53.82-53.82S86.044 6.476 56.32 6.476 2.5 30.572 2.5 60.296s24.096 53.82 53.82 53.82" clip-rule="evenodd"/><path stroke="#B5D9F1" stroke-linecap="round" stroke-linejoin="round" stroke-width="2" d="M80.838 1.931h3.588v3.588h-3.588zM63.62 11.768l2.537-2.537 2.537 2.537-2.537 2.537zm7.8 10.644 3.409 3.41m-.121-3.41-3.409 3.41"/><path stroke="#B5D9F1" stroke-linecap="round" stroke-width="12" d="M18.658 15.71c0 33.6 30.274 60.837 67.62 60.837q2.929 0 5.796-.22m10.828-1.632q-2.922.665-5.938 1.097m15.718-4.058a71 71 0 0 0 5.239-2.246"/><path stroke="#264887" stroke-linecap="round" stroke-width="2" d="M98.747 73.172a63 63 0 0 1-5.594 1.149m14.809-4.25q2.526-1.073 4.936-2.351m-24.352 7.161q-.623.053-1.25.094M19.64 17.239c2.947 32.45 30.227 57.873 63.445 57.873q.854 0 1.7-.022"/><path stroke="#264887" stroke-linecap="round" stroke-width="2" d="M106.645 54.184a50 50 0 0 0 7.203-4.695m1.682-1.375q-.415.354-.838.7m-15.286 8.535a49.9 49.9 0 0 1-16.322 2.725c-25.178 0-46.009-18.616-49.479-42.834"/><path stroke="#D32D27" stroke-linecap="round" stroke-width="5" d="M25.624 15.804c0 29.328 26.301 53.103 58.745 53.103 3.808 0 7.532-.328 11.139-.954m16.55-5.303A59.5 59.5 0 0 0 122.5 56.2"/><path stroke="#264887" stroke-linecap="round" stroke-linejoin="round" stroke-width="2" d="m19.444 21.177-12.85 5.168L25.73 3.651l23.018 18.744-14.3-2.624"/><defs><filter id="a" width="64.5" height="67.278" x="21.222" y="36.417" color-interpolation-filters="sRGB" filterUnits="userSpaceOnUse"><feFlood flood-opacity="0" result="BackgroundImageFix"/><feBlend in="SourceGraphic" in2="BackgroundImageFix" result="shape"/><feColorMatrix in="SourceAlpha" result="hardAlpha" values="0 0 0 0 0 0 0 0 0 0 0 0 0 0 0 0 0 0 127 0"/><feOffset dy="-4"/><feComposite in2="hardAlpha" k2="-1" k3="1" operator="arithmetic"/><feColorMatrix values="0 0 0 0 0.760784 0 0 0 0 0.878431 0 0 0 0 0.956863 0 0 0 1 0"/><feBlend in2="shape" result="effect1_innerShadow_2740_131734"/></filter><filter id="b" width="51.676" height="51.64" x="28.167" y="43.361" color-interpolation-filters="sRGB" filterUnits="userSpaceOnUse"><feFlood flood-opacity="0" result="BackgroundImageFix"/><feBlend in="SourceGraphic" in2="BackgroundImageFix" result="shape"/><feColorMatrix in="SourceAlpha" result="hardAlpha" values="0 0 0 0 0 0 0 0 0 0 0 0 0 0 0 0 0 0 127 0"/><feOffset dx="6" dy="-6"/><feComposite in2="hardAlpha" k2="-1" k3="1" operator="arithmetic"/><feColorMatrix values="0 0 0 0 0.709804 0 0 0 0 0.85098 0 0 0 0 0.945098 0 0 0 1 0"/><feBlend in2="shape" result="effect1_innerShadow_2740_131734"/></filter><filter id="c" width="7.52" height="13.644" x="25.389" y="48.664" color-interpolation-filters="sRGB" filterUnits="userSpaceOnUse"><feFlood flood-opacity="0" result="BackgroundImageFix"/><feBlend in="SourceGraphic" in2="BackgroundImageFix" result="shape"/><feColorMatrix in="SourceAlpha" result="hardAlpha" values="0 0 0 0 0 0 0 0 0 0 0 0 0 0 0 0 0 0 127 0"/><feOffset dx="3" dy="-4"/><feComposite in2="hardAlpha" k2="-1" k3="1" operator="arithmetic"/><feColorMatrix values="0 0 0 0 0.709804 0 0 0 0 0.85098 0 0 0 0 0.945098 0 0 0 1 0"/><feBlend in2="shape" result="effect1_innerShadow_2740_131734"/></filter><filter id="d" width="7.52" height="13.644" x="25.389" y="77.32" color-interpolation-filters="sRGB" filterUnits="userSpaceOnUse"><feFlood flood-opacity="0" result="BackgroundImageFix"/><feBlend in="SourceGraphic" in2="BackgroundImageFix" result="shape"/><feColorMatrix in="SourceAlpha" result="hardAlpha" values="0 0 0 0 0 0 0 0 0 0 0 0 0 0 0 0 0 0 127 0"/><feOffset dx="3" dy="-4"/><feComposite in2="hardAlpha" k2="-1" k3="1" operator="arithmetic"/><feColorMatrix values="0 0 0 0 0.709804 0 0 0 0 0.85098 0 0 0 0 0.945098 0 0 0 1 0"/><feBlend in2="shape" result="effect1_innerShadow_2740_131734"/></filter></defs></svg>