<svg xmlns="http://www.w3.org/2000/svg" width="17" height="16" fill="none"><path fill="#40526D" fill-rule="evenodd" d="M10.881 13.938v-.002a6.5 6.5 0 0 0 3.175-2.807 6.52 6.52 0 0 0-.506-7.179.394.394 0 0 0-.593-.036l-.242.243a.59.59 0 0 1-.993-.285l-.668-2.9a.616.616 0 0 1 .709-.71l2.894.67.002-.002a.59.59 0 0 1 .284.994l-.304.305a.394.394 0 0 0-.026.532 8.09 8.09 0 0 1-3.136 12.633v.002a8 8 0 0 1-2.43.602.786.786 0 0 1-.84-.718.79.79 0 0 1 .703-.853 6.5 6.5 0 0 0 1.971-.49M5.098.75A8 8 0 0 1 7.855.002a.786.786 0 0 1 .839.718.79.79 0 0 1-.702.853 6.5 6.5 0 0 0-1.907.462 6 6 0 0 0-.392.176l-.093.046a6.515 6.515 0 0 0-2.208 9.774.393.393 0 0 0 .593.036l.242-.243a.59.59 0 0 1 .99.282l.668 2.9a.593.593 0 0 1-.709.71l-2.894-.67a.59.59 0 0 1-.285-.994l.303-.303a.395.395 0 0 0 .026-.532A8.09 8.09 0 0 1 5.098.75" clip-rule="evenodd"/></svg>