<svg xmlns="http://www.w3.org/2000/svg" width="24" height="24" fill="none"><g clip-path="url(#a)"><path fill="#fff" d="M8.498 7.168c1.522-2.755 5.482-2.755 7.003 0l5.048 9.14c1.472 2.666-.456 5.933-3.502 5.933H6.953c-3.046 0-4.974-3.267-3.502-5.933z"/><path fill="#EDBF0E" d="M23.119 20 13.772 2.15a2 2 0 0 0-3.543 0L.88 20a2 2 0 0 0 1.772 2.928h18.694A2 2 0 0 0 23.119 20M10.999 8.423a1 1 0 1 1 2 0v6a1 1 0 0 1-2 0zm1.05 11.51h-.027a1.527 1.527 0 0 1-1.522-1.47 1.476 1.476 0 0 1 1.448-1.53h.028A1.527 1.527 0 0 1 13.5 18.4a1.477 1.477 0 0 1-1.45 1.533"/></g><defs><clipPath id="a"><path fill="#fff" d="M0 0h24v24H0z"/></clipPath></defs></svg>