<svg xmlns="http://www.w3.org/2000/svg" width="24" height="24" fill="none"><path fill="#40526D" d="M4.163 9.996a1.2 1.2 0 0 0-.363.849 1.17 1.17 0 0 0 .363.848 1.22 1.22 0 0 0 .87.357 1.25 1.25 0 0 0 .872-.357 8.8 8.8 0 0 1 6.127-2.466 8.8 8.8 0 0 1 6.127 2.466 1.24 1.24 0 0 0 .876.354 1.27 1.27 0 0 0 .876-.354 1.207 1.207 0 0 0 0-1.697 11.3 11.3 0 0 0-7.874-3.173 11.3 11.3 0 0 0-7.874 3.173"/><path fill="#40526D" d="M22.703 6.303C19.872 3.548 16.033 2 12.032 2 8.03 2 4.192 3.548 1.362 6.303A1.2 1.2 0 0 0 1 7.16c0 .321.133.628.366.855a1.26 1.26 0 0 0 1.757-.005c2.37-2.29 5.572-3.574 8.909-3.574s6.54 1.285 8.909 3.574a1.257 1.257 0 0 0 1.7-.051 1.2 1.2 0 0 0 .359-.82 1.2 1.2 0 0 0-.317-.836zm-8.315 5.699a7.4 7.4 0 0 0-3.96-.214 7.25 7.25 0 0 0-3.474 1.862 1.2 1.2 0 0 0-.355.854 1.21 1.21 0 0 0 .759 1.117 1.27 1.27 0 0 0 .95.002 1.2 1.2 0 0 0 .398-.266c.854-.825 2-1.3 3.202-1.326a4.78 4.78 0 0 1 3.262 1.181c.133.149.295.27.477.355.182.086.38.136.582.147a1.27 1.27 0 0 0 .685-.208c.203-.133.361-.32.455-.54a1.185 1.185 0 0 0-.26-1.316 7.14 7.14 0 0 0-2.721-1.648M12.032 22c1.367 0 2.475-1.08 2.475-2.41 0-1.332-1.108-2.41-2.475-2.41s-2.475 1.078-2.475 2.41c0 1.33 1.108 2.41 2.475 2.41"/></svg>